<?xml version="1.0" encoding="utf-8"?>
<svg xmlns="http://www.w3.org/2000/svg" xmlns:xlink="http://www.w3.org/1999/xlink" width="600" height="400" viewBox="0 0 2400 1600">
<defs>
  <clipPath id="clip950">
    <rect x="0" y="0" width="2400" height="1600"/>
  </clipPath>
</defs>
<path clip-path="url(#clip950)" d="
M0 1600 L2400 1600 L2400 0 L0 0  Z
  " fill="#ffffff" fill-rule="evenodd" fill-opacity="1"/>
<defs>
  <clipPath id="clip951">
    <rect x="480" y="0" width="1681" height="1600"/>
  </clipPath>
</defs>
<path clip-path="url(#clip950)" d="
M348.176 1423.18 L2352.76 1423.18 L2352.76 123.472 L348.176 123.472  Z
  " fill="#ffffff" fill-rule="evenodd" fill-opacity="1"/>
<defs>
  <clipPath id="clip952">
    <rect x="348" y="123" width="2006" height="1301"/>
  </clipPath>
</defs>
<polyline clip-path="url(#clip952)" style="stroke:#000000; stroke-width:2; stroke-opacity:0.1; fill:none" points="
  675.068,1423.18 675.068,123.472 
  "/>
<polyline clip-path="url(#clip952)" style="stroke:#000000; stroke-width:2; stroke-opacity:0.1; fill:none" points="
  1215.39,1423.18 1215.39,123.472 
  "/>
<polyline clip-path="url(#clip952)" style="stroke:#000000; stroke-width:2; stroke-opacity:0.1; fill:none" points="
  1755.7,1423.18 1755.7,123.472 
  "/>
<polyline clip-path="url(#clip952)" style="stroke:#000000; stroke-width:2; stroke-opacity:0.1; fill:none" points="
  2296.02,1423.18 2296.02,123.472 
  "/>
<polyline clip-path="url(#clip950)" style="stroke:#000000; stroke-width:4; stroke-opacity:1; fill:none" points="
  348.176,1423.18 2352.76,1423.18 
  "/>
<polyline clip-path="url(#clip950)" style="stroke:#000000; stroke-width:4; stroke-opacity:1; fill:none" points="
  675.068,1423.18 675.068,1407.58 
  "/>
<polyline clip-path="url(#clip950)" style="stroke:#000000; stroke-width:4; stroke-opacity:1; fill:none" points="
  1215.39,1423.18 1215.39,1407.58 
  "/>
<polyline clip-path="url(#clip950)" style="stroke:#000000; stroke-width:4; stroke-opacity:1; fill:none" points="
  1755.7,1423.18 1755.7,1407.58 
  "/>
<polyline clip-path="url(#clip950)" style="stroke:#000000; stroke-width:4; stroke-opacity:1; fill:none" points="
  2296.02,1423.18 2296.02,1407.58 
  "/>
<path clip-path="url(#clip950)" d="M 0 0 M653.841 1479.92 L670.161 1479.92 L670.161 1483.85 L648.217 1483.85 L648.217 1479.92 Q650.879 1477.16 655.462 1472.53 Q660.068 1467.88 661.249 1466.54 Q663.494 1464.01 664.374 1462.28 Q665.277 1460.52 665.277 1458.83 Q665.277 1456.07 663.332 1454.34 Q661.411 1452.6 658.309 1452.6 Q656.11 1452.6 653.656 1453.37 Q651.226 1454.13 648.448 1455.68 L648.448 1450.96 Q651.272 1449.82 653.726 1449.25 Q656.179 1448.67 658.216 1448.67 Q663.587 1448.67 666.781 1451.35 Q669.976 1454.04 669.976 1458.53 Q669.976 1460.66 669.165 1462.58 Q668.378 1464.48 666.272 1467.07 Q665.693 1467.74 662.591 1470.96 Q659.49 1474.15 653.841 1479.92 Z" fill="#000000" fill-rule="evenodd" fill-opacity="1" /><path clip-path="url(#clip950)" d="M 0 0 M689.976 1452.37 Q686.364 1452.37 684.536 1455.94 Q682.73 1459.48 682.73 1466.61 Q682.73 1473.71 684.536 1477.28 Q686.364 1480.82 689.976 1480.82 Q693.61 1480.82 695.415 1477.28 Q697.244 1473.71 697.244 1466.61 Q697.244 1459.48 695.415 1455.94 Q693.61 1452.37 689.976 1452.37 M689.976 1448.67 Q695.786 1448.67 698.841 1453.27 Q701.92 1457.86 701.92 1466.61 Q701.92 1475.33 698.841 1479.94 Q695.786 1484.52 689.976 1484.52 Q684.165 1484.52 681.087 1479.94 Q678.031 1475.33 678.031 1466.61 Q678.031 1457.86 681.087 1453.27 Q684.165 1448.67 689.976 1448.67 Z" fill="#000000" fill-rule="evenodd" fill-opacity="1" /><path clip-path="url(#clip950)" d="M 0 0 M1203.56 1453.37 L1191.75 1471.81 L1203.56 1471.81 L1203.56 1453.37 M1202.33 1449.29 L1208.21 1449.29 L1208.21 1471.81 L1213.14 1471.81 L1213.14 1475.7 L1208.21 1475.7 L1208.21 1483.85 L1203.56 1483.85 L1203.56 1475.7 L1187.96 1475.7 L1187.96 1471.19 L1202.33 1449.29 Z" fill="#000000" fill-rule="evenodd" fill-opacity="1" /><path clip-path="url(#clip950)" d="M 0 0 M1230.87 1452.37 Q1227.26 1452.37 1225.43 1455.94 Q1223.63 1459.48 1223.63 1466.61 Q1223.63 1473.71 1225.43 1477.28 Q1227.26 1480.82 1230.87 1480.82 Q1234.51 1480.82 1236.31 1477.28 Q1238.14 1473.71 1238.14 1466.61 Q1238.14 1459.48 1236.31 1455.94 Q1234.51 1452.37 1230.87 1452.37 M1230.87 1448.67 Q1236.68 1448.67 1239.74 1453.27 Q1242.82 1457.86 1242.82 1466.61 Q1242.82 1475.33 1239.74 1479.94 Q1236.68 1484.52 1230.87 1484.52 Q1225.06 1484.52 1221.98 1479.94 Q1218.93 1475.33 1218.93 1466.61 Q1218.93 1457.86 1221.98 1453.27 Q1225.06 1448.67 1230.87 1448.67 Z" fill="#000000" fill-rule="evenodd" fill-opacity="1" /><path clip-path="url(#clip950)" d="M 0 0 M1741.11 1464.71 Q1737.96 1464.71 1736.11 1466.86 Q1734.28 1469.01 1734.28 1472.76 Q1734.28 1476.49 1736.11 1478.67 Q1737.96 1480.82 1741.11 1480.82 Q1744.26 1480.82 1746.09 1478.67 Q1747.94 1476.49 1747.94 1472.76 Q1747.94 1469.01 1746.09 1466.86 Q1744.26 1464.71 1741.11 1464.71 M1750.39 1450.06 L1750.39 1454.31 Q1748.63 1453.48 1746.83 1453.04 Q1745.04 1452.6 1743.29 1452.6 Q1738.66 1452.6 1736.2 1455.73 Q1733.77 1458.85 1733.42 1465.17 Q1734.79 1463.16 1736.85 1462.09 Q1738.91 1461 1741.39 1461 Q1746.6 1461 1749.6 1464.18 Q1752.64 1467.32 1752.64 1472.76 Q1752.64 1478.09 1749.49 1481.31 Q1746.34 1484.52 1741.11 1484.52 Q1735.11 1484.52 1731.94 1479.94 Q1728.77 1475.33 1728.77 1466.61 Q1728.77 1458.41 1732.66 1453.55 Q1736.55 1448.67 1743.1 1448.67 Q1744.86 1448.67 1746.64 1449.01 Q1748.45 1449.36 1750.39 1450.06 Z" fill="#000000" fill-rule="evenodd" fill-opacity="1" /><path clip-path="url(#clip950)" d="M 0 0 M1770.69 1452.37 Q1767.08 1452.37 1765.25 1455.94 Q1763.45 1459.48 1763.45 1466.61 Q1763.45 1473.71 1765.25 1477.28 Q1767.08 1480.82 1770.69 1480.82 Q1774.33 1480.82 1776.13 1477.28 Q1777.96 1473.71 1777.96 1466.61 Q1777.96 1459.48 1776.13 1455.94 Q1774.33 1452.37 1770.69 1452.37 M1770.69 1448.67 Q1776.5 1448.67 1779.56 1453.27 Q1782.64 1457.86 1782.64 1466.61 Q1782.64 1475.33 1779.56 1479.94 Q1776.5 1484.52 1770.69 1484.52 Q1764.88 1484.52 1761.8 1479.94 Q1758.75 1475.33 1758.75 1466.61 Q1758.75 1457.86 1761.8 1453.27 Q1764.88 1448.67 1770.69 1448.67 Z" fill="#000000" fill-rule="evenodd" fill-opacity="1" /><path clip-path="url(#clip950)" d="M 0 0 M2280.9 1467.44 Q2277.56 1467.44 2275.64 1469.22 Q2273.74 1471 2273.74 1474.13 Q2273.74 1477.25 2275.64 1479.04 Q2277.56 1480.82 2280.9 1480.82 Q2284.23 1480.82 2286.15 1479.04 Q2288.07 1477.23 2288.07 1474.13 Q2288.07 1471 2286.15 1469.22 Q2284.25 1467.44 2280.9 1467.44 M2276.22 1465.45 Q2273.21 1464.71 2271.52 1462.65 Q2269.85 1460.59 2269.85 1457.63 Q2269.85 1453.48 2272.79 1451.07 Q2275.76 1448.67 2280.9 1448.67 Q2286.06 1448.67 2289 1451.07 Q2291.94 1453.48 2291.94 1457.63 Q2291.94 1460.59 2290.25 1462.65 Q2288.58 1464.71 2285.59 1465.45 Q2288.97 1466.24 2290.85 1468.53 Q2292.75 1470.82 2292.75 1474.13 Q2292.75 1479.15 2289.67 1481.84 Q2286.61 1484.52 2280.9 1484.52 Q2275.18 1484.52 2272.1 1481.84 Q2269.04 1479.15 2269.04 1474.13 Q2269.04 1470.82 2270.94 1468.53 Q2272.84 1466.24 2276.22 1465.45 M2274.51 1458.06 Q2274.51 1460.75 2276.17 1462.25 Q2277.86 1463.76 2280.9 1463.76 Q2283.9 1463.76 2285.59 1462.25 Q2287.31 1460.75 2287.31 1458.06 Q2287.31 1455.38 2285.59 1453.88 Q2283.9 1452.37 2280.9 1452.37 Q2277.86 1452.37 2276.17 1453.88 Q2274.51 1455.38 2274.51 1458.06 Z" fill="#000000" fill-rule="evenodd" fill-opacity="1" /><path clip-path="url(#clip950)" d="M 0 0 M2311.06 1452.37 Q2307.45 1452.37 2305.62 1455.94 Q2303.81 1459.48 2303.81 1466.61 Q2303.81 1473.71 2305.62 1477.28 Q2307.45 1480.82 2311.06 1480.82 Q2314.69 1480.82 2316.5 1477.28 Q2318.33 1473.71 2318.33 1466.61 Q2318.33 1459.48 2316.5 1455.94 Q2314.69 1452.37 2311.06 1452.37 M2311.06 1448.67 Q2316.87 1448.67 2319.92 1453.27 Q2323 1457.86 2323 1466.61 Q2323 1475.33 2319.92 1479.94 Q2316.87 1484.52 2311.06 1484.52 Q2305.25 1484.52 2302.17 1479.94 Q2299.11 1475.33 2299.11 1466.61 Q2299.11 1457.86 2302.17 1453.27 Q2305.25 1448.67 2311.06 1448.67 Z" fill="#000000" fill-rule="evenodd" fill-opacity="1" /><path clip-path="url(#clip950)" d="M 0 0 M1354.94 1576 L1350.2 1563.81 L1340.42 1581.63 L1333.52 1581.63 L1347.33 1556.43 L1341.54 1541.44 Q1339.98 1537.42 1335.08 1537.42 L1333.52 1537.42 L1333.52 1532.4 L1335.75 1532.46 Q1343.96 1532.68 1346.03 1538 L1350.74 1550.19 L1360.51 1532.36 L1367.41 1532.36 L1353.6 1557.57 L1359.39 1572.56 Q1360.95 1576.57 1365.85 1576.57 L1367.41 1576.57 L1367.41 1581.6 L1365.19 1581.54 Q1356.97 1581.32 1354.94 1576 Z" fill="#000000" fill-rule="evenodd" fill-opacity="1" /><polyline clip-path="url(#clip952)" style="stroke:#000000; stroke-width:2; stroke-opacity:0.1; fill:none" points="
  348.176,1336.31 2352.76,1336.31 
  "/>
<polyline clip-path="url(#clip952)" style="stroke:#000000; stroke-width:2; stroke-opacity:0.1; fill:none" points="
  348.176,998.834 2352.76,998.834 
  "/>
<polyline clip-path="url(#clip952)" style="stroke:#000000; stroke-width:2; stroke-opacity:0.1; fill:none" points="
  348.176,661.358 2352.76,661.358 
  "/>
<polyline clip-path="url(#clip952)" style="stroke:#000000; stroke-width:2; stroke-opacity:0.1; fill:none" points="
  348.176,323.882 2352.76,323.882 
  "/>
<polyline clip-path="url(#clip950)" style="stroke:#000000; stroke-width:4; stroke-opacity:1; fill:none" points="
  348.176,1423.18 348.176,123.472 
  "/>
<polyline clip-path="url(#clip950)" style="stroke:#000000; stroke-width:4; stroke-opacity:1; fill:none" points="
  348.176,1336.31 372.231,1336.31 
  "/>
<polyline clip-path="url(#clip950)" style="stroke:#000000; stroke-width:4; stroke-opacity:1; fill:none" points="
  348.176,998.834 372.231,998.834 
  "/>
<polyline clip-path="url(#clip950)" style="stroke:#000000; stroke-width:4; stroke-opacity:1; fill:none" points="
  348.176,661.358 372.231,661.358 
  "/>
<polyline clip-path="url(#clip950)" style="stroke:#000000; stroke-width:4; stroke-opacity:1; fill:none" points="
  348.176,323.882 372.231,323.882 
  "/>
<path clip-path="url(#clip950)" d="M 0 0 M114.584 1336.76 L144.26 1336.76 L144.26 1340.7 L114.584 1340.7 L114.584 1336.76 Z" fill="#000000" fill-rule="evenodd" fill-opacity="1" /><path clip-path="url(#clip950)" d="M 0 0 M164.352 1322.11 Q160.741 1322.11 158.913 1325.67 Q157.107 1329.21 157.107 1336.34 Q157.107 1343.45 158.913 1347.02 Q160.741 1350.56 164.352 1350.56 Q167.987 1350.56 169.792 1347.02 Q171.621 1343.45 171.621 1336.34 Q171.621 1329.21 169.792 1325.67 Q167.987 1322.11 164.352 1322.11 M164.352 1318.4 Q170.163 1318.4 173.218 1323.01 Q176.297 1327.59 176.297 1336.34 Q176.297 1345.07 173.218 1349.68 Q170.163 1354.26 164.352 1354.26 Q158.542 1354.26 155.464 1349.68 Q152.408 1345.07 152.408 1336.34 Q152.408 1327.59 155.464 1323.01 Q158.542 1318.4 164.352 1318.4 Z" fill="#000000" fill-rule="evenodd" fill-opacity="1" /><path clip-path="url(#clip950)" d="M 0 0 M184.514 1347.71 L189.399 1347.71 L189.399 1353.59 L184.514 1353.59 L184.514 1347.71 Z" fill="#000000" fill-rule="evenodd" fill-opacity="1" /><path clip-path="url(#clip950)" d="M 0 0 M213.75 1334.96 Q217.107 1335.67 218.982 1337.94 Q220.88 1340.21 220.88 1343.54 Q220.88 1348.66 217.361 1351.46 Q213.843 1354.26 207.362 1354.26 Q205.186 1354.26 202.871 1353.82 Q200.579 1353.4 198.125 1352.55 L198.125 1348.03 Q200.07 1349.17 202.385 1349.75 Q204.699 1350.33 207.223 1350.33 Q211.621 1350.33 213.912 1348.59 Q216.227 1346.85 216.227 1343.54 Q216.227 1340.49 214.074 1338.77 Q211.945 1337.04 208.125 1337.04 L204.098 1337.04 L204.098 1333.2 L208.311 1333.2 Q211.76 1333.2 213.588 1331.83 Q215.417 1330.44 215.417 1327.85 Q215.417 1325.19 213.519 1323.78 Q211.644 1322.34 208.125 1322.34 Q206.204 1322.34 204.005 1322.76 Q201.806 1323.17 199.167 1324.05 L199.167 1319.89 Q201.829 1319.15 204.144 1318.78 Q206.482 1318.4 208.542 1318.4 Q213.866 1318.4 216.968 1320.84 Q220.07 1323.24 220.07 1327.36 Q220.07 1330.23 218.426 1332.22 Q216.783 1334.19 213.75 1334.96 Z" fill="#000000" fill-rule="evenodd" fill-opacity="1" /><path clip-path="url(#clip950)" d="M 0 0 M229.885 1352.87 L229.885 1348.61 Q231.644 1349.45 233.449 1349.89 Q235.255 1350.33 236.991 1350.33 Q241.621 1350.33 244.051 1347.22 Q246.505 1344.1 246.852 1337.76 Q245.509 1339.75 243.449 1340.81 Q241.389 1341.88 238.889 1341.88 Q233.704 1341.88 230.672 1338.75 Q227.662 1335.6 227.662 1330.16 Q227.662 1324.84 230.81 1321.62 Q233.959 1318.4 239.19 1318.4 Q245.185 1318.4 248.334 1323.01 Q251.505 1327.59 251.505 1336.34 Q251.505 1344.52 247.616 1349.4 Q243.75 1354.26 237.199 1354.26 Q235.44 1354.26 233.635 1353.91 Q231.829 1353.57 229.885 1352.87 M239.19 1338.22 Q242.338 1338.22 244.167 1336.07 Q246.019 1333.91 246.019 1330.16 Q246.019 1326.44 244.167 1324.28 Q242.338 1322.11 239.19 1322.11 Q236.042 1322.11 234.19 1324.28 Q232.361 1326.44 232.361 1330.16 Q232.361 1333.91 234.19 1336.07 Q236.042 1338.22 239.19 1338.22 Z" fill="#000000" fill-rule="evenodd" fill-opacity="1" /><path clip-path="url(#clip950)" d="M 0 0 M274.074 1334.96 Q277.431 1335.67 279.306 1337.94 Q281.204 1340.21 281.204 1343.54 Q281.204 1348.66 277.685 1351.46 Q274.167 1354.26 267.685 1354.26 Q265.509 1354.26 263.195 1353.82 Q260.903 1353.4 258.449 1352.55 L258.449 1348.03 Q260.394 1349.17 262.708 1349.75 Q265.023 1350.33 267.546 1350.33 Q271.944 1350.33 274.236 1348.59 Q276.551 1346.85 276.551 1343.54 Q276.551 1340.49 274.398 1338.77 Q272.269 1337.04 268.449 1337.04 L264.421 1337.04 L264.421 1333.2 L268.634 1333.2 Q272.083 1333.2 273.912 1331.83 Q275.741 1330.44 275.741 1327.85 Q275.741 1325.19 273.843 1323.78 Q271.968 1322.34 268.449 1322.34 Q266.528 1322.34 264.329 1322.76 Q262.13 1323.17 259.491 1324.05 L259.491 1319.89 Q262.153 1319.15 264.468 1318.78 Q266.806 1318.4 268.866 1318.4 Q274.19 1318.4 277.292 1320.84 Q280.394 1323.24 280.394 1327.36 Q280.394 1330.23 278.75 1332.22 Q277.107 1334.19 274.074 1334.96 Z" fill="#000000" fill-rule="evenodd" fill-opacity="1" /><path clip-path="url(#clip950)" d="M 0 0 M300.648 1334.45 Q297.5 1334.45 295.648 1336.6 Q293.819 1338.75 293.819 1342.5 Q293.819 1346.23 295.648 1348.4 Q297.5 1350.56 300.648 1350.56 Q303.796 1350.56 305.625 1348.4 Q307.477 1346.23 307.477 1342.5 Q307.477 1338.75 305.625 1336.6 Q303.796 1334.45 300.648 1334.45 M309.93 1319.79 L309.93 1324.05 Q308.171 1323.22 306.366 1322.78 Q304.583 1322.34 302.824 1322.34 Q298.194 1322.34 295.741 1325.46 Q293.31 1328.59 292.963 1334.91 Q294.329 1332.9 296.389 1331.83 Q298.449 1330.74 300.926 1330.74 Q306.134 1330.74 309.143 1333.91 Q312.176 1337.06 312.176 1342.5 Q312.176 1347.83 309.028 1351.04 Q305.88 1354.26 300.648 1354.26 Q294.653 1354.26 291.481 1349.68 Q288.31 1345.07 288.31 1336.34 Q288.31 1328.15 292.199 1323.29 Q296.088 1318.4 302.639 1318.4 Q304.398 1318.4 306.18 1318.75 Q307.986 1319.1 309.93 1319.79 Z" fill="#000000" fill-rule="evenodd" fill-opacity="1" /><path clip-path="url(#clip950)" d="M 0 0 M114.26 999.285 L143.936 999.285 L143.936 1003.22 L114.26 1003.22 L114.26 999.285 Z" fill="#000000" fill-rule="evenodd" fill-opacity="1" /><path clip-path="url(#clip950)" d="M 0 0 M164.028 984.633 Q160.417 984.633 158.589 988.197 Q156.783 991.739 156.783 998.869 Q156.783 1005.98 158.589 1009.54 Q160.417 1013.08 164.028 1013.08 Q167.663 1013.08 169.468 1009.54 Q171.297 1005.98 171.297 998.869 Q171.297 991.739 169.468 988.197 Q167.663 984.633 164.028 984.633 M164.028 980.929 Q169.839 980.929 172.894 985.535 Q175.973 990.119 175.973 998.869 Q175.973 1007.6 172.894 1012.2 Q169.839 1016.79 164.028 1016.79 Q158.218 1016.79 155.14 1012.2 Q152.084 1007.6 152.084 998.869 Q152.084 990.119 155.14 985.535 Q158.218 980.929 164.028 980.929 Z" fill="#000000" fill-rule="evenodd" fill-opacity="1" /><path clip-path="url(#clip950)" d="M 0 0 M184.19 1010.23 L189.075 1010.23 L189.075 1016.11 L184.19 1016.11 L184.19 1010.23 Z" fill="#000000" fill-rule="evenodd" fill-opacity="1" /><path clip-path="url(#clip950)" d="M 0 0 M213.426 997.48 Q216.783 998.197 218.658 1000.47 Q220.556 1002.73 220.556 1006.07 Q220.556 1011.18 217.037 1013.98 Q213.519 1016.79 207.037 1016.79 Q204.862 1016.79 202.547 1016.35 Q200.255 1015.93 197.801 1015.07 L197.801 1010.56 Q199.746 1011.69 202.061 1012.27 Q204.375 1012.85 206.899 1012.85 Q211.297 1012.85 213.588 1011.11 Q215.903 1009.38 215.903 1006.07 Q215.903 1003.01 213.75 1001.3 Q211.621 999.563 207.801 999.563 L203.774 999.563 L203.774 995.72 L207.987 995.72 Q211.436 995.72 213.264 994.355 Q215.093 992.966 215.093 990.373 Q215.093 987.711 213.195 986.299 Q211.32 984.864 207.801 984.864 Q205.88 984.864 203.681 985.281 Q201.482 985.697 198.843 986.577 L198.843 982.41 Q201.505 981.67 203.82 981.299 Q206.158 980.929 208.218 980.929 Q213.542 980.929 216.644 983.359 Q219.746 985.767 219.746 989.887 Q219.746 992.758 218.102 994.748 Q216.459 996.716 213.426 997.48 Z" fill="#000000" fill-rule="evenodd" fill-opacity="1" /><path clip-path="url(#clip950)" d="M 0 0 M229.56 1015.4 L229.56 1011.14 Q231.32 1011.97 233.125 1012.41 Q234.931 1012.85 236.667 1012.85 Q241.297 1012.85 243.727 1009.75 Q246.181 1006.62 246.528 1000.28 Q245.185 1002.27 243.125 1003.34 Q241.065 1004.4 238.565 1004.4 Q233.38 1004.4 230.347 1001.28 Q227.338 998.128 227.338 992.688 Q227.338 987.364 230.486 984.146 Q233.635 980.929 238.866 980.929 Q244.861 980.929 248.009 985.535 Q251.181 990.119 251.181 998.869 Q251.181 1007.04 247.292 1011.92 Q243.426 1016.79 236.875 1016.79 Q235.116 1016.79 233.31 1016.44 Q231.505 1016.09 229.56 1015.4 M238.866 1000.74 Q242.014 1000.74 243.843 998.591 Q245.695 996.438 245.695 992.688 Q245.695 988.961 243.843 986.808 Q242.014 984.633 238.866 984.633 Q235.718 984.633 233.866 986.808 Q232.037 988.961 232.037 992.688 Q232.037 996.438 233.866 998.591 Q235.718 1000.74 238.866 1000.74 Z" fill="#000000" fill-rule="evenodd" fill-opacity="1" /><path clip-path="url(#clip950)" d="M 0 0 M273.75 997.48 Q277.107 998.197 278.981 1000.47 Q280.88 1002.73 280.88 1006.07 Q280.88 1011.18 277.361 1013.98 Q273.843 1016.79 267.361 1016.79 Q265.185 1016.79 262.87 1016.35 Q260.579 1015.93 258.125 1015.07 L258.125 1010.56 Q260.07 1011.69 262.384 1012.27 Q264.699 1012.85 267.222 1012.85 Q271.62 1012.85 273.912 1011.11 Q276.227 1009.38 276.227 1006.07 Q276.227 1003.01 274.074 1001.3 Q271.944 999.563 268.125 999.563 L264.097 999.563 L264.097 995.72 L268.31 995.72 Q271.759 995.72 273.588 994.355 Q275.417 992.966 275.417 990.373 Q275.417 987.711 273.519 986.299 Q271.644 984.864 268.125 984.864 Q266.204 984.864 264.005 985.281 Q261.806 985.697 259.167 986.577 L259.167 982.41 Q261.829 981.67 264.144 981.299 Q266.482 980.929 268.542 980.929 Q273.866 980.929 276.968 983.359 Q280.069 985.767 280.069 989.887 Q280.069 992.758 278.426 994.748 Q276.782 996.716 273.75 997.48 Z" fill="#000000" fill-rule="evenodd" fill-opacity="1" /><path clip-path="url(#clip950)" d="M 0 0 M302.592 985.628 L290.787 1004.08 L302.592 1004.08 L302.592 985.628 M301.366 981.554 L307.245 981.554 L307.245 1004.08 L312.176 1004.08 L312.176 1007.97 L307.245 1007.97 L307.245 1016.11 L302.592 1016.11 L302.592 1007.97 L286.991 1007.97 L286.991 1003.45 L301.366 981.554 Z" fill="#000000" fill-rule="evenodd" fill-opacity="1" /><path clip-path="url(#clip950)" d="M 0 0 M116.343 661.809 L146.019 661.809 L146.019 665.745 L116.343 665.745 L116.343 661.809 Z" fill="#000000" fill-rule="evenodd" fill-opacity="1" /><path clip-path="url(#clip950)" d="M 0 0 M166.112 647.157 Q162.501 647.157 160.672 650.721 Q158.866 654.263 158.866 661.393 Q158.866 668.499 160.672 672.064 Q162.501 675.606 166.112 675.606 Q169.746 675.606 171.552 672.064 Q173.38 668.499 173.38 661.393 Q173.38 654.263 171.552 650.721 Q169.746 647.157 166.112 647.157 M166.112 643.453 Q171.922 643.453 174.977 648.059 Q178.056 652.643 178.056 661.393 Q178.056 670.12 174.977 674.726 Q171.922 679.309 166.112 679.309 Q160.302 679.309 157.223 674.726 Q154.167 670.12 154.167 661.393 Q154.167 652.643 157.223 648.059 Q160.302 643.453 166.112 643.453 Z" fill="#000000" fill-rule="evenodd" fill-opacity="1" /><path clip-path="url(#clip950)" d="M 0 0 M186.274 672.758 L191.158 672.758 L191.158 678.638 L186.274 678.638 L186.274 672.758 Z" fill="#000000" fill-rule="evenodd" fill-opacity="1" /><path clip-path="url(#clip950)" d="M 0 0 M215.51 660.004 Q218.866 660.721 220.741 662.99 Q222.639 665.258 222.639 668.592 Q222.639 673.707 219.121 676.508 Q215.602 679.309 209.121 679.309 Q206.945 679.309 204.63 678.869 Q202.338 678.453 199.885 677.596 L199.885 673.082 Q201.829 674.217 204.144 674.795 Q206.459 675.374 208.982 675.374 Q213.38 675.374 215.672 673.638 Q217.986 671.902 217.986 668.592 Q217.986 665.536 215.834 663.823 Q213.704 662.087 209.885 662.087 L205.857 662.087 L205.857 658.245 L210.07 658.245 Q213.519 658.245 215.348 656.879 Q217.176 655.49 217.176 652.897 Q217.176 650.235 215.278 648.823 Q213.403 647.388 209.885 647.388 Q207.963 647.388 205.764 647.805 Q203.565 648.222 200.926 649.101 L200.926 644.934 Q203.588 644.194 205.903 643.823 Q208.241 643.453 210.301 643.453 Q215.625 643.453 218.727 645.884 Q221.829 648.291 221.829 652.411 Q221.829 655.282 220.186 657.272 Q218.542 659.24 215.51 660.004 Z" fill="#000000" fill-rule="evenodd" fill-opacity="1" /><path clip-path="url(#clip950)" d="M 0 0 M231.644 677.92 L231.644 673.661 Q233.403 674.495 235.209 674.934 Q237.014 675.374 238.75 675.374 Q243.38 675.374 245.81 672.272 Q248.264 669.147 248.611 662.805 Q247.269 664.795 245.209 665.86 Q243.148 666.925 240.648 666.925 Q235.463 666.925 232.431 663.8 Q229.422 660.652 229.422 655.212 Q229.422 649.888 232.57 646.671 Q235.718 643.453 240.949 643.453 Q246.945 643.453 250.093 648.059 Q253.264 652.643 253.264 661.393 Q253.264 669.564 249.375 674.448 Q245.509 679.309 238.959 679.309 Q237.199 679.309 235.394 678.962 Q233.588 678.615 231.644 677.92 M240.949 663.268 Q244.097 663.268 245.926 661.115 Q247.778 658.962 247.778 655.212 Q247.778 651.485 245.926 649.333 Q244.097 647.157 240.949 647.157 Q237.801 647.157 235.949 649.333 Q234.121 651.485 234.121 655.212 Q234.121 658.962 235.949 661.115 Q237.801 663.268 240.949 663.268 Z" fill="#000000" fill-rule="evenodd" fill-opacity="1" /><path clip-path="url(#clip950)" d="M 0 0 M275.833 660.004 Q279.19 660.721 281.065 662.99 Q282.963 665.258 282.963 668.592 Q282.963 673.707 279.444 676.508 Q275.926 679.309 269.445 679.309 Q267.269 679.309 264.954 678.869 Q262.662 678.453 260.208 677.596 L260.208 673.082 Q262.153 674.217 264.468 674.795 Q266.782 675.374 269.306 675.374 Q273.704 675.374 275.995 673.638 Q278.31 671.902 278.31 668.592 Q278.31 665.536 276.157 663.823 Q274.028 662.087 270.208 662.087 L266.181 662.087 L266.181 658.245 L270.394 658.245 Q273.843 658.245 275.671 656.879 Q277.5 655.49 277.5 652.897 Q277.5 650.235 275.602 648.823 Q273.727 647.388 270.208 647.388 Q268.287 647.388 266.088 647.805 Q263.889 648.222 261.25 649.101 L261.25 644.934 Q263.912 644.194 266.227 643.823 Q268.565 643.453 270.625 643.453 Q275.949 643.453 279.051 645.884 Q282.153 648.291 282.153 652.411 Q282.153 655.282 280.509 657.272 Q278.866 659.24 275.833 660.004 Z" fill="#000000" fill-rule="evenodd" fill-opacity="1" /><path clip-path="url(#clip950)" d="M 0 0 M295.856 674.703 L312.176 674.703 L312.176 678.638 L290.231 678.638 L290.231 674.703 Q292.893 671.948 297.477 667.319 Q302.083 662.666 303.264 661.323 Q305.509 658.8 306.389 657.064 Q307.292 655.305 307.292 653.615 Q307.292 650.86 305.347 649.124 Q303.426 647.388 300.324 647.388 Q298.125 647.388 295.671 648.152 Q293.241 648.916 290.463 650.467 L290.463 645.745 Q293.287 644.61 295.741 644.032 Q298.194 643.453 300.231 643.453 Q305.602 643.453 308.796 646.138 Q311.991 648.823 311.991 653.314 Q311.991 655.444 311.18 657.365 Q310.393 659.263 308.287 661.856 Q307.708 662.527 304.606 665.745 Q301.505 668.939 295.856 674.703 Z" fill="#000000" fill-rule="evenodd" fill-opacity="1" /><path clip-path="url(#clip950)" d="M 0 0 M114.746 324.334 L144.422 324.334 L144.422 328.269 L114.746 328.269 L114.746 324.334 Z" fill="#000000" fill-rule="evenodd" fill-opacity="1" /><path clip-path="url(#clip950)" d="M 0 0 M164.515 309.681 Q160.903 309.681 159.075 313.246 Q157.269 316.787 157.269 323.917 Q157.269 331.023 159.075 334.588 Q160.903 338.13 164.515 338.13 Q168.149 338.13 169.954 334.588 Q171.783 331.023 171.783 323.917 Q171.783 316.787 169.954 313.246 Q168.149 309.681 164.515 309.681 M164.515 305.977 Q170.325 305.977 173.38 310.584 Q176.459 315.167 176.459 323.917 Q176.459 332.644 173.38 337.25 Q170.325 341.833 164.515 341.833 Q158.704 341.833 155.626 337.25 Q152.57 332.644 152.57 323.917 Q152.57 315.167 155.626 310.584 Q158.704 305.977 164.515 305.977 Z" fill="#000000" fill-rule="evenodd" fill-opacity="1" /><path clip-path="url(#clip950)" d="M 0 0 M184.676 335.283 L189.561 335.283 L189.561 341.162 L184.676 341.162 L184.676 335.283 Z" fill="#000000" fill-rule="evenodd" fill-opacity="1" /><path clip-path="url(#clip950)" d="M 0 0 M213.912 322.528 Q217.269 323.246 219.144 325.514 Q221.042 327.783 221.042 331.116 Q221.042 336.232 217.523 339.033 Q214.005 341.833 207.524 341.833 Q205.348 341.833 203.033 341.394 Q200.741 340.977 198.287 340.121 L198.287 335.607 Q200.232 336.741 202.547 337.32 Q204.862 337.898 207.385 337.898 Q211.783 337.898 214.074 336.162 Q216.389 334.426 216.389 331.116 Q216.389 328.06 214.236 326.347 Q212.107 324.611 208.287 324.611 L204.26 324.611 L204.26 320.769 L208.473 320.769 Q211.922 320.769 213.75 319.403 Q215.579 318.014 215.579 315.422 Q215.579 312.76 213.681 311.348 Q211.806 309.912 208.287 309.912 Q206.366 309.912 204.167 310.329 Q201.968 310.746 199.329 311.625 L199.329 307.459 Q201.991 306.718 204.306 306.348 Q206.644 305.977 208.704 305.977 Q214.028 305.977 217.13 308.408 Q220.232 310.815 220.232 314.935 Q220.232 317.806 218.588 319.797 Q216.945 321.764 213.912 322.528 Z" fill="#000000" fill-rule="evenodd" fill-opacity="1" /><path clip-path="url(#clip950)" d="M 0 0 M230.047 340.445 L230.047 336.185 Q231.806 337.019 233.611 337.458 Q235.417 337.898 237.153 337.898 Q241.783 337.898 244.213 334.796 Q246.667 331.671 247.014 325.329 Q245.671 327.32 243.611 328.384 Q241.551 329.449 239.051 329.449 Q233.866 329.449 230.834 326.324 Q227.824 323.176 227.824 317.736 Q227.824 312.412 230.972 309.195 Q234.121 305.977 239.352 305.977 Q245.347 305.977 248.496 310.584 Q251.667 315.167 251.667 323.917 Q251.667 332.088 247.778 336.972 Q243.912 341.833 237.361 341.833 Q235.602 341.833 233.797 341.486 Q231.991 341.139 230.047 340.445 M239.352 325.792 Q242.5 325.792 244.329 323.639 Q246.181 321.486 246.181 317.736 Q246.181 314.01 244.329 311.857 Q242.5 309.681 239.352 309.681 Q236.204 309.681 234.352 311.857 Q232.523 314.01 232.523 317.736 Q232.523 321.486 234.352 323.639 Q236.204 325.792 239.352 325.792 Z" fill="#000000" fill-rule="evenodd" fill-opacity="1" /><path clip-path="url(#clip950)" d="M 0 0 M274.236 322.528 Q277.593 323.246 279.468 325.514 Q281.366 327.783 281.366 331.116 Q281.366 336.232 277.847 339.033 Q274.329 341.833 267.847 341.833 Q265.671 341.833 263.357 341.394 Q261.065 340.977 258.611 340.121 L258.611 335.607 Q260.556 336.741 262.87 337.32 Q265.185 337.898 267.708 337.898 Q272.107 337.898 274.398 336.162 Q276.713 334.426 276.713 331.116 Q276.713 328.06 274.56 326.347 Q272.431 324.611 268.611 324.611 L264.583 324.611 L264.583 320.769 L268.796 320.769 Q272.245 320.769 274.074 319.403 Q275.903 318.014 275.903 315.422 Q275.903 312.76 274.005 311.348 Q272.13 309.912 268.611 309.912 Q266.69 309.912 264.491 310.329 Q262.292 310.746 259.653 311.625 L259.653 307.459 Q262.315 306.718 264.63 306.348 Q266.968 305.977 269.028 305.977 Q274.352 305.977 277.454 308.408 Q280.556 310.815 280.556 314.935 Q280.556 317.806 278.912 319.797 Q277.269 321.764 274.236 322.528 Z" fill="#000000" fill-rule="evenodd" fill-opacity="1" /><path clip-path="url(#clip950)" d="M 0 0 M300.231 309.681 Q296.62 309.681 294.792 313.246 Q292.986 316.787 292.986 323.917 Q292.986 331.023 294.792 334.588 Q296.62 338.13 300.231 338.13 Q303.866 338.13 305.671 334.588 Q307.5 331.023 307.5 323.917 Q307.5 316.787 305.671 313.246 Q303.866 309.681 300.231 309.681 M300.231 305.977 Q306.042 305.977 309.097 310.584 Q312.176 315.167 312.176 323.917 Q312.176 332.644 309.097 337.25 Q306.042 341.833 300.231 341.833 Q294.421 341.833 291.343 337.25 Q288.287 332.644 288.287 323.917 Q288.287 315.167 291.343 310.584 Q294.421 305.977 300.231 305.977 Z" fill="#000000" fill-rule="evenodd" fill-opacity="1" /><path clip-path="url(#clip950)" d="M 0 0 M16.4842 788.636 L16.4842 758.589 L21.895 758.589 L21.895 782.206 L35.9632 782.206 L35.9632 759.576 L41.3741 759.576 L41.3741 782.206 L58.5933 782.206 L58.5933 758.016 L64.0042 758.016 L64.0042 788.636 L16.4842 788.636 Z" fill="#000000" fill-rule="evenodd" fill-opacity="1" /><path clip-path="url(#clip950)" d="M 0 0 M1251.5 48.0275 L1251.5 51.6733 L1217.23 51.6733 Q1217.72 59.3701 1221.85 63.421 Q1226.02 67.4314 1233.44 67.4314 Q1237.73 67.4314 1241.74 66.3781 Q1245.79 65.3249 1249.76 63.2184 L1249.76 70.267 Q1245.75 71.9684 1241.54 72.8596 Q1237.32 73.7508 1232.99 73.7508 Q1222.13 73.7508 1215.77 67.4314 Q1209.45 61.1119 1209.45 50.3365 Q1209.45 39.1965 1215.45 32.6746 Q1221.49 26.1121 1231.69 26.1121 Q1240.85 26.1121 1246.16 32.0264 Q1251.5 37.9003 1251.5 48.0275 M1244.05 45.84 Q1243.97 39.7232 1240.61 36.0774 Q1237.28 32.4315 1231.77 32.4315 Q1225.54 32.4315 1221.77 35.9558 Q1218.04 39.4801 1217.47 45.8805 L1244.05 45.84 Z" fill="#000000" fill-rule="evenodd" fill-opacity="1" /><path clip-path="url(#clip950)" d="M 0 0 M1301.45 45.1919 L1301.45 72.576 L1294 72.576 L1294 45.4349 Q1294 38.994 1291.48 35.7938 Q1288.97 32.5936 1283.95 32.5936 Q1277.91 32.5936 1274.43 36.4419 Q1270.95 40.2903 1270.95 46.9338 L1270.95 72.576 L1263.45 72.576 L1263.45 27.2059 L1270.95 27.2059 L1270.95 34.2544 Q1273.62 30.163 1277.23 28.1376 Q1280.87 26.1121 1285.61 26.1121 Q1293.43 26.1121 1297.44 30.9732 Q1301.45 35.7938 1301.45 45.1919 Z" fill="#000000" fill-rule="evenodd" fill-opacity="1" /><path clip-path="url(#clip950)" d="M 0 0 M1355.12 48.0275 L1355.12 51.6733 L1320.85 51.6733 Q1321.34 59.3701 1325.47 63.421 Q1329.64 67.4314 1337.06 67.4314 Q1341.35 67.4314 1345.36 66.3781 Q1349.41 65.3249 1353.38 63.2184 L1353.38 70.267 Q1349.37 71.9684 1345.16 72.8596 Q1340.95 73.7508 1336.61 73.7508 Q1325.76 73.7508 1319.4 67.4314 Q1313.08 61.1119 1313.08 50.3365 Q1313.08 39.1965 1319.07 32.6746 Q1325.11 26.1121 1335.32 26.1121 Q1344.47 26.1121 1349.78 32.0264 Q1355.12 37.9003 1355.12 48.0275 M1347.67 45.84 Q1347.59 39.7232 1344.23 36.0774 Q1340.91 32.4315 1335.4 32.4315 Q1329.16 32.4315 1325.39 35.9558 Q1321.66 39.4801 1321.1 45.8805 L1347.67 45.84 Z" fill="#000000" fill-rule="evenodd" fill-opacity="1" /><path clip-path="url(#clip950)" d="M 0 0 M1393.65 34.1734 Q1392.39 33.4443 1390.89 33.1202 Q1389.44 32.7556 1387.65 32.7556 Q1381.33 32.7556 1377.93 36.8875 Q1374.57 40.9789 1374.57 48.6757 L1374.57 72.576 L1367.07 72.576 L1367.07 27.2059 L1374.57 27.2059 L1374.57 34.2544 Q1376.92 30.1225 1380.69 28.1376 Q1384.45 26.1121 1389.84 26.1121 Q1390.61 26.1121 1391.54 26.2337 Q1392.47 26.3147 1393.61 26.5172 L1393.65 34.1734 Z" fill="#000000" fill-rule="evenodd" fill-opacity="1" /><path clip-path="url(#clip950)" d="M 0 0 M1429.86 49.3643 Q1429.86 41.2625 1426.5 36.8065 Q1423.18 32.3505 1417.14 32.3505 Q1411.15 32.3505 1407.79 36.8065 Q1404.46 41.2625 1404.46 49.3643 Q1404.46 57.4256 1407.79 61.8816 Q1411.15 66.3376 1417.14 66.3376 Q1423.18 66.3376 1426.5 61.8816 Q1429.86 57.4256 1429.86 49.3643 M1437.32 66.9452 Q1437.32 78.5308 1432.17 84.1616 Q1427.03 89.8329 1416.41 89.8329 Q1412.49 89.8329 1409 89.2252 Q1405.52 88.6581 1402.24 87.4428 L1402.24 80.1917 Q1405.52 81.9741 1408.72 82.8248 Q1411.92 83.6755 1415.24 83.6755 Q1422.57 83.6755 1426.22 79.8271 Q1429.86 76.0193 1429.86 68.282 L1429.86 64.5957 Q1427.55 68.6061 1423.95 70.5911 Q1420.34 72.576 1415.32 72.576 Q1406.98 72.576 1401.87 66.2161 Q1396.77 59.8562 1396.77 49.3643 Q1396.77 38.832 1401.87 32.472 Q1406.98 26.1121 1415.32 26.1121 Q1420.34 26.1121 1423.95 28.0971 Q1427.55 30.082 1429.86 34.0924 L1429.86 27.2059 L1437.32 27.2059 L1437.32 66.9452 Z" fill="#000000" fill-rule="evenodd" fill-opacity="1" /><path clip-path="url(#clip950)" d="M 0 0 M1471.55 76.7889 Q1468.39 84.8907 1465.39 87.3618 Q1462.39 89.8329 1457.37 89.8329 L1451.41 89.8329 L1451.41 83.5945 L1455.79 83.5945 Q1458.87 83.5945 1460.57 82.1361 Q1462.27 80.6778 1464.34 75.2496 L1465.67 71.8468 L1447.32 27.2059 L1455.22 27.2059 L1469.4 62.6918 L1483.58 27.2059 L1491.48 27.2059 L1471.55 76.7889 Z" fill="#000000" fill-rule="evenodd" fill-opacity="1" /><polyline clip-path="url(#clip952)" style="stroke:#009af9; stroke-width:12; stroke-opacity:1; fill:none" points="
  404.909,1386.4 539.989,312.782 675.068,160.256 810.148,203.873 945.227,243.801 1080.31,340.711 1215.39,295.781 1350.47,207.017 1485.55,217.186 1620.62,215.49 
  1755.7,233.615 1890.78,218.838 2025.86,225.813 2160.94,219.987 2296.02,199.224 
  "/>
<path clip-path="url(#clip950)" d="
M1902.05 1379.86 L2285.94 1379.86 L2285.94 1258.9 L1902.05 1258.9  Z
  " fill="#ffffff" fill-rule="evenodd" fill-opacity="1"/>
<polyline clip-path="url(#clip950)" style="stroke:#000000; stroke-width:4; stroke-opacity:1; fill:none" points="
  1902.05,1379.86 2285.94,1379.86 2285.94,1258.9 1902.05,1258.9 1902.05,1379.86 
  "/>
<polyline clip-path="url(#clip950)" style="stroke:#009af9; stroke-width:4; stroke-opacity:1; fill:none" points="
  1924.32,1319.38 2057.96,1319.38 
  "/>
<path clip-path="url(#clip950)" d="M 0 0 M2104.26 1322.63 L2104.26 1324.71 L2084.68 1324.71 Q2084.96 1329.11 2087.32 1331.42 Q2089.7 1333.72 2093.94 1333.72 Q2096.39 1333.72 2098.68 1333.11 Q2101 1332.51 2103.27 1331.31 L2103.27 1335.34 Q2100.97 1336.31 2098.57 1336.82 Q2096.16 1337.33 2093.68 1337.33 Q2087.48 1337.33 2083.84 1333.72 Q2080.23 1330.11 2080.23 1323.95 Q2080.23 1317.58 2083.66 1313.86 Q2087.11 1310.11 2092.94 1310.11 Q2098.17 1310.11 2101.21 1313.49 Q2104.26 1316.84 2104.26 1322.63 M2100 1321.38 Q2099.96 1317.88 2098.03 1315.8 Q2096.14 1313.72 2092.99 1313.72 Q2089.42 1313.72 2087.27 1315.73 Q2085.14 1317.74 2084.82 1321.4 L2100 1321.38 Z" fill="#000000" fill-rule="evenodd" fill-opacity="1" /><path clip-path="url(#clip950)" d="M 0 0 M2132.8 1321.01 L2132.8 1336.66 L2128.54 1336.66 L2128.54 1321.15 Q2128.54 1317.47 2127.11 1315.64 Q2125.67 1313.81 2122.8 1313.81 Q2119.35 1313.81 2117.36 1316.01 Q2115.37 1318.21 2115.37 1322 L2115.37 1336.66 L2111.09 1336.66 L2111.09 1310.73 L2115.37 1310.73 L2115.37 1314.76 Q2116.9 1312.42 2118.96 1311.26 Q2121.04 1310.11 2123.75 1310.11 Q2128.22 1310.11 2130.51 1312.88 Q2132.8 1315.64 2132.8 1321.01 Z" fill="#000000" fill-rule="evenodd" fill-opacity="1" /><path clip-path="url(#clip950)" d="M 0 0 M2163.47 1322.63 L2163.47 1324.71 L2143.89 1324.71 Q2144.17 1329.11 2146.53 1331.42 Q2148.91 1333.72 2153.15 1333.72 Q2155.6 1333.72 2157.9 1333.11 Q2160.21 1332.51 2162.48 1331.31 L2162.48 1335.34 Q2160.19 1336.31 2157.78 1336.82 Q2155.37 1337.33 2152.9 1337.33 Q2146.69 1337.33 2143.06 1333.72 Q2139.45 1330.11 2139.45 1323.95 Q2139.45 1317.58 2142.87 1313.86 Q2146.32 1310.11 2152.15 1310.11 Q2157.39 1310.11 2160.42 1313.49 Q2163.47 1316.84 2163.47 1322.63 M2159.21 1321.38 Q2159.17 1317.88 2157.25 1315.8 Q2155.35 1313.72 2152.2 1313.72 Q2148.64 1313.72 2146.48 1315.73 Q2144.35 1317.74 2144.03 1321.4 L2159.21 1321.38 Z" fill="#000000" fill-rule="evenodd" fill-opacity="1" /><path clip-path="url(#clip950)" d="M 0 0 M2185.49 1314.71 Q2184.77 1314.3 2183.91 1314.11 Q2183.08 1313.9 2182.06 1313.9 Q2178.45 1313.9 2176.51 1316.26 Q2174.59 1318.6 2174.59 1323 L2174.59 1336.66 L2170.3 1336.66 L2170.3 1310.73 L2174.59 1310.73 L2174.59 1314.76 Q2175.93 1312.4 2178.08 1311.26 Q2180.23 1310.11 2183.31 1310.11 Q2183.75 1310.11 2184.28 1310.17 Q2184.82 1310.22 2185.46 1310.34 L2185.49 1314.71 Z" fill="#000000" fill-rule="evenodd" fill-opacity="1" /><path clip-path="url(#clip950)" d="M 0 0 M2206.18 1323.39 Q2206.18 1318.76 2204.26 1316.22 Q2202.36 1313.67 2198.91 1313.67 Q2195.49 1313.67 2193.57 1316.22 Q2191.67 1318.76 2191.67 1323.39 Q2191.67 1328 2193.57 1330.55 Q2195.49 1333.09 2198.91 1333.09 Q2202.36 1333.09 2204.26 1330.55 Q2206.18 1328 2206.18 1323.39 M2210.44 1333.44 Q2210.44 1340.06 2207.5 1343.28 Q2204.56 1346.52 2198.5 1346.52 Q2196.25 1346.52 2194.26 1346.17 Q2192.27 1345.85 2190.4 1345.15 L2190.4 1341.01 Q2192.27 1342.03 2194.1 1342.51 Q2195.93 1343 2197.83 1343 Q2202.02 1343 2204.1 1340.8 Q2206.18 1338.62 2206.18 1334.2 L2206.18 1332.1 Q2204.86 1334.39 2202.8 1335.52 Q2200.74 1336.66 2197.87 1336.66 Q2193.1 1336.66 2190.19 1333.02 Q2187.27 1329.39 2187.27 1323.39 Q2187.27 1317.37 2190.19 1313.74 Q2193.1 1310.11 2197.87 1310.11 Q2200.74 1310.11 2202.8 1311.24 Q2204.86 1312.37 2206.18 1314.67 L2206.18 1310.73 L2210.44 1310.73 L2210.44 1333.44 Z" fill="#000000" fill-rule="evenodd" fill-opacity="1" /><path clip-path="url(#clip950)" d="M 0 0 M2230 1339.06 Q2228.2 1343.69 2226.48 1345.11 Q2224.77 1346.52 2221.9 1346.52 L2218.5 1346.52 L2218.5 1342.95 L2221 1342.95 Q2222.76 1342.95 2223.73 1342.12 Q2224.7 1341.29 2225.88 1338.18 L2226.65 1336.24 L2216.16 1310.73 L2220.67 1310.73 L2228.77 1331.01 L2236.88 1310.73 L2241.39 1310.73 L2230 1339.06 Z" fill="#000000" fill-rule="evenodd" fill-opacity="1" /></svg>
