<?xml version="1.0" encoding="utf-8"?>
<svg xmlns="http://www.w3.org/2000/svg" xmlns:xlink="http://www.w3.org/1999/xlink" width="600" height="400" viewBox="0 0 2400 1600">
<defs>
  <clipPath id="clip520">
    <rect x="0" y="0" width="2400" height="1600"/>
  </clipPath>
</defs>
<path clip-path="url(#clip520)" d="
M0 1600 L2400 1600 L2400 0 L0 0  Z
  " fill="#ffffff" fill-rule="evenodd" fill-opacity="1"/>
<defs>
  <clipPath id="clip521">
    <rect x="480" y="0" width="1681" height="1600"/>
  </clipPath>
</defs>
<path clip-path="url(#clip520)" d="
M317.528 1423.18 L2352.76 1423.18 L2352.76 123.472 L317.528 123.472  Z
  " fill="#ffffff" fill-rule="evenodd" fill-opacity="1"/>
<defs>
  <clipPath id="clip522">
    <rect x="317" y="123" width="2036" height="1301"/>
  </clipPath>
</defs>
<polyline clip-path="url(#clip522)" style="stroke:#000000; stroke-width:2; stroke-opacity:0.1; fill:none" points="
  649.418,1423.18 649.418,123.472 
  "/>
<polyline clip-path="url(#clip522)" style="stroke:#000000; stroke-width:2; stroke-opacity:0.1; fill:none" points="
  1198,1423.18 1198,123.472 
  "/>
<polyline clip-path="url(#clip522)" style="stroke:#000000; stroke-width:2; stroke-opacity:0.1; fill:none" points="
  1746.58,1423.18 1746.58,123.472 
  "/>
<polyline clip-path="url(#clip522)" style="stroke:#000000; stroke-width:2; stroke-opacity:0.1; fill:none" points="
  2295.16,1423.18 2295.16,123.472 
  "/>
<polyline clip-path="url(#clip520)" style="stroke:#000000; stroke-width:4; stroke-opacity:1; fill:none" points="
  317.528,1423.18 2352.76,1423.18 
  "/>
<polyline clip-path="url(#clip520)" style="stroke:#000000; stroke-width:4; stroke-opacity:1; fill:none" points="
  649.418,1423.18 649.418,1407.58 
  "/>
<polyline clip-path="url(#clip520)" style="stroke:#000000; stroke-width:4; stroke-opacity:1; fill:none" points="
  1198,1423.18 1198,1407.58 
  "/>
<polyline clip-path="url(#clip520)" style="stroke:#000000; stroke-width:4; stroke-opacity:1; fill:none" points="
  1746.58,1423.18 1746.58,1407.58 
  "/>
<polyline clip-path="url(#clip520)" style="stroke:#000000; stroke-width:4; stroke-opacity:1; fill:none" points="
  2295.16,1423.18 2295.16,1407.58 
  "/>
<path clip-path="url(#clip520)" d="M 0 0 M612.52 1452.37 Q608.909 1452.37 607.08 1455.94 Q605.275 1459.48 605.275 1466.61 Q605.275 1473.71 607.08 1477.28 Q608.909 1480.82 612.52 1480.82 Q616.154 1480.82 617.96 1477.28 Q619.789 1473.71 619.789 1466.61 Q619.789 1459.48 617.96 1455.94 Q616.154 1452.37 612.52 1452.37 M612.52 1448.67 Q618.33 1448.67 621.386 1453.27 Q624.465 1457.86 624.465 1466.61 Q624.465 1475.33 621.386 1479.94 Q618.33 1484.52 612.52 1484.52 Q606.71 1484.52 603.631 1479.94 Q600.576 1475.33 600.576 1466.61 Q600.576 1457.86 603.631 1453.27 Q606.71 1448.67 612.52 1448.67 Z" fill="#000000" fill-rule="evenodd" fill-opacity="1" /><path clip-path="url(#clip520)" d="M 0 0 M632.682 1477.97 L637.566 1477.97 L637.566 1483.85 L632.682 1483.85 L632.682 1477.97 Z" fill="#000000" fill-rule="evenodd" fill-opacity="1" /><path clip-path="url(#clip520)" d="M 0 0 M657.751 1452.37 Q654.14 1452.37 652.312 1455.94 Q650.506 1459.48 650.506 1466.61 Q650.506 1473.71 652.312 1477.28 Q654.14 1480.82 657.751 1480.82 Q661.386 1480.82 663.191 1477.28 Q665.02 1473.71 665.02 1466.61 Q665.02 1459.48 663.191 1455.94 Q661.386 1452.37 657.751 1452.37 M657.751 1448.67 Q663.562 1448.67 666.617 1453.27 Q669.696 1457.86 669.696 1466.61 Q669.696 1475.33 666.617 1479.94 Q663.562 1484.52 657.751 1484.52 Q651.941 1484.52 648.863 1479.94 Q645.807 1475.33 645.807 1466.61 Q645.807 1457.86 648.863 1453.27 Q651.941 1448.67 657.751 1448.67 Z" fill="#000000" fill-rule="evenodd" fill-opacity="1" /><path clip-path="url(#clip520)" d="M 0 0 M681.941 1479.92 L698.26 1479.92 L698.26 1483.85 L676.316 1483.85 L676.316 1479.92 Q678.978 1477.16 683.561 1472.53 Q688.168 1467.88 689.348 1466.54 Q691.594 1464.01 692.473 1462.28 Q693.376 1460.52 693.376 1458.83 Q693.376 1456.07 691.432 1454.34 Q689.51 1452.6 686.409 1452.6 Q684.21 1452.6 681.756 1453.37 Q679.325 1454.13 676.548 1455.68 L676.548 1450.96 Q679.372 1449.82 681.825 1449.25 Q684.279 1448.67 686.316 1448.67 Q691.686 1448.67 694.881 1451.35 Q698.075 1454.04 698.075 1458.53 Q698.075 1460.66 697.265 1462.58 Q696.478 1464.48 694.372 1467.07 Q693.793 1467.74 690.691 1470.96 Q687.589 1474.15 681.941 1479.92 Z" fill="#000000" fill-rule="evenodd" fill-opacity="1" /><path clip-path="url(#clip520)" d="M 0 0 M1160.06 1452.37 Q1156.45 1452.37 1154.62 1455.94 Q1152.81 1459.48 1152.81 1466.61 Q1152.81 1473.71 1154.62 1477.28 Q1156.45 1480.82 1160.06 1480.82 Q1163.69 1480.82 1165.5 1477.28 Q1167.33 1473.71 1167.33 1466.61 Q1167.33 1459.48 1165.5 1455.94 Q1163.69 1452.37 1160.06 1452.37 M1160.06 1448.67 Q1165.87 1448.67 1168.92 1453.27 Q1172 1457.86 1172 1466.61 Q1172 1475.33 1168.92 1479.94 Q1165.87 1484.52 1160.06 1484.52 Q1154.25 1484.52 1151.17 1479.94 Q1148.11 1475.33 1148.11 1466.61 Q1148.11 1457.86 1151.17 1453.27 Q1154.25 1448.67 1160.06 1448.67 Z" fill="#000000" fill-rule="evenodd" fill-opacity="1" /><path clip-path="url(#clip520)" d="M 0 0 M1180.22 1477.97 L1185.1 1477.97 L1185.1 1483.85 L1180.22 1483.85 L1180.22 1477.97 Z" fill="#000000" fill-rule="evenodd" fill-opacity="1" /><path clip-path="url(#clip520)" d="M 0 0 M1205.29 1452.37 Q1201.68 1452.37 1199.85 1455.94 Q1198.04 1459.48 1198.04 1466.61 Q1198.04 1473.71 1199.85 1477.28 Q1201.68 1480.82 1205.29 1480.82 Q1208.92 1480.82 1210.73 1477.28 Q1212.56 1473.71 1212.56 1466.61 Q1212.56 1459.48 1210.73 1455.94 Q1208.92 1452.37 1205.29 1452.37 M1205.29 1448.67 Q1211.1 1448.67 1214.15 1453.27 Q1217.23 1457.86 1217.23 1466.61 Q1217.23 1475.33 1214.15 1479.94 Q1211.1 1484.52 1205.29 1484.52 Q1199.48 1484.52 1196.4 1479.94 Q1193.34 1475.33 1193.34 1466.61 Q1193.34 1457.86 1196.4 1453.27 Q1199.48 1448.67 1205.29 1448.67 Z" fill="#000000" fill-rule="evenodd" fill-opacity="1" /><path clip-path="url(#clip520)" d="M 0 0 M1238.3 1453.37 L1226.49 1471.81 L1238.3 1471.81 L1238.3 1453.37 M1237.07 1449.29 L1242.95 1449.29 L1242.95 1471.81 L1247.88 1471.81 L1247.88 1475.7 L1242.95 1475.7 L1242.95 1483.85 L1238.3 1483.85 L1238.3 1475.7 L1222.7 1475.7 L1222.7 1471.19 L1237.07 1449.29 Z" fill="#000000" fill-rule="evenodd" fill-opacity="1" /><path clip-path="url(#clip520)" d="M 0 0 M1708.8 1452.37 Q1705.19 1452.37 1703.36 1455.94 Q1701.55 1459.48 1701.55 1466.61 Q1701.55 1473.71 1703.36 1477.28 Q1705.19 1480.82 1708.8 1480.82 Q1712.43 1480.82 1714.24 1477.28 Q1716.07 1473.71 1716.07 1466.61 Q1716.07 1459.48 1714.24 1455.94 Q1712.43 1452.37 1708.8 1452.37 M1708.8 1448.67 Q1714.61 1448.67 1717.66 1453.27 Q1720.74 1457.86 1720.74 1466.61 Q1720.74 1475.33 1717.66 1479.94 Q1714.61 1484.52 1708.8 1484.52 Q1702.99 1484.52 1699.91 1479.94 Q1696.85 1475.33 1696.85 1466.61 Q1696.85 1457.86 1699.91 1453.27 Q1702.99 1448.67 1708.8 1448.67 Z" fill="#000000" fill-rule="evenodd" fill-opacity="1" /><path clip-path="url(#clip520)" d="M 0 0 M1728.96 1477.97 L1733.84 1477.97 L1733.84 1483.85 L1728.96 1483.85 L1728.96 1477.97 Z" fill="#000000" fill-rule="evenodd" fill-opacity="1" /><path clip-path="url(#clip520)" d="M 0 0 M1754.03 1452.37 Q1750.42 1452.37 1748.59 1455.94 Q1746.78 1459.48 1746.78 1466.61 Q1746.78 1473.71 1748.59 1477.28 Q1750.42 1480.82 1754.03 1480.82 Q1757.66 1480.82 1759.47 1477.28 Q1761.3 1473.71 1761.3 1466.61 Q1761.3 1459.48 1759.47 1455.94 Q1757.66 1452.37 1754.03 1452.37 M1754.03 1448.67 Q1759.84 1448.67 1762.9 1453.27 Q1765.97 1457.86 1765.97 1466.61 Q1765.97 1475.33 1762.9 1479.94 Q1759.84 1484.52 1754.03 1484.52 Q1748.22 1484.52 1745.14 1479.94 Q1742.09 1475.33 1742.09 1466.61 Q1742.09 1457.86 1745.14 1453.27 Q1748.22 1448.67 1754.03 1448.67 Z" fill="#000000" fill-rule="evenodd" fill-opacity="1" /><path clip-path="url(#clip520)" d="M 0 0 M1784.77 1464.71 Q1781.62 1464.71 1779.77 1466.86 Q1777.94 1469.01 1777.94 1472.76 Q1777.94 1476.49 1779.77 1478.67 Q1781.62 1480.82 1784.77 1480.82 Q1787.92 1480.82 1789.75 1478.67 Q1791.6 1476.49 1791.6 1472.76 Q1791.6 1469.01 1789.75 1466.86 Q1787.92 1464.71 1784.77 1464.71 M1794.05 1450.06 L1794.05 1454.31 Q1792.29 1453.48 1790.49 1453.04 Q1788.71 1452.6 1786.95 1452.6 Q1782.32 1452.6 1779.86 1455.73 Q1777.43 1458.85 1777.09 1465.17 Q1778.45 1463.16 1780.51 1462.09 Q1782.57 1461 1785.05 1461 Q1790.26 1461 1793.27 1464.18 Q1796.3 1467.32 1796.3 1472.76 Q1796.3 1478.09 1793.15 1481.31 Q1790 1484.52 1784.77 1484.52 Q1778.78 1484.52 1775.6 1479.94 Q1772.43 1475.33 1772.43 1466.61 Q1772.43 1458.41 1776.32 1453.55 Q1780.21 1448.67 1786.76 1448.67 Q1788.52 1448.67 1790.3 1449.01 Q1792.11 1449.36 1794.05 1450.06 Z" fill="#000000" fill-rule="evenodd" fill-opacity="1" /><path clip-path="url(#clip520)" d="M 0 0 M2257.5 1452.37 Q2253.89 1452.37 2252.07 1455.94 Q2250.26 1459.48 2250.26 1466.61 Q2250.26 1473.71 2252.07 1477.28 Q2253.89 1480.82 2257.5 1480.82 Q2261.14 1480.82 2262.94 1477.28 Q2264.77 1473.71 2264.77 1466.61 Q2264.77 1459.48 2262.94 1455.94 Q2261.14 1452.37 2257.5 1452.37 M2257.5 1448.67 Q2263.32 1448.67 2266.37 1453.27 Q2269.45 1457.86 2269.45 1466.61 Q2269.45 1475.33 2266.37 1479.94 Q2263.32 1484.52 2257.5 1484.52 Q2251.69 1484.52 2248.62 1479.94 Q2245.56 1475.33 2245.56 1466.61 Q2245.56 1457.86 2248.62 1453.27 Q2251.69 1448.67 2257.5 1448.67 Z" fill="#000000" fill-rule="evenodd" fill-opacity="1" /><path clip-path="url(#clip520)" d="M 0 0 M2277.67 1477.97 L2282.55 1477.97 L2282.55 1483.85 L2277.67 1483.85 L2277.67 1477.97 Z" fill="#000000" fill-rule="evenodd" fill-opacity="1" /><path clip-path="url(#clip520)" d="M 0 0 M2302.74 1452.37 Q2299.12 1452.37 2297.3 1455.94 Q2295.49 1459.48 2295.49 1466.61 Q2295.49 1473.71 2297.3 1477.28 Q2299.12 1480.82 2302.74 1480.82 Q2306.37 1480.82 2308.18 1477.28 Q2310 1473.71 2310 1466.61 Q2310 1459.48 2308.18 1455.94 Q2306.37 1452.37 2302.74 1452.37 M2302.74 1448.67 Q2308.55 1448.67 2311.6 1453.27 Q2314.68 1457.86 2314.68 1466.61 Q2314.68 1475.33 2311.6 1479.94 Q2308.55 1484.52 2302.74 1484.52 Q2296.93 1484.52 2293.85 1479.94 Q2290.79 1475.33 2290.79 1466.61 Q2290.79 1457.86 2293.85 1453.27 Q2296.93 1448.67 2302.74 1448.67 Z" fill="#000000" fill-rule="evenodd" fill-opacity="1" /><path clip-path="url(#clip520)" d="M 0 0 M2332.9 1467.44 Q2329.56 1467.44 2327.64 1469.22 Q2325.75 1471 2325.75 1474.13 Q2325.75 1477.25 2327.64 1479.04 Q2329.56 1480.82 2332.9 1480.82 Q2336.23 1480.82 2338.15 1479.04 Q2340.07 1477.23 2340.07 1474.13 Q2340.07 1471 2338.15 1469.22 Q2336.25 1467.44 2332.9 1467.44 M2328.22 1465.45 Q2325.21 1464.71 2323.52 1462.65 Q2321.86 1460.59 2321.86 1457.63 Q2321.86 1453.48 2324.8 1451.07 Q2327.76 1448.67 2332.9 1448.67 Q2338.06 1448.67 2341 1451.07 Q2343.94 1453.48 2343.94 1457.63 Q2343.94 1460.59 2342.25 1462.65 Q2340.58 1464.71 2337.6 1465.45 Q2340.98 1466.24 2342.85 1468.53 Q2344.75 1470.82 2344.75 1474.13 Q2344.75 1479.15 2341.67 1481.84 Q2338.62 1484.52 2332.9 1484.52 Q2327.18 1484.52 2324.1 1481.84 Q2321.05 1479.15 2321.05 1474.13 Q2321.05 1470.82 2322.94 1468.53 Q2324.84 1466.24 2328.22 1465.45 M2326.51 1458.06 Q2326.51 1460.75 2328.18 1462.25 Q2329.87 1463.76 2332.9 1463.76 Q2335.91 1463.76 2337.6 1462.25 Q2339.31 1460.75 2339.31 1458.06 Q2339.31 1455.38 2337.6 1453.88 Q2335.91 1452.37 2332.9 1452.37 Q2329.87 1452.37 2328.18 1453.88 Q2326.51 1455.38 2326.51 1458.06 Z" fill="#000000" fill-rule="evenodd" fill-opacity="1" /><path clip-path="url(#clip520)" d="M 0 0 M1320.36 1568.04 L1320.36 1520.52 L1349.93 1520.52 L1349.93 1525.93 L1326.79 1525.93 L1326.79 1568.04 L1320.36 1568.04 Z" fill="#000000" fill-rule="evenodd" fill-opacity="1" /><polyline clip-path="url(#clip522)" style="stroke:#000000; stroke-width:2; stroke-opacity:0.1; fill:none" points="
  317.528,1148.36 2352.76,1148.36 
  "/>
<polyline clip-path="url(#clip522)" style="stroke:#000000; stroke-width:2; stroke-opacity:0.1; fill:none" points="
  317.528,850.359 2352.76,850.359 
  "/>
<polyline clip-path="url(#clip522)" style="stroke:#000000; stroke-width:2; stroke-opacity:0.1; fill:none" points="
  317.528,552.357 2352.76,552.357 
  "/>
<polyline clip-path="url(#clip522)" style="stroke:#000000; stroke-width:2; stroke-opacity:0.1; fill:none" points="
  317.528,254.355 2352.76,254.355 
  "/>
<polyline clip-path="url(#clip520)" style="stroke:#000000; stroke-width:4; stroke-opacity:1; fill:none" points="
  317.528,1423.18 317.528,123.472 
  "/>
<polyline clip-path="url(#clip520)" style="stroke:#000000; stroke-width:4; stroke-opacity:1; fill:none" points="
  317.528,1148.36 341.951,1148.36 
  "/>
<polyline clip-path="url(#clip520)" style="stroke:#000000; stroke-width:4; stroke-opacity:1; fill:none" points="
  317.528,850.359 341.951,850.359 
  "/>
<polyline clip-path="url(#clip520)" style="stroke:#000000; stroke-width:4; stroke-opacity:1; fill:none" points="
  317.528,552.357 341.951,552.357 
  "/>
<polyline clip-path="url(#clip520)" style="stroke:#000000; stroke-width:4; stroke-opacity:1; fill:none" points="
  317.528,254.355 341.951,254.355 
  "/>
<path clip-path="url(#clip520)" d="M 0 0 M114.26 1148.81 L143.936 1148.81 L143.936 1152.75 L114.26 1152.75 L114.26 1148.81 Z" fill="#000000" fill-rule="evenodd" fill-opacity="1" /><path clip-path="url(#clip520)" d="M 0 0 M164.028 1134.16 Q160.417 1134.16 158.589 1137.72 Q156.783 1141.27 156.783 1148.4 Q156.783 1155.5 158.589 1159.07 Q160.417 1162.61 164.028 1162.61 Q167.663 1162.61 169.468 1159.07 Q171.297 1155.5 171.297 1148.4 Q171.297 1141.27 169.468 1137.72 Q167.663 1134.16 164.028 1134.16 M164.028 1130.46 Q169.839 1130.46 172.894 1135.06 Q175.973 1139.65 175.973 1148.4 Q175.973 1157.12 172.894 1161.73 Q169.839 1166.31 164.028 1166.31 Q158.218 1166.31 155.14 1161.73 Q152.084 1157.12 152.084 1148.4 Q152.084 1139.65 155.14 1135.06 Q158.218 1130.46 164.028 1130.46 Z" fill="#000000" fill-rule="evenodd" fill-opacity="1" /><path clip-path="url(#clip520)" d="M 0 0 M184.19 1159.76 L189.075 1159.76 L189.075 1165.64 L184.19 1165.64 L184.19 1159.76 Z" fill="#000000" fill-rule="evenodd" fill-opacity="1" /><path clip-path="url(#clip520)" d="M 0 0 M212.107 1135.16 L200.301 1153.6 L212.107 1153.6 L212.107 1135.16 M210.88 1131.08 L216.76 1131.08 L216.76 1153.6 L221.69 1153.6 L221.69 1157.49 L216.76 1157.49 L216.76 1165.64 L212.107 1165.64 L212.107 1157.49 L196.505 1157.49 L196.505 1152.98 L210.88 1131.08 Z" fill="#000000" fill-rule="evenodd" fill-opacity="1" /><path clip-path="url(#clip520)" d="M 0 0 M230.232 1161.71 L237.871 1161.71 L237.871 1135.34 L229.56 1137.01 L229.56 1132.75 L237.824 1131.08 L242.5 1131.08 L242.5 1161.71 L250.139 1161.71 L250.139 1165.64 L230.232 1165.64 L230.232 1161.71 Z" fill="#000000" fill-rule="evenodd" fill-opacity="1" /><path clip-path="url(#clip520)" d="M 0 0 M269.583 1134.16 Q265.972 1134.16 264.144 1137.72 Q262.338 1141.27 262.338 1148.4 Q262.338 1155.5 264.144 1159.07 Q265.972 1162.61 269.583 1162.61 Q273.218 1162.61 275.023 1159.07 Q276.852 1155.5 276.852 1148.4 Q276.852 1141.27 275.023 1137.72 Q273.218 1134.16 269.583 1134.16 M269.583 1130.46 Q275.394 1130.46 278.449 1135.06 Q281.528 1139.65 281.528 1148.4 Q281.528 1157.12 278.449 1161.73 Q275.394 1166.31 269.583 1166.31 Q263.773 1166.31 260.695 1161.73 Q257.639 1157.12 257.639 1148.4 Q257.639 1139.65 260.695 1135.06 Q263.773 1130.46 269.583 1130.46 Z" fill="#000000" fill-rule="evenodd" fill-opacity="1" /><path clip-path="url(#clip520)" d="M 0 0 M115.256 850.81 L144.931 850.81 L144.931 854.746 L115.256 854.746 L115.256 850.81 Z" fill="#000000" fill-rule="evenodd" fill-opacity="1" /><path clip-path="url(#clip520)" d="M 0 0 M165.024 836.158 Q161.413 836.158 159.584 839.722 Q157.778 843.264 157.778 850.394 Q157.778 857.5 159.584 861.065 Q161.413 864.607 165.024 864.607 Q168.658 864.607 170.464 861.065 Q172.292 857.5 172.292 850.394 Q172.292 843.264 170.464 839.722 Q168.658 836.158 165.024 836.158 M165.024 832.454 Q170.834 832.454 173.889 837.06 Q176.968 841.644 176.968 850.394 Q176.968 859.121 173.889 863.727 Q170.834 868.31 165.024 868.31 Q159.214 868.31 156.135 863.727 Q153.079 859.121 153.079 850.394 Q153.079 841.644 156.135 837.06 Q159.214 832.454 165.024 832.454 Z" fill="#000000" fill-rule="evenodd" fill-opacity="1" /><path clip-path="url(#clip520)" d="M 0 0 M185.186 861.759 L190.07 861.759 L190.07 867.639 L185.186 867.639 L185.186 861.759 Z" fill="#000000" fill-rule="evenodd" fill-opacity="1" /><path clip-path="url(#clip520)" d="M 0 0 M213.102 837.153 L201.297 855.602 L213.102 855.602 L213.102 837.153 M211.875 833.079 L217.755 833.079 L217.755 855.602 L222.686 855.602 L222.686 859.491 L217.755 859.491 L217.755 867.639 L213.102 867.639 L213.102 859.491 L197.5 859.491 L197.5 854.977 L211.875 833.079 Z" fill="#000000" fill-rule="evenodd" fill-opacity="1" /><path clip-path="url(#clip520)" d="M 0 0 M240.417 836.158 Q236.806 836.158 234.977 839.722 Q233.172 843.264 233.172 850.394 Q233.172 857.5 234.977 861.065 Q236.806 864.607 240.417 864.607 Q244.051 864.607 245.857 861.065 Q247.685 857.5 247.685 850.394 Q247.685 843.264 245.857 839.722 Q244.051 836.158 240.417 836.158 M240.417 832.454 Q246.227 832.454 249.283 837.06 Q252.361 841.644 252.361 850.394 Q252.361 859.121 249.283 863.727 Q246.227 868.31 240.417 868.31 Q234.607 868.31 231.528 863.727 Q228.473 859.121 228.473 850.394 Q228.473 841.644 231.528 837.06 Q234.607 832.454 240.417 832.454 Z" fill="#000000" fill-rule="evenodd" fill-opacity="1" /><path clip-path="url(#clip520)" d="M 0 0 M260.625 833.079 L278.981 833.079 L278.981 837.014 L264.907 837.014 L264.907 845.486 Q265.926 845.139 266.945 844.977 Q267.963 844.792 268.982 844.792 Q274.769 844.792 278.148 847.963 Q281.528 851.134 281.528 856.551 Q281.528 862.13 278.056 865.232 Q274.583 868.31 268.264 868.31 Q266.088 868.31 263.82 867.94 Q261.574 867.57 259.167 866.829 L259.167 862.13 Q261.25 863.264 263.472 863.82 Q265.695 864.375 268.171 864.375 Q272.176 864.375 274.514 862.269 Q276.852 860.162 276.852 856.551 Q276.852 852.94 274.514 850.834 Q272.176 848.727 268.171 848.727 Q266.296 848.727 264.421 849.144 Q262.57 849.56 260.625 850.44 L260.625 833.079 Z" fill="#000000" fill-rule="evenodd" fill-opacity="1" /><path clip-path="url(#clip520)" d="M 0 0 M114.26 552.808 L143.936 552.808 L143.936 556.744 L114.26 556.744 L114.26 552.808 Z" fill="#000000" fill-rule="evenodd" fill-opacity="1" /><path clip-path="url(#clip520)" d="M 0 0 M164.028 538.156 Q160.417 538.156 158.589 541.72 Q156.783 545.262 156.783 552.392 Q156.783 559.498 158.589 563.063 Q160.417 566.605 164.028 566.605 Q167.663 566.605 169.468 563.063 Q171.297 559.498 171.297 552.392 Q171.297 545.262 169.468 541.72 Q167.663 538.156 164.028 538.156 M164.028 534.452 Q169.839 534.452 172.894 539.058 Q175.973 543.642 175.973 552.392 Q175.973 561.119 172.894 565.725 Q169.839 570.308 164.028 570.308 Q158.218 570.308 155.14 565.725 Q152.084 561.119 152.084 552.392 Q152.084 543.642 155.14 539.058 Q158.218 534.452 164.028 534.452 Z" fill="#000000" fill-rule="evenodd" fill-opacity="1" /><path clip-path="url(#clip520)" d="M 0 0 M184.19 563.757 L189.075 563.757 L189.075 569.637 L184.19 569.637 L184.19 563.757 Z" fill="#000000" fill-rule="evenodd" fill-opacity="1" /><path clip-path="url(#clip520)" d="M 0 0 M212.107 539.151 L200.301 557.6 L212.107 557.6 L212.107 539.151 M210.88 535.077 L216.76 535.077 L216.76 557.6 L221.69 557.6 L221.69 561.489 L216.76 561.489 L216.76 569.637 L212.107 569.637 L212.107 561.489 L196.505 561.489 L196.505 556.975 L210.88 535.077 Z" fill="#000000" fill-rule="evenodd" fill-opacity="1" /><path clip-path="url(#clip520)" d="M 0 0 M239.422 538.156 Q235.81 538.156 233.982 541.72 Q232.176 545.262 232.176 552.392 Q232.176 559.498 233.982 563.063 Q235.81 566.605 239.422 566.605 Q243.056 566.605 244.861 563.063 Q246.69 559.498 246.69 552.392 Q246.69 545.262 244.861 541.72 Q243.056 538.156 239.422 538.156 M239.422 534.452 Q245.232 534.452 248.287 539.058 Q251.366 543.642 251.366 552.392 Q251.366 561.119 248.287 565.725 Q245.232 570.308 239.422 570.308 Q233.611 570.308 230.533 565.725 Q227.477 561.119 227.477 552.392 Q227.477 543.642 230.533 539.058 Q233.611 534.452 239.422 534.452 Z" fill="#000000" fill-rule="evenodd" fill-opacity="1" /><path clip-path="url(#clip520)" d="M 0 0 M269.583 538.156 Q265.972 538.156 264.144 541.72 Q262.338 545.262 262.338 552.392 Q262.338 559.498 264.144 563.063 Q265.972 566.605 269.583 566.605 Q273.218 566.605 275.023 563.063 Q276.852 559.498 276.852 552.392 Q276.852 545.262 275.023 541.72 Q273.218 538.156 269.583 538.156 M269.583 534.452 Q275.394 534.452 278.449 539.058 Q281.528 543.642 281.528 552.392 Q281.528 561.119 278.449 565.725 Q275.394 570.308 269.583 570.308 Q263.773 570.308 260.695 565.725 Q257.639 561.119 257.639 552.392 Q257.639 543.642 260.695 539.058 Q263.773 534.452 269.583 534.452 Z" fill="#000000" fill-rule="evenodd" fill-opacity="1" /><path clip-path="url(#clip520)" d="M 0 0 M115.256 254.806 L144.931 254.806 L144.931 258.742 L115.256 258.742 L115.256 254.806 Z" fill="#000000" fill-rule="evenodd" fill-opacity="1" /><path clip-path="url(#clip520)" d="M 0 0 M165.024 240.154 Q161.413 240.154 159.584 243.719 Q157.778 247.26 157.778 254.39 Q157.778 261.496 159.584 265.061 Q161.413 268.603 165.024 268.603 Q168.658 268.603 170.464 265.061 Q172.292 261.496 172.292 254.39 Q172.292 247.26 170.464 243.719 Q168.658 240.154 165.024 240.154 M165.024 236.45 Q170.834 236.45 173.889 241.056 Q176.968 245.64 176.968 254.39 Q176.968 263.117 173.889 267.723 Q170.834 272.306 165.024 272.306 Q159.214 272.306 156.135 267.723 Q153.079 263.117 153.079 254.39 Q153.079 245.64 156.135 241.056 Q159.214 236.45 165.024 236.45 Z" fill="#000000" fill-rule="evenodd" fill-opacity="1" /><path clip-path="url(#clip520)" d="M 0 0 M185.186 265.755 L190.07 265.755 L190.07 271.635 L185.186 271.635 L185.186 265.755 Z" fill="#000000" fill-rule="evenodd" fill-opacity="1" /><path clip-path="url(#clip520)" d="M 0 0 M214.422 253.001 Q217.778 253.718 219.653 255.987 Q221.551 258.255 221.551 261.589 Q221.551 266.704 218.033 269.505 Q214.514 272.306 208.033 272.306 Q205.857 272.306 203.542 271.867 Q201.25 271.45 198.797 270.593 L198.797 266.08 Q200.741 267.214 203.056 267.792 Q205.371 268.371 207.894 268.371 Q212.292 268.371 214.584 266.635 Q216.898 264.899 216.898 261.589 Q216.898 258.533 214.746 256.82 Q212.616 255.084 208.797 255.084 L204.769 255.084 L204.769 251.242 L208.982 251.242 Q212.431 251.242 214.26 249.876 Q216.088 248.487 216.088 245.894 Q216.088 243.232 214.19 241.82 Q212.315 240.385 208.797 240.385 Q206.875 240.385 204.676 240.802 Q202.477 241.219 199.838 242.098 L199.838 237.932 Q202.5 237.191 204.815 236.82 Q207.153 236.45 209.213 236.45 Q214.537 236.45 217.639 238.881 Q220.741 241.288 220.741 245.408 Q220.741 248.279 219.098 250.269 Q217.454 252.237 214.422 253.001 Z" fill="#000000" fill-rule="evenodd" fill-opacity="1" /><path clip-path="url(#clip520)" d="M 0 0 M230.556 270.917 L230.556 266.658 Q232.315 267.492 234.121 267.931 Q235.926 268.371 237.662 268.371 Q242.292 268.371 244.722 265.269 Q247.176 262.144 247.523 255.802 Q246.181 257.793 244.121 258.857 Q242.06 259.922 239.56 259.922 Q234.375 259.922 231.343 256.797 Q228.334 253.649 228.334 248.209 Q228.334 242.885 231.482 239.668 Q234.63 236.45 239.861 236.45 Q245.857 236.45 249.005 241.056 Q252.176 245.64 252.176 254.39 Q252.176 262.561 248.287 267.445 Q244.421 272.306 237.871 272.306 Q236.111 272.306 234.306 271.959 Q232.5 271.612 230.556 270.917 M239.861 256.265 Q243.009 256.265 244.838 254.112 Q246.69 251.959 246.69 248.209 Q246.69 244.482 244.838 242.33 Q243.009 240.154 239.861 240.154 Q236.713 240.154 234.861 242.33 Q233.033 244.482 233.033 248.209 Q233.033 251.959 234.861 254.112 Q236.713 256.265 239.861 256.265 Z" fill="#000000" fill-rule="evenodd" fill-opacity="1" /><path clip-path="url(#clip520)" d="M 0 0 M260.625 237.075 L278.981 237.075 L278.981 241.01 L264.907 241.01 L264.907 249.482 Q265.926 249.135 266.945 248.973 Q267.963 248.788 268.982 248.788 Q274.769 248.788 278.148 251.959 Q281.528 255.13 281.528 260.547 Q281.528 266.126 278.056 269.228 Q274.583 272.306 268.264 272.306 Q266.088 272.306 263.82 271.936 Q261.574 271.566 259.167 270.825 L259.167 266.126 Q261.25 267.26 263.472 267.816 Q265.695 268.371 268.171 268.371 Q272.176 268.371 274.514 266.265 Q276.852 264.158 276.852 260.547 Q276.852 256.936 274.514 254.83 Q272.176 252.723 268.171 252.723 Q266.296 252.723 264.421 253.14 Q262.57 253.556 260.625 254.436 L260.625 237.075 Z" fill="#000000" fill-rule="evenodd" fill-opacity="1" /><path clip-path="url(#clip520)" d="M 0 0 M16.4842 788.636 L16.4842 758.589 L21.895 758.589 L21.895 782.206 L35.9632 782.206 L35.9632 759.576 L41.3741 759.576 L41.3741 782.206 L58.5933 782.206 L58.5933 758.016 L64.0042 758.016 L64.0042 788.636 L16.4842 788.636 Z" fill="#000000" fill-rule="evenodd" fill-opacity="1" /><path clip-path="url(#clip520)" d="M 0 0 M1197.82 48.0275 L1197.82 51.6733 L1163.55 51.6733 Q1164.03 59.3701 1168.16 63.421 Q1172.34 67.4314 1179.75 67.4314 Q1184.04 67.4314 1188.05 66.3781 Q1192.1 65.3249 1196.07 63.2184 L1196.07 70.267 Q1192.06 71.9684 1187.85 72.8596 Q1183.64 73.7508 1179.3 73.7508 Q1168.45 73.7508 1162.09 67.4314 Q1155.77 61.1119 1155.77 50.3365 Q1155.77 39.1965 1161.76 32.6746 Q1167.8 26.1121 1178.01 26.1121 Q1187.16 26.1121 1192.47 32.0264 Q1197.82 37.9003 1197.82 48.0275 M1190.36 45.84 Q1190.28 39.7232 1186.92 36.0774 Q1183.6 32.4315 1178.09 32.4315 Q1171.85 32.4315 1168.08 35.9558 Q1164.36 39.4801 1163.79 45.8805 L1190.36 45.84 Z" fill="#000000" fill-rule="evenodd" fill-opacity="1" /><path clip-path="url(#clip520)" d="M 0 0 M1247.76 45.1919 L1247.76 72.576 L1240.31 72.576 L1240.31 45.4349 Q1240.31 38.994 1237.8 35.7938 Q1235.29 32.5936 1230.26 32.5936 Q1224.23 32.5936 1220.74 36.4419 Q1217.26 40.2903 1217.26 46.9338 L1217.26 72.576 L1209.77 72.576 L1209.77 27.2059 L1217.26 27.2059 L1217.26 34.2544 Q1219.93 30.163 1223.54 28.1376 Q1227.19 26.1121 1231.92 26.1121 Q1239.74 26.1121 1243.75 30.9732 Q1247.76 35.7938 1247.76 45.1919 Z" fill="#000000" fill-rule="evenodd" fill-opacity="1" /><path clip-path="url(#clip520)" d="M 0 0 M1301.44 48.0275 L1301.44 51.6733 L1267.17 51.6733 Q1267.65 59.3701 1271.79 63.421 Q1275.96 67.4314 1283.37 67.4314 Q1287.67 67.4314 1291.68 66.3781 Q1295.73 65.3249 1299.7 63.2184 L1299.7 70.267 Q1295.69 71.9684 1291.47 72.8596 Q1287.26 73.7508 1282.93 73.7508 Q1272.07 73.7508 1265.71 67.4314 Q1259.39 61.1119 1259.39 50.3365 Q1259.39 39.1965 1265.39 32.6746 Q1271.42 26.1121 1281.63 26.1121 Q1290.78 26.1121 1296.09 32.0264 Q1301.44 37.9003 1301.44 48.0275 M1293.98 45.84 Q1293.9 39.7232 1290.54 36.0774 Q1287.22 32.4315 1281.71 32.4315 Q1275.47 32.4315 1271.7 35.9558 Q1267.98 39.4801 1267.41 45.8805 L1293.98 45.84 Z" fill="#000000" fill-rule="evenodd" fill-opacity="1" /><path clip-path="url(#clip520)" d="M 0 0 M1339.96 34.1734 Q1338.71 33.4443 1337.21 33.1202 Q1335.75 32.7556 1333.97 32.7556 Q1327.65 32.7556 1324.24 36.8875 Q1320.88 40.9789 1320.88 48.6757 L1320.88 72.576 L1313.39 72.576 L1313.39 27.2059 L1320.88 27.2059 L1320.88 34.2544 Q1323.23 30.1225 1327 28.1376 Q1330.77 26.1121 1336.15 26.1121 Q1336.92 26.1121 1337.86 26.2337 Q1338.79 26.3147 1339.92 26.5172 L1339.96 34.1734 Z" fill="#000000" fill-rule="evenodd" fill-opacity="1" /><path clip-path="url(#clip520)" d="M 0 0 M1376.18 49.3643 Q1376.18 41.2625 1372.82 36.8065 Q1369.49 32.3505 1363.46 32.3505 Q1357.46 32.3505 1354.1 36.8065 Q1350.78 41.2625 1350.78 49.3643 Q1350.78 57.4256 1354.1 61.8816 Q1357.46 66.3376 1363.46 66.3376 Q1369.49 66.3376 1372.82 61.8816 Q1376.18 57.4256 1376.18 49.3643 M1383.63 66.9452 Q1383.63 78.5308 1378.49 84.1616 Q1373.34 89.8329 1362.73 89.8329 Q1358.8 89.8329 1355.32 89.2252 Q1351.83 88.6581 1348.55 87.4428 L1348.55 80.1917 Q1351.83 81.9741 1355.03 82.8248 Q1358.23 83.6755 1361.55 83.6755 Q1368.89 83.6755 1372.53 79.8271 Q1376.18 76.0193 1376.18 68.282 L1376.18 64.5957 Q1373.87 68.6061 1370.26 70.5911 Q1366.66 72.576 1361.63 72.576 Q1353.29 72.576 1348.19 66.2161 Q1343.08 59.8562 1343.08 49.3643 Q1343.08 38.832 1348.19 32.472 Q1353.29 26.1121 1361.63 26.1121 Q1366.66 26.1121 1370.26 28.0971 Q1373.87 30.082 1376.18 34.0924 L1376.18 27.2059 L1383.63 27.2059 L1383.63 66.9452 Z" fill="#000000" fill-rule="evenodd" fill-opacity="1" /><path clip-path="url(#clip520)" d="M 0 0 M1417.86 76.7889 Q1414.7 84.8907 1411.7 87.3618 Q1408.71 89.8329 1403.68 89.8329 L1397.73 89.8329 L1397.73 83.5945 L1402.1 83.5945 Q1405.18 83.5945 1406.88 82.1361 Q1408.58 80.6778 1410.65 75.2496 L1411.99 71.8468 L1393.64 27.2059 L1401.54 27.2059 L1415.71 62.6918 L1429.89 27.2059 L1437.79 27.2059 L1417.86 76.7889 Z" fill="#000000" fill-rule="evenodd" fill-opacity="1" /><path clip-path="url(#clip520)" d="M 0 0 M1442.86 46.5287 L1464.69 46.5287 L1464.69 53.1722 L1442.86 53.1722 L1442.86 46.5287 Z" fill="#000000" fill-rule="evenodd" fill-opacity="1" /><path clip-path="url(#clip520)" d="M 0 0 M1476.88 72.576 L1476.88 12.096 L1514.52 12.096 L1514.52 18.9825 L1485.07 18.9825 L1485.07 72.576 L1476.88 72.576 Z" fill="#000000" fill-rule="evenodd" fill-opacity="1" /><polyline clip-path="url(#clip522)" style="stroke:#009af9; stroke-width:8; stroke-opacity:1; fill:none" points="
  375.129,160.256 649.418,260.116 923.708,299.831 1198,506.392 1472.29,686.51 1746.58,907.212 2020.87,1130.45 2295.16,1386.4 
  "/>
<path clip-path="url(#clip520)" d="
M1929.57 1379.86 L2284.91 1379.86 L2284.91 1258.9 L1929.57 1258.9  Z
  " fill="#ffffff" fill-rule="evenodd" fill-opacity="1"/>
<polyline clip-path="url(#clip520)" style="stroke:#000000; stroke-width:4; stroke-opacity:1; fill:none" points="
  1929.57,1379.86 2284.91,1379.86 2284.91,1258.9 1929.57,1258.9 1929.57,1379.86 
  "/>
<polyline clip-path="url(#clip520)" style="stroke:#009af9; stroke-width:4; stroke-opacity:1; fill:none" points="
  1952.18,1319.38 2087.86,1319.38 
  "/>
<path clip-path="url(#clip520)" d="M 0 0 M2115.15 1305.94 L2115.15 1332.81 L2120.8 1332.81 Q2127.95 1332.81 2131.26 1329.57 Q2134.6 1326.33 2134.6 1319.34 Q2134.6 1312.4 2131.26 1309.18 Q2127.95 1305.94 2120.8 1305.94 L2115.15 1305.94 M2110.48 1302.1 L2120.08 1302.1 Q2130.13 1302.1 2134.83 1306.29 Q2139.53 1310.45 2139.53 1319.34 Q2139.53 1328.28 2134.8 1332.47 Q2130.08 1336.66 2120.08 1336.66 L2110.48 1336.66 L2110.48 1302.1 Z" fill="#000000" fill-rule="evenodd" fill-opacity="1" /><path clip-path="url(#clip520)" d="M 0 0 M2162.42 1315.13 L2192.1 1315.13 L2192.1 1319.02 L2162.42 1319.02 L2162.42 1315.13 M2162.42 1324.57 L2192.1 1324.57 L2192.1 1328.51 L2162.42 1328.51 L2162.42 1324.57 Z" fill="#000000" fill-rule="evenodd" fill-opacity="1" /><path clip-path="url(#clip520)" d="M 0 0 M2230.1 1306.17 L2218.3 1324.62 L2230.1 1324.62 L2230.1 1306.17 M2228.88 1302.1 L2234.76 1302.1 L2234.76 1324.62 L2239.69 1324.62 L2239.69 1328.51 L2234.76 1328.51 L2234.76 1336.66 L2230.1 1336.66 L2230.1 1328.51 L2214.5 1328.51 L2214.5 1323.99 L2228.88 1302.1 Z" fill="#000000" fill-rule="evenodd" fill-opacity="1" /></svg>
