<?xml version="1.0" encoding="utf-8"?>
<svg xmlns="http://www.w3.org/2000/svg" xmlns:xlink="http://www.w3.org/1999/xlink" width="600" height="400" viewBox="0 0 2400 1600">
<defs>
  <clipPath id="clip150">
    <rect x="0" y="0" width="2400" height="1600"/>
  </clipPath>
</defs>
<path clip-path="url(#clip150)" d="
M0 1600 L2400 1600 L2400 0 L0 0  Z
  " fill="#ffffff" fill-rule="evenodd" fill-opacity="1"/>
<defs>
  <clipPath id="clip151">
    <rect x="480" y="0" width="1681" height="1600"/>
  </clipPath>
</defs>
<path clip-path="url(#clip150)" d="
M219.866 1423.18 L2352.76 1423.18 L2352.76 123.472 L219.866 123.472  Z
  " fill="#ffffff" fill-rule="evenodd" fill-opacity="1"/>
<defs>
  <clipPath id="clip152">
    <rect x="219" y="123" width="2134" height="1301"/>
  </clipPath>
</defs>
<polyline clip-path="url(#clip152)" style="stroke:#000000; stroke-width:2; stroke-opacity:0.1; fill:none" points="
  280.231,1423.18 280.231,123.472 
  "/>
<polyline clip-path="url(#clip152)" style="stroke:#000000; stroke-width:2; stroke-opacity:0.1; fill:none" points="
  783.271,1423.18 783.271,123.472 
  "/>
<polyline clip-path="url(#clip152)" style="stroke:#000000; stroke-width:2; stroke-opacity:0.1; fill:none" points="
  1286.31,1423.18 1286.31,123.472 
  "/>
<polyline clip-path="url(#clip152)" style="stroke:#000000; stroke-width:2; stroke-opacity:0.1; fill:none" points="
  1789.35,1423.18 1789.35,123.472 
  "/>
<polyline clip-path="url(#clip152)" style="stroke:#000000; stroke-width:2; stroke-opacity:0.1; fill:none" points="
  2292.39,1423.18 2292.39,123.472 
  "/>
<polyline clip-path="url(#clip150)" style="stroke:#000000; stroke-width:4; stroke-opacity:1; fill:none" points="
  219.866,1423.18 2352.76,1423.18 
  "/>
<polyline clip-path="url(#clip150)" style="stroke:#000000; stroke-width:4; stroke-opacity:1; fill:none" points="
  280.231,1423.18 280.231,1407.58 
  "/>
<polyline clip-path="url(#clip150)" style="stroke:#000000; stroke-width:4; stroke-opacity:1; fill:none" points="
  783.271,1423.18 783.271,1407.58 
  "/>
<polyline clip-path="url(#clip150)" style="stroke:#000000; stroke-width:4; stroke-opacity:1; fill:none" points="
  1286.31,1423.18 1286.31,1407.58 
  "/>
<polyline clip-path="url(#clip150)" style="stroke:#000000; stroke-width:4; stroke-opacity:1; fill:none" points="
  1789.35,1423.18 1789.35,1407.58 
  "/>
<polyline clip-path="url(#clip150)" style="stroke:#000000; stroke-width:4; stroke-opacity:1; fill:none" points="
  2292.39,1423.18 2292.39,1407.58 
  "/>
<path clip-path="url(#clip150)" d="M 0 0 M242.535 1452.37 Q238.923 1452.37 237.095 1455.94 Q235.289 1459.48 235.289 1466.61 Q235.289 1473.71 237.095 1477.28 Q238.923 1480.82 242.535 1480.82 Q246.169 1480.82 247.974 1477.28 Q249.803 1473.71 249.803 1466.61 Q249.803 1459.48 247.974 1455.94 Q246.169 1452.37 242.535 1452.37 M242.535 1448.67 Q248.345 1448.67 251.4 1453.27 Q254.479 1457.86 254.479 1466.61 Q254.479 1475.33 251.4 1479.94 Q248.345 1484.52 242.535 1484.52 Q236.724 1484.52 233.646 1479.94 Q230.59 1475.33 230.59 1466.61 Q230.59 1457.86 233.646 1453.27 Q236.724 1448.67 242.535 1448.67 Z" fill="#000000" fill-rule="evenodd" fill-opacity="1" /><path clip-path="url(#clip150)" d="M 0 0 M262.696 1477.97 L267.581 1477.97 L267.581 1483.85 L262.696 1483.85 L262.696 1477.97 Z" fill="#000000" fill-rule="evenodd" fill-opacity="1" /><path clip-path="url(#clip150)" d="M 0 0 M287.766 1452.37 Q284.155 1452.37 282.326 1455.94 Q280.52 1459.48 280.52 1466.61 Q280.52 1473.71 282.326 1477.28 Q284.155 1480.82 287.766 1480.82 Q291.4 1480.82 293.206 1477.28 Q295.034 1473.71 295.034 1466.61 Q295.034 1459.48 293.206 1455.94 Q291.4 1452.37 287.766 1452.37 M287.766 1448.67 Q293.576 1448.67 296.631 1453.27 Q299.71 1457.86 299.71 1466.61 Q299.71 1475.33 296.631 1479.94 Q293.576 1484.52 287.766 1484.52 Q281.956 1484.52 278.877 1479.94 Q275.821 1475.33 275.821 1466.61 Q275.821 1457.86 278.877 1453.27 Q281.956 1448.67 287.766 1448.67 Z" fill="#000000" fill-rule="evenodd" fill-opacity="1" /><path clip-path="url(#clip150)" d="M 0 0 M317.928 1452.37 Q314.317 1452.37 312.488 1455.94 Q310.682 1459.48 310.682 1466.61 Q310.682 1473.71 312.488 1477.28 Q314.317 1480.82 317.928 1480.82 Q321.562 1480.82 323.367 1477.28 Q325.196 1473.71 325.196 1466.61 Q325.196 1459.48 323.367 1455.94 Q321.562 1452.37 317.928 1452.37 M317.928 1448.67 Q323.738 1448.67 326.793 1453.27 Q329.872 1457.86 329.872 1466.61 Q329.872 1475.33 326.793 1479.94 Q323.738 1484.52 317.928 1484.52 Q312.117 1484.52 309.039 1479.94 Q305.983 1475.33 305.983 1466.61 Q305.983 1457.86 309.039 1453.27 Q312.117 1448.67 317.928 1448.67 Z" fill="#000000" fill-rule="evenodd" fill-opacity="1" /><path clip-path="url(#clip150)" d="M 0 0 M746.072 1452.37 Q742.461 1452.37 740.632 1455.94 Q738.827 1459.48 738.827 1466.61 Q738.827 1473.71 740.632 1477.28 Q742.461 1480.82 746.072 1480.82 Q749.706 1480.82 751.512 1477.28 Q753.341 1473.71 753.341 1466.61 Q753.341 1459.48 751.512 1455.94 Q749.706 1452.37 746.072 1452.37 M746.072 1448.67 Q751.882 1448.67 754.938 1453.27 Q758.017 1457.86 758.017 1466.61 Q758.017 1475.33 754.938 1479.94 Q751.882 1484.52 746.072 1484.52 Q740.262 1484.52 737.183 1479.94 Q734.128 1475.33 734.128 1466.61 Q734.128 1457.86 737.183 1453.27 Q740.262 1448.67 746.072 1448.67 Z" fill="#000000" fill-rule="evenodd" fill-opacity="1" /><path clip-path="url(#clip150)" d="M 0 0 M766.234 1477.97 L771.118 1477.97 L771.118 1483.85 L766.234 1483.85 L766.234 1477.97 Z" fill="#000000" fill-rule="evenodd" fill-opacity="1" /><path clip-path="url(#clip150)" d="M 0 0 M785.331 1479.92 L801.651 1479.92 L801.651 1483.85 L779.706 1483.85 L779.706 1479.92 Q782.368 1477.16 786.952 1472.53 Q791.558 1467.88 792.739 1466.54 Q794.984 1464.01 795.864 1462.28 Q796.766 1460.52 796.766 1458.83 Q796.766 1456.07 794.822 1454.34 Q792.901 1452.6 789.799 1452.6 Q787.6 1452.6 785.146 1453.37 Q782.716 1454.13 779.938 1455.68 L779.938 1450.96 Q782.762 1449.82 785.216 1449.25 Q787.669 1448.67 789.706 1448.67 Q795.077 1448.67 798.271 1451.35 Q801.465 1454.04 801.465 1458.53 Q801.465 1460.66 800.655 1462.58 Q799.868 1464.48 797.762 1467.07 Q797.183 1467.74 794.081 1470.96 Q790.979 1474.15 785.331 1479.92 Z" fill="#000000" fill-rule="evenodd" fill-opacity="1" /><path clip-path="url(#clip150)" d="M 0 0 M811.512 1449.29 L829.868 1449.29 L829.868 1453.23 L815.794 1453.23 L815.794 1461.7 Q816.813 1461.35 817.831 1461.19 Q818.85 1461 819.868 1461 Q825.655 1461 829.035 1464.18 Q832.414 1467.35 832.414 1472.76 Q832.414 1478.34 828.942 1481.44 Q825.47 1484.52 819.151 1484.52 Q816.975 1484.52 814.706 1484.15 Q812.461 1483.78 810.053 1483.04 L810.053 1478.34 Q812.137 1479.48 814.359 1480.03 Q816.581 1480.59 819.058 1480.59 Q823.063 1480.59 825.4 1478.48 Q827.738 1476.38 827.738 1472.76 Q827.738 1469.15 825.4 1467.05 Q823.063 1464.94 819.058 1464.94 Q817.183 1464.94 815.308 1465.36 Q813.456 1465.77 811.512 1466.65 L811.512 1449.29 Z" fill="#000000" fill-rule="evenodd" fill-opacity="1" /><path clip-path="url(#clip150)" d="M 0 0 M1248.61 1452.37 Q1245 1452.37 1243.17 1455.94 Q1241.37 1459.48 1241.37 1466.61 Q1241.37 1473.71 1243.17 1477.28 Q1245 1480.82 1248.61 1480.82 Q1252.25 1480.82 1254.05 1477.28 Q1255.88 1473.71 1255.88 1466.61 Q1255.88 1459.48 1254.05 1455.94 Q1252.25 1452.37 1248.61 1452.37 M1248.61 1448.67 Q1254.42 1448.67 1257.48 1453.27 Q1260.56 1457.86 1260.56 1466.61 Q1260.56 1475.33 1257.48 1479.94 Q1254.42 1484.52 1248.61 1484.52 Q1242.8 1484.52 1239.73 1479.94 Q1236.67 1475.33 1236.67 1466.61 Q1236.67 1457.86 1239.73 1453.27 Q1242.8 1448.67 1248.61 1448.67 Z" fill="#000000" fill-rule="evenodd" fill-opacity="1" /><path clip-path="url(#clip150)" d="M 0 0 M1268.78 1477.97 L1273.66 1477.97 L1273.66 1483.85 L1268.78 1483.85 L1268.78 1477.97 Z" fill="#000000" fill-rule="evenodd" fill-opacity="1" /><path clip-path="url(#clip150)" d="M 0 0 M1283.89 1449.29 L1302.25 1449.29 L1302.25 1453.23 L1288.17 1453.23 L1288.17 1461.7 Q1289.19 1461.35 1290.21 1461.19 Q1291.23 1461 1292.25 1461 Q1298.04 1461 1301.42 1464.18 Q1304.79 1467.35 1304.79 1472.76 Q1304.79 1478.34 1301.32 1481.44 Q1297.85 1484.52 1291.53 1484.52 Q1289.36 1484.52 1287.09 1484.15 Q1284.84 1483.78 1282.43 1483.04 L1282.43 1478.34 Q1284.52 1479.48 1286.74 1480.03 Q1288.96 1480.59 1291.44 1480.59 Q1295.44 1480.59 1297.78 1478.48 Q1300.12 1476.38 1300.12 1472.76 Q1300.12 1469.15 1297.78 1467.05 Q1295.44 1464.94 1291.44 1464.94 Q1289.56 1464.94 1287.69 1465.36 Q1285.84 1465.77 1283.89 1466.65 L1283.89 1449.29 Z" fill="#000000" fill-rule="evenodd" fill-opacity="1" /><path clip-path="url(#clip150)" d="M 0 0 M1324.01 1452.37 Q1320.4 1452.37 1318.57 1455.94 Q1316.76 1459.48 1316.76 1466.61 Q1316.76 1473.71 1318.57 1477.28 Q1320.4 1480.82 1324.01 1480.82 Q1327.64 1480.82 1329.45 1477.28 Q1331.28 1473.71 1331.28 1466.61 Q1331.28 1459.48 1329.45 1455.94 Q1327.64 1452.37 1324.01 1452.37 M1324.01 1448.67 Q1329.82 1448.67 1332.87 1453.27 Q1335.95 1457.86 1335.95 1466.61 Q1335.95 1475.33 1332.87 1479.94 Q1329.82 1484.52 1324.01 1484.52 Q1318.2 1484.52 1315.12 1479.94 Q1312.06 1475.33 1312.06 1466.61 Q1312.06 1457.86 1315.12 1453.27 Q1318.2 1448.67 1324.01 1448.67 Z" fill="#000000" fill-rule="evenodd" fill-opacity="1" /><path clip-path="url(#clip150)" d="M 0 0 M1752.15 1452.37 Q1748.54 1452.37 1746.71 1455.94 Q1744.91 1459.48 1744.91 1466.61 Q1744.91 1473.71 1746.71 1477.28 Q1748.54 1480.82 1752.15 1480.82 Q1755.79 1480.82 1757.59 1477.28 Q1759.42 1473.71 1759.42 1466.61 Q1759.42 1459.48 1757.59 1455.94 Q1755.79 1452.37 1752.15 1452.37 M1752.15 1448.67 Q1757.96 1448.67 1761.02 1453.27 Q1764.1 1457.86 1764.1 1466.61 Q1764.1 1475.33 1761.02 1479.94 Q1757.96 1484.52 1752.15 1484.52 Q1746.34 1484.52 1743.26 1479.94 Q1740.21 1475.33 1740.21 1466.61 Q1740.21 1457.86 1743.26 1453.27 Q1746.34 1448.67 1752.15 1448.67 Z" fill="#000000" fill-rule="evenodd" fill-opacity="1" /><path clip-path="url(#clip150)" d="M 0 0 M1772.31 1477.97 L1777.2 1477.97 L1777.2 1483.85 L1772.31 1483.85 L1772.31 1477.97 Z" fill="#000000" fill-rule="evenodd" fill-opacity="1" /><path clip-path="url(#clip150)" d="M 0 0 M1786.2 1449.29 L1808.43 1449.29 L1808.43 1451.28 L1795.88 1483.85 L1790.99 1483.85 L1802.8 1453.23 L1786.2 1453.23 L1786.2 1449.29 Z" fill="#000000" fill-rule="evenodd" fill-opacity="1" /><path clip-path="url(#clip150)" d="M 0 0 M1817.59 1449.29 L1835.95 1449.29 L1835.95 1453.23 L1821.87 1453.23 L1821.87 1461.7 Q1822.89 1461.35 1823.91 1461.19 Q1824.93 1461 1825.95 1461 Q1831.74 1461 1835.11 1464.18 Q1838.49 1467.35 1838.49 1472.76 Q1838.49 1478.34 1835.02 1481.44 Q1831.55 1484.52 1825.23 1484.52 Q1823.05 1484.52 1820.79 1484.15 Q1818.54 1483.78 1816.13 1483.04 L1816.13 1478.34 Q1818.22 1479.48 1820.44 1480.03 Q1822.66 1480.59 1825.14 1480.59 Q1829.14 1480.59 1831.48 1478.48 Q1833.82 1476.38 1833.82 1472.76 Q1833.82 1469.15 1831.48 1467.05 Q1829.14 1464.94 1825.14 1464.94 Q1823.26 1464.94 1821.39 1465.36 Q1819.54 1465.77 1817.59 1466.65 L1817.59 1449.29 Z" fill="#000000" fill-rule="evenodd" fill-opacity="1" /><path clip-path="url(#clip150)" d="M 0 0 M2244.46 1479.92 L2252.1 1479.92 L2252.1 1453.55 L2243.79 1455.22 L2243.79 1450.96 L2252.06 1449.29 L2256.73 1449.29 L2256.73 1479.92 L2264.37 1479.92 L2264.37 1483.85 L2244.46 1483.85 L2244.46 1479.92 Z" fill="#000000" fill-rule="evenodd" fill-opacity="1" /><path clip-path="url(#clip150)" d="M 0 0 M2273.81 1477.97 L2278.7 1477.97 L2278.7 1483.85 L2273.81 1483.85 L2273.81 1477.97 Z" fill="#000000" fill-rule="evenodd" fill-opacity="1" /><path clip-path="url(#clip150)" d="M 0 0 M2298.88 1452.37 Q2295.27 1452.37 2293.44 1455.94 Q2291.64 1459.48 2291.64 1466.61 Q2291.64 1473.71 2293.44 1477.28 Q2295.27 1480.82 2298.88 1480.82 Q2302.52 1480.82 2304.32 1477.28 Q2306.15 1473.71 2306.15 1466.61 Q2306.15 1459.48 2304.32 1455.94 Q2302.52 1452.37 2298.88 1452.37 M2298.88 1448.67 Q2304.69 1448.67 2307.75 1453.27 Q2310.83 1457.86 2310.83 1466.61 Q2310.83 1475.33 2307.75 1479.94 Q2304.69 1484.52 2298.88 1484.52 Q2293.07 1484.52 2290 1479.94 Q2286.94 1475.33 2286.94 1466.61 Q2286.94 1457.86 2290 1453.27 Q2293.07 1448.67 2298.88 1448.67 Z" fill="#000000" fill-rule="evenodd" fill-opacity="1" /><path clip-path="url(#clip150)" d="M 0 0 M2329.05 1452.37 Q2325.43 1452.37 2323.61 1455.94 Q2321.8 1459.48 2321.8 1466.61 Q2321.8 1473.71 2323.61 1477.28 Q2325.43 1480.82 2329.05 1480.82 Q2332.68 1480.82 2334.49 1477.28 Q2336.31 1473.71 2336.31 1466.61 Q2336.31 1459.48 2334.49 1455.94 Q2332.68 1452.37 2329.05 1452.37 M2329.05 1448.67 Q2334.86 1448.67 2337.91 1453.27 Q2340.99 1457.86 2340.99 1466.61 Q2340.99 1475.33 2337.91 1479.94 Q2334.86 1484.52 2329.05 1484.52 Q2323.24 1484.52 2320.16 1479.94 Q2317.1 1475.33 2317.1 1466.61 Q2317.1 1457.86 2320.16 1453.27 Q2323.24 1448.67 2329.05 1448.67 Z" fill="#000000" fill-rule="evenodd" fill-opacity="1" /><path clip-path="url(#clip150)" d="M 0 0 M1164.5 1518.52 L1164.5 1531.66 Q1170.84 1531.66 1175.07 1536.53 Q1179.43 1541.5 1179.43 1550.25 Q1179.43 1559 1175.07 1563.97 Q1170.84 1568.84 1164.5 1568.84 L1164.5 1581.6 L1158.68 1581.6 L1158.68 1568.84 Q1152.34 1568.84 1148.08 1563.97 Q1143.75 1559 1143.75 1550.25 Q1143.75 1541.5 1148.08 1536.53 Q1152.34 1531.66 1158.68 1531.66 L1158.68 1518.52 L1164.5 1518.52 M1164.5 1563.62 Q1168.1 1563.62 1170.55 1560.34 Q1173.22 1556.68 1173.26 1550.25 Q1173.29 1543.89 1170.55 1540.16 Q1168.1 1536.88 1164.5 1536.88 L1164.5 1563.62 M1158.68 1563.62 L1158.68 1536.88 Q1155.08 1536.88 1152.66 1540.16 Q1149.89 1543.89 1149.93 1550.25 Q1149.96 1556.68 1152.66 1560.34 Q1155.08 1563.62 1158.68 1563.62 Z" fill="#000000" fill-rule="evenodd" fill-opacity="1" /><path clip-path="url(#clip150)" d="M 0 0 M1233.51 1537.81 L1233.51 1518.52 L1239.36 1518.52 L1239.36 1568.04 L1233.51 1568.04 L1233.51 1562.7 Q1231.66 1565.88 1228.83 1567.44 Q1226.03 1568.97 1222.08 1568.97 Q1215.62 1568.97 1211.55 1563.81 Q1207.5 1558.65 1207.5 1550.25 Q1207.5 1541.85 1211.55 1536.69 Q1215.62 1531.54 1222.08 1531.54 Q1226.03 1531.54 1228.83 1533.1 Q1231.66 1534.62 1233.51 1537.81 M1213.55 1550.25 Q1213.55 1556.71 1216.19 1560.4 Q1218.87 1564.07 1223.51 1564.07 Q1228.16 1564.07 1230.83 1560.4 Q1233.51 1556.71 1233.51 1550.25 Q1233.51 1543.79 1230.83 1540.13 Q1228.16 1536.44 1223.51 1536.44 Q1218.87 1536.44 1216.19 1540.13 Q1213.55 1543.79 1213.55 1550.25 Z" fill="#000000" fill-rule="evenodd" fill-opacity="1" /><path clip-path="url(#clip150)" d="M 0 0 M1281.92 1548.76 L1281.92 1551.62 L1254.99 1551.62 Q1255.37 1557.67 1258.62 1560.85 Q1261.9 1564 1267.72 1564 Q1271.1 1564 1274.25 1563.17 Q1277.43 1562.35 1280.55 1560.69 L1280.55 1566.23 Q1277.4 1567.57 1274.09 1568.27 Q1270.78 1568.97 1267.37 1568.97 Q1258.84 1568.97 1253.85 1564 Q1248.88 1559.04 1248.88 1550.57 Q1248.88 1541.82 1253.59 1536.69 Q1258.33 1531.54 1266.35 1531.54 Q1273.55 1531.54 1277.72 1536.18 Q1281.92 1540.8 1281.92 1548.76 M1276.06 1547.04 Q1276 1542.23 1273.36 1539.37 Q1270.75 1536.5 1266.42 1536.5 Q1261.52 1536.5 1258.56 1539.27 Q1255.63 1542.04 1255.18 1547.07 L1276.06 1547.04 Z" fill="#000000" fill-rule="evenodd" fill-opacity="1" /><path clip-path="url(#clip150)" d="M 0 0 M1314.99 1549.81 Q1314.99 1543.44 1312.35 1539.94 Q1309.74 1536.44 1304.99 1536.44 Q1300.28 1536.44 1297.64 1539.94 Q1295.03 1543.44 1295.03 1549.81 Q1295.03 1556.14 1297.64 1559.64 Q1300.28 1563.14 1304.99 1563.14 Q1309.74 1563.14 1312.35 1559.64 Q1314.99 1556.14 1314.99 1549.81 M1320.85 1563.62 Q1320.85 1572.72 1316.8 1577.15 Q1312.76 1581.6 1304.42 1581.6 Q1301.33 1581.6 1298.6 1581.13 Q1295.86 1580.68 1293.28 1579.72 L1293.28 1574.03 Q1295.86 1575.43 1298.37 1576.1 Q1300.89 1576.76 1303.5 1576.76 Q1309.26 1576.76 1312.12 1573.74 Q1314.99 1570.75 1314.99 1564.67 L1314.99 1561.77 Q1313.17 1564.92 1310.34 1566.48 Q1307.51 1568.04 1303.56 1568.04 Q1297.01 1568.04 1293 1563.05 Q1288.98 1558.05 1288.98 1549.81 Q1288.98 1541.53 1293 1536.53 Q1297.01 1531.54 1303.56 1531.54 Q1307.51 1531.54 1310.34 1533.1 Q1313.17 1534.66 1314.99 1537.81 L1314.99 1532.4 L1320.85 1532.4 L1320.85 1563.62 Z" fill="#000000" fill-rule="evenodd" fill-opacity="1" /><path clip-path="url(#clip150)" d="M 0 0 M1353.56 1537.87 Q1352.58 1537.3 1351.4 1537.04 Q1350.25 1536.76 1348.85 1536.76 Q1343.89 1536.76 1341.22 1540 Q1338.57 1543.22 1338.57 1549.27 L1338.57 1568.04 L1332.69 1568.04 L1332.69 1532.4 L1338.57 1532.4 L1338.57 1537.93 Q1340.42 1534.69 1343.38 1533.13 Q1346.34 1531.54 1350.57 1531.54 Q1351.18 1531.54 1351.91 1531.63 Q1352.64 1531.7 1353.53 1531.85 L1353.56 1537.87 Z" fill="#000000" fill-rule="evenodd" fill-opacity="1" /><path clip-path="url(#clip150)" d="M 0 0 M1388.77 1548.76 L1388.77 1551.62 L1361.84 1551.62 Q1362.22 1557.67 1365.47 1560.85 Q1368.75 1564 1374.57 1564 Q1377.95 1564 1381.1 1563.17 Q1384.28 1562.35 1387.4 1560.69 L1387.4 1566.23 Q1384.25 1567.57 1380.94 1568.27 Q1377.63 1568.97 1374.22 1568.97 Q1365.69 1568.97 1360.69 1564 Q1355.73 1559.04 1355.73 1550.57 Q1355.73 1541.82 1360.44 1536.69 Q1365.18 1531.54 1373.2 1531.54 Q1380.4 1531.54 1384.57 1536.18 Q1388.77 1540.8 1388.77 1548.76 M1382.91 1547.04 Q1382.85 1542.23 1380.21 1539.37 Q1377.6 1536.5 1373.27 1536.5 Q1368.37 1536.5 1365.4 1539.27 Q1362.48 1542.04 1362.03 1547.07 L1382.91 1547.04 Z" fill="#000000" fill-rule="evenodd" fill-opacity="1" /><path clip-path="url(#clip150)" d="M 0 0 M1428.87 1548.76 L1428.87 1551.62 L1401.94 1551.62 Q1402.33 1557.67 1405.57 1560.85 Q1408.85 1564 1414.68 1564 Q1418.05 1564 1421.2 1563.17 Q1424.38 1562.35 1427.5 1560.69 L1427.5 1566.23 Q1424.35 1567.57 1421.04 1568.27 Q1417.73 1568.97 1414.33 1568.97 Q1405.8 1568.97 1400.8 1564 Q1395.83 1559.04 1395.83 1550.57 Q1395.83 1541.82 1400.54 1536.69 Q1405.29 1531.54 1413.31 1531.54 Q1420.5 1531.54 1424.67 1536.18 Q1428.87 1540.8 1428.87 1548.76 M1423.01 1547.04 Q1422.95 1542.23 1420.31 1539.37 Q1417.7 1536.5 1413.37 1536.5 Q1408.47 1536.5 1405.51 1539.27 Q1402.58 1542.04 1402.14 1547.07 L1423.01 1547.04 Z" fill="#000000" fill-rule="evenodd" fill-opacity="1" /><polyline clip-path="url(#clip152)" style="stroke:#000000; stroke-width:2; stroke-opacity:0.1; fill:none" points="
  219.866,1386.4 2352.76,1386.4 
  "/>
<polyline clip-path="url(#clip152)" style="stroke:#000000; stroke-width:2; stroke-opacity:0.1; fill:none" points="
  219.866,1141.17 2352.76,1141.17 
  "/>
<polyline clip-path="url(#clip152)" style="stroke:#000000; stroke-width:2; stroke-opacity:0.1; fill:none" points="
  219.866,895.94 2352.76,895.94 
  "/>
<polyline clip-path="url(#clip152)" style="stroke:#000000; stroke-width:2; stroke-opacity:0.1; fill:none" points="
  219.866,650.712 2352.76,650.712 
  "/>
<polyline clip-path="url(#clip152)" style="stroke:#000000; stroke-width:2; stroke-opacity:0.1; fill:none" points="
  219.866,405.484 2352.76,405.484 
  "/>
<polyline clip-path="url(#clip152)" style="stroke:#000000; stroke-width:2; stroke-opacity:0.1; fill:none" points="
  219.866,160.256 2352.76,160.256 
  "/>
<polyline clip-path="url(#clip150)" style="stroke:#000000; stroke-width:4; stroke-opacity:1; fill:none" points="
  219.866,1423.18 219.866,123.472 
  "/>
<polyline clip-path="url(#clip150)" style="stroke:#000000; stroke-width:4; stroke-opacity:1; fill:none" points="
  219.866,1386.4 245.461,1386.4 
  "/>
<polyline clip-path="url(#clip150)" style="stroke:#000000; stroke-width:4; stroke-opacity:1; fill:none" points="
  219.866,1141.17 245.461,1141.17 
  "/>
<polyline clip-path="url(#clip150)" style="stroke:#000000; stroke-width:4; stroke-opacity:1; fill:none" points="
  219.866,895.94 245.461,895.94 
  "/>
<polyline clip-path="url(#clip150)" style="stroke:#000000; stroke-width:4; stroke-opacity:1; fill:none" points="
  219.866,650.712 245.461,650.712 
  "/>
<polyline clip-path="url(#clip150)" style="stroke:#000000; stroke-width:4; stroke-opacity:1; fill:none" points="
  219.866,405.484 245.461,405.484 
  "/>
<polyline clip-path="url(#clip150)" style="stroke:#000000; stroke-width:4; stroke-opacity:1; fill:none" points="
  219.866,160.256 245.461,160.256 
  "/>
<path clip-path="url(#clip150)" d="M 0 0 M126.691 1372.19 Q123.08 1372.19 121.251 1375.76 Q119.445 1379.3 119.445 1386.43 Q119.445 1393.54 121.251 1397.1 Q123.08 1400.64 126.691 1400.64 Q130.325 1400.64 132.13 1397.1 Q133.959 1393.54 133.959 1386.43 Q133.959 1379.3 132.13 1375.76 Q130.325 1372.19 126.691 1372.19 M126.691 1368.49 Q132.501 1368.49 135.556 1373.1 Q138.635 1377.68 138.635 1386.43 Q138.635 1395.16 135.556 1399.76 Q132.501 1404.35 126.691 1404.35 Q120.88 1404.35 117.802 1399.76 Q114.746 1395.16 114.746 1386.43 Q114.746 1377.68 117.802 1373.1 Q120.88 1368.49 126.691 1368.49 Z" fill="#000000" fill-rule="evenodd" fill-opacity="1" /><path clip-path="url(#clip150)" d="M 0 0 M146.853 1397.8 L151.737 1397.8 L151.737 1403.68 L146.853 1403.68 L146.853 1397.8 Z" fill="#000000" fill-rule="evenodd" fill-opacity="1" /><path clip-path="url(#clip150)" d="M 0 0 M171.922 1372.19 Q168.311 1372.19 166.482 1375.76 Q164.677 1379.3 164.677 1386.43 Q164.677 1393.54 166.482 1397.1 Q168.311 1400.64 171.922 1400.64 Q175.556 1400.64 177.362 1397.1 Q179.19 1393.54 179.19 1386.43 Q179.19 1379.3 177.362 1375.76 Q175.556 1372.19 171.922 1372.19 M171.922 1368.49 Q177.732 1368.49 180.788 1373.1 Q183.866 1377.68 183.866 1386.43 Q183.866 1395.16 180.788 1399.76 Q177.732 1404.35 171.922 1404.35 Q166.112 1404.35 163.033 1399.76 Q159.978 1395.16 159.978 1386.43 Q159.978 1377.68 163.033 1373.1 Q166.112 1368.49 171.922 1368.49 Z" fill="#000000" fill-rule="evenodd" fill-opacity="1" /><path clip-path="url(#clip150)" d="M 0 0 M127.917 1126.97 Q124.306 1126.97 122.478 1130.53 Q120.672 1134.07 120.672 1141.2 Q120.672 1148.31 122.478 1151.87 Q124.306 1155.42 127.917 1155.42 Q131.552 1155.42 133.357 1151.87 Q135.186 1148.31 135.186 1141.2 Q135.186 1134.07 133.357 1130.53 Q131.552 1126.97 127.917 1126.97 M127.917 1123.26 Q133.728 1123.26 136.783 1127.87 Q139.862 1132.45 139.862 1141.2 Q139.862 1149.93 136.783 1154.54 Q133.728 1159.12 127.917 1159.12 Q122.107 1159.12 119.029 1154.54 Q115.973 1149.93 115.973 1141.2 Q115.973 1132.45 119.029 1127.87 Q122.107 1123.26 127.917 1123.26 Z" fill="#000000" fill-rule="evenodd" fill-opacity="1" /><path clip-path="url(#clip150)" d="M 0 0 M148.079 1152.57 L152.964 1152.57 L152.964 1158.45 L148.079 1158.45 L148.079 1152.57 Z" fill="#000000" fill-rule="evenodd" fill-opacity="1" /><path clip-path="url(#clip150)" d="M 0 0 M163.959 1154.51 L171.598 1154.51 L171.598 1128.15 L163.288 1129.81 L163.288 1125.55 L171.552 1123.89 L176.227 1123.89 L176.227 1154.51 L183.866 1154.51 L183.866 1158.45 L163.959 1158.45 L163.959 1154.51 Z" fill="#000000" fill-rule="evenodd" fill-opacity="1" /><path clip-path="url(#clip150)" d="M 0 0 M128.288 881.739 Q124.677 881.739 122.848 885.304 Q121.043 888.845 121.043 895.975 Q121.043 903.081 122.848 906.646 Q124.677 910.188 128.288 910.188 Q131.922 910.188 133.728 906.646 Q135.556 903.081 135.556 895.975 Q135.556 888.845 133.728 885.304 Q131.922 881.739 128.288 881.739 M128.288 878.035 Q134.098 878.035 137.154 882.642 Q140.232 887.225 140.232 895.975 Q140.232 904.702 137.154 909.308 Q134.098 913.891 128.288 913.891 Q122.478 913.891 119.399 909.308 Q116.343 904.702 116.343 895.975 Q116.343 887.225 119.399 882.642 Q122.478 878.035 128.288 878.035 Z" fill="#000000" fill-rule="evenodd" fill-opacity="1" /><path clip-path="url(#clip150)" d="M 0 0 M148.45 907.341 L153.334 907.341 L153.334 913.22 L148.45 913.22 L148.45 907.341 Z" fill="#000000" fill-rule="evenodd" fill-opacity="1" /><path clip-path="url(#clip150)" d="M 0 0 M167.547 909.285 L183.866 909.285 L183.866 913.22 L161.922 913.22 L161.922 909.285 Q164.584 906.53 169.167 901.901 Q173.774 897.248 174.954 895.905 Q177.2 893.382 178.079 891.646 Q178.982 889.887 178.982 888.197 Q178.982 885.442 177.038 883.706 Q175.116 881.97 172.014 881.97 Q169.815 881.97 167.362 882.734 Q164.931 883.498 162.153 885.049 L162.153 880.327 Q164.977 879.193 167.431 878.614 Q169.885 878.035 171.922 878.035 Q177.292 878.035 180.487 880.72 Q183.681 883.405 183.681 887.896 Q183.681 890.026 182.871 891.947 Q182.084 893.845 179.977 896.438 Q179.399 897.109 176.297 900.327 Q173.195 903.521 167.547 909.285 Z" fill="#000000" fill-rule="evenodd" fill-opacity="1" /><path clip-path="url(#clip150)" d="M 0 0 M127.339 636.511 Q123.728 636.511 121.899 640.076 Q120.093 643.617 120.093 650.747 Q120.093 657.853 121.899 661.418 Q123.728 664.96 127.339 664.96 Q130.973 664.96 132.779 661.418 Q134.607 657.853 134.607 650.747 Q134.607 643.617 132.779 640.076 Q130.973 636.511 127.339 636.511 M127.339 632.807 Q133.149 632.807 136.204 637.414 Q139.283 641.997 139.283 650.747 Q139.283 659.474 136.204 664.08 Q133.149 668.663 127.339 668.663 Q121.529 668.663 118.45 664.08 Q115.394 659.474 115.394 650.747 Q115.394 641.997 118.45 637.414 Q121.529 632.807 127.339 632.807 Z" fill="#000000" fill-rule="evenodd" fill-opacity="1" /><path clip-path="url(#clip150)" d="M 0 0 M147.501 662.113 L152.385 662.113 L152.385 667.992 L147.501 667.992 L147.501 662.113 Z" fill="#000000" fill-rule="evenodd" fill-opacity="1" /><path clip-path="url(#clip150)" d="M 0 0 M176.737 649.358 Q180.093 650.076 181.968 652.344 Q183.866 654.613 183.866 657.946 Q183.866 663.062 180.348 665.863 Q176.829 668.663 170.348 668.663 Q168.172 668.663 165.857 668.224 Q163.565 667.807 161.112 666.951 L161.112 662.437 Q163.056 663.571 165.371 664.15 Q167.686 664.728 170.209 664.728 Q174.607 664.728 176.899 662.992 Q179.214 661.256 179.214 657.946 Q179.214 654.89 177.061 653.177 Q174.931 651.441 171.112 651.441 L167.084 651.441 L167.084 647.599 L171.297 647.599 Q174.746 647.599 176.575 646.233 Q178.403 644.844 178.403 642.252 Q178.403 639.59 176.505 638.178 Q174.63 636.742 171.112 636.742 Q169.19 636.742 166.991 637.159 Q164.792 637.576 162.153 638.455 L162.153 634.289 Q164.815 633.548 167.13 633.178 Q169.468 632.807 171.528 632.807 Q176.852 632.807 179.954 635.238 Q183.056 637.645 183.056 641.765 Q183.056 644.636 181.413 646.627 Q179.769 648.594 176.737 649.358 Z" fill="#000000" fill-rule="evenodd" fill-opacity="1" /><path clip-path="url(#clip150)" d="M 0 0 M126.205 391.283 Q122.593 391.283 120.765 394.848 Q118.959 398.389 118.959 405.519 Q118.959 412.625 120.765 416.19 Q122.593 419.732 126.205 419.732 Q129.839 419.732 131.644 416.19 Q133.473 412.625 133.473 405.519 Q133.473 398.389 131.644 394.848 Q129.839 391.283 126.205 391.283 M126.205 387.579 Q132.015 387.579 135.07 392.186 Q138.149 396.769 138.149 405.519 Q138.149 414.246 135.07 418.852 Q132.015 423.436 126.205 423.436 Q120.394 423.436 117.316 418.852 Q114.26 414.246 114.26 405.519 Q114.26 396.769 117.316 392.186 Q120.394 387.579 126.205 387.579 Z" fill="#000000" fill-rule="evenodd" fill-opacity="1" /><path clip-path="url(#clip150)" d="M 0 0 M146.366 416.885 L151.251 416.885 L151.251 422.764 L146.366 422.764 L146.366 416.885 Z" fill="#000000" fill-rule="evenodd" fill-opacity="1" /><path clip-path="url(#clip150)" d="M 0 0 M174.283 392.278 L162.477 410.727 L174.283 410.727 L174.283 392.278 M173.056 388.204 L178.936 388.204 L178.936 410.727 L183.866 410.727 L183.866 414.616 L178.936 414.616 L178.936 422.764 L174.283 422.764 L174.283 414.616 L158.681 414.616 L158.681 410.102 L173.056 388.204 Z" fill="#000000" fill-rule="evenodd" fill-opacity="1" /><path clip-path="url(#clip150)" d="M 0 0 M127.686 146.055 Q124.075 146.055 122.246 149.62 Q120.441 153.161 120.441 160.291 Q120.441 167.397 122.246 170.962 Q124.075 174.504 127.686 174.504 Q131.32 174.504 133.126 170.962 Q134.954 167.397 134.954 160.291 Q134.954 153.161 133.126 149.62 Q131.32 146.055 127.686 146.055 M127.686 142.351 Q133.496 142.351 136.552 146.958 Q139.63 151.541 139.63 160.291 Q139.63 169.018 136.552 173.624 Q133.496 178.208 127.686 178.208 Q121.876 178.208 118.797 173.624 Q115.742 169.018 115.742 160.291 Q115.742 151.541 118.797 146.958 Q121.876 142.351 127.686 142.351 Z" fill="#000000" fill-rule="evenodd" fill-opacity="1" /><path clip-path="url(#clip150)" d="M 0 0 M147.848 171.657 L152.732 171.657 L152.732 177.536 L147.848 177.536 L147.848 171.657 Z" fill="#000000" fill-rule="evenodd" fill-opacity="1" /><path clip-path="url(#clip150)" d="M 0 0 M162.964 142.976 L181.32 142.976 L181.32 146.911 L167.246 146.911 L167.246 155.384 Q168.264 155.036 169.283 154.874 Q170.302 154.689 171.32 154.689 Q177.107 154.689 180.487 157.86 Q183.866 161.032 183.866 166.448 Q183.866 172.027 180.394 175.129 Q176.922 178.208 170.602 178.208 Q168.427 178.208 166.158 177.837 Q163.913 177.467 161.505 176.726 L161.505 172.027 Q163.589 173.161 165.811 173.717 Q168.033 174.272 170.51 174.272 Q174.514 174.272 176.852 172.166 Q179.19 170.059 179.19 166.448 Q179.19 162.837 176.852 160.731 Q174.514 158.624 170.51 158.624 Q168.635 158.624 166.76 159.041 Q164.908 159.458 162.964 160.337 L162.964 142.976 Z" fill="#000000" fill-rule="evenodd" fill-opacity="1" /><path clip-path="url(#clip150)" d="M 0 0 M20.8447 1037.41 Q20.8447 1044.41 26.0645 1048.55 Q31.2844 1052.65 40.2919 1052.65 Q49.2675 1052.65 54.4874 1048.55 Q59.7073 1044.41 59.7073 1037.41 Q59.7073 1030.41 54.4874 1026.33 Q49.2675 1022.23 40.2919 1022.23 Q31.2844 1022.23 26.0645 1026.33 Q20.8447 1030.41 20.8447 1037.41 M15.6248 1037.41 Q15.6248 1027.41 22.3406 1021.43 Q29.0246 1015.45 40.2919 1015.45 Q51.5274 1015.45 58.2432 1021.43 Q64.9272 1027.41 64.9272 1037.41 Q64.9272 1047.43 58.2432 1053.45 Q51.5592 1059.43 40.2919 1059.43 Q29.0246 1059.43 22.3406 1053.45 Q15.6248 1047.43 15.6248 1037.41 Z" fill="#000000" fill-rule="evenodd" fill-opacity="1" /><path clip-path="url(#clip150)" d="M 0 0 M33.8307 984.986 Q33.2578 985.972 33.0032 987.15 Q32.7167 988.296 32.7167 989.696 Q32.7167 994.662 35.9632 997.335 Q39.1779 999.977 45.2253 999.977 L64.0042 999.977 L64.0042 1005.87 L28.3562 1005.87 L28.3562 999.977 L33.8944 999.977 Q30.6479 998.131 29.0883 995.171 Q27.4968 992.211 27.4968 987.978 Q27.4968 987.373 27.5923 986.641 Q27.656 985.909 27.8151 985.018 L33.8307 984.986 Z" fill="#000000" fill-rule="evenodd" fill-opacity="1" /><path clip-path="url(#clip150)" d="M 0 0 M33.7671 956.531 L14.479 956.531 L14.479 950.675 L64.0042 950.675 L64.0042 956.531 L58.657 956.531 Q61.8398 958.377 63.3994 961.21 Q64.9272 964.011 64.9272 967.957 Q64.9272 974.419 59.771 978.493 Q54.6147 982.535 46.212 982.535 Q37.8093 982.535 32.6531 978.493 Q27.4968 974.419 27.4968 967.957 Q27.4968 964.011 29.0564 961.21 Q30.5842 958.377 33.7671 956.531 M46.212 976.488 Q52.6732 976.488 56.3653 973.846 Q60.0256 971.172 60.0256 966.525 Q60.0256 961.878 56.3653 959.205 Q52.6732 956.531 46.212 956.531 Q39.7508 956.531 36.0905 959.205 Q32.3984 961.878 32.3984 966.525 Q32.3984 971.172 36.0905 973.846 Q39.7508 976.488 46.212 976.488 Z" fill="#000000" fill-rule="evenodd" fill-opacity="1" /><path clip-path="url(#clip150)" d="M 0 0 M44.7161 908.12 L47.5806 908.12 L47.5806 935.047 Q53.6281 934.665 56.8109 931.418 Q59.9619 928.14 59.9619 922.315 Q59.9619 918.942 59.1344 915.79 Q58.3069 912.608 56.6518 909.488 L62.1899 909.488 Q63.5267 912.639 64.227 915.95 Q64.9272 919.26 64.9272 922.665 Q64.9272 931.196 59.9619 936.193 Q54.9967 941.158 46.5303 941.158 Q37.7774 941.158 32.6531 936.447 Q27.4968 931.705 27.4968 923.684 Q27.4968 916.491 32.1438 912.321 Q36.7589 908.12 44.7161 908.12 M42.9973 913.976 Q38.1912 914.04 35.3266 916.682 Q32.4621 919.292 32.4621 923.62 Q32.4621 928.522 35.2312 931.482 Q38.0002 934.41 43.0292 934.856 L42.9973 913.976 Z" fill="#000000" fill-rule="evenodd" fill-opacity="1" /><path clip-path="url(#clip150)" d="M 0 0 M33.8307 877.851 Q33.2578 878.838 33.0032 880.015 Q32.7167 881.161 32.7167 882.562 Q32.7167 887.527 35.9632 890.2 Q39.1779 892.842 45.2253 892.842 L64.0042 892.842 L64.0042 898.73 L28.3562 898.73 L28.3562 892.842 L33.8944 892.842 Q30.6479 890.996 29.0883 888.036 Q27.4968 885.076 27.4968 880.843 Q27.4968 880.238 27.5923 879.506 Q27.656 878.774 27.8151 877.883 L33.8307 877.851 Z" fill="#000000" fill-rule="evenodd" fill-opacity="1" /><path clip-path="url(#clip150)" d="M 0 0 M21.7677 844.304 L39.6235 844.304 L39.6235 836.219 Q39.6235 831.731 37.3 829.281 Q34.9765 826.83 30.6797 826.83 Q26.4147 826.83 24.0912 829.281 Q21.7677 831.731 21.7677 836.219 L21.7677 844.304 M16.4842 850.733 L16.4842 836.219 Q16.4842 828.23 20.1126 824.156 Q23.7092 820.05 30.6797 820.05 Q37.7138 820.05 41.3104 824.156 Q44.907 828.23 44.907 836.219 L44.907 844.304 L64.0042 844.304 L64.0042 850.733 L16.4842 850.733 Z" fill="#000000" fill-rule="evenodd" fill-opacity="1" /><path clip-path="url(#clip150)" d="M 0 0 M46.0847 798.407 Q46.0847 805.505 47.7079 808.242 Q49.3312 810.979 53.2461 810.979 Q56.3653 810.979 58.2114 808.942 Q60.0256 806.873 60.0256 803.34 Q60.0256 798.471 56.5881 795.542 Q53.1188 792.582 47.3897 792.582 L46.0847 792.582 L46.0847 798.407 M43.6657 786.726 L64.0042 786.726 L64.0042 792.582 L58.5933 792.582 Q61.8398 794.587 63.3994 797.579 Q64.9272 800.571 64.9272 804.9 Q64.9272 810.374 61.8716 813.621 Q58.7843 816.836 53.6281 816.836 Q47.6125 816.836 44.5569 812.825 Q41.5014 808.783 41.5014 800.794 L41.5014 792.582 L40.9285 792.582 Q36.8862 792.582 34.6901 795.256 Q32.4621 797.898 32.4621 802.704 Q32.4621 805.759 33.1941 808.656 Q33.9262 811.552 35.3903 814.226 L29.9795 814.226 Q28.7381 811.011 28.1334 807.987 Q27.4968 804.964 27.4968 802.099 Q27.4968 794.365 31.5072 790.545 Q35.5176 786.726 43.6657 786.726 Z" fill="#000000" fill-rule="evenodd" fill-opacity="1" /><path clip-path="url(#clip150)" d="M 0 0 M33.8307 754.006 Q33.2578 754.993 33.0032 756.17 Q32.7167 757.316 32.7167 758.717 Q32.7167 763.682 35.9632 766.356 Q39.1779 768.997 45.2253 768.997 L64.0042 768.997 L64.0042 774.886 L28.3562 774.886 L28.3562 768.997 L33.8944 768.997 Q30.6479 767.151 29.0883 764.191 Q27.4968 761.231 27.4968 756.998 Q27.4968 756.393 27.5923 755.661 Q27.656 754.929 27.8151 754.038 L33.8307 754.006 Z" fill="#000000" fill-rule="evenodd" fill-opacity="1" /><path clip-path="url(#clip150)" d="M 0 0 M46.0847 731.662 Q46.0847 738.76 47.7079 741.497 Q49.3312 744.235 53.2461 744.235 Q56.3653 744.235 58.2114 742.198 Q60.0256 740.129 60.0256 736.596 Q60.0256 731.726 56.5881 728.798 Q53.1188 725.838 47.3897 725.838 L46.0847 725.838 L46.0847 731.662 M43.6657 719.981 L64.0042 719.981 L64.0042 725.838 L58.5933 725.838 Q61.8398 727.843 63.3994 730.835 Q64.9272 733.827 64.9272 738.155 Q64.9272 743.63 61.8716 746.876 Q58.7843 750.091 53.6281 750.091 Q47.6125 750.091 44.5569 746.081 Q41.5014 742.039 41.5014 734.05 L41.5014 725.838 L40.9285 725.838 Q36.8862 725.838 34.6901 728.511 Q32.4621 731.153 32.4621 735.959 Q32.4621 739.015 33.1941 741.911 Q33.9262 744.808 35.3903 747.481 L29.9795 747.481 Q28.7381 744.267 28.1334 741.243 Q27.4968 738.219 27.4968 735.355 Q27.4968 727.62 31.5072 723.801 Q35.5176 719.981 43.6657 719.981 Z" fill="#000000" fill-rule="evenodd" fill-opacity="1" /><path clip-path="url(#clip150)" d="M 0 0 M35.1993 680.164 Q31.2526 677.968 29.3747 674.912 Q27.4968 671.857 27.4968 667.719 Q27.4968 662.149 31.4117 659.125 Q35.2948 656.101 42.4881 656.101 L64.0042 656.101 L64.0042 661.99 L42.679 661.99 Q37.5546 661.99 35.072 663.804 Q32.5894 665.618 32.5894 669.342 Q32.5894 673.894 35.6131 676.535 Q38.6368 679.177 43.8567 679.177 L64.0042 679.177 L64.0042 685.065 L42.679 685.065 Q37.5228 685.065 35.072 686.88 Q32.5894 688.694 32.5894 692.482 Q32.5894 696.969 35.6449 699.611 Q38.6686 702.253 43.8567 702.253 L64.0042 702.253 L64.0042 708.141 L28.3562 708.141 L28.3562 702.253 L33.8944 702.253 Q30.616 700.248 29.0564 697.447 Q27.4968 694.646 27.4968 690.795 Q27.4968 686.912 29.4702 684.206 Q31.4436 681.469 35.1993 680.164 Z" fill="#000000" fill-rule="evenodd" fill-opacity="1" /><path clip-path="url(#clip150)" d="M 0 0 M44.7161 613.929 L47.5806 613.929 L47.5806 640.856 Q53.6281 640.474 56.8109 637.227 Q59.9619 633.949 59.9619 628.124 Q59.9619 624.75 59.1344 621.599 Q58.3069 618.417 56.6518 615.297 L62.1899 615.297 Q63.5267 618.448 64.227 621.759 Q64.9272 625.069 64.9272 628.474 Q64.9272 637.004 59.9619 642.001 Q54.9967 646.967 46.5303 646.967 Q37.7774 646.967 32.6531 642.256 Q27.4968 637.514 27.4968 629.493 Q27.4968 622.3 32.1438 618.13 Q36.7589 613.929 44.7161 613.929 M42.9973 619.785 Q38.1912 619.849 35.3266 622.491 Q32.4621 625.101 32.4621 629.429 Q32.4621 634.331 35.2312 637.291 Q38.0002 640.219 43.0292 640.665 L42.9973 619.785 Z" fill="#000000" fill-rule="evenodd" fill-opacity="1" /><path clip-path="url(#clip150)" d="M 0 0 M18.2347 598.524 L28.3562 598.524 L28.3562 586.461 L32.9077 586.461 L32.9077 598.524 L52.2594 598.524 Q56.6199 598.524 57.8613 597.346 Q59.1026 596.137 59.1026 592.476 L59.1026 586.461 L64.0042 586.461 L64.0042 592.476 Q64.0042 599.256 61.4897 601.834 Q58.9434 604.412 52.2594 604.412 L32.9077 604.412 L32.9077 608.709 L28.3562 608.709 L28.3562 604.412 L18.2347 604.412 L18.2347 598.524 Z" fill="#000000" fill-rule="evenodd" fill-opacity="1" /><path clip-path="url(#clip150)" d="M 0 0 M44.7161 548.266 L47.5806 548.266 L47.5806 575.193 Q53.6281 574.811 56.8109 571.565 Q59.9619 568.287 59.9619 562.462 Q59.9619 559.088 59.1344 555.937 Q58.3069 552.754 56.6518 549.635 L62.1899 549.635 Q63.5267 552.786 64.227 556.096 Q64.9272 559.406 64.9272 562.812 Q64.9272 571.342 59.9619 576.339 Q54.9967 581.304 46.5303 581.304 Q37.7774 581.304 32.6531 576.594 Q27.4968 571.851 27.4968 563.831 Q27.4968 556.637 32.1438 552.468 Q36.7589 548.266 44.7161 548.266 M42.9973 554.123 Q38.1912 554.187 35.3266 556.828 Q32.4621 559.438 32.4621 563.767 Q32.4621 568.669 35.2312 571.629 Q38.0002 574.557 43.0292 575.002 L42.9973 554.123 Z" fill="#000000" fill-rule="evenodd" fill-opacity="1" /><path clip-path="url(#clip150)" d="M 0 0 M33.8307 517.997 Q33.2578 518.984 33.0032 520.162 Q32.7167 521.308 32.7167 522.708 Q32.7167 527.673 35.9632 530.347 Q39.1779 532.989 45.2253 532.989 L64.0042 532.989 L64.0042 538.877 L28.3562 538.877 L28.3562 532.989 L33.8944 532.989 Q30.6479 531.143 29.0883 528.183 Q27.4968 525.223 27.4968 520.989 Q27.4968 520.385 27.5923 519.653 Q27.656 518.921 27.8151 518.029 L33.8307 517.997 Z" fill="#000000" fill-rule="evenodd" fill-opacity="1" /><path clip-path="url(#clip150)" d="M 0 0 M29.4065 489.129 L34.9447 489.129 Q33.6716 491.612 33.035 494.285 Q32.3984 496.959 32.3984 499.823 Q32.3984 504.184 33.7352 506.38 Q35.072 508.544 37.7456 508.544 Q39.7826 508.544 40.9603 506.985 Q42.1061 505.425 43.1565 500.715 L43.6021 498.709 Q44.9389 492.471 47.3897 489.861 Q49.8086 487.219 54.1691 487.219 Q59.1344 487.219 62.0308 491.166 Q64.9272 495.081 64.9272 501.956 Q64.9272 504.82 64.3543 507.94 Q63.8132 511.027 62.6992 514.465 L56.6518 514.465 Q58.3387 511.218 59.198 508.067 Q60.0256 504.916 60.0256 501.829 Q60.0256 497.691 58.6251 495.463 Q57.1929 493.235 54.6147 493.235 Q52.2276 493.235 50.9545 494.858 Q49.6813 496.45 48.5037 501.892 L48.0262 503.929 Q46.8804 509.372 44.5251 511.791 Q42.138 514.21 38.0002 514.21 Q32.9713 514.21 30.2341 510.645 Q27.4968 507.08 27.4968 500.524 Q27.4968 497.277 27.9743 494.413 Q28.4517 491.548 29.4065 489.129 Z" fill="#000000" fill-rule="evenodd" fill-opacity="1" /><path clip-path="url(#clip150)" d="M 0 0 M1193.59 35.9153 Q1196.38 30.8922 1200.27 28.5022 Q1204.16 26.1121 1209.42 26.1121 Q1216.51 26.1121 1220.36 31.0947 Q1224.21 36.0368 1224.21 45.1919 L1224.21 72.576 L1216.72 72.576 L1216.72 45.4349 Q1216.72 38.913 1214.41 35.7533 Q1212.1 32.5936 1207.36 32.5936 Q1201.57 32.5936 1198.2 36.4419 Q1194.84 40.2903 1194.84 46.9338 L1194.84 72.576 L1187.35 72.576 L1187.35 45.4349 Q1187.35 38.8725 1185.04 35.7533 Q1182.73 32.5936 1177.91 32.5936 Q1172.2 32.5936 1168.83 36.4824 Q1165.47 40.3308 1165.47 46.9338 L1165.47 72.576 L1157.98 72.576 L1157.98 27.2059 L1165.47 27.2059 L1165.47 34.2544 Q1168.02 30.082 1171.59 28.0971 Q1175.15 26.1121 1180.06 26.1121 Q1185 26.1121 1188.44 28.6237 Q1191.93 31.1352 1193.59 35.9153 Z" fill="#000000" fill-rule="evenodd" fill-opacity="1" /><path clip-path="url(#clip150)" d="M 0 0 M1259.7 49.7694 Q1250.66 49.7694 1247.18 51.8354 Q1243.7 53.9013 1243.7 58.8839 Q1243.7 62.8538 1246.29 65.2034 Q1248.92 67.5124 1253.42 67.5124 Q1259.62 67.5124 1263.34 63.1374 Q1267.11 58.7219 1267.11 51.4303 L1267.11 49.7694 L1259.7 49.7694 M1274.56 46.6907 L1274.56 72.576 L1267.11 72.576 L1267.11 65.6895 Q1264.56 69.8214 1260.75 71.8063 Q1256.94 73.7508 1251.43 73.7508 Q1244.47 73.7508 1240.33 69.8619 Q1236.24 65.9325 1236.24 59.3701 Q1236.24 51.7138 1241.35 47.825 Q1246.49 43.9361 1256.66 43.9361 L1267.11 43.9361 L1267.11 43.2069 Q1267.11 38.0623 1263.71 35.2672 Q1260.34 32.4315 1254.23 32.4315 Q1250.34 32.4315 1246.65 33.3632 Q1242.97 34.295 1239.56 36.1584 L1239.56 29.2718 Q1243.66 27.692 1247.5 26.9223 Q1251.35 26.1121 1255 26.1121 Q1264.84 26.1121 1269.7 31.2163 Q1274.56 36.3204 1274.56 46.6907 Z" fill="#000000" fill-rule="evenodd" fill-opacity="1" /><path clip-path="url(#clip150)" d="M 0 0 M1319.77 49.3643 Q1319.77 41.2625 1316.41 36.8065 Q1313.09 32.3505 1307.05 32.3505 Q1301.06 32.3505 1297.69 36.8065 Q1294.37 41.2625 1294.37 49.3643 Q1294.37 57.4256 1297.69 61.8816 Q1301.06 66.3376 1307.05 66.3376 Q1313.09 66.3376 1316.41 61.8816 Q1319.77 57.4256 1319.77 49.3643 M1327.23 66.9452 Q1327.23 78.5308 1322.08 84.1616 Q1316.94 89.8329 1306.32 89.8329 Q1302.39 89.8329 1298.91 89.2252 Q1295.43 88.6581 1292.14 87.4428 L1292.14 80.1917 Q1295.43 81.9741 1298.63 82.8248 Q1301.83 83.6755 1305.15 83.6755 Q1312.48 83.6755 1316.13 79.8271 Q1319.77 76.0193 1319.77 68.282 L1319.77 64.5957 Q1317.46 68.6061 1313.86 70.5911 Q1310.25 72.576 1305.23 72.576 Q1296.88 72.576 1291.78 66.2161 Q1286.68 59.8562 1286.68 49.3643 Q1286.68 38.832 1291.78 32.472 Q1296.88 26.1121 1305.23 26.1121 Q1310.25 26.1121 1313.86 28.0971 Q1317.46 30.082 1319.77 34.0924 L1319.77 27.2059 L1327.23 27.2059 L1327.23 66.9452 Z" fill="#000000" fill-rule="evenodd" fill-opacity="1" /><path clip-path="url(#clip150)" d="M 0 0 M1338.81 46.5287 L1360.65 46.5287 L1360.65 53.1722 L1338.81 53.1722 L1338.81 46.5287 Z" fill="#000000" fill-rule="evenodd" fill-opacity="1" /><path clip-path="url(#clip150)" d="M 0 0 M1395.64 9.54393 L1395.64 26.2742 Q1403.71 26.2742 1409.09 32.472 Q1414.64 38.7915 1414.64 49.9314 Q1414.64 61.0714 1409.09 67.3908 Q1403.71 73.5887 1395.64 73.5887 L1395.64 89.8329 L1388.23 89.8329 L1388.23 73.5887 Q1380.17 73.5887 1374.74 67.3908 Q1369.23 61.0714 1369.23 49.9314 Q1369.23 38.7915 1374.74 32.472 Q1380.17 26.2742 1388.23 26.2742 L1388.23 9.54393 L1395.64 9.54393 M1395.64 66.9452 Q1400.22 66.9452 1403.34 62.7728 Q1406.74 58.1143 1406.78 49.9314 Q1406.83 41.8296 1403.34 37.0901 Q1400.22 32.9176 1395.64 32.9176 L1395.64 66.9452 M1388.23 66.9452 L1388.23 32.9176 Q1383.65 32.9176 1380.58 37.0901 Q1377.05 41.8296 1377.09 49.9314 Q1377.13 58.1143 1380.58 62.7728 Q1383.65 66.9452 1388.23 66.9452 Z" fill="#000000" fill-rule="evenodd" fill-opacity="1" /><polyline clip-path="url(#clip152)" style="stroke:#009af9; stroke-width:8; stroke-opacity:1; fill:none" points="
  280.231,840.676 380.839,628.99 481.447,631.354 582.055,615.059 682.663,597.491 783.271,581.28 883.879,566.927 984.487,554.397 1085.1,543.627 1185.7,534.847 
  1286.31,529.001 1386.92,529.218 1487.53,214.167 1588.14,184.322 1688.74,166.561 1789.35,160.256 1889.96,168.035 1990.57,196.963 2091.18,262.221 2191.78,398.926 
  2292.39,680.681 
  "/>
<circle clip-path="url(#clip152)" cx="280.231" cy="840.676" r="14" fill="#009af9" fill-rule="evenodd" fill-opacity="1" stroke="#000000" stroke-opacity="1" stroke-width="3.2"/>
<circle clip-path="url(#clip152)" cx="380.839" cy="628.99" r="14" fill="#009af9" fill-rule="evenodd" fill-opacity="1" stroke="#000000" stroke-opacity="1" stroke-width="3.2"/>
<circle clip-path="url(#clip152)" cx="481.447" cy="631.354" r="14" fill="#009af9" fill-rule="evenodd" fill-opacity="1" stroke="#000000" stroke-opacity="1" stroke-width="3.2"/>
<circle clip-path="url(#clip152)" cx="582.055" cy="615.059" r="14" fill="#009af9" fill-rule="evenodd" fill-opacity="1" stroke="#000000" stroke-opacity="1" stroke-width="3.2"/>
<circle clip-path="url(#clip152)" cx="682.663" cy="597.491" r="14" fill="#009af9" fill-rule="evenodd" fill-opacity="1" stroke="#000000" stroke-opacity="1" stroke-width="3.2"/>
<circle clip-path="url(#clip152)" cx="783.271" cy="581.28" r="14" fill="#009af9" fill-rule="evenodd" fill-opacity="1" stroke="#000000" stroke-opacity="1" stroke-width="3.2"/>
<circle clip-path="url(#clip152)" cx="883.879" cy="566.927" r="14" fill="#009af9" fill-rule="evenodd" fill-opacity="1" stroke="#000000" stroke-opacity="1" stroke-width="3.2"/>
<circle clip-path="url(#clip152)" cx="984.487" cy="554.397" r="14" fill="#009af9" fill-rule="evenodd" fill-opacity="1" stroke="#000000" stroke-opacity="1" stroke-width="3.2"/>
<circle clip-path="url(#clip152)" cx="1085.1" cy="543.627" r="14" fill="#009af9" fill-rule="evenodd" fill-opacity="1" stroke="#000000" stroke-opacity="1" stroke-width="3.2"/>
<circle clip-path="url(#clip152)" cx="1185.7" cy="534.847" r="14" fill="#009af9" fill-rule="evenodd" fill-opacity="1" stroke="#000000" stroke-opacity="1" stroke-width="3.2"/>
<circle clip-path="url(#clip152)" cx="1286.31" cy="529.001" r="14" fill="#009af9" fill-rule="evenodd" fill-opacity="1" stroke="#000000" stroke-opacity="1" stroke-width="3.2"/>
<circle clip-path="url(#clip152)" cx="1386.92" cy="529.218" r="14" fill="#009af9" fill-rule="evenodd" fill-opacity="1" stroke="#000000" stroke-opacity="1" stroke-width="3.2"/>
<circle clip-path="url(#clip152)" cx="1487.53" cy="214.167" r="14" fill="#009af9" fill-rule="evenodd" fill-opacity="1" stroke="#000000" stroke-opacity="1" stroke-width="3.2"/>
<circle clip-path="url(#clip152)" cx="1588.14" cy="184.322" r="14" fill="#009af9" fill-rule="evenodd" fill-opacity="1" stroke="#000000" stroke-opacity="1" stroke-width="3.2"/>
<circle clip-path="url(#clip152)" cx="1688.74" cy="166.561" r="14" fill="#009af9" fill-rule="evenodd" fill-opacity="1" stroke="#000000" stroke-opacity="1" stroke-width="3.2"/>
<circle clip-path="url(#clip152)" cx="1789.35" cy="160.256" r="14" fill="#009af9" fill-rule="evenodd" fill-opacity="1" stroke="#000000" stroke-opacity="1" stroke-width="3.2"/>
<circle clip-path="url(#clip152)" cx="1889.96" cy="168.035" r="14" fill="#009af9" fill-rule="evenodd" fill-opacity="1" stroke="#000000" stroke-opacity="1" stroke-width="3.2"/>
<circle clip-path="url(#clip152)" cx="1990.57" cy="196.963" r="14" fill="#009af9" fill-rule="evenodd" fill-opacity="1" stroke="#000000" stroke-opacity="1" stroke-width="3.2"/>
<circle clip-path="url(#clip152)" cx="2091.18" cy="262.221" r="14" fill="#009af9" fill-rule="evenodd" fill-opacity="1" stroke="#000000" stroke-opacity="1" stroke-width="3.2"/>
<circle clip-path="url(#clip152)" cx="2191.78" cy="398.926" r="14" fill="#009af9" fill-rule="evenodd" fill-opacity="1" stroke="#000000" stroke-opacity="1" stroke-width="3.2"/>
<circle clip-path="url(#clip152)" cx="2292.39" cy="680.681" r="14" fill="#009af9" fill-rule="evenodd" fill-opacity="1" stroke="#000000" stroke-opacity="1" stroke-width="3.2"/>
<polyline clip-path="url(#clip152)" style="stroke:#e26f46; stroke-width:8; stroke-opacity:1; fill:none" points="
  280.231,840.679 380.839,1006.69 481.447,1320.22 582.055,1386.38 682.663,1386.38 783.271,1386.39 883.879,1386.39 984.487,1386.39 1085.1,1386.39 1185.7,1386.4 
  1286.31,1386.39 1386.92,1386.39 1487.53,1386.39 1588.14,1386.22 1688.74,1386.4 1789.35,1386.39 1889.96,1386.39 1990.57,1386.4 2091.18,1385.9 2191.78,1386.39 
  2292.39,1386.39 
  "/>
<polyline clip-path="url(#clip152)" style="stroke:#3da44d; stroke-width:8; stroke-opacity:1; fill:none" points="
  280.231,1385.86 380.839,1382.99 481.447,1386.23 582.055,1386.39 682.663,1386.39 783.271,1386.4 883.879,1386.4 984.487,1386.39 1085.1,1386.39 1185.7,1386.4 
  1286.31,1386.39 1386.92,1386.39 1487.53,1386.39 1588.14,1386.13 1688.74,1386.39 1789.35,1386.39 1889.96,1386.39 1990.57,1386.39 2091.18,1386.29 2191.78,1386.35 
  2292.39,1386.36 
  "/>
<polyline clip-path="url(#clip152)" style="stroke:#c271d2; stroke-width:8; stroke-opacity:1; fill:none" points="
  280.231,1384.16 380.839,731.053 481.447,634.25 582.055,615.059 682.663,597.491 783.271,581.28 883.879,566.927 984.487,554.397 1085.1,543.627 1185.7,534.847 
  1286.31,529.001 1386.92,529.218 1487.53,1386.31 1588.14,1386.32 1688.74,1386.39 1789.35,1386.39 1889.96,1386.39 1990.57,1386.4 2091.18,1386.15 2191.78,1386.39 
  2292.39,1386.39 
  "/>
<line clip-path="url(#clip152)" x1="280.231" y1="1384.16" x2="280.231" y2="1368.16" style="stroke:#c271d2; stroke-width:3.2; stroke-opacity:1"/>
<line clip-path="url(#clip152)" x1="280.231" y1="1384.16" x2="264.231" y2="1384.16" style="stroke:#c271d2; stroke-width:3.2; stroke-opacity:1"/>
<line clip-path="url(#clip152)" x1="280.231" y1="1384.16" x2="280.231" y2="1400.16" style="stroke:#c271d2; stroke-width:3.2; stroke-opacity:1"/>
<line clip-path="url(#clip152)" x1="280.231" y1="1384.16" x2="296.231" y2="1384.16" style="stroke:#c271d2; stroke-width:3.2; stroke-opacity:1"/>
<line clip-path="url(#clip152)" x1="380.839" y1="731.053" x2="380.839" y2="715.053" style="stroke:#c271d2; stroke-width:3.2; stroke-opacity:1"/>
<line clip-path="url(#clip152)" x1="380.839" y1="731.053" x2="364.839" y2="731.053" style="stroke:#c271d2; stroke-width:3.2; stroke-opacity:1"/>
<line clip-path="url(#clip152)" x1="380.839" y1="731.053" x2="380.839" y2="747.053" style="stroke:#c271d2; stroke-width:3.2; stroke-opacity:1"/>
<line clip-path="url(#clip152)" x1="380.839" y1="731.053" x2="396.839" y2="731.053" style="stroke:#c271d2; stroke-width:3.2; stroke-opacity:1"/>
<line clip-path="url(#clip152)" x1="481.447" y1="634.25" x2="481.447" y2="618.25" style="stroke:#c271d2; stroke-width:3.2; stroke-opacity:1"/>
<line clip-path="url(#clip152)" x1="481.447" y1="634.25" x2="465.447" y2="634.25" style="stroke:#c271d2; stroke-width:3.2; stroke-opacity:1"/>
<line clip-path="url(#clip152)" x1="481.447" y1="634.25" x2="481.447" y2="650.25" style="stroke:#c271d2; stroke-width:3.2; stroke-opacity:1"/>
<line clip-path="url(#clip152)" x1="481.447" y1="634.25" x2="497.447" y2="634.25" style="stroke:#c271d2; stroke-width:3.2; stroke-opacity:1"/>
<line clip-path="url(#clip152)" x1="582.055" y1="615.059" x2="582.055" y2="599.059" style="stroke:#c271d2; stroke-width:3.2; stroke-opacity:1"/>
<line clip-path="url(#clip152)" x1="582.055" y1="615.059" x2="566.055" y2="615.059" style="stroke:#c271d2; stroke-width:3.2; stroke-opacity:1"/>
<line clip-path="url(#clip152)" x1="582.055" y1="615.059" x2="582.055" y2="631.059" style="stroke:#c271d2; stroke-width:3.2; stroke-opacity:1"/>
<line clip-path="url(#clip152)" x1="582.055" y1="615.059" x2="598.055" y2="615.059" style="stroke:#c271d2; stroke-width:3.2; stroke-opacity:1"/>
<line clip-path="url(#clip152)" x1="682.663" y1="597.491" x2="682.663" y2="581.491" style="stroke:#c271d2; stroke-width:3.2; stroke-opacity:1"/>
<line clip-path="url(#clip152)" x1="682.663" y1="597.491" x2="666.663" y2="597.491" style="stroke:#c271d2; stroke-width:3.2; stroke-opacity:1"/>
<line clip-path="url(#clip152)" x1="682.663" y1="597.491" x2="682.663" y2="613.491" style="stroke:#c271d2; stroke-width:3.2; stroke-opacity:1"/>
<line clip-path="url(#clip152)" x1="682.663" y1="597.491" x2="698.663" y2="597.491" style="stroke:#c271d2; stroke-width:3.2; stroke-opacity:1"/>
<line clip-path="url(#clip152)" x1="783.271" y1="581.28" x2="783.271" y2="565.28" style="stroke:#c271d2; stroke-width:3.2; stroke-opacity:1"/>
<line clip-path="url(#clip152)" x1="783.271" y1="581.28" x2="767.271" y2="581.28" style="stroke:#c271d2; stroke-width:3.2; stroke-opacity:1"/>
<line clip-path="url(#clip152)" x1="783.271" y1="581.28" x2="783.271" y2="597.28" style="stroke:#c271d2; stroke-width:3.2; stroke-opacity:1"/>
<line clip-path="url(#clip152)" x1="783.271" y1="581.28" x2="799.271" y2="581.28" style="stroke:#c271d2; stroke-width:3.2; stroke-opacity:1"/>
<line clip-path="url(#clip152)" x1="883.879" y1="566.927" x2="883.879" y2="550.927" style="stroke:#c271d2; stroke-width:3.2; stroke-opacity:1"/>
<line clip-path="url(#clip152)" x1="883.879" y1="566.927" x2="867.879" y2="566.927" style="stroke:#c271d2; stroke-width:3.2; stroke-opacity:1"/>
<line clip-path="url(#clip152)" x1="883.879" y1="566.927" x2="883.879" y2="582.927" style="stroke:#c271d2; stroke-width:3.2; stroke-opacity:1"/>
<line clip-path="url(#clip152)" x1="883.879" y1="566.927" x2="899.879" y2="566.927" style="stroke:#c271d2; stroke-width:3.2; stroke-opacity:1"/>
<line clip-path="url(#clip152)" x1="984.487" y1="554.397" x2="984.487" y2="538.397" style="stroke:#c271d2; stroke-width:3.2; stroke-opacity:1"/>
<line clip-path="url(#clip152)" x1="984.487" y1="554.397" x2="968.487" y2="554.397" style="stroke:#c271d2; stroke-width:3.2; stroke-opacity:1"/>
<line clip-path="url(#clip152)" x1="984.487" y1="554.397" x2="984.487" y2="570.397" style="stroke:#c271d2; stroke-width:3.2; stroke-opacity:1"/>
<line clip-path="url(#clip152)" x1="984.487" y1="554.397" x2="1000.49" y2="554.397" style="stroke:#c271d2; stroke-width:3.2; stroke-opacity:1"/>
<line clip-path="url(#clip152)" x1="1085.1" y1="543.627" x2="1085.1" y2="527.627" style="stroke:#c271d2; stroke-width:3.2; stroke-opacity:1"/>
<line clip-path="url(#clip152)" x1="1085.1" y1="543.627" x2="1069.1" y2="543.627" style="stroke:#c271d2; stroke-width:3.2; stroke-opacity:1"/>
<line clip-path="url(#clip152)" x1="1085.1" y1="543.627" x2="1085.1" y2="559.627" style="stroke:#c271d2; stroke-width:3.2; stroke-opacity:1"/>
<line clip-path="url(#clip152)" x1="1085.1" y1="543.627" x2="1101.1" y2="543.627" style="stroke:#c271d2; stroke-width:3.2; stroke-opacity:1"/>
<line clip-path="url(#clip152)" x1="1185.7" y1="534.847" x2="1185.7" y2="518.847" style="stroke:#c271d2; stroke-width:3.2; stroke-opacity:1"/>
<line clip-path="url(#clip152)" x1="1185.7" y1="534.847" x2="1169.7" y2="534.847" style="stroke:#c271d2; stroke-width:3.2; stroke-opacity:1"/>
<line clip-path="url(#clip152)" x1="1185.7" y1="534.847" x2="1185.7" y2="550.847" style="stroke:#c271d2; stroke-width:3.2; stroke-opacity:1"/>
<line clip-path="url(#clip152)" x1="1185.7" y1="534.847" x2="1201.7" y2="534.847" style="stroke:#c271d2; stroke-width:3.2; stroke-opacity:1"/>
<line clip-path="url(#clip152)" x1="1286.31" y1="529.001" x2="1286.31" y2="513.001" style="stroke:#c271d2; stroke-width:3.2; stroke-opacity:1"/>
<line clip-path="url(#clip152)" x1="1286.31" y1="529.001" x2="1270.31" y2="529.001" style="stroke:#c271d2; stroke-width:3.2; stroke-opacity:1"/>
<line clip-path="url(#clip152)" x1="1286.31" y1="529.001" x2="1286.31" y2="545.001" style="stroke:#c271d2; stroke-width:3.2; stroke-opacity:1"/>
<line clip-path="url(#clip152)" x1="1286.31" y1="529.001" x2="1302.31" y2="529.001" style="stroke:#c271d2; stroke-width:3.2; stroke-opacity:1"/>
<line clip-path="url(#clip152)" x1="1386.92" y1="529.218" x2="1386.92" y2="513.218" style="stroke:#c271d2; stroke-width:3.2; stroke-opacity:1"/>
<line clip-path="url(#clip152)" x1="1386.92" y1="529.218" x2="1370.92" y2="529.218" style="stroke:#c271d2; stroke-width:3.2; stroke-opacity:1"/>
<line clip-path="url(#clip152)" x1="1386.92" y1="529.218" x2="1386.92" y2="545.218" style="stroke:#c271d2; stroke-width:3.2; stroke-opacity:1"/>
<line clip-path="url(#clip152)" x1="1386.92" y1="529.218" x2="1402.92" y2="529.218" style="stroke:#c271d2; stroke-width:3.2; stroke-opacity:1"/>
<line clip-path="url(#clip152)" x1="1487.53" y1="1386.31" x2="1487.53" y2="1370.31" style="stroke:#c271d2; stroke-width:3.2; stroke-opacity:1"/>
<line clip-path="url(#clip152)" x1="1487.53" y1="1386.31" x2="1471.53" y2="1386.31" style="stroke:#c271d2; stroke-width:3.2; stroke-opacity:1"/>
<line clip-path="url(#clip152)" x1="1487.53" y1="1386.31" x2="1487.53" y2="1402.31" style="stroke:#c271d2; stroke-width:3.2; stroke-opacity:1"/>
<line clip-path="url(#clip152)" x1="1487.53" y1="1386.31" x2="1503.53" y2="1386.31" style="stroke:#c271d2; stroke-width:3.2; stroke-opacity:1"/>
<line clip-path="url(#clip152)" x1="1588.14" y1="1386.32" x2="1588.14" y2="1370.32" style="stroke:#c271d2; stroke-width:3.2; stroke-opacity:1"/>
<line clip-path="url(#clip152)" x1="1588.14" y1="1386.32" x2="1572.14" y2="1386.32" style="stroke:#c271d2; stroke-width:3.2; stroke-opacity:1"/>
<line clip-path="url(#clip152)" x1="1588.14" y1="1386.32" x2="1588.14" y2="1402.32" style="stroke:#c271d2; stroke-width:3.2; stroke-opacity:1"/>
<line clip-path="url(#clip152)" x1="1588.14" y1="1386.32" x2="1604.14" y2="1386.32" style="stroke:#c271d2; stroke-width:3.2; stroke-opacity:1"/>
<line clip-path="url(#clip152)" x1="1688.74" y1="1386.39" x2="1688.74" y2="1370.39" style="stroke:#c271d2; stroke-width:3.2; stroke-opacity:1"/>
<line clip-path="url(#clip152)" x1="1688.74" y1="1386.39" x2="1672.74" y2="1386.39" style="stroke:#c271d2; stroke-width:3.2; stroke-opacity:1"/>
<line clip-path="url(#clip152)" x1="1688.74" y1="1386.39" x2="1688.74" y2="1402.39" style="stroke:#c271d2; stroke-width:3.2; stroke-opacity:1"/>
<line clip-path="url(#clip152)" x1="1688.74" y1="1386.39" x2="1704.74" y2="1386.39" style="stroke:#c271d2; stroke-width:3.2; stroke-opacity:1"/>
<line clip-path="url(#clip152)" x1="1789.35" y1="1386.39" x2="1789.35" y2="1370.39" style="stroke:#c271d2; stroke-width:3.2; stroke-opacity:1"/>
<line clip-path="url(#clip152)" x1="1789.35" y1="1386.39" x2="1773.35" y2="1386.39" style="stroke:#c271d2; stroke-width:3.2; stroke-opacity:1"/>
<line clip-path="url(#clip152)" x1="1789.35" y1="1386.39" x2="1789.35" y2="1402.39" style="stroke:#c271d2; stroke-width:3.2; stroke-opacity:1"/>
<line clip-path="url(#clip152)" x1="1789.35" y1="1386.39" x2="1805.35" y2="1386.39" style="stroke:#c271d2; stroke-width:3.2; stroke-opacity:1"/>
<line clip-path="url(#clip152)" x1="1889.96" y1="1386.39" x2="1889.96" y2="1370.39" style="stroke:#c271d2; stroke-width:3.2; stroke-opacity:1"/>
<line clip-path="url(#clip152)" x1="1889.96" y1="1386.39" x2="1873.96" y2="1386.39" style="stroke:#c271d2; stroke-width:3.2; stroke-opacity:1"/>
<line clip-path="url(#clip152)" x1="1889.96" y1="1386.39" x2="1889.96" y2="1402.39" style="stroke:#c271d2; stroke-width:3.2; stroke-opacity:1"/>
<line clip-path="url(#clip152)" x1="1889.96" y1="1386.39" x2="1905.96" y2="1386.39" style="stroke:#c271d2; stroke-width:3.2; stroke-opacity:1"/>
<line clip-path="url(#clip152)" x1="1990.57" y1="1386.4" x2="1990.57" y2="1370.4" style="stroke:#c271d2; stroke-width:3.2; stroke-opacity:1"/>
<line clip-path="url(#clip152)" x1="1990.57" y1="1386.4" x2="1974.57" y2="1386.4" style="stroke:#c271d2; stroke-width:3.2; stroke-opacity:1"/>
<line clip-path="url(#clip152)" x1="1990.57" y1="1386.4" x2="1990.57" y2="1402.4" style="stroke:#c271d2; stroke-width:3.2; stroke-opacity:1"/>
<line clip-path="url(#clip152)" x1="1990.57" y1="1386.4" x2="2006.57" y2="1386.4" style="stroke:#c271d2; stroke-width:3.2; stroke-opacity:1"/>
<line clip-path="url(#clip152)" x1="2091.18" y1="1386.15" x2="2091.18" y2="1370.15" style="stroke:#c271d2; stroke-width:3.2; stroke-opacity:1"/>
<line clip-path="url(#clip152)" x1="2091.18" y1="1386.15" x2="2075.18" y2="1386.15" style="stroke:#c271d2; stroke-width:3.2; stroke-opacity:1"/>
<line clip-path="url(#clip152)" x1="2091.18" y1="1386.15" x2="2091.18" y2="1402.15" style="stroke:#c271d2; stroke-width:3.2; stroke-opacity:1"/>
<line clip-path="url(#clip152)" x1="2091.18" y1="1386.15" x2="2107.18" y2="1386.15" style="stroke:#c271d2; stroke-width:3.2; stroke-opacity:1"/>
<line clip-path="url(#clip152)" x1="2191.78" y1="1386.39" x2="2191.78" y2="1370.39" style="stroke:#c271d2; stroke-width:3.2; stroke-opacity:1"/>
<line clip-path="url(#clip152)" x1="2191.78" y1="1386.39" x2="2175.78" y2="1386.39" style="stroke:#c271d2; stroke-width:3.2; stroke-opacity:1"/>
<line clip-path="url(#clip152)" x1="2191.78" y1="1386.39" x2="2191.78" y2="1402.39" style="stroke:#c271d2; stroke-width:3.2; stroke-opacity:1"/>
<line clip-path="url(#clip152)" x1="2191.78" y1="1386.39" x2="2207.78" y2="1386.39" style="stroke:#c271d2; stroke-width:3.2; stroke-opacity:1"/>
<line clip-path="url(#clip152)" x1="2292.39" y1="1386.39" x2="2292.39" y2="1370.39" style="stroke:#c271d2; stroke-width:3.2; stroke-opacity:1"/>
<line clip-path="url(#clip152)" x1="2292.39" y1="1386.39" x2="2276.39" y2="1386.39" style="stroke:#c271d2; stroke-width:3.2; stroke-opacity:1"/>
<line clip-path="url(#clip152)" x1="2292.39" y1="1386.39" x2="2292.39" y2="1402.39" style="stroke:#c271d2; stroke-width:3.2; stroke-opacity:1"/>
<line clip-path="url(#clip152)" x1="2292.39" y1="1386.39" x2="2308.39" y2="1386.39" style="stroke:#c271d2; stroke-width:3.2; stroke-opacity:1"/>
<polyline clip-path="url(#clip152)" style="stroke:#ac8d18; stroke-width:8; stroke-opacity:1; fill:none" points="
  280.231,1386.32 380.839,1384.27 481.447,1386.13 582.055,1386.39 682.663,1386.39 783.271,1386.39 883.879,1386.4 984.487,1386.39 1085.1,1386.39 1185.7,1386.4 
  1286.31,1386.39 1386.92,1386.39 1487.53,214.167 1588.14,184.322 1688.74,166.561 1789.35,160.256 1889.96,168.035 1990.57,196.963 2091.18,262.221 2191.78,398.926 
  2292.39,680.681 
  "/>
<path clip-path="url(#clip152)" d="M280.231 1370.32 L264.231 1386.32 L280.231 1402.32 L296.231 1386.32 L280.231 1370.32 Z" fill="#ac8d18" fill-rule="evenodd" fill-opacity="1" stroke="#000000" stroke-opacity="1" stroke-width="3.2"/>
<path clip-path="url(#clip152)" d="M380.839 1368.27 L364.839 1384.27 L380.839 1400.27 L396.839 1384.27 L380.839 1368.27 Z" fill="#ac8d18" fill-rule="evenodd" fill-opacity="1" stroke="#000000" stroke-opacity="1" stroke-width="3.2"/>
<path clip-path="url(#clip152)" d="M481.447 1370.13 L465.447 1386.13 L481.447 1402.13 L497.447 1386.13 L481.447 1370.13 Z" fill="#ac8d18" fill-rule="evenodd" fill-opacity="1" stroke="#000000" stroke-opacity="1" stroke-width="3.2"/>
<path clip-path="url(#clip152)" d="M582.055 1370.39 L566.055 1386.39 L582.055 1402.39 L598.055 1386.39 L582.055 1370.39 Z" fill="#ac8d18" fill-rule="evenodd" fill-opacity="1" stroke="#000000" stroke-opacity="1" stroke-width="3.2"/>
<path clip-path="url(#clip152)" d="M682.663 1370.39 L666.663 1386.39 L682.663 1402.39 L698.663 1386.39 L682.663 1370.39 Z" fill="#ac8d18" fill-rule="evenodd" fill-opacity="1" stroke="#000000" stroke-opacity="1" stroke-width="3.2"/>
<path clip-path="url(#clip152)" d="M783.271 1370.39 L767.271 1386.39 L783.271 1402.39 L799.271 1386.39 L783.271 1370.39 Z" fill="#ac8d18" fill-rule="evenodd" fill-opacity="1" stroke="#000000" stroke-opacity="1" stroke-width="3.2"/>
<path clip-path="url(#clip152)" d="M883.879 1370.4 L867.879 1386.4 L883.879 1402.4 L899.879 1386.4 L883.879 1370.4 Z" fill="#ac8d18" fill-rule="evenodd" fill-opacity="1" stroke="#000000" stroke-opacity="1" stroke-width="3.2"/>
<path clip-path="url(#clip152)" d="M984.487 1370.39 L968.487 1386.39 L984.487 1402.39 L1000.49 1386.39 L984.487 1370.39 Z" fill="#ac8d18" fill-rule="evenodd" fill-opacity="1" stroke="#000000" stroke-opacity="1" stroke-width="3.2"/>
<path clip-path="url(#clip152)" d="M1085.1 1370.39 L1069.1 1386.39 L1085.1 1402.39 L1101.1 1386.39 L1085.1 1370.39 Z" fill="#ac8d18" fill-rule="evenodd" fill-opacity="1" stroke="#000000" stroke-opacity="1" stroke-width="3.2"/>
<path clip-path="url(#clip152)" d="M1185.7 1370.4 L1169.7 1386.4 L1185.7 1402.4 L1201.7 1386.4 L1185.7 1370.4 Z" fill="#ac8d18" fill-rule="evenodd" fill-opacity="1" stroke="#000000" stroke-opacity="1" stroke-width="3.2"/>
<path clip-path="url(#clip152)" d="M1286.31 1370.39 L1270.31 1386.39 L1286.31 1402.39 L1302.31 1386.39 L1286.31 1370.39 Z" fill="#ac8d18" fill-rule="evenodd" fill-opacity="1" stroke="#000000" stroke-opacity="1" stroke-width="3.2"/>
<path clip-path="url(#clip152)" d="M1386.92 1370.39 L1370.92 1386.39 L1386.92 1402.39 L1402.92 1386.39 L1386.92 1370.39 Z" fill="#ac8d18" fill-rule="evenodd" fill-opacity="1" stroke="#000000" stroke-opacity="1" stroke-width="3.2"/>
<path clip-path="url(#clip152)" d="M1487.53 198.167 L1471.53 214.167 L1487.53 230.167 L1503.53 214.167 L1487.53 198.167 Z" fill="#ac8d18" fill-rule="evenodd" fill-opacity="1" stroke="#000000" stroke-opacity="1" stroke-width="3.2"/>
<path clip-path="url(#clip152)" d="M1588.14 168.322 L1572.14 184.322 L1588.14 200.322 L1604.14 184.322 L1588.14 168.322 Z" fill="#ac8d18" fill-rule="evenodd" fill-opacity="1" stroke="#000000" stroke-opacity="1" stroke-width="3.2"/>
<path clip-path="url(#clip152)" d="M1688.74 150.561 L1672.74 166.561 L1688.74 182.561 L1704.74 166.561 L1688.74 150.561 Z" fill="#ac8d18" fill-rule="evenodd" fill-opacity="1" stroke="#000000" stroke-opacity="1" stroke-width="3.2"/>
<path clip-path="url(#clip152)" d="M1789.35 144.256 L1773.35 160.256 L1789.35 176.256 L1805.35 160.256 L1789.35 144.256 Z" fill="#ac8d18" fill-rule="evenodd" fill-opacity="1" stroke="#000000" stroke-opacity="1" stroke-width="3.2"/>
<path clip-path="url(#clip152)" d="M1889.96 152.035 L1873.96 168.035 L1889.96 184.035 L1905.96 168.035 L1889.96 152.035 Z" fill="#ac8d18" fill-rule="evenodd" fill-opacity="1" stroke="#000000" stroke-opacity="1" stroke-width="3.2"/>
<path clip-path="url(#clip152)" d="M1990.57 180.963 L1974.57 196.963 L1990.57 212.963 L2006.57 196.963 L1990.57 180.963 Z" fill="#ac8d18" fill-rule="evenodd" fill-opacity="1" stroke="#000000" stroke-opacity="1" stroke-width="3.2"/>
<path clip-path="url(#clip152)" d="M2091.18 246.221 L2075.18 262.221 L2091.18 278.221 L2107.18 262.221 L2091.18 246.221 Z" fill="#ac8d18" fill-rule="evenodd" fill-opacity="1" stroke="#000000" stroke-opacity="1" stroke-width="3.2"/>
<path clip-path="url(#clip152)" d="M2191.78 382.926 L2175.78 398.926 L2191.78 414.926 L2207.78 398.926 L2191.78 382.926 Z" fill="#ac8d18" fill-rule="evenodd" fill-opacity="1" stroke="#000000" stroke-opacity="1" stroke-width="3.2"/>
<path clip-path="url(#clip152)" d="M2292.39 664.681 L2276.39 680.681 L2292.39 696.681 L2308.39 680.681 L2292.39 664.681 Z" fill="#ac8d18" fill-rule="evenodd" fill-opacity="1" stroke="#000000" stroke-opacity="1" stroke-width="3.2"/>
<path clip-path="url(#clip150)" d="
M1747.68 1379.86 L2281.66 1379.86 L2281.66 1016.98 L1747.68 1016.98  Z
  " fill="#ffffff" fill-rule="evenodd" fill-opacity="1"/>
<polyline clip-path="url(#clip150)" style="stroke:#000000; stroke-width:4; stroke-opacity:1; fill:none" points="
  1747.68,1379.86 2281.66,1379.86 2281.66,1016.98 1747.68,1016.98 1747.68,1379.86 
  "/>
<polyline clip-path="url(#clip150)" style="stroke:#009af9; stroke-width:4; stroke-opacity:1; fill:none" points="
  1771.38,1077.46 1913.57,1077.46 
  "/>
<circle clip-path="url(#clip150)" cx="1842.48" cy="1077.46" r="23" fill="#009af9" fill-rule="evenodd" fill-opacity="1" stroke="#000000" stroke-opacity="1" stroke-width="5.12"/>
<path clip-path="url(#clip150)" d="M 0 0 M1957.62 1073.79 Q1959.22 1070.92 1961.44 1069.55 Q1963.66 1068.19 1966.67 1068.19 Q1970.72 1068.19 1972.92 1071.03 Q1975.12 1073.86 1975.12 1079.09 L1975.12 1094.74 L1970.84 1094.74 L1970.84 1079.23 Q1970.84 1075.5 1969.52 1073.69 Q1968.2 1071.89 1965.49 1071.89 Q1962.18 1071.89 1960.26 1074.09 Q1958.34 1076.29 1958.34 1080.08 L1958.34 1094.74 L1954.06 1094.74 L1954.06 1079.23 Q1954.06 1075.48 1952.74 1073.69 Q1951.42 1071.89 1948.66 1071.89 Q1945.4 1071.89 1943.48 1074.11 Q1941.56 1076.31 1941.56 1080.08 L1941.56 1094.74 L1937.27 1094.74 L1937.27 1068.81 L1941.56 1068.81 L1941.56 1072.84 Q1943.01 1070.45 1945.05 1069.32 Q1947.09 1068.19 1949.89 1068.19 Q1952.71 1068.19 1954.68 1069.62 Q1956.67 1071.06 1957.62 1073.79 Z" fill="#000000" fill-rule="evenodd" fill-opacity="1" /><path clip-path="url(#clip150)" d="M 0 0 M1995.4 1081.7 Q1990.24 1081.7 1988.24 1082.88 Q1986.25 1084.07 1986.25 1086.91 Q1986.25 1089.18 1987.74 1090.52 Q1989.24 1091.84 1991.81 1091.84 Q1995.35 1091.84 1997.48 1089.34 Q1999.63 1086.82 1999.63 1082.65 L1999.63 1081.7 L1995.4 1081.7 M2003.89 1079.94 L2003.89 1094.74 L1999.63 1094.74 L1999.63 1090.8 Q1998.18 1093.16 1996 1094.3 Q1993.82 1095.41 1990.68 1095.41 Q1986.69 1095.41 1984.33 1093.19 Q1981.99 1090.94 1981.99 1087.19 Q1981.99 1082.82 1984.91 1080.59 Q1987.85 1078.37 1993.66 1078.37 L1999.63 1078.37 L1999.63 1077.95 Q1999.63 1075.01 1997.69 1073.42 Q1995.77 1071.8 1992.27 1071.8 Q1990.05 1071.8 1987.94 1072.33 Q1985.84 1072.86 1983.89 1073.93 L1983.89 1069.99 Q1986.23 1069.09 1988.43 1068.65 Q1990.63 1068.19 1992.71 1068.19 Q1998.34 1068.19 2001.12 1071.1 Q2003.89 1074.02 2003.89 1079.94 Z" fill="#000000" fill-rule="evenodd" fill-opacity="1" /><path clip-path="url(#clip150)" d="M 0 0 M2029.73 1081.47 Q2029.73 1076.84 2027.8 1074.3 Q2025.91 1071.75 2022.46 1071.75 Q2019.03 1071.75 2017.11 1074.3 Q2015.21 1076.84 2015.21 1081.47 Q2015.21 1086.08 2017.11 1088.63 Q2019.03 1091.17 2022.46 1091.17 Q2025.91 1091.17 2027.8 1088.63 Q2029.73 1086.08 2029.73 1081.47 M2033.99 1091.52 Q2033.99 1098.14 2031.05 1101.36 Q2028.11 1104.6 2022.04 1104.6 Q2019.8 1104.6 2017.8 1104.25 Q2015.81 1103.93 2013.94 1103.23 L2013.94 1099.09 Q2015.81 1100.11 2017.64 1100.59 Q2019.47 1101.08 2021.37 1101.08 Q2025.56 1101.08 2027.64 1098.88 Q2029.73 1096.7 2029.73 1092.28 L2029.73 1090.18 Q2028.41 1092.47 2026.35 1093.6 Q2024.29 1094.74 2021.42 1094.74 Q2016.65 1094.74 2013.73 1091.1 Q2010.81 1087.47 2010.81 1081.47 Q2010.81 1075.45 2013.73 1071.82 Q2016.65 1068.19 2021.42 1068.19 Q2024.29 1068.19 2026.35 1069.32 Q2028.41 1070.45 2029.73 1072.75 L2029.73 1068.81 L2033.99 1068.81 L2033.99 1091.52 Z" fill="#000000" fill-rule="evenodd" fill-opacity="1" /><path clip-path="url(#clip150)" d="M 0 0 M2062.69 1064.02 L2062.69 1090.89 L2068.34 1090.89 Q2075.49 1090.89 2078.8 1087.65 Q2082.13 1084.41 2082.13 1077.42 Q2082.13 1070.48 2078.8 1067.26 Q2075.49 1064.02 2068.34 1064.02 L2062.69 1064.02 M2058.01 1060.18 L2067.62 1060.18 Q2077.67 1060.18 2082.36 1064.37 Q2087.06 1068.53 2087.06 1077.42 Q2087.06 1086.36 2082.34 1090.55 Q2077.62 1094.74 2067.62 1094.74 L2058.01 1094.74 L2058.01 1060.18 Z" fill="#000000" fill-rule="evenodd" fill-opacity="1" /><path clip-path="url(#clip150)" d="M 0 0 M2109.96 1073.21 L2139.63 1073.21 L2139.63 1077.1 L2109.96 1077.1 L2109.96 1073.21 M2109.96 1082.65 L2139.63 1082.65 L2139.63 1086.59 L2109.96 1086.59 L2109.96 1082.65 Z" fill="#000000" fill-rule="evenodd" fill-opacity="1" /><path clip-path="url(#clip150)" d="M 0 0 M2168.82 1090.8 L2185.14 1090.8 L2185.14 1094.74 L2163.2 1094.74 L2163.2 1090.8 Q2165.86 1088.05 2170.44 1083.42 Q2175.05 1078.76 2176.23 1077.42 Q2178.48 1074.9 2179.35 1073.16 Q2180.26 1071.4 2180.26 1069.71 Q2180.26 1066.96 2178.31 1065.22 Q2176.39 1063.49 2173.29 1063.49 Q2171.09 1063.49 2168.64 1064.25 Q2166.21 1065.01 2163.43 1066.57 L2163.43 1061.84 Q2166.25 1060.71 2168.71 1060.13 Q2171.16 1059.55 2173.2 1059.55 Q2178.57 1059.55 2181.76 1062.24 Q2184.96 1064.92 2184.96 1069.41 Q2184.96 1071.54 2184.15 1073.46 Q2183.36 1075.36 2181.25 1077.95 Q2180.67 1078.63 2177.57 1081.84 Q2174.47 1085.04 2168.82 1090.8 Z" fill="#000000" fill-rule="evenodd" fill-opacity="1" /><polyline clip-path="url(#clip150)" style="stroke:#e26f46; stroke-width:4; stroke-opacity:1; fill:none" points="
  1771.38,1137.94 1913.57,1137.94 
  "/>
<path clip-path="url(#clip150)" d="M 0 0 M1953.78 1119.2 L1953.78 1122.74 L1949.7 1122.74 Q1947.41 1122.74 1946.51 1123.67 Q1945.63 1124.59 1945.63 1127 L1945.63 1129.29 L1952.64 1129.29 L1952.64 1132.6 L1945.63 1132.6 L1945.63 1155.22 L1941.35 1155.22 L1941.35 1132.6 L1937.27 1132.6 L1937.27 1129.29 L1941.35 1129.29 L1941.35 1127.48 Q1941.35 1123.16 1943.36 1121.19 Q1945.37 1119.2 1949.75 1119.2 L1953.78 1119.2 Z" fill="#000000" fill-rule="evenodd" fill-opacity="1" /><path clip-path="url(#clip150)" d="M 0 0 M1979.52 1141.19 L1979.52 1143.27 L1959.93 1143.27 Q1960.21 1147.67 1962.57 1149.98 Q1964.96 1152.28 1969.19 1152.28 Q1971.65 1152.28 1973.94 1151.67 Q1976.25 1151.07 1978.52 1149.87 L1978.52 1153.9 Q1976.23 1154.87 1973.82 1155.38 Q1971.42 1155.89 1968.94 1155.89 Q1962.74 1155.89 1959.1 1152.28 Q1955.49 1148.67 1955.49 1142.51 Q1955.49 1136.14 1958.92 1132.42 Q1962.37 1128.67 1968.2 1128.67 Q1973.43 1128.67 1976.46 1132.05 Q1979.52 1135.4 1979.52 1141.19 M1975.26 1139.94 Q1975.21 1136.44 1973.29 1134.36 Q1971.39 1132.28 1968.24 1132.28 Q1964.68 1132.28 1962.53 1134.29 Q1960.4 1136.3 1960.07 1139.96 L1975.26 1139.94 Z" fill="#000000" fill-rule="evenodd" fill-opacity="1" /><path clip-path="url(#clip150)" d="M 0 0 M2001.53 1133.27 Q2000.81 1132.86 1999.96 1132.67 Q1999.12 1132.46 1998.11 1132.46 Q1994.49 1132.46 1992.55 1134.82 Q1990.63 1137.16 1990.63 1141.56 L1990.63 1155.22 L1986.35 1155.22 L1986.35 1129.29 L1990.63 1129.29 L1990.63 1133.32 Q1991.97 1130.96 1994.12 1129.82 Q1996.28 1128.67 1999.36 1128.67 Q1999.8 1128.67 2000.33 1128.73 Q2000.86 1128.78 2001.51 1128.9 L2001.53 1133.27 Z" fill="#000000" fill-rule="evenodd" fill-opacity="1" /><path clip-path="url(#clip150)" d="M 0 0 M2020.19 1133.27 Q2019.47 1132.86 2018.62 1132.67 Q2017.78 1132.46 2016.76 1132.46 Q2013.15 1132.46 2011.21 1134.82 Q2009.29 1137.16 2009.29 1141.56 L2009.29 1155.22 L2005 1155.22 L2005 1129.29 L2009.29 1129.29 L2009.29 1133.32 Q2010.63 1130.96 2012.78 1129.82 Q2014.93 1128.67 2018.01 1128.67 Q2018.45 1128.67 2018.99 1128.73 Q2019.52 1128.78 2020.17 1128.9 L2020.19 1133.27 Z" fill="#000000" fill-rule="evenodd" fill-opacity="1" /><path clip-path="url(#clip150)" d="M 0 0 M2033.66 1132.28 Q2030.24 1132.28 2028.24 1134.96 Q2026.25 1137.62 2026.25 1142.28 Q2026.25 1146.93 2028.22 1149.61 Q2030.21 1152.28 2033.66 1152.28 Q2037.06 1152.28 2039.05 1149.59 Q2041.05 1146.91 2041.05 1142.28 Q2041.05 1137.67 2039.05 1134.98 Q2037.06 1132.28 2033.66 1132.28 M2033.66 1128.67 Q2039.22 1128.67 2042.39 1132.28 Q2045.56 1135.89 2045.56 1142.28 Q2045.56 1148.64 2042.39 1152.28 Q2039.22 1155.89 2033.66 1155.89 Q2028.08 1155.89 2024.91 1152.28 Q2021.76 1148.64 2021.76 1142.28 Q2021.76 1135.89 2024.91 1132.28 Q2028.08 1128.67 2033.66 1128.67 Z" fill="#000000" fill-rule="evenodd" fill-opacity="1" /><path clip-path="url(#clip150)" d="M 0 0 M2072.55 1124.5 L2072.55 1151.37 L2078.2 1151.37 Q2085.35 1151.37 2088.66 1148.13 Q2091.99 1144.89 2091.99 1137.9 Q2091.99 1130.96 2088.66 1127.74 Q2085.35 1124.5 2078.2 1124.5 L2072.55 1124.5 M2067.87 1120.66 L2077.48 1120.66 Q2087.53 1120.66 2092.23 1124.85 Q2096.92 1129.01 2096.92 1137.9 Q2096.92 1146.84 2092.2 1151.03 Q2087.48 1155.22 2077.48 1155.22 L2067.87 1155.22 L2067.87 1120.66 Z" fill="#000000" fill-rule="evenodd" fill-opacity="1" /><path clip-path="url(#clip150)" d="M 0 0 M2119.82 1133.69 L2149.49 1133.69 L2149.49 1137.58 L2119.82 1137.58 L2119.82 1133.69 M2119.82 1143.13 L2149.49 1143.13 L2149.49 1147.07 L2119.82 1147.07 L2119.82 1143.13 Z" fill="#000000" fill-rule="evenodd" fill-opacity="1" /><path clip-path="url(#clip150)" d="M 0 0 M2178.68 1151.28 L2195 1151.28 L2195 1155.22 L2173.06 1155.22 L2173.06 1151.28 Q2175.72 1148.53 2180.3 1143.9 Q2184.91 1139.24 2186.09 1137.9 Q2188.34 1135.38 2189.22 1133.64 Q2190.12 1131.88 2190.12 1130.19 Q2190.12 1127.44 2188.17 1125.7 Q2186.25 1123.97 2183.15 1123.97 Q2180.95 1123.97 2178.5 1124.73 Q2176.07 1125.49 2173.29 1127.05 L2173.29 1122.32 Q2176.11 1121.19 2178.57 1120.61 Q2181.02 1120.03 2183.06 1120.03 Q2188.43 1120.03 2191.62 1122.72 Q2194.82 1125.4 2194.82 1129.89 Q2194.82 1132.02 2194.01 1133.94 Q2193.22 1135.84 2191.11 1138.43 Q2190.54 1139.11 2187.43 1142.32 Q2184.33 1145.52 2178.68 1151.28 Z" fill="#000000" fill-rule="evenodd" fill-opacity="1" /><polyline clip-path="url(#clip150)" style="stroke:#3da44d; stroke-width:4; stroke-opacity:1; fill:none" points="
  1771.38,1198.42 1913.57,1198.42 
  "/>
<path clip-path="url(#clip150)" d="M 0 0 M1955.7 1190.53 L1955.7 1194.56 Q1953.89 1193.64 1951.95 1193.17 Q1950 1192.71 1947.92 1192.71 Q1944.75 1192.71 1943.15 1193.68 Q1941.58 1194.65 1941.58 1196.6 Q1941.58 1198.08 1942.71 1198.94 Q1943.85 1199.77 1947.27 1200.53 L1948.73 1200.86 Q1953.27 1201.83 1955.17 1203.61 Q1957.09 1205.37 1957.09 1208.54 Q1957.09 1212.15 1954.22 1214.26 Q1951.37 1216.37 1946.37 1216.37 Q1944.29 1216.37 1942.02 1215.95 Q1939.77 1215.56 1937.27 1214.75 L1937.27 1210.35 Q1939.63 1211.58 1941.93 1212.2 Q1944.22 1212.8 1946.46 1212.8 Q1949.47 1212.8 1951.09 1211.78 Q1952.71 1210.74 1952.71 1208.87 Q1952.71 1207.13 1951.53 1206.21 Q1950.37 1205.28 1946.42 1204.42 L1944.93 1204.08 Q1940.98 1203.24 1939.22 1201.53 Q1937.46 1199.79 1937.46 1196.78 Q1937.46 1193.13 1940.05 1191.14 Q1942.64 1189.15 1947.41 1189.15 Q1949.77 1189.15 1951.86 1189.49 Q1953.94 1189.84 1955.7 1190.53 Z" fill="#000000" fill-rule="evenodd" fill-opacity="1" /><path clip-path="url(#clip150)" d="M 0 0 M1968.08 1182.41 L1968.08 1189.77 L1976.86 1189.77 L1976.86 1193.08 L1968.08 1193.08 L1968.08 1207.15 Q1968.08 1210.33 1968.94 1211.23 Q1969.82 1212.13 1972.48 1212.13 L1976.86 1212.13 L1976.86 1215.7 L1972.48 1215.7 Q1967.55 1215.7 1965.68 1213.87 Q1963.8 1212.02 1963.8 1207.15 L1963.8 1193.08 L1960.68 1193.08 L1960.68 1189.77 L1963.8 1189.77 L1963.8 1182.41 L1968.08 1182.41 Z" fill="#000000" fill-rule="evenodd" fill-opacity="1" /><path clip-path="url(#clip150)" d="M 0 0 M1997.48 1193.75 Q1996.76 1193.34 1995.91 1193.15 Q1995.07 1192.94 1994.05 1192.94 Q1990.44 1192.94 1988.5 1195.3 Q1986.58 1197.64 1986.58 1202.04 L1986.58 1215.7 L1982.3 1215.7 L1982.3 1189.77 L1986.58 1189.77 L1986.58 1193.8 Q1987.92 1191.44 1990.07 1190.3 Q1992.23 1189.15 1995.3 1189.15 Q1995.74 1189.15 1996.28 1189.21 Q1996.81 1189.26 1997.46 1189.38 L1997.48 1193.75 Z" fill="#000000" fill-rule="evenodd" fill-opacity="1" /><path clip-path="url(#clip150)" d="M 0 0 M2001.95 1189.77 L2006.21 1189.77 L2006.21 1215.7 L2001.95 1215.7 L2001.95 1189.77 M2001.95 1179.68 L2006.21 1179.68 L2006.21 1185.07 L2001.95 1185.07 L2001.95 1179.68 Z" fill="#000000" fill-rule="evenodd" fill-opacity="1" /><path clip-path="url(#clip150)" d="M 0 0 M2019.24 1211.81 L2019.24 1225.56 L2014.96 1225.56 L2014.96 1189.77 L2019.24 1189.77 L2019.24 1193.71 Q2020.58 1191.39 2022.62 1190.28 Q2024.68 1189.15 2027.53 1189.15 Q2032.25 1189.15 2035.19 1192.9 Q2038.15 1196.65 2038.15 1202.76 Q2038.15 1208.87 2035.19 1212.62 Q2032.25 1216.37 2027.53 1216.37 Q2024.68 1216.37 2022.62 1215.26 Q2020.58 1214.12 2019.24 1211.81 M2033.73 1202.76 Q2033.73 1198.06 2031.79 1195.4 Q2029.86 1192.71 2026.49 1192.71 Q2023.11 1192.71 2021.16 1195.4 Q2019.24 1198.06 2019.24 1202.76 Q2019.24 1207.46 2021.16 1210.14 Q2023.11 1212.8 2026.49 1212.8 Q2029.86 1212.8 2031.79 1210.14 Q2033.73 1207.46 2033.73 1202.76 Z" fill="#000000" fill-rule="evenodd" fill-opacity="1" /><path clip-path="url(#clip150)" d="M 0 0 M2056 1218.1 Q2054.19 1222.73 2052.48 1224.15 Q2050.77 1225.56 2047.9 1225.56 L2044.49 1225.56 L2044.49 1221.99 L2046.99 1221.99 Q2048.75 1221.99 2049.73 1221.16 Q2050.7 1220.33 2051.88 1217.22 L2052.64 1215.28 L2042.16 1189.77 L2046.67 1189.77 L2054.77 1210.05 L2062.87 1189.77 L2067.39 1189.77 L2056 1218.1 Z" fill="#000000" fill-rule="evenodd" fill-opacity="1" /><path clip-path="url(#clip150)" d="M 0 0 M2093.2 1184.98 L2093.2 1211.85 L2098.85 1211.85 Q2106 1211.85 2109.31 1208.61 Q2112.64 1205.37 2112.64 1198.38 Q2112.64 1191.44 2109.31 1188.22 Q2106 1184.98 2098.85 1184.98 L2093.2 1184.98 M2088.52 1181.14 L2098.13 1181.14 Q2108.17 1181.14 2112.87 1185.33 Q2117.57 1189.49 2117.57 1198.38 Q2117.57 1207.32 2112.85 1211.51 Q2108.13 1215.7 2098.13 1215.7 L2088.52 1215.7 L2088.52 1181.14 Z" fill="#000000" fill-rule="evenodd" fill-opacity="1" /><path clip-path="url(#clip150)" d="M 0 0 M2140.47 1194.17 L2170.14 1194.17 L2170.14 1198.06 L2140.47 1198.06 L2140.47 1194.17 M2140.47 1203.61 L2170.14 1203.61 L2170.14 1207.55 L2140.47 1207.55 L2140.47 1203.61 Z" fill="#000000" fill-rule="evenodd" fill-opacity="1" /><path clip-path="url(#clip150)" d="M 0 0 M2199.33 1211.76 L2215.65 1211.76 L2215.65 1215.7 L2193.71 1215.7 L2193.71 1211.76 Q2196.37 1209.01 2200.95 1204.38 Q2205.56 1199.72 2206.74 1198.38 Q2208.98 1195.86 2209.86 1194.12 Q2210.77 1192.36 2210.77 1190.67 Q2210.77 1187.92 2208.82 1186.18 Q2206.9 1184.45 2203.8 1184.45 Q2201.6 1184.45 2199.15 1185.21 Q2196.72 1185.97 2193.94 1187.53 L2193.94 1182.8 Q2196.76 1181.67 2199.22 1181.09 Q2201.67 1180.51 2203.71 1180.51 Q2209.08 1180.51 2212.27 1183.2 Q2215.47 1185.88 2215.47 1190.37 Q2215.47 1192.5 2214.66 1194.42 Q2213.87 1196.32 2211.76 1198.91 Q2211.18 1199.59 2208.08 1202.8 Q2204.98 1206 2199.33 1211.76 Z" fill="#000000" fill-rule="evenodd" fill-opacity="1" /><polyline clip-path="url(#clip150)" style="stroke:#c271d2; stroke-width:4; stroke-opacity:1; fill:none" points="
  1771.38,1258.9 1913.57,1258.9 
  "/>
<line clip-path="url(#clip150)" x1="1842.48" y1="1258.9" x2="1842.48" y2="1233.3" style="stroke:#c271d2; stroke-width:3.2; stroke-opacity:1"/>
<line clip-path="url(#clip150)" x1="1842.48" y1="1258.9" x2="1816.88" y2="1258.9" style="stroke:#c271d2; stroke-width:3.2; stroke-opacity:1"/>
<line clip-path="url(#clip150)" x1="1842.48" y1="1258.9" x2="1842.48" y2="1284.5" style="stroke:#c271d2; stroke-width:3.2; stroke-opacity:1"/>
<line clip-path="url(#clip150)" x1="1842.48" y1="1258.9" x2="1868.08" y2="1258.9" style="stroke:#c271d2; stroke-width:3.2; stroke-opacity:1"/>
<path clip-path="url(#clip150)" d="M 0 0 M1937.85 1250.25 L1958.08 1250.25 L1958.08 1254.14 L1942.06 1272.77 L1958.08 1272.77 L1958.08 1276.18 L1937.27 1276.18 L1937.27 1272.29 L1953.29 1253.65 L1937.85 1253.65 L1937.85 1250.25 Z" fill="#000000" fill-rule="evenodd" fill-opacity="1" /><path clip-path="url(#clip150)" d="M 0 0 M1964.59 1250.25 L1968.85 1250.25 L1968.85 1276.18 L1964.59 1276.18 L1964.59 1250.25 M1964.59 1240.16 L1968.85 1240.16 L1968.85 1245.55 L1964.59 1245.55 L1964.59 1240.16 Z" fill="#000000" fill-rule="evenodd" fill-opacity="1" /><path clip-path="url(#clip150)" d="M 0 0 M1994.82 1262.91 Q1994.82 1258.28 1992.9 1255.74 Q1991 1253.19 1987.55 1253.19 Q1984.12 1253.19 1982.2 1255.74 Q1980.31 1258.28 1980.31 1262.91 Q1980.31 1267.52 1982.2 1270.07 Q1984.12 1272.61 1987.55 1272.61 Q1991 1272.61 1992.9 1270.07 Q1994.82 1267.52 1994.82 1262.91 M1999.08 1272.96 Q1999.08 1279.58 1996.14 1282.8 Q1993.2 1286.04 1987.13 1286.04 Q1984.89 1286.04 1982.9 1285.69 Q1980.91 1285.37 1979.03 1284.67 L1979.03 1280.53 Q1980.91 1281.55 1982.74 1282.03 Q1984.56 1282.52 1986.46 1282.52 Q1990.65 1282.52 1992.74 1280.32 Q1994.82 1278.14 1994.82 1273.72 L1994.82 1271.62 Q1993.5 1273.91 1991.44 1275.04 Q1989.38 1276.18 1986.51 1276.18 Q1981.74 1276.18 1978.82 1272.54 Q1975.91 1268.91 1975.91 1262.91 Q1975.91 1256.89 1978.82 1253.26 Q1981.74 1249.63 1986.51 1249.63 Q1989.38 1249.63 1991.44 1250.76 Q1993.5 1251.89 1994.82 1254.19 L1994.82 1250.25 L1999.08 1250.25 L1999.08 1272.96 Z" fill="#000000" fill-rule="evenodd" fill-opacity="1" /><path clip-path="url(#clip150)" d="M 0 0 M2006 1250.25 L2026.23 1250.25 L2026.23 1254.14 L2010.21 1272.77 L2026.23 1272.77 L2026.23 1276.18 L2005.42 1276.18 L2005.42 1272.29 L2021.44 1253.65 L2006 1253.65 L2006 1250.25 Z" fill="#000000" fill-rule="evenodd" fill-opacity="1" /><path clip-path="url(#clip150)" d="M 0 0 M2044.52 1263.14 Q2039.36 1263.14 2037.36 1264.32 Q2035.37 1265.51 2035.37 1268.35 Q2035.37 1270.62 2036.86 1271.96 Q2038.36 1273.28 2040.93 1273.28 Q2044.47 1273.28 2046.6 1270.78 Q2048.75 1268.26 2048.75 1264.09 L2048.75 1263.14 L2044.52 1263.14 M2053.01 1261.38 L2053.01 1276.18 L2048.75 1276.18 L2048.75 1272.24 Q2047.3 1274.6 2045.12 1275.74 Q2042.94 1276.85 2039.8 1276.85 Q2035.81 1276.85 2033.45 1274.63 Q2031.11 1272.38 2031.11 1268.63 Q2031.11 1264.26 2034.03 1262.03 Q2036.97 1259.81 2042.78 1259.81 L2048.75 1259.81 L2048.75 1259.39 Q2048.75 1256.45 2046.81 1254.86 Q2044.89 1253.24 2041.39 1253.24 Q2039.17 1253.24 2037.06 1253.77 Q2034.96 1254.3 2033.01 1255.37 L2033.01 1251.43 Q2035.35 1250.53 2037.55 1250.09 Q2039.75 1249.63 2041.83 1249.63 Q2047.46 1249.63 2050.24 1252.54 Q2053.01 1255.46 2053.01 1261.38 Z" fill="#000000" fill-rule="evenodd" fill-opacity="1" /><path clip-path="url(#clip150)" d="M 0 0 M2078.85 1262.91 Q2078.85 1258.28 2076.92 1255.74 Q2075.03 1253.19 2071.58 1253.19 Q2068.15 1253.19 2066.23 1255.74 Q2064.33 1258.28 2064.33 1262.91 Q2064.33 1267.52 2066.23 1270.07 Q2068.15 1272.61 2071.58 1272.61 Q2075.03 1272.61 2076.92 1270.07 Q2078.85 1267.52 2078.85 1262.91 M2083.11 1272.96 Q2083.11 1279.58 2080.17 1282.8 Q2077.23 1286.04 2071.16 1286.04 Q2068.92 1286.04 2066.92 1285.69 Q2064.93 1285.37 2063.06 1284.67 L2063.06 1280.53 Q2064.93 1281.55 2066.76 1282.03 Q2068.59 1282.52 2070.49 1282.52 Q2074.68 1282.52 2076.76 1280.32 Q2078.85 1278.14 2078.85 1273.72 L2078.85 1271.62 Q2077.53 1273.91 2075.47 1275.04 Q2073.41 1276.18 2070.54 1276.18 Q2065.77 1276.18 2062.85 1272.54 Q2059.93 1268.91 2059.93 1262.91 Q2059.93 1256.89 2062.85 1253.26 Q2065.77 1249.63 2070.54 1249.63 Q2073.41 1249.63 2075.47 1250.76 Q2077.53 1251.89 2078.85 1254.19 L2078.85 1250.25 L2083.11 1250.25 L2083.11 1272.96 Z" fill="#000000" fill-rule="evenodd" fill-opacity="1" /><path clip-path="url(#clip150)" d="M 0 0 M2111.81 1245.46 L2111.81 1272.33 L2117.46 1272.33 Q2124.61 1272.33 2127.92 1269.09 Q2131.25 1265.85 2131.25 1258.86 Q2131.25 1251.92 2127.92 1248.7 Q2124.61 1245.46 2117.46 1245.46 L2111.81 1245.46 M2107.13 1241.62 L2116.74 1241.62 Q2126.79 1241.62 2131.48 1245.81 Q2136.18 1249.97 2136.18 1258.86 Q2136.18 1267.8 2131.46 1271.99 Q2126.74 1276.18 2116.74 1276.18 L2107.13 1276.18 L2107.13 1241.62 Z" fill="#000000" fill-rule="evenodd" fill-opacity="1" /><path clip-path="url(#clip150)" d="M 0 0 M2159.08 1254.65 L2188.75 1254.65 L2188.75 1258.54 L2159.08 1258.54 L2159.08 1254.65 M2159.08 1264.09 L2188.75 1264.09 L2188.75 1268.03 L2159.08 1268.03 L2159.08 1264.09 Z" fill="#000000" fill-rule="evenodd" fill-opacity="1" /><path clip-path="url(#clip150)" d="M 0 0 M2217.94 1272.24 L2234.26 1272.24 L2234.26 1276.18 L2212.32 1276.18 L2212.32 1272.24 Q2214.98 1269.49 2219.56 1264.86 Q2224.17 1260.2 2225.35 1258.86 Q2227.6 1256.34 2228.48 1254.6 Q2229.38 1252.84 2229.38 1251.15 Q2229.38 1248.4 2227.43 1246.66 Q2225.51 1244.93 2222.41 1244.93 Q2220.21 1244.93 2217.76 1245.69 Q2215.33 1246.45 2212.55 1248.01 L2212.55 1243.28 Q2215.37 1242.15 2217.83 1241.57 Q2220.28 1240.99 2222.32 1240.99 Q2227.69 1240.99 2230.88 1243.68 Q2234.08 1246.36 2234.08 1250.85 Q2234.08 1252.98 2233.27 1254.9 Q2232.48 1256.8 2230.37 1259.39 Q2229.79 1260.07 2226.69 1263.28 Q2223.59 1266.48 2217.94 1272.24 Z" fill="#000000" fill-rule="evenodd" fill-opacity="1" /><polyline clip-path="url(#clip150)" style="stroke:#ac8d18; stroke-width:4; stroke-opacity:1; fill:none" points="
  1771.38,1319.38 1913.57,1319.38 
  "/>
<path clip-path="url(#clip150)" d="M1842.48 1293.78 L1816.88 1319.38 L1842.48 1344.98 L1868.08 1319.38 L1842.48 1293.78 Z" fill="#ac8d18" fill-rule="evenodd" fill-opacity="1" stroke="#000000" stroke-opacity="1" stroke-width="5.12"/>
<path clip-path="url(#clip150)" d="M 0 0 M1937.27 1302.1 L1943.57 1302.1 L1958.89 1331.01 L1958.89 1302.1 L1963.43 1302.1 L1963.43 1336.66 L1957.13 1336.66 L1941.81 1307.74 L1941.81 1336.66 L1937.27 1336.66 L1937.27 1302.1 Z" fill="#000000" fill-rule="evenodd" fill-opacity="1" /><path clip-path="url(#clip150)" d="M 0 0 M1994.73 1322.63 L1994.73 1324.71 L1975.14 1324.71 Q1975.42 1329.11 1977.78 1331.42 Q1980.17 1333.72 1984.4 1333.72 Q1986.86 1333.72 1989.15 1333.11 Q1991.46 1332.51 1993.73 1331.31 L1993.73 1335.34 Q1991.44 1336.31 1989.03 1336.82 Q1986.62 1337.33 1984.15 1337.33 Q1977.94 1337.33 1974.31 1333.72 Q1970.7 1330.11 1970.7 1323.95 Q1970.7 1317.58 1974.12 1313.86 Q1977.57 1310.11 1983.41 1310.11 Q1988.64 1310.11 1991.67 1313.49 Q1994.73 1316.84 1994.73 1322.63 M1990.47 1321.38 Q1990.42 1317.88 1988.5 1315.8 Q1986.6 1313.72 1983.45 1313.72 Q1979.89 1313.72 1977.74 1315.73 Q1975.61 1317.74 1975.28 1321.4 L1990.47 1321.38 Z" fill="#000000" fill-rule="evenodd" fill-opacity="1" /><path clip-path="url(#clip150)" d="M 0 0 M2023.89 1322.63 L2023.89 1324.71 L2004.31 1324.71 Q2004.59 1329.11 2006.95 1331.42 Q2009.33 1333.72 2013.57 1333.72 Q2016.02 1333.72 2018.31 1333.11 Q2020.63 1332.51 2022.9 1331.31 L2022.9 1335.34 Q2020.61 1336.31 2018.2 1336.82 Q2015.79 1337.33 2013.31 1337.33 Q2007.11 1337.33 2003.48 1333.72 Q1999.87 1330.11 1999.87 1323.95 Q1999.87 1317.58 2003.29 1313.86 Q2006.74 1310.11 2012.57 1310.11 Q2017.8 1310.11 2020.84 1313.49 Q2023.89 1316.84 2023.89 1322.63 M2019.63 1321.38 Q2019.59 1317.88 2017.67 1315.8 Q2015.77 1313.72 2012.62 1313.72 Q2009.05 1313.72 2006.9 1315.73 Q2004.77 1317.74 2004.45 1321.4 L2019.63 1321.38 Z" fill="#000000" fill-rule="evenodd" fill-opacity="1" /><path clip-path="url(#clip150)" d="M 0 0 M2030.88 1300.64 L2035.14 1300.64 L2035.14 1336.66 L2030.88 1336.66 L2030.88 1300.64 Z" fill="#000000" fill-rule="evenodd" fill-opacity="1" /><path clip-path="url(#clip150)" d="M 0 0 M2063.99 1305.94 L2063.99 1332.81 L2069.63 1332.81 Q2076.79 1332.81 2080.1 1329.57 Q2083.43 1326.33 2083.43 1319.34 Q2083.43 1312.4 2080.1 1309.18 Q2076.79 1305.94 2069.63 1305.94 L2063.99 1305.94 M2059.31 1302.1 L2068.92 1302.1 Q2078.96 1302.1 2083.66 1306.29 Q2088.36 1310.45 2088.36 1319.34 Q2088.36 1328.28 2083.64 1332.47 Q2078.92 1336.66 2068.92 1336.66 L2059.31 1336.66 L2059.31 1302.1 Z" fill="#000000" fill-rule="evenodd" fill-opacity="1" /><path clip-path="url(#clip150)" d="M 0 0 M2111.25 1315.13 L2140.93 1315.13 L2140.93 1319.02 L2111.25 1319.02 L2111.25 1315.13 M2111.25 1324.57 L2140.93 1324.57 L2140.93 1328.51 L2111.25 1328.51 L2111.25 1324.57 Z" fill="#000000" fill-rule="evenodd" fill-opacity="1" /><path clip-path="url(#clip150)" d="M 0 0 M2170.12 1332.72 L2186.44 1332.72 L2186.44 1336.66 L2164.49 1336.66 L2164.49 1332.72 Q2167.16 1329.97 2171.74 1325.34 Q2176.35 1320.68 2177.53 1319.34 Q2179.77 1316.82 2180.65 1315.08 Q2181.55 1313.32 2181.55 1311.63 Q2181.55 1308.88 2179.61 1307.14 Q2177.69 1305.41 2174.59 1305.41 Q2172.39 1305.41 2169.93 1306.17 Q2167.5 1306.93 2164.73 1308.49 L2164.73 1303.76 Q2167.55 1302.63 2170 1302.05 Q2172.46 1301.47 2174.49 1301.47 Q2179.86 1301.47 2183.06 1304.16 Q2186.25 1306.84 2186.25 1311.33 Q2186.25 1313.46 2185.44 1315.38 Q2184.66 1317.28 2182.55 1319.87 Q2181.97 1320.55 2178.87 1323.76 Q2175.77 1326.96 2170.12 1332.72 Z" fill="#000000" fill-rule="evenodd" fill-opacity="1" /></svg>
