<?xml version="1.0" encoding="utf-8"?>
<svg xmlns="http://www.w3.org/2000/svg" xmlns:xlink="http://www.w3.org/1999/xlink" width="600" height="400" viewBox="0 0 2400 1600">
<defs>
  <clipPath id="clip230">
    <rect x="0" y="0" width="2400" height="1600"/>
  </clipPath>
</defs>
<path clip-path="url(#clip230)" d="
M0 1600 L2400 1600 L2400 0 L0 0  Z
  " fill="#ffffff" fill-rule="evenodd" fill-opacity="1"/>
<defs>
  <clipPath id="clip231">
    <rect x="480" y="0" width="1681" height="1600"/>
  </clipPath>
</defs>
<path clip-path="url(#clip230)" d="
M287.366 1423.18 L2352.76 1423.18 L2352.76 123.472 L287.366 123.472  Z
  " fill="#ffffff" fill-rule="evenodd" fill-opacity="1"/>
<defs>
  <clipPath id="clip232">
    <rect x="287" y="123" width="2066" height="1301"/>
  </clipPath>
</defs>
<polyline clip-path="url(#clip232)" style="stroke:#000000; stroke-width:2; stroke-opacity:0.1; fill:none" points="
  345.82,1423.18 345.82,123.472 
  "/>
<polyline clip-path="url(#clip232)" style="stroke:#000000; stroke-width:2; stroke-opacity:0.1; fill:none" points="
  832.941,1423.18 832.941,123.472 
  "/>
<polyline clip-path="url(#clip232)" style="stroke:#000000; stroke-width:2; stroke-opacity:0.1; fill:none" points="
  1320.06,1423.18 1320.06,123.472 
  "/>
<polyline clip-path="url(#clip232)" style="stroke:#000000; stroke-width:2; stroke-opacity:0.1; fill:none" points="
  1807.18,1423.18 1807.18,123.472 
  "/>
<polyline clip-path="url(#clip232)" style="stroke:#000000; stroke-width:2; stroke-opacity:0.1; fill:none" points="
  2294.3,1423.18 2294.3,123.472 
  "/>
<polyline clip-path="url(#clip230)" style="stroke:#000000; stroke-width:4; stroke-opacity:1; fill:none" points="
  287.366,1423.18 2352.76,1423.18 
  "/>
<polyline clip-path="url(#clip230)" style="stroke:#000000; stroke-width:4; stroke-opacity:1; fill:none" points="
  345.82,1423.18 345.82,1407.58 
  "/>
<polyline clip-path="url(#clip230)" style="stroke:#000000; stroke-width:4; stroke-opacity:1; fill:none" points="
  832.941,1423.18 832.941,1407.58 
  "/>
<polyline clip-path="url(#clip230)" style="stroke:#000000; stroke-width:4; stroke-opacity:1; fill:none" points="
  1320.06,1423.18 1320.06,1407.58 
  "/>
<polyline clip-path="url(#clip230)" style="stroke:#000000; stroke-width:4; stroke-opacity:1; fill:none" points="
  1807.18,1423.18 1807.18,1407.58 
  "/>
<polyline clip-path="url(#clip230)" style="stroke:#000000; stroke-width:4; stroke-opacity:1; fill:none" points="
  2294.3,1423.18 2294.3,1407.58 
  "/>
<path clip-path="url(#clip230)" d="M 0 0 M308.124 1452.37 Q304.513 1452.37 302.684 1455.94 Q300.878 1459.48 300.878 1466.61 Q300.878 1473.71 302.684 1477.28 Q304.513 1480.82 308.124 1480.82 Q311.758 1480.82 313.564 1477.28 Q315.392 1473.71 315.392 1466.61 Q315.392 1459.48 313.564 1455.94 Q311.758 1452.37 308.124 1452.37 M308.124 1448.67 Q313.934 1448.67 316.989 1453.27 Q320.068 1457.86 320.068 1466.61 Q320.068 1475.33 316.989 1479.94 Q313.934 1484.52 308.124 1484.52 Q302.314 1484.52 299.235 1479.94 Q296.179 1475.33 296.179 1466.61 Q296.179 1457.86 299.235 1453.27 Q302.314 1448.67 308.124 1448.67 Z" fill="#000000" fill-rule="evenodd" fill-opacity="1" /><path clip-path="url(#clip230)" d="M 0 0 M328.286 1477.97 L333.17 1477.97 L333.17 1483.85 L328.286 1483.85 L328.286 1477.97 Z" fill="#000000" fill-rule="evenodd" fill-opacity="1" /><path clip-path="url(#clip230)" d="M 0 0 M353.355 1452.37 Q349.744 1452.37 347.915 1455.94 Q346.11 1459.48 346.11 1466.61 Q346.11 1473.71 347.915 1477.28 Q349.744 1480.82 353.355 1480.82 Q356.989 1480.82 358.795 1477.28 Q360.623 1473.71 360.623 1466.61 Q360.623 1459.48 358.795 1455.94 Q356.989 1452.37 353.355 1452.37 M353.355 1448.67 Q359.165 1448.67 362.221 1453.27 Q365.299 1457.86 365.299 1466.61 Q365.299 1475.33 362.221 1479.94 Q359.165 1484.52 353.355 1484.52 Q347.545 1484.52 344.466 1479.94 Q341.411 1475.33 341.411 1466.61 Q341.411 1457.86 344.466 1453.27 Q347.545 1448.67 353.355 1448.67 Z" fill="#000000" fill-rule="evenodd" fill-opacity="1" /><path clip-path="url(#clip230)" d="M 0 0 M383.517 1452.37 Q379.906 1452.37 378.077 1455.94 Q376.272 1459.48 376.272 1466.61 Q376.272 1473.71 378.077 1477.28 Q379.906 1480.82 383.517 1480.82 Q387.151 1480.82 388.957 1477.28 Q390.785 1473.71 390.785 1466.61 Q390.785 1459.48 388.957 1455.94 Q387.151 1452.37 383.517 1452.37 M383.517 1448.67 Q389.327 1448.67 392.383 1453.27 Q395.461 1457.86 395.461 1466.61 Q395.461 1475.33 392.383 1479.94 Q389.327 1484.52 383.517 1484.52 Q377.707 1484.52 374.628 1479.94 Q371.573 1475.33 371.573 1466.61 Q371.573 1457.86 374.628 1453.27 Q377.707 1448.67 383.517 1448.67 Z" fill="#000000" fill-rule="evenodd" fill-opacity="1" /><path clip-path="url(#clip230)" d="M 0 0 M795.742 1452.37 Q792.131 1452.37 790.302 1455.94 Q788.496 1459.48 788.496 1466.61 Q788.496 1473.71 790.302 1477.28 Q792.131 1480.82 795.742 1480.82 Q799.376 1480.82 801.182 1477.28 Q803.01 1473.71 803.01 1466.61 Q803.01 1459.48 801.182 1455.94 Q799.376 1452.37 795.742 1452.37 M795.742 1448.67 Q801.552 1448.67 804.607 1453.27 Q807.686 1457.86 807.686 1466.61 Q807.686 1475.33 804.607 1479.94 Q801.552 1484.52 795.742 1484.52 Q789.932 1484.52 786.853 1479.94 Q783.797 1475.33 783.797 1466.61 Q783.797 1457.86 786.853 1453.27 Q789.932 1448.67 795.742 1448.67 Z" fill="#000000" fill-rule="evenodd" fill-opacity="1" /><path clip-path="url(#clip230)" d="M 0 0 M815.904 1477.97 L820.788 1477.97 L820.788 1483.85 L815.904 1483.85 L815.904 1477.97 Z" fill="#000000" fill-rule="evenodd" fill-opacity="1" /><path clip-path="url(#clip230)" d="M 0 0 M835.001 1479.92 L851.32 1479.92 L851.32 1483.85 L829.376 1483.85 L829.376 1479.92 Q832.038 1477.16 836.621 1472.53 Q841.228 1467.88 842.408 1466.54 Q844.654 1464.01 845.533 1462.28 Q846.436 1460.52 846.436 1458.83 Q846.436 1456.07 844.491 1454.34 Q842.57 1452.6 839.468 1452.6 Q837.269 1452.6 834.816 1453.37 Q832.385 1454.13 829.607 1455.68 L829.607 1450.96 Q832.431 1449.82 834.885 1449.25 Q837.339 1448.67 839.376 1448.67 Q844.746 1448.67 847.941 1451.35 Q851.135 1454.04 851.135 1458.53 Q851.135 1460.66 850.325 1462.58 Q849.538 1464.48 847.431 1467.07 Q846.853 1467.74 843.751 1470.96 Q840.649 1474.15 835.001 1479.92 Z" fill="#000000" fill-rule="evenodd" fill-opacity="1" /><path clip-path="url(#clip230)" d="M 0 0 M861.181 1449.29 L879.538 1449.29 L879.538 1453.23 L865.464 1453.23 L865.464 1461.7 Q866.482 1461.35 867.501 1461.19 Q868.519 1461 869.538 1461 Q875.325 1461 878.704 1464.18 Q882.084 1467.35 882.084 1472.76 Q882.084 1478.34 878.612 1481.44 Q875.139 1484.52 868.82 1484.52 Q866.644 1484.52 864.376 1484.15 Q862.13 1483.78 859.723 1483.04 L859.723 1478.34 Q861.806 1479.48 864.028 1480.03 Q866.251 1480.59 868.727 1480.59 Q872.732 1480.59 875.07 1478.48 Q877.408 1476.38 877.408 1472.76 Q877.408 1469.15 875.07 1467.05 Q872.732 1464.94 868.727 1464.94 Q866.852 1464.94 864.977 1465.36 Q863.126 1465.77 861.181 1466.65 L861.181 1449.29 Z" fill="#000000" fill-rule="evenodd" fill-opacity="1" /><path clip-path="url(#clip230)" d="M 0 0 M1282.36 1452.37 Q1278.75 1452.37 1276.92 1455.94 Q1275.12 1459.48 1275.12 1466.61 Q1275.12 1473.71 1276.92 1477.28 Q1278.75 1480.82 1282.36 1480.82 Q1286 1480.82 1287.8 1477.28 Q1289.63 1473.71 1289.63 1466.61 Q1289.63 1459.48 1287.8 1455.94 Q1286 1452.37 1282.36 1452.37 M1282.36 1448.67 Q1288.17 1448.67 1291.23 1453.27 Q1294.31 1457.86 1294.31 1466.61 Q1294.31 1475.33 1291.23 1479.94 Q1288.17 1484.52 1282.36 1484.52 Q1276.55 1484.52 1273.48 1479.94 Q1270.42 1475.33 1270.42 1466.61 Q1270.42 1457.86 1273.48 1453.27 Q1276.55 1448.67 1282.36 1448.67 Z" fill="#000000" fill-rule="evenodd" fill-opacity="1" /><path clip-path="url(#clip230)" d="M 0 0 M1302.53 1477.97 L1307.41 1477.97 L1307.41 1483.85 L1302.53 1483.85 L1302.53 1477.97 Z" fill="#000000" fill-rule="evenodd" fill-opacity="1" /><path clip-path="url(#clip230)" d="M 0 0 M1317.64 1449.29 L1336 1449.29 L1336 1453.23 L1321.92 1453.23 L1321.92 1461.7 Q1322.94 1461.35 1323.96 1461.19 Q1324.98 1461 1326 1461 Q1331.79 1461 1335.16 1464.18 Q1338.54 1467.35 1338.54 1472.76 Q1338.54 1478.34 1335.07 1481.44 Q1331.6 1484.52 1325.28 1484.52 Q1323.1 1484.52 1320.84 1484.15 Q1318.59 1483.78 1316.18 1483.04 L1316.18 1478.34 Q1318.27 1479.48 1320.49 1480.03 Q1322.71 1480.59 1325.19 1480.59 Q1329.19 1480.59 1331.53 1478.48 Q1333.87 1476.38 1333.87 1472.76 Q1333.87 1469.15 1331.53 1467.05 Q1329.19 1464.94 1325.19 1464.94 Q1323.31 1464.94 1321.44 1465.36 Q1319.59 1465.77 1317.64 1466.65 L1317.64 1449.29 Z" fill="#000000" fill-rule="evenodd" fill-opacity="1" /><path clip-path="url(#clip230)" d="M 0 0 M1357.76 1452.37 Q1354.15 1452.37 1352.32 1455.94 Q1350.51 1459.48 1350.51 1466.61 Q1350.51 1473.71 1352.32 1477.28 Q1354.15 1480.82 1357.76 1480.82 Q1361.39 1480.82 1363.2 1477.28 Q1365.03 1473.71 1365.03 1466.61 Q1365.03 1459.48 1363.2 1455.94 Q1361.39 1452.37 1357.76 1452.37 M1357.76 1448.67 Q1363.57 1448.67 1366.62 1453.27 Q1369.7 1457.86 1369.7 1466.61 Q1369.7 1475.33 1366.62 1479.94 Q1363.57 1484.52 1357.76 1484.52 Q1351.95 1484.52 1348.87 1479.94 Q1345.81 1475.33 1345.81 1466.61 Q1345.81 1457.86 1348.87 1453.27 Q1351.95 1448.67 1357.76 1448.67 Z" fill="#000000" fill-rule="evenodd" fill-opacity="1" /><path clip-path="url(#clip230)" d="M 0 0 M1769.98 1452.37 Q1766.37 1452.37 1764.54 1455.94 Q1762.74 1459.48 1762.74 1466.61 Q1762.74 1473.71 1764.54 1477.28 Q1766.37 1480.82 1769.98 1480.82 Q1773.62 1480.82 1775.42 1477.28 Q1777.25 1473.71 1777.25 1466.61 Q1777.25 1459.48 1775.42 1455.94 Q1773.62 1452.37 1769.98 1452.37 M1769.98 1448.67 Q1775.79 1448.67 1778.85 1453.27 Q1781.93 1457.86 1781.93 1466.61 Q1781.93 1475.33 1778.85 1479.94 Q1775.79 1484.52 1769.98 1484.52 Q1764.17 1484.52 1761.09 1479.94 Q1758.04 1475.33 1758.04 1466.61 Q1758.04 1457.86 1761.09 1453.27 Q1764.17 1448.67 1769.98 1448.67 Z" fill="#000000" fill-rule="evenodd" fill-opacity="1" /><path clip-path="url(#clip230)" d="M 0 0 M1790.14 1477.97 L1795.03 1477.97 L1795.03 1483.85 L1790.14 1483.85 L1790.14 1477.97 Z" fill="#000000" fill-rule="evenodd" fill-opacity="1" /><path clip-path="url(#clip230)" d="M 0 0 M1804.03 1449.29 L1826.26 1449.29 L1826.26 1451.28 L1813.71 1483.85 L1808.82 1483.85 L1820.63 1453.23 L1804.03 1453.23 L1804.03 1449.29 Z" fill="#000000" fill-rule="evenodd" fill-opacity="1" /><path clip-path="url(#clip230)" d="M 0 0 M1835.42 1449.29 L1853.78 1449.29 L1853.78 1453.23 L1839.7 1453.23 L1839.7 1461.7 Q1840.72 1461.35 1841.74 1461.19 Q1842.76 1461 1843.78 1461 Q1849.57 1461 1852.94 1464.18 Q1856.32 1467.35 1856.32 1472.76 Q1856.32 1478.34 1852.85 1481.44 Q1849.38 1484.52 1843.06 1484.52 Q1840.88 1484.52 1838.62 1484.15 Q1836.37 1483.78 1833.96 1483.04 L1833.96 1478.34 Q1836.05 1479.48 1838.27 1480.03 Q1840.49 1480.59 1842.97 1480.59 Q1846.97 1480.59 1849.31 1478.48 Q1851.65 1476.38 1851.65 1472.76 Q1851.65 1469.15 1849.31 1467.05 Q1846.97 1464.94 1842.97 1464.94 Q1841.09 1464.94 1839.22 1465.36 Q1837.37 1465.77 1835.42 1466.65 L1835.42 1449.29 Z" fill="#000000" fill-rule="evenodd" fill-opacity="1" /><path clip-path="url(#clip230)" d="M 0 0 M2246.37 1479.92 L2254.01 1479.92 L2254.01 1453.55 L2245.7 1455.22 L2245.7 1450.96 L2253.97 1449.29 L2258.64 1449.29 L2258.64 1479.92 L2266.28 1479.92 L2266.28 1483.85 L2246.37 1483.85 L2246.37 1479.92 Z" fill="#000000" fill-rule="evenodd" fill-opacity="1" /><path clip-path="url(#clip230)" d="M 0 0 M2275.73 1477.97 L2280.61 1477.97 L2280.61 1483.85 L2275.73 1483.85 L2275.73 1477.97 Z" fill="#000000" fill-rule="evenodd" fill-opacity="1" /><path clip-path="url(#clip230)" d="M 0 0 M2300.79 1452.37 Q2297.18 1452.37 2295.35 1455.94 Q2293.55 1459.48 2293.55 1466.61 Q2293.55 1473.71 2295.35 1477.28 Q2297.18 1480.82 2300.79 1480.82 Q2304.43 1480.82 2306.23 1477.28 Q2308.06 1473.71 2308.06 1466.61 Q2308.06 1459.48 2306.23 1455.94 Q2304.43 1452.37 2300.79 1452.37 M2300.79 1448.67 Q2306.6 1448.67 2309.66 1453.27 Q2312.74 1457.86 2312.74 1466.61 Q2312.74 1475.33 2309.66 1479.94 Q2306.6 1484.52 2300.79 1484.52 Q2294.98 1484.52 2291.91 1479.94 Q2288.85 1475.33 2288.85 1466.61 Q2288.85 1457.86 2291.91 1453.27 Q2294.98 1448.67 2300.79 1448.67 Z" fill="#000000" fill-rule="evenodd" fill-opacity="1" /><path clip-path="url(#clip230)" d="M 0 0 M2330.96 1452.37 Q2327.35 1452.37 2325.52 1455.94 Q2323.71 1459.48 2323.71 1466.61 Q2323.71 1473.71 2325.52 1477.28 Q2327.35 1480.82 2330.96 1480.82 Q2334.59 1480.82 2336.4 1477.28 Q2338.22 1473.71 2338.22 1466.61 Q2338.22 1459.48 2336.4 1455.94 Q2334.59 1452.37 2330.96 1452.37 M2330.96 1448.67 Q2336.77 1448.67 2339.82 1453.27 Q2342.9 1457.86 2342.9 1466.61 Q2342.9 1475.33 2339.82 1479.94 Q2336.77 1484.52 2330.96 1484.52 Q2325.15 1484.52 2322.07 1479.94 Q2319.01 1475.33 2319.01 1466.61 Q2319.01 1457.86 2322.07 1453.27 Q2325.15 1448.67 2330.96 1448.67 Z" fill="#000000" fill-rule="evenodd" fill-opacity="1" /><path clip-path="url(#clip230)" d="M 0 0 M1322.97 1518.52 L1322.97 1531.66 Q1329.31 1531.66 1333.54 1536.53 Q1337.9 1541.5 1337.9 1550.25 Q1337.9 1559 1333.54 1563.97 Q1329.31 1568.84 1322.97 1568.84 L1322.97 1581.6 L1317.15 1581.6 L1317.15 1568.84 Q1310.81 1568.84 1306.55 1563.97 Q1302.22 1559 1302.22 1550.25 Q1302.22 1541.5 1306.55 1536.53 Q1310.81 1531.66 1317.15 1531.66 L1317.15 1518.52 L1322.97 1518.52 M1322.97 1563.62 Q1326.57 1563.62 1329.02 1560.34 Q1331.69 1556.68 1331.73 1550.25 Q1331.76 1543.89 1329.02 1540.16 Q1326.57 1536.88 1322.97 1536.88 L1322.97 1563.62 M1317.15 1563.62 L1317.15 1536.88 Q1313.55 1536.88 1311.13 1540.16 Q1308.36 1543.89 1308.4 1550.25 Q1308.43 1556.68 1311.13 1560.34 Q1313.55 1563.62 1317.15 1563.62 Z" fill="#000000" fill-rule="evenodd" fill-opacity="1" /><polyline clip-path="url(#clip232)" style="stroke:#000000; stroke-width:2; stroke-opacity:0.1; fill:none" points="
  287.366,1260.56 2352.76,1260.56 
  "/>
<polyline clip-path="url(#clip232)" style="stroke:#000000; stroke-width:2; stroke-opacity:0.1; fill:none" points="
  287.366,1089.64 2352.76,1089.64 
  "/>
<polyline clip-path="url(#clip232)" style="stroke:#000000; stroke-width:2; stroke-opacity:0.1; fill:none" points="
  287.366,918.72 2352.76,918.72 
  "/>
<polyline clip-path="url(#clip232)" style="stroke:#000000; stroke-width:2; stroke-opacity:0.1; fill:none" points="
  287.366,747.799 2352.76,747.799 
  "/>
<polyline clip-path="url(#clip232)" style="stroke:#000000; stroke-width:2; stroke-opacity:0.1; fill:none" points="
  287.366,576.879 2352.76,576.879 
  "/>
<polyline clip-path="url(#clip232)" style="stroke:#000000; stroke-width:2; stroke-opacity:0.1; fill:none" points="
  287.366,405.958 2352.76,405.958 
  "/>
<polyline clip-path="url(#clip232)" style="stroke:#000000; stroke-width:2; stroke-opacity:0.1; fill:none" points="
  287.366,235.037 2352.76,235.037 
  "/>
<polyline clip-path="url(#clip230)" style="stroke:#000000; stroke-width:4; stroke-opacity:1; fill:none" points="
  287.366,1423.18 287.366,123.472 
  "/>
<polyline clip-path="url(#clip230)" style="stroke:#000000; stroke-width:4; stroke-opacity:1; fill:none" points="
  287.366,1260.56 312.151,1260.56 
  "/>
<polyline clip-path="url(#clip230)" style="stroke:#000000; stroke-width:4; stroke-opacity:1; fill:none" points="
  287.366,1089.64 312.151,1089.64 
  "/>
<polyline clip-path="url(#clip230)" style="stroke:#000000; stroke-width:4; stroke-opacity:1; fill:none" points="
  287.366,918.72 312.151,918.72 
  "/>
<polyline clip-path="url(#clip230)" style="stroke:#000000; stroke-width:4; stroke-opacity:1; fill:none" points="
  287.366,747.799 312.151,747.799 
  "/>
<polyline clip-path="url(#clip230)" style="stroke:#000000; stroke-width:4; stroke-opacity:1; fill:none" points="
  287.366,576.879 312.151,576.879 
  "/>
<polyline clip-path="url(#clip230)" style="stroke:#000000; stroke-width:4; stroke-opacity:1; fill:none" points="
  287.366,405.958 312.151,405.958 
  "/>
<polyline clip-path="url(#clip230)" style="stroke:#000000; stroke-width:4; stroke-opacity:1; fill:none" points="
  287.366,235.037 312.151,235.037 
  "/>
<path clip-path="url(#clip230)" d="M 0 0 M114.26 1261.01 L143.936 1261.01 L143.936 1264.95 L114.26 1264.95 L114.26 1261.01 Z" fill="#000000" fill-rule="evenodd" fill-opacity="1" /><path clip-path="url(#clip230)" d="M 0 0 M164.028 1246.36 Q160.417 1246.36 158.589 1249.92 Q156.783 1253.47 156.783 1260.6 Q156.783 1267.7 158.589 1271.27 Q160.417 1274.81 164.028 1274.81 Q167.663 1274.81 169.468 1271.27 Q171.297 1267.7 171.297 1260.6 Q171.297 1253.47 169.468 1249.92 Q167.663 1246.36 164.028 1246.36 M164.028 1242.66 Q169.839 1242.66 172.894 1247.26 Q175.973 1251.85 175.973 1260.6 Q175.973 1269.32 172.894 1273.93 Q169.839 1278.51 164.028 1278.51 Q158.218 1278.51 155.14 1273.93 Q152.084 1269.32 152.084 1260.6 Q152.084 1251.85 155.14 1247.26 Q158.218 1242.66 164.028 1242.66 Z" fill="#000000" fill-rule="evenodd" fill-opacity="1" /><path clip-path="url(#clip230)" d="M 0 0 M184.19 1271.96 L189.075 1271.96 L189.075 1277.84 L184.19 1277.84 L184.19 1271.96 Z" fill="#000000" fill-rule="evenodd" fill-opacity="1" /><path clip-path="url(#clip230)" d="M 0 0 M198.079 1243.28 L220.301 1243.28 L220.301 1245.27 L207.755 1277.84 L202.871 1277.84 L214.676 1247.22 L198.079 1247.22 L198.079 1243.28 Z" fill="#000000" fill-rule="evenodd" fill-opacity="1" /><path clip-path="url(#clip230)" d="M 0 0 M239.422 1246.36 Q235.81 1246.36 233.982 1249.92 Q232.176 1253.47 232.176 1260.6 Q232.176 1267.7 233.982 1271.27 Q235.81 1274.81 239.422 1274.81 Q243.056 1274.81 244.861 1271.27 Q246.69 1267.7 246.69 1260.6 Q246.69 1253.47 244.861 1249.92 Q243.056 1246.36 239.422 1246.36 M239.422 1242.66 Q245.232 1242.66 248.287 1247.26 Q251.366 1251.85 251.366 1260.6 Q251.366 1269.32 248.287 1273.93 Q245.232 1278.51 239.422 1278.51 Q233.611 1278.51 230.533 1273.93 Q227.477 1269.32 227.477 1260.6 Q227.477 1251.85 230.533 1247.26 Q233.611 1242.66 239.422 1242.66 Z" fill="#000000" fill-rule="evenodd" fill-opacity="1" /><path clip-path="url(#clip230)" d="M 0 0 M115.256 1090.09 L144.931 1090.09 L144.931 1094.03 L115.256 1094.03 L115.256 1090.09 Z" fill="#000000" fill-rule="evenodd" fill-opacity="1" /><path clip-path="url(#clip230)" d="M 0 0 M165.024 1075.44 Q161.413 1075.44 159.584 1079 Q157.778 1082.55 157.778 1089.67 Q157.778 1096.78 159.584 1100.35 Q161.413 1103.89 165.024 1103.89 Q168.658 1103.89 170.464 1100.35 Q172.292 1096.78 172.292 1089.67 Q172.292 1082.55 170.464 1079 Q168.658 1075.44 165.024 1075.44 M165.024 1071.74 Q170.834 1071.74 173.889 1076.34 Q176.968 1080.92 176.968 1089.67 Q176.968 1098.4 173.889 1103.01 Q170.834 1107.59 165.024 1107.59 Q159.214 1107.59 156.135 1103.01 Q153.079 1098.4 153.079 1089.67 Q153.079 1080.92 156.135 1076.34 Q159.214 1071.74 165.024 1071.74 Z" fill="#000000" fill-rule="evenodd" fill-opacity="1" /><path clip-path="url(#clip230)" d="M 0 0 M185.186 1101.04 L190.07 1101.04 L190.07 1106.92 L185.186 1106.92 L185.186 1101.04 Z" fill="#000000" fill-rule="evenodd" fill-opacity="1" /><path clip-path="url(#clip230)" d="M 0 0 M210.834 1087.78 Q207.686 1087.78 205.834 1089.93 Q204.005 1092.08 204.005 1095.83 Q204.005 1099.56 205.834 1101.74 Q207.686 1103.89 210.834 1103.89 Q213.982 1103.89 215.811 1101.74 Q217.662 1099.56 217.662 1095.83 Q217.662 1092.08 215.811 1089.93 Q213.982 1087.78 210.834 1087.78 M220.116 1073.12 L220.116 1077.38 Q218.357 1076.55 216.551 1076.11 Q214.769 1075.67 213.01 1075.67 Q208.38 1075.67 205.926 1078.8 Q203.496 1081.92 203.149 1088.24 Q204.514 1086.23 206.574 1085.16 Q208.635 1084.07 211.111 1084.07 Q216.32 1084.07 219.329 1087.24 Q222.361 1090.39 222.361 1095.83 Q222.361 1101.16 219.213 1104.37 Q216.065 1107.59 210.834 1107.59 Q204.838 1107.59 201.667 1103.01 Q198.496 1098.4 198.496 1089.67 Q198.496 1081.48 202.385 1076.62 Q206.274 1071.74 212.824 1071.74 Q214.584 1071.74 216.366 1072.08 Q218.172 1072.43 220.116 1073.12 Z" fill="#000000" fill-rule="evenodd" fill-opacity="1" /><path clip-path="url(#clip230)" d="M 0 0 M230.463 1072.36 L248.82 1072.36 L248.82 1076.3 L234.746 1076.3 L234.746 1084.77 Q235.764 1084.42 236.783 1084.26 Q237.801 1084.07 238.82 1084.07 Q244.607 1084.07 247.986 1087.24 Q251.366 1090.42 251.366 1095.83 Q251.366 1101.41 247.894 1104.51 Q244.421 1107.59 238.102 1107.59 Q235.926 1107.59 233.658 1107.22 Q231.412 1106.85 229.005 1106.11 L229.005 1101.41 Q231.088 1102.55 233.31 1103.1 Q235.533 1103.66 238.009 1103.66 Q242.014 1103.66 244.352 1101.55 Q246.69 1099.44 246.69 1095.83 Q246.69 1092.22 244.352 1090.11 Q242.014 1088.01 238.009 1088.01 Q236.135 1088.01 234.26 1088.42 Q232.408 1088.84 230.463 1089.72 L230.463 1072.36 Z" fill="#000000" fill-rule="evenodd" fill-opacity="1" /><path clip-path="url(#clip230)" d="M 0 0 M114.26 919.171 L143.936 919.171 L143.936 923.106 L114.26 923.106 L114.26 919.171 Z" fill="#000000" fill-rule="evenodd" fill-opacity="1" /><path clip-path="url(#clip230)" d="M 0 0 M164.028 904.518 Q160.417 904.518 158.589 908.083 Q156.783 911.625 156.783 918.754 Q156.783 925.861 158.589 929.426 Q160.417 932.967 164.028 932.967 Q167.663 932.967 169.468 929.426 Q171.297 925.861 171.297 918.754 Q171.297 911.625 169.468 908.083 Q167.663 904.518 164.028 904.518 M164.028 900.815 Q169.839 900.815 172.894 905.421 Q175.973 910.004 175.973 918.754 Q175.973 927.481 172.894 932.088 Q169.839 936.671 164.028 936.671 Q158.218 936.671 155.14 932.088 Q152.084 927.481 152.084 918.754 Q152.084 910.004 155.14 905.421 Q158.218 900.815 164.028 900.815 Z" fill="#000000" fill-rule="evenodd" fill-opacity="1" /><path clip-path="url(#clip230)" d="M 0 0 M184.19 930.12 L189.075 930.12 L189.075 936 L184.19 936 L184.19 930.12 Z" fill="#000000" fill-rule="evenodd" fill-opacity="1" /><path clip-path="url(#clip230)" d="M 0 0 M209.838 916.856 Q206.69 916.856 204.838 919.009 Q203.01 921.162 203.01 924.912 Q203.01 928.639 204.838 930.814 Q206.69 932.967 209.838 932.967 Q212.986 932.967 214.815 930.814 Q216.667 928.639 216.667 924.912 Q216.667 921.162 214.815 919.009 Q212.986 916.856 209.838 916.856 M219.121 902.204 L219.121 906.463 Q217.361 905.629 215.556 905.19 Q213.774 904.75 212.014 904.75 Q207.385 904.75 204.931 907.875 Q202.5 911 202.153 917.319 Q203.519 915.305 205.579 914.241 Q207.639 913.153 210.116 913.153 Q215.324 913.153 218.334 916.324 Q221.366 919.472 221.366 924.912 Q221.366 930.236 218.218 933.453 Q215.07 936.671 209.838 936.671 Q203.843 936.671 200.672 932.088 Q197.5 927.481 197.5 918.754 Q197.5 910.56 201.389 905.699 Q205.278 900.815 211.829 900.815 Q213.588 900.815 215.371 901.162 Q217.176 901.509 219.121 902.204 Z" fill="#000000" fill-rule="evenodd" fill-opacity="1" /><path clip-path="url(#clip230)" d="M 0 0 M239.422 904.518 Q235.81 904.518 233.982 908.083 Q232.176 911.625 232.176 918.754 Q232.176 925.861 233.982 929.426 Q235.81 932.967 239.422 932.967 Q243.056 932.967 244.861 929.426 Q246.69 925.861 246.69 918.754 Q246.69 911.625 244.861 908.083 Q243.056 904.518 239.422 904.518 M239.422 900.815 Q245.232 900.815 248.287 905.421 Q251.366 910.004 251.366 918.754 Q251.366 927.481 248.287 932.088 Q245.232 936.671 239.422 936.671 Q233.611 936.671 230.533 932.088 Q227.477 927.481 227.477 918.754 Q227.477 910.004 230.533 905.421 Q233.611 900.815 239.422 900.815 Z" fill="#000000" fill-rule="evenodd" fill-opacity="1" /><path clip-path="url(#clip230)" d="M 0 0 M115.256 748.25 L144.931 748.25 L144.931 752.186 L115.256 752.186 L115.256 748.25 Z" fill="#000000" fill-rule="evenodd" fill-opacity="1" /><path clip-path="url(#clip230)" d="M 0 0 M165.024 733.598 Q161.413 733.598 159.584 737.163 Q157.778 740.704 157.778 747.834 Q157.778 754.94 159.584 758.505 Q161.413 762.047 165.024 762.047 Q168.658 762.047 170.464 758.505 Q172.292 754.94 172.292 747.834 Q172.292 740.704 170.464 737.163 Q168.658 733.598 165.024 733.598 M165.024 729.894 Q170.834 729.894 173.889 734.501 Q176.968 739.084 176.968 747.834 Q176.968 756.561 173.889 761.167 Q170.834 765.75 165.024 765.75 Q159.214 765.75 156.135 761.167 Q153.079 756.561 153.079 747.834 Q153.079 739.084 156.135 734.501 Q159.214 729.894 165.024 729.894 Z" fill="#000000" fill-rule="evenodd" fill-opacity="1" /><path clip-path="url(#clip230)" d="M 0 0 M185.186 759.199 L190.07 759.199 L190.07 765.079 L185.186 765.079 L185.186 759.199 Z" fill="#000000" fill-rule="evenodd" fill-opacity="1" /><path clip-path="url(#clip230)" d="M 0 0 M200.301 730.519 L218.658 730.519 L218.658 734.454 L204.584 734.454 L204.584 742.926 Q205.602 742.579 206.621 742.417 Q207.639 742.232 208.658 742.232 Q214.445 742.232 217.824 745.403 Q221.204 748.575 221.204 753.991 Q221.204 759.57 217.732 762.672 Q214.26 765.75 207.94 765.75 Q205.764 765.75 203.496 765.38 Q201.25 765.01 198.843 764.269 L198.843 759.57 Q200.926 760.704 203.149 761.26 Q205.371 761.815 207.848 761.815 Q211.852 761.815 214.19 759.709 Q216.528 757.602 216.528 753.991 Q216.528 750.38 214.19 748.274 Q211.852 746.167 207.848 746.167 Q205.973 746.167 204.098 746.584 Q202.246 747 200.301 747.88 L200.301 730.519 Z" fill="#000000" fill-rule="evenodd" fill-opacity="1" /><path clip-path="url(#clip230)" d="M 0 0 M230.463 730.519 L248.82 730.519 L248.82 734.454 L234.746 734.454 L234.746 742.926 Q235.764 742.579 236.783 742.417 Q237.801 742.232 238.82 742.232 Q244.607 742.232 247.986 745.403 Q251.366 748.575 251.366 753.991 Q251.366 759.57 247.894 762.672 Q244.421 765.75 238.102 765.75 Q235.926 765.75 233.658 765.38 Q231.412 765.01 229.005 764.269 L229.005 759.57 Q231.088 760.704 233.31 761.26 Q235.533 761.815 238.009 761.815 Q242.014 761.815 244.352 759.709 Q246.69 757.602 246.69 753.991 Q246.69 750.38 244.352 748.274 Q242.014 746.167 238.009 746.167 Q236.135 746.167 234.26 746.584 Q232.408 747 230.463 747.88 L230.463 730.519 Z" fill="#000000" fill-rule="evenodd" fill-opacity="1" /><path clip-path="url(#clip230)" d="M 0 0 M114.26 577.33 L143.936 577.33 L143.936 581.265 L114.26 581.265 L114.26 577.33 Z" fill="#000000" fill-rule="evenodd" fill-opacity="1" /><path clip-path="url(#clip230)" d="M 0 0 M164.028 562.677 Q160.417 562.677 158.589 566.242 Q156.783 569.784 156.783 576.913 Q156.783 584.02 158.589 587.584 Q160.417 591.126 164.028 591.126 Q167.663 591.126 169.468 587.584 Q171.297 584.02 171.297 576.913 Q171.297 569.784 169.468 566.242 Q167.663 562.677 164.028 562.677 M164.028 558.974 Q169.839 558.974 172.894 563.58 Q175.973 568.163 175.973 576.913 Q175.973 585.64 172.894 590.246 Q169.839 594.83 164.028 594.83 Q158.218 594.83 155.14 590.246 Q152.084 585.64 152.084 576.913 Q152.084 568.163 155.14 563.58 Q158.218 558.974 164.028 558.974 Z" fill="#000000" fill-rule="evenodd" fill-opacity="1" /><path clip-path="url(#clip230)" d="M 0 0 M184.19 588.279 L189.075 588.279 L189.075 594.159 L184.19 594.159 L184.19 588.279 Z" fill="#000000" fill-rule="evenodd" fill-opacity="1" /><path clip-path="url(#clip230)" d="M 0 0 M199.306 559.599 L217.662 559.599 L217.662 563.534 L203.588 563.534 L203.588 572.006 Q204.607 571.659 205.625 571.497 Q206.644 571.311 207.662 571.311 Q213.449 571.311 216.829 574.483 Q220.209 577.654 220.209 583.071 Q220.209 588.649 216.736 591.751 Q213.264 594.83 206.945 594.83 Q204.769 594.83 202.5 594.459 Q200.255 594.089 197.848 593.348 L197.848 588.649 Q199.931 589.784 202.153 590.339 Q204.375 590.895 206.852 590.895 Q210.857 590.895 213.195 588.788 Q215.533 586.682 215.533 583.071 Q215.533 579.46 213.195 577.353 Q210.857 575.247 206.852 575.247 Q204.977 575.247 203.102 575.663 Q201.25 576.08 199.306 576.96 L199.306 559.599 Z" fill="#000000" fill-rule="evenodd" fill-opacity="1" /><path clip-path="url(#clip230)" d="M 0 0 M239.422 562.677 Q235.81 562.677 233.982 566.242 Q232.176 569.784 232.176 576.913 Q232.176 584.02 233.982 587.584 Q235.81 591.126 239.422 591.126 Q243.056 591.126 244.861 587.584 Q246.69 584.02 246.69 576.913 Q246.69 569.784 244.861 566.242 Q243.056 562.677 239.422 562.677 M239.422 558.974 Q245.232 558.974 248.287 563.58 Q251.366 568.163 251.366 576.913 Q251.366 585.64 248.287 590.246 Q245.232 594.83 239.422 594.83 Q233.611 594.83 230.533 590.246 Q227.477 585.64 227.477 576.913 Q227.477 568.163 230.533 563.58 Q233.611 558.974 239.422 558.974 Z" fill="#000000" fill-rule="evenodd" fill-opacity="1" /><path clip-path="url(#clip230)" d="M 0 0 M115.256 406.409 L144.931 406.409 L144.931 410.344 L115.256 410.344 L115.256 406.409 Z" fill="#000000" fill-rule="evenodd" fill-opacity="1" /><path clip-path="url(#clip230)" d="M 0 0 M165.024 391.757 Q161.413 391.757 159.584 395.321 Q157.778 398.863 157.778 405.993 Q157.778 413.099 159.584 416.664 Q161.413 420.206 165.024 420.206 Q168.658 420.206 170.464 416.664 Q172.292 413.099 172.292 405.993 Q172.292 398.863 170.464 395.321 Q168.658 391.757 165.024 391.757 M165.024 388.053 Q170.834 388.053 173.889 392.659 Q176.968 397.243 176.968 405.993 Q176.968 414.719 173.889 419.326 Q170.834 423.909 165.024 423.909 Q159.214 423.909 156.135 419.326 Q153.079 414.719 153.079 405.993 Q153.079 397.243 156.135 392.659 Q159.214 388.053 165.024 388.053 Z" fill="#000000" fill-rule="evenodd" fill-opacity="1" /><path clip-path="url(#clip230)" d="M 0 0 M185.186 417.358 L190.07 417.358 L190.07 423.238 L185.186 423.238 L185.186 417.358 Z" fill="#000000" fill-rule="evenodd" fill-opacity="1" /><path clip-path="url(#clip230)" d="M 0 0 M213.102 392.752 L201.297 411.201 L213.102 411.201 L213.102 392.752 M211.875 388.678 L217.755 388.678 L217.755 411.201 L222.686 411.201 L222.686 415.09 L217.755 415.09 L217.755 423.238 L213.102 423.238 L213.102 415.09 L197.5 415.09 L197.5 410.576 L211.875 388.678 Z" fill="#000000" fill-rule="evenodd" fill-opacity="1" /><path clip-path="url(#clip230)" d="M 0 0 M230.463 388.678 L248.82 388.678 L248.82 392.613 L234.746 392.613 L234.746 401.085 Q235.764 400.738 236.783 400.576 Q237.801 400.391 238.82 400.391 Q244.607 400.391 247.986 403.562 Q251.366 406.733 251.366 412.15 Q251.366 417.729 247.894 420.831 Q244.421 423.909 238.102 423.909 Q235.926 423.909 233.658 423.539 Q231.412 423.168 229.005 422.428 L229.005 417.729 Q231.088 418.863 233.31 419.419 Q235.533 419.974 238.009 419.974 Q242.014 419.974 244.352 417.868 Q246.69 415.761 246.69 412.15 Q246.69 408.539 244.352 406.432 Q242.014 404.326 238.009 404.326 Q236.135 404.326 234.26 404.743 Q232.408 405.159 230.463 406.039 L230.463 388.678 Z" fill="#000000" fill-rule="evenodd" fill-opacity="1" /><path clip-path="url(#clip230)" d="M 0 0 M114.26 235.489 L143.936 235.489 L143.936 239.424 L114.26 239.424 L114.26 235.489 Z" fill="#000000" fill-rule="evenodd" fill-opacity="1" /><path clip-path="url(#clip230)" d="M 0 0 M164.028 220.836 Q160.417 220.836 158.589 224.401 Q156.783 227.942 156.783 235.072 Q156.783 242.179 158.589 245.743 Q160.417 249.285 164.028 249.285 Q167.663 249.285 169.468 245.743 Q171.297 242.179 171.297 235.072 Q171.297 227.942 169.468 224.401 Q167.663 220.836 164.028 220.836 M164.028 217.132 Q169.839 217.132 172.894 221.739 Q175.973 226.322 175.973 235.072 Q175.973 243.799 172.894 248.405 Q169.839 252.989 164.028 252.989 Q158.218 252.989 155.14 248.405 Q152.084 243.799 152.084 235.072 Q152.084 226.322 155.14 221.739 Q158.218 217.132 164.028 217.132 Z" fill="#000000" fill-rule="evenodd" fill-opacity="1" /><path clip-path="url(#clip230)" d="M 0 0 M184.19 246.438 L189.075 246.438 L189.075 252.317 L184.19 252.317 L184.19 246.438 Z" fill="#000000" fill-rule="evenodd" fill-opacity="1" /><path clip-path="url(#clip230)" d="M 0 0 M212.107 221.831 L200.301 240.28 L212.107 240.28 L212.107 221.831 M210.88 217.757 L216.76 217.757 L216.76 240.28 L221.69 240.28 L221.69 244.169 L216.76 244.169 L216.76 252.317 L212.107 252.317 L212.107 244.169 L196.505 244.169 L196.505 239.655 L210.88 217.757 Z" fill="#000000" fill-rule="evenodd" fill-opacity="1" /><path clip-path="url(#clip230)" d="M 0 0 M239.422 220.836 Q235.81 220.836 233.982 224.401 Q232.176 227.942 232.176 235.072 Q232.176 242.179 233.982 245.743 Q235.81 249.285 239.422 249.285 Q243.056 249.285 244.861 245.743 Q246.69 242.179 246.69 235.072 Q246.69 227.942 244.861 224.401 Q243.056 220.836 239.422 220.836 M239.422 217.132 Q245.232 217.132 248.287 221.739 Q251.366 226.322 251.366 235.072 Q251.366 243.799 248.287 248.405 Q245.232 252.989 239.422 252.989 Q233.611 252.989 230.533 248.405 Q227.477 243.799 227.477 235.072 Q227.477 226.322 230.533 221.739 Q233.611 217.132 239.422 217.132 Z" fill="#000000" fill-rule="evenodd" fill-opacity="1" /><path clip-path="url(#clip230)" d="M 0 0 M16.4842 788.636 L16.4842 758.589 L21.895 758.589 L21.895 782.206 L35.9632 782.206 L35.9632 759.576 L41.3741 759.576 L41.3741 782.206 L58.5933 782.206 L58.5933 758.016 L64.0042 758.016 L64.0042 788.636 L16.4842 788.636 Z" fill="#000000" fill-rule="evenodd" fill-opacity="1" /><path clip-path="url(#clip230)" d="M 0 0 M1180.65 48.0275 L1180.65 51.6733 L1146.38 51.6733 Q1146.86 59.3701 1151 63.421 Q1155.17 67.4314 1162.58 67.4314 Q1166.88 67.4314 1170.89 66.3781 Q1174.94 65.3249 1178.91 63.2184 L1178.91 70.267 Q1174.9 71.9684 1170.68 72.8596 Q1166.47 73.7508 1162.14 73.7508 Q1151.28 73.7508 1144.92 67.4314 Q1138.6 61.1119 1138.6 50.3365 Q1138.6 39.1965 1144.6 32.6746 Q1150.63 26.1121 1160.84 26.1121 Q1170 26.1121 1175.3 32.0264 Q1180.65 37.9003 1180.65 48.0275 M1173.2 45.84 Q1173.11 39.7232 1169.75 36.0774 Q1166.43 32.4315 1160.92 32.4315 Q1154.68 32.4315 1150.92 35.9558 Q1147.19 39.4801 1146.62 45.8805 L1173.2 45.84 Z" fill="#000000" fill-rule="evenodd" fill-opacity="1" /><path clip-path="url(#clip230)" d="M 0 0 M1230.6 45.1919 L1230.6 72.576 L1223.14 72.576 L1223.14 45.4349 Q1223.14 38.994 1220.63 35.7938 Q1218.12 32.5936 1213.1 32.5936 Q1207.06 32.5936 1203.58 36.4419 Q1200.09 40.2903 1200.09 46.9338 L1200.09 72.576 L1192.6 72.576 L1192.6 27.2059 L1200.09 27.2059 L1200.09 34.2544 Q1202.77 30.163 1206.37 28.1376 Q1210.02 26.1121 1214.76 26.1121 Q1222.58 26.1121 1226.59 30.9732 Q1230.6 35.7938 1230.6 45.1919 Z" fill="#000000" fill-rule="evenodd" fill-opacity="1" /><path clip-path="url(#clip230)" d="M 0 0 M1284.27 48.0275 L1284.27 51.6733 L1250 51.6733 Q1250.49 59.3701 1254.62 63.421 Q1258.79 67.4314 1266.2 67.4314 Q1270.5 67.4314 1274.51 66.3781 Q1278.56 65.3249 1282.53 63.2184 L1282.53 70.267 Q1278.52 71.9684 1274.31 72.8596 Q1270.09 73.7508 1265.76 73.7508 Q1254.9 73.7508 1248.54 67.4314 Q1242.22 61.1119 1242.22 50.3365 Q1242.22 39.1965 1248.22 32.6746 Q1254.25 26.1121 1264.46 26.1121 Q1273.62 26.1121 1278.92 32.0264 Q1284.27 37.9003 1284.27 48.0275 M1276.82 45.84 Q1276.74 39.7232 1273.37 36.0774 Q1270.05 32.4315 1264.54 32.4315 Q1258.3 32.4315 1254.54 35.9558 Q1250.81 39.4801 1250.24 45.8805 L1276.82 45.84 Z" fill="#000000" fill-rule="evenodd" fill-opacity="1" /><path clip-path="url(#clip230)" d="M 0 0 M1322.8 34.1734 Q1321.54 33.4443 1320.04 33.1202 Q1318.58 32.7556 1316.8 32.7556 Q1310.48 32.7556 1307.08 36.8875 Q1303.72 40.9789 1303.72 48.6757 L1303.72 72.576 L1296.22 72.576 L1296.22 27.2059 L1303.72 27.2059 L1303.72 34.2544 Q1306.07 30.1225 1309.83 28.1376 Q1313.6 26.1121 1318.99 26.1121 Q1319.76 26.1121 1320.69 26.2337 Q1321.62 26.3147 1322.75 26.5172 L1322.8 34.1734 Z" fill="#000000" fill-rule="evenodd" fill-opacity="1" /><path clip-path="url(#clip230)" d="M 0 0 M1359.01 49.3643 Q1359.01 41.2625 1355.65 36.8065 Q1352.33 32.3505 1346.29 32.3505 Q1340.3 32.3505 1336.93 36.8065 Q1333.61 41.2625 1333.61 49.3643 Q1333.61 57.4256 1336.93 61.8816 Q1340.3 66.3376 1346.29 66.3376 Q1352.33 66.3376 1355.65 61.8816 Q1359.01 57.4256 1359.01 49.3643 M1366.46 66.9452 Q1366.46 78.5308 1361.32 84.1616 Q1356.17 89.8329 1345.56 89.8329 Q1341.63 89.8329 1338.15 89.2252 Q1334.66 88.6581 1331.38 87.4428 L1331.38 80.1917 Q1334.66 81.9741 1337.86 82.8248 Q1341.06 83.6755 1344.39 83.6755 Q1351.72 83.6755 1355.36 79.8271 Q1359.01 76.0193 1359.01 68.282 L1359.01 64.5957 Q1356.7 68.6061 1353.1 70.5911 Q1349.49 72.576 1344.47 72.576 Q1336.12 72.576 1331.02 66.2161 Q1325.91 59.8562 1325.91 49.3643 Q1325.91 38.832 1331.02 32.472 Q1336.12 26.1121 1344.47 26.1121 Q1349.49 26.1121 1353.1 28.0971 Q1356.7 30.082 1359.01 34.0924 L1359.01 27.2059 L1366.46 27.2059 L1366.46 66.9452 Z" fill="#000000" fill-rule="evenodd" fill-opacity="1" /><path clip-path="url(#clip230)" d="M 0 0 M1400.69 76.7889 Q1397.53 84.8907 1394.54 87.3618 Q1391.54 89.8329 1386.52 89.8329 L1380.56 89.8329 L1380.56 83.5945 L1384.94 83.5945 Q1388.01 83.5945 1389.72 82.1361 Q1391.42 80.6778 1393.48 75.2496 L1394.82 71.8468 L1376.47 27.2059 L1384.37 27.2059 L1398.55 62.6918 L1412.73 27.2059 L1420.62 27.2059 L1400.69 76.7889 Z" fill="#000000" fill-rule="evenodd" fill-opacity="1" /><path clip-path="url(#clip230)" d="M 0 0 M1425.69 46.5287 L1447.52 46.5287 L1447.52 53.1722 L1425.69 53.1722 L1425.69 46.5287 Z" fill="#000000" fill-rule="evenodd" fill-opacity="1" /><path clip-path="url(#clip230)" d="M 0 0 M1482.52 9.54393 L1482.52 26.2742 Q1490.58 26.2742 1495.97 32.472 Q1501.52 38.7915 1501.52 49.9314 Q1501.52 61.0714 1495.97 67.3908 Q1490.58 73.5887 1482.52 73.5887 L1482.52 89.8329 L1475.11 89.8329 L1475.11 73.5887 Q1467.05 73.5887 1461.62 67.3908 Q1456.11 61.0714 1456.11 49.9314 Q1456.11 38.7915 1461.62 32.472 Q1467.05 26.2742 1475.11 26.2742 L1475.11 9.54393 L1482.52 9.54393 M1482.52 66.9452 Q1487.1 66.9452 1490.22 62.7728 Q1493.62 58.1143 1493.66 49.9314 Q1493.7 41.8296 1490.22 37.0901 Q1487.1 32.9176 1482.52 32.9176 L1482.52 66.9452 M1475.11 66.9452 L1475.11 32.9176 Q1470.53 32.9176 1467.45 37.0901 Q1463.93 41.8296 1463.97 49.9314 Q1464.01 58.1143 1467.45 62.7728 Q1470.53 66.9452 1475.11 66.9452 Z" fill="#000000" fill-rule="evenodd" fill-opacity="1" /><polyline clip-path="url(#clip232)" style="stroke:#009af9; stroke-width:8; stroke-opacity:1; fill:none" points="
  345.82,162.521 443.244,370.716 540.668,621.809 638.093,857.685 735.517,1059.48 832.941,1218.16 930.365,1327.75 1027.79,1384.44 1125.21,1386.4 1222.64,1333.65 
  1320.06,1228.17 1417.48,1074.05 1514.91,845.85 1612.33,819.135 1709.76,763.319 1807.18,680.559 1904.61,575.424 2002.03,455.314 2099.45,331.439 2196.88,220.696 
  2294.3,160.256 
  "/>
<path clip-path="url(#clip230)" d="
M1927.29 1379.86 L2283.91 1379.86 L2283.91 1258.9 L1927.29 1258.9  Z
  " fill="#ffffff" fill-rule="evenodd" fill-opacity="1"/>
<polyline clip-path="url(#clip230)" style="stroke:#000000; stroke-width:4; stroke-opacity:1; fill:none" points="
  1927.29,1379.86 2283.91,1379.86 2283.91,1258.9 1927.29,1258.9 1927.29,1379.86 
  "/>
<polyline clip-path="url(#clip230)" style="stroke:#009af9; stroke-width:4; stroke-opacity:1; fill:none" points="
  1950.24,1319.38 2087.93,1319.38 
  "/>
<path clip-path="url(#clip230)" d="M 0 0 M2115.56 1305.94 L2115.56 1332.81 L2121.21 1332.81 Q2128.36 1332.81 2131.67 1329.57 Q2135 1326.33 2135 1319.34 Q2135 1312.4 2131.67 1309.18 Q2128.36 1305.94 2121.21 1305.94 L2115.56 1305.94 M2110.88 1302.1 L2120.49 1302.1 Q2130.54 1302.1 2135.23 1306.29 Q2139.93 1310.45 2139.93 1319.34 Q2139.93 1328.28 2135.21 1332.47 Q2130.49 1336.66 2120.49 1336.66 L2110.88 1336.66 L2110.88 1302.1 Z" fill="#000000" fill-rule="evenodd" fill-opacity="1" /><path clip-path="url(#clip230)" d="M 0 0 M2162.83 1315.13 L2192.5 1315.13 L2192.5 1319.02 L2162.83 1319.02 L2162.83 1315.13 M2162.83 1324.57 L2192.5 1324.57 L2192.5 1328.51 L2162.83 1328.51 L2162.83 1324.57 Z" fill="#000000" fill-rule="evenodd" fill-opacity="1" /><path clip-path="url(#clip230)" d="M 0 0 M2221.69 1332.72 L2238.01 1332.72 L2238.01 1336.66 L2216.07 1336.66 L2216.07 1332.72 Q2218.73 1329.97 2223.31 1325.34 Q2227.92 1320.68 2229.1 1319.34 Q2231.35 1316.82 2232.23 1315.08 Q2233.13 1313.32 2233.13 1311.63 Q2233.13 1308.88 2231.18 1307.14 Q2229.26 1305.41 2226.16 1305.41 Q2223.96 1305.41 2221.51 1306.17 Q2219.08 1306.93 2216.3 1308.49 L2216.3 1303.76 Q2219.12 1302.63 2221.58 1302.05 Q2224.03 1301.47 2226.07 1301.47 Q2231.44 1301.47 2234.63 1304.16 Q2237.83 1306.84 2237.83 1311.33 Q2237.83 1313.46 2237.02 1315.38 Q2236.23 1317.28 2234.12 1319.87 Q2233.54 1320.55 2230.44 1323.76 Q2227.34 1326.96 2221.69 1332.72 Z" fill="#000000" fill-rule="evenodd" fill-opacity="1" /></svg>
