<?xml version="1.0" encoding="utf-8"?>
<svg xmlns="http://www.w3.org/2000/svg" xmlns:xlink="http://www.w3.org/1999/xlink" width="600" height="400" viewBox="0 0 2400 1600">
<defs>
  <clipPath id="clip640">
    <rect x="0" y="0" width="2400" height="1600"/>
  </clipPath>
</defs>
<path clip-path="url(#clip640)" d="
M0 1600 L2400 1600 L2400 0 L0 0  Z
  " fill="#ffffff" fill-rule="evenodd" fill-opacity="1"/>
<defs>
  <clipPath id="clip641">
    <rect x="480" y="0" width="1681" height="1600"/>
  </clipPath>
</defs>
<path clip-path="url(#clip640)" d="
M249.542 1423.18 L2352.76 1423.18 L2352.76 123.472 L249.542 123.472  Z
  " fill="#ffffff" fill-rule="evenodd" fill-opacity="1"/>
<defs>
  <clipPath id="clip642">
    <rect x="249" y="123" width="2104" height="1301"/>
  </clipPath>
</defs>
<polyline clip-path="url(#clip642)" style="stroke:#000000; stroke-width:2; stroke-opacity:0.1; fill:none" points="
  309.067,1423.18 309.067,123.472 
  "/>
<polyline clip-path="url(#clip642)" style="stroke:#000000; stroke-width:2; stroke-opacity:0.1; fill:none" points="
  875.971,1423.18 875.971,123.472 
  "/>
<polyline clip-path="url(#clip642)" style="stroke:#000000; stroke-width:2; stroke-opacity:0.1; fill:none" points="
  1442.87,1423.18 1442.87,123.472 
  "/>
<polyline clip-path="url(#clip642)" style="stroke:#000000; stroke-width:2; stroke-opacity:0.1; fill:none" points="
  2009.78,1423.18 2009.78,123.472 
  "/>
<polyline clip-path="url(#clip640)" style="stroke:#000000; stroke-width:4; stroke-opacity:1; fill:none" points="
  249.542,1423.18 2352.76,1423.18 
  "/>
<polyline clip-path="url(#clip640)" style="stroke:#000000; stroke-width:4; stroke-opacity:1; fill:none" points="
  309.067,1423.18 309.067,1407.58 
  "/>
<polyline clip-path="url(#clip640)" style="stroke:#000000; stroke-width:4; stroke-opacity:1; fill:none" points="
  875.971,1423.18 875.971,1407.58 
  "/>
<polyline clip-path="url(#clip640)" style="stroke:#000000; stroke-width:4; stroke-opacity:1; fill:none" points="
  1442.87,1423.18 1442.87,1407.58 
  "/>
<polyline clip-path="url(#clip640)" style="stroke:#000000; stroke-width:4; stroke-opacity:1; fill:none" points="
  2009.78,1423.18 2009.78,1407.58 
  "/>
<path clip-path="url(#clip640)" d="M 0 0 M271.37 1452.37 Q267.759 1452.37 265.931 1455.94 Q264.125 1459.48 264.125 1466.61 Q264.125 1473.71 265.931 1477.28 Q267.759 1480.82 271.37 1480.82 Q275.005 1480.82 276.81 1477.28 Q278.639 1473.71 278.639 1466.61 Q278.639 1459.48 276.81 1455.94 Q275.005 1452.37 271.37 1452.37 M271.37 1448.67 Q277.181 1448.67 280.236 1453.27 Q283.315 1457.86 283.315 1466.61 Q283.315 1475.33 280.236 1479.94 Q277.181 1484.52 271.37 1484.52 Q265.56 1484.52 262.482 1479.94 Q259.426 1475.33 259.426 1466.61 Q259.426 1457.86 262.482 1453.27 Q265.56 1448.67 271.37 1448.67 Z" fill="#000000" fill-rule="evenodd" fill-opacity="1" /><path clip-path="url(#clip640)" d="M 0 0 M291.532 1477.97 L296.417 1477.97 L296.417 1483.85 L291.532 1483.85 L291.532 1477.97 Z" fill="#000000" fill-rule="evenodd" fill-opacity="1" /><path clip-path="url(#clip640)" d="M 0 0 M316.602 1452.37 Q312.991 1452.37 311.162 1455.94 Q309.356 1459.48 309.356 1466.61 Q309.356 1473.71 311.162 1477.28 Q312.991 1480.82 316.602 1480.82 Q320.236 1480.82 322.041 1477.28 Q323.87 1473.71 323.87 1466.61 Q323.87 1459.48 322.041 1455.94 Q320.236 1452.37 316.602 1452.37 M316.602 1448.67 Q322.412 1448.67 325.467 1453.27 Q328.546 1457.86 328.546 1466.61 Q328.546 1475.33 325.467 1479.94 Q322.412 1484.52 316.602 1484.52 Q310.791 1484.52 307.713 1479.94 Q304.657 1475.33 304.657 1466.61 Q304.657 1457.86 307.713 1453.27 Q310.791 1448.67 316.602 1448.67 Z" fill="#000000" fill-rule="evenodd" fill-opacity="1" /><path clip-path="url(#clip640)" d="M 0 0 M346.764 1452.37 Q343.152 1452.37 341.324 1455.94 Q339.518 1459.48 339.518 1466.61 Q339.518 1473.71 341.324 1477.28 Q343.152 1480.82 346.764 1480.82 Q350.398 1480.82 352.203 1477.28 Q354.032 1473.71 354.032 1466.61 Q354.032 1459.48 352.203 1455.94 Q350.398 1452.37 346.764 1452.37 M346.764 1448.67 Q352.574 1448.67 355.629 1453.27 Q358.708 1457.86 358.708 1466.61 Q358.708 1475.33 355.629 1479.94 Q352.574 1484.52 346.764 1484.52 Q340.953 1484.52 337.875 1479.94 Q334.819 1475.33 334.819 1466.61 Q334.819 1457.86 337.875 1453.27 Q340.953 1448.67 346.764 1448.67 Z" fill="#000000" fill-rule="evenodd" fill-opacity="1" /><path clip-path="url(#clip640)" d="M 0 0 M838.888 1452.37 Q835.277 1452.37 833.448 1455.94 Q831.642 1459.48 831.642 1466.61 Q831.642 1473.71 833.448 1477.28 Q835.277 1480.82 838.888 1480.82 Q842.522 1480.82 844.328 1477.28 Q846.156 1473.71 846.156 1466.61 Q846.156 1459.48 844.328 1455.94 Q842.522 1452.37 838.888 1452.37 M838.888 1448.67 Q844.698 1448.67 847.754 1453.27 Q850.832 1457.86 850.832 1466.61 Q850.832 1475.33 847.754 1479.94 Q844.698 1484.52 838.888 1484.52 Q833.078 1484.52 829.999 1479.94 Q826.943 1475.33 826.943 1466.61 Q826.943 1457.86 829.999 1453.27 Q833.078 1448.67 838.888 1448.67 Z" fill="#000000" fill-rule="evenodd" fill-opacity="1" /><path clip-path="url(#clip640)" d="M 0 0 M859.05 1477.97 L863.934 1477.97 L863.934 1483.85 L859.05 1483.85 L859.05 1477.97 Z" fill="#000000" fill-rule="evenodd" fill-opacity="1" /><path clip-path="url(#clip640)" d="M 0 0 M884.119 1452.37 Q880.508 1452.37 878.679 1455.94 Q876.874 1459.48 876.874 1466.61 Q876.874 1473.71 878.679 1477.28 Q880.508 1480.82 884.119 1480.82 Q887.753 1480.82 889.559 1477.28 Q891.388 1473.71 891.388 1466.61 Q891.388 1459.48 889.559 1455.94 Q887.753 1452.37 884.119 1452.37 M884.119 1448.67 Q889.929 1448.67 892.985 1453.27 Q896.063 1457.86 896.063 1466.61 Q896.063 1475.33 892.985 1479.94 Q889.929 1484.52 884.119 1484.52 Q878.309 1484.52 875.23 1479.94 Q872.175 1475.33 872.175 1466.61 Q872.175 1457.86 875.23 1453.27 Q878.309 1448.67 884.119 1448.67 Z" fill="#000000" fill-rule="evenodd" fill-opacity="1" /><path clip-path="url(#clip640)" d="M 0 0 M905.091 1479.92 L912.73 1479.92 L912.73 1453.55 L904.42 1455.22 L904.42 1450.96 L912.684 1449.29 L917.36 1449.29 L917.36 1479.92 L924.998 1479.92 L924.998 1483.85 L905.091 1483.85 L905.091 1479.92 Z" fill="#000000" fill-rule="evenodd" fill-opacity="1" /><path clip-path="url(#clip640)" d="M 0 0 M1405.98 1452.37 Q1402.37 1452.37 1400.54 1455.94 Q1398.73 1459.48 1398.73 1466.61 Q1398.73 1473.71 1400.54 1477.28 Q1402.37 1480.82 1405.98 1480.82 Q1409.61 1480.82 1411.42 1477.28 Q1413.25 1473.71 1413.25 1466.61 Q1413.25 1459.48 1411.42 1455.94 Q1409.61 1452.37 1405.98 1452.37 M1405.98 1448.67 Q1411.79 1448.67 1414.84 1453.27 Q1417.92 1457.86 1417.92 1466.61 Q1417.92 1475.33 1414.84 1479.94 Q1411.79 1484.52 1405.98 1484.52 Q1400.17 1484.52 1397.09 1479.94 Q1394.03 1475.33 1394.03 1466.61 Q1394.03 1457.86 1397.09 1453.27 Q1400.17 1448.67 1405.98 1448.67 Z" fill="#000000" fill-rule="evenodd" fill-opacity="1" /><path clip-path="url(#clip640)" d="M 0 0 M1426.14 1477.97 L1431.02 1477.97 L1431.02 1483.85 L1426.14 1483.85 L1426.14 1477.97 Z" fill="#000000" fill-rule="evenodd" fill-opacity="1" /><path clip-path="url(#clip640)" d="M 0 0 M1451.21 1452.37 Q1447.6 1452.37 1445.77 1455.94 Q1443.96 1459.48 1443.96 1466.61 Q1443.96 1473.71 1445.77 1477.28 Q1447.6 1480.82 1451.21 1480.82 Q1454.84 1480.82 1456.65 1477.28 Q1458.48 1473.71 1458.48 1466.61 Q1458.48 1459.48 1456.65 1455.94 Q1454.84 1452.37 1451.21 1452.37 M1451.21 1448.67 Q1457.02 1448.67 1460.07 1453.27 Q1463.15 1457.86 1463.15 1466.61 Q1463.15 1475.33 1460.07 1479.94 Q1457.02 1484.52 1451.21 1484.52 Q1445.4 1484.52 1442.32 1479.94 Q1439.26 1475.33 1439.26 1466.61 Q1439.26 1457.86 1442.32 1453.27 Q1445.4 1448.67 1451.21 1448.67 Z" fill="#000000" fill-rule="evenodd" fill-opacity="1" /><path clip-path="url(#clip640)" d="M 0 0 M1475.4 1479.92 L1491.72 1479.92 L1491.72 1483.85 L1469.77 1483.85 L1469.77 1479.92 Q1472.43 1477.16 1477.02 1472.53 Q1481.62 1467.88 1482.81 1466.54 Q1485.05 1464.01 1485.93 1462.28 Q1486.83 1460.52 1486.83 1458.83 Q1486.83 1456.07 1484.89 1454.34 Q1482.97 1452.6 1479.87 1452.6 Q1477.67 1452.6 1475.21 1453.37 Q1472.78 1454.13 1470 1455.68 L1470 1450.96 Q1472.83 1449.82 1475.28 1449.25 Q1477.74 1448.67 1479.77 1448.67 Q1485.14 1448.67 1488.34 1451.35 Q1491.53 1454.04 1491.53 1458.53 Q1491.53 1460.66 1490.72 1462.58 Q1489.93 1464.48 1487.83 1467.07 Q1487.25 1467.74 1484.15 1470.96 Q1481.05 1474.15 1475.4 1479.92 Z" fill="#000000" fill-rule="evenodd" fill-opacity="1" /><path clip-path="url(#clip640)" d="M 0 0 M1972.41 1452.37 Q1968.8 1452.37 1966.97 1455.94 Q1965.16 1459.48 1965.16 1466.61 Q1965.16 1473.71 1966.97 1477.28 Q1968.8 1480.82 1972.41 1480.82 Q1976.04 1480.82 1977.85 1477.28 Q1979.67 1473.71 1979.67 1466.61 Q1979.67 1459.48 1977.85 1455.94 Q1976.04 1452.37 1972.41 1452.37 M1972.41 1448.67 Q1978.22 1448.67 1981.27 1453.27 Q1984.35 1457.86 1984.35 1466.61 Q1984.35 1475.33 1981.27 1479.94 Q1978.22 1484.52 1972.41 1484.52 Q1966.6 1484.52 1963.52 1479.94 Q1960.46 1475.33 1960.46 1466.61 Q1960.46 1457.86 1963.52 1453.27 Q1966.6 1448.67 1972.41 1448.67 Z" fill="#000000" fill-rule="evenodd" fill-opacity="1" /><path clip-path="url(#clip640)" d="M 0 0 M1992.57 1477.97 L1997.45 1477.97 L1997.45 1483.85 L1992.57 1483.85 L1992.57 1477.97 Z" fill="#000000" fill-rule="evenodd" fill-opacity="1" /><path clip-path="url(#clip640)" d="M 0 0 M2017.64 1452.37 Q2014.03 1452.37 2012.2 1455.94 Q2010.39 1459.48 2010.39 1466.61 Q2010.39 1473.71 2012.2 1477.28 Q2014.03 1480.82 2017.64 1480.82 Q2021.27 1480.82 2023.08 1477.28 Q2024.91 1473.71 2024.91 1466.61 Q2024.91 1459.48 2023.08 1455.94 Q2021.27 1452.37 2017.64 1452.37 M2017.64 1448.67 Q2023.45 1448.67 2026.5 1453.27 Q2029.58 1457.86 2029.58 1466.61 Q2029.58 1475.33 2026.5 1479.94 Q2023.45 1484.52 2017.64 1484.52 Q2011.83 1484.52 2008.75 1479.94 Q2005.69 1475.33 2005.69 1466.61 Q2005.69 1457.86 2008.75 1453.27 Q2011.83 1448.67 2017.64 1448.67 Z" fill="#000000" fill-rule="evenodd" fill-opacity="1" /><path clip-path="url(#clip640)" d="M 0 0 M2051.97 1465.22 Q2055.32 1465.94 2057.2 1468.2 Q2059.1 1470.47 2059.1 1473.81 Q2059.1 1478.92 2055.58 1481.72 Q2052.06 1484.52 2045.58 1484.52 Q2043.4 1484.52 2041.09 1484.08 Q2038.8 1483.67 2036.34 1482.81 L2036.34 1478.3 Q2038.29 1479.43 2040.6 1480.01 Q2042.92 1480.59 2045.44 1480.59 Q2049.84 1480.59 2052.13 1478.85 Q2054.44 1477.12 2054.44 1473.81 Q2054.44 1470.75 2052.29 1469.04 Q2050.16 1467.3 2046.34 1467.3 L2042.31 1467.3 L2042.31 1463.46 L2046.53 1463.46 Q2049.98 1463.46 2051.8 1462.09 Q2053.63 1460.7 2053.63 1458.11 Q2053.63 1455.45 2051.73 1454.04 Q2049.86 1452.6 2046.34 1452.6 Q2044.42 1452.6 2042.22 1453.02 Q2040.02 1453.44 2037.38 1454.31 L2037.38 1450.15 Q2040.05 1449.41 2042.36 1449.04 Q2044.7 1448.67 2046.76 1448.67 Q2052.08 1448.67 2055.18 1451.1 Q2058.29 1453.5 2058.29 1457.63 Q2058.29 1460.5 2056.64 1462.49 Q2055 1464.45 2051.97 1465.22 Z" fill="#000000" fill-rule="evenodd" fill-opacity="1" /><path clip-path="url(#clip640)" d="M 0 0 M1179.34 1518.52 L1179.34 1531.66 Q1185.68 1531.66 1189.91 1536.53 Q1194.27 1541.5 1194.27 1550.25 Q1194.27 1559 1189.91 1563.97 Q1185.68 1568.84 1179.34 1568.84 L1179.34 1581.6 L1173.52 1581.6 L1173.52 1568.84 Q1167.18 1568.84 1162.92 1563.97 Q1158.59 1559 1158.59 1550.25 Q1158.59 1541.5 1162.92 1536.53 Q1167.18 1531.66 1173.52 1531.66 L1173.52 1518.52 L1179.34 1518.52 M1179.34 1563.62 Q1182.94 1563.62 1185.39 1560.34 Q1188.06 1556.68 1188.09 1550.25 Q1188.13 1543.89 1185.39 1540.16 Q1182.94 1536.88 1179.34 1536.88 L1179.34 1563.62 M1173.52 1563.62 L1173.52 1536.88 Q1169.92 1536.88 1167.5 1540.16 Q1164.73 1543.89 1164.76 1550.25 Q1164.8 1556.68 1167.5 1560.34 Q1169.92 1563.62 1173.52 1563.62 Z" fill="#000000" fill-rule="evenodd" fill-opacity="1" /><path clip-path="url(#clip640)" d="M 0 0 M1248.35 1537.81 L1248.35 1518.52 L1254.2 1518.52 L1254.2 1568.04 L1248.35 1568.04 L1248.35 1562.7 Q1246.5 1565.88 1243.67 1567.44 Q1240.87 1568.97 1236.92 1568.97 Q1230.46 1568.97 1226.38 1563.81 Q1222.34 1558.65 1222.34 1550.25 Q1222.34 1541.85 1226.38 1536.69 Q1230.46 1531.54 1236.92 1531.54 Q1240.87 1531.54 1243.67 1533.1 Q1246.5 1534.62 1248.35 1537.81 M1228.39 1550.25 Q1228.39 1556.71 1231.03 1560.4 Q1233.7 1564.07 1238.35 1564.07 Q1243 1564.07 1245.67 1560.4 Q1248.35 1556.71 1248.35 1550.25 Q1248.35 1543.79 1245.67 1540.13 Q1243 1536.44 1238.35 1536.44 Q1233.7 1536.44 1231.03 1540.13 Q1228.39 1543.79 1228.39 1550.25 Z" fill="#000000" fill-rule="evenodd" fill-opacity="1" /><path clip-path="url(#clip640)" d="M 0 0 M1296.76 1548.76 L1296.76 1551.62 L1269.83 1551.62 Q1270.21 1557.67 1273.46 1560.85 Q1276.74 1564 1282.56 1564 Q1285.93 1564 1289.09 1563.17 Q1292.27 1562.35 1295.39 1560.69 L1295.39 1566.23 Q1292.24 1567.57 1288.93 1568.27 Q1285.62 1568.97 1282.21 1568.97 Q1273.68 1568.97 1268.68 1564 Q1263.72 1559.04 1263.72 1550.57 Q1263.72 1541.82 1268.43 1536.69 Q1273.17 1531.54 1281.19 1531.54 Q1288.39 1531.54 1292.56 1536.18 Q1296.76 1540.8 1296.76 1548.76 M1290.9 1547.04 Q1290.84 1542.23 1288.19 1539.37 Q1285.58 1536.5 1281.26 1536.5 Q1276.35 1536.5 1273.39 1539.27 Q1270.47 1542.04 1270.02 1547.07 L1290.9 1547.04 Z" fill="#000000" fill-rule="evenodd" fill-opacity="1" /><path clip-path="url(#clip640)" d="M 0 0 M1329.83 1549.81 Q1329.83 1543.44 1327.18 1539.94 Q1324.57 1536.44 1319.83 1536.44 Q1315.12 1536.44 1312.48 1539.94 Q1309.87 1543.44 1309.87 1549.81 Q1309.87 1556.14 1312.48 1559.64 Q1315.12 1563.14 1319.83 1563.14 Q1324.57 1563.14 1327.18 1559.64 Q1329.83 1556.14 1329.83 1549.81 M1335.68 1563.62 Q1335.68 1572.72 1331.64 1577.15 Q1327.6 1581.6 1319.26 1581.6 Q1316.17 1581.6 1313.43 1581.13 Q1310.7 1580.68 1308.12 1579.72 L1308.12 1574.03 Q1310.7 1575.43 1313.21 1576.1 Q1315.73 1576.76 1318.34 1576.76 Q1324.1 1576.76 1326.96 1573.74 Q1329.83 1570.75 1329.83 1564.67 L1329.83 1561.77 Q1328.01 1564.92 1325.18 1566.48 Q1322.35 1568.04 1318.4 1568.04 Q1311.84 1568.04 1307.83 1563.05 Q1303.82 1558.05 1303.82 1549.81 Q1303.82 1541.53 1307.83 1536.53 Q1311.84 1531.54 1318.4 1531.54 Q1322.35 1531.54 1325.18 1533.1 Q1328.01 1534.66 1329.83 1537.81 L1329.83 1532.4 L1335.68 1532.4 L1335.68 1563.62 Z" fill="#000000" fill-rule="evenodd" fill-opacity="1" /><path clip-path="url(#clip640)" d="M 0 0 M1368.4 1537.87 Q1367.42 1537.3 1366.24 1537.04 Q1365.09 1536.76 1363.69 1536.76 Q1358.73 1536.76 1356.05 1540 Q1353.41 1543.22 1353.41 1549.27 L1353.41 1568.04 L1347.52 1568.04 L1347.52 1532.4 L1353.41 1532.4 L1353.41 1537.93 Q1355.26 1534.69 1358.22 1533.13 Q1361.18 1531.54 1365.41 1531.54 Q1366.02 1531.54 1366.75 1531.63 Q1367.48 1531.7 1368.37 1531.85 L1368.4 1537.87 Z" fill="#000000" fill-rule="evenodd" fill-opacity="1" /><path clip-path="url(#clip640)" d="M 0 0 M1403.61 1548.76 L1403.61 1551.62 L1376.68 1551.62 Q1377.06 1557.67 1380.31 1560.85 Q1383.58 1564 1389.41 1564 Q1392.78 1564 1395.93 1563.17 Q1399.12 1562.35 1402.24 1560.69 L1402.24 1566.23 Q1399.09 1567.57 1395.78 1568.27 Q1392.47 1568.97 1389.06 1568.97 Q1380.53 1568.97 1375.53 1564 Q1370.57 1559.04 1370.57 1550.57 Q1370.57 1541.82 1375.28 1536.69 Q1380.02 1531.54 1388.04 1531.54 Q1395.23 1531.54 1399.4 1536.18 Q1403.61 1540.8 1403.61 1548.76 M1397.75 1547.04 Q1397.68 1542.23 1395.04 1539.37 Q1392.43 1536.5 1388.1 1536.5 Q1383.2 1536.5 1380.24 1539.27 Q1377.31 1542.04 1376.87 1547.07 L1397.75 1547.04 Z" fill="#000000" fill-rule="evenodd" fill-opacity="1" /><path clip-path="url(#clip640)" d="M 0 0 M1443.71 1548.76 L1443.71 1551.62 L1416.78 1551.62 Q1417.16 1557.67 1420.41 1560.85 Q1423.69 1564 1429.51 1564 Q1432.89 1564 1436.04 1563.17 Q1439.22 1562.35 1442.34 1560.69 L1442.34 1566.23 Q1439.19 1567.57 1435.88 1568.27 Q1432.57 1568.97 1429.16 1568.97 Q1420.63 1568.97 1415.64 1564 Q1410.67 1559.04 1410.67 1550.57 Q1410.67 1541.82 1415.38 1536.69 Q1420.12 1531.54 1428.14 1531.54 Q1435.34 1531.54 1439.51 1536.18 Q1443.71 1540.8 1443.71 1548.76 M1437.85 1547.04 Q1437.79 1542.23 1435.15 1539.37 Q1432.54 1536.5 1428.21 1536.5 Q1423.31 1536.5 1420.35 1539.27 Q1417.42 1542.04 1416.97 1547.07 L1437.85 1547.04 Z" fill="#000000" fill-rule="evenodd" fill-opacity="1" /><polyline clip-path="url(#clip642)" style="stroke:#000000; stroke-width:2; stroke-opacity:0.1; fill:none" points="
  249.542,1387.72 2352.76,1387.72 
  "/>
<polyline clip-path="url(#clip642)" style="stroke:#000000; stroke-width:2; stroke-opacity:0.1; fill:none" points="
  249.542,993.68 2352.76,993.68 
  "/>
<polyline clip-path="url(#clip642)" style="stroke:#000000; stroke-width:2; stroke-opacity:0.1; fill:none" points="
  249.542,599.638 2352.76,599.638 
  "/>
<polyline clip-path="url(#clip642)" style="stroke:#000000; stroke-width:2; stroke-opacity:0.1; fill:none" points="
  249.542,205.596 2352.76,205.596 
  "/>
<polyline clip-path="url(#clip640)" style="stroke:#000000; stroke-width:4; stroke-opacity:1; fill:none" points="
  249.542,1423.18 249.542,123.472 
  "/>
<polyline clip-path="url(#clip640)" style="stroke:#000000; stroke-width:4; stroke-opacity:1; fill:none" points="
  249.542,1387.72 274.781,1387.72 
  "/>
<polyline clip-path="url(#clip640)" style="stroke:#000000; stroke-width:4; stroke-opacity:1; fill:none" points="
  249.542,993.68 274.781,993.68 
  "/>
<polyline clip-path="url(#clip640)" style="stroke:#000000; stroke-width:4; stroke-opacity:1; fill:none" points="
  249.542,599.638 274.781,599.638 
  "/>
<polyline clip-path="url(#clip640)" style="stroke:#000000; stroke-width:4; stroke-opacity:1; fill:none" points="
  249.542,205.596 274.781,205.596 
  "/>
<path clip-path="url(#clip640)" d="M 0 0 M126.205 1373.52 Q122.593 1373.52 120.765 1377.09 Q118.959 1380.63 118.959 1387.76 Q118.959 1394.86 120.765 1398.43 Q122.593 1401.97 126.205 1401.97 Q129.839 1401.97 131.644 1398.43 Q133.473 1394.86 133.473 1387.76 Q133.473 1380.63 131.644 1377.09 Q129.839 1373.52 126.205 1373.52 M126.205 1369.82 Q132.015 1369.82 135.07 1374.42 Q138.149 1379.01 138.149 1387.76 Q138.149 1396.48 135.07 1401.09 Q132.015 1405.67 126.205 1405.67 Q120.394 1405.67 117.316 1401.09 Q114.26 1396.48 114.26 1387.76 Q114.26 1379.01 117.316 1374.42 Q120.394 1369.82 126.205 1369.82 Z" fill="#000000" fill-rule="evenodd" fill-opacity="1" /><path clip-path="url(#clip640)" d="M 0 0 M146.366 1399.12 L151.251 1399.12 L151.251 1405 L146.366 1405 L146.366 1399.12 Z" fill="#000000" fill-rule="evenodd" fill-opacity="1" /><path clip-path="url(#clip640)" d="M 0 0 M171.436 1373.52 Q167.825 1373.52 165.996 1377.09 Q164.19 1380.63 164.19 1387.76 Q164.19 1394.86 165.996 1398.43 Q167.825 1401.97 171.436 1401.97 Q175.07 1401.97 176.876 1398.43 Q178.704 1394.86 178.704 1387.76 Q178.704 1380.63 176.876 1377.09 Q175.07 1373.52 171.436 1373.52 M171.436 1369.82 Q177.246 1369.82 180.301 1374.42 Q183.38 1379.01 183.38 1387.76 Q183.38 1396.48 180.301 1401.09 Q177.246 1405.67 171.436 1405.67 Q165.626 1405.67 162.547 1401.09 Q159.491 1396.48 159.491 1387.76 Q159.491 1379.01 162.547 1374.42 Q165.626 1369.82 171.436 1369.82 Z" fill="#000000" fill-rule="evenodd" fill-opacity="1" /><path clip-path="url(#clip640)" d="M 0 0 M201.598 1373.52 Q197.987 1373.52 196.158 1377.09 Q194.352 1380.63 194.352 1387.76 Q194.352 1394.86 196.158 1398.43 Q197.987 1401.97 201.598 1401.97 Q205.232 1401.97 207.037 1398.43 Q208.866 1394.86 208.866 1387.76 Q208.866 1380.63 207.037 1377.09 Q205.232 1373.52 201.598 1373.52 M201.598 1369.82 Q207.408 1369.82 210.463 1374.42 Q213.542 1379.01 213.542 1387.76 Q213.542 1396.48 210.463 1401.09 Q207.408 1405.67 201.598 1405.67 Q195.787 1405.67 192.709 1401.09 Q189.653 1396.48 189.653 1387.76 Q189.653 1379.01 192.709 1374.42 Q195.787 1369.82 201.598 1369.82 Z" fill="#000000" fill-rule="evenodd" fill-opacity="1" /><path clip-path="url(#clip640)" d="M 0 0 M127.2 979.479 Q123.589 979.479 121.76 983.044 Q119.955 986.585 119.955 993.715 Q119.955 1000.82 121.76 1004.39 Q123.589 1007.93 127.2 1007.93 Q130.834 1007.93 132.64 1004.39 Q134.468 1000.82 134.468 993.715 Q134.468 986.585 132.64 983.044 Q130.834 979.479 127.2 979.479 M127.2 975.775 Q133.01 975.775 136.066 980.382 Q139.144 984.965 139.144 993.715 Q139.144 1002.44 136.066 1007.05 Q133.01 1011.63 127.2 1011.63 Q121.39 1011.63 118.311 1007.05 Q115.256 1002.44 115.256 993.715 Q115.256 984.965 118.311 980.382 Q121.39 975.775 127.2 975.775 Z" fill="#000000" fill-rule="evenodd" fill-opacity="1" /><path clip-path="url(#clip640)" d="M 0 0 M147.362 1005.08 L152.246 1005.08 L152.246 1010.96 L147.362 1010.96 L147.362 1005.08 Z" fill="#000000" fill-rule="evenodd" fill-opacity="1" /><path clip-path="url(#clip640)" d="M 0 0 M172.431 979.479 Q168.82 979.479 166.991 983.044 Q165.186 986.585 165.186 993.715 Q165.186 1000.82 166.991 1004.39 Q168.82 1007.93 172.431 1007.93 Q176.065 1007.93 177.871 1004.39 Q179.7 1000.82 179.7 993.715 Q179.7 986.585 177.871 983.044 Q176.065 979.479 172.431 979.479 M172.431 975.775 Q178.241 975.775 181.297 980.382 Q184.376 984.965 184.376 993.715 Q184.376 1002.44 181.297 1007.05 Q178.241 1011.63 172.431 1011.63 Q166.621 1011.63 163.542 1007.05 Q160.487 1002.44 160.487 993.715 Q160.487 984.965 163.542 980.382 Q166.621 975.775 172.431 975.775 Z" fill="#000000" fill-rule="evenodd" fill-opacity="1" /><path clip-path="url(#clip640)" d="M 0 0 M192.639 976.4 L210.996 976.4 L210.996 980.335 L196.922 980.335 L196.922 988.807 Q197.94 988.46 198.959 988.298 Q199.977 988.113 200.996 988.113 Q206.783 988.113 210.162 991.284 Q213.542 994.456 213.542 999.872 Q213.542 1005.45 210.07 1008.55 Q206.598 1011.63 200.278 1011.63 Q198.102 1011.63 195.834 1011.26 Q193.588 1010.89 191.181 1010.15 L191.181 1005.45 Q193.264 1006.59 195.487 1007.14 Q197.709 1007.7 200.186 1007.7 Q204.19 1007.7 206.528 1005.59 Q208.866 1003.48 208.866 999.872 Q208.866 996.261 206.528 994.155 Q204.19 992.048 200.186 992.048 Q198.311 992.048 196.436 992.465 Q194.584 992.881 192.639 993.761 L192.639 976.4 Z" fill="#000000" fill-rule="evenodd" fill-opacity="1" /><path clip-path="url(#clip640)" d="M 0 0 M126.205 585.437 Q122.593 585.437 120.765 589.001 Q118.959 592.543 118.959 599.673 Q118.959 606.779 120.765 610.344 Q122.593 613.886 126.205 613.886 Q129.839 613.886 131.644 610.344 Q133.473 606.779 133.473 599.673 Q133.473 592.543 131.644 589.001 Q129.839 585.437 126.205 585.437 M126.205 581.733 Q132.015 581.733 135.07 586.339 Q138.149 590.923 138.149 599.673 Q138.149 608.399 135.07 613.006 Q132.015 617.589 126.205 617.589 Q120.394 617.589 117.316 613.006 Q114.26 608.399 114.26 599.673 Q114.26 590.923 117.316 586.339 Q120.394 581.733 126.205 581.733 Z" fill="#000000" fill-rule="evenodd" fill-opacity="1" /><path clip-path="url(#clip640)" d="M 0 0 M146.366 611.038 L151.251 611.038 L151.251 616.918 L146.366 616.918 L146.366 611.038 Z" fill="#000000" fill-rule="evenodd" fill-opacity="1" /><path clip-path="url(#clip640)" d="M 0 0 M162.246 612.983 L169.885 612.983 L169.885 586.617 L161.575 588.284 L161.575 584.025 L169.839 582.358 L174.514 582.358 L174.514 612.983 L182.153 612.983 L182.153 616.918 L162.246 616.918 L162.246 612.983 Z" fill="#000000" fill-rule="evenodd" fill-opacity="1" /><path clip-path="url(#clip640)" d="M 0 0 M201.598 585.437 Q197.987 585.437 196.158 589.001 Q194.352 592.543 194.352 599.673 Q194.352 606.779 196.158 610.344 Q197.987 613.886 201.598 613.886 Q205.232 613.886 207.037 610.344 Q208.866 606.779 208.866 599.673 Q208.866 592.543 207.037 589.001 Q205.232 585.437 201.598 585.437 M201.598 581.733 Q207.408 581.733 210.463 586.339 Q213.542 590.923 213.542 599.673 Q213.542 608.399 210.463 613.006 Q207.408 617.589 201.598 617.589 Q195.787 617.589 192.709 613.006 Q189.653 608.399 189.653 599.673 Q189.653 590.923 192.709 586.339 Q195.787 581.733 201.598 581.733 Z" fill="#000000" fill-rule="evenodd" fill-opacity="1" /><path clip-path="url(#clip640)" d="M 0 0 M127.2 191.394 Q123.589 191.394 121.76 194.959 Q119.955 198.501 119.955 205.63 Q119.955 212.737 121.76 216.302 Q123.589 219.843 127.2 219.843 Q130.834 219.843 132.64 216.302 Q134.468 212.737 134.468 205.63 Q134.468 198.501 132.64 194.959 Q130.834 191.394 127.2 191.394 M127.2 187.691 Q133.01 187.691 136.066 192.297 Q139.144 196.881 139.144 205.63 Q139.144 214.357 136.066 218.964 Q133.01 223.547 127.2 223.547 Q121.39 223.547 118.311 218.964 Q115.256 214.357 115.256 205.63 Q115.256 196.881 118.311 192.297 Q121.39 187.691 127.2 187.691 Z" fill="#000000" fill-rule="evenodd" fill-opacity="1" /><path clip-path="url(#clip640)" d="M 0 0 M147.362 216.996 L152.246 216.996 L152.246 222.876 L147.362 222.876 L147.362 216.996 Z" fill="#000000" fill-rule="evenodd" fill-opacity="1" /><path clip-path="url(#clip640)" d="M 0 0 M163.241 218.941 L170.88 218.941 L170.88 192.575 L162.57 194.242 L162.57 189.982 L170.834 188.316 L175.51 188.316 L175.51 218.941 L183.149 218.941 L183.149 222.876 L163.241 222.876 L163.241 218.941 Z" fill="#000000" fill-rule="evenodd" fill-opacity="1" /><path clip-path="url(#clip640)" d="M 0 0 M192.639 188.316 L210.996 188.316 L210.996 192.251 L196.922 192.251 L196.922 200.723 Q197.94 200.376 198.959 200.214 Q199.977 200.029 200.996 200.029 Q206.783 200.029 210.162 203.2 Q213.542 206.371 213.542 211.788 Q213.542 217.367 210.07 220.468 Q206.598 223.547 200.278 223.547 Q198.102 223.547 195.834 223.177 Q193.588 222.806 191.181 222.066 L191.181 217.367 Q193.264 218.501 195.487 219.056 Q197.709 219.612 200.186 219.612 Q204.19 219.612 206.528 217.505 Q208.866 215.399 208.866 211.788 Q208.866 208.177 206.528 206.07 Q204.19 203.964 200.186 203.964 Q198.311 203.964 196.436 204.38 Q194.584 204.797 192.639 205.677 L192.639 188.316 Z" fill="#000000" fill-rule="evenodd" fill-opacity="1" /><path clip-path="url(#clip640)" d="M 0 0 M20.8447 1037.41 Q20.8447 1044.41 26.0645 1048.55 Q31.2844 1052.65 40.2919 1052.65 Q49.2675 1052.65 54.4874 1048.55 Q59.7073 1044.41 59.7073 1037.41 Q59.7073 1030.41 54.4874 1026.33 Q49.2675 1022.23 40.2919 1022.23 Q31.2844 1022.23 26.0645 1026.33 Q20.8447 1030.41 20.8447 1037.41 M15.6248 1037.41 Q15.6248 1027.41 22.3406 1021.43 Q29.0246 1015.45 40.2919 1015.45 Q51.5274 1015.45 58.2432 1021.43 Q64.9272 1027.41 64.9272 1037.41 Q64.9272 1047.43 58.2432 1053.45 Q51.5592 1059.43 40.2919 1059.43 Q29.0246 1059.43 22.3406 1053.45 Q15.6248 1047.43 15.6248 1037.41 Z" fill="#000000" fill-rule="evenodd" fill-opacity="1" /><path clip-path="url(#clip640)" d="M 0 0 M33.8307 984.986 Q33.2578 985.972 33.0032 987.15 Q32.7167 988.296 32.7167 989.696 Q32.7167 994.662 35.9632 997.335 Q39.1779 999.977 45.2253 999.977 L64.0042 999.977 L64.0042 1005.87 L28.3562 1005.87 L28.3562 999.977 L33.8944 999.977 Q30.6479 998.131 29.0883 995.171 Q27.4968 992.211 27.4968 987.978 Q27.4968 987.373 27.5923 986.641 Q27.656 985.909 27.8151 985.018 L33.8307 984.986 Z" fill="#000000" fill-rule="evenodd" fill-opacity="1" /><path clip-path="url(#clip640)" d="M 0 0 M33.7671 956.531 L14.479 956.531 L14.479 950.675 L64.0042 950.675 L64.0042 956.531 L58.657 956.531 Q61.8398 958.377 63.3994 961.21 Q64.9272 964.011 64.9272 967.957 Q64.9272 974.419 59.771 978.493 Q54.6147 982.535 46.212 982.535 Q37.8093 982.535 32.6531 978.493 Q27.4968 974.419 27.4968 967.957 Q27.4968 964.011 29.0564 961.21 Q30.5842 958.377 33.7671 956.531 M46.212 976.488 Q52.6732 976.488 56.3653 973.846 Q60.0256 971.172 60.0256 966.525 Q60.0256 961.878 56.3653 959.205 Q52.6732 956.531 46.212 956.531 Q39.7508 956.531 36.0905 959.205 Q32.3984 961.878 32.3984 966.525 Q32.3984 971.172 36.0905 973.846 Q39.7508 976.488 46.212 976.488 Z" fill="#000000" fill-rule="evenodd" fill-opacity="1" /><path clip-path="url(#clip640)" d="M 0 0 M44.7161 908.12 L47.5806 908.12 L47.5806 935.047 Q53.6281 934.665 56.8109 931.418 Q59.9619 928.14 59.9619 922.315 Q59.9619 918.942 59.1344 915.79 Q58.3069 912.608 56.6518 909.488 L62.1899 909.488 Q63.5267 912.639 64.227 915.95 Q64.9272 919.26 64.9272 922.665 Q64.9272 931.196 59.9619 936.193 Q54.9967 941.158 46.5303 941.158 Q37.7774 941.158 32.6531 936.447 Q27.4968 931.705 27.4968 923.684 Q27.4968 916.491 32.1438 912.321 Q36.7589 908.12 44.7161 908.12 M42.9973 913.976 Q38.1912 914.04 35.3266 916.682 Q32.4621 919.292 32.4621 923.62 Q32.4621 928.522 35.2312 931.482 Q38.0002 934.41 43.0292 934.856 L42.9973 913.976 Z" fill="#000000" fill-rule="evenodd" fill-opacity="1" /><path clip-path="url(#clip640)" d="M 0 0 M33.8307 877.851 Q33.2578 878.838 33.0032 880.015 Q32.7167 881.161 32.7167 882.562 Q32.7167 887.527 35.9632 890.2 Q39.1779 892.842 45.2253 892.842 L64.0042 892.842 L64.0042 898.73 L28.3562 898.73 L28.3562 892.842 L33.8944 892.842 Q30.6479 890.996 29.0883 888.036 Q27.4968 885.076 27.4968 880.843 Q27.4968 880.238 27.5923 879.506 Q27.656 878.774 27.8151 877.883 L33.8307 877.851 Z" fill="#000000" fill-rule="evenodd" fill-opacity="1" /><path clip-path="url(#clip640)" d="M 0 0 M21.7677 844.304 L39.6235 844.304 L39.6235 836.219 Q39.6235 831.731 37.3 829.281 Q34.9765 826.83 30.6797 826.83 Q26.4147 826.83 24.0912 829.281 Q21.7677 831.731 21.7677 836.219 L21.7677 844.304 M16.4842 850.733 L16.4842 836.219 Q16.4842 828.23 20.1126 824.156 Q23.7092 820.05 30.6797 820.05 Q37.7138 820.05 41.3104 824.156 Q44.907 828.23 44.907 836.219 L44.907 844.304 L64.0042 844.304 L64.0042 850.733 L16.4842 850.733 Z" fill="#000000" fill-rule="evenodd" fill-opacity="1" /><path clip-path="url(#clip640)" d="M 0 0 M46.0847 798.407 Q46.0847 805.505 47.7079 808.242 Q49.3312 810.979 53.2461 810.979 Q56.3653 810.979 58.2114 808.942 Q60.0256 806.873 60.0256 803.34 Q60.0256 798.471 56.5881 795.542 Q53.1188 792.582 47.3897 792.582 L46.0847 792.582 L46.0847 798.407 M43.6657 786.726 L64.0042 786.726 L64.0042 792.582 L58.5933 792.582 Q61.8398 794.587 63.3994 797.579 Q64.9272 800.571 64.9272 804.9 Q64.9272 810.374 61.8716 813.621 Q58.7843 816.836 53.6281 816.836 Q47.6125 816.836 44.5569 812.825 Q41.5014 808.783 41.5014 800.794 L41.5014 792.582 L40.9285 792.582 Q36.8862 792.582 34.6901 795.256 Q32.4621 797.898 32.4621 802.704 Q32.4621 805.759 33.1941 808.656 Q33.9262 811.552 35.3903 814.226 L29.9795 814.226 Q28.7381 811.011 28.1334 807.987 Q27.4968 804.964 27.4968 802.099 Q27.4968 794.365 31.5072 790.545 Q35.5176 786.726 43.6657 786.726 Z" fill="#000000" fill-rule="evenodd" fill-opacity="1" /><path clip-path="url(#clip640)" d="M 0 0 M33.8307 754.006 Q33.2578 754.993 33.0032 756.17 Q32.7167 757.316 32.7167 758.717 Q32.7167 763.682 35.9632 766.356 Q39.1779 768.997 45.2253 768.997 L64.0042 768.997 L64.0042 774.886 L28.3562 774.886 L28.3562 768.997 L33.8944 768.997 Q30.6479 767.151 29.0883 764.191 Q27.4968 761.231 27.4968 756.998 Q27.4968 756.393 27.5923 755.661 Q27.656 754.929 27.8151 754.038 L33.8307 754.006 Z" fill="#000000" fill-rule="evenodd" fill-opacity="1" /><path clip-path="url(#clip640)" d="M 0 0 M46.0847 731.662 Q46.0847 738.76 47.7079 741.497 Q49.3312 744.235 53.2461 744.235 Q56.3653 744.235 58.2114 742.198 Q60.0256 740.129 60.0256 736.596 Q60.0256 731.726 56.5881 728.798 Q53.1188 725.838 47.3897 725.838 L46.0847 725.838 L46.0847 731.662 M43.6657 719.981 L64.0042 719.981 L64.0042 725.838 L58.5933 725.838 Q61.8398 727.843 63.3994 730.835 Q64.9272 733.827 64.9272 738.155 Q64.9272 743.63 61.8716 746.876 Q58.7843 750.091 53.6281 750.091 Q47.6125 750.091 44.5569 746.081 Q41.5014 742.039 41.5014 734.05 L41.5014 725.838 L40.9285 725.838 Q36.8862 725.838 34.6901 728.511 Q32.4621 731.153 32.4621 735.959 Q32.4621 739.015 33.1941 741.911 Q33.9262 744.808 35.3903 747.481 L29.9795 747.481 Q28.7381 744.267 28.1334 741.243 Q27.4968 738.219 27.4968 735.355 Q27.4968 727.62 31.5072 723.801 Q35.5176 719.981 43.6657 719.981 Z" fill="#000000" fill-rule="evenodd" fill-opacity="1" /><path clip-path="url(#clip640)" d="M 0 0 M35.1993 680.164 Q31.2526 677.968 29.3747 674.912 Q27.4968 671.857 27.4968 667.719 Q27.4968 662.149 31.4117 659.125 Q35.2948 656.101 42.4881 656.101 L64.0042 656.101 L64.0042 661.99 L42.679 661.99 Q37.5546 661.99 35.072 663.804 Q32.5894 665.618 32.5894 669.342 Q32.5894 673.894 35.6131 676.535 Q38.6368 679.177 43.8567 679.177 L64.0042 679.177 L64.0042 685.065 L42.679 685.065 Q37.5228 685.065 35.072 686.88 Q32.5894 688.694 32.5894 692.482 Q32.5894 696.969 35.6449 699.611 Q38.6686 702.253 43.8567 702.253 L64.0042 702.253 L64.0042 708.141 L28.3562 708.141 L28.3562 702.253 L33.8944 702.253 Q30.616 700.248 29.0564 697.447 Q27.4968 694.646 27.4968 690.795 Q27.4968 686.912 29.4702 684.206 Q31.4436 681.469 35.1993 680.164 Z" fill="#000000" fill-rule="evenodd" fill-opacity="1" /><path clip-path="url(#clip640)" d="M 0 0 M44.7161 613.929 L47.5806 613.929 L47.5806 640.856 Q53.6281 640.474 56.8109 637.227 Q59.9619 633.949 59.9619 628.124 Q59.9619 624.75 59.1344 621.599 Q58.3069 618.417 56.6518 615.297 L62.1899 615.297 Q63.5267 618.448 64.227 621.759 Q64.9272 625.069 64.9272 628.474 Q64.9272 637.004 59.9619 642.001 Q54.9967 646.967 46.5303 646.967 Q37.7774 646.967 32.6531 642.256 Q27.4968 637.514 27.4968 629.493 Q27.4968 622.3 32.1438 618.13 Q36.7589 613.929 44.7161 613.929 M42.9973 619.785 Q38.1912 619.849 35.3266 622.491 Q32.4621 625.101 32.4621 629.429 Q32.4621 634.331 35.2312 637.291 Q38.0002 640.219 43.0292 640.665 L42.9973 619.785 Z" fill="#000000" fill-rule="evenodd" fill-opacity="1" /><path clip-path="url(#clip640)" d="M 0 0 M18.2347 598.524 L28.3562 598.524 L28.3562 586.461 L32.9077 586.461 L32.9077 598.524 L52.2594 598.524 Q56.6199 598.524 57.8613 597.346 Q59.1026 596.137 59.1026 592.476 L59.1026 586.461 L64.0042 586.461 L64.0042 592.476 Q64.0042 599.256 61.4897 601.834 Q58.9434 604.412 52.2594 604.412 L32.9077 604.412 L32.9077 608.709 L28.3562 608.709 L28.3562 604.412 L18.2347 604.412 L18.2347 598.524 Z" fill="#000000" fill-rule="evenodd" fill-opacity="1" /><path clip-path="url(#clip640)" d="M 0 0 M44.7161 548.266 L47.5806 548.266 L47.5806 575.193 Q53.6281 574.811 56.8109 571.565 Q59.9619 568.287 59.9619 562.462 Q59.9619 559.088 59.1344 555.937 Q58.3069 552.754 56.6518 549.635 L62.1899 549.635 Q63.5267 552.786 64.227 556.096 Q64.9272 559.406 64.9272 562.812 Q64.9272 571.342 59.9619 576.339 Q54.9967 581.304 46.5303 581.304 Q37.7774 581.304 32.6531 576.594 Q27.4968 571.851 27.4968 563.831 Q27.4968 556.637 32.1438 552.468 Q36.7589 548.266 44.7161 548.266 M42.9973 554.123 Q38.1912 554.187 35.3266 556.828 Q32.4621 559.438 32.4621 563.767 Q32.4621 568.669 35.2312 571.629 Q38.0002 574.557 43.0292 575.002 L42.9973 554.123 Z" fill="#000000" fill-rule="evenodd" fill-opacity="1" /><path clip-path="url(#clip640)" d="M 0 0 M33.8307 517.997 Q33.2578 518.984 33.0032 520.162 Q32.7167 521.308 32.7167 522.708 Q32.7167 527.673 35.9632 530.347 Q39.1779 532.989 45.2253 532.989 L64.0042 532.989 L64.0042 538.877 L28.3562 538.877 L28.3562 532.989 L33.8944 532.989 Q30.6479 531.143 29.0883 528.183 Q27.4968 525.223 27.4968 520.989 Q27.4968 520.385 27.5923 519.653 Q27.656 518.921 27.8151 518.029 L33.8307 517.997 Z" fill="#000000" fill-rule="evenodd" fill-opacity="1" /><path clip-path="url(#clip640)" d="M 0 0 M29.4065 489.129 L34.9447 489.129 Q33.6716 491.612 33.035 494.285 Q32.3984 496.959 32.3984 499.823 Q32.3984 504.184 33.7352 506.38 Q35.072 508.544 37.7456 508.544 Q39.7826 508.544 40.9603 506.985 Q42.1061 505.425 43.1565 500.715 L43.6021 498.709 Q44.9389 492.471 47.3897 489.861 Q49.8086 487.219 54.1691 487.219 Q59.1344 487.219 62.0308 491.166 Q64.9272 495.081 64.9272 501.956 Q64.9272 504.82 64.3543 507.94 Q63.8132 511.027 62.6992 514.465 L56.6518 514.465 Q58.3387 511.218 59.198 508.067 Q60.0256 504.916 60.0256 501.829 Q60.0256 497.691 58.6251 495.463 Q57.1929 493.235 54.6147 493.235 Q52.2276 493.235 50.9545 494.858 Q49.6813 496.45 48.5037 501.892 L48.0262 503.929 Q46.8804 509.372 44.5251 511.791 Q42.138 514.21 38.0002 514.21 Q32.9713 514.21 30.2341 510.645 Q27.4968 507.08 27.4968 500.524 Q27.4968 497.277 27.9743 494.413 Q28.4517 491.548 29.4065 489.129 Z" fill="#000000" fill-rule="evenodd" fill-opacity="1" /><path clip-path="url(#clip640)" d="M 0 0 M1208.42 35.9153 Q1211.22 30.8922 1215.11 28.5022 Q1219 26.1121 1224.26 26.1121 Q1231.35 26.1121 1235.2 31.0947 Q1239.05 36.0368 1239.05 45.1919 L1239.05 72.576 L1231.55 72.576 L1231.55 45.4349 Q1231.55 38.913 1229.25 35.7533 Q1226.94 32.5936 1222.2 32.5936 Q1216.4 32.5936 1213.04 36.4419 Q1209.68 40.2903 1209.68 46.9338 L1209.68 72.576 L1202.19 72.576 L1202.19 45.4349 Q1202.19 38.8725 1199.88 35.7533 Q1197.57 32.5936 1192.75 32.5936 Q1187.03 32.5936 1183.67 36.4824 Q1180.31 40.3308 1180.31 46.9338 L1180.31 72.576 L1172.82 72.576 L1172.82 27.2059 L1180.31 27.2059 L1180.31 34.2544 Q1182.86 30.082 1186.43 28.0971 Q1189.99 26.1121 1194.89 26.1121 Q1199.84 26.1121 1203.28 28.6237 Q1206.76 31.1352 1208.42 35.9153 Z" fill="#000000" fill-rule="evenodd" fill-opacity="1" /><path clip-path="url(#clip640)" d="M 0 0 M1274.53 49.7694 Q1265.5 49.7694 1262.02 51.8354 Q1258.53 53.9013 1258.53 58.8839 Q1258.53 62.8538 1261.13 65.2034 Q1263.76 67.5124 1268.26 67.5124 Q1274.45 67.5124 1278.18 63.1374 Q1281.95 58.7219 1281.95 51.4303 L1281.95 49.7694 L1274.53 49.7694 M1289.4 46.6907 L1289.4 72.576 L1281.95 72.576 L1281.95 65.6895 Q1279.4 69.8214 1275.59 71.8063 Q1271.78 73.7508 1266.27 73.7508 Q1259.3 73.7508 1255.17 69.8619 Q1251.08 65.9325 1251.08 59.3701 Q1251.08 51.7138 1256.18 47.825 Q1261.33 43.9361 1271.5 43.9361 L1281.95 43.9361 L1281.95 43.2069 Q1281.95 38.0623 1278.54 35.2672 Q1275.18 32.4315 1269.07 32.4315 Q1265.18 32.4315 1261.49 33.3632 Q1257.8 34.295 1254.4 36.1584 L1254.4 29.2718 Q1258.49 27.692 1262.34 26.9223 Q1266.19 26.1121 1269.84 26.1121 Q1279.68 26.1121 1284.54 31.2163 Q1289.4 36.3204 1289.4 46.6907 Z" fill="#000000" fill-rule="evenodd" fill-opacity="1" /><path clip-path="url(#clip640)" d="M 0 0 M1334.61 49.3643 Q1334.61 41.2625 1331.25 36.8065 Q1327.93 32.3505 1321.89 32.3505 Q1315.89 32.3505 1312.53 36.8065 Q1309.21 41.2625 1309.21 49.3643 Q1309.21 57.4256 1312.53 61.8816 Q1315.89 66.3376 1321.89 66.3376 Q1327.93 66.3376 1331.25 61.8816 Q1334.61 57.4256 1334.61 49.3643 M1342.06 66.9452 Q1342.06 78.5308 1336.92 84.1616 Q1331.77 89.8329 1321.16 89.8329 Q1317.23 89.8329 1313.75 89.2252 Q1310.26 88.6581 1306.98 87.4428 L1306.98 80.1917 Q1310.26 81.9741 1313.46 82.8248 Q1316.66 83.6755 1319.99 83.6755 Q1327.32 83.6755 1330.96 79.8271 Q1334.61 76.0193 1334.61 68.282 L1334.61 64.5957 Q1332.3 68.6061 1328.7 70.5911 Q1325.09 72.576 1320.07 72.576 Q1311.72 72.576 1306.62 66.2161 Q1301.51 59.8562 1301.51 49.3643 Q1301.51 38.832 1306.62 32.472 Q1311.72 26.1121 1320.07 26.1121 Q1325.09 26.1121 1328.7 28.0971 Q1332.3 30.082 1334.61 34.0924 L1334.61 27.2059 L1342.06 27.2059 L1342.06 66.9452 Z" fill="#000000" fill-rule="evenodd" fill-opacity="1" /><path clip-path="url(#clip640)" d="M 0 0 M1353.65 46.5287 L1375.48 46.5287 L1375.48 53.1722 L1353.65 53.1722 L1353.65 46.5287 Z" fill="#000000" fill-rule="evenodd" fill-opacity="1" /><path clip-path="url(#clip640)" d="M 0 0 M1410.48 9.54393 L1410.48 26.2742 Q1418.54 26.2742 1423.93 32.472 Q1429.48 38.7915 1429.48 49.9314 Q1429.48 61.0714 1423.93 67.3908 Q1418.54 73.5887 1410.48 73.5887 L1410.48 89.8329 L1403.07 89.8329 L1403.07 73.5887 Q1395.01 73.5887 1389.58 67.3908 Q1384.07 61.0714 1384.07 49.9314 Q1384.07 38.7915 1389.58 32.472 Q1395.01 26.2742 1403.07 26.2742 L1403.07 9.54393 L1410.48 9.54393 M1410.48 66.9452 Q1415.06 66.9452 1418.18 62.7728 Q1421.58 58.1143 1421.62 49.9314 Q1421.66 41.8296 1418.18 37.0901 Q1415.06 32.9176 1410.48 32.9176 L1410.48 66.9452 M1403.07 66.9452 L1403.07 32.9176 Q1398.49 32.9176 1395.41 37.0901 Q1391.89 41.8296 1391.93 49.9314 Q1391.97 58.1143 1395.41 62.7728 Q1398.49 66.9452 1403.07 66.9452 Z" fill="#000000" fill-rule="evenodd" fill-opacity="1" /><polyline clip-path="url(#clip642)" style="stroke:#009af9; stroke-width:8; stroke-opacity:1; fill:none" points="
  309.067,1382.19 592.519,1376.86 875.971,724.496 1159.42,391.238 1442.87,279.311 1726.33,202.536 2009.78,160.256 2293.23,303.401 
  "/>
<circle clip-path="url(#clip642)" cx="309.067" cy="1382.19" r="14" fill="#009af9" fill-rule="evenodd" fill-opacity="1" stroke="#000000" stroke-opacity="1" stroke-width="3.2"/>
<circle clip-path="url(#clip642)" cx="592.519" cy="1376.86" r="14" fill="#009af9" fill-rule="evenodd" fill-opacity="1" stroke="#000000" stroke-opacity="1" stroke-width="3.2"/>
<circle clip-path="url(#clip642)" cx="875.971" cy="724.496" r="14" fill="#009af9" fill-rule="evenodd" fill-opacity="1" stroke="#000000" stroke-opacity="1" stroke-width="3.2"/>
<circle clip-path="url(#clip642)" cx="1159.42" cy="391.238" r="14" fill="#009af9" fill-rule="evenodd" fill-opacity="1" stroke="#000000" stroke-opacity="1" stroke-width="3.2"/>
<circle clip-path="url(#clip642)" cx="1442.87" cy="279.311" r="14" fill="#009af9" fill-rule="evenodd" fill-opacity="1" stroke="#000000" stroke-opacity="1" stroke-width="3.2"/>
<circle clip-path="url(#clip642)" cx="1726.33" cy="202.536" r="14" fill="#009af9" fill-rule="evenodd" fill-opacity="1" stroke="#000000" stroke-opacity="1" stroke-width="3.2"/>
<circle clip-path="url(#clip642)" cx="2009.78" cy="160.256" r="14" fill="#009af9" fill-rule="evenodd" fill-opacity="1" stroke="#000000" stroke-opacity="1" stroke-width="3.2"/>
<circle clip-path="url(#clip642)" cx="2293.23" cy="303.401" r="14" fill="#009af9" fill-rule="evenodd" fill-opacity="1" stroke="#000000" stroke-opacity="1" stroke-width="3.2"/>
<polyline clip-path="url(#clip642)" style="stroke:#e26f46; stroke-width:8; stroke-opacity:1; fill:none" points="
  309.067,1382.91 592.519,1380.48 875.971,724.576 1159.42,391.415 1442.87,279.372 1726.33,202.561 2009.78,160.386 2293.23,303.599 
  "/>
<polyline clip-path="url(#clip642)" style="stroke:#3da44d; stroke-width:8; stroke-opacity:1; fill:none" points="
  309.067,1385.86 592.519,1384.1 875.971,1384.92 1159.42,1384.14 1442.87,1383.02 1726.33,1386.09 2009.78,1382.97 2293.23,1384.23 
  "/>
<polyline clip-path="url(#clip642)" style="stroke:#c271d2; stroke-width:8; stroke-opacity:1; fill:none" points="
  309.067,1385.33 592.519,1379.96 875.971,1376.27 1159.42,1369.26 1442.87,1376.76 1726.33,1381 2009.78,1369.95 2293.23,1367.09 
  "/>
<line clip-path="url(#clip642)" x1="309.067" y1="1385.33" x2="309.067" y2="1369.33" style="stroke:#c271d2; stroke-width:3.2; stroke-opacity:1"/>
<line clip-path="url(#clip642)" x1="309.067" y1="1385.33" x2="293.067" y2="1385.33" style="stroke:#c271d2; stroke-width:3.2; stroke-opacity:1"/>
<line clip-path="url(#clip642)" x1="309.067" y1="1385.33" x2="309.067" y2="1401.33" style="stroke:#c271d2; stroke-width:3.2; stroke-opacity:1"/>
<line clip-path="url(#clip642)" x1="309.067" y1="1385.33" x2="325.067" y2="1385.33" style="stroke:#c271d2; stroke-width:3.2; stroke-opacity:1"/>
<line clip-path="url(#clip642)" x1="592.519" y1="1379.96" x2="592.519" y2="1363.96" style="stroke:#c271d2; stroke-width:3.2; stroke-opacity:1"/>
<line clip-path="url(#clip642)" x1="592.519" y1="1379.96" x2="576.519" y2="1379.96" style="stroke:#c271d2; stroke-width:3.2; stroke-opacity:1"/>
<line clip-path="url(#clip642)" x1="592.519" y1="1379.96" x2="592.519" y2="1395.96" style="stroke:#c271d2; stroke-width:3.2; stroke-opacity:1"/>
<line clip-path="url(#clip642)" x1="592.519" y1="1379.96" x2="608.519" y2="1379.96" style="stroke:#c271d2; stroke-width:3.2; stroke-opacity:1"/>
<line clip-path="url(#clip642)" x1="875.971" y1="1376.27" x2="875.971" y2="1360.27" style="stroke:#c271d2; stroke-width:3.2; stroke-opacity:1"/>
<line clip-path="url(#clip642)" x1="875.971" y1="1376.27" x2="859.971" y2="1376.27" style="stroke:#c271d2; stroke-width:3.2; stroke-opacity:1"/>
<line clip-path="url(#clip642)" x1="875.971" y1="1376.27" x2="875.971" y2="1392.27" style="stroke:#c271d2; stroke-width:3.2; stroke-opacity:1"/>
<line clip-path="url(#clip642)" x1="875.971" y1="1376.27" x2="891.971" y2="1376.27" style="stroke:#c271d2; stroke-width:3.2; stroke-opacity:1"/>
<line clip-path="url(#clip642)" x1="1159.42" y1="1369.26" x2="1159.42" y2="1353.26" style="stroke:#c271d2; stroke-width:3.2; stroke-opacity:1"/>
<line clip-path="url(#clip642)" x1="1159.42" y1="1369.26" x2="1143.42" y2="1369.26" style="stroke:#c271d2; stroke-width:3.2; stroke-opacity:1"/>
<line clip-path="url(#clip642)" x1="1159.42" y1="1369.26" x2="1159.42" y2="1385.26" style="stroke:#c271d2; stroke-width:3.2; stroke-opacity:1"/>
<line clip-path="url(#clip642)" x1="1159.42" y1="1369.26" x2="1175.42" y2="1369.26" style="stroke:#c271d2; stroke-width:3.2; stroke-opacity:1"/>
<line clip-path="url(#clip642)" x1="1442.87" y1="1376.76" x2="1442.87" y2="1360.76" style="stroke:#c271d2; stroke-width:3.2; stroke-opacity:1"/>
<line clip-path="url(#clip642)" x1="1442.87" y1="1376.76" x2="1426.87" y2="1376.76" style="stroke:#c271d2; stroke-width:3.2; stroke-opacity:1"/>
<line clip-path="url(#clip642)" x1="1442.87" y1="1376.76" x2="1442.87" y2="1392.76" style="stroke:#c271d2; stroke-width:3.2; stroke-opacity:1"/>
<line clip-path="url(#clip642)" x1="1442.87" y1="1376.76" x2="1458.87" y2="1376.76" style="stroke:#c271d2; stroke-width:3.2; stroke-opacity:1"/>
<line clip-path="url(#clip642)" x1="1726.33" y1="1381" x2="1726.33" y2="1365" style="stroke:#c271d2; stroke-width:3.2; stroke-opacity:1"/>
<line clip-path="url(#clip642)" x1="1726.33" y1="1381" x2="1710.33" y2="1381" style="stroke:#c271d2; stroke-width:3.2; stroke-opacity:1"/>
<line clip-path="url(#clip642)" x1="1726.33" y1="1381" x2="1726.33" y2="1397" style="stroke:#c271d2; stroke-width:3.2; stroke-opacity:1"/>
<line clip-path="url(#clip642)" x1="1726.33" y1="1381" x2="1742.33" y2="1381" style="stroke:#c271d2; stroke-width:3.2; stroke-opacity:1"/>
<line clip-path="url(#clip642)" x1="2009.78" y1="1369.95" x2="2009.78" y2="1353.95" style="stroke:#c271d2; stroke-width:3.2; stroke-opacity:1"/>
<line clip-path="url(#clip642)" x1="2009.78" y1="1369.95" x2="1993.78" y2="1369.95" style="stroke:#c271d2; stroke-width:3.2; stroke-opacity:1"/>
<line clip-path="url(#clip642)" x1="2009.78" y1="1369.95" x2="2009.78" y2="1385.95" style="stroke:#c271d2; stroke-width:3.2; stroke-opacity:1"/>
<line clip-path="url(#clip642)" x1="2009.78" y1="1369.95" x2="2025.78" y2="1369.95" style="stroke:#c271d2; stroke-width:3.2; stroke-opacity:1"/>
<line clip-path="url(#clip642)" x1="2293.23" y1="1367.09" x2="2293.23" y2="1351.09" style="stroke:#c271d2; stroke-width:3.2; stroke-opacity:1"/>
<line clip-path="url(#clip642)" x1="2293.23" y1="1367.09" x2="2277.23" y2="1367.09" style="stroke:#c271d2; stroke-width:3.2; stroke-opacity:1"/>
<line clip-path="url(#clip642)" x1="2293.23" y1="1367.09" x2="2293.23" y2="1383.09" style="stroke:#c271d2; stroke-width:3.2; stroke-opacity:1"/>
<line clip-path="url(#clip642)" x1="2293.23" y1="1367.09" x2="2309.23" y2="1367.09" style="stroke:#c271d2; stroke-width:3.2; stroke-opacity:1"/>
<polyline clip-path="url(#clip642)" style="stroke:#ac8d18; stroke-width:8; stroke-opacity:1; fill:none" points="
  309.067,1385.95 592.519,1385.07 875.971,1386.03 1159.42,1384.09 1442.87,1386.4 1726.33,1383.53 2009.78,1386.12 2293.23,1384.07 
  "/>
<path clip-path="url(#clip642)" d="M309.067 1369.95 L293.067 1385.95 L309.067 1401.95 L325.067 1385.95 L309.067 1369.95 Z" fill="#ac8d18" fill-rule="evenodd" fill-opacity="1" stroke="#000000" stroke-opacity="1" stroke-width="3.2"/>
<path clip-path="url(#clip642)" d="M592.519 1369.07 L576.519 1385.07 L592.519 1401.07 L608.519 1385.07 L592.519 1369.07 Z" fill="#ac8d18" fill-rule="evenodd" fill-opacity="1" stroke="#000000" stroke-opacity="1" stroke-width="3.2"/>
<path clip-path="url(#clip642)" d="M875.971 1370.03 L859.971 1386.03 L875.971 1402.03 L891.971 1386.03 L875.971 1370.03 Z" fill="#ac8d18" fill-rule="evenodd" fill-opacity="1" stroke="#000000" stroke-opacity="1" stroke-width="3.2"/>
<path clip-path="url(#clip642)" d="M1159.42 1368.09 L1143.42 1384.09 L1159.42 1400.09 L1175.42 1384.09 L1159.42 1368.09 Z" fill="#ac8d18" fill-rule="evenodd" fill-opacity="1" stroke="#000000" stroke-opacity="1" stroke-width="3.2"/>
<path clip-path="url(#clip642)" d="M1442.87 1370.4 L1426.87 1386.4 L1442.87 1402.4 L1458.87 1386.4 L1442.87 1370.4 Z" fill="#ac8d18" fill-rule="evenodd" fill-opacity="1" stroke="#000000" stroke-opacity="1" stroke-width="3.2"/>
<path clip-path="url(#clip642)" d="M1726.33 1367.53 L1710.33 1383.53 L1726.33 1399.53 L1742.33 1383.53 L1726.33 1367.53 Z" fill="#ac8d18" fill-rule="evenodd" fill-opacity="1" stroke="#000000" stroke-opacity="1" stroke-width="3.2"/>
<path clip-path="url(#clip642)" d="M2009.78 1370.12 L1993.78 1386.12 L2009.78 1402.12 L2025.78 1386.12 L2009.78 1370.12 Z" fill="#ac8d18" fill-rule="evenodd" fill-opacity="1" stroke="#000000" stroke-opacity="1" stroke-width="3.2"/>
<path clip-path="url(#clip642)" d="M2293.23 1368.07 L2277.23 1384.07 L2293.23 1400.07 L2309.23 1384.07 L2293.23 1368.07 Z" fill="#ac8d18" fill-rule="evenodd" fill-opacity="1" stroke="#000000" stroke-opacity="1" stroke-width="3.2"/>
<path clip-path="url(#clip640)" d="
M1749.89 1379.86 L2282.65 1379.86 L2282.65 1016.98 L1749.89 1016.98  Z
  " fill="#ffffff" fill-rule="evenodd" fill-opacity="1"/>
<polyline clip-path="url(#clip640)" style="stroke:#000000; stroke-width:4; stroke-opacity:1; fill:none" points="
  1749.89,1379.86 2282.65,1379.86 2282.65,1016.98 1749.89,1016.98 1749.89,1379.86 
  "/>
<polyline clip-path="url(#clip640)" style="stroke:#009af9; stroke-width:4; stroke-opacity:1; fill:none" points="
  1773.25,1077.46 1913.47,1077.46 
  "/>
<circle clip-path="url(#clip640)" cx="1843.36" cy="1077.46" r="23" fill="#009af9" fill-rule="evenodd" fill-opacity="1" stroke="#000000" stroke-opacity="1" stroke-width="5.12"/>
<path clip-path="url(#clip640)" d="M 0 0 M1957.19 1073.79 Q1958.78 1070.92 1961 1069.55 Q1963.23 1068.19 1966.24 1068.19 Q1970.29 1068.19 1972.49 1071.03 Q1974.69 1073.86 1974.69 1079.09 L1974.69 1094.74 L1970.4 1094.74 L1970.4 1079.23 Q1970.4 1075.5 1969.08 1073.69 Q1967.76 1071.89 1965.06 1071.89 Q1961.75 1071.89 1959.82 1074.09 Q1957.9 1076.29 1957.9 1080.08 L1957.9 1094.74 L1953.62 1094.74 L1953.62 1079.23 Q1953.62 1075.48 1952.3 1073.69 Q1950.98 1071.89 1948.23 1071.89 Q1944.96 1071.89 1943.04 1074.11 Q1941.12 1076.31 1941.12 1080.08 L1941.12 1094.74 L1936.84 1094.74 L1936.84 1068.81 L1941.12 1068.81 L1941.12 1072.84 Q1942.58 1070.45 1944.62 1069.32 Q1946.65 1068.19 1949.45 1068.19 Q1952.28 1068.19 1954.25 1069.62 Q1956.24 1071.06 1957.19 1073.79 Z" fill="#000000" fill-rule="evenodd" fill-opacity="1" /><path clip-path="url(#clip640)" d="M 0 0 M1994.96 1081.7 Q1989.8 1081.7 1987.81 1082.88 Q1985.82 1084.07 1985.82 1086.91 Q1985.82 1089.18 1987.3 1090.52 Q1988.81 1091.84 1991.37 1091.84 Q1994.92 1091.84 1997.05 1089.34 Q1999.2 1086.82 1999.2 1082.65 L1999.2 1081.7 L1994.96 1081.7 M2003.46 1079.94 L2003.46 1094.74 L1999.2 1094.74 L1999.2 1090.8 Q1997.74 1093.16 1995.56 1094.3 Q1993.39 1095.41 1990.24 1095.41 Q1986.26 1095.41 1983.9 1093.19 Q1981.56 1090.94 1981.56 1087.19 Q1981.56 1082.82 1984.48 1080.59 Q1987.42 1078.37 1993.23 1078.37 L1999.2 1078.37 L1999.2 1077.95 Q1999.2 1075.01 1997.25 1073.42 Q1995.33 1071.8 1991.84 1071.8 Q1989.62 1071.8 1987.51 1072.33 Q1985.4 1072.86 1983.46 1073.93 L1983.46 1069.99 Q1985.8 1069.09 1988 1068.65 Q1990.19 1068.19 1992.28 1068.19 Q1997.9 1068.19 2000.68 1071.1 Q2003.46 1074.02 2003.46 1079.94 Z" fill="#000000" fill-rule="evenodd" fill-opacity="1" /><path clip-path="url(#clip640)" d="M 0 0 M2029.29 1081.47 Q2029.29 1076.84 2027.37 1074.3 Q2025.47 1071.75 2022.02 1071.75 Q2018.6 1071.75 2016.68 1074.3 Q2014.78 1076.84 2014.78 1081.47 Q2014.78 1086.08 2016.68 1088.63 Q2018.6 1091.17 2022.02 1091.17 Q2025.47 1091.17 2027.37 1088.63 Q2029.29 1086.08 2029.29 1081.47 M2033.55 1091.52 Q2033.55 1098.14 2030.61 1101.36 Q2027.67 1104.6 2021.61 1104.6 Q2019.36 1104.6 2017.37 1104.25 Q2015.38 1103.93 2013.5 1103.23 L2013.5 1099.09 Q2015.38 1100.11 2017.21 1100.59 Q2019.04 1101.08 2020.93 1101.08 Q2025.12 1101.08 2027.21 1098.88 Q2029.29 1096.7 2029.29 1092.28 L2029.29 1090.18 Q2027.97 1092.47 2025.91 1093.6 Q2023.85 1094.74 2020.98 1094.74 Q2016.21 1094.74 2013.3 1091.1 Q2010.38 1087.47 2010.38 1081.47 Q2010.38 1075.45 2013.3 1071.82 Q2016.21 1068.19 2020.98 1068.19 Q2023.85 1068.19 2025.91 1069.32 Q2027.97 1070.45 2029.29 1072.75 L2029.29 1068.81 L2033.55 1068.81 L2033.55 1091.52 Z" fill="#000000" fill-rule="evenodd" fill-opacity="1" /><path clip-path="url(#clip640)" d="M 0 0 M2062.25 1064.02 L2062.25 1090.89 L2067.9 1090.89 Q2075.06 1090.89 2078.37 1087.65 Q2081.7 1084.41 2081.7 1077.42 Q2081.7 1070.48 2078.37 1067.26 Q2075.06 1064.02 2067.9 1064.02 L2062.25 1064.02 M2057.58 1060.18 L2067.18 1060.18 Q2077.23 1060.18 2081.93 1064.37 Q2086.63 1068.53 2086.63 1077.42 Q2086.63 1086.36 2081.91 1090.55 Q2077.18 1094.74 2067.18 1094.74 L2057.58 1094.74 L2057.58 1060.18 Z" fill="#000000" fill-rule="evenodd" fill-opacity="1" /><path clip-path="url(#clip640)" d="M 0 0 M2109.52 1073.21 L2139.2 1073.21 L2139.2 1077.1 L2109.52 1077.1 L2109.52 1073.21 M2109.52 1082.65 L2139.2 1082.65 L2139.2 1086.59 L2109.52 1086.59 L2109.52 1082.65 Z" fill="#000000" fill-rule="evenodd" fill-opacity="1" /><path clip-path="url(#clip640)" d="M 0 0 M2177.21 1064.25 L2165.4 1082.7 L2177.21 1082.7 L2177.21 1064.25 M2175.98 1060.18 L2181.86 1060.18 L2181.86 1082.7 L2186.79 1082.7 L2186.79 1086.59 L2181.86 1086.59 L2181.86 1094.74 L2177.21 1094.74 L2177.21 1086.59 L2161.61 1086.59 L2161.61 1082.07 L2175.98 1060.18 Z" fill="#000000" fill-rule="evenodd" fill-opacity="1" /><polyline clip-path="url(#clip640)" style="stroke:#e26f46; stroke-width:4; stroke-opacity:1; fill:none" points="
  1773.25,1137.94 1913.47,1137.94 
  "/>
<path clip-path="url(#clip640)" d="M 0 0 M1953.34 1119.2 L1953.34 1122.74 L1949.27 1122.74 Q1946.98 1122.74 1946.07 1123.67 Q1945.19 1124.59 1945.19 1127 L1945.19 1129.29 L1952.21 1129.29 L1952.21 1132.6 L1945.19 1132.6 L1945.19 1155.22 L1940.91 1155.22 L1940.91 1132.6 L1936.84 1132.6 L1936.84 1129.29 L1940.91 1129.29 L1940.91 1127.48 Q1940.91 1123.16 1942.93 1121.19 Q1944.94 1119.2 1949.32 1119.2 L1953.34 1119.2 Z" fill="#000000" fill-rule="evenodd" fill-opacity="1" /><path clip-path="url(#clip640)" d="M 0 0 M1979.08 1141.19 L1979.08 1143.27 L1959.5 1143.27 Q1959.78 1147.67 1962.14 1149.98 Q1964.52 1152.28 1968.76 1152.28 Q1971.21 1152.28 1973.5 1151.67 Q1975.82 1151.07 1978.09 1149.87 L1978.09 1153.9 Q1975.8 1154.87 1973.39 1155.38 Q1970.98 1155.89 1968.5 1155.89 Q1962.3 1155.89 1958.67 1152.28 Q1955.06 1148.67 1955.06 1142.51 Q1955.06 1136.14 1958.48 1132.42 Q1961.93 1128.67 1967.76 1128.67 Q1973 1128.67 1976.03 1132.05 Q1979.08 1135.4 1979.08 1141.19 M1974.82 1139.94 Q1974.78 1136.44 1972.86 1134.36 Q1970.96 1132.28 1967.81 1132.28 Q1964.25 1132.28 1962.09 1134.29 Q1959.96 1136.3 1959.64 1139.96 L1974.82 1139.94 Z" fill="#000000" fill-rule="evenodd" fill-opacity="1" /><path clip-path="url(#clip640)" d="M 0 0 M2001.1 1133.27 Q2000.38 1132.86 1999.52 1132.67 Q1998.69 1132.46 1997.67 1132.46 Q1994.06 1132.46 1992.12 1134.82 Q1990.19 1137.16 1990.19 1141.56 L1990.19 1155.22 L1985.91 1155.22 L1985.91 1129.29 L1990.19 1129.29 L1990.19 1133.32 Q1991.54 1130.96 1993.69 1129.82 Q1995.84 1128.67 1998.92 1128.67 Q1999.36 1128.67 1999.89 1128.73 Q2000.43 1128.78 2001.07 1128.9 L2001.1 1133.27 Z" fill="#000000" fill-rule="evenodd" fill-opacity="1" /><path clip-path="url(#clip640)" d="M 0 0 M2019.75 1133.27 Q2019.04 1132.86 2018.18 1132.67 Q2017.35 1132.46 2016.33 1132.46 Q2012.72 1132.46 2010.77 1134.82 Q2008.85 1137.16 2008.85 1141.56 L2008.85 1155.22 L2004.57 1155.22 L2004.57 1129.29 L2008.85 1129.29 L2008.85 1133.32 Q2010.19 1130.96 2012.35 1129.82 Q2014.5 1128.67 2017.58 1128.67 Q2018.02 1128.67 2018.55 1128.73 Q2019.08 1128.78 2019.73 1128.9 L2019.75 1133.27 Z" fill="#000000" fill-rule="evenodd" fill-opacity="1" /><path clip-path="url(#clip640)" d="M 0 0 M2033.23 1132.28 Q2029.8 1132.28 2027.81 1134.96 Q2025.82 1137.62 2025.82 1142.28 Q2025.82 1146.93 2027.79 1149.61 Q2029.78 1152.28 2033.23 1152.28 Q2036.63 1152.28 2038.62 1149.59 Q2040.61 1146.91 2040.61 1142.28 Q2040.61 1137.67 2038.62 1134.98 Q2036.63 1132.28 2033.23 1132.28 M2033.23 1128.67 Q2038.78 1128.67 2041.95 1132.28 Q2045.12 1135.89 2045.12 1142.28 Q2045.12 1148.64 2041.95 1152.28 Q2038.78 1155.89 2033.23 1155.89 Q2027.65 1155.89 2024.48 1152.28 Q2021.33 1148.64 2021.33 1142.28 Q2021.33 1135.89 2024.48 1132.28 Q2027.65 1128.67 2033.23 1128.67 Z" fill="#000000" fill-rule="evenodd" fill-opacity="1" /><path clip-path="url(#clip640)" d="M 0 0 M2072.12 1124.5 L2072.12 1151.37 L2077.76 1151.37 Q2084.92 1151.37 2088.23 1148.13 Q2091.56 1144.89 2091.56 1137.9 Q2091.56 1130.96 2088.23 1127.74 Q2084.92 1124.5 2077.76 1124.5 L2072.12 1124.5 M2067.44 1120.66 L2077.05 1120.66 Q2087.09 1120.66 2091.79 1124.85 Q2096.49 1129.01 2096.49 1137.9 Q2096.49 1146.84 2091.77 1151.03 Q2087.05 1155.22 2077.05 1155.22 L2067.44 1155.22 L2067.44 1120.66 Z" fill="#000000" fill-rule="evenodd" fill-opacity="1" /><path clip-path="url(#clip640)" d="M 0 0 M2119.38 1133.69 L2149.06 1133.69 L2149.06 1137.58 L2119.38 1137.58 L2119.38 1133.69 M2119.38 1143.13 L2149.06 1143.13 L2149.06 1147.07 L2119.38 1147.07 L2119.38 1143.13 Z" fill="#000000" fill-rule="evenodd" fill-opacity="1" /><path clip-path="url(#clip640)" d="M 0 0 M2187.07 1124.73 L2175.26 1143.18 L2187.07 1143.18 L2187.07 1124.73 M2185.84 1120.66 L2191.72 1120.66 L2191.72 1143.18 L2196.65 1143.18 L2196.65 1147.07 L2191.72 1147.07 L2191.72 1155.22 L2187.07 1155.22 L2187.07 1147.07 L2171.47 1147.07 L2171.47 1142.55 L2185.84 1120.66 Z" fill="#000000" fill-rule="evenodd" fill-opacity="1" /><polyline clip-path="url(#clip640)" style="stroke:#3da44d; stroke-width:4; stroke-opacity:1; fill:none" points="
  1773.25,1198.42 1913.47,1198.42 
  "/>
<path clip-path="url(#clip640)" d="M 0 0 M1955.26 1190.53 L1955.26 1194.56 Q1953.46 1193.64 1951.51 1193.17 Q1949.57 1192.71 1947.49 1192.71 Q1944.32 1192.71 1942.72 1193.68 Q1941.14 1194.65 1941.14 1196.6 Q1941.14 1198.08 1942.28 1198.94 Q1943.41 1199.77 1946.84 1200.53 L1948.3 1200.86 Q1952.83 1201.83 1954.73 1203.61 Q1956.65 1205.37 1956.65 1208.54 Q1956.65 1212.15 1953.78 1214.26 Q1950.94 1216.37 1945.94 1216.37 Q1943.85 1216.37 1941.58 1215.95 Q1939.34 1215.56 1936.84 1214.75 L1936.84 1210.35 Q1939.2 1211.58 1941.49 1212.2 Q1943.78 1212.8 1946.03 1212.8 Q1949.04 1212.8 1950.66 1211.78 Q1952.28 1210.74 1952.28 1208.87 Q1952.28 1207.13 1951.1 1206.21 Q1949.94 1205.28 1945.98 1204.42 L1944.5 1204.08 Q1940.54 1203.24 1938.78 1201.53 Q1937.02 1199.79 1937.02 1196.78 Q1937.02 1193.13 1939.62 1191.14 Q1942.21 1189.15 1946.98 1189.15 Q1949.34 1189.15 1951.42 1189.49 Q1953.5 1189.84 1955.26 1190.53 Z" fill="#000000" fill-rule="evenodd" fill-opacity="1" /><path clip-path="url(#clip640)" d="M 0 0 M1967.65 1182.41 L1967.65 1189.77 L1976.42 1189.77 L1976.42 1193.08 L1967.65 1193.08 L1967.65 1207.15 Q1967.65 1210.33 1968.5 1211.23 Q1969.38 1212.13 1972.05 1212.13 L1976.42 1212.13 L1976.42 1215.7 L1972.05 1215.7 Q1967.12 1215.7 1965.24 1213.87 Q1963.37 1212.02 1963.37 1207.15 L1963.37 1193.08 L1960.24 1193.08 L1960.24 1189.77 L1963.37 1189.77 L1963.37 1182.41 L1967.65 1182.41 Z" fill="#000000" fill-rule="evenodd" fill-opacity="1" /><path clip-path="url(#clip640)" d="M 0 0 M1997.05 1193.75 Q1996.33 1193.34 1995.47 1193.15 Q1994.64 1192.94 1993.62 1192.94 Q1990.01 1192.94 1988.06 1195.3 Q1986.14 1197.64 1986.14 1202.04 L1986.14 1215.7 L1981.86 1215.7 L1981.86 1189.77 L1986.14 1189.77 L1986.14 1193.8 Q1987.49 1191.44 1989.64 1190.3 Q1991.79 1189.15 1994.87 1189.15 Q1995.31 1189.15 1995.84 1189.21 Q1996.37 1189.26 1997.02 1189.38 L1997.05 1193.75 Z" fill="#000000" fill-rule="evenodd" fill-opacity="1" /><path clip-path="url(#clip640)" d="M 0 0 M2001.51 1189.77 L2005.77 1189.77 L2005.77 1215.7 L2001.51 1215.7 L2001.51 1189.77 M2001.51 1179.68 L2005.77 1179.68 L2005.77 1185.07 L2001.51 1185.07 L2001.51 1179.68 Z" fill="#000000" fill-rule="evenodd" fill-opacity="1" /><path clip-path="url(#clip640)" d="M 0 0 M2018.81 1211.81 L2018.81 1225.56 L2014.52 1225.56 L2014.52 1189.77 L2018.81 1189.77 L2018.81 1193.71 Q2020.15 1191.39 2022.18 1190.28 Q2024.25 1189.15 2027.09 1189.15 Q2031.81 1189.15 2034.75 1192.9 Q2037.72 1196.65 2037.72 1202.76 Q2037.72 1208.87 2034.75 1212.62 Q2031.81 1216.37 2027.09 1216.37 Q2024.25 1216.37 2022.18 1215.26 Q2020.15 1214.12 2018.81 1211.81 M2033.3 1202.76 Q2033.3 1198.06 2031.35 1195.4 Q2029.43 1192.71 2026.05 1192.71 Q2022.67 1192.71 2020.73 1195.4 Q2018.81 1198.06 2018.81 1202.76 Q2018.81 1207.46 2020.73 1210.14 Q2022.67 1212.8 2026.05 1212.8 Q2029.43 1212.8 2031.35 1210.14 Q2033.3 1207.46 2033.3 1202.76 Z" fill="#000000" fill-rule="evenodd" fill-opacity="1" /><path clip-path="url(#clip640)" d="M 0 0 M2055.56 1218.1 Q2053.76 1222.73 2052.05 1224.15 Q2050.33 1225.56 2047.46 1225.56 L2044.06 1225.56 L2044.06 1221.99 L2046.56 1221.99 Q2048.32 1221.99 2049.29 1221.16 Q2050.26 1220.33 2051.44 1217.22 L2052.21 1215.28 L2041.72 1189.77 L2046.24 1189.77 L2054.34 1210.05 L2062.44 1189.77 L2066.95 1189.77 L2055.56 1218.1 Z" fill="#000000" fill-rule="evenodd" fill-opacity="1" /><path clip-path="url(#clip640)" d="M 0 0 M2092.76 1184.98 L2092.76 1211.85 L2098.41 1211.85 Q2105.56 1211.85 2108.87 1208.61 Q2112.21 1205.37 2112.21 1198.38 Q2112.21 1191.44 2108.87 1188.22 Q2105.56 1184.98 2098.41 1184.98 L2092.76 1184.98 M2088.09 1181.14 L2097.69 1181.14 Q2107.74 1181.14 2112.44 1185.33 Q2117.14 1189.49 2117.14 1198.38 Q2117.14 1207.32 2112.42 1211.51 Q2107.69 1215.7 2097.69 1215.7 L2088.09 1215.7 L2088.09 1181.14 Z" fill="#000000" fill-rule="evenodd" fill-opacity="1" /><path clip-path="url(#clip640)" d="M 0 0 M2140.03 1194.17 L2169.71 1194.17 L2169.71 1198.06 L2140.03 1198.06 L2140.03 1194.17 M2140.03 1203.61 L2169.71 1203.61 L2169.71 1207.55 L2140.03 1207.55 L2140.03 1203.61 Z" fill="#000000" fill-rule="evenodd" fill-opacity="1" /><path clip-path="url(#clip640)" d="M 0 0 M2207.72 1185.21 L2195.91 1203.66 L2207.72 1203.66 L2207.72 1185.21 M2206.49 1181.14 L2212.37 1181.14 L2212.37 1203.66 L2217.3 1203.66 L2217.3 1207.55 L2212.37 1207.55 L2212.37 1215.7 L2207.72 1215.7 L2207.72 1207.55 L2192.11 1207.55 L2192.11 1203.03 L2206.49 1181.14 Z" fill="#000000" fill-rule="evenodd" fill-opacity="1" /><polyline clip-path="url(#clip640)" style="stroke:#c271d2; stroke-width:4; stroke-opacity:1; fill:none" points="
  1773.25,1258.9 1913.47,1258.9 
  "/>
<line clip-path="url(#clip640)" x1="1843.36" y1="1258.9" x2="1843.36" y2="1233.3" style="stroke:#c271d2; stroke-width:3.2; stroke-opacity:1"/>
<line clip-path="url(#clip640)" x1="1843.36" y1="1258.9" x2="1817.76" y2="1258.9" style="stroke:#c271d2; stroke-width:3.2; stroke-opacity:1"/>
<line clip-path="url(#clip640)" x1="1843.36" y1="1258.9" x2="1843.36" y2="1284.5" style="stroke:#c271d2; stroke-width:3.2; stroke-opacity:1"/>
<line clip-path="url(#clip640)" x1="1843.36" y1="1258.9" x2="1868.96" y2="1258.9" style="stroke:#c271d2; stroke-width:3.2; stroke-opacity:1"/>
<path clip-path="url(#clip640)" d="M 0 0 M1937.42 1250.25 L1957.65 1250.25 L1957.65 1254.14 L1941.63 1272.77 L1957.65 1272.77 L1957.65 1276.18 L1936.84 1276.18 L1936.84 1272.29 L1952.86 1253.65 L1937.42 1253.65 L1937.42 1250.25 Z" fill="#000000" fill-rule="evenodd" fill-opacity="1" /><path clip-path="url(#clip640)" d="M 0 0 M1964.15 1250.25 L1968.41 1250.25 L1968.41 1276.18 L1964.15 1276.18 L1964.15 1250.25 M1964.15 1240.16 L1968.41 1240.16 L1968.41 1245.55 L1964.15 1245.55 L1964.15 1240.16 Z" fill="#000000" fill-rule="evenodd" fill-opacity="1" /><path clip-path="url(#clip640)" d="M 0 0 M1994.38 1262.91 Q1994.38 1258.28 1992.46 1255.74 Q1990.56 1253.19 1987.12 1253.19 Q1983.69 1253.19 1981.77 1255.74 Q1979.87 1258.28 1979.87 1262.91 Q1979.87 1267.52 1981.77 1270.07 Q1983.69 1272.61 1987.12 1272.61 Q1990.56 1272.61 1992.46 1270.07 Q1994.38 1267.52 1994.38 1262.91 M1998.64 1272.96 Q1998.64 1279.58 1995.7 1282.8 Q1992.76 1286.04 1986.7 1286.04 Q1984.45 1286.04 1982.46 1285.69 Q1980.47 1285.37 1978.6 1284.67 L1978.6 1280.53 Q1980.47 1281.55 1982.3 1282.03 Q1984.13 1282.52 1986.03 1282.52 Q1990.22 1282.52 1992.3 1280.32 Q1994.38 1278.14 1994.38 1273.72 L1994.38 1271.62 Q1993.06 1273.91 1991 1275.04 Q1988.94 1276.18 1986.07 1276.18 Q1981.31 1276.18 1978.39 1272.54 Q1975.47 1268.91 1975.47 1262.91 Q1975.47 1256.89 1978.39 1253.26 Q1981.31 1249.63 1986.07 1249.63 Q1988.94 1249.63 1991 1250.76 Q1993.06 1251.89 1994.38 1254.19 L1994.38 1250.25 L1998.64 1250.25 L1998.64 1272.96 Z" fill="#000000" fill-rule="evenodd" fill-opacity="1" /><path clip-path="url(#clip640)" d="M 0 0 M2005.56 1250.25 L2025.8 1250.25 L2025.8 1254.14 L2009.78 1272.77 L2025.8 1272.77 L2025.8 1276.18 L2004.99 1276.18 L2004.99 1272.29 L2021 1253.65 L2005.56 1253.65 L2005.56 1250.25 Z" fill="#000000" fill-rule="evenodd" fill-opacity="1" /><path clip-path="url(#clip640)" d="M 0 0 M2044.08 1263.14 Q2038.92 1263.14 2036.93 1264.32 Q2034.94 1265.51 2034.94 1268.35 Q2034.94 1270.62 2036.42 1271.96 Q2037.93 1273.28 2040.5 1273.28 Q2044.04 1273.28 2046.17 1270.78 Q2048.32 1268.26 2048.32 1264.09 L2048.32 1263.14 L2044.08 1263.14 M2052.58 1261.38 L2052.58 1276.18 L2048.32 1276.18 L2048.32 1272.24 Q2046.86 1274.6 2044.68 1275.74 Q2042.51 1276.85 2039.36 1276.85 Q2035.38 1276.85 2033.02 1274.63 Q2030.68 1272.38 2030.68 1268.63 Q2030.68 1264.26 2033.6 1262.03 Q2036.54 1259.81 2042.35 1259.81 L2048.32 1259.81 L2048.32 1259.39 Q2048.32 1256.45 2046.37 1254.86 Q2044.45 1253.24 2040.96 1253.24 Q2038.74 1253.24 2036.63 1253.77 Q2034.52 1254.3 2032.58 1255.37 L2032.58 1251.43 Q2034.92 1250.53 2037.12 1250.09 Q2039.31 1249.63 2041.4 1249.63 Q2047.02 1249.63 2049.8 1252.54 Q2052.58 1255.46 2052.58 1261.38 Z" fill="#000000" fill-rule="evenodd" fill-opacity="1" /><path clip-path="url(#clip640)" d="M 0 0 M2078.41 1262.91 Q2078.41 1258.28 2076.49 1255.74 Q2074.59 1253.19 2071.14 1253.19 Q2067.72 1253.19 2065.8 1255.74 Q2063.9 1258.28 2063.9 1262.91 Q2063.9 1267.52 2065.8 1270.07 Q2067.72 1272.61 2071.14 1272.61 Q2074.59 1272.61 2076.49 1270.07 Q2078.41 1267.52 2078.41 1262.91 M2082.67 1272.96 Q2082.67 1279.58 2079.73 1282.8 Q2076.79 1286.04 2070.73 1286.04 Q2068.48 1286.04 2066.49 1285.69 Q2064.5 1285.37 2062.62 1284.67 L2062.62 1280.53 Q2064.5 1281.55 2066.33 1282.03 Q2068.16 1282.52 2070.06 1282.52 Q2074.24 1282.52 2076.33 1280.32 Q2078.41 1278.14 2078.41 1273.72 L2078.41 1271.62 Q2077.09 1273.91 2075.03 1275.04 Q2072.97 1276.18 2070.1 1276.18 Q2065.33 1276.18 2062.42 1272.54 Q2059.5 1268.91 2059.5 1262.91 Q2059.5 1256.89 2062.42 1253.26 Q2065.33 1249.63 2070.1 1249.63 Q2072.97 1249.63 2075.03 1250.76 Q2077.09 1251.89 2078.41 1254.19 L2078.41 1250.25 L2082.67 1250.25 L2082.67 1272.96 Z" fill="#000000" fill-rule="evenodd" fill-opacity="1" /><path clip-path="url(#clip640)" d="M 0 0 M2111.37 1245.46 L2111.37 1272.33 L2117.02 1272.33 Q2124.18 1272.33 2127.49 1269.09 Q2130.82 1265.85 2130.82 1258.86 Q2130.82 1251.92 2127.49 1248.7 Q2124.18 1245.46 2117.02 1245.46 L2111.37 1245.46 M2106.7 1241.62 L2116.3 1241.62 Q2126.35 1241.62 2131.05 1245.81 Q2135.75 1249.97 2135.75 1258.86 Q2135.75 1267.8 2131.03 1271.99 Q2126.3 1276.18 2116.3 1276.18 L2106.7 1276.18 L2106.7 1241.62 Z" fill="#000000" fill-rule="evenodd" fill-opacity="1" /><path clip-path="url(#clip640)" d="M 0 0 M2158.64 1254.65 L2188.32 1254.65 L2188.32 1258.54 L2158.64 1258.54 L2158.64 1254.65 M2158.64 1264.09 L2188.32 1264.09 L2188.32 1268.03 L2158.64 1268.03 L2158.64 1264.09 Z" fill="#000000" fill-rule="evenodd" fill-opacity="1" /><path clip-path="url(#clip640)" d="M 0 0 M2226.33 1245.69 L2214.52 1264.14 L2226.33 1264.14 L2226.33 1245.69 M2225.1 1241.62 L2230.98 1241.62 L2230.98 1264.14 L2235.91 1264.14 L2235.91 1268.03 L2230.98 1268.03 L2230.98 1276.18 L2226.33 1276.18 L2226.33 1268.03 L2210.73 1268.03 L2210.73 1263.51 L2225.1 1241.62 Z" fill="#000000" fill-rule="evenodd" fill-opacity="1" /><polyline clip-path="url(#clip640)" style="stroke:#ac8d18; stroke-width:4; stroke-opacity:1; fill:none" points="
  1773.25,1319.38 1913.47,1319.38 
  "/>
<path clip-path="url(#clip640)" d="M1843.36 1293.78 L1817.76 1319.38 L1843.36 1344.98 L1868.96 1319.38 L1843.36 1293.78 Z" fill="#ac8d18" fill-rule="evenodd" fill-opacity="1" stroke="#000000" stroke-opacity="1" stroke-width="5.12"/>
<path clip-path="url(#clip640)" d="M 0 0 M1936.84 1302.1 L1943.13 1302.1 L1958.46 1331.01 L1958.46 1302.1 L1963 1302.1 L1963 1336.66 L1956.7 1336.66 L1941.38 1307.74 L1941.38 1336.66 L1936.84 1336.66 L1936.84 1302.1 Z" fill="#000000" fill-rule="evenodd" fill-opacity="1" /><path clip-path="url(#clip640)" d="M 0 0 M1994.29 1322.63 L1994.29 1324.71 L1974.71 1324.71 Q1974.99 1329.11 1977.35 1331.42 Q1979.73 1333.72 1983.97 1333.72 Q1986.42 1333.72 1988.71 1333.11 Q1991.03 1332.51 1993.3 1331.31 L1993.3 1335.34 Q1991 1336.31 1988.6 1336.82 Q1986.19 1337.33 1983.71 1337.33 Q1977.51 1337.33 1973.88 1333.72 Q1970.26 1330.11 1970.26 1323.95 Q1970.26 1317.58 1973.69 1313.86 Q1977.14 1310.11 1982.97 1310.11 Q1988.2 1310.11 1991.24 1313.49 Q1994.29 1316.84 1994.29 1322.63 M1990.03 1321.38 Q1989.99 1317.88 1988.06 1315.8 Q1986.17 1313.72 1983.02 1313.72 Q1979.45 1313.72 1977.3 1315.73 Q1975.17 1317.74 1974.85 1321.4 L1990.03 1321.38 Z" fill="#000000" fill-rule="evenodd" fill-opacity="1" /><path clip-path="url(#clip640)" d="M 0 0 M2023.46 1322.63 L2023.46 1324.71 L2003.87 1324.71 Q2004.15 1329.11 2006.51 1331.42 Q2008.9 1333.72 2013.13 1333.72 Q2015.59 1333.72 2017.88 1333.11 Q2020.19 1332.51 2022.46 1331.31 L2022.46 1335.34 Q2020.17 1336.31 2017.76 1336.82 Q2015.36 1337.33 2012.88 1337.33 Q2006.68 1337.33 2003.04 1333.72 Q1999.43 1330.11 1999.43 1323.95 Q1999.43 1317.58 2002.86 1313.86 Q2006.31 1310.11 2012.14 1310.11 Q2017.37 1310.11 2020.4 1313.49 Q2023.46 1316.84 2023.46 1322.63 M2019.2 1321.38 Q2019.15 1317.88 2017.23 1315.8 Q2015.33 1313.72 2012.19 1313.72 Q2008.62 1313.72 2006.47 1315.73 Q2004.34 1317.74 2004.01 1321.4 L2019.2 1321.38 Z" fill="#000000" fill-rule="evenodd" fill-opacity="1" /><path clip-path="url(#clip640)" d="M 0 0 M2030.45 1300.64 L2034.71 1300.64 L2034.71 1336.66 L2030.45 1336.66 L2030.45 1300.64 Z" fill="#000000" fill-rule="evenodd" fill-opacity="1" /><path clip-path="url(#clip640)" d="M 0 0 M2063.55 1305.94 L2063.55 1332.81 L2069.2 1332.81 Q2076.35 1332.81 2079.66 1329.57 Q2082.99 1326.33 2082.99 1319.34 Q2082.99 1312.4 2079.66 1309.18 Q2076.35 1305.94 2069.2 1305.94 L2063.55 1305.94 M2058.87 1302.1 L2068.48 1302.1 Q2078.53 1302.1 2083.23 1306.29 Q2087.93 1310.45 2087.93 1319.34 Q2087.93 1328.28 2083.2 1332.47 Q2078.48 1336.66 2068.48 1336.66 L2058.87 1336.66 L2058.87 1302.1 Z" fill="#000000" fill-rule="evenodd" fill-opacity="1" /><path clip-path="url(#clip640)" d="M 0 0 M2110.82 1315.13 L2140.49 1315.13 L2140.49 1319.02 L2110.82 1319.02 L2110.82 1315.13 M2110.82 1324.57 L2140.49 1324.57 L2140.49 1328.51 L2110.82 1328.51 L2110.82 1324.57 Z" fill="#000000" fill-rule="evenodd" fill-opacity="1" /><path clip-path="url(#clip640)" d="M 0 0 M2178.5 1306.17 L2166.7 1324.62 L2178.5 1324.62 L2178.5 1306.17 M2177.28 1302.1 L2183.16 1302.1 L2183.16 1324.62 L2188.09 1324.62 L2188.09 1328.51 L2183.16 1328.51 L2183.16 1336.66 L2178.5 1336.66 L2178.5 1328.51 L2162.9 1328.51 L2162.9 1323.99 L2177.28 1302.1 Z" fill="#000000" fill-rule="evenodd" fill-opacity="1" /></svg>
