<?xml version="1.0" encoding="utf-8"?>
<svg xmlns="http://www.w3.org/2000/svg" xmlns:xlink="http://www.w3.org/1999/xlink" width="600" height="400" viewBox="0 0 2400 1600">
<defs>
  <clipPath id="clip240">
    <rect x="0" y="0" width="2400" height="1600"/>
  </clipPath>
</defs>
<path clip-path="url(#clip240)" d="
M0 1600 L2400 1600 L2400 0 L0 0  Z
  " fill="#ffffff" fill-rule="evenodd" fill-opacity="1"/>
<defs>
  <clipPath id="clip241">
    <rect x="480" y="0" width="1681" height="1600"/>
  </clipPath>
</defs>
<path clip-path="url(#clip240)" d="
M219.866 1423.18 L2352.76 1423.18 L2352.76 123.472 L219.866 123.472  Z
  " fill="#ffffff" fill-rule="evenodd" fill-opacity="1"/>
<defs>
  <clipPath id="clip242">
    <rect x="219" y="123" width="2134" height="1301"/>
  </clipPath>
</defs>
<polyline clip-path="url(#clip242)" style="stroke:#000000; stroke-width:2; stroke-opacity:0.1; fill:none" points="
  259.906,1423.18 259.906,123.472 
  "/>
<polyline clip-path="url(#clip242)" style="stroke:#000000; stroke-width:2; stroke-opacity:0.1; fill:none" points="
  768.027,1423.18 768.027,123.472 
  "/>
<polyline clip-path="url(#clip242)" style="stroke:#000000; stroke-width:2; stroke-opacity:0.1; fill:none" points="
  1276.15,1423.18 1276.15,123.472 
  "/>
<polyline clip-path="url(#clip242)" style="stroke:#000000; stroke-width:2; stroke-opacity:0.1; fill:none" points="
  1784.27,1423.18 1784.27,123.472 
  "/>
<polyline clip-path="url(#clip242)" style="stroke:#000000; stroke-width:2; stroke-opacity:0.1; fill:none" points="
  2292.39,1423.18 2292.39,123.472 
  "/>
<polyline clip-path="url(#clip240)" style="stroke:#000000; stroke-width:4; stroke-opacity:1; fill:none" points="
  219.866,1423.18 2352.76,1423.18 
  "/>
<polyline clip-path="url(#clip240)" style="stroke:#000000; stroke-width:4; stroke-opacity:1; fill:none" points="
  259.906,1423.18 259.906,1407.58 
  "/>
<polyline clip-path="url(#clip240)" style="stroke:#000000; stroke-width:4; stroke-opacity:1; fill:none" points="
  768.027,1423.18 768.027,1407.58 
  "/>
<polyline clip-path="url(#clip240)" style="stroke:#000000; stroke-width:4; stroke-opacity:1; fill:none" points="
  1276.15,1423.18 1276.15,1407.58 
  "/>
<polyline clip-path="url(#clip240)" style="stroke:#000000; stroke-width:4; stroke-opacity:1; fill:none" points="
  1784.27,1423.18 1784.27,1407.58 
  "/>
<polyline clip-path="url(#clip240)" style="stroke:#000000; stroke-width:4; stroke-opacity:1; fill:none" points="
  2292.39,1423.18 2292.39,1407.58 
  "/>
<path clip-path="url(#clip240)" d="M 0 0 M222.21 1452.37 Q218.599 1452.37 216.77 1455.94 Q214.964 1459.48 214.964 1466.61 Q214.964 1473.71 216.77 1477.28 Q218.599 1480.82 222.21 1480.82 Q225.844 1480.82 227.649 1477.28 Q229.478 1473.71 229.478 1466.61 Q229.478 1459.48 227.649 1455.94 Q225.844 1452.37 222.21 1452.37 M222.21 1448.67 Q228.02 1448.67 231.075 1453.27 Q234.154 1457.86 234.154 1466.61 Q234.154 1475.33 231.075 1479.94 Q228.02 1484.52 222.21 1484.52 Q216.4 1484.52 213.321 1479.94 Q210.265 1475.33 210.265 1466.61 Q210.265 1457.86 213.321 1453.27 Q216.4 1448.67 222.21 1448.67 Z" fill="#000000" fill-rule="evenodd" fill-opacity="1" /><path clip-path="url(#clip240)" d="M 0 0 M242.372 1477.97 L247.256 1477.97 L247.256 1483.85 L242.372 1483.85 L242.372 1477.97 Z" fill="#000000" fill-rule="evenodd" fill-opacity="1" /><path clip-path="url(#clip240)" d="M 0 0 M267.441 1452.37 Q263.83 1452.37 262.001 1455.94 Q260.196 1459.48 260.196 1466.61 Q260.196 1473.71 262.001 1477.28 Q263.83 1480.82 267.441 1480.82 Q271.075 1480.82 272.881 1477.28 Q274.709 1473.71 274.709 1466.61 Q274.709 1459.48 272.881 1455.94 Q271.075 1452.37 267.441 1452.37 M267.441 1448.67 Q273.251 1448.67 276.307 1453.27 Q279.385 1457.86 279.385 1466.61 Q279.385 1475.33 276.307 1479.94 Q273.251 1484.52 267.441 1484.52 Q261.631 1484.52 258.552 1479.94 Q255.497 1475.33 255.497 1466.61 Q255.497 1457.86 258.552 1453.27 Q261.631 1448.67 267.441 1448.67 Z" fill="#000000" fill-rule="evenodd" fill-opacity="1" /><path clip-path="url(#clip240)" d="M 0 0 M297.603 1452.37 Q293.992 1452.37 292.163 1455.94 Q290.357 1459.48 290.357 1466.61 Q290.357 1473.71 292.163 1477.28 Q293.992 1480.82 297.603 1480.82 Q301.237 1480.82 303.043 1477.28 Q304.871 1473.71 304.871 1466.61 Q304.871 1459.48 303.043 1455.94 Q301.237 1452.37 297.603 1452.37 M297.603 1448.67 Q303.413 1448.67 306.468 1453.27 Q309.547 1457.86 309.547 1466.61 Q309.547 1475.33 306.468 1479.94 Q303.413 1484.52 297.603 1484.52 Q291.793 1484.52 288.714 1479.94 Q285.658 1475.33 285.658 1466.61 Q285.658 1457.86 288.714 1453.27 Q291.793 1448.67 297.603 1448.67 Z" fill="#000000" fill-rule="evenodd" fill-opacity="1" /><path clip-path="url(#clip240)" d="M 0 0 M730.829 1452.37 Q727.217 1452.37 725.389 1455.94 Q723.583 1459.48 723.583 1466.61 Q723.583 1473.71 725.389 1477.28 Q727.217 1480.82 730.829 1480.82 Q734.463 1480.82 736.268 1477.28 Q738.097 1473.71 738.097 1466.61 Q738.097 1459.48 736.268 1455.94 Q734.463 1452.37 730.829 1452.37 M730.829 1448.67 Q736.639 1448.67 739.694 1453.27 Q742.773 1457.86 742.773 1466.61 Q742.773 1475.33 739.694 1479.94 Q736.639 1484.52 730.829 1484.52 Q725.018 1484.52 721.94 1479.94 Q718.884 1475.33 718.884 1466.61 Q718.884 1457.86 721.94 1453.27 Q725.018 1448.67 730.829 1448.67 Z" fill="#000000" fill-rule="evenodd" fill-opacity="1" /><path clip-path="url(#clip240)" d="M 0 0 M750.99 1477.97 L755.875 1477.97 L755.875 1483.85 L750.99 1483.85 L750.99 1477.97 Z" fill="#000000" fill-rule="evenodd" fill-opacity="1" /><path clip-path="url(#clip240)" d="M 0 0 M770.088 1479.92 L786.407 1479.92 L786.407 1483.85 L764.463 1483.85 L764.463 1479.92 Q767.125 1477.16 771.708 1472.53 Q776.314 1467.88 777.495 1466.54 Q779.74 1464.01 780.62 1462.28 Q781.523 1460.52 781.523 1458.83 Q781.523 1456.07 779.578 1454.34 Q777.657 1452.6 774.555 1452.6 Q772.356 1452.6 769.902 1453.37 Q767.472 1454.13 764.694 1455.68 L764.694 1450.96 Q767.518 1449.82 769.972 1449.25 Q772.426 1448.67 774.463 1448.67 Q779.833 1448.67 783.027 1451.35 Q786.222 1454.04 786.222 1458.53 Q786.222 1460.66 785.412 1462.58 Q784.625 1464.48 782.518 1467.07 Q781.939 1467.74 778.838 1470.96 Q775.736 1474.15 770.088 1479.92 Z" fill="#000000" fill-rule="evenodd" fill-opacity="1" /><path clip-path="url(#clip240)" d="M 0 0 M796.268 1449.29 L814.624 1449.29 L814.624 1453.23 L800.55 1453.23 L800.55 1461.7 Q801.569 1461.35 802.587 1461.19 Q803.606 1461 804.624 1461 Q810.411 1461 813.791 1464.18 Q817.171 1467.35 817.171 1472.76 Q817.171 1478.34 813.698 1481.44 Q810.226 1484.52 803.907 1484.52 Q801.731 1484.52 799.462 1484.15 Q797.217 1483.78 794.81 1483.04 L794.81 1478.34 Q796.893 1479.48 799.115 1480.03 Q801.337 1480.59 803.814 1480.59 Q807.819 1480.59 810.157 1478.48 Q812.495 1476.38 812.495 1472.76 Q812.495 1469.15 810.157 1467.05 Q807.819 1464.94 803.814 1464.94 Q801.939 1464.94 800.064 1465.36 Q798.212 1465.77 796.268 1466.65 L796.268 1449.29 Z" fill="#000000" fill-rule="evenodd" fill-opacity="1" /><path clip-path="url(#clip240)" d="M 0 0 M1238.45 1452.37 Q1234.84 1452.37 1233.01 1455.94 Q1231.21 1459.48 1231.21 1466.61 Q1231.21 1473.71 1233.01 1477.28 Q1234.84 1480.82 1238.45 1480.82 Q1242.09 1480.82 1243.89 1477.28 Q1245.72 1473.71 1245.72 1466.61 Q1245.72 1459.48 1243.89 1455.94 Q1242.09 1452.37 1238.45 1452.37 M1238.45 1448.67 Q1244.26 1448.67 1247.32 1453.27 Q1250.4 1457.86 1250.4 1466.61 Q1250.4 1475.33 1247.32 1479.94 Q1244.26 1484.52 1238.45 1484.52 Q1232.64 1484.52 1229.56 1479.94 Q1226.51 1475.33 1226.51 1466.61 Q1226.51 1457.86 1229.56 1453.27 Q1232.64 1448.67 1238.45 1448.67 Z" fill="#000000" fill-rule="evenodd" fill-opacity="1" /><path clip-path="url(#clip240)" d="M 0 0 M1258.61 1477.97 L1263.5 1477.97 L1263.5 1483.85 L1258.61 1483.85 L1258.61 1477.97 Z" fill="#000000" fill-rule="evenodd" fill-opacity="1" /><path clip-path="url(#clip240)" d="M 0 0 M1273.73 1449.29 L1292.09 1449.29 L1292.09 1453.23 L1278.01 1453.23 L1278.01 1461.7 Q1279.03 1461.35 1280.05 1461.19 Q1281.07 1461 1282.09 1461 Q1287.87 1461 1291.25 1464.18 Q1294.63 1467.35 1294.63 1472.76 Q1294.63 1478.34 1291.16 1481.44 Q1287.69 1484.52 1281.37 1484.52 Q1279.19 1484.52 1276.92 1484.15 Q1274.68 1483.78 1272.27 1483.04 L1272.27 1478.34 Q1274.35 1479.48 1276.58 1480.03 Q1278.8 1480.59 1281.28 1480.59 Q1285.28 1480.59 1287.62 1478.48 Q1289.96 1476.38 1289.96 1472.76 Q1289.96 1469.15 1287.62 1467.05 Q1285.28 1464.94 1281.28 1464.94 Q1279.4 1464.94 1277.53 1465.36 Q1275.67 1465.77 1273.73 1466.65 L1273.73 1449.29 Z" fill="#000000" fill-rule="evenodd" fill-opacity="1" /><path clip-path="url(#clip240)" d="M 0 0 M1313.85 1452.37 Q1310.23 1452.37 1308.41 1455.94 Q1306.6 1459.48 1306.6 1466.61 Q1306.6 1473.71 1308.41 1477.28 Q1310.23 1480.82 1313.85 1480.82 Q1317.48 1480.82 1319.29 1477.28 Q1321.11 1473.71 1321.11 1466.61 Q1321.11 1459.48 1319.29 1455.94 Q1317.48 1452.37 1313.85 1452.37 M1313.85 1448.67 Q1319.66 1448.67 1322.71 1453.27 Q1325.79 1457.86 1325.79 1466.61 Q1325.79 1475.33 1322.71 1479.94 Q1319.66 1484.52 1313.85 1484.52 Q1308.04 1484.52 1304.96 1479.94 Q1301.9 1475.33 1301.9 1466.61 Q1301.9 1457.86 1304.96 1453.27 Q1308.04 1448.67 1313.85 1448.67 Z" fill="#000000" fill-rule="evenodd" fill-opacity="1" /><path clip-path="url(#clip240)" d="M 0 0 M1747.07 1452.37 Q1743.46 1452.37 1741.63 1455.94 Q1739.83 1459.48 1739.83 1466.61 Q1739.83 1473.71 1741.63 1477.28 Q1743.46 1480.82 1747.07 1480.82 Q1750.71 1480.82 1752.51 1477.28 Q1754.34 1473.71 1754.34 1466.61 Q1754.34 1459.48 1752.51 1455.94 Q1750.71 1452.37 1747.07 1452.37 M1747.07 1448.67 Q1752.88 1448.67 1755.94 1453.27 Q1759.02 1457.86 1759.02 1466.61 Q1759.02 1475.33 1755.94 1479.94 Q1752.88 1484.52 1747.07 1484.52 Q1741.26 1484.52 1738.18 1479.94 Q1735.13 1475.33 1735.13 1466.61 Q1735.13 1457.86 1738.18 1453.27 Q1741.26 1448.67 1747.07 1448.67 Z" fill="#000000" fill-rule="evenodd" fill-opacity="1" /><path clip-path="url(#clip240)" d="M 0 0 M1767.23 1477.97 L1772.12 1477.97 L1772.12 1483.85 L1767.23 1483.85 L1767.23 1477.97 Z" fill="#000000" fill-rule="evenodd" fill-opacity="1" /><path clip-path="url(#clip240)" d="M 0 0 M1781.12 1449.29 L1803.34 1449.29 L1803.34 1451.28 L1790.8 1483.85 L1785.91 1483.85 L1797.72 1453.23 L1781.12 1453.23 L1781.12 1449.29 Z" fill="#000000" fill-rule="evenodd" fill-opacity="1" /><path clip-path="url(#clip240)" d="M 0 0 M1812.51 1449.29 L1830.87 1449.29 L1830.87 1453.23 L1816.79 1453.23 L1816.79 1461.7 Q1817.81 1461.35 1818.83 1461.19 Q1819.85 1461 1820.87 1461 Q1826.65 1461 1830.03 1464.18 Q1833.41 1467.35 1833.41 1472.76 Q1833.41 1478.34 1829.94 1481.44 Q1826.47 1484.52 1820.15 1484.52 Q1817.97 1484.52 1815.7 1484.15 Q1813.46 1483.78 1811.05 1483.04 L1811.05 1478.34 Q1813.14 1479.48 1815.36 1480.03 Q1817.58 1480.59 1820.06 1480.59 Q1824.06 1480.59 1826.4 1478.48 Q1828.74 1476.38 1828.74 1472.76 Q1828.74 1469.15 1826.4 1467.05 Q1824.06 1464.94 1820.06 1464.94 Q1818.18 1464.94 1816.31 1465.36 Q1814.45 1465.77 1812.51 1466.65 L1812.51 1449.29 Z" fill="#000000" fill-rule="evenodd" fill-opacity="1" /><path clip-path="url(#clip240)" d="M 0 0 M2244.46 1479.92 L2252.1 1479.92 L2252.1 1453.55 L2243.79 1455.22 L2243.79 1450.96 L2252.06 1449.29 L2256.73 1449.29 L2256.73 1479.92 L2264.37 1479.92 L2264.37 1483.85 L2244.46 1483.85 L2244.46 1479.92 Z" fill="#000000" fill-rule="evenodd" fill-opacity="1" /><path clip-path="url(#clip240)" d="M 0 0 M2273.81 1477.97 L2278.7 1477.97 L2278.7 1483.85 L2273.81 1483.85 L2273.81 1477.97 Z" fill="#000000" fill-rule="evenodd" fill-opacity="1" /><path clip-path="url(#clip240)" d="M 0 0 M2298.88 1452.37 Q2295.27 1452.37 2293.44 1455.94 Q2291.64 1459.48 2291.64 1466.61 Q2291.64 1473.71 2293.44 1477.28 Q2295.27 1480.82 2298.88 1480.82 Q2302.52 1480.82 2304.32 1477.28 Q2306.15 1473.71 2306.15 1466.61 Q2306.15 1459.48 2304.32 1455.94 Q2302.52 1452.37 2298.88 1452.37 M2298.88 1448.67 Q2304.69 1448.67 2307.75 1453.27 Q2310.83 1457.86 2310.83 1466.61 Q2310.83 1475.33 2307.75 1479.94 Q2304.69 1484.52 2298.88 1484.52 Q2293.07 1484.52 2290 1479.94 Q2286.94 1475.33 2286.94 1466.61 Q2286.94 1457.86 2290 1453.27 Q2293.07 1448.67 2298.88 1448.67 Z" fill="#000000" fill-rule="evenodd" fill-opacity="1" /><path clip-path="url(#clip240)" d="M 0 0 M2329.05 1452.37 Q2325.43 1452.37 2323.61 1455.94 Q2321.8 1459.48 2321.8 1466.61 Q2321.8 1473.71 2323.61 1477.28 Q2325.43 1480.82 2329.05 1480.82 Q2332.68 1480.82 2334.49 1477.28 Q2336.31 1473.71 2336.31 1466.61 Q2336.31 1459.48 2334.49 1455.94 Q2332.68 1452.37 2329.05 1452.37 M2329.05 1448.67 Q2334.86 1448.67 2337.91 1453.27 Q2340.99 1457.86 2340.99 1466.61 Q2340.99 1475.33 2337.91 1479.94 Q2334.86 1484.52 2329.05 1484.52 Q2323.24 1484.52 2320.16 1479.94 Q2317.1 1475.33 2317.1 1466.61 Q2317.1 1457.86 2320.16 1453.27 Q2323.24 1448.67 2329.05 1448.67 Z" fill="#000000" fill-rule="evenodd" fill-opacity="1" /><path clip-path="url(#clip240)" d="M 0 0 M1164.5 1518.52 L1164.5 1531.66 Q1170.84 1531.66 1175.07 1536.53 Q1179.43 1541.5 1179.43 1550.25 Q1179.43 1559 1175.07 1563.97 Q1170.84 1568.84 1164.5 1568.84 L1164.5 1581.6 L1158.68 1581.6 L1158.68 1568.84 Q1152.34 1568.84 1148.08 1563.97 Q1143.75 1559 1143.75 1550.25 Q1143.75 1541.5 1148.08 1536.53 Q1152.34 1531.66 1158.68 1531.66 L1158.68 1518.52 L1164.5 1518.52 M1164.5 1563.62 Q1168.1 1563.62 1170.55 1560.34 Q1173.22 1556.68 1173.26 1550.25 Q1173.29 1543.89 1170.55 1540.16 Q1168.1 1536.88 1164.5 1536.88 L1164.5 1563.62 M1158.68 1563.62 L1158.68 1536.88 Q1155.08 1536.88 1152.66 1540.16 Q1149.89 1543.89 1149.93 1550.25 Q1149.96 1556.68 1152.66 1560.34 Q1155.08 1563.62 1158.68 1563.62 Z" fill="#000000" fill-rule="evenodd" fill-opacity="1" /><path clip-path="url(#clip240)" d="M 0 0 M1233.51 1537.81 L1233.51 1518.52 L1239.36 1518.52 L1239.36 1568.04 L1233.51 1568.04 L1233.51 1562.7 Q1231.66 1565.88 1228.83 1567.44 Q1226.03 1568.97 1222.08 1568.97 Q1215.62 1568.97 1211.55 1563.81 Q1207.5 1558.65 1207.5 1550.25 Q1207.5 1541.85 1211.55 1536.69 Q1215.62 1531.54 1222.08 1531.54 Q1226.03 1531.54 1228.83 1533.1 Q1231.66 1534.62 1233.51 1537.81 M1213.55 1550.25 Q1213.55 1556.71 1216.19 1560.4 Q1218.87 1564.07 1223.51 1564.07 Q1228.16 1564.07 1230.83 1560.4 Q1233.51 1556.71 1233.51 1550.25 Q1233.51 1543.79 1230.83 1540.13 Q1228.16 1536.44 1223.51 1536.44 Q1218.87 1536.44 1216.19 1540.13 Q1213.55 1543.79 1213.55 1550.25 Z" fill="#000000" fill-rule="evenodd" fill-opacity="1" /><path clip-path="url(#clip240)" d="M 0 0 M1281.92 1548.76 L1281.92 1551.62 L1254.99 1551.62 Q1255.37 1557.67 1258.62 1560.85 Q1261.9 1564 1267.72 1564 Q1271.1 1564 1274.25 1563.17 Q1277.43 1562.35 1280.55 1560.69 L1280.55 1566.23 Q1277.4 1567.57 1274.09 1568.27 Q1270.78 1568.97 1267.37 1568.97 Q1258.84 1568.97 1253.85 1564 Q1248.88 1559.04 1248.88 1550.57 Q1248.88 1541.82 1253.59 1536.69 Q1258.33 1531.54 1266.35 1531.54 Q1273.55 1531.54 1277.72 1536.18 Q1281.92 1540.8 1281.92 1548.76 M1276.06 1547.04 Q1276 1542.23 1273.36 1539.37 Q1270.75 1536.5 1266.42 1536.5 Q1261.52 1536.5 1258.56 1539.27 Q1255.63 1542.04 1255.18 1547.07 L1276.06 1547.04 Z" fill="#000000" fill-rule="evenodd" fill-opacity="1" /><path clip-path="url(#clip240)" d="M 0 0 M1314.99 1549.81 Q1314.99 1543.44 1312.35 1539.94 Q1309.74 1536.44 1304.99 1536.44 Q1300.28 1536.44 1297.64 1539.94 Q1295.03 1543.44 1295.03 1549.81 Q1295.03 1556.14 1297.64 1559.64 Q1300.28 1563.14 1304.99 1563.14 Q1309.74 1563.14 1312.35 1559.64 Q1314.99 1556.14 1314.99 1549.81 M1320.85 1563.62 Q1320.85 1572.72 1316.8 1577.15 Q1312.76 1581.6 1304.42 1581.6 Q1301.33 1581.6 1298.6 1581.13 Q1295.86 1580.68 1293.28 1579.72 L1293.28 1574.03 Q1295.86 1575.43 1298.37 1576.1 Q1300.89 1576.76 1303.5 1576.76 Q1309.26 1576.76 1312.12 1573.74 Q1314.99 1570.75 1314.99 1564.67 L1314.99 1561.77 Q1313.17 1564.92 1310.34 1566.48 Q1307.51 1568.04 1303.56 1568.04 Q1297.01 1568.04 1293 1563.05 Q1288.98 1558.05 1288.98 1549.81 Q1288.98 1541.53 1293 1536.53 Q1297.01 1531.54 1303.56 1531.54 Q1307.51 1531.54 1310.34 1533.1 Q1313.17 1534.66 1314.99 1537.81 L1314.99 1532.4 L1320.85 1532.4 L1320.85 1563.62 Z" fill="#000000" fill-rule="evenodd" fill-opacity="1" /><path clip-path="url(#clip240)" d="M 0 0 M1353.56 1537.87 Q1352.58 1537.3 1351.4 1537.04 Q1350.25 1536.76 1348.85 1536.76 Q1343.89 1536.76 1341.22 1540 Q1338.57 1543.22 1338.57 1549.27 L1338.57 1568.04 L1332.69 1568.04 L1332.69 1532.4 L1338.57 1532.4 L1338.57 1537.93 Q1340.42 1534.69 1343.38 1533.13 Q1346.34 1531.54 1350.57 1531.54 Q1351.18 1531.54 1351.91 1531.63 Q1352.64 1531.7 1353.53 1531.85 L1353.56 1537.87 Z" fill="#000000" fill-rule="evenodd" fill-opacity="1" /><path clip-path="url(#clip240)" d="M 0 0 M1388.77 1548.76 L1388.77 1551.62 L1361.84 1551.62 Q1362.22 1557.67 1365.47 1560.85 Q1368.75 1564 1374.57 1564 Q1377.95 1564 1381.1 1563.17 Q1384.28 1562.35 1387.4 1560.69 L1387.4 1566.23 Q1384.25 1567.57 1380.94 1568.27 Q1377.63 1568.97 1374.22 1568.97 Q1365.69 1568.97 1360.69 1564 Q1355.73 1559.04 1355.73 1550.57 Q1355.73 1541.82 1360.44 1536.69 Q1365.18 1531.54 1373.2 1531.54 Q1380.4 1531.54 1384.57 1536.18 Q1388.77 1540.8 1388.77 1548.76 M1382.91 1547.04 Q1382.85 1542.23 1380.21 1539.37 Q1377.6 1536.5 1373.27 1536.5 Q1368.37 1536.5 1365.4 1539.27 Q1362.48 1542.04 1362.03 1547.07 L1382.91 1547.04 Z" fill="#000000" fill-rule="evenodd" fill-opacity="1" /><path clip-path="url(#clip240)" d="M 0 0 M1428.87 1548.76 L1428.87 1551.62 L1401.94 1551.62 Q1402.33 1557.67 1405.57 1560.85 Q1408.85 1564 1414.68 1564 Q1418.05 1564 1421.2 1563.17 Q1424.38 1562.35 1427.5 1560.69 L1427.5 1566.23 Q1424.35 1567.57 1421.04 1568.27 Q1417.73 1568.97 1414.33 1568.97 Q1405.8 1568.97 1400.8 1564 Q1395.83 1559.04 1395.83 1550.57 Q1395.83 1541.82 1400.54 1536.69 Q1405.29 1531.54 1413.31 1531.54 Q1420.5 1531.54 1424.67 1536.18 Q1428.87 1540.8 1428.87 1548.76 M1423.01 1547.04 Q1422.95 1542.23 1420.31 1539.37 Q1417.7 1536.5 1413.37 1536.5 Q1408.47 1536.5 1405.51 1539.27 Q1402.58 1542.04 1402.14 1547.07 L1423.01 1547.04 Z" fill="#000000" fill-rule="evenodd" fill-opacity="1" /><polyline clip-path="url(#clip242)" style="stroke:#000000; stroke-width:2; stroke-opacity:0.1; fill:none" points="
  219.866,1386.4 2352.76,1386.4 
  "/>
<polyline clip-path="url(#clip242)" style="stroke:#000000; stroke-width:2; stroke-opacity:0.1; fill:none" points="
  219.866,1141.17 2352.76,1141.17 
  "/>
<polyline clip-path="url(#clip242)" style="stroke:#000000; stroke-width:2; stroke-opacity:0.1; fill:none" points="
  219.866,895.94 2352.76,895.94 
  "/>
<polyline clip-path="url(#clip242)" style="stroke:#000000; stroke-width:2; stroke-opacity:0.1; fill:none" points="
  219.866,650.712 2352.76,650.712 
  "/>
<polyline clip-path="url(#clip242)" style="stroke:#000000; stroke-width:2; stroke-opacity:0.1; fill:none" points="
  219.866,405.484 2352.76,405.484 
  "/>
<polyline clip-path="url(#clip242)" style="stroke:#000000; stroke-width:2; stroke-opacity:0.1; fill:none" points="
  219.866,160.256 2352.76,160.256 
  "/>
<polyline clip-path="url(#clip240)" style="stroke:#000000; stroke-width:4; stroke-opacity:1; fill:none" points="
  219.866,1423.18 219.866,123.472 
  "/>
<polyline clip-path="url(#clip240)" style="stroke:#000000; stroke-width:4; stroke-opacity:1; fill:none" points="
  219.866,1386.4 245.461,1386.4 
  "/>
<polyline clip-path="url(#clip240)" style="stroke:#000000; stroke-width:4; stroke-opacity:1; fill:none" points="
  219.866,1141.17 245.461,1141.17 
  "/>
<polyline clip-path="url(#clip240)" style="stroke:#000000; stroke-width:4; stroke-opacity:1; fill:none" points="
  219.866,895.94 245.461,895.94 
  "/>
<polyline clip-path="url(#clip240)" style="stroke:#000000; stroke-width:4; stroke-opacity:1; fill:none" points="
  219.866,650.712 245.461,650.712 
  "/>
<polyline clip-path="url(#clip240)" style="stroke:#000000; stroke-width:4; stroke-opacity:1; fill:none" points="
  219.866,405.484 245.461,405.484 
  "/>
<polyline clip-path="url(#clip240)" style="stroke:#000000; stroke-width:4; stroke-opacity:1; fill:none" points="
  219.866,160.256 245.461,160.256 
  "/>
<path clip-path="url(#clip240)" d="M 0 0 M126.691 1372.19 Q123.08 1372.19 121.251 1375.76 Q119.445 1379.3 119.445 1386.43 Q119.445 1393.54 121.251 1397.1 Q123.08 1400.64 126.691 1400.64 Q130.325 1400.64 132.13 1397.1 Q133.959 1393.54 133.959 1386.43 Q133.959 1379.3 132.13 1375.76 Q130.325 1372.19 126.691 1372.19 M126.691 1368.49 Q132.501 1368.49 135.556 1373.1 Q138.635 1377.68 138.635 1386.43 Q138.635 1395.16 135.556 1399.76 Q132.501 1404.35 126.691 1404.35 Q120.88 1404.35 117.802 1399.76 Q114.746 1395.16 114.746 1386.43 Q114.746 1377.68 117.802 1373.1 Q120.88 1368.49 126.691 1368.49 Z" fill="#000000" fill-rule="evenodd" fill-opacity="1" /><path clip-path="url(#clip240)" d="M 0 0 M146.853 1397.8 L151.737 1397.8 L151.737 1403.68 L146.853 1403.68 L146.853 1397.8 Z" fill="#000000" fill-rule="evenodd" fill-opacity="1" /><path clip-path="url(#clip240)" d="M 0 0 M171.922 1372.19 Q168.311 1372.19 166.482 1375.76 Q164.677 1379.3 164.677 1386.43 Q164.677 1393.54 166.482 1397.1 Q168.311 1400.64 171.922 1400.64 Q175.556 1400.64 177.362 1397.1 Q179.19 1393.54 179.19 1386.43 Q179.19 1379.3 177.362 1375.76 Q175.556 1372.19 171.922 1372.19 M171.922 1368.49 Q177.732 1368.49 180.788 1373.1 Q183.866 1377.68 183.866 1386.43 Q183.866 1395.16 180.788 1399.76 Q177.732 1404.35 171.922 1404.35 Q166.112 1404.35 163.033 1399.76 Q159.978 1395.16 159.978 1386.43 Q159.978 1377.68 163.033 1373.1 Q166.112 1368.49 171.922 1368.49 Z" fill="#000000" fill-rule="evenodd" fill-opacity="1" /><path clip-path="url(#clip240)" d="M 0 0 M127.917 1126.97 Q124.306 1126.97 122.478 1130.53 Q120.672 1134.07 120.672 1141.2 Q120.672 1148.31 122.478 1151.87 Q124.306 1155.42 127.917 1155.42 Q131.552 1155.42 133.357 1151.87 Q135.186 1148.31 135.186 1141.2 Q135.186 1134.07 133.357 1130.53 Q131.552 1126.97 127.917 1126.97 M127.917 1123.26 Q133.728 1123.26 136.783 1127.87 Q139.862 1132.45 139.862 1141.2 Q139.862 1149.93 136.783 1154.54 Q133.728 1159.12 127.917 1159.12 Q122.107 1159.12 119.029 1154.54 Q115.973 1149.93 115.973 1141.2 Q115.973 1132.45 119.029 1127.87 Q122.107 1123.26 127.917 1123.26 Z" fill="#000000" fill-rule="evenodd" fill-opacity="1" /><path clip-path="url(#clip240)" d="M 0 0 M148.079 1152.57 L152.964 1152.57 L152.964 1158.45 L148.079 1158.45 L148.079 1152.57 Z" fill="#000000" fill-rule="evenodd" fill-opacity="1" /><path clip-path="url(#clip240)" d="M 0 0 M163.959 1154.51 L171.598 1154.51 L171.598 1128.15 L163.288 1129.81 L163.288 1125.55 L171.552 1123.89 L176.227 1123.89 L176.227 1154.51 L183.866 1154.51 L183.866 1158.45 L163.959 1158.45 L163.959 1154.51 Z" fill="#000000" fill-rule="evenodd" fill-opacity="1" /><path clip-path="url(#clip240)" d="M 0 0 M128.288 881.739 Q124.677 881.739 122.848 885.304 Q121.043 888.845 121.043 895.975 Q121.043 903.081 122.848 906.646 Q124.677 910.188 128.288 910.188 Q131.922 910.188 133.728 906.646 Q135.556 903.081 135.556 895.975 Q135.556 888.845 133.728 885.304 Q131.922 881.739 128.288 881.739 M128.288 878.035 Q134.098 878.035 137.154 882.642 Q140.232 887.225 140.232 895.975 Q140.232 904.702 137.154 909.308 Q134.098 913.891 128.288 913.891 Q122.478 913.891 119.399 909.308 Q116.343 904.702 116.343 895.975 Q116.343 887.225 119.399 882.642 Q122.478 878.035 128.288 878.035 Z" fill="#000000" fill-rule="evenodd" fill-opacity="1" /><path clip-path="url(#clip240)" d="M 0 0 M148.45 907.341 L153.334 907.341 L153.334 913.22 L148.45 913.22 L148.45 907.341 Z" fill="#000000" fill-rule="evenodd" fill-opacity="1" /><path clip-path="url(#clip240)" d="M 0 0 M167.547 909.285 L183.866 909.285 L183.866 913.22 L161.922 913.22 L161.922 909.285 Q164.584 906.53 169.167 901.901 Q173.774 897.248 174.954 895.905 Q177.2 893.382 178.079 891.646 Q178.982 889.887 178.982 888.197 Q178.982 885.443 177.038 883.706 Q175.116 881.97 172.014 881.97 Q169.815 881.97 167.362 882.734 Q164.931 883.498 162.153 885.049 L162.153 880.327 Q164.977 879.193 167.431 878.614 Q169.885 878.035 171.922 878.035 Q177.292 878.035 180.487 880.72 Q183.681 883.405 183.681 887.896 Q183.681 890.026 182.871 891.947 Q182.084 893.845 179.977 896.438 Q179.399 897.109 176.297 900.327 Q173.195 903.521 167.547 909.285 Z" fill="#000000" fill-rule="evenodd" fill-opacity="1" /><path clip-path="url(#clip240)" d="M 0 0 M127.339 636.511 Q123.728 636.511 121.899 640.076 Q120.093 643.617 120.093 650.747 Q120.093 657.853 121.899 661.418 Q123.728 664.96 127.339 664.96 Q130.973 664.96 132.779 661.418 Q134.607 657.853 134.607 650.747 Q134.607 643.617 132.779 640.076 Q130.973 636.511 127.339 636.511 M127.339 632.807 Q133.149 632.807 136.204 637.414 Q139.283 641.997 139.283 650.747 Q139.283 659.474 136.204 664.08 Q133.149 668.663 127.339 668.663 Q121.529 668.663 118.45 664.08 Q115.394 659.474 115.394 650.747 Q115.394 641.997 118.45 637.414 Q121.529 632.807 127.339 632.807 Z" fill="#000000" fill-rule="evenodd" fill-opacity="1" /><path clip-path="url(#clip240)" d="M 0 0 M147.501 662.113 L152.385 662.113 L152.385 667.992 L147.501 667.992 L147.501 662.113 Z" fill="#000000" fill-rule="evenodd" fill-opacity="1" /><path clip-path="url(#clip240)" d="M 0 0 M176.737 649.358 Q180.093 650.076 181.968 652.344 Q183.866 654.613 183.866 657.946 Q183.866 663.062 180.348 665.863 Q176.829 668.663 170.348 668.663 Q168.172 668.663 165.857 668.224 Q163.565 667.807 161.112 666.951 L161.112 662.437 Q163.056 663.571 165.371 664.15 Q167.686 664.728 170.209 664.728 Q174.607 664.728 176.899 662.992 Q179.214 661.256 179.214 657.946 Q179.214 654.89 177.061 653.177 Q174.931 651.441 171.112 651.441 L167.084 651.441 L167.084 647.599 L171.297 647.599 Q174.746 647.599 176.575 646.233 Q178.403 644.844 178.403 642.252 Q178.403 639.59 176.505 638.178 Q174.63 636.742 171.112 636.742 Q169.19 636.742 166.991 637.159 Q164.792 637.576 162.153 638.455 L162.153 634.289 Q164.815 633.548 167.13 633.178 Q169.468 632.807 171.528 632.807 Q176.852 632.807 179.954 635.238 Q183.056 637.645 183.056 641.765 Q183.056 644.636 181.413 646.627 Q179.769 648.594 176.737 649.358 Z" fill="#000000" fill-rule="evenodd" fill-opacity="1" /><path clip-path="url(#clip240)" d="M 0 0 M126.205 391.283 Q122.593 391.283 120.765 394.848 Q118.959 398.389 118.959 405.519 Q118.959 412.625 120.765 416.19 Q122.593 419.732 126.205 419.732 Q129.839 419.732 131.644 416.19 Q133.473 412.625 133.473 405.519 Q133.473 398.389 131.644 394.848 Q129.839 391.283 126.205 391.283 M126.205 387.579 Q132.015 387.579 135.07 392.186 Q138.149 396.769 138.149 405.519 Q138.149 414.246 135.07 418.852 Q132.015 423.436 126.205 423.436 Q120.394 423.436 117.316 418.852 Q114.26 414.246 114.26 405.519 Q114.26 396.769 117.316 392.186 Q120.394 387.579 126.205 387.579 Z" fill="#000000" fill-rule="evenodd" fill-opacity="1" /><path clip-path="url(#clip240)" d="M 0 0 M146.366 416.885 L151.251 416.885 L151.251 422.764 L146.366 422.764 L146.366 416.885 Z" fill="#000000" fill-rule="evenodd" fill-opacity="1" /><path clip-path="url(#clip240)" d="M 0 0 M174.283 392.278 L162.477 410.727 L174.283 410.727 L174.283 392.278 M173.056 388.204 L178.936 388.204 L178.936 410.727 L183.866 410.727 L183.866 414.616 L178.936 414.616 L178.936 422.764 L174.283 422.764 L174.283 414.616 L158.681 414.616 L158.681 410.102 L173.056 388.204 Z" fill="#000000" fill-rule="evenodd" fill-opacity="1" /><path clip-path="url(#clip240)" d="M 0 0 M127.686 146.055 Q124.075 146.055 122.246 149.62 Q120.441 153.161 120.441 160.291 Q120.441 167.397 122.246 170.962 Q124.075 174.504 127.686 174.504 Q131.32 174.504 133.126 170.962 Q134.954 167.397 134.954 160.291 Q134.954 153.161 133.126 149.62 Q131.32 146.055 127.686 146.055 M127.686 142.351 Q133.496 142.351 136.552 146.958 Q139.63 151.541 139.63 160.291 Q139.63 169.018 136.552 173.624 Q133.496 178.208 127.686 178.208 Q121.876 178.208 118.797 173.624 Q115.742 169.018 115.742 160.291 Q115.742 151.541 118.797 146.958 Q121.876 142.351 127.686 142.351 Z" fill="#000000" fill-rule="evenodd" fill-opacity="1" /><path clip-path="url(#clip240)" d="M 0 0 M147.848 171.657 L152.732 171.657 L152.732 177.536 L147.848 177.536 L147.848 171.657 Z" fill="#000000" fill-rule="evenodd" fill-opacity="1" /><path clip-path="url(#clip240)" d="M 0 0 M162.964 142.976 L181.32 142.976 L181.32 146.911 L167.246 146.911 L167.246 155.384 Q168.264 155.036 169.283 154.874 Q170.302 154.689 171.32 154.689 Q177.107 154.689 180.487 157.86 Q183.866 161.032 183.866 166.448 Q183.866 172.027 180.394 175.129 Q176.922 178.208 170.602 178.208 Q168.427 178.208 166.158 177.837 Q163.913 177.467 161.505 176.726 L161.505 172.027 Q163.589 173.161 165.811 173.717 Q168.033 174.272 170.51 174.272 Q174.514 174.272 176.852 172.166 Q179.19 170.059 179.19 166.448 Q179.19 162.837 176.852 160.731 Q174.514 158.624 170.51 158.624 Q168.635 158.624 166.76 159.041 Q164.908 159.458 162.964 160.337 L162.964 142.976 Z" fill="#000000" fill-rule="evenodd" fill-opacity="1" /><path clip-path="url(#clip240)" d="M 0 0 M20.8447 1037.41 Q20.8447 1044.41 26.0645 1048.55 Q31.2844 1052.65 40.2919 1052.65 Q49.2675 1052.65 54.4874 1048.55 Q59.7073 1044.41 59.7073 1037.41 Q59.7073 1030.41 54.4874 1026.33 Q49.2675 1022.23 40.2919 1022.23 Q31.2844 1022.23 26.0645 1026.33 Q20.8447 1030.41 20.8447 1037.41 M15.6248 1037.41 Q15.6248 1027.41 22.3406 1021.43 Q29.0246 1015.45 40.2919 1015.45 Q51.5274 1015.45 58.2432 1021.43 Q64.9272 1027.41 64.9272 1037.41 Q64.9272 1047.43 58.2432 1053.45 Q51.5592 1059.43 40.2919 1059.43 Q29.0246 1059.43 22.3406 1053.45 Q15.6248 1047.43 15.6248 1037.41 Z" fill="#000000" fill-rule="evenodd" fill-opacity="1" /><path clip-path="url(#clip240)" d="M 0 0 M33.8307 984.986 Q33.2578 985.972 33.0032 987.15 Q32.7167 988.296 32.7167 989.696 Q32.7167 994.662 35.9632 997.335 Q39.1779 999.977 45.2253 999.977 L64.0042 999.977 L64.0042 1005.87 L28.3562 1005.87 L28.3562 999.977 L33.8944 999.977 Q30.6479 998.131 29.0883 995.171 Q27.4968 992.211 27.4968 987.978 Q27.4968 987.373 27.5923 986.641 Q27.656 985.909 27.8151 985.018 L33.8307 984.986 Z" fill="#000000" fill-rule="evenodd" fill-opacity="1" /><path clip-path="url(#clip240)" d="M 0 0 M33.7671 956.531 L14.479 956.531 L14.479 950.675 L64.0042 950.675 L64.0042 956.531 L58.657 956.531 Q61.8398 958.377 63.3994 961.21 Q64.9272 964.011 64.9272 967.957 Q64.9272 974.419 59.771 978.493 Q54.6147 982.535 46.212 982.535 Q37.8093 982.535 32.6531 978.493 Q27.4968 974.419 27.4968 967.957 Q27.4968 964.011 29.0564 961.21 Q30.5842 958.377 33.7671 956.531 M46.212 976.488 Q52.6732 976.488 56.3653 973.846 Q60.0256 971.172 60.0256 966.525 Q60.0256 961.878 56.3653 959.205 Q52.6732 956.531 46.212 956.531 Q39.7508 956.531 36.0905 959.205 Q32.3984 961.878 32.3984 966.525 Q32.3984 971.172 36.0905 973.846 Q39.7508 976.488 46.212 976.488 Z" fill="#000000" fill-rule="evenodd" fill-opacity="1" /><path clip-path="url(#clip240)" d="M 0 0 M44.7161 908.12 L47.5806 908.12 L47.5806 935.047 Q53.6281 934.665 56.8109 931.418 Q59.9619 928.14 59.9619 922.315 Q59.9619 918.942 59.1344 915.79 Q58.3069 912.608 56.6518 909.488 L62.1899 909.488 Q63.5267 912.639 64.227 915.95 Q64.9272 919.26 64.9272 922.665 Q64.9272 931.196 59.9619 936.193 Q54.9967 941.158 46.5303 941.158 Q37.7774 941.158 32.6531 936.447 Q27.4968 931.705 27.4968 923.684 Q27.4968 916.491 32.1438 912.321 Q36.7589 908.12 44.7161 908.12 M42.9973 913.976 Q38.1912 914.04 35.3266 916.682 Q32.4621 919.292 32.4621 923.62 Q32.4621 928.522 35.2312 931.482 Q38.0002 934.41 43.0292 934.856 L42.9973 913.976 Z" fill="#000000" fill-rule="evenodd" fill-opacity="1" /><path clip-path="url(#clip240)" d="M 0 0 M33.8307 877.851 Q33.2578 878.838 33.0032 880.015 Q32.7167 881.161 32.7167 882.562 Q32.7167 887.527 35.9632 890.2 Q39.1779 892.842 45.2253 892.842 L64.0042 892.842 L64.0042 898.73 L28.3562 898.73 L28.3562 892.842 L33.8944 892.842 Q30.6479 890.996 29.0883 888.036 Q27.4968 885.076 27.4968 880.843 Q27.4968 880.238 27.5923 879.506 Q27.656 878.774 27.8151 877.883 L33.8307 877.851 Z" fill="#000000" fill-rule="evenodd" fill-opacity="1" /><path clip-path="url(#clip240)" d="M 0 0 M21.7677 844.304 L39.6235 844.304 L39.6235 836.219 Q39.6235 831.731 37.3 829.281 Q34.9765 826.83 30.6797 826.83 Q26.4147 826.83 24.0912 829.281 Q21.7677 831.731 21.7677 836.219 L21.7677 844.304 M16.4842 850.733 L16.4842 836.219 Q16.4842 828.23 20.1126 824.156 Q23.7092 820.05 30.6797 820.05 Q37.7138 820.05 41.3104 824.156 Q44.907 828.23 44.907 836.219 L44.907 844.304 L64.0042 844.304 L64.0042 850.733 L16.4842 850.733 Z" fill="#000000" fill-rule="evenodd" fill-opacity="1" /><path clip-path="url(#clip240)" d="M 0 0 M46.0847 798.407 Q46.0847 805.505 47.7079 808.242 Q49.3312 810.979 53.2461 810.979 Q56.3653 810.979 58.2114 808.942 Q60.0256 806.873 60.0256 803.34 Q60.0256 798.471 56.5881 795.542 Q53.1188 792.582 47.3897 792.582 L46.0847 792.582 L46.0847 798.407 M43.6657 786.726 L64.0042 786.726 L64.0042 792.582 L58.5933 792.582 Q61.8398 794.587 63.3994 797.579 Q64.9272 800.571 64.9272 804.9 Q64.9272 810.374 61.8716 813.621 Q58.7843 816.836 53.6281 816.836 Q47.6125 816.836 44.5569 812.825 Q41.5014 808.783 41.5014 800.794 L41.5014 792.582 L40.9285 792.582 Q36.8862 792.582 34.6901 795.256 Q32.4621 797.898 32.4621 802.704 Q32.4621 805.759 33.1941 808.656 Q33.9262 811.552 35.3903 814.226 L29.9795 814.226 Q28.7381 811.011 28.1334 807.987 Q27.4968 804.964 27.4968 802.099 Q27.4968 794.365 31.5072 790.545 Q35.5176 786.726 43.6657 786.726 Z" fill="#000000" fill-rule="evenodd" fill-opacity="1" /><path clip-path="url(#clip240)" d="M 0 0 M33.8307 754.006 Q33.2578 754.993 33.0032 756.17 Q32.7167 757.316 32.7167 758.717 Q32.7167 763.682 35.9632 766.356 Q39.1779 768.997 45.2253 768.997 L64.0042 768.997 L64.0042 774.886 L28.3562 774.886 L28.3562 768.997 L33.8944 768.997 Q30.6479 767.151 29.0883 764.191 Q27.4968 761.231 27.4968 756.998 Q27.4968 756.393 27.5923 755.661 Q27.656 754.929 27.8151 754.038 L33.8307 754.006 Z" fill="#000000" fill-rule="evenodd" fill-opacity="1" /><path clip-path="url(#clip240)" d="M 0 0 M46.0847 731.662 Q46.0847 738.76 47.7079 741.497 Q49.3312 744.235 53.2461 744.235 Q56.3653 744.235 58.2114 742.198 Q60.0256 740.129 60.0256 736.596 Q60.0256 731.726 56.5881 728.798 Q53.1188 725.838 47.3897 725.838 L46.0847 725.838 L46.0847 731.662 M43.6657 719.981 L64.0042 719.981 L64.0042 725.838 L58.5933 725.838 Q61.8398 727.843 63.3994 730.835 Q64.9272 733.827 64.9272 738.155 Q64.9272 743.63 61.8716 746.876 Q58.7843 750.091 53.6281 750.091 Q47.6125 750.091 44.5569 746.081 Q41.5014 742.039 41.5014 734.05 L41.5014 725.838 L40.9285 725.838 Q36.8862 725.838 34.6901 728.511 Q32.4621 731.153 32.4621 735.959 Q32.4621 739.015 33.1941 741.911 Q33.9262 744.808 35.3903 747.481 L29.9795 747.481 Q28.7381 744.267 28.1334 741.243 Q27.4968 738.219 27.4968 735.355 Q27.4968 727.62 31.5072 723.801 Q35.5176 719.981 43.6657 719.981 Z" fill="#000000" fill-rule="evenodd" fill-opacity="1" /><path clip-path="url(#clip240)" d="M 0 0 M35.1993 680.164 Q31.2526 677.968 29.3747 674.912 Q27.4968 671.857 27.4968 667.719 Q27.4968 662.149 31.4117 659.125 Q35.2948 656.101 42.4881 656.101 L64.0042 656.101 L64.0042 661.99 L42.679 661.99 Q37.5546 661.99 35.072 663.804 Q32.5894 665.618 32.5894 669.342 Q32.5894 673.894 35.6131 676.535 Q38.6368 679.177 43.8567 679.177 L64.0042 679.177 L64.0042 685.065 L42.679 685.065 Q37.5228 685.065 35.072 686.88 Q32.5894 688.694 32.5894 692.482 Q32.5894 696.969 35.6449 699.611 Q38.6686 702.253 43.8567 702.253 L64.0042 702.253 L64.0042 708.141 L28.3562 708.141 L28.3562 702.253 L33.8944 702.253 Q30.616 700.248 29.0564 697.447 Q27.4968 694.646 27.4968 690.795 Q27.4968 686.912 29.4702 684.206 Q31.4436 681.469 35.1993 680.164 Z" fill="#000000" fill-rule="evenodd" fill-opacity="1" /><path clip-path="url(#clip240)" d="M 0 0 M44.7161 613.929 L47.5806 613.929 L47.5806 640.856 Q53.6281 640.474 56.8109 637.227 Q59.9619 633.949 59.9619 628.124 Q59.9619 624.75 59.1344 621.599 Q58.3069 618.417 56.6518 615.297 L62.1899 615.297 Q63.5267 618.448 64.227 621.759 Q64.9272 625.069 64.9272 628.474 Q64.9272 637.004 59.9619 642.001 Q54.9967 646.967 46.5303 646.967 Q37.7774 646.967 32.6531 642.256 Q27.4968 637.514 27.4968 629.493 Q27.4968 622.3 32.1438 618.13 Q36.7589 613.929 44.7161 613.929 M42.9973 619.785 Q38.1912 619.849 35.3266 622.491 Q32.4621 625.101 32.4621 629.429 Q32.4621 634.331 35.2312 637.291 Q38.0002 640.219 43.0292 640.665 L42.9973 619.785 Z" fill="#000000" fill-rule="evenodd" fill-opacity="1" /><path clip-path="url(#clip240)" d="M 0 0 M18.2347 598.524 L28.3562 598.524 L28.3562 586.461 L32.9077 586.461 L32.9077 598.524 L52.2594 598.524 Q56.6199 598.524 57.8613 597.346 Q59.1026 596.137 59.1026 592.476 L59.1026 586.461 L64.0042 586.461 L64.0042 592.476 Q64.0042 599.256 61.4897 601.834 Q58.9434 604.412 52.2594 604.412 L32.9077 604.412 L32.9077 608.709 L28.3562 608.709 L28.3562 604.412 L18.2347 604.412 L18.2347 598.524 Z" fill="#000000" fill-rule="evenodd" fill-opacity="1" /><path clip-path="url(#clip240)" d="M 0 0 M44.7161 548.266 L47.5806 548.266 L47.5806 575.193 Q53.6281 574.811 56.8109 571.565 Q59.9619 568.287 59.9619 562.462 Q59.9619 559.088 59.1344 555.937 Q58.3069 552.754 56.6518 549.635 L62.1899 549.635 Q63.5267 552.786 64.227 556.096 Q64.9272 559.406 64.9272 562.812 Q64.9272 571.342 59.9619 576.339 Q54.9967 581.304 46.5303 581.304 Q37.7774 581.304 32.6531 576.594 Q27.4968 571.851 27.4968 563.831 Q27.4968 556.637 32.1438 552.468 Q36.7589 548.266 44.7161 548.266 M42.9973 554.123 Q38.1912 554.187 35.3266 556.828 Q32.4621 559.438 32.4621 563.767 Q32.4621 568.669 35.2312 571.629 Q38.0002 574.557 43.0292 575.002 L42.9973 554.123 Z" fill="#000000" fill-rule="evenodd" fill-opacity="1" /><path clip-path="url(#clip240)" d="M 0 0 M33.8307 517.997 Q33.2578 518.984 33.0032 520.162 Q32.7167 521.308 32.7167 522.708 Q32.7167 527.673 35.9632 530.347 Q39.1779 532.989 45.2253 532.989 L64.0042 532.989 L64.0042 538.877 L28.3562 538.877 L28.3562 532.989 L33.8944 532.989 Q30.6479 531.143 29.0883 528.183 Q27.4968 525.223 27.4968 520.989 Q27.4968 520.385 27.5923 519.653 Q27.656 518.921 27.8151 518.029 L33.8307 517.997 Z" fill="#000000" fill-rule="evenodd" fill-opacity="1" /><path clip-path="url(#clip240)" d="M 0 0 M29.4065 489.129 L34.9447 489.129 Q33.6716 491.612 33.035 494.285 Q32.3984 496.959 32.3984 499.823 Q32.3984 504.184 33.7352 506.38 Q35.072 508.544 37.7456 508.544 Q39.7826 508.544 40.9603 506.985 Q42.1061 505.425 43.1565 500.715 L43.6021 498.709 Q44.9389 492.471 47.3897 489.861 Q49.8086 487.219 54.1691 487.219 Q59.1344 487.219 62.0308 491.166 Q64.9272 495.081 64.9272 501.956 Q64.9272 504.82 64.3543 507.94 Q63.8132 511.027 62.6992 514.465 L56.6518 514.465 Q58.3387 511.218 59.198 508.067 Q60.0256 504.916 60.0256 501.829 Q60.0256 497.691 58.6251 495.463 Q57.1929 493.235 54.6147 493.235 Q52.2276 493.235 50.9545 494.858 Q49.6813 496.45 48.5037 501.892 L48.0262 503.929 Q46.8804 509.372 44.5251 511.791 Q42.138 514.21 38.0002 514.21 Q32.9713 514.21 30.2341 510.645 Q27.4968 507.08 27.4968 500.524 Q27.4968 497.277 27.9743 494.413 Q28.4517 491.548 29.4065 489.129 Z" fill="#000000" fill-rule="evenodd" fill-opacity="1" /><path clip-path="url(#clip240)" d="M 0 0 M1193.59 35.9153 Q1196.38 30.8922 1200.27 28.5022 Q1204.16 26.1121 1209.42 26.1121 Q1216.51 26.1121 1220.36 31.0947 Q1224.21 36.0368 1224.21 45.1919 L1224.21 72.576 L1216.72 72.576 L1216.72 45.4349 Q1216.72 38.913 1214.41 35.7533 Q1212.1 32.5936 1207.36 32.5936 Q1201.57 32.5936 1198.2 36.4419 Q1194.84 40.2903 1194.84 46.9338 L1194.84 72.576 L1187.35 72.576 L1187.35 45.4349 Q1187.35 38.8725 1185.04 35.7533 Q1182.73 32.5936 1177.91 32.5936 Q1172.2 32.5936 1168.83 36.4824 Q1165.47 40.3308 1165.47 46.9338 L1165.47 72.576 L1157.98 72.576 L1157.98 27.2059 L1165.47 27.2059 L1165.47 34.2544 Q1168.02 30.082 1171.59 28.0971 Q1175.15 26.1121 1180.06 26.1121 Q1185 26.1121 1188.44 28.6237 Q1191.93 31.1352 1193.59 35.9153 Z" fill="#000000" fill-rule="evenodd" fill-opacity="1" /><path clip-path="url(#clip240)" d="M 0 0 M1259.7 49.7694 Q1250.66 49.7694 1247.18 51.8354 Q1243.7 53.9013 1243.7 58.8839 Q1243.7 62.8538 1246.29 65.2034 Q1248.92 67.5124 1253.42 67.5124 Q1259.62 67.5124 1263.34 63.1374 Q1267.11 58.7219 1267.11 51.4303 L1267.11 49.7694 L1259.7 49.7694 M1274.56 46.6907 L1274.56 72.576 L1267.11 72.576 L1267.11 65.6895 Q1264.56 69.8214 1260.75 71.8063 Q1256.94 73.7508 1251.43 73.7508 Q1244.47 73.7508 1240.33 69.8619 Q1236.24 65.9325 1236.24 59.3701 Q1236.24 51.7138 1241.35 47.825 Q1246.49 43.9361 1256.66 43.9361 L1267.11 43.9361 L1267.11 43.2069 Q1267.11 38.0623 1263.71 35.2672 Q1260.34 32.4315 1254.23 32.4315 Q1250.34 32.4315 1246.65 33.3632 Q1242.97 34.295 1239.56 36.1584 L1239.56 29.2718 Q1243.66 27.692 1247.5 26.9223 Q1251.35 26.1121 1255 26.1121 Q1264.84 26.1121 1269.7 31.2163 Q1274.56 36.3204 1274.56 46.6907 Z" fill="#000000" fill-rule="evenodd" fill-opacity="1" /><path clip-path="url(#clip240)" d="M 0 0 M1319.77 49.3643 Q1319.77 41.2625 1316.41 36.8065 Q1313.09 32.3505 1307.05 32.3505 Q1301.06 32.3505 1297.69 36.8065 Q1294.37 41.2625 1294.37 49.3643 Q1294.37 57.4256 1297.69 61.8816 Q1301.06 66.3376 1307.05 66.3376 Q1313.09 66.3376 1316.41 61.8816 Q1319.77 57.4256 1319.77 49.3643 M1327.23 66.9452 Q1327.23 78.5308 1322.08 84.1616 Q1316.94 89.8329 1306.32 89.8329 Q1302.39 89.8329 1298.91 89.2252 Q1295.43 88.6581 1292.14 87.4428 L1292.14 80.1917 Q1295.43 81.9741 1298.63 82.8248 Q1301.83 83.6755 1305.15 83.6755 Q1312.48 83.6755 1316.13 79.8271 Q1319.77 76.0193 1319.77 68.282 L1319.77 64.5957 Q1317.46 68.6061 1313.86 70.5911 Q1310.25 72.576 1305.23 72.576 Q1296.88 72.576 1291.78 66.2161 Q1286.68 59.8562 1286.68 49.3643 Q1286.68 38.832 1291.78 32.472 Q1296.88 26.1121 1305.23 26.1121 Q1310.25 26.1121 1313.86 28.0971 Q1317.46 30.082 1319.77 34.0924 L1319.77 27.2059 L1327.23 27.2059 L1327.23 66.9452 Z" fill="#000000" fill-rule="evenodd" fill-opacity="1" /><path clip-path="url(#clip240)" d="M 0 0 M1338.81 46.5287 L1360.65 46.5287 L1360.65 53.1722 L1338.81 53.1722 L1338.81 46.5287 Z" fill="#000000" fill-rule="evenodd" fill-opacity="1" /><path clip-path="url(#clip240)" d="M 0 0 M1395.64 9.54393 L1395.64 26.2742 Q1403.71 26.2742 1409.09 32.472 Q1414.64 38.7915 1414.64 49.9314 Q1414.64 61.0714 1409.09 67.3908 Q1403.71 73.5887 1395.64 73.5887 L1395.64 89.8329 L1388.23 89.8329 L1388.23 73.5887 Q1380.17 73.5887 1374.74 67.3908 Q1369.23 61.0714 1369.23 49.9314 Q1369.23 38.7915 1374.74 32.472 Q1380.17 26.2742 1388.23 26.2742 L1388.23 9.54393 L1395.64 9.54393 M1395.64 66.9452 Q1400.22 66.9452 1403.34 62.7728 Q1406.74 58.1143 1406.78 49.9314 Q1406.83 41.8296 1403.34 37.0901 Q1400.22 32.9176 1395.64 32.9176 L1395.64 66.9452 M1388.23 66.9452 L1388.23 32.9176 Q1383.65 32.9176 1380.58 37.0901 Q1377.05 41.8296 1377.09 49.9314 Q1377.13 58.1143 1380.58 62.7728 Q1383.65 66.9452 1388.23 66.9452 Z" fill="#000000" fill-rule="evenodd" fill-opacity="1" /><polyline clip-path="url(#clip242)" style="stroke:#009af9; stroke-width:8; stroke-opacity:1; fill:none" points="
  280.231,1156.78 300.556,1030.19 320.881,1003.25 341.206,1048.7 361.53,924.541 381.855,963.05 402.18,979.164 422.505,965.892 463.155,957.912 564.779,915.732 
  666.403,871.871 768.027,850.187 869.652,821.921 971.276,797.065 1072.9,766.349 1174.52,747.662 1276.15,734.57 1377.77,730.152 1479.4,654.839 1581.02,263.472 
  1682.65,167.062 1784.27,160.256 1885.89,168.748 1987.52,200.8 2089.14,276.477 2190.77,447.237 2292.39,1384.18 
  "/>
<circle clip-path="url(#clip242)" cx="280.231" cy="1156.78" r="14" fill="#009af9" fill-rule="evenodd" fill-opacity="1" stroke="#000000" stroke-opacity="1" stroke-width="3.2"/>
<circle clip-path="url(#clip242)" cx="300.556" cy="1030.19" r="14" fill="#009af9" fill-rule="evenodd" fill-opacity="1" stroke="#000000" stroke-opacity="1" stroke-width="3.2"/>
<circle clip-path="url(#clip242)" cx="320.881" cy="1003.25" r="14" fill="#009af9" fill-rule="evenodd" fill-opacity="1" stroke="#000000" stroke-opacity="1" stroke-width="3.2"/>
<circle clip-path="url(#clip242)" cx="341.206" cy="1048.7" r="14" fill="#009af9" fill-rule="evenodd" fill-opacity="1" stroke="#000000" stroke-opacity="1" stroke-width="3.2"/>
<circle clip-path="url(#clip242)" cx="361.53" cy="924.541" r="14" fill="#009af9" fill-rule="evenodd" fill-opacity="1" stroke="#000000" stroke-opacity="1" stroke-width="3.2"/>
<circle clip-path="url(#clip242)" cx="381.855" cy="963.05" r="14" fill="#009af9" fill-rule="evenodd" fill-opacity="1" stroke="#000000" stroke-opacity="1" stroke-width="3.2"/>
<circle clip-path="url(#clip242)" cx="402.18" cy="979.164" r="14" fill="#009af9" fill-rule="evenodd" fill-opacity="1" stroke="#000000" stroke-opacity="1" stroke-width="3.2"/>
<circle clip-path="url(#clip242)" cx="422.505" cy="965.892" r="14" fill="#009af9" fill-rule="evenodd" fill-opacity="1" stroke="#000000" stroke-opacity="1" stroke-width="3.2"/>
<circle clip-path="url(#clip242)" cx="463.155" cy="957.912" r="14" fill="#009af9" fill-rule="evenodd" fill-opacity="1" stroke="#000000" stroke-opacity="1" stroke-width="3.2"/>
<circle clip-path="url(#clip242)" cx="564.779" cy="915.732" r="14" fill="#009af9" fill-rule="evenodd" fill-opacity="1" stroke="#000000" stroke-opacity="1" stroke-width="3.2"/>
<circle clip-path="url(#clip242)" cx="666.403" cy="871.871" r="14" fill="#009af9" fill-rule="evenodd" fill-opacity="1" stroke="#000000" stroke-opacity="1" stroke-width="3.2"/>
<circle clip-path="url(#clip242)" cx="768.027" cy="850.187" r="14" fill="#009af9" fill-rule="evenodd" fill-opacity="1" stroke="#000000" stroke-opacity="1" stroke-width="3.2"/>
<circle clip-path="url(#clip242)" cx="869.652" cy="821.921" r="14" fill="#009af9" fill-rule="evenodd" fill-opacity="1" stroke="#000000" stroke-opacity="1" stroke-width="3.2"/>
<circle clip-path="url(#clip242)" cx="971.276" cy="797.065" r="14" fill="#009af9" fill-rule="evenodd" fill-opacity="1" stroke="#000000" stroke-opacity="1" stroke-width="3.2"/>
<circle clip-path="url(#clip242)" cx="1072.9" cy="766.349" r="14" fill="#009af9" fill-rule="evenodd" fill-opacity="1" stroke="#000000" stroke-opacity="1" stroke-width="3.2"/>
<circle clip-path="url(#clip242)" cx="1174.52" cy="747.662" r="14" fill="#009af9" fill-rule="evenodd" fill-opacity="1" stroke="#000000" stroke-opacity="1" stroke-width="3.2"/>
<circle clip-path="url(#clip242)" cx="1276.15" cy="734.57" r="14" fill="#009af9" fill-rule="evenodd" fill-opacity="1" stroke="#000000" stroke-opacity="1" stroke-width="3.2"/>
<circle clip-path="url(#clip242)" cx="1377.77" cy="730.152" r="14" fill="#009af9" fill-rule="evenodd" fill-opacity="1" stroke="#000000" stroke-opacity="1" stroke-width="3.2"/>
<circle clip-path="url(#clip242)" cx="1479.4" cy="654.839" r="14" fill="#009af9" fill-rule="evenodd" fill-opacity="1" stroke="#000000" stroke-opacity="1" stroke-width="3.2"/>
<circle clip-path="url(#clip242)" cx="1581.02" cy="263.472" r="14" fill="#009af9" fill-rule="evenodd" fill-opacity="1" stroke="#000000" stroke-opacity="1" stroke-width="3.2"/>
<circle clip-path="url(#clip242)" cx="1682.65" cy="167.062" r="14" fill="#009af9" fill-rule="evenodd" fill-opacity="1" stroke="#000000" stroke-opacity="1" stroke-width="3.2"/>
<circle clip-path="url(#clip242)" cx="1784.27" cy="160.256" r="14" fill="#009af9" fill-rule="evenodd" fill-opacity="1" stroke="#000000" stroke-opacity="1" stroke-width="3.2"/>
<circle clip-path="url(#clip242)" cx="1885.89" cy="168.748" r="14" fill="#009af9" fill-rule="evenodd" fill-opacity="1" stroke="#000000" stroke-opacity="1" stroke-width="3.2"/>
<circle clip-path="url(#clip242)" cx="1987.52" cy="200.8" r="14" fill="#009af9" fill-rule="evenodd" fill-opacity="1" stroke="#000000" stroke-opacity="1" stroke-width="3.2"/>
<circle clip-path="url(#clip242)" cx="2089.14" cy="276.477" r="14" fill="#009af9" fill-rule="evenodd" fill-opacity="1" stroke="#000000" stroke-opacity="1" stroke-width="3.2"/>
<circle clip-path="url(#clip242)" cx="2190.77" cy="447.237" r="14" fill="#009af9" fill-rule="evenodd" fill-opacity="1" stroke="#000000" stroke-opacity="1" stroke-width="3.2"/>
<circle clip-path="url(#clip242)" cx="2292.39" cy="1384.18" r="14" fill="#009af9" fill-rule="evenodd" fill-opacity="1" stroke="#000000" stroke-opacity="1" stroke-width="3.2"/>
<polyline clip-path="url(#clip242)" style="stroke:#e26f46; stroke-width:8; stroke-opacity:1; fill:none" points="
  280.231,1156.78 300.556,1030.31 320.881,1003.59 341.206,1049.32 361.53,1159.88 381.855,1195.38 402.18,1218.18 422.505,1232.11 463.155,1258.22 564.779,1380.45 
  666.403,1382.7 768.027,1384.54 869.652,1385.77 971.276,1385.72 1072.9,1385.69 1174.52,1385.55 1276.15,1385.65 1377.77,1385.88 1479.4,1356.67 1581.02,1364.21 
  1682.65,1386.24 1784.27,1386.4 1885.89,1386.13 1987.52,1384.85 2089.14,1385.1 2190.77,1385.75 2292.39,1385.27 
  "/>
<polyline clip-path="url(#clip242)" style="stroke:#3da44d; stroke-width:8; stroke-opacity:1; fill:none" points="
  280.231,1386.18 300.556,1384.09 320.881,1386.17 341.206,1386.18 361.53,1383.6 381.855,1385.86 402.18,1385.54 422.505,1384.91 463.155,1385.18 564.779,1382.64 
  666.403,1385.41 768.027,1383.54 869.652,1385.82 971.276,1386.08 1072.9,1385.77 1174.52,1386.26 1276.15,1385.8 1377.77,1386.07 1479.4,1347.23 1581.02,1368.85 
  1682.65,1385.89 1784.27,1386.39 1885.89,1384.75 1987.52,1385.37 2089.14,1385.92 2190.77,1386.23 2292.39,1385.63 
  "/>
<polyline clip-path="url(#clip242)" style="stroke:#c271d2; stroke-width:8; stroke-opacity:1; fill:none" points="
  280.231,1384.62 300.556,1381.56 320.881,1370.27 341.206,1366.05 361.53,983.953 381.855,1008.59 402.18,1015.53 422.505,995.205 463.155,977.536 564.779,915.778 
  666.403,871.886 768.027,850.196 869.652,821.922 971.276,797.066 1072.9,766.35 1174.52,747.663 1276.15,734.571 1377.77,730.153 1479.4,1371.61 1581.02,1355.41 
  1682.65,1385.36 1784.27,1386.4 1885.89,1385.85 1987.52,1385.97 2089.14,1386.14 2190.77,1386.25 2292.39,1385.21 
  "/>
<line clip-path="url(#clip242)" x1="280.231" y1="1384.62" x2="280.231" y2="1368.62" style="stroke:#c271d2; stroke-width:3.2; stroke-opacity:1"/>
<line clip-path="url(#clip242)" x1="280.231" y1="1384.62" x2="264.231" y2="1384.62" style="stroke:#c271d2; stroke-width:3.2; stroke-opacity:1"/>
<line clip-path="url(#clip242)" x1="280.231" y1="1384.62" x2="280.231" y2="1400.62" style="stroke:#c271d2; stroke-width:3.2; stroke-opacity:1"/>
<line clip-path="url(#clip242)" x1="280.231" y1="1384.62" x2="296.231" y2="1384.62" style="stroke:#c271d2; stroke-width:3.2; stroke-opacity:1"/>
<line clip-path="url(#clip242)" x1="300.556" y1="1381.56" x2="300.556" y2="1365.56" style="stroke:#c271d2; stroke-width:3.2; stroke-opacity:1"/>
<line clip-path="url(#clip242)" x1="300.556" y1="1381.56" x2="284.556" y2="1381.56" style="stroke:#c271d2; stroke-width:3.2; stroke-opacity:1"/>
<line clip-path="url(#clip242)" x1="300.556" y1="1381.56" x2="300.556" y2="1397.56" style="stroke:#c271d2; stroke-width:3.2; stroke-opacity:1"/>
<line clip-path="url(#clip242)" x1="300.556" y1="1381.56" x2="316.556" y2="1381.56" style="stroke:#c271d2; stroke-width:3.2; stroke-opacity:1"/>
<line clip-path="url(#clip242)" x1="320.881" y1="1370.27" x2="320.881" y2="1354.27" style="stroke:#c271d2; stroke-width:3.2; stroke-opacity:1"/>
<line clip-path="url(#clip242)" x1="320.881" y1="1370.27" x2="304.881" y2="1370.27" style="stroke:#c271d2; stroke-width:3.2; stroke-opacity:1"/>
<line clip-path="url(#clip242)" x1="320.881" y1="1370.27" x2="320.881" y2="1386.27" style="stroke:#c271d2; stroke-width:3.2; stroke-opacity:1"/>
<line clip-path="url(#clip242)" x1="320.881" y1="1370.27" x2="336.881" y2="1370.27" style="stroke:#c271d2; stroke-width:3.2; stroke-opacity:1"/>
<line clip-path="url(#clip242)" x1="341.206" y1="1366.05" x2="341.206" y2="1350.05" style="stroke:#c271d2; stroke-width:3.2; stroke-opacity:1"/>
<line clip-path="url(#clip242)" x1="341.206" y1="1366.05" x2="325.206" y2="1366.05" style="stroke:#c271d2; stroke-width:3.2; stroke-opacity:1"/>
<line clip-path="url(#clip242)" x1="341.206" y1="1366.05" x2="341.206" y2="1382.05" style="stroke:#c271d2; stroke-width:3.2; stroke-opacity:1"/>
<line clip-path="url(#clip242)" x1="341.206" y1="1366.05" x2="357.206" y2="1366.05" style="stroke:#c271d2; stroke-width:3.2; stroke-opacity:1"/>
<line clip-path="url(#clip242)" x1="361.53" y1="983.953" x2="361.53" y2="967.953" style="stroke:#c271d2; stroke-width:3.2; stroke-opacity:1"/>
<line clip-path="url(#clip242)" x1="361.53" y1="983.953" x2="345.53" y2="983.953" style="stroke:#c271d2; stroke-width:3.2; stroke-opacity:1"/>
<line clip-path="url(#clip242)" x1="361.53" y1="983.953" x2="361.53" y2="999.953" style="stroke:#c271d2; stroke-width:3.2; stroke-opacity:1"/>
<line clip-path="url(#clip242)" x1="361.53" y1="983.953" x2="377.53" y2="983.953" style="stroke:#c271d2; stroke-width:3.2; stroke-opacity:1"/>
<line clip-path="url(#clip242)" x1="381.855" y1="1008.59" x2="381.855" y2="992.59" style="stroke:#c271d2; stroke-width:3.2; stroke-opacity:1"/>
<line clip-path="url(#clip242)" x1="381.855" y1="1008.59" x2="365.855" y2="1008.59" style="stroke:#c271d2; stroke-width:3.2; stroke-opacity:1"/>
<line clip-path="url(#clip242)" x1="381.855" y1="1008.59" x2="381.855" y2="1024.59" style="stroke:#c271d2; stroke-width:3.2; stroke-opacity:1"/>
<line clip-path="url(#clip242)" x1="381.855" y1="1008.59" x2="397.855" y2="1008.59" style="stroke:#c271d2; stroke-width:3.2; stroke-opacity:1"/>
<line clip-path="url(#clip242)" x1="402.18" y1="1015.53" x2="402.18" y2="999.529" style="stroke:#c271d2; stroke-width:3.2; stroke-opacity:1"/>
<line clip-path="url(#clip242)" x1="402.18" y1="1015.53" x2="386.18" y2="1015.53" style="stroke:#c271d2; stroke-width:3.2; stroke-opacity:1"/>
<line clip-path="url(#clip242)" x1="402.18" y1="1015.53" x2="402.18" y2="1031.53" style="stroke:#c271d2; stroke-width:3.2; stroke-opacity:1"/>
<line clip-path="url(#clip242)" x1="402.18" y1="1015.53" x2="418.18" y2="1015.53" style="stroke:#c271d2; stroke-width:3.2; stroke-opacity:1"/>
<line clip-path="url(#clip242)" x1="422.505" y1="995.205" x2="422.505" y2="979.205" style="stroke:#c271d2; stroke-width:3.2; stroke-opacity:1"/>
<line clip-path="url(#clip242)" x1="422.505" y1="995.205" x2="406.505" y2="995.205" style="stroke:#c271d2; stroke-width:3.2; stroke-opacity:1"/>
<line clip-path="url(#clip242)" x1="422.505" y1="995.205" x2="422.505" y2="1011.2" style="stroke:#c271d2; stroke-width:3.2; stroke-opacity:1"/>
<line clip-path="url(#clip242)" x1="422.505" y1="995.205" x2="438.505" y2="995.205" style="stroke:#c271d2; stroke-width:3.2; stroke-opacity:1"/>
<line clip-path="url(#clip242)" x1="463.155" y1="977.536" x2="463.155" y2="961.536" style="stroke:#c271d2; stroke-width:3.2; stroke-opacity:1"/>
<line clip-path="url(#clip242)" x1="463.155" y1="977.536" x2="447.155" y2="977.536" style="stroke:#c271d2; stroke-width:3.2; stroke-opacity:1"/>
<line clip-path="url(#clip242)" x1="463.155" y1="977.536" x2="463.155" y2="993.536" style="stroke:#c271d2; stroke-width:3.2; stroke-opacity:1"/>
<line clip-path="url(#clip242)" x1="463.155" y1="977.536" x2="479.155" y2="977.536" style="stroke:#c271d2; stroke-width:3.2; stroke-opacity:1"/>
<line clip-path="url(#clip242)" x1="564.779" y1="915.778" x2="564.779" y2="899.778" style="stroke:#c271d2; stroke-width:3.2; stroke-opacity:1"/>
<line clip-path="url(#clip242)" x1="564.779" y1="915.778" x2="548.779" y2="915.778" style="stroke:#c271d2; stroke-width:3.2; stroke-opacity:1"/>
<line clip-path="url(#clip242)" x1="564.779" y1="915.778" x2="564.779" y2="931.778" style="stroke:#c271d2; stroke-width:3.2; stroke-opacity:1"/>
<line clip-path="url(#clip242)" x1="564.779" y1="915.778" x2="580.779" y2="915.778" style="stroke:#c271d2; stroke-width:3.2; stroke-opacity:1"/>
<line clip-path="url(#clip242)" x1="666.403" y1="871.886" x2="666.403" y2="855.886" style="stroke:#c271d2; stroke-width:3.2; stroke-opacity:1"/>
<line clip-path="url(#clip242)" x1="666.403" y1="871.886" x2="650.403" y2="871.886" style="stroke:#c271d2; stroke-width:3.2; stroke-opacity:1"/>
<line clip-path="url(#clip242)" x1="666.403" y1="871.886" x2="666.403" y2="887.886" style="stroke:#c271d2; stroke-width:3.2; stroke-opacity:1"/>
<line clip-path="url(#clip242)" x1="666.403" y1="871.886" x2="682.403" y2="871.886" style="stroke:#c271d2; stroke-width:3.2; stroke-opacity:1"/>
<line clip-path="url(#clip242)" x1="768.027" y1="850.196" x2="768.027" y2="834.196" style="stroke:#c271d2; stroke-width:3.2; stroke-opacity:1"/>
<line clip-path="url(#clip242)" x1="768.027" y1="850.196" x2="752.027" y2="850.196" style="stroke:#c271d2; stroke-width:3.2; stroke-opacity:1"/>
<line clip-path="url(#clip242)" x1="768.027" y1="850.196" x2="768.027" y2="866.196" style="stroke:#c271d2; stroke-width:3.2; stroke-opacity:1"/>
<line clip-path="url(#clip242)" x1="768.027" y1="850.196" x2="784.027" y2="850.196" style="stroke:#c271d2; stroke-width:3.2; stroke-opacity:1"/>
<line clip-path="url(#clip242)" x1="869.652" y1="821.922" x2="869.652" y2="805.922" style="stroke:#c271d2; stroke-width:3.2; stroke-opacity:1"/>
<line clip-path="url(#clip242)" x1="869.652" y1="821.922" x2="853.652" y2="821.922" style="stroke:#c271d2; stroke-width:3.2; stroke-opacity:1"/>
<line clip-path="url(#clip242)" x1="869.652" y1="821.922" x2="869.652" y2="837.922" style="stroke:#c271d2; stroke-width:3.2; stroke-opacity:1"/>
<line clip-path="url(#clip242)" x1="869.652" y1="821.922" x2="885.652" y2="821.922" style="stroke:#c271d2; stroke-width:3.2; stroke-opacity:1"/>
<line clip-path="url(#clip242)" x1="971.276" y1="797.066" x2="971.276" y2="781.066" style="stroke:#c271d2; stroke-width:3.2; stroke-opacity:1"/>
<line clip-path="url(#clip242)" x1="971.276" y1="797.066" x2="955.276" y2="797.066" style="stroke:#c271d2; stroke-width:3.2; stroke-opacity:1"/>
<line clip-path="url(#clip242)" x1="971.276" y1="797.066" x2="971.276" y2="813.066" style="stroke:#c271d2; stroke-width:3.2; stroke-opacity:1"/>
<line clip-path="url(#clip242)" x1="971.276" y1="797.066" x2="987.276" y2="797.066" style="stroke:#c271d2; stroke-width:3.2; stroke-opacity:1"/>
<line clip-path="url(#clip242)" x1="1072.9" y1="766.35" x2="1072.9" y2="750.35" style="stroke:#c271d2; stroke-width:3.2; stroke-opacity:1"/>
<line clip-path="url(#clip242)" x1="1072.9" y1="766.35" x2="1056.9" y2="766.35" style="stroke:#c271d2; stroke-width:3.2; stroke-opacity:1"/>
<line clip-path="url(#clip242)" x1="1072.9" y1="766.35" x2="1072.9" y2="782.35" style="stroke:#c271d2; stroke-width:3.2; stroke-opacity:1"/>
<line clip-path="url(#clip242)" x1="1072.9" y1="766.35" x2="1088.9" y2="766.35" style="stroke:#c271d2; stroke-width:3.2; stroke-opacity:1"/>
<line clip-path="url(#clip242)" x1="1174.52" y1="747.663" x2="1174.52" y2="731.663" style="stroke:#c271d2; stroke-width:3.2; stroke-opacity:1"/>
<line clip-path="url(#clip242)" x1="1174.52" y1="747.663" x2="1158.52" y2="747.663" style="stroke:#c271d2; stroke-width:3.2; stroke-opacity:1"/>
<line clip-path="url(#clip242)" x1="1174.52" y1="747.663" x2="1174.52" y2="763.663" style="stroke:#c271d2; stroke-width:3.2; stroke-opacity:1"/>
<line clip-path="url(#clip242)" x1="1174.52" y1="747.663" x2="1190.52" y2="747.663" style="stroke:#c271d2; stroke-width:3.2; stroke-opacity:1"/>
<line clip-path="url(#clip242)" x1="1276.15" y1="734.571" x2="1276.15" y2="718.571" style="stroke:#c271d2; stroke-width:3.2; stroke-opacity:1"/>
<line clip-path="url(#clip242)" x1="1276.15" y1="734.571" x2="1260.15" y2="734.571" style="stroke:#c271d2; stroke-width:3.2; stroke-opacity:1"/>
<line clip-path="url(#clip242)" x1="1276.15" y1="734.571" x2="1276.15" y2="750.571" style="stroke:#c271d2; stroke-width:3.2; stroke-opacity:1"/>
<line clip-path="url(#clip242)" x1="1276.15" y1="734.571" x2="1292.15" y2="734.571" style="stroke:#c271d2; stroke-width:3.2; stroke-opacity:1"/>
<line clip-path="url(#clip242)" x1="1377.77" y1="730.153" x2="1377.77" y2="714.153" style="stroke:#c271d2; stroke-width:3.2; stroke-opacity:1"/>
<line clip-path="url(#clip242)" x1="1377.77" y1="730.153" x2="1361.77" y2="730.153" style="stroke:#c271d2; stroke-width:3.2; stroke-opacity:1"/>
<line clip-path="url(#clip242)" x1="1377.77" y1="730.153" x2="1377.77" y2="746.153" style="stroke:#c271d2; stroke-width:3.2; stroke-opacity:1"/>
<line clip-path="url(#clip242)" x1="1377.77" y1="730.153" x2="1393.77" y2="730.153" style="stroke:#c271d2; stroke-width:3.2; stroke-opacity:1"/>
<line clip-path="url(#clip242)" x1="1479.4" y1="1371.61" x2="1479.4" y2="1355.61" style="stroke:#c271d2; stroke-width:3.2; stroke-opacity:1"/>
<line clip-path="url(#clip242)" x1="1479.4" y1="1371.61" x2="1463.4" y2="1371.61" style="stroke:#c271d2; stroke-width:3.2; stroke-opacity:1"/>
<line clip-path="url(#clip242)" x1="1479.4" y1="1371.61" x2="1479.4" y2="1387.61" style="stroke:#c271d2; stroke-width:3.2; stroke-opacity:1"/>
<line clip-path="url(#clip242)" x1="1479.4" y1="1371.61" x2="1495.4" y2="1371.61" style="stroke:#c271d2; stroke-width:3.2; stroke-opacity:1"/>
<line clip-path="url(#clip242)" x1="1581.02" y1="1355.41" x2="1581.02" y2="1339.41" style="stroke:#c271d2; stroke-width:3.2; stroke-opacity:1"/>
<line clip-path="url(#clip242)" x1="1581.02" y1="1355.41" x2="1565.02" y2="1355.41" style="stroke:#c271d2; stroke-width:3.2; stroke-opacity:1"/>
<line clip-path="url(#clip242)" x1="1581.02" y1="1355.41" x2="1581.02" y2="1371.41" style="stroke:#c271d2; stroke-width:3.2; stroke-opacity:1"/>
<line clip-path="url(#clip242)" x1="1581.02" y1="1355.41" x2="1597.02" y2="1355.41" style="stroke:#c271d2; stroke-width:3.2; stroke-opacity:1"/>
<line clip-path="url(#clip242)" x1="1682.65" y1="1385.36" x2="1682.65" y2="1369.36" style="stroke:#c271d2; stroke-width:3.2; stroke-opacity:1"/>
<line clip-path="url(#clip242)" x1="1682.65" y1="1385.36" x2="1666.65" y2="1385.36" style="stroke:#c271d2; stroke-width:3.2; stroke-opacity:1"/>
<line clip-path="url(#clip242)" x1="1682.65" y1="1385.36" x2="1682.65" y2="1401.36" style="stroke:#c271d2; stroke-width:3.2; stroke-opacity:1"/>
<line clip-path="url(#clip242)" x1="1682.65" y1="1385.36" x2="1698.65" y2="1385.36" style="stroke:#c271d2; stroke-width:3.2; stroke-opacity:1"/>
<line clip-path="url(#clip242)" x1="1784.27" y1="1386.4" x2="1784.27" y2="1370.4" style="stroke:#c271d2; stroke-width:3.2; stroke-opacity:1"/>
<line clip-path="url(#clip242)" x1="1784.27" y1="1386.4" x2="1768.27" y2="1386.4" style="stroke:#c271d2; stroke-width:3.2; stroke-opacity:1"/>
<line clip-path="url(#clip242)" x1="1784.27" y1="1386.4" x2="1784.27" y2="1402.4" style="stroke:#c271d2; stroke-width:3.2; stroke-opacity:1"/>
<line clip-path="url(#clip242)" x1="1784.27" y1="1386.4" x2="1800.27" y2="1386.4" style="stroke:#c271d2; stroke-width:3.2; stroke-opacity:1"/>
<line clip-path="url(#clip242)" x1="1885.89" y1="1385.85" x2="1885.89" y2="1369.85" style="stroke:#c271d2; stroke-width:3.2; stroke-opacity:1"/>
<line clip-path="url(#clip242)" x1="1885.89" y1="1385.85" x2="1869.89" y2="1385.85" style="stroke:#c271d2; stroke-width:3.2; stroke-opacity:1"/>
<line clip-path="url(#clip242)" x1="1885.89" y1="1385.85" x2="1885.89" y2="1401.85" style="stroke:#c271d2; stroke-width:3.2; stroke-opacity:1"/>
<line clip-path="url(#clip242)" x1="1885.89" y1="1385.85" x2="1901.89" y2="1385.85" style="stroke:#c271d2; stroke-width:3.2; stroke-opacity:1"/>
<line clip-path="url(#clip242)" x1="1987.52" y1="1385.97" x2="1987.52" y2="1369.97" style="stroke:#c271d2; stroke-width:3.2; stroke-opacity:1"/>
<line clip-path="url(#clip242)" x1="1987.52" y1="1385.97" x2="1971.52" y2="1385.97" style="stroke:#c271d2; stroke-width:3.2; stroke-opacity:1"/>
<line clip-path="url(#clip242)" x1="1987.52" y1="1385.97" x2="1987.52" y2="1401.97" style="stroke:#c271d2; stroke-width:3.2; stroke-opacity:1"/>
<line clip-path="url(#clip242)" x1="1987.52" y1="1385.97" x2="2003.52" y2="1385.97" style="stroke:#c271d2; stroke-width:3.2; stroke-opacity:1"/>
<line clip-path="url(#clip242)" x1="2089.14" y1="1386.14" x2="2089.14" y2="1370.14" style="stroke:#c271d2; stroke-width:3.2; stroke-opacity:1"/>
<line clip-path="url(#clip242)" x1="2089.14" y1="1386.14" x2="2073.14" y2="1386.14" style="stroke:#c271d2; stroke-width:3.2; stroke-opacity:1"/>
<line clip-path="url(#clip242)" x1="2089.14" y1="1386.14" x2="2089.14" y2="1402.14" style="stroke:#c271d2; stroke-width:3.2; stroke-opacity:1"/>
<line clip-path="url(#clip242)" x1="2089.14" y1="1386.14" x2="2105.14" y2="1386.14" style="stroke:#c271d2; stroke-width:3.2; stroke-opacity:1"/>
<line clip-path="url(#clip242)" x1="2190.77" y1="1386.25" x2="2190.77" y2="1370.25" style="stroke:#c271d2; stroke-width:3.2; stroke-opacity:1"/>
<line clip-path="url(#clip242)" x1="2190.77" y1="1386.25" x2="2174.77" y2="1386.25" style="stroke:#c271d2; stroke-width:3.2; stroke-opacity:1"/>
<line clip-path="url(#clip242)" x1="2190.77" y1="1386.25" x2="2190.77" y2="1402.25" style="stroke:#c271d2; stroke-width:3.2; stroke-opacity:1"/>
<line clip-path="url(#clip242)" x1="2190.77" y1="1386.25" x2="2206.77" y2="1386.25" style="stroke:#c271d2; stroke-width:3.2; stroke-opacity:1"/>
<line clip-path="url(#clip242)" x1="2292.39" y1="1385.21" x2="2292.39" y2="1369.21" style="stroke:#c271d2; stroke-width:3.2; stroke-opacity:1"/>
<line clip-path="url(#clip242)" x1="2292.39" y1="1385.21" x2="2276.39" y2="1385.21" style="stroke:#c271d2; stroke-width:3.2; stroke-opacity:1"/>
<line clip-path="url(#clip242)" x1="2292.39" y1="1385.21" x2="2292.39" y2="1401.21" style="stroke:#c271d2; stroke-width:3.2; stroke-opacity:1"/>
<line clip-path="url(#clip242)" x1="2292.39" y1="1385.21" x2="2308.39" y2="1385.21" style="stroke:#c271d2; stroke-width:3.2; stroke-opacity:1"/>
<polyline clip-path="url(#clip242)" style="stroke:#ac8d18; stroke-width:8; stroke-opacity:1; fill:none" points="
  280.231,1385.43 300.556,1377.8 320.881,1385.82 341.206,1386.06 361.53,1379.15 381.855,1385.81 402.18,1385.86 422.505,1385.05 463.155,1385.42 564.779,1383.34 
  666.403,1385.91 768.027,1385.22 869.652,1386.07 971.276,1385.57 1072.9,1386.21 1174.52,1386.06 1276.15,1385.73 1377.77,1385.53 1479.4,655.86 1581.02,264.243 
  1682.65,167.063 1784.27,160.256 1885.89,168.749 1987.52,200.802 2089.14,276.478 2190.77,447.237 2292.39,1384.58 
  "/>
<path clip-path="url(#clip242)" d="M280.231 1369.43 L264.231 1385.43 L280.231 1401.43 L296.231 1385.43 L280.231 1369.43 Z" fill="#ac8d18" fill-rule="evenodd" fill-opacity="1" stroke="#000000" stroke-opacity="1" stroke-width="3.2"/>
<path clip-path="url(#clip242)" d="M300.556 1361.8 L284.556 1377.8 L300.556 1393.8 L316.556 1377.8 L300.556 1361.8 Z" fill="#ac8d18" fill-rule="evenodd" fill-opacity="1" stroke="#000000" stroke-opacity="1" stroke-width="3.2"/>
<path clip-path="url(#clip242)" d="M320.881 1369.82 L304.881 1385.82 L320.881 1401.82 L336.881 1385.82 L320.881 1369.82 Z" fill="#ac8d18" fill-rule="evenodd" fill-opacity="1" stroke="#000000" stroke-opacity="1" stroke-width="3.2"/>
<path clip-path="url(#clip242)" d="M341.206 1370.06 L325.206 1386.06 L341.206 1402.06 L357.206 1386.06 L341.206 1370.06 Z" fill="#ac8d18" fill-rule="evenodd" fill-opacity="1" stroke="#000000" stroke-opacity="1" stroke-width="3.2"/>
<path clip-path="url(#clip242)" d="M361.53 1363.15 L345.53 1379.15 L361.53 1395.15 L377.53 1379.15 L361.53 1363.15 Z" fill="#ac8d18" fill-rule="evenodd" fill-opacity="1" stroke="#000000" stroke-opacity="1" stroke-width="3.2"/>
<path clip-path="url(#clip242)" d="M381.855 1369.81 L365.855 1385.81 L381.855 1401.81 L397.855 1385.81 L381.855 1369.81 Z" fill="#ac8d18" fill-rule="evenodd" fill-opacity="1" stroke="#000000" stroke-opacity="1" stroke-width="3.2"/>
<path clip-path="url(#clip242)" d="M402.18 1369.86 L386.18 1385.86 L402.18 1401.86 L418.18 1385.86 L402.18 1369.86 Z" fill="#ac8d18" fill-rule="evenodd" fill-opacity="1" stroke="#000000" stroke-opacity="1" stroke-width="3.2"/>
<path clip-path="url(#clip242)" d="M422.505 1369.05 L406.505 1385.05 L422.505 1401.05 L438.505 1385.05 L422.505 1369.05 Z" fill="#ac8d18" fill-rule="evenodd" fill-opacity="1" stroke="#000000" stroke-opacity="1" stroke-width="3.2"/>
<path clip-path="url(#clip242)" d="M463.155 1369.42 L447.155 1385.42 L463.155 1401.42 L479.155 1385.42 L463.155 1369.42 Z" fill="#ac8d18" fill-rule="evenodd" fill-opacity="1" stroke="#000000" stroke-opacity="1" stroke-width="3.2"/>
<path clip-path="url(#clip242)" d="M564.779 1367.34 L548.779 1383.34 L564.779 1399.34 L580.779 1383.34 L564.779 1367.34 Z" fill="#ac8d18" fill-rule="evenodd" fill-opacity="1" stroke="#000000" stroke-opacity="1" stroke-width="3.2"/>
<path clip-path="url(#clip242)" d="M666.403 1369.91 L650.403 1385.91 L666.403 1401.91 L682.403 1385.91 L666.403 1369.91 Z" fill="#ac8d18" fill-rule="evenodd" fill-opacity="1" stroke="#000000" stroke-opacity="1" stroke-width="3.2"/>
<path clip-path="url(#clip242)" d="M768.027 1369.22 L752.027 1385.22 L768.027 1401.22 L784.027 1385.22 L768.027 1369.22 Z" fill="#ac8d18" fill-rule="evenodd" fill-opacity="1" stroke="#000000" stroke-opacity="1" stroke-width="3.2"/>
<path clip-path="url(#clip242)" d="M869.652 1370.07 L853.652 1386.07 L869.652 1402.07 L885.652 1386.07 L869.652 1370.07 Z" fill="#ac8d18" fill-rule="evenodd" fill-opacity="1" stroke="#000000" stroke-opacity="1" stroke-width="3.2"/>
<path clip-path="url(#clip242)" d="M971.276 1369.57 L955.276 1385.57 L971.276 1401.57 L987.276 1385.57 L971.276 1369.57 Z" fill="#ac8d18" fill-rule="evenodd" fill-opacity="1" stroke="#000000" stroke-opacity="1" stroke-width="3.2"/>
<path clip-path="url(#clip242)" d="M1072.9 1370.21 L1056.9 1386.21 L1072.9 1402.21 L1088.9 1386.21 L1072.9 1370.21 Z" fill="#ac8d18" fill-rule="evenodd" fill-opacity="1" stroke="#000000" stroke-opacity="1" stroke-width="3.2"/>
<path clip-path="url(#clip242)" d="M1174.52 1370.06 L1158.52 1386.06 L1174.52 1402.06 L1190.52 1386.06 L1174.52 1370.06 Z" fill="#ac8d18" fill-rule="evenodd" fill-opacity="1" stroke="#000000" stroke-opacity="1" stroke-width="3.2"/>
<path clip-path="url(#clip242)" d="M1276.15 1369.73 L1260.15 1385.73 L1276.15 1401.73 L1292.15 1385.73 L1276.15 1369.73 Z" fill="#ac8d18" fill-rule="evenodd" fill-opacity="1" stroke="#000000" stroke-opacity="1" stroke-width="3.2"/>
<path clip-path="url(#clip242)" d="M1377.77 1369.53 L1361.77 1385.53 L1377.77 1401.53 L1393.77 1385.53 L1377.77 1369.53 Z" fill="#ac8d18" fill-rule="evenodd" fill-opacity="1" stroke="#000000" stroke-opacity="1" stroke-width="3.2"/>
<path clip-path="url(#clip242)" d="M1479.4 639.86 L1463.4 655.86 L1479.4 671.86 L1495.4 655.86 L1479.4 639.86 Z" fill="#ac8d18" fill-rule="evenodd" fill-opacity="1" stroke="#000000" stroke-opacity="1" stroke-width="3.2"/>
<path clip-path="url(#clip242)" d="M1581.02 248.243 L1565.02 264.243 L1581.02 280.243 L1597.02 264.243 L1581.02 248.243 Z" fill="#ac8d18" fill-rule="evenodd" fill-opacity="1" stroke="#000000" stroke-opacity="1" stroke-width="3.2"/>
<path clip-path="url(#clip242)" d="M1682.65 151.063 L1666.65 167.063 L1682.65 183.063 L1698.65 167.063 L1682.65 151.063 Z" fill="#ac8d18" fill-rule="evenodd" fill-opacity="1" stroke="#000000" stroke-opacity="1" stroke-width="3.2"/>
<path clip-path="url(#clip242)" d="M1784.27 144.256 L1768.27 160.256 L1784.27 176.256 L1800.27 160.256 L1784.27 144.256 Z" fill="#ac8d18" fill-rule="evenodd" fill-opacity="1" stroke="#000000" stroke-opacity="1" stroke-width="3.2"/>
<path clip-path="url(#clip242)" d="M1885.89 152.749 L1869.89 168.749 L1885.89 184.749 L1901.89 168.749 L1885.89 152.749 Z" fill="#ac8d18" fill-rule="evenodd" fill-opacity="1" stroke="#000000" stroke-opacity="1" stroke-width="3.2"/>
<path clip-path="url(#clip242)" d="M1987.52 184.802 L1971.52 200.802 L1987.52 216.802 L2003.52 200.802 L1987.52 184.802 Z" fill="#ac8d18" fill-rule="evenodd" fill-opacity="1" stroke="#000000" stroke-opacity="1" stroke-width="3.2"/>
<path clip-path="url(#clip242)" d="M2089.14 260.478 L2073.14 276.478 L2089.14 292.478 L2105.14 276.478 L2089.14 260.478 Z" fill="#ac8d18" fill-rule="evenodd" fill-opacity="1" stroke="#000000" stroke-opacity="1" stroke-width="3.2"/>
<path clip-path="url(#clip242)" d="M2190.77 431.237 L2174.77 447.237 L2190.77 463.237 L2206.77 447.237 L2190.77 431.237 Z" fill="#ac8d18" fill-rule="evenodd" fill-opacity="1" stroke="#000000" stroke-opacity="1" stroke-width="3.2"/>
<path clip-path="url(#clip242)" d="M2292.39 1368.58 L2276.39 1384.58 L2292.39 1400.58 L2308.39 1384.58 L2292.39 1368.58 Z" fill="#ac8d18" fill-rule="evenodd" fill-opacity="1" stroke="#000000" stroke-opacity="1" stroke-width="3.2"/>
<path clip-path="url(#clip240)" d="
M1745.6 1379.86 L2281.66 1379.86 L2281.66 1016.98 L1745.6 1016.98  Z
  " fill="#ffffff" fill-rule="evenodd" fill-opacity="1"/>
<polyline clip-path="url(#clip240)" style="stroke:#000000; stroke-width:4; stroke-opacity:1; fill:none" points="
  1745.6,1379.86 2281.66,1379.86 2281.66,1016.98 1745.6,1016.98 1745.6,1379.86 
  "/>
<polyline clip-path="url(#clip240)" style="stroke:#009af9; stroke-width:4; stroke-opacity:1; fill:none" points="
  1769.3,1077.46 1911.49,1077.46 
  "/>
<circle clip-path="url(#clip240)" cx="1840.39" cy="1077.46" r="23" fill="#009af9" fill-rule="evenodd" fill-opacity="1" stroke="#000000" stroke-opacity="1" stroke-width="5.12"/>
<path clip-path="url(#clip240)" d="M 0 0 M1955.54 1073.79 Q1957.13 1070.92 1959.36 1069.55 Q1961.58 1068.19 1964.59 1068.19 Q1968.64 1068.19 1970.84 1071.03 Q1973.04 1073.86 1973.04 1079.09 L1973.04 1094.74 L1968.75 1094.74 L1968.75 1079.23 Q1968.75 1075.5 1967.43 1073.69 Q1966.12 1071.89 1963.41 1071.89 Q1960.1 1071.89 1958.18 1074.09 Q1956.25 1076.29 1956.25 1080.08 L1956.25 1094.74 L1951.97 1094.74 L1951.97 1079.23 Q1951.97 1075.48 1950.65 1073.69 Q1949.33 1071.89 1946.58 1071.89 Q1943.31 1071.89 1941.39 1074.11 Q1939.47 1076.31 1939.47 1080.08 L1939.47 1094.74 L1935.19 1094.74 L1935.19 1068.81 L1939.47 1068.81 L1939.47 1072.84 Q1940.93 1070.45 1942.97 1069.32 Q1945 1068.19 1947.81 1068.19 Q1950.63 1068.19 1952.6 1069.62 Q1954.59 1071.06 1955.54 1073.79 Z" fill="#000000" fill-rule="evenodd" fill-opacity="1" /><path clip-path="url(#clip240)" d="M 0 0 M1993.31 1081.7 Q1988.15 1081.7 1986.16 1082.88 Q1984.17 1084.07 1984.17 1086.91 Q1984.17 1089.18 1985.65 1090.52 Q1987.16 1091.84 1989.73 1091.84 Q1993.27 1091.84 1995.4 1089.34 Q1997.55 1086.82 1997.55 1082.65 L1997.55 1081.7 L1993.31 1081.7 M2001.81 1079.94 L2001.81 1094.74 L1997.55 1094.74 L1997.55 1090.8 Q1996.09 1093.16 1993.92 1094.3 Q1991.74 1095.41 1988.59 1095.41 Q1984.61 1095.41 1982.25 1093.19 Q1979.91 1090.94 1979.91 1087.19 Q1979.91 1082.82 1982.83 1080.59 Q1985.77 1078.37 1991.58 1078.37 L1997.55 1078.37 L1997.55 1077.95 Q1997.55 1075.01 1995.61 1073.42 Q1993.68 1071.8 1990.19 1071.8 Q1987.97 1071.8 1985.86 1072.33 Q1983.75 1072.86 1981.81 1073.93 L1981.81 1069.99 Q1984.15 1069.09 1986.35 1068.65 Q1988.55 1068.19 1990.63 1068.19 Q1996.25 1068.19 1999.03 1071.1 Q2001.81 1074.02 2001.81 1079.94 Z" fill="#000000" fill-rule="evenodd" fill-opacity="1" /><path clip-path="url(#clip240)" d="M 0 0 M2027.64 1081.47 Q2027.64 1076.84 2025.72 1074.3 Q2023.82 1071.75 2020.37 1071.75 Q2016.95 1071.75 2015.03 1074.3 Q2013.13 1076.84 2013.13 1081.47 Q2013.13 1086.08 2015.03 1088.63 Q2016.95 1091.17 2020.37 1091.17 Q2023.82 1091.17 2025.72 1088.63 Q2027.64 1086.08 2027.64 1081.47 M2031.9 1091.52 Q2031.9 1098.14 2028.96 1101.36 Q2026.02 1104.6 2019.96 1104.6 Q2017.71 1104.6 2015.72 1104.25 Q2013.73 1103.93 2011.86 1103.23 L2011.86 1099.09 Q2013.73 1100.11 2015.56 1100.59 Q2017.39 1101.08 2019.29 1101.08 Q2023.48 1101.08 2025.56 1098.88 Q2027.64 1096.7 2027.64 1092.28 L2027.64 1090.18 Q2026.32 1092.47 2024.26 1093.6 Q2022.2 1094.74 2019.33 1094.74 Q2014.56 1094.74 2011.65 1091.1 Q2008.73 1087.47 2008.73 1081.47 Q2008.73 1075.45 2011.65 1071.82 Q2014.56 1068.19 2019.33 1068.19 Q2022.2 1068.19 2024.26 1069.32 Q2026.32 1070.45 2027.64 1072.75 L2027.64 1068.81 L2031.9 1068.81 L2031.9 1091.52 Z" fill="#000000" fill-rule="evenodd" fill-opacity="1" /><path clip-path="url(#clip240)" d="M 0 0 M2060.61 1064.02 L2060.61 1090.89 L2066.25 1090.89 Q2073.41 1090.89 2076.72 1087.65 Q2080.05 1084.41 2080.05 1077.42 Q2080.05 1070.48 2076.72 1067.26 Q2073.41 1064.02 2066.25 1064.02 L2060.61 1064.02 M2055.93 1060.18 L2065.54 1060.18 Q2075.58 1060.18 2080.28 1064.37 Q2084.98 1068.53 2084.98 1077.42 Q2084.98 1086.36 2080.26 1090.55 Q2075.54 1094.74 2065.54 1094.74 L2055.93 1094.74 L2055.93 1060.18 Z" fill="#000000" fill-rule="evenodd" fill-opacity="1" /><path clip-path="url(#clip240)" d="M 0 0 M2107.87 1073.21 L2137.55 1073.21 L2137.55 1077.1 L2107.87 1077.1 L2107.87 1073.21 M2107.87 1082.65 L2137.55 1082.65 L2137.55 1086.59 L2107.87 1086.59 L2107.87 1082.65 Z" fill="#000000" fill-rule="evenodd" fill-opacity="1" /><path clip-path="url(#clip240)" d="M 0 0 M2175.56 1064.25 L2163.75 1082.7 L2175.56 1082.7 L2175.56 1064.25 M2174.33 1060.18 L2180.21 1060.18 L2180.21 1082.7 L2185.14 1082.7 L2185.14 1086.59 L2180.21 1086.59 L2180.21 1094.74 L2175.56 1094.74 L2175.56 1086.59 L2159.96 1086.59 L2159.96 1082.07 L2174.33 1060.18 Z" fill="#000000" fill-rule="evenodd" fill-opacity="1" /><polyline clip-path="url(#clip240)" style="stroke:#e26f46; stroke-width:4; stroke-opacity:1; fill:none" points="
  1769.3,1137.94 1911.49,1137.94 
  "/>
<path clip-path="url(#clip240)" d="M 0 0 M1951.69 1119.2 L1951.69 1122.74 L1947.62 1122.74 Q1945.33 1122.74 1944.43 1123.67 Q1943.55 1124.59 1943.55 1127 L1943.55 1129.29 L1950.56 1129.29 L1950.56 1132.6 L1943.55 1132.6 L1943.55 1155.22 L1939.26 1155.22 L1939.26 1132.6 L1935.19 1132.6 L1935.19 1129.29 L1939.26 1129.29 L1939.26 1127.48 Q1939.26 1123.16 1941.28 1121.19 Q1943.29 1119.2 1947.67 1119.2 L1951.69 1119.2 Z" fill="#000000" fill-rule="evenodd" fill-opacity="1" /><path clip-path="url(#clip240)" d="M 0 0 M1977.43 1141.19 L1977.43 1143.27 L1957.85 1143.27 Q1958.13 1147.67 1960.49 1149.98 Q1962.87 1152.28 1967.11 1152.28 Q1969.56 1152.28 1971.86 1151.67 Q1974.17 1151.07 1976.44 1149.87 L1976.44 1153.9 Q1974.15 1154.87 1971.74 1155.38 Q1969.33 1155.89 1966.86 1155.89 Q1960.65 1155.89 1957.02 1152.28 Q1953.41 1148.67 1953.41 1142.51 Q1953.41 1136.14 1956.83 1132.42 Q1960.28 1128.67 1966.12 1128.67 Q1971.35 1128.67 1974.38 1132.05 Q1977.43 1135.4 1977.43 1141.19 M1973.18 1139.94 Q1973.13 1136.44 1971.21 1134.36 Q1969.31 1132.28 1966.16 1132.28 Q1962.6 1132.28 1960.44 1134.29 Q1958.31 1136.3 1957.99 1139.96 L1973.18 1139.94 Z" fill="#000000" fill-rule="evenodd" fill-opacity="1" /><path clip-path="url(#clip240)" d="M 0 0 M1999.45 1133.27 Q1998.73 1132.86 1997.87 1132.67 Q1997.04 1132.46 1996.02 1132.46 Q1992.41 1132.46 1990.47 1134.82 Q1988.55 1137.16 1988.55 1141.56 L1988.55 1155.22 L1984.26 1155.22 L1984.26 1129.29 L1988.55 1129.29 L1988.55 1133.32 Q1989.89 1130.96 1992.04 1129.82 Q1994.19 1128.67 1997.27 1128.67 Q1997.71 1128.67 1998.24 1128.73 Q1998.78 1128.78 1999.43 1128.9 L1999.45 1133.27 Z" fill="#000000" fill-rule="evenodd" fill-opacity="1" /><path clip-path="url(#clip240)" d="M 0 0 M2018.11 1133.27 Q2017.39 1132.86 2016.53 1132.67 Q2015.7 1132.46 2014.68 1132.46 Q2011.07 1132.46 2009.12 1134.82 Q2007.2 1137.16 2007.2 1141.56 L2007.2 1155.22 L2002.92 1155.22 L2002.92 1129.29 L2007.2 1129.29 L2007.2 1133.32 Q2008.55 1130.96 2010.7 1129.82 Q2012.85 1128.67 2015.93 1128.67 Q2016.37 1128.67 2016.9 1128.73 Q2017.43 1128.78 2018.08 1128.9 L2018.11 1133.27 Z" fill="#000000" fill-rule="evenodd" fill-opacity="1" /><path clip-path="url(#clip240)" d="M 0 0 M2031.58 1132.28 Q2028.15 1132.28 2026.16 1134.96 Q2024.17 1137.62 2024.17 1142.28 Q2024.17 1146.93 2026.14 1149.61 Q2028.13 1152.28 2031.58 1152.28 Q2034.98 1152.28 2036.97 1149.59 Q2038.96 1146.91 2038.96 1142.28 Q2038.96 1137.67 2036.97 1134.98 Q2034.98 1132.28 2031.58 1132.28 M2031.58 1128.67 Q2037.13 1128.67 2040.3 1132.28 Q2043.48 1135.89 2043.48 1142.28 Q2043.48 1148.64 2040.3 1152.28 Q2037.13 1155.89 2031.58 1155.89 Q2026 1155.89 2022.83 1152.28 Q2019.68 1148.64 2019.68 1142.28 Q2019.68 1135.89 2022.83 1132.28 Q2026 1128.67 2031.58 1128.67 Z" fill="#000000" fill-rule="evenodd" fill-opacity="1" /><path clip-path="url(#clip240)" d="M 0 0 M2070.47 1124.5 L2070.47 1151.37 L2076.11 1151.37 Q2083.27 1151.37 2086.58 1148.13 Q2089.91 1144.89 2089.91 1137.9 Q2089.91 1130.96 2086.58 1127.74 Q2083.27 1124.5 2076.11 1124.5 L2070.47 1124.5 M2065.79 1120.66 L2075.4 1120.66 Q2085.44 1120.66 2090.14 1124.85 Q2094.84 1129.01 2094.84 1137.9 Q2094.84 1146.84 2090.12 1151.03 Q2085.4 1155.22 2075.4 1155.22 L2065.79 1155.22 L2065.79 1120.66 Z" fill="#000000" fill-rule="evenodd" fill-opacity="1" /><path clip-path="url(#clip240)" d="M 0 0 M2117.73 1133.69 L2147.41 1133.69 L2147.41 1137.58 L2117.73 1137.58 L2117.73 1133.69 M2117.73 1143.13 L2147.41 1143.13 L2147.41 1147.07 L2117.73 1147.07 L2117.73 1143.13 Z" fill="#000000" fill-rule="evenodd" fill-opacity="1" /><path clip-path="url(#clip240)" d="M 0 0 M2185.42 1124.73 L2173.61 1143.18 L2185.42 1143.18 L2185.42 1124.73 M2184.19 1120.66 L2190.07 1120.66 L2190.07 1143.18 L2195 1143.18 L2195 1147.07 L2190.07 1147.07 L2190.07 1155.22 L2185.42 1155.22 L2185.42 1147.07 L2169.82 1147.07 L2169.82 1142.55 L2184.19 1120.66 Z" fill="#000000" fill-rule="evenodd" fill-opacity="1" /><polyline clip-path="url(#clip240)" style="stroke:#3da44d; stroke-width:4; stroke-opacity:1; fill:none" points="
  1769.3,1198.42 1911.49,1198.42 
  "/>
<path clip-path="url(#clip240)" d="M 0 0 M1953.62 1190.53 L1953.62 1194.56 Q1951.81 1193.64 1949.87 1193.17 Q1947.92 1192.71 1945.84 1192.71 Q1942.67 1192.71 1941.07 1193.68 Q1939.5 1194.65 1939.5 1196.6 Q1939.5 1198.08 1940.63 1198.94 Q1941.76 1199.77 1945.19 1200.53 L1946.65 1200.86 Q1951.18 1201.83 1953.08 1203.61 Q1955 1205.37 1955 1208.54 Q1955 1212.15 1952.13 1214.26 Q1949.29 1216.37 1944.29 1216.37 Q1942.2 1216.37 1939.93 1215.95 Q1937.69 1215.56 1935.19 1214.75 L1935.19 1210.35 Q1937.55 1211.58 1939.84 1212.2 Q1942.13 1212.8 1944.38 1212.8 Q1947.39 1212.8 1949.01 1211.78 Q1950.63 1210.74 1950.63 1208.87 Q1950.63 1207.13 1949.45 1206.21 Q1948.29 1205.28 1944.33 1204.42 L1942.85 1204.08 Q1938.89 1203.24 1937.13 1201.53 Q1935.37 1199.79 1935.37 1196.78 Q1935.37 1193.13 1937.97 1191.14 Q1940.56 1189.15 1945.33 1189.15 Q1947.69 1189.15 1949.77 1189.49 Q1951.86 1189.84 1953.62 1190.53 Z" fill="#000000" fill-rule="evenodd" fill-opacity="1" /><path clip-path="url(#clip240)" d="M 0 0 M1966 1182.41 L1966 1189.77 L1974.77 1189.77 L1974.77 1193.08 L1966 1193.08 L1966 1207.15 Q1966 1210.33 1966.86 1211.23 Q1967.74 1212.13 1970.4 1212.13 L1974.77 1212.13 L1974.77 1215.7 L1970.4 1215.7 Q1965.47 1215.7 1963.59 1213.87 Q1961.72 1212.02 1961.72 1207.15 L1961.72 1193.08 L1958.59 1193.08 L1958.59 1189.77 L1961.72 1189.77 L1961.72 1182.41 L1966 1182.41 Z" fill="#000000" fill-rule="evenodd" fill-opacity="1" /><path clip-path="url(#clip240)" d="M 0 0 M1995.4 1193.75 Q1994.68 1193.34 1993.82 1193.15 Q1992.99 1192.94 1991.97 1192.94 Q1988.36 1192.94 1986.42 1195.3 Q1984.49 1197.64 1984.49 1202.04 L1984.49 1215.7 L1980.21 1215.7 L1980.21 1189.77 L1984.49 1189.77 L1984.49 1193.8 Q1985.84 1191.44 1987.99 1190.3 Q1990.14 1189.15 1993.22 1189.15 Q1993.66 1189.15 1994.19 1189.21 Q1994.73 1189.26 1995.37 1189.38 L1995.4 1193.75 Z" fill="#000000" fill-rule="evenodd" fill-opacity="1" /><path clip-path="url(#clip240)" d="M 0 0 M1999.87 1189.77 L2004.12 1189.77 L2004.12 1215.7 L1999.87 1215.7 L1999.87 1189.77 M1999.87 1179.68 L2004.12 1179.68 L2004.12 1185.07 L1999.87 1185.07 L1999.87 1179.68 Z" fill="#000000" fill-rule="evenodd" fill-opacity="1" /><path clip-path="url(#clip240)" d="M 0 0 M2017.16 1211.81 L2017.16 1225.56 L2012.87 1225.56 L2012.87 1189.77 L2017.16 1189.77 L2017.16 1193.71 Q2018.5 1191.39 2020.54 1190.28 Q2022.6 1189.15 2025.44 1189.15 Q2030.17 1189.15 2033.11 1192.9 Q2036.07 1196.65 2036.07 1202.76 Q2036.07 1208.87 2033.11 1212.62 Q2030.17 1216.37 2025.44 1216.37 Q2022.6 1216.37 2020.54 1215.26 Q2018.5 1214.12 2017.16 1211.81 M2031.65 1202.76 Q2031.65 1198.06 2029.7 1195.4 Q2027.78 1192.71 2024.4 1192.71 Q2021.02 1192.71 2019.08 1195.4 Q2017.16 1198.06 2017.16 1202.76 Q2017.16 1207.46 2019.08 1210.14 Q2021.02 1212.8 2024.4 1212.8 Q2027.78 1212.8 2029.7 1210.14 Q2031.65 1207.46 2031.65 1202.76 Z" fill="#000000" fill-rule="evenodd" fill-opacity="1" /><path clip-path="url(#clip240)" d="M 0 0 M2053.92 1218.1 Q2052.11 1222.73 2050.4 1224.15 Q2048.68 1225.56 2045.81 1225.56 L2042.41 1225.56 L2042.41 1221.99 L2044.91 1221.99 Q2046.67 1221.99 2047.64 1221.16 Q2048.61 1220.33 2049.8 1217.22 L2050.56 1215.28 L2040.07 1189.77 L2044.59 1189.77 L2052.69 1210.05 L2060.79 1189.77 L2065.3 1189.77 L2053.92 1218.1 Z" fill="#000000" fill-rule="evenodd" fill-opacity="1" /><path clip-path="url(#clip240)" d="M 0 0 M2091.11 1184.98 L2091.11 1211.85 L2096.76 1211.85 Q2103.92 1211.85 2107.23 1208.61 Q2110.56 1205.37 2110.56 1198.38 Q2110.56 1191.44 2107.23 1188.22 Q2103.92 1184.98 2096.76 1184.98 L2091.11 1184.98 M2086.44 1181.14 L2096.05 1181.14 Q2106.09 1181.14 2110.79 1185.33 Q2115.49 1189.49 2115.49 1198.38 Q2115.49 1207.32 2110.77 1211.51 Q2106.05 1215.7 2096.05 1215.7 L2086.44 1215.7 L2086.44 1181.14 Z" fill="#000000" fill-rule="evenodd" fill-opacity="1" /><path clip-path="url(#clip240)" d="M 0 0 M2138.38 1194.17 L2168.06 1194.17 L2168.06 1198.06 L2138.38 1198.06 L2138.38 1194.17 M2138.38 1203.61 L2168.06 1203.61 L2168.06 1207.55 L2138.38 1207.55 L2138.38 1203.61 Z" fill="#000000" fill-rule="evenodd" fill-opacity="1" /><path clip-path="url(#clip240)" d="M 0 0 M2206.07 1185.21 L2194.26 1203.66 L2206.07 1203.66 L2206.07 1185.21 M2204.84 1181.14 L2210.72 1181.14 L2210.72 1203.66 L2215.65 1203.66 L2215.65 1207.55 L2210.72 1207.55 L2210.72 1215.7 L2206.07 1215.7 L2206.07 1207.55 L2190.47 1207.55 L2190.47 1203.03 L2204.84 1181.14 Z" fill="#000000" fill-rule="evenodd" fill-opacity="1" /><polyline clip-path="url(#clip240)" style="stroke:#c271d2; stroke-width:4; stroke-opacity:1; fill:none" points="
  1769.3,1258.9 1911.49,1258.9 
  "/>
<line clip-path="url(#clip240)" x1="1840.39" y1="1258.9" x2="1840.39" y2="1233.3" style="stroke:#c271d2; stroke-width:3.2; stroke-opacity:1"/>
<line clip-path="url(#clip240)" x1="1840.39" y1="1258.9" x2="1814.79" y2="1258.9" style="stroke:#c271d2; stroke-width:3.2; stroke-opacity:1"/>
<line clip-path="url(#clip240)" x1="1840.39" y1="1258.9" x2="1840.39" y2="1284.5" style="stroke:#c271d2; stroke-width:3.2; stroke-opacity:1"/>
<line clip-path="url(#clip240)" x1="1840.39" y1="1258.9" x2="1865.99" y2="1258.9" style="stroke:#c271d2; stroke-width:3.2; stroke-opacity:1"/>
<path clip-path="url(#clip240)" d="M 0 0 M1935.77 1250.25 L1956 1250.25 L1956 1254.14 L1939.98 1272.77 L1956 1272.77 L1956 1276.18 L1935.19 1276.18 L1935.19 1272.29 L1951.21 1253.65 L1935.77 1253.65 L1935.77 1250.25 Z" fill="#000000" fill-rule="evenodd" fill-opacity="1" /><path clip-path="url(#clip240)" d="M 0 0 M1962.5 1250.25 L1966.76 1250.25 L1966.76 1276.18 L1962.5 1276.18 L1962.5 1250.25 M1962.5 1240.16 L1966.76 1240.16 L1966.76 1245.55 L1962.5 1245.55 L1962.5 1240.16 Z" fill="#000000" fill-rule="evenodd" fill-opacity="1" /><path clip-path="url(#clip240)" d="M 0 0 M1992.74 1262.91 Q1992.74 1258.28 1990.81 1255.74 Q1988.92 1253.19 1985.47 1253.19 Q1982.04 1253.19 1980.12 1255.74 Q1978.22 1258.28 1978.22 1262.91 Q1978.22 1267.52 1980.12 1270.07 Q1982.04 1272.61 1985.47 1272.61 Q1988.92 1272.61 1990.81 1270.07 Q1992.74 1267.52 1992.74 1262.91 M1996.99 1272.96 Q1996.99 1279.58 1994.05 1282.8 Q1991.12 1286.04 1985.05 1286.04 Q1982.81 1286.04 1980.81 1285.69 Q1978.82 1285.37 1976.95 1284.67 L1976.95 1280.53 Q1978.82 1281.55 1980.65 1282.03 Q1982.48 1282.52 1984.38 1282.52 Q1988.57 1282.52 1990.65 1280.32 Q1992.74 1278.14 1992.74 1273.72 L1992.74 1271.62 Q1991.42 1273.91 1989.36 1275.04 Q1987.3 1276.18 1984.43 1276.18 Q1979.66 1276.18 1976.74 1272.54 Q1973.82 1268.91 1973.82 1262.91 Q1973.82 1256.89 1976.74 1253.26 Q1979.66 1249.63 1984.43 1249.63 Q1987.3 1249.63 1989.36 1250.76 Q1991.42 1251.89 1992.74 1254.19 L1992.74 1250.25 L1996.99 1250.25 L1996.99 1272.96 Z" fill="#000000" fill-rule="evenodd" fill-opacity="1" /><path clip-path="url(#clip240)" d="M 0 0 M2003.92 1250.25 L2024.15 1250.25 L2024.15 1254.14 L2008.13 1272.77 L2024.15 1272.77 L2024.15 1276.18 L2003.34 1276.18 L2003.34 1272.29 L2019.36 1253.65 L2003.92 1253.65 L2003.92 1250.25 Z" fill="#000000" fill-rule="evenodd" fill-opacity="1" /><path clip-path="url(#clip240)" d="M 0 0 M2042.43 1263.14 Q2037.27 1263.14 2035.28 1264.32 Q2033.29 1265.51 2033.29 1268.35 Q2033.29 1270.62 2034.77 1271.96 Q2036.28 1273.28 2038.85 1273.28 Q2042.39 1273.28 2044.52 1270.78 Q2046.67 1268.26 2046.67 1264.09 L2046.67 1263.14 L2042.43 1263.14 M2050.93 1261.38 L2050.93 1276.18 L2046.67 1276.18 L2046.67 1272.24 Q2045.21 1274.6 2043.04 1275.74 Q2040.86 1276.85 2037.71 1276.85 Q2033.73 1276.85 2031.37 1274.63 Q2029.03 1272.38 2029.03 1268.63 Q2029.03 1264.26 2031.95 1262.03 Q2034.89 1259.81 2040.7 1259.81 L2046.67 1259.81 L2046.67 1259.39 Q2046.67 1256.45 2044.73 1254.86 Q2042.8 1253.24 2039.31 1253.24 Q2037.09 1253.24 2034.98 1253.77 Q2032.87 1254.3 2030.93 1255.37 L2030.93 1251.43 Q2033.27 1250.53 2035.47 1250.09 Q2037.67 1249.63 2039.75 1249.63 Q2045.37 1249.63 2048.15 1252.54 Q2050.93 1255.46 2050.93 1261.38 Z" fill="#000000" fill-rule="evenodd" fill-opacity="1" /><path clip-path="url(#clip240)" d="M 0 0 M2076.76 1262.91 Q2076.76 1258.28 2074.84 1255.74 Q2072.94 1253.19 2069.49 1253.19 Q2066.07 1253.19 2064.15 1255.74 Q2062.25 1258.28 2062.25 1262.91 Q2062.25 1267.52 2064.15 1270.07 Q2066.07 1272.61 2069.49 1272.61 Q2072.94 1272.61 2074.84 1270.07 Q2076.76 1267.52 2076.76 1262.91 M2081.02 1272.96 Q2081.02 1279.58 2078.08 1282.8 Q2075.14 1286.04 2069.08 1286.04 Q2066.83 1286.04 2064.84 1285.69 Q2062.85 1285.37 2060.98 1284.67 L2060.98 1280.53 Q2062.85 1281.55 2064.68 1282.03 Q2066.51 1282.52 2068.41 1282.52 Q2072.6 1282.52 2074.68 1280.32 Q2076.76 1278.14 2076.76 1273.72 L2076.76 1271.62 Q2075.44 1273.91 2073.38 1275.04 Q2071.32 1276.18 2068.45 1276.18 Q2063.68 1276.18 2060.77 1272.54 Q2057.85 1268.91 2057.85 1262.91 Q2057.85 1256.89 2060.77 1253.26 Q2063.68 1249.63 2068.45 1249.63 Q2071.32 1249.63 2073.38 1250.76 Q2075.44 1251.89 2076.76 1254.19 L2076.76 1250.25 L2081.02 1250.25 L2081.02 1272.96 Z" fill="#000000" fill-rule="evenodd" fill-opacity="1" /><path clip-path="url(#clip240)" d="M 0 0 M2109.73 1245.46 L2109.73 1272.33 L2115.37 1272.33 Q2122.53 1272.33 2125.84 1269.09 Q2129.17 1265.85 2129.17 1258.86 Q2129.17 1251.92 2125.84 1248.7 Q2122.53 1245.46 2115.37 1245.46 L2109.73 1245.46 M2105.05 1241.62 L2114.66 1241.62 Q2124.7 1241.62 2129.4 1245.81 Q2134.1 1249.97 2134.1 1258.86 Q2134.1 1267.8 2129.38 1271.99 Q2124.66 1276.18 2114.66 1276.18 L2105.05 1276.18 L2105.05 1241.62 Z" fill="#000000" fill-rule="evenodd" fill-opacity="1" /><path clip-path="url(#clip240)" d="M 0 0 M2156.99 1254.65 L2186.67 1254.65 L2186.67 1258.54 L2156.99 1258.54 L2156.99 1254.65 M2156.99 1264.09 L2186.67 1264.09 L2186.67 1268.03 L2156.99 1268.03 L2156.99 1264.09 Z" fill="#000000" fill-rule="evenodd" fill-opacity="1" /><path clip-path="url(#clip240)" d="M 0 0 M2224.68 1245.69 L2212.87 1264.14 L2224.68 1264.14 L2224.68 1245.69 M2223.45 1241.62 L2229.33 1241.62 L2229.33 1264.14 L2234.26 1264.14 L2234.26 1268.03 L2229.33 1268.03 L2229.33 1276.18 L2224.68 1276.18 L2224.68 1268.03 L2209.08 1268.03 L2209.08 1263.51 L2223.45 1241.62 Z" fill="#000000" fill-rule="evenodd" fill-opacity="1" /><polyline clip-path="url(#clip240)" style="stroke:#ac8d18; stroke-width:4; stroke-opacity:1; fill:none" points="
  1769.3,1319.38 1911.49,1319.38 
  "/>
<path clip-path="url(#clip240)" d="M1840.39 1293.78 L1814.79 1319.38 L1840.39 1344.98 L1865.99 1319.38 L1840.39 1293.78 Z" fill="#ac8d18" fill-rule="evenodd" fill-opacity="1" stroke="#000000" stroke-opacity="1" stroke-width="5.12"/>
<path clip-path="url(#clip240)" d="M 0 0 M1935.19 1302.1 L1941.49 1302.1 L1956.81 1331.01 L1956.81 1302.1 L1961.35 1302.1 L1961.35 1336.66 L1955.05 1336.66 L1939.73 1307.74 L1939.73 1336.66 L1935.19 1336.66 L1935.19 1302.1 Z" fill="#000000" fill-rule="evenodd" fill-opacity="1" /><path clip-path="url(#clip240)" d="M 0 0 M1992.64 1322.63 L1992.64 1324.71 L1973.06 1324.71 Q1973.34 1329.11 1975.7 1331.42 Q1978.08 1333.72 1982.32 1333.72 Q1984.77 1333.72 1987.06 1333.11 Q1989.38 1332.51 1991.65 1331.31 L1991.65 1335.34 Q1989.36 1336.31 1986.95 1336.82 Q1984.54 1337.33 1982.06 1337.33 Q1975.86 1337.33 1972.23 1333.72 Q1968.62 1330.11 1968.62 1323.95 Q1968.62 1317.58 1972.04 1313.86 Q1975.49 1310.11 1981.32 1310.11 Q1986.56 1310.11 1989.59 1313.49 Q1992.64 1316.84 1992.64 1322.63 M1988.38 1321.38 Q1988.34 1317.88 1986.42 1315.8 Q1984.52 1313.72 1981.37 1313.72 Q1977.81 1313.72 1975.65 1315.73 Q1973.52 1317.74 1973.2 1321.4 L1988.38 1321.38 Z" fill="#000000" fill-rule="evenodd" fill-opacity="1" /><path clip-path="url(#clip240)" d="M 0 0 M2021.81 1322.63 L2021.81 1324.71 L2002.23 1324.71 Q2002.5 1329.11 2004.87 1331.42 Q2007.25 1333.72 2011.49 1333.72 Q2013.94 1333.72 2016.23 1333.11 Q2018.55 1332.51 2020.81 1331.31 L2020.81 1335.34 Q2018.52 1336.31 2016.12 1336.82 Q2013.71 1337.33 2011.23 1337.33 Q2005.03 1337.33 2001.39 1333.72 Q1997.78 1330.11 1997.78 1323.95 Q1997.78 1317.58 2001.21 1313.86 Q2004.66 1310.11 2010.49 1310.11 Q2015.72 1310.11 2018.75 1313.49 Q2021.81 1316.84 2021.81 1322.63 M2017.55 1321.38 Q2017.5 1317.88 2015.58 1315.8 Q2013.68 1313.72 2010.54 1313.72 Q2006.97 1313.72 2004.82 1315.73 Q2002.69 1317.74 2002.37 1321.4 L2017.55 1321.38 Z" fill="#000000" fill-rule="evenodd" fill-opacity="1" /><path clip-path="url(#clip240)" d="M 0 0 M2028.8 1300.64 L2033.06 1300.64 L2033.06 1336.66 L2028.8 1336.66 L2028.8 1300.64 Z" fill="#000000" fill-rule="evenodd" fill-opacity="1" /><path clip-path="url(#clip240)" d="M 0 0 M2061.9 1305.94 L2061.9 1332.81 L2067.55 1332.81 Q2074.7 1332.81 2078.01 1329.57 Q2081.35 1326.33 2081.35 1319.34 Q2081.35 1312.4 2078.01 1309.18 Q2074.7 1305.94 2067.55 1305.94 L2061.9 1305.94 M2057.23 1302.1 L2066.83 1302.1 Q2076.88 1302.1 2081.58 1306.29 Q2086.28 1310.45 2086.28 1319.34 Q2086.28 1328.28 2081.55 1332.47 Q2076.83 1336.66 2066.83 1336.66 L2057.23 1336.66 L2057.23 1302.1 Z" fill="#000000" fill-rule="evenodd" fill-opacity="1" /><path clip-path="url(#clip240)" d="M 0 0 M2109.17 1315.13 L2138.85 1315.13 L2138.85 1319.02 L2109.17 1319.02 L2109.17 1315.13 M2109.17 1324.57 L2138.85 1324.57 L2138.85 1328.51 L2109.17 1328.51 L2109.17 1324.57 Z" fill="#000000" fill-rule="evenodd" fill-opacity="1" /><path clip-path="url(#clip240)" d="M 0 0 M2176.85 1306.17 L2165.05 1324.62 L2176.85 1324.62 L2176.85 1306.17 M2175.63 1302.1 L2181.51 1302.1 L2181.51 1324.62 L2186.44 1324.62 L2186.44 1328.51 L2181.51 1328.51 L2181.51 1336.66 L2176.85 1336.66 L2176.85 1328.51 L2161.25 1328.51 L2161.25 1323.99 L2175.63 1302.1 Z" fill="#000000" fill-rule="evenodd" fill-opacity="1" /></svg>
