<?xml version="1.0" encoding="utf-8"?>
<svg xmlns="http://www.w3.org/2000/svg" xmlns:xlink="http://www.w3.org/1999/xlink" width="600" height="400" viewBox="0 0 2400 1600">
<defs>
  <clipPath id="clip140">
    <rect x="0" y="0" width="2400" height="1600"/>
  </clipPath>
</defs>
<path clip-path="url(#clip140)" d="
M0 1600 L2400 1600 L2400 0 L0 0  Z
  " fill="#ffffff" fill-rule="evenodd" fill-opacity="1"/>
<defs>
  <clipPath id="clip141">
    <rect x="480" y="0" width="1681" height="1600"/>
  </clipPath>
</defs>
<path clip-path="url(#clip140)" d="
M287.852 1423.18 L2352.76 1423.18 L2352.76 47.2441 L287.852 47.2441  Z
  " fill="#ffffff" fill-rule="evenodd" fill-opacity="1"/>
<defs>
  <clipPath id="clip142">
    <rect x="287" y="47" width="2066" height="1377"/>
  </clipPath>
</defs>
<polyline clip-path="url(#clip142)" style="stroke:#000000; stroke-width:2; stroke-opacity:0.1; fill:none" points="
  346.293,1423.18 346.293,47.2441 
  "/>
<polyline clip-path="url(#clip142)" style="stroke:#000000; stroke-width:2; stroke-opacity:0.1; fill:none" points="
  833.298,1423.18 833.298,47.2441 
  "/>
<polyline clip-path="url(#clip142)" style="stroke:#000000; stroke-width:2; stroke-opacity:0.1; fill:none" points="
  1320.3,1423.18 1320.3,47.2441 
  "/>
<polyline clip-path="url(#clip142)" style="stroke:#000000; stroke-width:2; stroke-opacity:0.1; fill:none" points="
  1807.31,1423.18 1807.31,47.2441 
  "/>
<polyline clip-path="url(#clip142)" style="stroke:#000000; stroke-width:2; stroke-opacity:0.1; fill:none" points="
  2294.32,1423.18 2294.32,47.2441 
  "/>
<polyline clip-path="url(#clip140)" style="stroke:#000000; stroke-width:4; stroke-opacity:1; fill:none" points="
  287.852,1423.18 2352.76,1423.18 
  "/>
<polyline clip-path="url(#clip140)" style="stroke:#000000; stroke-width:4; stroke-opacity:1; fill:none" points="
  346.293,1423.18 346.293,1406.67 
  "/>
<polyline clip-path="url(#clip140)" style="stroke:#000000; stroke-width:4; stroke-opacity:1; fill:none" points="
  833.298,1423.18 833.298,1406.67 
  "/>
<polyline clip-path="url(#clip140)" style="stroke:#000000; stroke-width:4; stroke-opacity:1; fill:none" points="
  1320.3,1423.18 1320.3,1406.67 
  "/>
<polyline clip-path="url(#clip140)" style="stroke:#000000; stroke-width:4; stroke-opacity:1; fill:none" points="
  1807.31,1423.18 1807.31,1406.67 
  "/>
<polyline clip-path="url(#clip140)" style="stroke:#000000; stroke-width:4; stroke-opacity:1; fill:none" points="
  2294.32,1423.18 2294.32,1406.67 
  "/>
<path clip-path="url(#clip140)" d="M 0 0 M308.596 1452.37 Q304.985 1452.37 303.156 1455.94 Q301.351 1459.48 301.351 1466.61 Q301.351 1473.71 303.156 1477.28 Q304.985 1480.82 308.596 1480.82 Q312.23 1480.82 314.036 1477.28 Q315.865 1473.71 315.865 1466.61 Q315.865 1459.48 314.036 1455.94 Q312.23 1452.37 308.596 1452.37 M308.596 1448.67 Q314.406 1448.67 317.462 1453.27 Q320.541 1457.86 320.541 1466.61 Q320.541 1475.33 317.462 1479.94 Q314.406 1484.52 308.596 1484.52 Q302.786 1484.52 299.707 1479.94 Q296.652 1475.33 296.652 1466.61 Q296.652 1457.86 299.707 1453.27 Q302.786 1448.67 308.596 1448.67 Z" fill="#000000" fill-rule="evenodd" fill-opacity="1" /><path clip-path="url(#clip140)" d="M 0 0 M328.758 1477.97 L333.642 1477.97 L333.642 1483.85 L328.758 1483.85 L328.758 1477.97 Z" fill="#000000" fill-rule="evenodd" fill-opacity="1" /><path clip-path="url(#clip140)" d="M 0 0 M344.638 1479.92 L352.276 1479.92 L352.276 1453.55 L343.966 1455.22 L343.966 1450.96 L352.23 1449.29 L356.906 1449.29 L356.906 1479.92 L364.545 1479.92 L364.545 1483.85 L344.638 1483.85 L344.638 1479.92 Z" fill="#000000" fill-rule="evenodd" fill-opacity="1" /><path clip-path="url(#clip140)" d="M 0 0 M383.989 1452.37 Q380.378 1452.37 378.549 1455.94 Q376.744 1459.48 376.744 1466.61 Q376.744 1473.71 378.549 1477.28 Q380.378 1480.82 383.989 1480.82 Q387.623 1480.82 389.429 1477.28 Q391.258 1473.71 391.258 1466.61 Q391.258 1459.48 389.429 1455.94 Q387.623 1452.37 383.989 1452.37 M383.989 1448.67 Q389.799 1448.67 392.855 1453.27 Q395.934 1457.86 395.934 1466.61 Q395.934 1475.33 392.855 1479.94 Q389.799 1484.52 383.989 1484.52 Q378.179 1484.52 375.1 1479.94 Q372.045 1475.33 372.045 1466.61 Q372.045 1457.86 375.1 1453.27 Q378.179 1448.67 383.989 1448.67 Z" fill="#000000" fill-rule="evenodd" fill-opacity="1" /><path clip-path="url(#clip140)" d="M 0 0 M796.099 1452.37 Q792.488 1452.37 790.66 1455.94 Q788.854 1459.48 788.854 1466.61 Q788.854 1473.71 790.66 1477.28 Q792.488 1480.82 796.099 1480.82 Q799.734 1480.82 801.539 1477.28 Q803.368 1473.71 803.368 1466.61 Q803.368 1459.48 801.539 1455.94 Q799.734 1452.37 796.099 1452.37 M796.099 1448.67 Q801.91 1448.67 804.965 1453.27 Q808.044 1457.86 808.044 1466.61 Q808.044 1475.33 804.965 1479.94 Q801.91 1484.52 796.099 1484.52 Q790.289 1484.52 787.211 1479.94 Q784.155 1475.33 784.155 1466.61 Q784.155 1457.86 787.211 1453.27 Q790.289 1448.67 796.099 1448.67 Z" fill="#000000" fill-rule="evenodd" fill-opacity="1" /><path clip-path="url(#clip140)" d="M 0 0 M816.261 1477.97 L821.146 1477.97 L821.146 1483.85 L816.261 1483.85 L816.261 1477.97 Z" fill="#000000" fill-rule="evenodd" fill-opacity="1" /><path clip-path="url(#clip140)" d="M 0 0 M832.141 1479.92 L839.78 1479.92 L839.78 1453.55 L831.47 1455.22 L831.47 1450.96 L839.733 1449.29 L844.409 1449.29 L844.409 1479.92 L852.048 1479.92 L852.048 1483.85 L832.141 1483.85 L832.141 1479.92 Z" fill="#000000" fill-rule="evenodd" fill-opacity="1" /><path clip-path="url(#clip140)" d="M 0 0 M861.539 1449.29 L879.895 1449.29 L879.895 1453.23 L865.821 1453.23 L865.821 1461.7 Q866.84 1461.35 867.858 1461.19 Q868.877 1461 869.895 1461 Q875.682 1461 879.062 1464.18 Q882.442 1467.35 882.442 1472.76 Q882.442 1478.34 878.969 1481.44 Q875.497 1484.52 869.178 1484.52 Q867.002 1484.52 864.733 1484.15 Q862.488 1483.78 860.081 1483.04 L860.081 1478.34 Q862.164 1479.48 864.386 1480.03 Q866.608 1480.59 869.085 1480.59 Q873.09 1480.59 875.428 1478.48 Q877.766 1476.38 877.766 1472.76 Q877.766 1469.15 875.428 1467.05 Q873.09 1464.94 869.085 1464.94 Q867.21 1464.94 865.335 1465.36 Q863.483 1465.77 861.539 1466.65 L861.539 1449.29 Z" fill="#000000" fill-rule="evenodd" fill-opacity="1" /><path clip-path="url(#clip140)" d="M 0 0 M1282.61 1452.37 Q1279 1452.37 1277.17 1455.94 Q1275.36 1459.48 1275.36 1466.61 Q1275.36 1473.71 1277.17 1477.28 Q1279 1480.82 1282.61 1480.82 Q1286.24 1480.82 1288.05 1477.28 Q1289.88 1473.71 1289.88 1466.61 Q1289.88 1459.48 1288.05 1455.94 Q1286.24 1452.37 1282.61 1452.37 M1282.61 1448.67 Q1288.42 1448.67 1291.47 1453.27 Q1294.55 1457.86 1294.55 1466.61 Q1294.55 1475.33 1291.47 1479.94 Q1288.42 1484.52 1282.61 1484.52 Q1276.8 1484.52 1273.72 1479.94 Q1270.66 1475.33 1270.66 1466.61 Q1270.66 1457.86 1273.72 1453.27 Q1276.8 1448.67 1282.61 1448.67 Z" fill="#000000" fill-rule="evenodd" fill-opacity="1" /><path clip-path="url(#clip140)" d="M 0 0 M1302.77 1477.97 L1307.65 1477.97 L1307.65 1483.85 L1302.77 1483.85 L1302.77 1477.97 Z" fill="#000000" fill-rule="evenodd" fill-opacity="1" /><path clip-path="url(#clip140)" d="M 0 0 M1321.87 1479.92 L1338.19 1479.92 L1338.19 1483.85 L1316.24 1483.85 L1316.24 1479.92 Q1318.9 1477.16 1323.49 1472.53 Q1328.09 1467.88 1329.27 1466.54 Q1331.52 1464.01 1332.4 1462.28 Q1333.3 1460.52 1333.3 1458.83 Q1333.3 1456.07 1331.36 1454.34 Q1329.44 1452.6 1326.33 1452.6 Q1324.13 1452.6 1321.68 1453.37 Q1319.25 1454.13 1316.47 1455.68 L1316.47 1450.96 Q1319.3 1449.82 1321.75 1449.25 Q1324.2 1448.67 1326.24 1448.67 Q1331.61 1448.67 1334.81 1451.35 Q1338 1454.04 1338 1458.53 Q1338 1460.66 1337.19 1462.58 Q1336.4 1464.48 1334.3 1467.07 Q1333.72 1467.74 1330.62 1470.96 Q1327.51 1474.15 1321.87 1479.92 Z" fill="#000000" fill-rule="evenodd" fill-opacity="1" /><path clip-path="url(#clip140)" d="M 0 0 M1358 1452.37 Q1354.39 1452.37 1352.56 1455.94 Q1350.76 1459.48 1350.76 1466.61 Q1350.76 1473.71 1352.56 1477.28 Q1354.39 1480.82 1358 1480.82 Q1361.63 1480.82 1363.44 1477.28 Q1365.27 1473.71 1365.27 1466.61 Q1365.27 1459.48 1363.44 1455.94 Q1361.63 1452.37 1358 1452.37 M1358 1448.67 Q1363.81 1448.67 1366.87 1453.27 Q1369.94 1457.86 1369.94 1466.61 Q1369.94 1475.33 1366.87 1479.94 Q1363.81 1484.52 1358 1484.52 Q1352.19 1484.52 1349.11 1479.94 Q1346.06 1475.33 1346.06 1466.61 Q1346.06 1457.86 1349.11 1453.27 Q1352.19 1448.67 1358 1448.67 Z" fill="#000000" fill-rule="evenodd" fill-opacity="1" /><path clip-path="url(#clip140)" d="M 0 0 M1770.11 1452.37 Q1766.5 1452.37 1764.67 1455.94 Q1762.87 1459.48 1762.87 1466.61 Q1762.87 1473.71 1764.67 1477.28 Q1766.5 1480.82 1770.11 1480.82 Q1773.74 1480.82 1775.55 1477.28 Q1777.38 1473.71 1777.38 1466.61 Q1777.38 1459.48 1775.55 1455.94 Q1773.74 1452.37 1770.11 1452.37 M1770.11 1448.67 Q1775.92 1448.67 1778.98 1453.27 Q1782.06 1457.86 1782.06 1466.61 Q1782.06 1475.33 1778.98 1479.94 Q1775.92 1484.52 1770.11 1484.52 Q1764.3 1484.52 1761.22 1479.94 Q1758.17 1475.33 1758.17 1466.61 Q1758.17 1457.86 1761.22 1453.27 Q1764.3 1448.67 1770.11 1448.67 Z" fill="#000000" fill-rule="evenodd" fill-opacity="1" /><path clip-path="url(#clip140)" d="M 0 0 M1790.27 1477.97 L1795.16 1477.97 L1795.16 1483.85 L1790.27 1483.85 L1790.27 1477.97 Z" fill="#000000" fill-rule="evenodd" fill-opacity="1" /><path clip-path="url(#clip140)" d="M 0 0 M1809.37 1479.92 L1825.69 1479.92 L1825.69 1483.85 L1803.74 1483.85 L1803.74 1479.92 Q1806.41 1477.16 1810.99 1472.53 Q1815.6 1467.88 1816.78 1466.54 Q1819.02 1464.01 1819.9 1462.28 Q1820.8 1460.52 1820.8 1458.83 Q1820.8 1456.07 1818.86 1454.34 Q1816.94 1452.6 1813.84 1452.6 Q1811.64 1452.6 1809.18 1453.37 Q1806.75 1454.13 1803.98 1455.68 L1803.98 1450.96 Q1806.8 1449.82 1809.25 1449.25 Q1811.71 1448.67 1813.74 1448.67 Q1819.12 1448.67 1822.31 1451.35 Q1825.5 1454.04 1825.5 1458.53 Q1825.5 1460.66 1824.69 1462.58 Q1823.91 1464.48 1821.8 1467.07 Q1821.22 1467.74 1818.12 1470.96 Q1815.02 1474.15 1809.37 1479.92 Z" fill="#000000" fill-rule="evenodd" fill-opacity="1" /><path clip-path="url(#clip140)" d="M 0 0 M1835.55 1449.29 L1853.91 1449.29 L1853.91 1453.23 L1839.83 1453.23 L1839.83 1461.7 Q1840.85 1461.35 1841.87 1461.19 Q1842.89 1461 1843.91 1461 Q1849.69 1461 1853.07 1464.18 Q1856.45 1467.35 1856.45 1472.76 Q1856.45 1478.34 1852.98 1481.44 Q1849.51 1484.52 1843.19 1484.52 Q1841.01 1484.52 1838.74 1484.15 Q1836.5 1483.78 1834.09 1483.04 L1834.09 1478.34 Q1836.18 1479.48 1838.4 1480.03 Q1840.62 1480.59 1843.1 1480.59 Q1847.1 1480.59 1849.44 1478.48 Q1851.78 1476.38 1851.78 1472.76 Q1851.78 1469.15 1849.44 1467.05 Q1847.1 1464.94 1843.1 1464.94 Q1841.22 1464.94 1839.35 1465.36 Q1837.49 1465.77 1835.55 1466.65 L1835.55 1449.29 Z" fill="#000000" fill-rule="evenodd" fill-opacity="1" /><path clip-path="url(#clip140)" d="M 0 0 M2256.62 1452.37 Q2253.01 1452.37 2251.18 1455.94 Q2249.37 1459.48 2249.37 1466.61 Q2249.37 1473.71 2251.18 1477.28 Q2253.01 1480.82 2256.62 1480.82 Q2260.25 1480.82 2262.06 1477.28 Q2263.89 1473.71 2263.89 1466.61 Q2263.89 1459.48 2262.06 1455.94 Q2260.25 1452.37 2256.62 1452.37 M2256.62 1448.67 Q2262.43 1448.67 2265.48 1453.27 Q2268.56 1457.86 2268.56 1466.61 Q2268.56 1475.33 2265.48 1479.94 Q2262.43 1484.52 2256.62 1484.52 Q2250.81 1484.52 2247.73 1479.94 Q2244.67 1475.33 2244.67 1466.61 Q2244.67 1457.86 2247.73 1453.27 Q2250.81 1448.67 2256.62 1448.67 Z" fill="#000000" fill-rule="evenodd" fill-opacity="1" /><path clip-path="url(#clip140)" d="M 0 0 M2276.78 1477.97 L2281.66 1477.97 L2281.66 1483.85 L2276.78 1483.85 L2276.78 1477.97 Z" fill="#000000" fill-rule="evenodd" fill-opacity="1" /><path clip-path="url(#clip140)" d="M 0 0 M2306.02 1465.22 Q2309.37 1465.94 2311.25 1468.2 Q2313.15 1470.47 2313.15 1473.81 Q2313.15 1478.92 2309.63 1481.72 Q2306.11 1484.52 2299.63 1484.52 Q2297.45 1484.52 2295.14 1484.08 Q2292.85 1483.67 2290.39 1482.81 L2290.39 1478.3 Q2292.34 1479.43 2294.65 1480.01 Q2296.97 1480.59 2299.49 1480.59 Q2303.89 1480.59 2306.18 1478.85 Q2308.49 1477.12 2308.49 1473.81 Q2308.49 1470.75 2306.34 1469.04 Q2304.21 1467.3 2300.39 1467.3 L2296.36 1467.3 L2296.36 1463.46 L2300.58 1463.46 Q2304.03 1463.46 2305.85 1462.09 Q2307.68 1460.7 2307.68 1458.11 Q2307.68 1455.45 2305.79 1454.04 Q2303.91 1452.6 2300.39 1452.6 Q2298.47 1452.6 2296.27 1453.02 Q2294.07 1453.44 2291.43 1454.31 L2291.43 1450.15 Q2294.1 1449.41 2296.41 1449.04 Q2298.75 1448.67 2300.81 1448.67 Q2306.13 1448.67 2309.23 1451.1 Q2312.34 1453.5 2312.34 1457.63 Q2312.34 1460.5 2310.69 1462.49 Q2309.05 1464.45 2306.02 1465.22 Z" fill="#000000" fill-rule="evenodd" fill-opacity="1" /><path clip-path="url(#clip140)" d="M 0 0 M2332.01 1452.37 Q2328.4 1452.37 2326.57 1455.94 Q2324.77 1459.48 2324.77 1466.61 Q2324.77 1473.71 2326.57 1477.28 Q2328.4 1480.82 2332.01 1480.82 Q2335.65 1480.82 2337.45 1477.28 Q2339.28 1473.71 2339.28 1466.61 Q2339.28 1459.48 2337.45 1455.94 Q2335.65 1452.37 2332.01 1452.37 M2332.01 1448.67 Q2337.82 1448.67 2340.88 1453.27 Q2343.96 1457.86 2343.96 1466.61 Q2343.96 1475.33 2340.88 1479.94 Q2337.82 1484.52 2332.01 1484.52 Q2326.2 1484.52 2323.12 1479.94 Q2320.07 1475.33 2320.07 1466.61 Q2320.07 1457.86 2323.12 1453.27 Q2326.2 1448.67 2332.01 1448.67 Z" fill="#000000" fill-rule="evenodd" fill-opacity="1" /><path clip-path="url(#clip140)" d="M 0 0 M1255.17 1568.04 L1255.17 1520.52 L1284.74 1520.52 L1284.74 1525.93 L1261.6 1525.93 L1261.6 1568.04 L1255.17 1568.04 Z" fill="#000000" fill-rule="evenodd" fill-opacity="1" /><path clip-path="url(#clip140)" d="M 0 0 M1301.64 1520.52 L1307.05 1520.52 L1290.5 1574.09 L1285.09 1574.09 L1301.64 1520.52 Z" fill="#000000" fill-rule="evenodd" fill-opacity="1" /><path clip-path="url(#clip140)" d="M 0 0 M1320.73 1518.23 L1320.73 1583.42 L1315.32 1583.42 L1315.32 1518.23 L1320.73 1518.23 Z" fill="#000000" fill-rule="evenodd" fill-opacity="1" /><path clip-path="url(#clip140)" d="M 0 0 M1335.41 1520.52 L1341.84 1520.52 L1341.84 1540.61 L1363.16 1520.52 L1371.44 1520.52 L1347.85 1542.68 L1373.12 1568.04 L1364.66 1568.04 L1341.84 1545.16 L1341.84 1568.04 L1335.41 1568.04 L1335.41 1520.52 Z" fill="#000000" fill-rule="evenodd" fill-opacity="1" /><path clip-path="url(#clip140)" d="M 0 0 M1385.44 1518.23 L1385.44 1583.42 L1380.03 1583.42 L1380.03 1518.23 L1385.44 1518.23 Z" fill="#000000" fill-rule="evenodd" fill-opacity="1" /><polyline clip-path="url(#clip142)" style="stroke:#000000; stroke-width:2; stroke-opacity:0.1; fill:none" points="
  287.852,1198.62 2352.76,1198.62 
  "/>
<polyline clip-path="url(#clip142)" style="stroke:#000000; stroke-width:2; stroke-opacity:0.1; fill:none" points="
  287.852,970.519 2352.76,970.519 
  "/>
<polyline clip-path="url(#clip142)" style="stroke:#000000; stroke-width:2; stroke-opacity:0.1; fill:none" points="
  287.852,742.417 2352.76,742.417 
  "/>
<polyline clip-path="url(#clip142)" style="stroke:#000000; stroke-width:2; stroke-opacity:0.1; fill:none" points="
  287.852,514.314 2352.76,514.314 
  "/>
<polyline clip-path="url(#clip142)" style="stroke:#000000; stroke-width:2; stroke-opacity:0.1; fill:none" points="
  287.852,286.212 2352.76,286.212 
  "/>
<polyline clip-path="url(#clip142)" style="stroke:#000000; stroke-width:2; stroke-opacity:0.1; fill:none" points="
  287.852,58.1097 2352.76,58.1097 
  "/>
<polyline clip-path="url(#clip140)" style="stroke:#000000; stroke-width:4; stroke-opacity:1; fill:none" points="
  287.852,1423.18 287.852,47.2441 
  "/>
<polyline clip-path="url(#clip140)" style="stroke:#000000; stroke-width:4; stroke-opacity:1; fill:none" points="
  287.852,1198.62 312.631,1198.62 
  "/>
<polyline clip-path="url(#clip140)" style="stroke:#000000; stroke-width:4; stroke-opacity:1; fill:none" points="
  287.852,970.519 312.631,970.519 
  "/>
<polyline clip-path="url(#clip140)" style="stroke:#000000; stroke-width:4; stroke-opacity:1; fill:none" points="
  287.852,742.417 312.631,742.417 
  "/>
<polyline clip-path="url(#clip140)" style="stroke:#000000; stroke-width:4; stroke-opacity:1; fill:none" points="
  287.852,514.314 312.631,514.314 
  "/>
<polyline clip-path="url(#clip140)" style="stroke:#000000; stroke-width:4; stroke-opacity:1; fill:none" points="
  287.852,286.212 312.631,286.212 
  "/>
<polyline clip-path="url(#clip140)" style="stroke:#000000; stroke-width:4; stroke-opacity:1; fill:none" points="
  287.852,58.1097 312.631,58.1097 
  "/>
<path clip-path="url(#clip140)" d="M 0 0 M114.584 1199.07 L144.26 1199.07 L144.26 1203.01 L114.584 1203.01 L114.584 1199.07 Z" fill="#000000" fill-rule="evenodd" fill-opacity="1" /><path clip-path="url(#clip140)" d="M 0 0 M164.352 1184.42 Q160.741 1184.42 158.913 1187.99 Q157.107 1191.53 157.107 1198.66 Q157.107 1205.76 158.913 1209.33 Q160.741 1212.87 164.352 1212.87 Q167.987 1212.87 169.792 1209.33 Q171.621 1205.76 171.621 1198.66 Q171.621 1191.53 169.792 1187.99 Q167.987 1184.42 164.352 1184.42 M164.352 1180.72 Q170.163 1180.72 173.218 1185.32 Q176.297 1189.91 176.297 1198.66 Q176.297 1207.38 173.218 1211.99 Q170.163 1216.57 164.352 1216.57 Q158.542 1216.57 155.464 1211.99 Q152.408 1207.38 152.408 1198.66 Q152.408 1189.91 155.464 1185.32 Q158.542 1180.72 164.352 1180.72 Z" fill="#000000" fill-rule="evenodd" fill-opacity="1" /><path clip-path="url(#clip140)" d="M 0 0 M184.514 1210.02 L189.399 1210.02 L189.399 1215.9 L184.514 1215.9 L184.514 1210.02 Z" fill="#000000" fill-rule="evenodd" fill-opacity="1" /><path clip-path="url(#clip140)" d="M 0 0 M203.612 1211.97 L219.931 1211.97 L219.931 1215.9 L197.987 1215.9 L197.987 1211.97 Q200.649 1209.21 205.232 1204.58 Q209.838 1199.93 211.019 1198.59 Q213.264 1196.06 214.144 1194.33 Q215.047 1192.57 215.047 1190.88 Q215.047 1188.12 213.102 1186.39 Q211.181 1184.65 208.079 1184.65 Q205.88 1184.65 203.426 1185.42 Q200.996 1186.18 198.218 1187.73 L198.218 1183.01 Q201.042 1181.87 203.496 1181.3 Q205.949 1180.72 207.987 1180.72 Q213.357 1180.72 216.551 1183.4 Q219.746 1186.09 219.746 1190.58 Q219.746 1192.71 218.936 1194.63 Q218.148 1196.53 216.042 1199.12 Q215.463 1199.79 212.361 1203.01 Q209.26 1206.2 203.612 1211.97 Z" fill="#000000" fill-rule="evenodd" fill-opacity="1" /><path clip-path="url(#clip140)" d="M 0 0 M240.324 1196.76 Q237.176 1196.76 235.324 1198.91 Q233.496 1201.06 233.496 1204.81 Q233.496 1208.54 235.324 1210.72 Q237.176 1212.87 240.324 1212.87 Q243.472 1212.87 245.301 1210.72 Q247.153 1208.54 247.153 1204.81 Q247.153 1201.06 245.301 1198.91 Q243.472 1196.76 240.324 1196.76 M249.607 1182.11 L249.607 1186.36 Q247.847 1185.53 246.042 1185.09 Q244.259 1184.65 242.5 1184.65 Q237.871 1184.65 235.417 1187.78 Q232.986 1190.9 232.639 1197.22 Q234.005 1195.21 236.065 1194.14 Q238.125 1193.05 240.602 1193.05 Q245.81 1193.05 248.82 1196.23 Q251.852 1199.37 251.852 1204.81 Q251.852 1210.14 248.704 1213.36 Q245.556 1216.57 240.324 1216.57 Q234.329 1216.57 231.158 1211.99 Q227.986 1207.38 227.986 1198.66 Q227.986 1190.46 231.875 1185.6 Q235.764 1180.72 242.315 1180.72 Q244.074 1180.72 245.857 1181.06 Q247.662 1181.41 249.607 1182.11 Z" fill="#000000" fill-rule="evenodd" fill-opacity="1" /><path clip-path="url(#clip140)" d="M 0 0 M115.742 970.971 L145.417 970.971 L145.417 974.906 L115.742 974.906 L115.742 970.971 Z" fill="#000000" fill-rule="evenodd" fill-opacity="1" /><path clip-path="url(#clip140)" d="M 0 0 M165.51 956.318 Q161.899 956.318 160.07 959.883 Q158.265 963.424 158.265 970.554 Q158.265 977.66 160.07 981.225 Q161.899 984.767 165.51 984.767 Q169.144 984.767 170.95 981.225 Q172.778 977.66 172.778 970.554 Q172.778 963.424 170.95 959.883 Q169.144 956.318 165.51 956.318 M165.51 952.614 Q171.32 952.614 174.376 957.221 Q177.454 961.804 177.454 970.554 Q177.454 979.281 174.376 983.887 Q171.32 988.471 165.51 988.471 Q159.7 988.471 156.621 983.887 Q153.566 979.281 153.566 970.554 Q153.566 961.804 156.621 957.221 Q159.7 952.614 165.51 952.614 Z" fill="#000000" fill-rule="evenodd" fill-opacity="1" /><path clip-path="url(#clip140)" d="M 0 0 M185.672 981.92 L190.556 981.92 L190.556 987.799 L185.672 987.799 L185.672 981.92 Z" fill="#000000" fill-rule="evenodd" fill-opacity="1" /><path clip-path="url(#clip140)" d="M 0 0 M204.769 983.864 L221.088 983.864 L221.088 987.799 L199.144 987.799 L199.144 983.864 Q201.806 981.109 206.389 976.48 Q210.996 971.827 212.176 970.485 Q214.422 967.961 215.301 966.225 Q216.204 964.466 216.204 962.776 Q216.204 960.022 214.26 958.286 Q212.338 956.549 209.237 956.549 Q207.037 956.549 204.584 957.313 Q202.153 958.077 199.375 959.628 L199.375 954.906 Q202.2 953.772 204.653 953.193 Q207.107 952.614 209.144 952.614 Q214.514 952.614 217.709 955.299 Q220.903 957.985 220.903 962.475 Q220.903 964.605 220.093 966.526 Q219.306 968.424 217.199 971.017 Q216.621 971.688 213.519 974.906 Q210.417 978.1 204.769 983.864 Z" fill="#000000" fill-rule="evenodd" fill-opacity="1" /><path clip-path="url(#clip140)" d="M 0 0 M230.949 953.239 L249.306 953.239 L249.306 957.174 L235.232 957.174 L235.232 965.647 Q236.25 965.299 237.269 965.137 Q238.287 964.952 239.306 964.952 Q245.093 964.952 248.472 968.123 Q251.852 971.295 251.852 976.711 Q251.852 982.29 248.38 985.392 Q244.908 988.471 238.588 988.471 Q236.412 988.471 234.144 988.1 Q231.898 987.73 229.491 986.989 L229.491 982.29 Q231.574 983.424 233.797 983.98 Q236.019 984.535 238.496 984.535 Q242.5 984.535 244.838 982.429 Q247.176 980.322 247.176 976.711 Q247.176 973.1 244.838 970.994 Q242.5 968.887 238.496 968.887 Q236.621 968.887 234.746 969.304 Q232.894 969.721 230.949 970.6 L230.949 953.239 Z" fill="#000000" fill-rule="evenodd" fill-opacity="1" /><path clip-path="url(#clip140)" d="M 0 0 M114.26 742.868 L143.936 742.868 L143.936 746.803 L114.26 746.803 L114.26 742.868 Z" fill="#000000" fill-rule="evenodd" fill-opacity="1" /><path clip-path="url(#clip140)" d="M 0 0 M164.028 728.216 Q160.417 728.216 158.589 731.78 Q156.783 735.322 156.783 742.452 Q156.783 749.558 158.589 753.123 Q160.417 756.664 164.028 756.664 Q167.663 756.664 169.468 753.123 Q171.297 749.558 171.297 742.452 Q171.297 735.322 169.468 731.78 Q167.663 728.216 164.028 728.216 M164.028 724.512 Q169.839 724.512 172.894 729.118 Q175.973 733.702 175.973 742.452 Q175.973 751.178 172.894 755.785 Q169.839 760.368 164.028 760.368 Q158.218 760.368 155.14 755.785 Q152.084 751.178 152.084 742.452 Q152.084 733.702 155.14 729.118 Q158.218 724.512 164.028 724.512 Z" fill="#000000" fill-rule="evenodd" fill-opacity="1" /><path clip-path="url(#clip140)" d="M 0 0 M184.19 753.817 L189.075 753.817 L189.075 759.697 L184.19 759.697 L184.19 753.817 Z" fill="#000000" fill-rule="evenodd" fill-opacity="1" /><path clip-path="url(#clip140)" d="M 0 0 M203.287 755.762 L219.607 755.762 L219.607 759.697 L197.662 759.697 L197.662 755.762 Q200.325 753.007 204.908 748.377 Q209.514 743.725 210.695 742.382 Q212.94 739.859 213.82 738.123 Q214.723 736.364 214.723 734.674 Q214.723 731.919 212.778 730.183 Q210.857 728.447 207.755 728.447 Q205.556 728.447 203.102 729.211 Q200.672 729.975 197.894 731.526 L197.894 726.804 Q200.718 725.669 203.172 725.091 Q205.625 724.512 207.662 724.512 Q213.033 724.512 216.227 727.197 Q219.422 729.882 219.422 734.373 Q219.422 736.503 218.611 738.424 Q217.824 740.322 215.718 742.915 Q215.139 743.586 212.037 746.803 Q208.936 749.998 203.287 755.762 Z" fill="#000000" fill-rule="evenodd" fill-opacity="1" /><path clip-path="url(#clip140)" d="M 0 0 M242.269 729.211 L230.463 747.66 L242.269 747.66 L242.269 729.211 M241.042 725.137 L246.921 725.137 L246.921 747.66 L251.852 747.66 L251.852 751.549 L246.921 751.549 L246.921 759.697 L242.269 759.697 L242.269 751.549 L226.667 751.549 L226.667 747.035 L241.042 725.137 Z" fill="#000000" fill-rule="evenodd" fill-opacity="1" /><path clip-path="url(#clip140)" d="M 0 0 M115.394 514.766 L145.07 514.766 L145.07 518.701 L115.394 518.701 L115.394 514.766 Z" fill="#000000" fill-rule="evenodd" fill-opacity="1" /><path clip-path="url(#clip140)" d="M 0 0 M165.163 500.113 Q161.552 500.113 159.723 503.678 Q157.917 507.22 157.917 514.349 Q157.917 521.456 159.723 525.02 Q161.552 528.562 165.163 528.562 Q168.797 528.562 170.602 525.02 Q172.431 521.456 172.431 514.349 Q172.431 507.22 170.602 503.678 Q168.797 500.113 165.163 500.113 M165.163 496.409 Q170.973 496.409 174.028 501.016 Q177.107 505.599 177.107 514.349 Q177.107 523.076 174.028 527.682 Q170.973 532.266 165.163 532.266 Q159.353 532.266 156.274 527.682 Q153.218 523.076 153.218 514.349 Q153.218 505.599 156.274 501.016 Q159.353 496.409 165.163 496.409 Z" fill="#000000" fill-rule="evenodd" fill-opacity="1" /><path clip-path="url(#clip140)" d="M 0 0 M185.325 525.715 L190.209 525.715 L190.209 531.594 L185.325 531.594 L185.325 525.715 Z" fill="#000000" fill-rule="evenodd" fill-opacity="1" /><path clip-path="url(#clip140)" d="M 0 0 M204.422 527.659 L220.741 527.659 L220.741 531.594 L198.797 531.594 L198.797 527.659 Q201.459 524.905 206.042 520.275 Q210.649 515.622 211.829 514.28 Q214.074 511.757 214.954 510.021 Q215.857 508.261 215.857 506.571 Q215.857 503.817 213.912 502.081 Q211.991 500.345 208.889 500.345 Q206.69 500.345 204.237 501.109 Q201.806 501.872 199.028 503.423 L199.028 498.701 Q201.852 497.567 204.306 496.988 Q206.76 496.409 208.797 496.409 Q214.167 496.409 217.361 499.095 Q220.556 501.78 220.556 506.271 Q220.556 508.4 219.746 510.321 Q218.959 512.22 216.852 514.812 Q216.273 515.483 213.172 518.701 Q210.07 521.895 204.422 527.659 Z" fill="#000000" fill-rule="evenodd" fill-opacity="1" /><path clip-path="url(#clip140)" d="M 0 0 M244.722 512.96 Q248.079 513.678 249.954 515.946 Q251.852 518.215 251.852 521.548 Q251.852 526.664 248.334 529.465 Q244.815 532.266 238.334 532.266 Q236.158 532.266 233.843 531.826 Q231.551 531.409 229.098 530.553 L229.098 526.039 Q231.042 527.173 233.357 527.752 Q235.672 528.331 238.195 528.331 Q242.593 528.331 244.884 526.595 Q247.199 524.858 247.199 521.548 Q247.199 518.493 245.046 516.78 Q242.917 515.044 239.097 515.044 L235.07 515.044 L235.07 511.201 L239.283 511.201 Q242.732 511.201 244.56 509.835 Q246.389 508.446 246.389 505.854 Q246.389 503.192 244.491 501.78 Q242.616 500.345 239.097 500.345 Q237.176 500.345 234.977 500.761 Q232.778 501.178 230.139 502.058 L230.139 497.891 Q232.801 497.15 235.116 496.78 Q237.454 496.409 239.514 496.409 Q244.838 496.409 247.94 498.84 Q251.042 501.247 251.042 505.368 Q251.042 508.238 249.398 510.229 Q247.755 512.196 244.722 512.96 Z" fill="#000000" fill-rule="evenodd" fill-opacity="1" /><path clip-path="url(#clip140)" d="M 0 0 M116.343 286.663 L146.019 286.663 L146.019 290.599 L116.343 290.599 L116.343 286.663 Z" fill="#000000" fill-rule="evenodd" fill-opacity="1" /><path clip-path="url(#clip140)" d="M 0 0 M166.112 272.011 Q162.501 272.011 160.672 275.576 Q158.866 279.117 158.866 286.247 Q158.866 293.353 160.672 296.918 Q162.501 300.46 166.112 300.46 Q169.746 300.46 171.552 296.918 Q173.38 293.353 173.38 286.247 Q173.38 279.117 171.552 275.576 Q169.746 272.011 166.112 272.011 M166.112 268.307 Q171.922 268.307 174.977 272.914 Q178.056 277.497 178.056 286.247 Q178.056 294.974 174.977 299.58 Q171.922 304.163 166.112 304.163 Q160.302 304.163 157.223 299.58 Q154.167 294.974 154.167 286.247 Q154.167 277.497 157.223 272.914 Q160.302 268.307 166.112 268.307 Z" fill="#000000" fill-rule="evenodd" fill-opacity="1" /><path clip-path="url(#clip140)" d="M 0 0 M186.274 297.612 L191.158 297.612 L191.158 303.492 L186.274 303.492 L186.274 297.612 Z" fill="#000000" fill-rule="evenodd" fill-opacity="1" /><path clip-path="url(#clip140)" d="M 0 0 M205.371 299.557 L221.69 299.557 L221.69 303.492 L199.746 303.492 L199.746 299.557 Q202.408 296.802 206.991 292.173 Q211.598 287.52 212.778 286.177 Q215.024 283.654 215.903 281.918 Q216.806 280.159 216.806 278.469 Q216.806 275.714 214.861 273.978 Q212.94 272.242 209.838 272.242 Q207.639 272.242 205.186 273.006 Q202.755 273.77 199.977 275.321 L199.977 270.599 Q202.801 269.464 205.255 268.886 Q207.709 268.307 209.746 268.307 Q215.116 268.307 218.311 270.992 Q221.505 273.677 221.505 278.168 Q221.505 280.298 220.695 282.219 Q219.908 284.117 217.801 286.71 Q217.223 287.381 214.121 290.599 Q211.019 293.793 205.371 299.557 Z" fill="#000000" fill-rule="evenodd" fill-opacity="1" /><path clip-path="url(#clip140)" d="M 0 0 M235.533 299.557 L251.852 299.557 L251.852 303.492 L229.908 303.492 L229.908 299.557 Q232.57 296.802 237.153 292.173 Q241.759 287.52 242.94 286.177 Q245.185 283.654 246.065 281.918 Q246.968 280.159 246.968 278.469 Q246.968 275.714 245.023 273.978 Q243.102 272.242 240 272.242 Q237.801 272.242 235.347 273.006 Q232.917 273.77 230.139 275.321 L230.139 270.599 Q232.963 269.464 235.417 268.886 Q237.871 268.307 239.908 268.307 Q245.278 268.307 248.472 270.992 Q251.667 273.677 251.667 278.168 Q251.667 280.298 250.857 282.219 Q250.07 284.117 247.963 286.71 Q247.384 287.381 244.283 290.599 Q241.181 293.793 235.533 299.557 Z" fill="#000000" fill-rule="evenodd" fill-opacity="1" /><path clip-path="url(#clip140)" d="M 0 0 M115.973 58.5611 L145.649 58.5611 L145.649 62.4962 L115.973 62.4962 L115.973 58.5611 Z" fill="#000000" fill-rule="evenodd" fill-opacity="1" /><path clip-path="url(#clip140)" d="M 0 0 M165.741 43.9084 Q162.13 43.9084 160.302 47.4732 Q158.496 51.0148 158.496 58.1444 Q158.496 65.2509 160.302 68.8157 Q162.13 72.3573 165.741 72.3573 Q169.376 72.3573 171.181 68.8157 Q173.01 65.2509 173.01 58.1444 Q173.01 51.0148 171.181 47.4732 Q169.376 43.9084 165.741 43.9084 M165.741 40.2047 Q171.552 40.2047 174.607 44.8112 Q177.686 49.3945 177.686 58.1444 Q177.686 66.8712 174.607 71.4777 Q171.552 76.061 165.741 76.061 Q159.931 76.061 156.853 71.4777 Q153.797 66.8712 153.797 58.1444 Q153.797 49.3945 156.853 44.8112 Q159.931 40.2047 165.741 40.2047 Z" fill="#000000" fill-rule="evenodd" fill-opacity="1" /><path clip-path="url(#clip140)" d="M 0 0 M185.903 69.5101 L190.788 69.5101 L190.788 75.3897 L185.903 75.3897 L185.903 69.5101 Z" fill="#000000" fill-rule="evenodd" fill-opacity="1" /><path clip-path="url(#clip140)" d="M 0 0 M205 71.4545 L221.32 71.4545 L221.32 75.3897 L199.375 75.3897 L199.375 71.4545 Q202.037 68.6999 206.621 64.0703 Q211.227 59.4176 212.408 58.075 Q214.653 55.5518 215.533 53.8157 Q216.436 52.0565 216.436 50.3667 Q216.436 47.6121 214.491 45.876 Q212.57 44.1399 209.468 44.1399 Q207.269 44.1399 204.815 44.9037 Q202.385 45.6676 199.607 47.2185 L199.607 42.4963 Q202.431 41.3621 204.885 40.7834 Q207.338 40.2047 209.375 40.2047 Q214.746 40.2047 217.94 42.8899 Q221.135 45.575 221.135 50.0658 Q221.135 52.1954 220.324 54.1167 Q219.537 56.0148 217.431 58.6074 Q216.852 59.2787 213.75 62.4962 Q210.649 65.6907 205 71.4545 Z" fill="#000000" fill-rule="evenodd" fill-opacity="1" /><path clip-path="url(#clip140)" d="M 0 0 M231.945 71.4545 L239.584 71.4545 L239.584 45.0889 L231.273 46.7556 L231.273 42.4963 L239.537 40.8297 L244.213 40.8297 L244.213 71.4545 L251.852 71.4545 L251.852 75.3897 L231.945 75.3897 L231.945 71.4545 Z" fill="#000000" fill-rule="evenodd" fill-opacity="1" /><path clip-path="url(#clip140)" d="M 0 0 M16.4842 750.521 L16.4842 720.475 L21.895 720.475 L21.895 744.092 L35.9632 744.092 L35.9632 721.462 L41.3741 721.462 L41.3741 744.092 L58.5933 744.092 L58.5933 719.902 L64.0042 719.902 L64.0042 750.521 L16.4842 750.521 Z" fill="#000000" fill-rule="evenodd" fill-opacity="1" /><polyline clip-path="url(#clip142)" style="stroke:#009af9; stroke-width:8; stroke-opacity:1; fill:none" points="
  346.293,86.1857 833.298,377.788 1320.3,694.153 1807.31,1026.11 2294.32,1369.03 
  "/>
<circle clip-path="url(#clip142)" cx="346.293" cy="86.1857" r="14" fill="#009af9" fill-rule="evenodd" fill-opacity="1" stroke="#000000" stroke-opacity="1" stroke-width="3.2"/>
<circle clip-path="url(#clip142)" cx="833.298" cy="377.788" r="14" fill="#009af9" fill-rule="evenodd" fill-opacity="1" stroke="#000000" stroke-opacity="1" stroke-width="3.2"/>
<circle clip-path="url(#clip142)" cx="1320.3" cy="694.153" r="14" fill="#009af9" fill-rule="evenodd" fill-opacity="1" stroke="#000000" stroke-opacity="1" stroke-width="3.2"/>
<circle clip-path="url(#clip142)" cx="1807.31" cy="1026.11" r="14" fill="#009af9" fill-rule="evenodd" fill-opacity="1" stroke="#000000" stroke-opacity="1" stroke-width="3.2"/>
<circle clip-path="url(#clip142)" cx="2294.32" cy="1369.03" r="14" fill="#009af9" fill-rule="evenodd" fill-opacity="1" stroke="#000000" stroke-opacity="1" stroke-width="3.2"/>
<polyline clip-path="url(#clip142)" style="stroke:#e26f46; stroke-width:8; stroke-opacity:1; fill:none" points="
  589.796,228.214 833.298,382.784 1076.8,541.915 1320.3,704.847 1563.81,870.96 1807.31,1039.79 2050.81,1210.98 2294.32,1384.24 
  "/>
<path clip-path="url(#clip142)" d="M573.796 212.214 L573.796 244.214 L605.796 244.214 L605.796 212.214 L573.796 212.214 Z" fill="#e26f46" fill-rule="evenodd" fill-opacity="1" stroke="#000000" stroke-opacity="1" stroke-width="3.2"/>
<path clip-path="url(#clip142)" d="M817.298 366.784 L817.298 398.784 L849.298 398.784 L849.298 366.784 L817.298 366.784 Z" fill="#e26f46" fill-rule="evenodd" fill-opacity="1" stroke="#000000" stroke-opacity="1" stroke-width="3.2"/>
<path clip-path="url(#clip142)" d="M1060.8 525.915 L1060.8 557.915 L1092.8 557.915 L1092.8 525.915 L1060.8 525.915 Z" fill="#e26f46" fill-rule="evenodd" fill-opacity="1" stroke="#000000" stroke-opacity="1" stroke-width="3.2"/>
<path clip-path="url(#clip142)" d="M1304.3 688.847 L1304.3 720.847 L1336.3 720.847 L1336.3 688.847 L1304.3 688.847 Z" fill="#e26f46" fill-rule="evenodd" fill-opacity="1" stroke="#000000" stroke-opacity="1" stroke-width="3.2"/>
<path clip-path="url(#clip142)" d="M1547.81 854.96 L1547.81 886.96 L1579.81 886.96 L1579.81 854.96 L1547.81 854.96 Z" fill="#e26f46" fill-rule="evenodd" fill-opacity="1" stroke="#000000" stroke-opacity="1" stroke-width="3.2"/>
<path clip-path="url(#clip142)" d="M1791.31 1023.79 L1791.31 1055.79 L1823.31 1055.79 L1823.31 1023.79 L1791.31 1023.79 Z" fill="#e26f46" fill-rule="evenodd" fill-opacity="1" stroke="#000000" stroke-opacity="1" stroke-width="3.2"/>
<path clip-path="url(#clip142)" d="M2034.81 1194.98 L2034.81 1226.98 L2066.81 1226.98 L2066.81 1194.98 L2034.81 1194.98 Z" fill="#e26f46" fill-rule="evenodd" fill-opacity="1" stroke="#000000" stroke-opacity="1" stroke-width="3.2"/>
<path clip-path="url(#clip142)" d="M2278.32 1368.24 L2278.32 1400.24 L2310.32 1400.24 L2310.32 1368.24 L2278.32 1368.24 Z" fill="#e26f46" fill-rule="evenodd" fill-opacity="1" stroke="#000000" stroke-opacity="1" stroke-width="3.2"/>
<path clip-path="url(#clip140)" d="
M1680.17 274.549 L2283.93 274.549 L2283.93 93.1086 L1680.17 93.1086  Z
  " fill="#ffffff" fill-rule="evenodd" fill-opacity="1"/>
<polyline clip-path="url(#clip140)" style="stroke:#000000; stroke-width:4; stroke-opacity:1; fill:none" points="
  1680.17,274.549 2283.93,274.549 2283.93,93.1086 1680.17,93.1086 1680.17,274.549 
  "/>
<polyline clip-path="url(#clip140)" style="stroke:#009af9; stroke-width:4; stroke-opacity:1; fill:none" points="
  1703.11,153.589 1840.77,153.589 
  "/>
<circle clip-path="url(#clip140)" cx="1771.94" cy="153.589" r="23" fill="#009af9" fill-rule="evenodd" fill-opacity="1" stroke="#000000" stroke-opacity="1" stroke-width="5.12"/>
<path clip-path="url(#clip140)" d="M 0 0 M1863.71 136.309 L1885.56 136.309 L1885.56 140.244 L1868.39 140.244 L1868.39 150.475 L1884.85 150.475 L1884.85 154.41 L1868.39 154.41 L1868.39 166.933 L1885.98 166.933 L1885.98 170.869 L1863.71 170.869 L1863.71 136.309 Z" fill="#000000" fill-rule="evenodd" fill-opacity="1" /><path clip-path="url(#clip140)" d="M 0 0 M1909.96 166.933 L1917.6 166.933 L1917.6 140.568 L1909.29 142.235 L1909.29 137.975 L1917.55 136.309 L1922.23 136.309 L1922.23 166.933 L1929.87 166.933 L1929.87 170.869 L1909.96 170.869 L1909.96 166.933 Z" fill="#000000" fill-rule="evenodd" fill-opacity="1" /><path clip-path="url(#clip140)" d="M 0 0 M1960.26 144.943 L1950.89 157.559 L1960.75 170.869 L1955.73 170.869 L1948.18 160.683 L1940.63 170.869 L1935.61 170.869 L1945.68 157.304 L1936.47 144.943 L1941.49 144.943 L1948.36 154.179 L1955.24 144.943 L1960.26 144.943 Z" fill="#000000" fill-rule="evenodd" fill-opacity="1" /><path clip-path="url(#clip140)" d="M 0 0 M1971.4 166.933 L1987.72 166.933 L1987.72 170.869 L1965.77 170.869 L1965.77 166.933 Q1968.43 164.179 1973.02 159.549 Q1977.62 154.896 1978.8 153.554 Q1981.05 151.031 1981.93 149.295 Q1982.83 147.535 1982.83 145.846 Q1982.83 143.091 1980.89 141.355 Q1978.97 139.619 1975.86 139.619 Q1973.67 139.619 1971.21 140.383 Q1968.78 141.147 1966 142.697 L1966 137.975 Q1968.83 136.841 1971.28 136.262 Q1973.73 135.684 1975.77 135.684 Q1981.14 135.684 1984.34 138.369 Q1987.53 141.054 1987.53 145.545 Q1987.53 147.674 1986.72 149.596 Q1985.93 151.494 1983.83 154.086 Q1983.25 154.758 1980.15 157.975 Q1977.05 161.17 1971.4 166.933 Z" fill="#000000" fill-rule="evenodd" fill-opacity="1" /><path clip-path="url(#clip140)" d="M 0 0 M2030.66 145.938 L2030.66 149.92 Q2028.85 148.924 2027.02 148.438 Q2025.22 147.929 2023.36 147.929 Q2019.22 147.929 2016.93 150.568 Q2014.64 153.184 2014.64 157.929 Q2014.64 162.674 2016.93 165.313 Q2019.22 167.929 2023.36 167.929 Q2025.22 167.929 2027.02 167.443 Q2028.85 166.933 2030.66 165.938 L2030.66 169.873 Q2028.87 170.707 2026.95 171.123 Q2025.05 171.54 2022.9 171.54 Q2017.04 171.54 2013.6 167.859 Q2010.15 164.179 2010.15 157.929 Q2010.15 151.586 2013.62 147.952 Q2017.11 144.318 2023.18 144.318 Q2025.15 144.318 2027.02 144.735 Q2028.9 145.128 2030.66 145.938 Z" fill="#000000" fill-rule="evenodd" fill-opacity="1" /><path clip-path="url(#clip140)" d="M 0 0 M2060.24 156.841 L2060.24 158.924 L2040.66 158.924 Q2040.93 163.322 2043.29 165.637 Q2045.68 167.929 2049.92 167.929 Q2052.37 167.929 2054.66 167.327 Q2056.98 166.725 2059.24 165.521 L2059.24 169.549 Q2056.95 170.521 2054.54 171.031 Q2052.14 171.54 2049.66 171.54 Q2043.46 171.54 2039.82 167.929 Q2036.21 164.318 2036.21 158.16 Q2036.21 151.795 2039.64 148.068 Q2043.09 144.318 2048.92 144.318 Q2054.15 144.318 2057.18 147.697 Q2060.24 151.054 2060.24 156.841 M2055.98 155.591 Q2055.93 152.096 2054.01 150.012 Q2052.11 147.929 2048.97 147.929 Q2045.4 147.929 2043.25 149.943 Q2041.12 151.957 2040.79 155.614 L2055.98 155.591 Z" fill="#000000" fill-rule="evenodd" fill-opacity="1" /><path clip-path="url(#clip140)" d="M 0 0 M2067.23 134.85 L2071.49 134.85 L2071.49 170.869 L2067.23 170.869 L2067.23 134.85 Z" fill="#000000" fill-rule="evenodd" fill-opacity="1" /><path clip-path="url(#clip140)" d="M 0 0 M2080.4 134.85 L2084.66 134.85 L2084.66 170.869 L2080.4 170.869 L2080.4 134.85 Z" fill="#000000" fill-rule="evenodd" fill-opacity="1" /><path clip-path="url(#clip140)" d="M 0 0 M2113.5 140.151 L2113.5 167.026 L2119.15 167.026 Q2126.3 167.026 2129.61 163.785 Q2132.95 160.545 2132.95 153.554 Q2132.95 146.609 2129.61 143.392 Q2126.3 140.151 2119.15 140.151 L2113.5 140.151 M2108.83 136.309 L2118.43 136.309 Q2128.48 136.309 2133.18 140.498 Q2137.88 144.665 2137.88 153.554 Q2137.88 162.489 2133.16 166.679 Q2128.43 170.869 2118.43 170.869 L2108.83 170.869 L2108.83 136.309 Z" fill="#000000" fill-rule="evenodd" fill-opacity="1" /><path clip-path="url(#clip140)" d="M 0 0 M2160.77 149.341 L2190.45 149.341 L2190.45 153.23 L2160.77 153.23 L2160.77 149.341 M2160.77 158.785 L2190.45 158.785 L2190.45 162.721 L2160.77 162.721 L2160.77 158.785 Z" fill="#000000" fill-rule="evenodd" fill-opacity="1" /><path clip-path="url(#clip140)" d="M 0 0 M2228.46 140.383 L2216.65 158.832 L2228.46 158.832 L2228.46 140.383 M2227.23 136.309 L2233.11 136.309 L2233.11 158.832 L2238.04 158.832 L2238.04 162.721 L2233.11 162.721 L2233.11 170.869 L2228.46 170.869 L2228.46 162.721 L2212.85 162.721 L2212.85 158.207 L2227.23 136.309 Z" fill="#000000" fill-rule="evenodd" fill-opacity="1" /><polyline clip-path="url(#clip140)" style="stroke:#e26f46; stroke-width:4; stroke-opacity:1; fill:none" points="
  1703.11,214.069 1840.77,214.069 
  "/>
<path clip-path="url(#clip140)" d="M1746.34 188.469 L1746.34 239.669 L1797.54 239.669 L1797.54 188.469 L1746.34 188.469 Z" fill="#e26f46" fill-rule="evenodd" fill-opacity="1" stroke="#000000" stroke-opacity="1" stroke-width="5.12"/>
<path clip-path="url(#clip140)" d="M 0 0 M1863.71 196.789 L1885.56 196.789 L1885.56 200.724 L1868.39 200.724 L1868.39 210.955 L1884.85 210.955 L1884.85 214.89 L1868.39 214.89 L1868.39 227.413 L1885.98 227.413 L1885.98 231.349 L1863.71 231.349 L1863.71 196.789 Z" fill="#000000" fill-rule="evenodd" fill-opacity="1" /><path clip-path="url(#clip140)" d="M 0 0 M1909.96 227.413 L1917.6 227.413 L1917.6 201.048 L1909.29 202.715 L1909.29 198.455 L1917.55 196.789 L1922.23 196.789 L1922.23 227.413 L1929.87 227.413 L1929.87 231.349 L1909.96 231.349 L1909.96 227.413 Z" fill="#000000" fill-rule="evenodd" fill-opacity="1" /><path clip-path="url(#clip140)" d="M 0 0 M1960.26 205.423 L1950.89 218.039 L1960.75 231.349 L1955.73 231.349 L1948.18 221.163 L1940.63 231.349 L1935.61 231.349 L1945.68 217.784 L1936.47 205.423 L1941.49 205.423 L1948.36 214.659 L1955.24 205.423 L1960.26 205.423 Z" fill="#000000" fill-rule="evenodd" fill-opacity="1" /><path clip-path="url(#clip140)" d="M 0 0 M1981.54 212.714 Q1984.89 213.432 1986.77 215.701 Q1988.67 217.969 1988.67 221.302 Q1988.67 226.418 1985.15 229.219 Q1981.63 232.02 1975.15 232.02 Q1972.97 232.02 1970.66 231.58 Q1968.36 231.163 1965.91 230.307 L1965.91 225.793 Q1967.86 226.927 1970.17 227.506 Q1972.48 228.085 1975.01 228.085 Q1979.41 228.085 1981.7 226.349 Q1984.01 224.613 1984.01 221.302 Q1984.01 218.247 1981.86 216.534 Q1979.73 214.798 1975.91 214.798 L1971.88 214.798 L1971.88 210.955 L1976.1 210.955 Q1979.55 210.955 1981.37 209.589 Q1983.2 208.201 1983.2 205.608 Q1983.2 202.946 1981.3 201.534 Q1979.43 200.099 1975.91 200.099 Q1973.99 200.099 1971.79 200.515 Q1969.59 200.932 1966.95 201.812 L1966.95 197.645 Q1969.61 196.904 1971.93 196.534 Q1974.27 196.164 1976.33 196.164 Q1981.65 196.164 1984.75 198.594 Q1987.86 201.002 1987.86 205.122 Q1987.86 207.992 1986.21 209.983 Q1984.57 211.951 1981.54 212.714 Z" fill="#000000" fill-rule="evenodd" fill-opacity="1" /><path clip-path="url(#clip140)" d="M 0 0 M2030.66 206.418 L2030.66 210.4 Q2028.85 209.404 2027.02 208.918 Q2025.22 208.409 2023.36 208.409 Q2019.22 208.409 2016.93 211.048 Q2014.64 213.664 2014.64 218.409 Q2014.64 223.154 2016.93 225.793 Q2019.22 228.409 2023.36 228.409 Q2025.22 228.409 2027.02 227.923 Q2028.85 227.413 2030.66 226.418 L2030.66 230.353 Q2028.87 231.187 2026.95 231.603 Q2025.05 232.02 2022.9 232.02 Q2017.04 232.02 2013.6 228.339 Q2010.15 224.659 2010.15 218.409 Q2010.15 212.066 2013.62 208.432 Q2017.11 204.798 2023.18 204.798 Q2025.15 204.798 2027.02 205.215 Q2028.9 205.608 2030.66 206.418 Z" fill="#000000" fill-rule="evenodd" fill-opacity="1" /><path clip-path="url(#clip140)" d="M 0 0 M2060.24 217.321 L2060.24 219.404 L2040.66 219.404 Q2040.93 223.802 2043.29 226.117 Q2045.68 228.409 2049.92 228.409 Q2052.37 228.409 2054.66 227.807 Q2056.98 227.205 2059.24 226.001 L2059.24 230.029 Q2056.95 231.001 2054.54 231.511 Q2052.14 232.02 2049.66 232.02 Q2043.46 232.02 2039.82 228.409 Q2036.21 224.798 2036.21 218.64 Q2036.21 212.275 2039.64 208.548 Q2043.09 204.798 2048.92 204.798 Q2054.15 204.798 2057.18 208.177 Q2060.24 211.534 2060.24 217.321 M2055.98 216.071 Q2055.93 212.576 2054.01 210.492 Q2052.11 208.409 2048.97 208.409 Q2045.4 208.409 2043.25 210.423 Q2041.12 212.437 2040.79 216.094 L2055.98 216.071 Z" fill="#000000" fill-rule="evenodd" fill-opacity="1" /><path clip-path="url(#clip140)" d="M 0 0 M2067.23 195.33 L2071.49 195.33 L2071.49 231.349 L2067.23 231.349 L2067.23 195.33 Z" fill="#000000" fill-rule="evenodd" fill-opacity="1" /><path clip-path="url(#clip140)" d="M 0 0 M2080.4 195.33 L2084.66 195.33 L2084.66 231.349 L2080.4 231.349 L2080.4 195.33 Z" fill="#000000" fill-rule="evenodd" fill-opacity="1" /><path clip-path="url(#clip140)" d="M 0 0 M2113.5 200.631 L2113.5 227.506 L2119.15 227.506 Q2126.3 227.506 2129.61 224.265 Q2132.95 221.025 2132.95 214.034 Q2132.95 207.089 2129.61 203.872 Q2126.3 200.631 2119.15 200.631 L2113.5 200.631 M2108.83 196.789 L2118.43 196.789 Q2128.48 196.789 2133.18 200.978 Q2137.88 205.145 2137.88 214.034 Q2137.88 222.969 2133.16 227.159 Q2128.43 231.349 2118.43 231.349 L2108.83 231.349 L2108.83 196.789 Z" fill="#000000" fill-rule="evenodd" fill-opacity="1" /><path clip-path="url(#clip140)" d="M 0 0 M2160.77 209.821 L2190.45 209.821 L2190.45 213.71 L2160.77 213.71 L2160.77 209.821 M2160.77 219.265 L2190.45 219.265 L2190.45 223.201 L2160.77 223.201 L2160.77 219.265 Z" fill="#000000" fill-rule="evenodd" fill-opacity="1" /><path clip-path="url(#clip140)" d="M 0 0 M2228.46 200.863 L2216.65 219.312 L2228.46 219.312 L2228.46 200.863 M2227.23 196.789 L2233.11 196.789 L2233.11 219.312 L2238.04 219.312 L2238.04 223.201 L2233.11 223.201 L2233.11 231.349 L2228.46 231.349 L2228.46 223.201 L2212.85 223.201 L2212.85 218.687 L2227.23 196.789 Z" fill="#000000" fill-rule="evenodd" fill-opacity="1" /></svg>
