<?xml version="1.0" encoding="utf-8"?>
<svg xmlns="http://www.w3.org/2000/svg" xmlns:xlink="http://www.w3.org/1999/xlink" width="600" height="400" viewBox="0 0 2400 1600">
<defs>
  <clipPath id="clip240">
    <rect x="0" y="0" width="2400" height="1600"/>
  </clipPath>
</defs>
<path clip-path="url(#clip240)" d="
M0 1600 L2400 1600 L2400 0 L0 0  Z
  " fill="#ffffff" fill-rule="evenodd" fill-opacity="1"/>
<defs>
  <clipPath id="clip241">
    <rect x="480" y="0" width="1681" height="1600"/>
  </clipPath>
</defs>
<path clip-path="url(#clip240)" d="
M257.69 1423.18 L2352.76 1423.18 L2352.76 123.472 L257.69 123.472  Z
  " fill="#ffffff" fill-rule="evenodd" fill-opacity="1"/>
<defs>
  <clipPath id="clip242">
    <rect x="257" y="123" width="2096" height="1301"/>
  </clipPath>
</defs>
<polyline clip-path="url(#clip242)" style="stroke:#000000; stroke-width:2; stroke-opacity:0.1; fill:none" points="
  297.02,1423.18 297.02,123.472 
  "/>
<polyline clip-path="url(#clip242)" style="stroke:#000000; stroke-width:2; stroke-opacity:0.1; fill:none" points="
  496.664,1423.18 496.664,123.472 
  "/>
<polyline clip-path="url(#clip242)" style="stroke:#000000; stroke-width:2; stroke-opacity:0.1; fill:none" points="
  696.308,1423.18 696.308,123.472 
  "/>
<polyline clip-path="url(#clip242)" style="stroke:#000000; stroke-width:2; stroke-opacity:0.1; fill:none" points="
  895.953,1423.18 895.953,123.472 
  "/>
<polyline clip-path="url(#clip242)" style="stroke:#000000; stroke-width:2; stroke-opacity:0.1; fill:none" points="
  1095.6,1423.18 1095.6,123.472 
  "/>
<polyline clip-path="url(#clip242)" style="stroke:#000000; stroke-width:2; stroke-opacity:0.1; fill:none" points="
  1295.24,1423.18 1295.24,123.472 
  "/>
<polyline clip-path="url(#clip242)" style="stroke:#000000; stroke-width:2; stroke-opacity:0.1; fill:none" points="
  1494.88,1423.18 1494.88,123.472 
  "/>
<polyline clip-path="url(#clip242)" style="stroke:#000000; stroke-width:2; stroke-opacity:0.1; fill:none" points="
  1694.53,1423.18 1694.53,123.472 
  "/>
<polyline clip-path="url(#clip242)" style="stroke:#000000; stroke-width:2; stroke-opacity:0.1; fill:none" points="
  1894.17,1423.18 1894.17,123.472 
  "/>
<polyline clip-path="url(#clip242)" style="stroke:#000000; stroke-width:2; stroke-opacity:0.1; fill:none" points="
  2093.82,1423.18 2093.82,123.472 
  "/>
<polyline clip-path="url(#clip242)" style="stroke:#000000; stroke-width:2; stroke-opacity:0.1; fill:none" points="
  2293.46,1423.18 2293.46,123.472 
  "/>
<polyline clip-path="url(#clip240)" style="stroke:#000000; stroke-width:4; stroke-opacity:1; fill:none" points="
  257.69,1423.18 2352.76,1423.18 
  "/>
<polyline clip-path="url(#clip240)" style="stroke:#000000; stroke-width:4; stroke-opacity:1; fill:none" points="
  297.02,1423.18 297.02,1407.58 
  "/>
<polyline clip-path="url(#clip240)" style="stroke:#000000; stroke-width:4; stroke-opacity:1; fill:none" points="
  496.664,1423.18 496.664,1407.58 
  "/>
<polyline clip-path="url(#clip240)" style="stroke:#000000; stroke-width:4; stroke-opacity:1; fill:none" points="
  696.308,1423.18 696.308,1407.58 
  "/>
<polyline clip-path="url(#clip240)" style="stroke:#000000; stroke-width:4; stroke-opacity:1; fill:none" points="
  895.953,1423.18 895.953,1407.58 
  "/>
<polyline clip-path="url(#clip240)" style="stroke:#000000; stroke-width:4; stroke-opacity:1; fill:none" points="
  1095.6,1423.18 1095.6,1407.58 
  "/>
<polyline clip-path="url(#clip240)" style="stroke:#000000; stroke-width:4; stroke-opacity:1; fill:none" points="
  1295.24,1423.18 1295.24,1407.58 
  "/>
<polyline clip-path="url(#clip240)" style="stroke:#000000; stroke-width:4; stroke-opacity:1; fill:none" points="
  1494.88,1423.18 1494.88,1407.58 
  "/>
<polyline clip-path="url(#clip240)" style="stroke:#000000; stroke-width:4; stroke-opacity:1; fill:none" points="
  1694.53,1423.18 1694.53,1407.58 
  "/>
<polyline clip-path="url(#clip240)" style="stroke:#000000; stroke-width:4; stroke-opacity:1; fill:none" points="
  1894.17,1423.18 1894.17,1407.58 
  "/>
<polyline clip-path="url(#clip240)" style="stroke:#000000; stroke-width:4; stroke-opacity:1; fill:none" points="
  2093.82,1423.18 2093.82,1407.58 
  "/>
<polyline clip-path="url(#clip240)" style="stroke:#000000; stroke-width:4; stroke-opacity:1; fill:none" points="
  2293.46,1423.18 2293.46,1407.58 
  "/>
<path clip-path="url(#clip240)" d="M 0 0 M274.404 1452.37 Q270.793 1452.37 268.965 1455.94 Q267.159 1459.48 267.159 1466.61 Q267.159 1473.71 268.965 1477.28 Q270.793 1480.82 274.404 1480.82 Q278.039 1480.82 279.844 1477.28 Q281.673 1473.71 281.673 1466.61 Q281.673 1459.48 279.844 1455.94 Q278.039 1452.37 274.404 1452.37 M274.404 1448.67 Q280.215 1448.67 283.27 1453.27 Q286.349 1457.86 286.349 1466.61 Q286.349 1475.33 283.27 1479.94 Q280.215 1484.52 274.404 1484.52 Q268.594 1484.52 265.516 1479.94 Q262.46 1475.33 262.46 1466.61 Q262.46 1457.86 265.516 1453.27 Q268.594 1448.67 274.404 1448.67 Z" fill="#000000" fill-rule="evenodd" fill-opacity="1" /><path clip-path="url(#clip240)" d="M 0 0 M294.566 1477.97 L299.451 1477.97 L299.451 1483.85 L294.566 1483.85 L294.566 1477.97 Z" fill="#000000" fill-rule="evenodd" fill-opacity="1" /><path clip-path="url(#clip240)" d="M 0 0 M319.636 1452.37 Q316.025 1452.37 314.196 1455.94 Q312.39 1459.48 312.39 1466.61 Q312.39 1473.71 314.196 1477.28 Q316.025 1480.82 319.636 1480.82 Q323.27 1480.82 325.075 1477.28 Q326.904 1473.71 326.904 1466.61 Q326.904 1459.48 325.075 1455.94 Q323.27 1452.37 319.636 1452.37 M319.636 1448.67 Q325.446 1448.67 328.501 1453.27 Q331.58 1457.86 331.58 1466.61 Q331.58 1475.33 328.501 1479.94 Q325.446 1484.52 319.636 1484.52 Q313.826 1484.52 310.747 1479.94 Q307.691 1475.33 307.691 1466.61 Q307.691 1457.86 310.747 1453.27 Q313.826 1448.67 319.636 1448.67 Z" fill="#000000" fill-rule="evenodd" fill-opacity="1" /><path clip-path="url(#clip240)" d="M 0 0 M474.662 1452.37 Q471.051 1452.37 469.222 1455.94 Q467.417 1459.48 467.417 1466.61 Q467.417 1473.71 469.222 1477.28 Q471.051 1480.82 474.662 1480.82 Q478.296 1480.82 480.102 1477.28 Q481.93 1473.71 481.93 1466.61 Q481.93 1459.48 480.102 1455.94 Q478.296 1452.37 474.662 1452.37 M474.662 1448.67 Q480.472 1448.67 483.528 1453.27 Q486.606 1457.86 486.606 1466.61 Q486.606 1475.33 483.528 1479.94 Q480.472 1484.52 474.662 1484.52 Q468.852 1484.52 465.773 1479.94 Q462.718 1475.33 462.718 1466.61 Q462.718 1457.86 465.773 1453.27 Q468.852 1448.67 474.662 1448.67 Z" fill="#000000" fill-rule="evenodd" fill-opacity="1" /><path clip-path="url(#clip240)" d="M 0 0 M494.824 1477.97 L499.708 1477.97 L499.708 1483.85 L494.824 1483.85 L494.824 1477.97 Z" fill="#000000" fill-rule="evenodd" fill-opacity="1" /><path clip-path="url(#clip240)" d="M 0 0 M510.703 1479.92 L518.342 1479.92 L518.342 1453.55 L510.032 1455.22 L510.032 1450.96 L518.296 1449.29 L522.972 1449.29 L522.972 1479.92 L530.611 1479.92 L530.611 1483.85 L510.703 1483.85 L510.703 1479.92 Z" fill="#000000" fill-rule="evenodd" fill-opacity="1" /><path clip-path="url(#clip240)" d="M 0 0 M674.491 1452.37 Q670.88 1452.37 669.052 1455.94 Q667.246 1459.48 667.246 1466.61 Q667.246 1473.71 669.052 1477.28 Q670.88 1480.82 674.491 1480.82 Q678.126 1480.82 679.931 1477.28 Q681.76 1473.71 681.76 1466.61 Q681.76 1459.48 679.931 1455.94 Q678.126 1452.37 674.491 1452.37 M674.491 1448.67 Q680.301 1448.67 683.357 1453.27 Q686.436 1457.86 686.436 1466.61 Q686.436 1475.33 683.357 1479.94 Q680.301 1484.52 674.491 1484.52 Q668.681 1484.52 665.602 1479.94 Q662.547 1475.33 662.547 1466.61 Q662.547 1457.86 665.602 1453.27 Q668.681 1448.67 674.491 1448.67 Z" fill="#000000" fill-rule="evenodd" fill-opacity="1" /><path clip-path="url(#clip240)" d="M 0 0 M694.653 1477.97 L699.537 1477.97 L699.537 1483.85 L694.653 1483.85 L694.653 1477.97 Z" fill="#000000" fill-rule="evenodd" fill-opacity="1" /><path clip-path="url(#clip240)" d="M 0 0 M713.75 1479.92 L730.07 1479.92 L730.07 1483.85 L708.125 1483.85 L708.125 1479.92 Q710.787 1477.16 715.371 1472.53 Q719.977 1467.88 721.158 1466.54 Q723.403 1464.01 724.283 1462.28 Q725.186 1460.52 725.186 1458.83 Q725.186 1456.07 723.241 1454.34 Q721.32 1452.6 718.218 1452.6 Q716.019 1452.6 713.565 1453.37 Q711.135 1454.13 708.357 1455.68 L708.357 1450.96 Q711.181 1449.82 713.635 1449.25 Q716.088 1448.67 718.125 1448.67 Q723.496 1448.67 726.69 1451.35 Q729.885 1454.04 729.885 1458.53 Q729.885 1460.66 729.074 1462.58 Q728.287 1464.48 726.181 1467.07 Q725.602 1467.74 722.5 1470.96 Q719.399 1474.15 713.75 1479.92 Z" fill="#000000" fill-rule="evenodd" fill-opacity="1" /><path clip-path="url(#clip240)" d="M 0 0 M873.661 1452.37 Q870.05 1452.37 868.221 1455.94 Q866.416 1459.48 866.416 1466.61 Q866.416 1473.71 868.221 1477.28 Q870.05 1480.82 873.661 1480.82 Q877.295 1480.82 879.101 1477.28 Q880.929 1473.71 880.929 1466.61 Q880.929 1459.48 879.101 1455.94 Q877.295 1452.37 873.661 1452.37 M873.661 1448.67 Q879.471 1448.67 882.527 1453.27 Q885.605 1457.86 885.605 1466.61 Q885.605 1475.33 882.527 1479.94 Q879.471 1484.52 873.661 1484.52 Q867.851 1484.52 864.772 1479.94 Q861.717 1475.33 861.717 1466.61 Q861.717 1457.86 864.772 1453.27 Q867.851 1448.67 873.661 1448.67 Z" fill="#000000" fill-rule="evenodd" fill-opacity="1" /><path clip-path="url(#clip240)" d="M 0 0 M893.823 1477.97 L898.707 1477.97 L898.707 1483.85 L893.823 1483.85 L893.823 1477.97 Z" fill="#000000" fill-rule="evenodd" fill-opacity="1" /><path clip-path="url(#clip240)" d="M 0 0 M923.059 1465.22 Q926.415 1465.94 928.29 1468.2 Q930.188 1470.47 930.188 1473.81 Q930.188 1478.92 926.67 1481.72 Q923.151 1484.52 916.67 1484.52 Q914.494 1484.52 912.179 1484.08 Q909.888 1483.67 907.434 1482.81 L907.434 1478.3 Q909.378 1479.43 911.693 1480.01 Q914.008 1480.59 916.531 1480.59 Q920.929 1480.59 923.221 1478.85 Q925.536 1477.12 925.536 1473.81 Q925.536 1470.75 923.383 1469.04 Q921.253 1467.3 917.434 1467.3 L913.406 1467.3 L913.406 1463.46 L917.619 1463.46 Q921.068 1463.46 922.897 1462.09 Q924.725 1460.7 924.725 1458.11 Q924.725 1455.45 922.827 1454.04 Q920.952 1452.6 917.434 1452.6 Q915.513 1452.6 913.314 1453.02 Q911.114 1453.44 908.476 1454.31 L908.476 1450.15 Q911.138 1449.41 913.452 1449.04 Q915.79 1448.67 917.851 1448.67 Q923.175 1448.67 926.276 1451.1 Q929.378 1453.5 929.378 1457.63 Q929.378 1460.5 927.735 1462.49 Q926.091 1464.45 923.059 1465.22 Z" fill="#000000" fill-rule="evenodd" fill-opacity="1" /><path clip-path="url(#clip240)" d="M 0 0 M1072.74 1452.37 Q1069.13 1452.37 1067.3 1455.94 Q1065.49 1459.48 1065.49 1466.61 Q1065.49 1473.71 1067.3 1477.28 Q1069.13 1480.82 1072.74 1480.82 Q1076.37 1480.82 1078.18 1477.28 Q1080.01 1473.71 1080.01 1466.61 Q1080.01 1459.48 1078.18 1455.94 Q1076.37 1452.37 1072.74 1452.37 M1072.74 1448.67 Q1078.55 1448.67 1081.6 1453.27 Q1084.68 1457.86 1084.68 1466.61 Q1084.68 1475.33 1081.6 1479.94 Q1078.55 1484.52 1072.74 1484.52 Q1066.93 1484.52 1063.85 1479.94 Q1060.79 1475.33 1060.79 1466.61 Q1060.79 1457.86 1063.85 1453.27 Q1066.93 1448.67 1072.74 1448.67 Z" fill="#000000" fill-rule="evenodd" fill-opacity="1" /><path clip-path="url(#clip240)" d="M 0 0 M1092.9 1477.97 L1097.78 1477.97 L1097.78 1483.85 L1092.9 1483.85 L1092.9 1477.97 Z" fill="#000000" fill-rule="evenodd" fill-opacity="1" /><path clip-path="url(#clip240)" d="M 0 0 M1120.82 1453.37 L1109.01 1471.81 L1120.82 1471.81 L1120.82 1453.37 M1119.59 1449.29 L1125.47 1449.29 L1125.47 1471.81 L1130.4 1471.81 L1130.4 1475.7 L1125.47 1475.7 L1125.47 1483.85 L1120.82 1483.85 L1120.82 1475.7 L1105.21 1475.7 L1105.21 1471.19 L1119.59 1449.29 Z" fill="#000000" fill-rule="evenodd" fill-opacity="1" /><path clip-path="url(#clip240)" d="M 0 0 M1273.12 1452.37 Q1269.51 1452.37 1267.68 1455.94 Q1265.88 1459.48 1265.88 1466.61 Q1265.88 1473.71 1267.68 1477.28 Q1269.51 1480.82 1273.12 1480.82 Q1276.76 1480.82 1278.56 1477.28 Q1280.39 1473.71 1280.39 1466.61 Q1280.39 1459.48 1278.56 1455.94 Q1276.76 1452.37 1273.12 1452.37 M1273.12 1448.67 Q1278.93 1448.67 1281.99 1453.27 Q1285.07 1457.86 1285.07 1466.61 Q1285.07 1475.33 1281.99 1479.94 Q1278.93 1484.52 1273.12 1484.52 Q1267.31 1484.52 1264.23 1479.94 Q1261.18 1475.33 1261.18 1466.61 Q1261.18 1457.86 1264.23 1453.27 Q1267.31 1448.67 1273.12 1448.67 Z" fill="#000000" fill-rule="evenodd" fill-opacity="1" /><path clip-path="url(#clip240)" d="M 0 0 M1293.28 1477.97 L1298.17 1477.97 L1298.17 1483.85 L1293.28 1483.85 L1293.28 1477.97 Z" fill="#000000" fill-rule="evenodd" fill-opacity="1" /><path clip-path="url(#clip240)" d="M 0 0 M1308.4 1449.29 L1326.76 1449.29 L1326.76 1453.23 L1312.68 1453.23 L1312.68 1461.7 Q1313.7 1461.35 1314.72 1461.19 Q1315.74 1461 1316.76 1461 Q1322.54 1461 1325.92 1464.18 Q1329.3 1467.35 1329.3 1472.76 Q1329.3 1478.34 1325.83 1481.44 Q1322.36 1484.52 1316.04 1484.52 Q1313.86 1484.52 1311.59 1484.15 Q1309.35 1483.78 1306.94 1483.04 L1306.94 1478.34 Q1309.03 1479.48 1311.25 1480.03 Q1313.47 1480.59 1315.95 1480.59 Q1319.95 1480.59 1322.29 1478.48 Q1324.63 1476.38 1324.63 1472.76 Q1324.63 1469.15 1322.29 1467.05 Q1319.95 1464.94 1315.95 1464.94 Q1314.07 1464.94 1312.2 1465.36 Q1310.34 1465.77 1308.4 1466.65 L1308.4 1449.29 Z" fill="#000000" fill-rule="evenodd" fill-opacity="1" /><path clip-path="url(#clip240)" d="M 0 0 M1472.19 1452.37 Q1468.58 1452.37 1466.75 1455.94 Q1464.94 1459.48 1464.94 1466.61 Q1464.94 1473.71 1466.75 1477.28 Q1468.58 1480.82 1472.19 1480.82 Q1475.82 1480.82 1477.63 1477.28 Q1479.46 1473.71 1479.46 1466.61 Q1479.46 1459.48 1477.63 1455.94 Q1475.82 1452.37 1472.19 1452.37 M1472.19 1448.67 Q1478 1448.67 1481.05 1453.27 Q1484.13 1457.86 1484.13 1466.61 Q1484.13 1475.33 1481.05 1479.94 Q1478 1484.52 1472.19 1484.52 Q1466.38 1484.52 1463.3 1479.94 Q1460.24 1475.33 1460.24 1466.61 Q1460.24 1457.86 1463.3 1453.27 Q1466.38 1448.67 1472.19 1448.67 Z" fill="#000000" fill-rule="evenodd" fill-opacity="1" /><path clip-path="url(#clip240)" d="M 0 0 M1492.35 1477.97 L1497.23 1477.97 L1497.23 1483.85 L1492.35 1483.85 L1492.35 1477.97 Z" fill="#000000" fill-rule="evenodd" fill-opacity="1" /><path clip-path="url(#clip240)" d="M 0 0 M1518 1464.71 Q1514.85 1464.71 1513 1466.86 Q1511.17 1469.01 1511.17 1472.76 Q1511.17 1476.49 1513 1478.67 Q1514.85 1480.82 1518 1480.82 Q1521.15 1480.82 1522.98 1478.67 Q1524.83 1476.49 1524.83 1472.76 Q1524.83 1469.01 1522.98 1466.86 Q1521.15 1464.71 1518 1464.71 M1527.28 1450.06 L1527.28 1454.31 Q1525.52 1453.48 1523.72 1453.04 Q1521.93 1452.6 1520.17 1452.6 Q1515.54 1452.6 1513.09 1455.73 Q1510.66 1458.85 1510.31 1465.17 Q1511.68 1463.16 1513.74 1462.09 Q1515.8 1461 1518.28 1461 Q1523.48 1461 1526.49 1464.18 Q1529.53 1467.32 1529.53 1472.76 Q1529.53 1478.09 1526.38 1481.31 Q1523.23 1484.52 1518 1484.52 Q1512 1484.52 1508.83 1479.94 Q1505.66 1475.33 1505.66 1466.61 Q1505.66 1458.41 1509.55 1453.55 Q1513.44 1448.67 1519.99 1448.67 Q1521.75 1448.67 1523.53 1449.01 Q1525.34 1449.36 1527.28 1450.06 Z" fill="#000000" fill-rule="evenodd" fill-opacity="1" /><path clip-path="url(#clip240)" d="M 0 0 M1672.36 1452.37 Q1668.75 1452.37 1666.93 1455.94 Q1665.12 1459.48 1665.12 1466.61 Q1665.12 1473.71 1666.93 1477.28 Q1668.75 1480.82 1672.36 1480.82 Q1676 1480.82 1677.8 1477.28 Q1679.63 1473.71 1679.63 1466.61 Q1679.63 1459.48 1677.8 1455.94 Q1676 1452.37 1672.36 1452.37 M1672.36 1448.67 Q1678.18 1448.67 1681.23 1453.27 Q1684.31 1457.86 1684.31 1466.61 Q1684.31 1475.33 1681.23 1479.94 Q1678.18 1484.52 1672.36 1484.52 Q1666.55 1484.52 1663.48 1479.94 Q1660.42 1475.33 1660.42 1466.61 Q1660.42 1457.86 1663.48 1453.27 Q1666.55 1448.67 1672.36 1448.67 Z" fill="#000000" fill-rule="evenodd" fill-opacity="1" /><path clip-path="url(#clip240)" d="M 0 0 M1692.53 1477.97 L1697.41 1477.97 L1697.41 1483.85 L1692.53 1483.85 L1692.53 1477.97 Z" fill="#000000" fill-rule="evenodd" fill-opacity="1" /><path clip-path="url(#clip240)" d="M 0 0 M1706.42 1449.29 L1728.64 1449.29 L1728.64 1451.28 L1716.09 1483.85 L1711.21 1483.85 L1723.01 1453.23 L1706.42 1453.23 L1706.42 1449.29 Z" fill="#000000" fill-rule="evenodd" fill-opacity="1" /><path clip-path="url(#clip240)" d="M 0 0 M1871.6 1452.37 Q1867.99 1452.37 1866.16 1455.94 Q1864.36 1459.48 1864.36 1466.61 Q1864.36 1473.71 1866.16 1477.28 Q1867.99 1480.82 1871.6 1480.82 Q1875.24 1480.82 1877.04 1477.28 Q1878.87 1473.71 1878.87 1466.61 Q1878.87 1459.48 1877.04 1455.94 Q1875.24 1452.37 1871.6 1452.37 M1871.6 1448.67 Q1877.41 1448.67 1880.47 1453.27 Q1883.55 1457.86 1883.55 1466.61 Q1883.55 1475.33 1880.47 1479.94 Q1877.41 1484.52 1871.6 1484.52 Q1865.79 1484.52 1862.72 1479.94 Q1859.66 1475.33 1859.66 1466.61 Q1859.66 1457.86 1862.72 1453.27 Q1865.79 1448.67 1871.6 1448.67 Z" fill="#000000" fill-rule="evenodd" fill-opacity="1" /><path clip-path="url(#clip240)" d="M 0 0 M1891.77 1477.97 L1896.65 1477.97 L1896.65 1483.85 L1891.77 1483.85 L1891.77 1477.97 Z" fill="#000000" fill-rule="evenodd" fill-opacity="1" /><path clip-path="url(#clip240)" d="M 0 0 M1916.84 1467.44 Q1913.5 1467.44 1911.58 1469.22 Q1909.68 1471 1909.68 1474.13 Q1909.68 1477.25 1911.58 1479.04 Q1913.5 1480.82 1916.84 1480.82 Q1920.17 1480.82 1922.09 1479.04 Q1924.01 1477.23 1924.01 1474.13 Q1924.01 1471 1922.09 1469.22 Q1920.19 1467.44 1916.84 1467.44 M1912.16 1465.45 Q1909.15 1464.71 1907.46 1462.65 Q1905.79 1460.59 1905.79 1457.63 Q1905.79 1453.48 1908.73 1451.07 Q1911.7 1448.67 1916.84 1448.67 Q1922 1448.67 1924.94 1451.07 Q1927.88 1453.48 1927.88 1457.63 Q1927.88 1460.59 1926.19 1462.65 Q1924.52 1464.71 1921.53 1465.45 Q1924.91 1466.24 1926.79 1468.53 Q1928.69 1470.82 1928.69 1474.13 Q1928.69 1479.15 1925.61 1481.84 Q1922.55 1484.52 1916.84 1484.52 Q1911.12 1484.52 1908.04 1481.84 Q1904.98 1479.15 1904.98 1474.13 Q1904.98 1470.82 1906.88 1468.53 Q1908.78 1466.24 1912.16 1465.45 M1910.45 1458.06 Q1910.45 1460.75 1912.11 1462.25 Q1913.8 1463.76 1916.84 1463.76 Q1919.84 1463.76 1921.53 1462.25 Q1923.25 1460.75 1923.25 1458.06 Q1923.25 1455.38 1921.53 1453.88 Q1919.84 1452.37 1916.84 1452.37 Q1913.8 1452.37 1912.11 1453.88 Q1910.45 1455.38 1910.45 1458.06 Z" fill="#000000" fill-rule="evenodd" fill-opacity="1" /><path clip-path="url(#clip240)" d="M 0 0 M2071.29 1452.37 Q2067.68 1452.37 2065.85 1455.94 Q2064.05 1459.48 2064.05 1466.61 Q2064.05 1473.71 2065.85 1477.28 Q2067.68 1480.82 2071.29 1480.82 Q2074.93 1480.82 2076.73 1477.28 Q2078.56 1473.71 2078.56 1466.61 Q2078.56 1459.48 2076.73 1455.94 Q2074.93 1452.37 2071.29 1452.37 M2071.29 1448.67 Q2077.1 1448.67 2080.16 1453.27 Q2083.24 1457.86 2083.24 1466.61 Q2083.24 1475.33 2080.16 1479.94 Q2077.1 1484.52 2071.29 1484.52 Q2065.48 1484.52 2062.41 1479.94 Q2059.35 1475.33 2059.35 1466.61 Q2059.35 1457.86 2062.41 1453.27 Q2065.48 1448.67 2071.29 1448.67 Z" fill="#000000" fill-rule="evenodd" fill-opacity="1" /><path clip-path="url(#clip240)" d="M 0 0 M2091.46 1477.97 L2096.34 1477.97 L2096.34 1483.85 L2091.46 1483.85 L2091.46 1477.97 Z" fill="#000000" fill-rule="evenodd" fill-opacity="1" /><path clip-path="url(#clip240)" d="M 0 0 M2106.66 1483.13 L2106.66 1478.88 Q2108.42 1479.71 2110.23 1480.15 Q2112.03 1480.59 2113.77 1480.59 Q2118.4 1480.59 2120.83 1477.49 Q2123.28 1474.36 2123.63 1468.02 Q2122.29 1470.01 2120.23 1471.07 Q2118.17 1472.14 2115.67 1472.14 Q2110.48 1472.14 2107.45 1469.01 Q2104.44 1465.87 2104.44 1460.43 Q2104.44 1455.1 2107.59 1451.88 Q2110.74 1448.67 2115.97 1448.67 Q2121.97 1448.67 2125.11 1453.27 Q2128.28 1457.86 2128.28 1466.61 Q2128.28 1474.78 2124.4 1479.66 Q2120.53 1484.52 2113.98 1484.52 Q2112.22 1484.52 2110.41 1484.18 Q2108.61 1483.83 2106.66 1483.13 M2115.97 1468.48 Q2119.12 1468.48 2120.95 1466.33 Q2122.8 1464.18 2122.8 1460.43 Q2122.8 1456.7 2120.95 1454.55 Q2119.12 1452.37 2115.97 1452.37 Q2112.82 1452.37 2110.97 1454.55 Q2109.14 1456.7 2109.14 1460.43 Q2109.14 1464.18 2110.97 1466.33 Q2112.82 1468.48 2115.97 1468.48 Z" fill="#000000" fill-rule="evenodd" fill-opacity="1" /><path clip-path="url(#clip240)" d="M 0 0 M2260.61 1479.92 L2268.25 1479.92 L2268.25 1453.55 L2259.94 1455.22 L2259.94 1450.96 L2268.21 1449.29 L2272.88 1449.29 L2272.88 1479.92 L2280.52 1479.92 L2280.52 1483.85 L2260.61 1483.85 L2260.61 1479.92 Z" fill="#000000" fill-rule="evenodd" fill-opacity="1" /><path clip-path="url(#clip240)" d="M 0 0 M2289.97 1477.97 L2294.85 1477.97 L2294.85 1483.85 L2289.97 1483.85 L2289.97 1477.97 Z" fill="#000000" fill-rule="evenodd" fill-opacity="1" /><path clip-path="url(#clip240)" d="M 0 0 M2315.04 1452.37 Q2311.42 1452.37 2309.6 1455.94 Q2307.79 1459.48 2307.79 1466.61 Q2307.79 1473.71 2309.6 1477.28 Q2311.42 1480.82 2315.04 1480.82 Q2318.67 1480.82 2320.48 1477.28 Q2322.3 1473.71 2322.3 1466.61 Q2322.3 1459.48 2320.48 1455.94 Q2318.67 1452.37 2315.04 1452.37 M2315.04 1448.67 Q2320.85 1448.67 2323.9 1453.27 Q2326.98 1457.86 2326.98 1466.61 Q2326.98 1475.33 2323.9 1479.94 Q2320.85 1484.52 2315.04 1484.52 Q2309.23 1484.52 2306.15 1479.94 Q2303.09 1475.33 2303.09 1466.61 Q2303.09 1457.86 2306.15 1453.27 Q2309.23 1448.67 2315.04 1448.67 Z" fill="#000000" fill-rule="evenodd" fill-opacity="1" /><path clip-path="url(#clip240)" d="M 0 0 M1290.44 1568.04 L1290.44 1520.52 L1320.01 1520.52 L1320.01 1525.93 L1296.87 1525.93 L1296.87 1568.04 L1290.44 1568.04 Z" fill="#000000" fill-rule="evenodd" fill-opacity="1" /><polyline clip-path="url(#clip242)" style="stroke:#000000; stroke-width:2; stroke-opacity:0.1; fill:none" points="
  257.69,1207.69 2352.76,1207.69 
  "/>
<polyline clip-path="url(#clip242)" style="stroke:#000000; stroke-width:2; stroke-opacity:0.1; fill:none" points="
  257.69,866.206 2352.76,866.206 
  "/>
<polyline clip-path="url(#clip242)" style="stroke:#000000; stroke-width:2; stroke-opacity:0.1; fill:none" points="
  257.69,524.726 2352.76,524.726 
  "/>
<polyline clip-path="url(#clip242)" style="stroke:#000000; stroke-width:2; stroke-opacity:0.1; fill:none" points="
  257.69,183.247 2352.76,183.247 
  "/>
<polyline clip-path="url(#clip240)" style="stroke:#000000; stroke-width:4; stroke-opacity:1; fill:none" points="
  257.69,1423.18 257.69,123.472 
  "/>
<polyline clip-path="url(#clip240)" style="stroke:#000000; stroke-width:4; stroke-opacity:1; fill:none" points="
  257.69,1207.69 282.831,1207.69 
  "/>
<polyline clip-path="url(#clip240)" style="stroke:#000000; stroke-width:4; stroke-opacity:1; fill:none" points="
  257.69,866.206 282.831,866.206 
  "/>
<polyline clip-path="url(#clip240)" style="stroke:#000000; stroke-width:4; stroke-opacity:1; fill:none" points="
  257.69,524.726 282.831,524.726 
  "/>
<polyline clip-path="url(#clip240)" style="stroke:#000000; stroke-width:4; stroke-opacity:1; fill:none" points="
  257.69,183.247 282.831,183.247 
  "/>
<path clip-path="url(#clip240)" d="M 0 0 M115.649 1208.14 L145.325 1208.14 L145.325 1212.07 L115.649 1212.07 L115.649 1208.14 Z" fill="#000000" fill-rule="evenodd" fill-opacity="1" /><path clip-path="url(#clip240)" d="M 0 0 M165.417 1193.48 Q161.806 1193.48 159.978 1197.05 Q158.172 1200.59 158.172 1207.72 Q158.172 1214.83 159.978 1218.39 Q161.806 1221.93 165.417 1221.93 Q169.052 1221.93 170.857 1218.39 Q172.686 1214.83 172.686 1207.72 Q172.686 1200.59 170.857 1197.05 Q169.052 1193.48 165.417 1193.48 M165.417 1189.78 Q171.227 1189.78 174.283 1194.39 Q177.362 1198.97 177.362 1207.72 Q177.362 1216.45 174.283 1221.05 Q171.227 1225.64 165.417 1225.64 Q159.607 1225.64 156.528 1221.05 Q153.473 1216.45 153.473 1207.72 Q153.473 1198.97 156.528 1194.39 Q159.607 1189.78 165.417 1189.78 Z" fill="#000000" fill-rule="evenodd" fill-opacity="1" /><path clip-path="url(#clip240)" d="M 0 0 M185.579 1219.09 L190.463 1219.09 L190.463 1224.97 L185.579 1224.97 L185.579 1219.09 Z" fill="#000000" fill-rule="evenodd" fill-opacity="1" /><path clip-path="url(#clip240)" d="M 0 0 M199.468 1190.41 L221.69 1190.41 L221.69 1192.4 L209.144 1224.97 L204.26 1224.97 L216.065 1194.34 L199.468 1194.34 L199.468 1190.41 Z" fill="#000000" fill-rule="evenodd" fill-opacity="1" /><path clip-path="url(#clip240)" d="M 0 0 M114.584 866.657 L144.26 866.657 L144.26 870.592 L114.584 870.592 L114.584 866.657 Z" fill="#000000" fill-rule="evenodd" fill-opacity="1" /><path clip-path="url(#clip240)" d="M 0 0 M164.352 852.004 Q160.741 852.004 158.913 855.569 Q157.107 859.111 157.107 866.24 Q157.107 873.347 158.913 876.912 Q160.741 880.453 164.352 880.453 Q167.987 880.453 169.792 876.912 Q171.621 873.347 171.621 866.24 Q171.621 859.111 169.792 855.569 Q167.987 852.004 164.352 852.004 M164.352 848.301 Q170.163 848.301 173.218 852.907 Q176.297 857.49 176.297 866.24 Q176.297 874.967 173.218 879.574 Q170.163 884.157 164.352 884.157 Q158.542 884.157 155.464 879.574 Q152.408 874.967 152.408 866.24 Q152.408 857.49 155.464 852.907 Q158.542 848.301 164.352 848.301 Z" fill="#000000" fill-rule="evenodd" fill-opacity="1" /><path clip-path="url(#clip240)" d="M 0 0 M184.514 877.606 L189.399 877.606 L189.399 883.486 L184.514 883.486 L184.514 877.606 Z" fill="#000000" fill-rule="evenodd" fill-opacity="1" /><path clip-path="url(#clip240)" d="M 0 0 M210.162 864.342 Q207.014 864.342 205.162 866.495 Q203.334 868.648 203.334 872.398 Q203.334 876.125 205.162 878.301 Q207.014 880.453 210.162 880.453 Q213.311 880.453 215.139 878.301 Q216.991 876.125 216.991 872.398 Q216.991 868.648 215.139 866.495 Q213.311 864.342 210.162 864.342 M219.445 849.69 L219.445 853.949 Q217.686 853.116 215.88 852.676 Q214.098 852.236 212.338 852.236 Q207.709 852.236 205.255 855.361 Q202.824 858.486 202.477 864.805 Q203.843 862.791 205.903 861.727 Q207.963 860.639 210.44 860.639 Q215.649 860.639 218.658 863.81 Q221.69 866.958 221.69 872.398 Q221.69 877.722 218.542 880.939 Q215.394 884.157 210.162 884.157 Q204.167 884.157 200.996 879.574 Q197.825 874.967 197.825 866.24 Q197.825 858.046 201.713 853.185 Q205.602 848.301 212.153 848.301 Q213.912 848.301 215.695 848.648 Q217.5 848.995 219.445 849.69 Z" fill="#000000" fill-rule="evenodd" fill-opacity="1" /><path clip-path="url(#clip240)" d="M 0 0 M115.742 525.178 L145.417 525.178 L145.417 529.113 L115.742 529.113 L115.742 525.178 Z" fill="#000000" fill-rule="evenodd" fill-opacity="1" /><path clip-path="url(#clip240)" d="M 0 0 M165.51 510.525 Q161.899 510.525 160.07 514.09 Q158.265 517.631 158.265 524.761 Q158.265 531.867 160.07 535.432 Q161.899 538.974 165.51 538.974 Q169.144 538.974 170.95 535.432 Q172.778 531.867 172.778 524.761 Q172.778 517.631 170.95 514.09 Q169.144 510.525 165.51 510.525 M165.51 506.821 Q171.32 506.821 174.376 511.428 Q177.454 516.011 177.454 524.761 Q177.454 533.488 174.376 538.094 Q171.32 542.678 165.51 542.678 Q159.7 542.678 156.621 538.094 Q153.566 533.488 153.566 524.761 Q153.566 516.011 156.621 511.428 Q159.7 506.821 165.51 506.821 Z" fill="#000000" fill-rule="evenodd" fill-opacity="1" /><path clip-path="url(#clip240)" d="M 0 0 M185.672 536.127 L190.556 536.127 L190.556 542.006 L185.672 542.006 L185.672 536.127 Z" fill="#000000" fill-rule="evenodd" fill-opacity="1" /><path clip-path="url(#clip240)" d="M 0 0 M200.787 507.446 L219.144 507.446 L219.144 511.381 L205.07 511.381 L205.07 519.854 Q206.088 519.506 207.107 519.344 Q208.125 519.159 209.144 519.159 Q214.931 519.159 218.311 522.33 Q221.69 525.502 221.69 530.918 Q221.69 536.497 218.218 539.599 Q214.746 542.678 208.426 542.678 Q206.25 542.678 203.982 542.307 Q201.737 541.937 199.329 541.196 L199.329 536.497 Q201.412 537.631 203.635 538.187 Q205.857 538.742 208.334 538.742 Q212.338 538.742 214.676 536.636 Q217.014 534.529 217.014 530.918 Q217.014 527.307 214.676 525.201 Q212.338 523.094 208.334 523.094 Q206.459 523.094 204.584 523.511 Q202.732 523.928 200.787 524.807 L200.787 507.446 Z" fill="#000000" fill-rule="evenodd" fill-opacity="1" /><path clip-path="url(#clip240)" d="M 0 0 M114.26 183.698 L143.936 183.698 L143.936 187.633 L114.26 187.633 L114.26 183.698 Z" fill="#000000" fill-rule="evenodd" fill-opacity="1" /><path clip-path="url(#clip240)" d="M 0 0 M164.028 169.046 Q160.417 169.046 158.589 172.61 Q156.783 176.152 156.783 183.282 Q156.783 190.388 158.589 193.953 Q160.417 197.495 164.028 197.495 Q167.663 197.495 169.468 193.953 Q171.297 190.388 171.297 183.282 Q171.297 176.152 169.468 172.61 Q167.663 169.046 164.028 169.046 M164.028 165.342 Q169.839 165.342 172.894 169.948 Q175.973 174.532 175.973 183.282 Q175.973 192.008 172.894 196.615 Q169.839 201.198 164.028 201.198 Q158.218 201.198 155.14 196.615 Q152.084 192.008 152.084 183.282 Q152.084 174.532 155.14 169.948 Q158.218 165.342 164.028 165.342 Z" fill="#000000" fill-rule="evenodd" fill-opacity="1" /><path clip-path="url(#clip240)" d="M 0 0 M184.19 194.647 L189.075 194.647 L189.075 200.527 L184.19 200.527 L184.19 194.647 Z" fill="#000000" fill-rule="evenodd" fill-opacity="1" /><path clip-path="url(#clip240)" d="M 0 0 M212.107 170.041 L200.301 188.49 L212.107 188.49 L212.107 170.041 M210.88 165.967 L216.76 165.967 L216.76 188.49 L221.69 188.49 L221.69 192.379 L216.76 192.379 L216.76 200.527 L212.107 200.527 L212.107 192.379 L196.505 192.379 L196.505 187.865 L210.88 165.967 Z" fill="#000000" fill-rule="evenodd" fill-opacity="1" /><path clip-path="url(#clip240)" d="M 0 0 M16.4842 788.636 L16.4842 758.589 L21.895 758.589 L21.895 782.206 L35.9632 782.206 L35.9632 759.576 L41.3741 759.576 L41.3741 782.206 L58.5933 782.206 L58.5933 758.016 L64.0042 758.016 L64.0042 788.636 L16.4842 788.636 Z" fill="#000000" fill-rule="evenodd" fill-opacity="1" /><path clip-path="url(#clip240)" d="M 0 0 M1165.81 48.0275 L1165.81 51.6733 L1131.54 51.6733 Q1132.03 59.3701 1136.16 63.421 Q1140.33 67.4314 1147.74 67.4314 Q1152.04 67.4314 1156.05 66.3781 Q1160.1 65.3249 1164.07 63.2184 L1164.07 70.267 Q1160.06 71.9684 1155.85 72.8596 Q1151.63 73.7508 1147.3 73.7508 Q1136.44 73.7508 1130.08 67.4314 Q1123.76 61.1119 1123.76 50.3365 Q1123.76 39.1965 1129.76 32.6746 Q1135.79 26.1121 1146 26.1121 Q1155.16 26.1121 1160.46 32.0264 Q1165.81 37.9003 1165.81 48.0275 M1158.36 45.84 Q1158.28 39.7232 1154.91 36.0774 Q1151.59 32.4315 1146.08 32.4315 Q1139.84 32.4315 1136.08 35.9558 Q1132.35 39.4801 1131.78 45.8805 L1158.36 45.84 Z" fill="#000000" fill-rule="evenodd" fill-opacity="1" /><path clip-path="url(#clip240)" d="M 0 0 M1215.76 45.1919 L1215.76 72.576 L1208.31 72.576 L1208.31 45.4349 Q1208.31 38.994 1205.79 35.7938 Q1203.28 32.5936 1198.26 32.5936 Q1192.22 32.5936 1188.74 36.4419 Q1185.26 40.2903 1185.26 46.9338 L1185.26 72.576 L1177.76 72.576 L1177.76 27.2059 L1185.26 27.2059 L1185.26 34.2544 Q1187.93 30.163 1191.53 28.1376 Q1195.18 26.1121 1199.92 26.1121 Q1207.74 26.1121 1211.75 30.9732 Q1215.76 35.7938 1215.76 45.1919 Z" fill="#000000" fill-rule="evenodd" fill-opacity="1" /><path clip-path="url(#clip240)" d="M 0 0 M1269.43 48.0275 L1269.43 51.6733 L1235.16 51.6733 Q1235.65 59.3701 1239.78 63.421 Q1243.95 67.4314 1251.37 67.4314 Q1255.66 67.4314 1259.67 66.3781 Q1263.72 65.3249 1267.69 63.2184 L1267.69 70.267 Q1263.68 71.9684 1259.47 72.8596 Q1255.26 73.7508 1250.92 73.7508 Q1240.06 73.7508 1233.7 67.4314 Q1227.38 61.1119 1227.38 50.3365 Q1227.38 39.1965 1233.38 32.6746 Q1239.42 26.1121 1249.62 26.1121 Q1258.78 26.1121 1264.09 32.0264 Q1269.43 37.9003 1269.43 48.0275 M1261.98 45.84 Q1261.9 39.7232 1258.54 36.0774 Q1255.21 32.4315 1249.71 32.4315 Q1243.47 32.4315 1239.7 35.9558 Q1235.97 39.4801 1235.41 45.8805 L1261.98 45.84 Z" fill="#000000" fill-rule="evenodd" fill-opacity="1" /><path clip-path="url(#clip240)" d="M 0 0 M1307.96 34.1734 Q1306.7 33.4443 1305.2 33.1202 Q1303.74 32.7556 1301.96 32.7556 Q1295.64 32.7556 1292.24 36.8875 Q1288.88 40.9789 1288.88 48.6757 L1288.88 72.576 L1281.38 72.576 L1281.38 27.2059 L1288.88 27.2059 L1288.88 34.2544 Q1291.23 30.1225 1294.99 28.1376 Q1298.76 26.1121 1304.15 26.1121 Q1304.92 26.1121 1305.85 26.2337 Q1306.78 26.3147 1307.92 26.5172 L1307.96 34.1734 Z" fill="#000000" fill-rule="evenodd" fill-opacity="1" /><path clip-path="url(#clip240)" d="M 0 0 M1344.17 49.3643 Q1344.17 41.2625 1340.81 36.8065 Q1337.49 32.3505 1331.45 32.3505 Q1325.46 32.3505 1322.1 36.8065 Q1318.77 41.2625 1318.77 49.3643 Q1318.77 57.4256 1322.1 61.8816 Q1325.46 66.3376 1331.45 66.3376 Q1337.49 66.3376 1340.81 61.8816 Q1344.17 57.4256 1344.17 49.3643 M1351.63 66.9452 Q1351.63 78.5308 1346.48 84.1616 Q1341.34 89.8329 1330.72 89.8329 Q1326.79 89.8329 1323.31 89.2252 Q1319.83 88.6581 1316.55 87.4428 L1316.55 80.1917 Q1319.83 81.9741 1323.03 82.8248 Q1326.23 83.6755 1329.55 83.6755 Q1336.88 83.6755 1340.53 79.8271 Q1344.17 76.0193 1344.17 68.282 L1344.17 64.5957 Q1341.86 68.6061 1338.26 70.5911 Q1334.65 72.576 1329.63 72.576 Q1321.28 72.576 1316.18 66.2161 Q1311.08 59.8562 1311.08 49.3643 Q1311.08 38.832 1316.18 32.472 Q1321.28 26.1121 1329.63 26.1121 Q1334.65 26.1121 1338.26 28.0971 Q1341.86 30.082 1344.17 34.0924 L1344.17 27.2059 L1351.63 27.2059 L1351.63 66.9452 Z" fill="#000000" fill-rule="evenodd" fill-opacity="1" /><path clip-path="url(#clip240)" d="M 0 0 M1385.86 76.7889 Q1382.7 84.8907 1379.7 87.3618 Q1376.7 89.8329 1371.68 89.8329 L1365.72 89.8329 L1365.72 83.5945 L1370.1 83.5945 Q1373.18 83.5945 1374.88 82.1361 Q1376.58 80.6778 1378.65 75.2496 L1379.98 71.8468 L1361.63 27.2059 L1369.53 27.2059 L1383.71 62.6918 L1397.89 27.2059 L1405.79 27.2059 L1385.86 76.7889 Z" fill="#000000" fill-rule="evenodd" fill-opacity="1" /><path clip-path="url(#clip240)" d="M 0 0 M1410.85 46.5287 L1432.68 46.5287 L1432.68 53.1722 L1410.85 53.1722 L1410.85 46.5287 Z" fill="#000000" fill-rule="evenodd" fill-opacity="1" /><path clip-path="url(#clip240)" d="M 0 0 M1467.68 9.54393 L1467.68 26.2742 Q1475.75 26.2742 1481.13 32.472 Q1486.68 38.7915 1486.68 49.9314 Q1486.68 61.0714 1481.13 67.3908 Q1475.75 73.5887 1467.68 73.5887 L1467.68 89.8329 L1460.27 89.8329 L1460.27 73.5887 Q1452.21 73.5887 1446.78 67.3908 Q1441.27 61.0714 1441.27 49.9314 Q1441.27 38.7915 1446.78 32.472 Q1452.21 26.2742 1460.27 26.2742 L1460.27 9.54393 L1467.68 9.54393 M1467.68 66.9452 Q1472.26 66.9452 1475.38 62.7728 Q1478.78 58.1143 1478.82 49.9314 Q1478.87 41.8296 1475.38 37.0901 Q1472.26 32.9176 1467.68 32.9176 L1467.68 66.9452 M1460.27 66.9452 L1460.27 32.9176 Q1455.69 32.9176 1452.62 37.0901 Q1449.09 41.8296 1449.13 49.9314 Q1449.17 58.1143 1452.62 62.7728 Q1455.69 66.9452 1460.27 66.9452 Z" fill="#000000" fill-rule="evenodd" fill-opacity="1" /><polyline clip-path="url(#clip242)" style="stroke:#009af9; stroke-width:8; stroke-opacity:1; fill:none" points="
  316.984,168.471 336.949,205.012 356.913,247.18 376.878,294.225 396.842,343.247 416.807,395.599 436.771,448.794 456.735,500.56 396.842,343.247 496.664,604.16 
  596.486,848.295 696.308,1054.42 796.13,1219.11 895.953,1328.51 995.775,1385.71 1095.6,1386.4 1195.42,1331.68 1295.24,1223.41 1395.06,1066.78 1494.88,838.403 
  1594.71,778.366 1694.53,711.153 1794.35,628.297 1894.17,523.503 1994,404.25 2093.82,282.465 2193.64,176.617 2293.46,160.256 
  "/>
<path clip-path="url(#clip240)" d="
M1920.92 1379.86 L2282.92 1379.86 L2282.92 1258.9 L1920.92 1258.9  Z
  " fill="#ffffff" fill-rule="evenodd" fill-opacity="1"/>
<polyline clip-path="url(#clip240)" style="stroke:#000000; stroke-width:4; stroke-opacity:1; fill:none" points="
  1920.92,1379.86 2282.92,1379.86 2282.92,1258.9 1920.92,1258.9 1920.92,1379.86 
  "/>
<polyline clip-path="url(#clip240)" style="stroke:#009af9; stroke-width:4; stroke-opacity:1; fill:none" points="
  1944.2,1319.38 2083.87,1319.38 
  "/>
<path clip-path="url(#clip240)" d="M 0 0 M2111.83 1305.94 L2111.83 1332.81 L2117.48 1332.81 Q2124.63 1332.81 2127.94 1329.57 Q2131.27 1326.33 2131.27 1319.34 Q2131.27 1312.4 2127.94 1309.18 Q2124.63 1305.94 2117.48 1305.94 L2111.83 1305.94 M2107.15 1302.1 L2116.76 1302.1 Q2126.8 1302.1 2131.5 1306.29 Q2136.2 1310.45 2136.2 1319.34 Q2136.2 1328.28 2131.48 1332.47 Q2126.76 1336.66 2116.76 1336.66 L2107.15 1336.66 L2107.15 1302.1 Z" fill="#000000" fill-rule="evenodd" fill-opacity="1" /><path clip-path="url(#clip240)" d="M 0 0 M2159.1 1315.13 L2188.77 1315.13 L2188.77 1319.02 L2159.1 1319.02 L2159.1 1315.13 M2159.1 1324.57 L2188.77 1324.57 L2188.77 1328.51 L2159.1 1328.51 L2159.1 1324.57 Z" fill="#000000" fill-rule="evenodd" fill-opacity="1" /><path clip-path="url(#clip240)" d="M 0 0 M2226.78 1306.17 L2214.97 1324.62 L2226.78 1324.62 L2226.78 1306.17 M2225.55 1302.1 L2231.43 1302.1 L2231.43 1324.62 L2236.36 1324.62 L2236.36 1328.51 L2231.43 1328.51 L2231.43 1336.66 L2226.78 1336.66 L2226.78 1328.51 L2211.18 1328.51 L2211.18 1323.99 L2225.55 1302.1 Z" fill="#000000" fill-rule="evenodd" fill-opacity="1" /></svg>
