<?xml version="1.0" encoding="utf-8"?>
<svg xmlns="http://www.w3.org/2000/svg" xmlns:xlink="http://www.w3.org/1999/xlink" width="600" height="400" viewBox="0 0 2400 1600">
<defs>
  <clipPath id="clip590">
    <rect x="0" y="0" width="2400" height="1600"/>
  </clipPath>
</defs>
<path clip-path="url(#clip590)" d="
M0 1600 L2400 1600 L2400 0 L0 0  Z
  " fill="#ffffff" fill-rule="evenodd" fill-opacity="1"/>
<defs>
  <clipPath id="clip591">
    <rect x="480" y="0" width="1681" height="1600"/>
  </clipPath>
</defs>
<path clip-path="url(#clip590)" d="
M257.69 1423.18 L2352.76 1423.18 L2352.76 123.472 L257.69 123.472  Z
  " fill="#ffffff" fill-rule="evenodd" fill-opacity="1"/>
<defs>
  <clipPath id="clip592">
    <rect x="257" y="123" width="2096" height="1301"/>
  </clipPath>
</defs>
<polyline clip-path="url(#clip592)" style="stroke:#000000; stroke-width:2; stroke-opacity:0.1; fill:none" points="
  316.984,1423.18 316.984,123.472 
  "/>
<polyline clip-path="url(#clip592)" style="stroke:#000000; stroke-width:2; stroke-opacity:0.1; fill:none" points="
  873.739,1423.18 873.739,123.472 
  "/>
<polyline clip-path="url(#clip592)" style="stroke:#000000; stroke-width:2; stroke-opacity:0.1; fill:none" points="
  1430.49,1423.18 1430.49,123.472 
  "/>
<polyline clip-path="url(#clip592)" style="stroke:#000000; stroke-width:2; stroke-opacity:0.1; fill:none" points="
  1987.25,1423.18 1987.25,123.472 
  "/>
<polyline clip-path="url(#clip590)" style="stroke:#000000; stroke-width:4; stroke-opacity:1; fill:none" points="
  257.69,1423.18 2352.76,1423.18 
  "/>
<polyline clip-path="url(#clip590)" style="stroke:#000000; stroke-width:4; stroke-opacity:1; fill:none" points="
  316.984,1423.18 316.984,1407.58 
  "/>
<polyline clip-path="url(#clip590)" style="stroke:#000000; stroke-width:4; stroke-opacity:1; fill:none" points="
  873.739,1423.18 873.739,1407.58 
  "/>
<polyline clip-path="url(#clip590)" style="stroke:#000000; stroke-width:4; stroke-opacity:1; fill:none" points="
  1430.49,1423.18 1430.49,1407.58 
  "/>
<polyline clip-path="url(#clip590)" style="stroke:#000000; stroke-width:4; stroke-opacity:1; fill:none" points="
  1987.25,1423.18 1987.25,1407.58 
  "/>
<path clip-path="url(#clip590)" d="M 0 0 M316.984 1452.37 Q313.373 1452.37 311.545 1455.94 Q309.739 1459.48 309.739 1466.61 Q309.739 1473.71 311.545 1477.28 Q313.373 1480.82 316.984 1480.82 Q320.619 1480.82 322.424 1477.28 Q324.253 1473.71 324.253 1466.61 Q324.253 1459.48 322.424 1455.94 Q320.619 1452.37 316.984 1452.37 M316.984 1448.67 Q322.795 1448.67 325.85 1453.27 Q328.929 1457.86 328.929 1466.61 Q328.929 1475.33 325.85 1479.94 Q322.795 1484.52 316.984 1484.52 Q311.174 1484.52 308.096 1479.94 Q305.04 1475.33 305.04 1466.61 Q305.04 1457.86 308.096 1453.27 Q311.174 1448.67 316.984 1448.67 Z" fill="#000000" fill-rule="evenodd" fill-opacity="1" /><path clip-path="url(#clip590)" d="M 0 0 M833.345 1479.92 L840.984 1479.92 L840.984 1453.55 L832.674 1455.22 L832.674 1450.96 L840.938 1449.29 L845.614 1449.29 L845.614 1479.92 L853.253 1479.92 L853.253 1483.85 L833.345 1483.85 L833.345 1479.92 Z" fill="#000000" fill-rule="evenodd" fill-opacity="1" /><path clip-path="url(#clip590)" d="M 0 0 M872.697 1452.37 Q869.086 1452.37 867.257 1455.94 Q865.452 1459.48 865.452 1466.61 Q865.452 1473.71 867.257 1477.28 Q869.086 1480.82 872.697 1480.82 Q876.331 1480.82 878.137 1477.28 Q879.965 1473.71 879.965 1466.61 Q879.965 1459.48 878.137 1455.94 Q876.331 1452.37 872.697 1452.37 M872.697 1448.67 Q878.507 1448.67 881.563 1453.27 Q884.641 1457.86 884.641 1466.61 Q884.641 1475.33 881.563 1479.94 Q878.507 1484.52 872.697 1484.52 Q866.887 1484.52 863.808 1479.94 Q860.753 1475.33 860.753 1466.61 Q860.753 1457.86 863.808 1453.27 Q866.887 1448.67 872.697 1448.67 Z" fill="#000000" fill-rule="evenodd" fill-opacity="1" /><path clip-path="url(#clip590)" d="M 0 0 M902.859 1452.37 Q899.248 1452.37 897.419 1455.94 Q895.613 1459.48 895.613 1466.61 Q895.613 1473.71 897.419 1477.28 Q899.248 1480.82 902.859 1480.82 Q906.493 1480.82 908.299 1477.28 Q910.127 1473.71 910.127 1466.61 Q910.127 1459.48 908.299 1455.94 Q906.493 1452.37 902.859 1452.37 M902.859 1448.67 Q908.669 1448.67 911.724 1453.27 Q914.803 1457.86 914.803 1466.61 Q914.803 1475.33 911.724 1479.94 Q908.669 1484.52 902.859 1484.52 Q897.049 1484.52 893.97 1479.94 Q890.914 1475.33 890.914 1466.61 Q890.914 1457.86 893.97 1453.27 Q897.049 1448.67 902.859 1448.67 Z" fill="#000000" fill-rule="evenodd" fill-opacity="1" /><path clip-path="url(#clip590)" d="M 0 0 M1394.19 1479.92 L1410.5 1479.92 L1410.5 1483.85 L1388.56 1483.85 L1388.56 1479.92 Q1391.22 1477.16 1395.81 1472.53 Q1400.41 1467.88 1401.59 1466.54 Q1403.84 1464.01 1404.72 1462.28 Q1405.62 1460.52 1405.62 1458.83 Q1405.62 1456.07 1403.68 1454.34 Q1401.75 1452.6 1398.65 1452.6 Q1396.45 1452.6 1394 1453.37 Q1391.57 1454.13 1388.79 1455.68 L1388.79 1450.96 Q1391.62 1449.82 1394.07 1449.25 Q1396.52 1448.67 1398.56 1448.67 Q1403.93 1448.67 1407.12 1451.35 Q1410.32 1454.04 1410.32 1458.53 Q1410.32 1460.66 1409.51 1462.58 Q1408.72 1464.48 1406.62 1467.07 Q1406.04 1467.74 1402.93 1470.96 Q1399.83 1474.15 1394.19 1479.92 Z" fill="#000000" fill-rule="evenodd" fill-opacity="1" /><path clip-path="url(#clip590)" d="M 0 0 M1430.32 1452.37 Q1426.71 1452.37 1424.88 1455.94 Q1423.07 1459.48 1423.07 1466.61 Q1423.07 1473.71 1424.88 1477.28 Q1426.71 1480.82 1430.32 1480.82 Q1433.95 1480.82 1435.76 1477.28 Q1437.59 1473.71 1437.59 1466.61 Q1437.59 1459.48 1435.76 1455.94 Q1433.95 1452.37 1430.32 1452.37 M1430.32 1448.67 Q1436.13 1448.67 1439.18 1453.27 Q1442.26 1457.86 1442.26 1466.61 Q1442.26 1475.33 1439.18 1479.94 Q1436.13 1484.52 1430.32 1484.52 Q1424.51 1484.52 1421.43 1479.94 Q1418.37 1475.33 1418.37 1466.61 Q1418.37 1457.86 1421.43 1453.27 Q1424.51 1448.67 1430.32 1448.67 Z" fill="#000000" fill-rule="evenodd" fill-opacity="1" /><path clip-path="url(#clip590)" d="M 0 0 M1460.48 1452.37 Q1456.87 1452.37 1455.04 1455.94 Q1453.24 1459.48 1453.24 1466.61 Q1453.24 1473.71 1455.04 1477.28 Q1456.87 1480.82 1460.48 1480.82 Q1464.12 1480.82 1465.92 1477.28 Q1467.75 1473.71 1467.75 1466.61 Q1467.75 1459.48 1465.92 1455.94 Q1464.12 1452.37 1460.48 1452.37 M1460.48 1448.67 Q1466.29 1448.67 1469.35 1453.27 Q1472.43 1457.86 1472.43 1466.61 Q1472.43 1475.33 1469.35 1479.94 Q1466.29 1484.52 1460.48 1484.52 Q1454.67 1484.52 1451.59 1479.94 Q1448.54 1475.33 1448.54 1466.61 Q1448.54 1457.86 1451.59 1453.27 Q1454.67 1448.67 1460.48 1448.67 Z" fill="#000000" fill-rule="evenodd" fill-opacity="1" /><path clip-path="url(#clip590)" d="M 0 0 M1961.01 1465.22 Q1964.37 1465.94 1966.24 1468.2 Q1968.14 1470.47 1968.14 1473.81 Q1968.14 1478.92 1964.62 1481.72 Q1961.1 1484.52 1954.62 1484.52 Q1952.44 1484.52 1950.13 1484.08 Q1947.84 1483.67 1945.38 1482.81 L1945.38 1478.3 Q1947.33 1479.43 1949.64 1480.01 Q1951.96 1480.59 1954.48 1480.59 Q1958.88 1480.59 1961.17 1478.85 Q1963.49 1477.12 1963.49 1473.81 Q1963.49 1470.75 1961.33 1469.04 Q1959.2 1467.3 1955.38 1467.3 L1951.36 1467.3 L1951.36 1463.46 L1955.57 1463.46 Q1959.02 1463.46 1960.85 1462.09 Q1962.68 1460.7 1962.68 1458.11 Q1962.68 1455.45 1960.78 1454.04 Q1958.9 1452.6 1955.38 1452.6 Q1953.46 1452.6 1951.26 1453.02 Q1949.06 1453.44 1946.43 1454.31 L1946.43 1450.15 Q1949.09 1449.41 1951.4 1449.04 Q1953.74 1448.67 1955.8 1448.67 Q1961.12 1448.67 1964.23 1451.1 Q1967.33 1453.5 1967.33 1457.63 Q1967.33 1460.5 1965.68 1462.49 Q1964.04 1464.45 1961.01 1465.22 Z" fill="#000000" fill-rule="evenodd" fill-opacity="1" /><path clip-path="url(#clip590)" d="M 0 0 M1987 1452.37 Q1983.39 1452.37 1981.56 1455.94 Q1979.76 1459.48 1979.76 1466.61 Q1979.76 1473.71 1981.56 1477.28 Q1983.39 1480.82 1987 1480.82 Q1990.64 1480.82 1992.44 1477.28 Q1994.27 1473.71 1994.27 1466.61 Q1994.27 1459.48 1992.44 1455.94 Q1990.64 1452.37 1987 1452.37 M1987 1448.67 Q1992.81 1448.67 1995.87 1453.27 Q1998.95 1457.86 1998.95 1466.61 Q1998.95 1475.33 1995.87 1479.94 Q1992.81 1484.52 1987 1484.52 Q1981.19 1484.52 1978.11 1479.94 Q1975.06 1475.33 1975.06 1466.61 Q1975.06 1457.86 1978.11 1453.27 Q1981.19 1448.67 1987 1448.67 Z" fill="#000000" fill-rule="evenodd" fill-opacity="1" /><path clip-path="url(#clip590)" d="M 0 0 M2017.17 1452.37 Q2013.55 1452.37 2011.73 1455.94 Q2009.92 1459.48 2009.92 1466.61 Q2009.92 1473.71 2011.73 1477.28 Q2013.55 1480.82 2017.17 1480.82 Q2020.8 1480.82 2022.61 1477.28 Q2024.43 1473.71 2024.43 1466.61 Q2024.43 1459.48 2022.61 1455.94 Q2020.8 1452.37 2017.17 1452.37 M2017.17 1448.67 Q2022.98 1448.67 2026.03 1453.27 Q2029.11 1457.86 2029.11 1466.61 Q2029.11 1475.33 2026.03 1479.94 Q2022.98 1484.52 2017.17 1484.52 Q2011.36 1484.52 2008.28 1479.94 Q2005.22 1475.33 2005.22 1466.61 Q2005.22 1457.86 2008.28 1453.27 Q2011.36 1448.67 2017.17 1448.67 Z" fill="#000000" fill-rule="evenodd" fill-opacity="1" /><path clip-path="url(#clip590)" d="M 0 0 M1183.42 1518.52 L1183.42 1531.66 Q1189.75 1531.66 1193.98 1536.53 Q1198.34 1541.5 1198.34 1550.25 Q1198.34 1559 1193.98 1563.97 Q1189.75 1568.84 1183.42 1568.84 L1183.42 1581.6 L1177.59 1581.6 L1177.59 1568.84 Q1171.26 1568.84 1166.99 1563.97 Q1162.66 1559 1162.66 1550.25 Q1162.66 1541.5 1166.99 1536.53 Q1171.26 1531.66 1177.59 1531.66 L1177.59 1518.52 L1183.42 1518.52 M1183.42 1563.62 Q1187.01 1563.62 1189.46 1560.34 Q1192.14 1556.68 1192.17 1550.25 Q1192.2 1543.89 1189.46 1540.16 Q1187.01 1536.88 1183.42 1536.88 L1183.42 1563.62 M1177.59 1563.62 L1177.59 1536.88 Q1173.99 1536.88 1171.58 1540.16 Q1168.81 1543.89 1168.84 1550.25 Q1168.87 1556.68 1171.58 1560.34 Q1173.99 1563.62 1177.59 1563.62 Z" fill="#000000" fill-rule="evenodd" fill-opacity="1" /><path clip-path="url(#clip590)" d="M 0 0 M1252.42 1537.81 L1252.42 1518.52 L1258.28 1518.52 L1258.28 1568.04 L1252.42 1568.04 L1252.42 1562.7 Q1250.57 1565.88 1247.74 1567.44 Q1244.94 1568.97 1240.99 1568.97 Q1234.53 1568.97 1230.46 1563.81 Q1226.42 1558.65 1226.42 1550.25 Q1226.42 1541.85 1230.46 1536.69 Q1234.53 1531.54 1240.99 1531.54 Q1244.94 1531.54 1247.74 1533.1 Q1250.57 1534.62 1252.42 1537.81 M1232.46 1550.25 Q1232.46 1556.71 1235.1 1560.4 Q1237.78 1564.07 1242.43 1564.07 Q1247.07 1564.07 1249.75 1560.4 Q1252.42 1556.71 1252.42 1550.25 Q1252.42 1543.79 1249.75 1540.13 Q1247.07 1536.44 1242.43 1536.44 Q1237.78 1536.44 1235.1 1540.13 Q1232.46 1543.79 1232.46 1550.25 Z" fill="#000000" fill-rule="evenodd" fill-opacity="1" /><path clip-path="url(#clip590)" d="M 0 0 M1300.83 1548.76 L1300.83 1551.62 L1273.9 1551.62 Q1274.29 1557.67 1277.53 1560.85 Q1280.81 1564 1286.64 1564 Q1290.01 1564 1293.16 1563.17 Q1296.34 1562.35 1299.46 1560.69 L1299.46 1566.23 Q1296.31 1567.57 1293 1568.27 Q1289.69 1568.97 1286.29 1568.97 Q1277.75 1568.97 1272.76 1564 Q1267.79 1559.04 1267.79 1550.57 Q1267.79 1541.82 1272.5 1536.69 Q1277.25 1531.54 1285.27 1531.54 Q1292.46 1531.54 1296.63 1536.18 Q1300.83 1540.8 1300.83 1548.76 M1294.97 1547.04 Q1294.91 1542.23 1292.27 1539.37 Q1289.66 1536.5 1285.33 1536.5 Q1280.43 1536.5 1277.47 1539.27 Q1274.54 1542.04 1274.09 1547.07 L1294.97 1547.04 Z" fill="#000000" fill-rule="evenodd" fill-opacity="1" /><path clip-path="url(#clip590)" d="M 0 0 M1333.9 1549.81 Q1333.9 1543.44 1331.26 1539.94 Q1328.65 1536.44 1323.91 1536.44 Q1319.2 1536.44 1316.55 1539.94 Q1313.94 1543.44 1313.94 1549.81 Q1313.94 1556.14 1316.55 1559.64 Q1319.2 1563.14 1323.91 1563.14 Q1328.65 1563.14 1331.26 1559.64 Q1333.9 1556.14 1333.9 1549.81 M1339.76 1563.62 Q1339.76 1572.72 1335.71 1577.15 Q1331.67 1581.6 1323.33 1581.6 Q1320.25 1581.6 1317.51 1581.13 Q1314.77 1580.68 1312.19 1579.72 L1312.19 1574.03 Q1314.77 1575.43 1317.29 1576.1 Q1319.8 1576.76 1322.41 1576.76 Q1328.17 1576.76 1331.04 1573.74 Q1333.9 1570.75 1333.9 1564.67 L1333.9 1561.77 Q1332.09 1564.92 1329.25 1566.48 Q1326.42 1568.04 1322.47 1568.04 Q1315.92 1568.04 1311.91 1563.05 Q1307.9 1558.05 1307.9 1549.81 Q1307.9 1541.53 1311.91 1536.53 Q1315.92 1531.54 1322.47 1531.54 Q1326.42 1531.54 1329.25 1533.1 Q1332.09 1534.66 1333.9 1537.81 L1333.9 1532.4 L1339.76 1532.4 L1339.76 1563.62 Z" fill="#000000" fill-rule="evenodd" fill-opacity="1" /><path clip-path="url(#clip590)" d="M 0 0 M1372.48 1537.87 Q1371.49 1537.3 1370.31 1537.04 Q1369.17 1536.76 1367.77 1536.76 Q1362.8 1536.76 1360.13 1540 Q1357.49 1543.22 1357.49 1549.27 L1357.49 1568.04 L1351.6 1568.04 L1351.6 1532.4 L1357.49 1532.4 L1357.49 1537.93 Q1359.33 1534.69 1362.29 1533.13 Q1365.25 1531.54 1369.48 1531.54 Q1370.09 1531.54 1370.82 1531.63 Q1371.55 1531.7 1372.44 1531.85 L1372.48 1537.87 Z" fill="#000000" fill-rule="evenodd" fill-opacity="1" /><path clip-path="url(#clip590)" d="M 0 0 M1407.68 1548.76 L1407.68 1551.62 L1380.75 1551.62 Q1381.13 1557.67 1384.38 1560.85 Q1387.66 1564 1393.48 1564 Q1396.86 1564 1400.01 1563.17 Q1403.19 1562.35 1406.31 1560.69 L1406.31 1566.23 Q1403.16 1567.57 1399.85 1568.27 Q1396.54 1568.97 1393.13 1568.97 Q1384.6 1568.97 1379.61 1564 Q1374.64 1559.04 1374.64 1550.57 Q1374.64 1541.82 1379.35 1536.69 Q1384.09 1531.54 1392.11 1531.54 Q1399.31 1531.54 1403.48 1536.18 Q1407.68 1540.8 1407.68 1548.76 M1401.82 1547.04 Q1401.76 1542.23 1399.12 1539.37 Q1396.51 1536.5 1392.18 1536.5 Q1387.28 1536.5 1384.32 1539.27 Q1381.39 1542.04 1380.94 1547.07 L1401.82 1547.04 Z" fill="#000000" fill-rule="evenodd" fill-opacity="1" /><path clip-path="url(#clip590)" d="M 0 0 M1447.78 1548.76 L1447.78 1551.62 L1420.86 1551.62 Q1421.24 1557.67 1424.48 1560.85 Q1427.76 1564 1433.59 1564 Q1436.96 1564 1440.11 1563.17 Q1443.3 1562.35 1446.41 1560.69 L1446.41 1566.23 Q1443.26 1567.57 1439.95 1568.27 Q1436.64 1568.97 1433.24 1568.97 Q1424.71 1568.97 1419.71 1564 Q1414.75 1559.04 1414.75 1550.57 Q1414.75 1541.82 1419.46 1536.69 Q1424.2 1531.54 1432.22 1531.54 Q1439.41 1531.54 1443.58 1536.18 Q1447.78 1540.8 1447.78 1548.76 M1441.93 1547.04 Q1441.86 1542.23 1439.22 1539.37 Q1436.61 1536.5 1432.28 1536.5 Q1427.38 1536.5 1424.42 1539.27 Q1421.49 1542.04 1421.05 1547.07 L1441.93 1547.04 Z" fill="#000000" fill-rule="evenodd" fill-opacity="1" /><polyline clip-path="url(#clip592)" style="stroke:#000000; stroke-width:2; stroke-opacity:0.1; fill:none" points="
  257.69,1216.19 2352.76,1216.19 
  "/>
<polyline clip-path="url(#clip592)" style="stroke:#000000; stroke-width:2; stroke-opacity:0.1; fill:none" points="
  257.69,905.752 2352.76,905.752 
  "/>
<polyline clip-path="url(#clip592)" style="stroke:#000000; stroke-width:2; stroke-opacity:0.1; fill:none" points="
  257.69,595.318 2352.76,595.318 
  "/>
<polyline clip-path="url(#clip592)" style="stroke:#000000; stroke-width:2; stroke-opacity:0.1; fill:none" points="
  257.69,284.884 2352.76,284.884 
  "/>
<polyline clip-path="url(#clip590)" style="stroke:#000000; stroke-width:4; stroke-opacity:1; fill:none" points="
  257.69,1423.18 257.69,123.472 
  "/>
<polyline clip-path="url(#clip590)" style="stroke:#000000; stroke-width:4; stroke-opacity:1; fill:none" points="
  257.69,1216.19 282.831,1216.19 
  "/>
<polyline clip-path="url(#clip590)" style="stroke:#000000; stroke-width:4; stroke-opacity:1; fill:none" points="
  257.69,905.752 282.831,905.752 
  "/>
<polyline clip-path="url(#clip590)" style="stroke:#000000; stroke-width:4; stroke-opacity:1; fill:none" points="
  257.69,595.318 282.831,595.318 
  "/>
<polyline clip-path="url(#clip590)" style="stroke:#000000; stroke-width:4; stroke-opacity:1; fill:none" points="
  257.69,284.884 282.831,284.884 
  "/>
<path clip-path="url(#clip590)" d="M 0 0 M114.584 1216.64 L144.26 1216.64 L144.26 1220.57 L114.584 1220.57 L114.584 1216.64 Z" fill="#000000" fill-rule="evenodd" fill-opacity="1" /><path clip-path="url(#clip590)" d="M 0 0 M164.352 1201.98 Q160.741 1201.98 158.913 1205.55 Q157.107 1209.09 157.107 1216.22 Q157.107 1223.33 158.913 1226.89 Q160.741 1230.43 164.352 1230.43 Q167.987 1230.43 169.792 1226.89 Q171.621 1223.33 171.621 1216.22 Q171.621 1209.09 169.792 1205.55 Q167.987 1201.98 164.352 1201.98 M164.352 1198.28 Q170.163 1198.28 173.218 1202.89 Q176.297 1207.47 176.297 1216.22 Q176.297 1224.95 173.218 1229.55 Q170.163 1234.14 164.352 1234.14 Q158.542 1234.14 155.464 1229.55 Q152.408 1224.95 152.408 1216.22 Q152.408 1207.47 155.464 1202.89 Q158.542 1198.28 164.352 1198.28 Z" fill="#000000" fill-rule="evenodd" fill-opacity="1" /><path clip-path="url(#clip590)" d="M 0 0 M184.514 1227.59 L189.399 1227.59 L189.399 1233.47 L184.514 1233.47 L184.514 1227.59 Z" fill="#000000" fill-rule="evenodd" fill-opacity="1" /><path clip-path="url(#clip590)" d="M 0 0 M210.162 1214.32 Q207.014 1214.32 205.162 1216.48 Q203.334 1218.63 203.334 1222.38 Q203.334 1226.1 205.162 1228.28 Q207.014 1230.43 210.162 1230.43 Q213.311 1230.43 215.139 1228.28 Q216.991 1226.1 216.991 1222.38 Q216.991 1218.63 215.139 1216.48 Q213.311 1214.32 210.162 1214.32 M219.445 1199.67 L219.445 1203.93 Q217.686 1203.1 215.88 1202.66 Q214.098 1202.22 212.338 1202.22 Q207.709 1202.22 205.255 1205.34 Q202.824 1208.47 202.477 1214.79 Q203.843 1212.77 205.903 1211.71 Q207.963 1210.62 210.44 1210.62 Q215.649 1210.62 218.658 1213.79 Q221.69 1216.94 221.69 1222.38 Q221.69 1227.7 218.542 1230.92 Q215.394 1234.14 210.162 1234.14 Q204.167 1234.14 200.996 1229.55 Q197.825 1224.95 197.825 1216.22 Q197.825 1208.03 201.713 1203.17 Q205.602 1198.28 212.153 1198.28 Q213.912 1198.28 215.695 1198.63 Q217.5 1198.98 219.445 1199.67 Z" fill="#000000" fill-rule="evenodd" fill-opacity="1" /><path clip-path="url(#clip590)" d="M 0 0 M115.742 906.203 L145.417 906.203 L145.417 910.138 L115.742 910.138 L115.742 906.203 Z" fill="#000000" fill-rule="evenodd" fill-opacity="1" /><path clip-path="url(#clip590)" d="M 0 0 M165.51 891.551 Q161.899 891.551 160.07 895.115 Q158.265 898.657 158.265 905.787 Q158.265 912.893 160.07 916.458 Q161.899 919.999 165.51 919.999 Q169.144 919.999 170.95 916.458 Q172.778 912.893 172.778 905.787 Q172.778 898.657 170.95 895.115 Q169.144 891.551 165.51 891.551 M165.51 887.847 Q171.32 887.847 174.376 892.453 Q177.454 897.037 177.454 905.787 Q177.454 914.513 174.376 919.12 Q171.32 923.703 165.51 923.703 Q159.7 923.703 156.621 919.12 Q153.566 914.513 153.566 905.787 Q153.566 897.037 156.621 892.453 Q159.7 887.847 165.51 887.847 Z" fill="#000000" fill-rule="evenodd" fill-opacity="1" /><path clip-path="url(#clip590)" d="M 0 0 M185.672 917.152 L190.556 917.152 L190.556 923.032 L185.672 923.032 L185.672 917.152 Z" fill="#000000" fill-rule="evenodd" fill-opacity="1" /><path clip-path="url(#clip590)" d="M 0 0 M200.787 888.472 L219.144 888.472 L219.144 892.407 L205.07 892.407 L205.07 900.879 Q206.088 900.532 207.107 900.37 Q208.125 900.185 209.144 900.185 Q214.931 900.185 218.311 903.356 Q221.69 906.527 221.69 911.944 Q221.69 917.523 218.218 920.624 Q214.746 923.703 208.426 923.703 Q206.25 923.703 203.982 923.333 Q201.737 922.962 199.329 922.222 L199.329 917.523 Q201.412 918.657 203.635 919.212 Q205.857 919.768 208.334 919.768 Q212.338 919.768 214.676 917.662 Q217.014 915.555 217.014 911.944 Q217.014 908.333 214.676 906.226 Q212.338 904.12 208.334 904.12 Q206.459 904.12 204.584 904.537 Q202.732 904.953 200.787 905.833 L200.787 888.472 Z" fill="#000000" fill-rule="evenodd" fill-opacity="1" /><path clip-path="url(#clip590)" d="M 0 0 M114.26 595.769 L143.936 595.769 L143.936 599.704 L114.26 599.704 L114.26 595.769 Z" fill="#000000" fill-rule="evenodd" fill-opacity="1" /><path clip-path="url(#clip590)" d="M 0 0 M164.028 581.117 Q160.417 581.117 158.589 584.681 Q156.783 588.223 156.783 595.353 Q156.783 602.459 158.589 606.024 Q160.417 609.565 164.028 609.565 Q167.663 609.565 169.468 606.024 Q171.297 602.459 171.297 595.353 Q171.297 588.223 169.468 584.681 Q167.663 581.117 164.028 581.117 M164.028 577.413 Q169.839 577.413 172.894 582.019 Q175.973 586.603 175.973 595.353 Q175.973 604.079 172.894 608.686 Q169.839 613.269 164.028 613.269 Q158.218 613.269 155.14 608.686 Q152.084 604.079 152.084 595.353 Q152.084 586.603 155.14 582.019 Q158.218 577.413 164.028 577.413 Z" fill="#000000" fill-rule="evenodd" fill-opacity="1" /><path clip-path="url(#clip590)" d="M 0 0 M184.19 606.718 L189.075 606.718 L189.075 612.598 L184.19 612.598 L184.19 606.718 Z" fill="#000000" fill-rule="evenodd" fill-opacity="1" /><path clip-path="url(#clip590)" d="M 0 0 M212.107 582.112 L200.301 600.561 L212.107 600.561 L212.107 582.112 M210.88 578.038 L216.76 578.038 L216.76 600.561 L221.69 600.561 L221.69 604.45 L216.76 604.45 L216.76 612.598 L212.107 612.598 L212.107 604.45 L196.505 604.45 L196.505 599.936 L210.88 578.038 Z" fill="#000000" fill-rule="evenodd" fill-opacity="1" /><path clip-path="url(#clip590)" d="M 0 0 M115.394 285.335 L145.07 285.335 L145.07 289.27 L115.394 289.27 L115.394 285.335 Z" fill="#000000" fill-rule="evenodd" fill-opacity="1" /><path clip-path="url(#clip590)" d="M 0 0 M165.163 270.683 Q161.552 270.683 159.723 274.247 Q157.917 277.789 157.917 284.919 Q157.917 292.025 159.723 295.59 Q161.552 299.131 165.163 299.131 Q168.797 299.131 170.602 295.59 Q172.431 292.025 172.431 284.919 Q172.431 277.789 170.602 274.247 Q168.797 270.683 165.163 270.683 M165.163 266.979 Q170.973 266.979 174.028 271.585 Q177.107 276.169 177.107 284.919 Q177.107 293.645 174.028 298.252 Q170.973 302.835 165.163 302.835 Q159.353 302.835 156.274 298.252 Q153.218 293.645 153.218 284.919 Q153.218 276.169 156.274 271.585 Q159.353 266.979 165.163 266.979 Z" fill="#000000" fill-rule="evenodd" fill-opacity="1" /><path clip-path="url(#clip590)" d="M 0 0 M185.325 296.284 L190.209 296.284 L190.209 302.164 L185.325 302.164 L185.325 296.284 Z" fill="#000000" fill-rule="evenodd" fill-opacity="1" /><path clip-path="url(#clip590)" d="M 0 0 M214.561 283.53 Q217.917 284.247 219.792 286.516 Q221.69 288.784 221.69 292.118 Q221.69 297.233 218.172 300.034 Q214.653 302.835 208.172 302.835 Q205.996 302.835 203.681 302.395 Q201.389 301.979 198.936 301.122 L198.936 296.608 Q200.88 297.743 203.195 298.321 Q205.51 298.9 208.033 298.9 Q212.431 298.9 214.723 297.164 Q217.037 295.428 217.037 292.118 Q217.037 289.062 214.885 287.349 Q212.755 285.613 208.936 285.613 L204.908 285.613 L204.908 281.77 L209.121 281.77 Q212.57 281.77 214.399 280.405 Q216.227 279.016 216.227 276.423 Q216.227 273.761 214.329 272.349 Q212.454 270.914 208.936 270.914 Q207.014 270.914 204.815 271.331 Q202.616 271.747 199.977 272.627 L199.977 268.46 Q202.639 267.72 204.954 267.349 Q207.292 266.979 209.352 266.979 Q214.676 266.979 217.778 269.409 Q220.88 271.817 220.88 275.937 Q220.88 278.807 219.236 280.798 Q217.593 282.766 214.561 283.53 Z" fill="#000000" fill-rule="evenodd" fill-opacity="1" /><path clip-path="url(#clip590)" d="M 0 0 M16.4842 788.636 L16.4842 758.589 L21.895 758.589 L21.895 782.206 L35.9632 782.206 L35.9632 759.576 L41.3741 759.576 L41.3741 782.206 L58.5933 782.206 L58.5933 758.016 L64.0042 758.016 L64.0042 788.636 L16.4842 788.636 Z" fill="#000000" fill-rule="evenodd" fill-opacity="1" /><path clip-path="url(#clip590)" d="M 0 0 M1165.81 48.0275 L1165.81 51.6733 L1131.54 51.6733 Q1132.03 59.3701 1136.16 63.421 Q1140.33 67.4314 1147.74 67.4314 Q1152.04 67.4314 1156.05 66.3781 Q1160.1 65.3249 1164.07 63.2184 L1164.07 70.267 Q1160.06 71.9684 1155.85 72.8596 Q1151.63 73.7508 1147.3 73.7508 Q1136.44 73.7508 1130.08 67.4314 Q1123.76 61.1119 1123.76 50.3365 Q1123.76 39.1965 1129.76 32.6746 Q1135.79 26.1121 1146 26.1121 Q1155.16 26.1121 1160.46 32.0264 Q1165.81 37.9003 1165.81 48.0275 M1158.36 45.84 Q1158.28 39.7232 1154.91 36.0774 Q1151.59 32.4315 1146.08 32.4315 Q1139.84 32.4315 1136.08 35.9558 Q1132.35 39.4801 1131.78 45.8805 L1158.36 45.84 Z" fill="#000000" fill-rule="evenodd" fill-opacity="1" /><path clip-path="url(#clip590)" d="M 0 0 M1215.76 45.1919 L1215.76 72.576 L1208.31 72.576 L1208.31 45.4349 Q1208.31 38.994 1205.79 35.7938 Q1203.28 32.5936 1198.26 32.5936 Q1192.22 32.5936 1188.74 36.4419 Q1185.26 40.2903 1185.26 46.9338 L1185.26 72.576 L1177.76 72.576 L1177.76 27.2059 L1185.26 27.2059 L1185.26 34.2544 Q1187.93 30.163 1191.53 28.1376 Q1195.18 26.1121 1199.92 26.1121 Q1207.74 26.1121 1211.75 30.9732 Q1215.76 35.7938 1215.76 45.1919 Z" fill="#000000" fill-rule="evenodd" fill-opacity="1" /><path clip-path="url(#clip590)" d="M 0 0 M1269.43 48.0275 L1269.43 51.6733 L1235.16 51.6733 Q1235.65 59.3701 1239.78 63.421 Q1243.95 67.4314 1251.37 67.4314 Q1255.66 67.4314 1259.67 66.3781 Q1263.72 65.3249 1267.69 63.2184 L1267.69 70.267 Q1263.68 71.9684 1259.47 72.8596 Q1255.26 73.7508 1250.92 73.7508 Q1240.06 73.7508 1233.7 67.4314 Q1227.38 61.1119 1227.38 50.3365 Q1227.38 39.1965 1233.38 32.6746 Q1239.42 26.1121 1249.62 26.1121 Q1258.78 26.1121 1264.09 32.0264 Q1269.43 37.9003 1269.43 48.0275 M1261.98 45.84 Q1261.9 39.7232 1258.54 36.0774 Q1255.21 32.4315 1249.71 32.4315 Q1243.47 32.4315 1239.7 35.9558 Q1235.97 39.4801 1235.41 45.8805 L1261.98 45.84 Z" fill="#000000" fill-rule="evenodd" fill-opacity="1" /><path clip-path="url(#clip590)" d="M 0 0 M1307.96 34.1734 Q1306.7 33.4443 1305.2 33.1202 Q1303.74 32.7556 1301.96 32.7556 Q1295.64 32.7556 1292.24 36.8875 Q1288.88 40.9789 1288.88 48.6757 L1288.88 72.576 L1281.38 72.576 L1281.38 27.2059 L1288.88 27.2059 L1288.88 34.2544 Q1291.23 30.1225 1294.99 28.1376 Q1298.76 26.1121 1304.15 26.1121 Q1304.92 26.1121 1305.85 26.2337 Q1306.78 26.3147 1307.92 26.5172 L1307.96 34.1734 Z" fill="#000000" fill-rule="evenodd" fill-opacity="1" /><path clip-path="url(#clip590)" d="M 0 0 M1344.17 49.3643 Q1344.17 41.2625 1340.81 36.8065 Q1337.49 32.3505 1331.45 32.3505 Q1325.46 32.3505 1322.1 36.8065 Q1318.77 41.2625 1318.77 49.3643 Q1318.77 57.4256 1322.1 61.8816 Q1325.46 66.3376 1331.45 66.3376 Q1337.49 66.3376 1340.81 61.8816 Q1344.17 57.4256 1344.17 49.3643 M1351.63 66.9452 Q1351.63 78.5308 1346.48 84.1616 Q1341.34 89.8329 1330.72 89.8329 Q1326.79 89.8329 1323.31 89.2252 Q1319.83 88.6581 1316.55 87.4428 L1316.55 80.1917 Q1319.83 81.9741 1323.03 82.8248 Q1326.23 83.6755 1329.55 83.6755 Q1336.88 83.6755 1340.53 79.8271 Q1344.17 76.0193 1344.17 68.282 L1344.17 64.5957 Q1341.86 68.6061 1338.26 70.5911 Q1334.65 72.576 1329.63 72.576 Q1321.28 72.576 1316.18 66.2161 Q1311.08 59.8562 1311.08 49.3643 Q1311.08 38.832 1316.18 32.472 Q1321.28 26.1121 1329.63 26.1121 Q1334.65 26.1121 1338.26 28.0971 Q1341.86 30.082 1344.17 34.0924 L1344.17 27.2059 L1351.63 27.2059 L1351.63 66.9452 Z" fill="#000000" fill-rule="evenodd" fill-opacity="1" /><path clip-path="url(#clip590)" d="M 0 0 M1385.86 76.7889 Q1382.7 84.8907 1379.7 87.3618 Q1376.7 89.8329 1371.68 89.8329 L1365.72 89.8329 L1365.72 83.5945 L1370.1 83.5945 Q1373.18 83.5945 1374.88 82.1361 Q1376.58 80.6778 1378.65 75.2496 L1379.98 71.8468 L1361.63 27.2059 L1369.53 27.2059 L1383.71 62.6918 L1397.89 27.2059 L1405.79 27.2059 L1385.86 76.7889 Z" fill="#000000" fill-rule="evenodd" fill-opacity="1" /><path clip-path="url(#clip590)" d="M 0 0 M1410.85 46.5287 L1432.68 46.5287 L1432.68 53.1722 L1410.85 53.1722 L1410.85 46.5287 Z" fill="#000000" fill-rule="evenodd" fill-opacity="1" /><path clip-path="url(#clip590)" d="M 0 0 M1467.68 9.54393 L1467.68 26.2742 Q1475.75 26.2742 1481.13 32.472 Q1486.68 38.7915 1486.68 49.9314 Q1486.68 61.0714 1481.13 67.3908 Q1475.75 73.5887 1467.68 73.5887 L1467.68 89.8329 L1460.27 89.8329 L1460.27 73.5887 Q1452.21 73.5887 1446.78 67.3908 Q1441.27 61.0714 1441.27 49.9314 Q1441.27 38.7915 1446.78 32.472 Q1452.21 26.2742 1460.27 26.2742 L1460.27 9.54393 L1467.68 9.54393 M1467.68 66.9452 Q1472.26 66.9452 1475.38 62.7728 Q1478.78 58.1143 1478.82 49.9314 Q1478.87 41.8296 1475.38 37.0901 Q1472.26 32.9176 1467.68 32.9176 L1467.68 66.9452 M1460.27 66.9452 L1460.27 32.9176 Q1455.69 32.9176 1452.62 37.0901 Q1449.09 41.8296 1449.13 49.9314 Q1449.17 58.1143 1452.62 62.7728 Q1455.69 66.9452 1460.27 66.9452 Z" fill="#000000" fill-rule="evenodd" fill-opacity="1" /><polyline clip-path="url(#clip592)" style="stroke:#009af9; stroke-width:8; stroke-opacity:1; fill:none" points="
  316.984,1025.27 344.822,1117.41 372.66,1191.75 400.498,1258.56 428.335,1304.97 456.173,1342.45 484.011,1357.89 511.848,1362.51 539.686,1354.57 567.524,1328.16 
  595.362,1294.4 623.199,1241.47 651.037,1164.69 678.875,1088.74 706.712,989.695 734.55,882.986 762.388,765.678 790.225,566.329 818.063,509.777 845.901,535.235 
  873.739,564.309 901.576,585.579 929.414,597.912 957.252,600.132 985.089,602.213 1012.93,576.943 1040.76,565.536 1068.6,532.72 1096.44,497.764 1124.28,452.166 
  1152.12,393.299 1179.95,343.598 1207.79,269.354 1235.63,318.916 1263.47,381.399 1291.3,449.214 1319.14,517.709 1346.98,583.848 1374.82,645.549 1402.65,701.307 
  1430.49,749.999 1458.33,790.684 1486.17,822.876 1514.01,846.036 1541.84,859.845 1569.68,864.072 1597.52,858.713 1625.36,844.143 1653.19,820.203 1681.03,787.882 
  1708.87,746.943 1736.71,699.207 1764.55,631.402 1792.38,571.808 1820.22,508.71 1848.06,453.157 1875.9,444.393 1903.73,404.203 1931.57,363.051 1959.41,321.603 
  1987.25,263.083 2015.08,241.876 2042.92,205.826 2070.76,176.744 2098.6,160.256 2126.44,164.508 2154.27,260.756 2182.11,408.488 2209.95,541.259 2237.79,685.386 
  2265.62,807.735 2293.46,922.381 
  "/>
<polyline clip-path="url(#clip592)" style="stroke:#e26f46; stroke-width:8; stroke-opacity:1; fill:none" points="
  316.984,1039.7 344.822,1131.48 372.66,1210.45 400.498,1268.82 428.335,1301.94 456.173,1360.33 484.011,1380.94 511.848,1386.4 539.686,1376.91 567.524,1352.62 
  595.362,1312.09 623.199,1257.9 651.037,1189.01 678.875,1107.26 706.712,1012.35 734.55,905.743 762.388,788.452 790.225,663.286 818.063,534.449 845.901,559.943 
  873.739,585.317 901.576,604.075 929.414,615.041 957.252,614.415 985.089,611.94 1012.93,598.561 1040.76,576.134 1068.6,545.666 1096.44,506.809 1124.28,461.269 
  1152.12,409.192 1179.95,351.903 1207.79,278.427 1235.63,321.023 1263.47,381.996 1291.3,449.315 1319.14,517.709 1346.98,583.9 1374.82,645.715 1402.65,701.621 
  1430.49,750.435 1458.33,791.323 1486.17,823.706 1514.01,846.864 1541.84,861.034 1569.68,865.741 1597.52,860.923 1625.36,846.766 1653.19,823.509 1681.03,791.461 
  1708.87,751.244 1736.71,703.735 1764.55,650.136 1792.38,592.574 1820.22,534.684 1848.06,490.108 1875.9,448.149 1903.73,406.692 1931.57,365.091 1959.41,323.233 
  1987.25,281.8 2015.08,241.887 2042.92,205.844 2070.76,176.744 2098.6,160.28 2126.44,165.891 2154.27,269.456 2182.11,416.228 2209.95,558.547 2237.79,693.3 
  2265.62,819.131 2293.46,934.9 
  "/>
<polyline clip-path="url(#clip592)" style="stroke:#3da44d; stroke-width:4; stroke-opacity:1; fill:none" points="
  818.063,2722.89 818.063,-1176.24 
  "/>
<polyline clip-path="url(#clip592)" style="stroke:#3da44d; stroke-width:4; stroke-opacity:1; fill:none" points="
  1319.14,2722.89 1319.14,-1176.24 
  "/>
<polyline clip-path="url(#clip592)" style="stroke:#3da44d; stroke-width:4; stroke-opacity:1; fill:none" points="
  1820.22,2722.89 1820.22,-1176.24 
  "/>
<path clip-path="url(#clip590)" d="
M1922.06 1379.86 L2282.92 1379.86 L2282.92 1137.94 L1922.06 1137.94  Z
  " fill="#ffffff" fill-rule="evenodd" fill-opacity="1"/>
<polyline clip-path="url(#clip590)" style="stroke:#000000; stroke-width:4; stroke-opacity:1; fill:none" points="
  1922.06,1379.86 2282.92,1379.86 2282.92,1137.94 1922.06,1137.94 1922.06,1379.86 
  "/>
<polyline clip-path="url(#clip590)" style="stroke:#009af9; stroke-width:4; stroke-opacity:1; fill:none" points="
  1945.34,1198.42 2085.01,1198.42 
  "/>
<path clip-path="url(#clip590)" d="M 0 0 M2112.96 1184.98 L2112.96 1211.85 L2118.61 1211.85 Q2125.76 1211.85 2129.07 1208.61 Q2132.41 1205.37 2132.41 1198.38 Q2132.41 1191.44 2129.07 1188.22 Q2125.76 1184.98 2118.61 1184.98 L2112.96 1184.98 M2108.29 1181.14 L2117.89 1181.14 Q2127.94 1181.14 2132.64 1185.33 Q2137.34 1189.49 2137.34 1198.38 Q2137.34 1207.32 2132.61 1211.51 Q2127.89 1215.7 2117.89 1215.7 L2108.29 1215.7 L2108.29 1181.14 Z" fill="#000000" fill-rule="evenodd" fill-opacity="1" /><path clip-path="url(#clip590)" d="M 0 0 M2160.23 1194.17 L2189.91 1194.17 L2189.91 1198.06 L2160.23 1198.06 L2160.23 1194.17 M2160.23 1203.61 L2189.91 1203.61 L2189.91 1207.55 L2160.23 1207.55 L2160.23 1203.61 Z" fill="#000000" fill-rule="evenodd" fill-opacity="1" /><path clip-path="url(#clip590)" d="M 0 0 M2219.09 1211.76 L2235.41 1211.76 L2235.41 1215.7 L2213.47 1215.7 L2213.47 1211.76 Q2216.13 1209.01 2220.72 1204.38 Q2225.32 1199.72 2226.5 1198.38 Q2228.75 1195.86 2229.63 1194.12 Q2230.53 1192.36 2230.53 1190.67 Q2230.53 1187.92 2228.59 1186.18 Q2226.66 1184.45 2223.56 1184.45 Q2221.36 1184.45 2218.91 1185.21 Q2216.48 1185.97 2213.7 1187.53 L2213.7 1182.8 Q2216.53 1181.67 2218.98 1181.09 Q2221.43 1180.51 2223.47 1180.51 Q2228.84 1180.51 2232.03 1183.2 Q2235.23 1185.88 2235.23 1190.37 Q2235.23 1192.5 2234.42 1194.42 Q2233.63 1196.32 2231.53 1198.91 Q2230.95 1199.59 2227.84 1202.8 Q2224.74 1206 2219.09 1211.76 Z" fill="#000000" fill-rule="evenodd" fill-opacity="1" /><polyline clip-path="url(#clip590)" style="stroke:#e26f46; stroke-width:4; stroke-opacity:1; fill:none" points="
  1945.34,1258.9 2085.01,1258.9 
  "/>
<path clip-path="url(#clip590)" d="M 0 0 M2112.96 1245.46 L2112.96 1272.33 L2118.61 1272.33 Q2125.76 1272.33 2129.07 1269.09 Q2132.41 1265.85 2132.41 1258.86 Q2132.41 1251.92 2129.07 1248.7 Q2125.76 1245.46 2118.61 1245.46 L2112.96 1245.46 M2108.29 1241.62 L2117.89 1241.62 Q2127.94 1241.62 2132.64 1245.81 Q2137.34 1249.97 2137.34 1258.86 Q2137.34 1267.8 2132.61 1271.99 Q2127.89 1276.18 2117.89 1276.18 L2108.29 1276.18 L2108.29 1241.62 Z" fill="#000000" fill-rule="evenodd" fill-opacity="1" /><path clip-path="url(#clip590)" d="M 0 0 M2160.23 1254.65 L2189.91 1254.65 L2189.91 1258.54 L2160.23 1258.54 L2160.23 1254.65 M2160.23 1264.09 L2189.91 1264.09 L2189.91 1268.03 L2160.23 1268.03 L2160.23 1264.09 Z" fill="#000000" fill-rule="evenodd" fill-opacity="1" /><path clip-path="url(#clip590)" d="M 0 0 M2229.23 1257.54 Q2232.59 1258.26 2234.47 1260.53 Q2236.36 1262.8 2236.36 1266.13 Q2236.36 1271.25 2232.84 1274.05 Q2229.33 1276.85 2222.84 1276.85 Q2220.67 1276.85 2218.35 1276.41 Q2216.06 1275.99 2213.61 1275.13 L2213.61 1270.62 Q2215.55 1271.75 2217.87 1272.33 Q2220.18 1272.91 2222.71 1272.91 Q2227.1 1272.91 2229.4 1271.18 Q2231.71 1269.44 2231.71 1266.13 Q2231.71 1263.07 2229.56 1261.36 Q2227.43 1259.63 2223.61 1259.63 L2219.58 1259.63 L2219.58 1255.78 L2223.79 1255.78 Q2227.24 1255.78 2229.07 1254.42 Q2230.9 1253.03 2230.9 1250.44 Q2230.9 1247.77 2229 1246.36 Q2227.13 1244.93 2223.61 1244.93 Q2221.69 1244.93 2219.49 1245.34 Q2217.29 1245.76 2214.65 1246.64 L2214.65 1242.47 Q2217.31 1241.73 2219.63 1241.36 Q2221.97 1240.99 2224.03 1240.99 Q2229.35 1240.99 2232.45 1243.42 Q2235.55 1245.83 2235.55 1249.95 Q2235.55 1252.82 2233.91 1254.81 Q2232.27 1256.78 2229.23 1257.54 Z" fill="#000000" fill-rule="evenodd" fill-opacity="1" /><polyline clip-path="url(#clip590)" style="stroke:#3da44d; stroke-width:4; stroke-opacity:1; fill:none" points="
  1945.34,1319.38 2085.01,1319.38 
  "/>
<path clip-path="url(#clip590)" d="M 0 0 M2122.13 1339.06 Q2120.32 1343.69 2118.61 1345.11 Q2116.9 1346.52 2114.03 1346.52 L2110.62 1346.52 L2110.62 1342.95 L2113.12 1342.95 Q2114.88 1342.95 2115.85 1342.12 Q2116.83 1341.29 2118.01 1338.18 L2118.77 1336.24 L2108.29 1310.73 L2112.8 1310.73 L2120.9 1331.01 L2129 1310.73 L2133.52 1310.73 L2122.13 1339.06 Z" fill="#000000" fill-rule="evenodd" fill-opacity="1" /><path clip-path="url(#clip590)" d="M 0 0 M2154.16 1318.02 Q2157.52 1318.74 2159.4 1321.01 Q2161.29 1323.28 2161.29 1326.61 Q2161.29 1331.73 2157.78 1334.53 Q2154.26 1337.33 2147.78 1337.33 Q2145.6 1337.33 2143.29 1336.89 Q2140.99 1336.47 2138.54 1335.61 L2138.54 1331.1 Q2140.48 1332.23 2142.8 1332.81 Q2145.11 1333.39 2147.64 1333.39 Q2152.04 1333.39 2154.33 1331.66 Q2156.64 1329.92 2156.64 1326.61 Q2156.64 1323.55 2154.49 1321.84 Q2152.36 1320.11 2148.54 1320.11 L2144.51 1320.11 L2144.51 1316.26 L2148.72 1316.26 Q2152.17 1316.26 2154 1314.9 Q2155.83 1313.51 2155.83 1310.92 Q2155.83 1308.25 2153.93 1306.84 Q2152.06 1305.41 2148.54 1305.41 Q2146.62 1305.41 2144.42 1305.82 Q2142.22 1306.24 2139.58 1307.12 L2139.58 1302.95 Q2142.24 1302.21 2144.56 1301.84 Q2146.9 1301.47 2148.96 1301.47 Q2154.28 1301.47 2157.38 1303.9 Q2160.48 1306.31 2160.48 1310.43 Q2160.48 1313.3 2158.84 1315.29 Q2157.2 1317.26 2154.16 1318.02 Z" fill="#000000" fill-rule="evenodd" fill-opacity="1" /></svg>
