<?xml version="1.0" encoding="utf-8"?>
<svg xmlns="http://www.w3.org/2000/svg" xmlns:xlink="http://www.w3.org/1999/xlink" width="600" height="400" viewBox="0 0 2400 1600">
<defs>
  <clipPath id="clip500">
    <rect x="0" y="0" width="2400" height="1600"/>
  </clipPath>
</defs>
<path clip-path="url(#clip500)" d="
M0 1600 L2400 1600 L2400 0 L0 0  Z
  " fill="#ffffff" fill-rule="evenodd" fill-opacity="1"/>
<defs>
  <clipPath id="clip501">
    <rect x="480" y="0" width="1681" height="1600"/>
  </clipPath>
</defs>
<path clip-path="url(#clip500)" d="
M287.366 1423.18 L2352.76 1423.18 L2352.76 123.472 L287.366 123.472  Z
  " fill="#ffffff" fill-rule="evenodd" fill-opacity="1"/>
<defs>
  <clipPath id="clip502">
    <rect x="287" y="123" width="2066" height="1301"/>
  </clipPath>
</defs>
<polyline clip-path="url(#clip502)" style="stroke:#000000; stroke-width:2; stroke-opacity:0.1; fill:none" points="
  540.668,1423.18 540.668,123.472 
  "/>
<polyline clip-path="url(#clip502)" style="stroke:#000000; stroke-width:2; stroke-opacity:0.1; fill:none" points="
  930.365,1423.18 930.365,123.472 
  "/>
<polyline clip-path="url(#clip502)" style="stroke:#000000; stroke-width:2; stroke-opacity:0.1; fill:none" points="
  1320.06,1423.18 1320.06,123.472 
  "/>
<polyline clip-path="url(#clip502)" style="stroke:#000000; stroke-width:2; stroke-opacity:0.1; fill:none" points="
  1709.76,1423.18 1709.76,123.472 
  "/>
<polyline clip-path="url(#clip502)" style="stroke:#000000; stroke-width:2; stroke-opacity:0.1; fill:none" points="
  2099.45,1423.18 2099.45,123.472 
  "/>
<polyline clip-path="url(#clip500)" style="stroke:#000000; stroke-width:4; stroke-opacity:1; fill:none" points="
  287.366,1423.18 2352.76,1423.18 
  "/>
<polyline clip-path="url(#clip500)" style="stroke:#000000; stroke-width:4; stroke-opacity:1; fill:none" points="
  540.668,1423.18 540.668,1407.58 
  "/>
<polyline clip-path="url(#clip500)" style="stroke:#000000; stroke-width:4; stroke-opacity:1; fill:none" points="
  930.365,1423.18 930.365,1407.58 
  "/>
<polyline clip-path="url(#clip500)" style="stroke:#000000; stroke-width:4; stroke-opacity:1; fill:none" points="
  1320.06,1423.18 1320.06,1407.58 
  "/>
<polyline clip-path="url(#clip500)" style="stroke:#000000; stroke-width:4; stroke-opacity:1; fill:none" points="
  1709.76,1423.18 1709.76,1407.58 
  "/>
<polyline clip-path="url(#clip500)" style="stroke:#000000; stroke-width:4; stroke-opacity:1; fill:none" points="
  2099.45,1423.18 2099.45,1407.58 
  "/>
<path clip-path="url(#clip500)" d="M 0 0 M525.46 1467.44 Q522.127 1467.44 520.206 1469.22 Q518.307 1471 518.307 1474.13 Q518.307 1477.25 520.206 1479.04 Q522.127 1480.82 525.46 1480.82 Q528.794 1480.82 530.715 1479.04 Q532.636 1477.23 532.636 1474.13 Q532.636 1471 530.715 1469.22 Q528.817 1467.44 525.46 1467.44 M520.784 1465.45 Q517.775 1464.71 516.085 1462.65 Q514.419 1460.59 514.419 1457.63 Q514.419 1453.48 517.358 1451.07 Q520.321 1448.67 525.46 1448.67 Q530.622 1448.67 533.562 1451.07 Q536.502 1453.48 536.502 1457.63 Q536.502 1460.59 534.812 1462.65 Q533.145 1464.71 530.159 1465.45 Q533.539 1466.24 535.414 1468.53 Q537.312 1470.82 537.312 1474.13 Q537.312 1479.15 534.233 1481.84 Q531.178 1484.52 525.46 1484.52 Q519.743 1484.52 516.664 1481.84 Q513.608 1479.15 513.608 1474.13 Q513.608 1470.82 515.507 1468.53 Q517.405 1466.24 520.784 1465.45 M519.071 1458.06 Q519.071 1460.75 520.738 1462.25 Q522.428 1463.76 525.46 1463.76 Q528.469 1463.76 530.159 1462.25 Q531.872 1460.75 531.872 1458.06 Q531.872 1455.38 530.159 1453.88 Q528.469 1452.37 525.46 1452.37 Q522.428 1452.37 520.738 1453.88 Q519.071 1455.38 519.071 1458.06 Z" fill="#000000" fill-rule="evenodd" fill-opacity="1" /><path clip-path="url(#clip500)" d="M 0 0 M556.201 1464.71 Q553.053 1464.71 551.201 1466.86 Q549.372 1469.01 549.372 1472.76 Q549.372 1476.49 551.201 1478.67 Q553.053 1480.82 556.201 1480.82 Q559.349 1480.82 561.178 1478.67 Q563.029 1476.49 563.029 1472.76 Q563.029 1469.01 561.178 1466.86 Q559.349 1464.71 556.201 1464.71 M565.483 1450.06 L565.483 1454.31 Q563.724 1453.48 561.918 1453.04 Q560.136 1452.6 558.377 1452.6 Q553.747 1452.6 551.293 1455.73 Q548.863 1458.85 548.516 1465.17 Q549.881 1463.16 551.942 1462.09 Q554.002 1461 556.479 1461 Q561.687 1461 564.696 1464.18 Q567.728 1467.32 567.728 1472.76 Q567.728 1478.09 564.58 1481.31 Q561.432 1484.52 556.201 1484.52 Q550.205 1484.52 547.034 1479.94 Q543.863 1475.33 543.863 1466.61 Q543.863 1458.41 547.752 1453.55 Q551.641 1448.67 558.192 1448.67 Q559.951 1448.67 561.733 1449.01 Q563.539 1449.36 565.483 1450.06 Z" fill="#000000" fill-rule="evenodd" fill-opacity="1" /><path clip-path="url(#clip500)" d="M 0 0 M915.284 1467.44 Q911.95 1467.44 910.029 1469.22 Q908.131 1471 908.131 1474.13 Q908.131 1477.25 910.029 1479.04 Q911.95 1480.82 915.284 1480.82 Q918.617 1480.82 920.538 1479.04 Q922.46 1477.23 922.46 1474.13 Q922.46 1471 920.538 1469.22 Q918.64 1467.44 915.284 1467.44 M910.608 1465.45 Q907.599 1464.71 905.909 1462.65 Q904.242 1460.59 904.242 1457.63 Q904.242 1453.48 907.182 1451.07 Q910.145 1448.67 915.284 1448.67 Q920.446 1448.67 923.386 1451.07 Q926.325 1453.48 926.325 1457.63 Q926.325 1460.59 924.636 1462.65 Q922.969 1464.71 919.983 1465.45 Q923.362 1466.24 925.237 1468.53 Q927.136 1470.82 927.136 1474.13 Q927.136 1479.15 924.057 1481.84 Q921.001 1484.52 915.284 1484.52 Q909.566 1484.52 906.487 1481.84 Q903.432 1479.15 903.432 1474.13 Q903.432 1470.82 905.33 1468.53 Q907.228 1466.24 910.608 1465.45 M908.895 1458.06 Q908.895 1460.75 910.562 1462.25 Q912.251 1463.76 915.284 1463.76 Q918.293 1463.76 919.983 1462.25 Q921.696 1460.75 921.696 1458.06 Q921.696 1455.38 919.983 1453.88 Q918.293 1452.37 915.284 1452.37 Q912.251 1452.37 910.562 1453.88 Q908.895 1455.38 908.895 1458.06 Z" fill="#000000" fill-rule="evenodd" fill-opacity="1" /><path clip-path="url(#clip500)" d="M 0 0 M945.446 1467.44 Q942.112 1467.44 940.191 1469.22 Q938.293 1471 938.293 1474.13 Q938.293 1477.25 940.191 1479.04 Q942.112 1480.82 945.446 1480.82 Q948.779 1480.82 950.7 1479.04 Q952.622 1477.23 952.622 1474.13 Q952.622 1471 950.7 1469.22 Q948.802 1467.44 945.446 1467.44 M940.77 1465.45 Q937.76 1464.71 936.071 1462.65 Q934.404 1460.59 934.404 1457.63 Q934.404 1453.48 937.344 1451.07 Q940.307 1448.67 945.446 1448.67 Q950.608 1448.67 953.547 1451.07 Q956.487 1453.48 956.487 1457.63 Q956.487 1460.59 954.797 1462.65 Q953.131 1464.71 950.145 1465.45 Q953.524 1466.24 955.399 1468.53 Q957.297 1470.82 957.297 1474.13 Q957.297 1479.15 954.219 1481.84 Q951.163 1484.52 945.446 1484.52 Q939.728 1484.52 936.649 1481.84 Q933.594 1479.15 933.594 1474.13 Q933.594 1470.82 935.492 1468.53 Q937.39 1466.24 940.77 1465.45 M939.057 1458.06 Q939.057 1460.75 940.723 1462.25 Q942.413 1463.76 945.446 1463.76 Q948.455 1463.76 950.145 1462.25 Q951.858 1460.75 951.858 1458.06 Q951.858 1455.38 950.145 1453.88 Q948.455 1452.37 945.446 1452.37 Q942.413 1452.37 940.723 1453.88 Q939.057 1455.38 939.057 1458.06 Z" fill="#000000" fill-rule="evenodd" fill-opacity="1" /><path clip-path="url(#clip500)" d="M 0 0 M1295.19 1483.13 L1295.19 1478.88 Q1296.95 1479.71 1298.75 1480.15 Q1300.56 1480.59 1302.29 1480.59 Q1306.92 1480.59 1309.35 1477.49 Q1311.81 1474.36 1312.16 1468.02 Q1310.81 1470.01 1308.75 1471.07 Q1306.69 1472.14 1304.19 1472.14 Q1299.01 1472.14 1295.98 1469.01 Q1292.97 1465.87 1292.97 1460.43 Q1292.97 1455.1 1296.11 1451.88 Q1299.26 1448.67 1304.49 1448.67 Q1310.49 1448.67 1313.64 1453.27 Q1316.81 1457.86 1316.81 1466.61 Q1316.81 1474.78 1312.92 1479.66 Q1309.05 1484.52 1302.5 1484.52 Q1300.74 1484.52 1298.94 1484.18 Q1297.13 1483.83 1295.19 1483.13 M1304.49 1468.48 Q1307.64 1468.48 1309.47 1466.33 Q1311.32 1464.18 1311.32 1460.43 Q1311.32 1456.7 1309.47 1454.55 Q1307.64 1452.37 1304.49 1452.37 Q1301.35 1452.37 1299.49 1454.55 Q1297.67 1456.7 1297.67 1460.43 Q1297.67 1464.18 1299.49 1466.33 Q1301.35 1468.48 1304.49 1468.48 Z" fill="#000000" fill-rule="evenodd" fill-opacity="1" /><path clip-path="url(#clip500)" d="M 0 0 M1335.21 1452.37 Q1331.6 1452.37 1329.77 1455.94 Q1327.97 1459.48 1327.97 1466.61 Q1327.97 1473.71 1329.77 1477.28 Q1331.6 1480.82 1335.21 1480.82 Q1338.85 1480.82 1340.65 1477.28 Q1342.48 1473.71 1342.48 1466.61 Q1342.48 1459.48 1340.65 1455.94 Q1338.85 1452.37 1335.21 1452.37 M1335.21 1448.67 Q1341.02 1448.67 1344.08 1453.27 Q1347.16 1457.86 1347.16 1466.61 Q1347.16 1475.33 1344.08 1479.94 Q1341.02 1484.52 1335.21 1484.52 Q1329.4 1484.52 1326.32 1479.94 Q1323.27 1475.33 1323.27 1466.61 Q1323.27 1457.86 1326.32 1453.27 Q1329.4 1448.67 1335.21 1448.67 Z" fill="#000000" fill-rule="evenodd" fill-opacity="1" /><path clip-path="url(#clip500)" d="M 0 0 M1685.68 1483.13 L1685.68 1478.88 Q1687.44 1479.71 1689.25 1480.15 Q1691.05 1480.59 1692.79 1480.59 Q1697.42 1480.59 1699.85 1477.49 Q1702.3 1474.36 1702.65 1468.02 Q1701.31 1470.01 1699.25 1471.07 Q1697.19 1472.14 1694.69 1472.14 Q1689.5 1472.14 1686.47 1469.01 Q1683.46 1465.87 1683.46 1460.43 Q1683.46 1455.1 1686.61 1451.88 Q1689.76 1448.67 1694.99 1448.67 Q1700.98 1448.67 1704.13 1453.27 Q1707.3 1457.86 1707.3 1466.61 Q1707.3 1474.78 1703.41 1479.66 Q1699.55 1484.52 1693 1484.52 Q1691.24 1484.52 1689.43 1484.18 Q1687.63 1483.83 1685.68 1483.13 M1694.99 1468.48 Q1698.14 1468.48 1699.97 1466.33 Q1701.82 1464.18 1701.82 1460.43 Q1701.82 1456.7 1699.97 1454.55 Q1698.14 1452.37 1694.99 1452.37 Q1691.84 1452.37 1689.99 1454.55 Q1688.16 1456.7 1688.16 1460.43 Q1688.16 1464.18 1689.99 1466.33 Q1691.84 1468.48 1694.99 1468.48 Z" fill="#000000" fill-rule="evenodd" fill-opacity="1" /><path clip-path="url(#clip500)" d="M 0 0 M1719.73 1479.92 L1736.05 1479.92 L1736.05 1483.85 L1714.11 1483.85 L1714.11 1479.92 Q1716.77 1477.16 1721.35 1472.53 Q1725.96 1467.88 1727.14 1466.54 Q1729.39 1464.01 1730.27 1462.28 Q1731.17 1460.52 1731.17 1458.83 Q1731.17 1456.07 1729.22 1454.34 Q1727.3 1452.6 1724.2 1452.6 Q1722 1452.6 1719.55 1453.37 Q1717.12 1454.13 1714.34 1455.68 L1714.34 1450.96 Q1717.16 1449.82 1719.62 1449.25 Q1722.07 1448.67 1724.11 1448.67 Q1729.48 1448.67 1732.67 1451.35 Q1735.87 1454.04 1735.87 1458.53 Q1735.87 1460.66 1735.06 1462.58 Q1734.27 1464.48 1732.16 1467.07 Q1731.59 1467.74 1728.48 1470.96 Q1725.38 1474.15 1719.73 1479.92 Z" fill="#000000" fill-rule="evenodd" fill-opacity="1" /><path clip-path="url(#clip500)" d="M 0 0 M2074.34 1483.13 L2074.34 1478.88 Q2076.1 1479.71 2077.9 1480.15 Q2079.71 1480.59 2081.44 1480.59 Q2086.07 1480.59 2088.5 1477.49 Q2090.96 1474.36 2091.31 1468.02 Q2089.96 1470.01 2087.9 1471.07 Q2085.84 1472.14 2083.34 1472.14 Q2078.16 1472.14 2075.12 1469.01 Q2072.12 1465.87 2072.12 1460.43 Q2072.12 1455.1 2075.26 1451.88 Q2078.41 1448.67 2083.64 1448.67 Q2089.64 1448.67 2092.79 1453.27 Q2095.96 1457.86 2095.96 1466.61 Q2095.96 1474.78 2092.07 1479.66 Q2088.2 1484.52 2081.65 1484.52 Q2079.89 1484.52 2078.09 1484.18 Q2076.28 1483.83 2074.34 1483.13 M2083.64 1468.48 Q2086.79 1468.48 2088.62 1466.33 Q2090.47 1464.18 2090.47 1460.43 Q2090.47 1456.7 2088.62 1454.55 Q2086.79 1452.37 2083.64 1452.37 Q2080.5 1452.37 2078.64 1454.55 Q2076.81 1456.7 2076.81 1460.43 Q2076.81 1464.18 2078.64 1466.33 Q2080.5 1468.48 2083.64 1468.48 Z" fill="#000000" fill-rule="evenodd" fill-opacity="1" /><path clip-path="url(#clip500)" d="M 0 0 M2117.21 1453.37 L2105.4 1471.81 L2117.21 1471.81 L2117.21 1453.37 M2115.98 1449.29 L2121.86 1449.29 L2121.86 1471.81 L2126.79 1471.81 L2126.79 1475.7 L2121.86 1475.7 L2121.86 1483.85 L2117.21 1483.85 L2117.21 1475.7 L2101.61 1475.7 L2101.61 1471.19 L2115.98 1449.29 Z" fill="#000000" fill-rule="evenodd" fill-opacity="1" /><path clip-path="url(#clip500)" d="M 0 0 M1198.25 1518.52 L1198.25 1531.66 Q1204.59 1531.66 1208.82 1536.53 Q1213.18 1541.5 1213.18 1550.25 Q1213.18 1559 1208.82 1563.97 Q1204.59 1568.84 1198.25 1568.84 L1198.25 1581.6 L1192.43 1581.6 L1192.43 1568.84 Q1186.09 1568.84 1181.83 1563.97 Q1177.5 1559 1177.5 1550.25 Q1177.5 1541.5 1181.83 1536.53 Q1186.09 1531.66 1192.43 1531.66 L1192.43 1518.52 L1198.25 1518.52 M1198.25 1563.62 Q1201.85 1563.62 1204.3 1560.34 Q1206.97 1556.68 1207.01 1550.25 Q1207.04 1543.89 1204.3 1540.16 Q1201.85 1536.88 1198.25 1536.88 L1198.25 1563.62 M1192.43 1563.62 L1192.43 1536.88 Q1188.83 1536.88 1186.41 1540.16 Q1183.64 1543.89 1183.68 1550.25 Q1183.71 1556.68 1186.41 1560.34 Q1188.83 1563.62 1192.43 1563.62 Z" fill="#000000" fill-rule="evenodd" fill-opacity="1" /><path clip-path="url(#clip500)" d="M 0 0 M1267.26 1537.81 L1267.26 1518.52 L1273.11 1518.52 L1273.11 1568.04 L1267.26 1568.04 L1267.26 1562.7 Q1265.41 1565.88 1262.58 1567.44 Q1259.78 1568.97 1255.83 1568.97 Q1249.37 1568.97 1245.3 1563.81 Q1241.25 1558.65 1241.25 1550.25 Q1241.25 1541.85 1245.3 1536.69 Q1249.37 1531.54 1255.83 1531.54 Q1259.78 1531.54 1262.58 1533.1 Q1265.41 1534.62 1267.26 1537.81 M1247.3 1550.25 Q1247.3 1556.71 1249.94 1560.4 Q1252.62 1564.07 1257.26 1564.07 Q1261.91 1564.07 1264.58 1560.4 Q1267.26 1556.71 1267.26 1550.25 Q1267.26 1543.79 1264.58 1540.13 Q1261.91 1536.44 1257.26 1536.44 Q1252.62 1536.44 1249.94 1540.13 Q1247.3 1543.79 1247.3 1550.25 Z" fill="#000000" fill-rule="evenodd" fill-opacity="1" /><path clip-path="url(#clip500)" d="M 0 0 M1315.67 1548.76 L1315.67 1551.62 L1288.74 1551.62 Q1289.12 1557.67 1292.37 1560.85 Q1295.65 1564 1301.47 1564 Q1304.85 1564 1308 1563.17 Q1311.18 1562.35 1314.3 1560.69 L1314.3 1566.23 Q1311.15 1567.57 1307.84 1568.27 Q1304.53 1568.97 1301.12 1568.97 Q1292.59 1568.97 1287.6 1564 Q1282.63 1559.04 1282.63 1550.57 Q1282.63 1541.82 1287.34 1536.69 Q1292.08 1531.54 1300.1 1531.54 Q1307.3 1531.54 1311.47 1536.18 Q1315.67 1540.8 1315.67 1548.76 M1309.81 1547.04 Q1309.75 1542.23 1307.11 1539.37 Q1304.5 1536.5 1300.17 1536.5 Q1295.27 1536.5 1292.31 1539.27 Q1289.38 1542.04 1288.93 1547.07 L1309.81 1547.04 Z" fill="#000000" fill-rule="evenodd" fill-opacity="1" /><path clip-path="url(#clip500)" d="M 0 0 M1348.74 1549.81 Q1348.74 1543.44 1346.1 1539.94 Q1343.49 1536.44 1338.74 1536.44 Q1334.03 1536.44 1331.39 1539.94 Q1328.78 1543.44 1328.78 1549.81 Q1328.78 1556.14 1331.39 1559.64 Q1334.03 1563.14 1338.74 1563.14 Q1343.49 1563.14 1346.1 1559.64 Q1348.74 1556.14 1348.74 1549.81 M1354.59 1563.62 Q1354.59 1572.72 1350.55 1577.15 Q1346.51 1581.6 1338.17 1581.6 Q1335.08 1581.6 1332.35 1581.13 Q1329.61 1580.68 1327.03 1579.72 L1327.03 1574.03 Q1329.61 1575.43 1332.12 1576.1 Q1334.64 1576.76 1337.25 1576.76 Q1343.01 1576.76 1345.87 1573.74 Q1348.74 1570.75 1348.74 1564.67 L1348.74 1561.77 Q1346.92 1564.92 1344.09 1566.48 Q1341.26 1568.04 1337.31 1568.04 Q1330.76 1568.04 1326.74 1563.05 Q1322.73 1558.05 1322.73 1549.81 Q1322.73 1541.53 1326.74 1536.53 Q1330.76 1531.54 1337.31 1531.54 Q1341.26 1531.54 1344.09 1533.1 Q1346.92 1534.66 1348.74 1537.81 L1348.74 1532.4 L1354.59 1532.4 L1354.59 1563.62 Z" fill="#000000" fill-rule="evenodd" fill-opacity="1" /><path clip-path="url(#clip500)" d="M 0 0 M1387.31 1537.87 Q1386.33 1537.3 1385.15 1537.04 Q1384 1536.76 1382.6 1536.76 Q1377.64 1536.76 1374.97 1540 Q1372.32 1543.22 1372.32 1549.27 L1372.32 1568.04 L1366.44 1568.04 L1366.44 1532.4 L1372.32 1532.4 L1372.32 1537.93 Q1374.17 1534.69 1377.13 1533.13 Q1380.09 1531.54 1384.32 1531.54 Q1384.93 1531.54 1385.66 1531.63 Q1386.39 1531.7 1387.28 1531.85 L1387.31 1537.87 Z" fill="#000000" fill-rule="evenodd" fill-opacity="1" /><path clip-path="url(#clip500)" d="M 0 0 M1422.52 1548.76 L1422.52 1551.62 L1395.59 1551.62 Q1395.97 1557.67 1399.22 1560.85 Q1402.5 1564 1408.32 1564 Q1411.7 1564 1414.85 1563.17 Q1418.03 1562.35 1421.15 1560.69 L1421.15 1566.23 Q1418 1567.57 1414.69 1568.27 Q1411.38 1568.97 1407.97 1568.97 Q1399.44 1568.97 1394.44 1564 Q1389.48 1559.04 1389.48 1550.57 Q1389.48 1541.82 1394.19 1536.69 Q1398.93 1531.54 1406.95 1531.54 Q1414.15 1531.54 1418.32 1536.18 Q1422.52 1540.8 1422.52 1548.76 M1416.66 1547.04 Q1416.6 1542.23 1413.96 1539.37 Q1411.35 1536.5 1407.02 1536.5 Q1402.11 1536.5 1399.15 1539.27 Q1396.23 1542.04 1395.78 1547.07 L1416.66 1547.04 Z" fill="#000000" fill-rule="evenodd" fill-opacity="1" /><path clip-path="url(#clip500)" d="M 0 0 M1462.62 1548.76 L1462.62 1551.62 L1435.69 1551.62 Q1436.08 1557.67 1439.32 1560.85 Q1442.6 1564 1448.43 1564 Q1451.8 1564 1454.95 1563.17 Q1458.13 1562.35 1461.25 1560.69 L1461.25 1566.23 Q1458.1 1567.57 1454.79 1568.27 Q1451.48 1568.97 1448.08 1568.97 Q1439.55 1568.97 1434.55 1564 Q1429.58 1559.04 1429.58 1550.57 Q1429.58 1541.82 1434.29 1536.69 Q1439.04 1531.54 1447.06 1531.54 Q1454.25 1531.54 1458.42 1536.18 Q1462.62 1540.8 1462.62 1548.76 M1456.76 1547.04 Q1456.7 1542.23 1454.06 1539.37 Q1451.45 1536.5 1447.12 1536.5 Q1442.22 1536.5 1439.26 1539.27 Q1436.33 1542.04 1435.88 1547.07 L1456.76 1547.04 Z" fill="#000000" fill-rule="evenodd" fill-opacity="1" /><polyline clip-path="url(#clip502)" style="stroke:#000000; stroke-width:2; stroke-opacity:0.1; fill:none" points="
  287.366,1303.37 2352.76,1303.37 
  "/>
<polyline clip-path="url(#clip502)" style="stroke:#000000; stroke-width:2; stroke-opacity:0.1; fill:none" points="
  287.366,978.029 2352.76,978.029 
  "/>
<polyline clip-path="url(#clip502)" style="stroke:#000000; stroke-width:2; stroke-opacity:0.1; fill:none" points="
  287.366,652.683 2352.76,652.683 
  "/>
<polyline clip-path="url(#clip502)" style="stroke:#000000; stroke-width:2; stroke-opacity:0.1; fill:none" points="
  287.366,327.338 2352.76,327.338 
  "/>
<polyline clip-path="url(#clip500)" style="stroke:#000000; stroke-width:4; stroke-opacity:1; fill:none" points="
  287.366,1423.18 287.366,123.472 
  "/>
<polyline clip-path="url(#clip500)" style="stroke:#000000; stroke-width:4; stroke-opacity:1; fill:none" points="
  287.366,1303.37 312.151,1303.37 
  "/>
<polyline clip-path="url(#clip500)" style="stroke:#000000; stroke-width:4; stroke-opacity:1; fill:none" points="
  287.366,978.029 312.151,978.029 
  "/>
<polyline clip-path="url(#clip500)" style="stroke:#000000; stroke-width:4; stroke-opacity:1; fill:none" points="
  287.366,652.683 312.151,652.683 
  "/>
<polyline clip-path="url(#clip500)" style="stroke:#000000; stroke-width:4; stroke-opacity:1; fill:none" points="
  287.366,327.338 312.151,327.338 
  "/>
<path clip-path="url(#clip500)" d="M 0 0 M115.857 1303.83 L145.533 1303.83 L145.533 1307.76 L115.857 1307.76 L115.857 1303.83 Z" fill="#000000" fill-rule="evenodd" fill-opacity="1" /><path clip-path="url(#clip500)" d="M 0 0 M165.626 1289.17 Q162.015 1289.17 160.186 1292.74 Q158.38 1296.28 158.38 1303.41 Q158.38 1310.52 160.186 1314.08 Q162.015 1317.62 165.626 1317.62 Q169.26 1317.62 171.065 1314.08 Q172.894 1310.52 172.894 1303.41 Q172.894 1296.28 171.065 1292.74 Q169.26 1289.17 165.626 1289.17 M165.626 1285.47 Q171.436 1285.47 174.491 1290.08 Q177.57 1294.66 177.57 1303.41 Q177.57 1312.14 174.491 1316.74 Q171.436 1321.33 165.626 1321.33 Q159.815 1321.33 156.737 1316.74 Q153.681 1312.14 153.681 1303.41 Q153.681 1294.66 156.737 1290.08 Q159.815 1285.47 165.626 1285.47 Z" fill="#000000" fill-rule="evenodd" fill-opacity="1" /><path clip-path="url(#clip500)" d="M 0 0 M185.788 1314.78 L190.672 1314.78 L190.672 1320.65 L185.788 1320.65 L185.788 1314.78 Z" fill="#000000" fill-rule="evenodd" fill-opacity="1" /><path clip-path="url(#clip500)" d="M 0 0 M213.704 1290.17 L201.899 1308.62 L213.704 1308.62 L213.704 1290.17 M212.477 1286.09 L218.357 1286.09 L218.357 1308.62 L223.287 1308.62 L223.287 1312.51 L218.357 1312.51 L218.357 1320.65 L213.704 1320.65 L213.704 1312.51 L198.102 1312.51 L198.102 1307.99 L212.477 1286.09 Z" fill="#000000" fill-rule="evenodd" fill-opacity="1" /><path clip-path="url(#clip500)" d="M 0 0 M235.047 1316.72 L251.366 1316.72 L251.366 1320.65 L229.422 1320.65 L229.422 1316.72 Q232.084 1313.96 236.667 1309.34 Q241.273 1304.68 242.454 1303.34 Q244.699 1300.82 245.579 1299.08 Q246.482 1297.32 246.482 1295.63 Q246.482 1292.88 244.537 1291.14 Q242.616 1289.4 239.514 1289.4 Q237.315 1289.4 234.861 1290.17 Q232.431 1290.93 229.653 1292.48 L229.653 1287.76 Q232.477 1286.63 234.931 1286.05 Q237.384 1285.47 239.422 1285.47 Q244.792 1285.47 247.986 1288.15 Q251.181 1290.84 251.181 1295.33 Q251.181 1297.46 250.371 1299.38 Q249.584 1301.28 247.477 1303.87 Q246.898 1304.54 243.797 1307.76 Q240.695 1310.96 235.047 1316.72 Z" fill="#000000" fill-rule="evenodd" fill-opacity="1" /><path clip-path="url(#clip500)" d="M 0 0 M115.487 978.48 L145.163 978.48 L145.163 982.416 L115.487 982.416 L115.487 978.48 Z" fill="#000000" fill-rule="evenodd" fill-opacity="1" /><path clip-path="url(#clip500)" d="M 0 0 M165.255 963.828 Q161.644 963.828 159.815 967.393 Q158.01 970.934 158.01 978.064 Q158.01 985.17 159.815 988.735 Q161.644 992.277 165.255 992.277 Q168.889 992.277 170.695 988.735 Q172.524 985.17 172.524 978.064 Q172.524 970.934 170.695 967.393 Q168.889 963.828 165.255 963.828 M165.255 960.124 Q171.065 960.124 174.121 964.731 Q177.2 969.314 177.2 978.064 Q177.2 986.791 174.121 991.397 Q171.065 995.98 165.255 995.98 Q159.445 995.98 156.366 991.397 Q153.311 986.791 153.311 978.064 Q153.311 969.314 156.366 964.731 Q159.445 960.124 165.255 960.124 Z" fill="#000000" fill-rule="evenodd" fill-opacity="1" /><path clip-path="url(#clip500)" d="M 0 0 M185.417 989.429 L190.301 989.429 L190.301 995.309 L185.417 995.309 L185.417 989.429 Z" fill="#000000" fill-rule="evenodd" fill-opacity="1" /><path clip-path="url(#clip500)" d="M 0 0 M213.334 964.823 L201.528 983.272 L213.334 983.272 L213.334 964.823 M212.107 960.749 L217.986 960.749 L217.986 983.272 L222.917 983.272 L222.917 987.161 L217.986 987.161 L217.986 995.309 L213.334 995.309 L213.334 987.161 L197.732 987.161 L197.732 982.647 L212.107 960.749 Z" fill="#000000" fill-rule="evenodd" fill-opacity="1" /><path clip-path="url(#clip500)" d="M 0 0 M231.459 991.374 L239.097 991.374 L239.097 965.008 L230.787 966.675 L230.787 962.416 L239.051 960.749 L243.727 960.749 L243.727 991.374 L251.366 991.374 L251.366 995.309 L231.459 995.309 L231.459 991.374 Z" fill="#000000" fill-rule="evenodd" fill-opacity="1" /><path clip-path="url(#clip500)" d="M 0 0 M114.26 653.135 L143.936 653.135 L143.936 657.07 L114.26 657.07 L114.26 653.135 Z" fill="#000000" fill-rule="evenodd" fill-opacity="1" /><path clip-path="url(#clip500)" d="M 0 0 M164.028 638.482 Q160.417 638.482 158.589 642.047 Q156.783 645.588 156.783 652.718 Q156.783 659.825 158.589 663.389 Q160.417 666.931 164.028 666.931 Q167.663 666.931 169.468 663.389 Q171.297 659.825 171.297 652.718 Q171.297 645.588 169.468 642.047 Q167.663 638.482 164.028 638.482 M164.028 634.778 Q169.839 634.778 172.894 639.385 Q175.973 643.968 175.973 652.718 Q175.973 661.445 172.894 666.051 Q169.839 670.635 164.028 670.635 Q158.218 670.635 155.14 666.051 Q152.084 661.445 152.084 652.718 Q152.084 643.968 155.14 639.385 Q158.218 634.778 164.028 634.778 Z" fill="#000000" fill-rule="evenodd" fill-opacity="1" /><path clip-path="url(#clip500)" d="M 0 0 M184.19 664.084 L189.075 664.084 L189.075 669.963 L184.19 669.963 L184.19 664.084 Z" fill="#000000" fill-rule="evenodd" fill-opacity="1" /><path clip-path="url(#clip500)" d="M 0 0 M212.107 639.477 L200.301 657.926 L212.107 657.926 L212.107 639.477 M210.88 635.403 L216.76 635.403 L216.76 657.926 L221.69 657.926 L221.69 661.815 L216.76 661.815 L216.76 669.963 L212.107 669.963 L212.107 661.815 L196.505 661.815 L196.505 657.301 L210.88 635.403 Z" fill="#000000" fill-rule="evenodd" fill-opacity="1" /><path clip-path="url(#clip500)" d="M 0 0 M239.422 638.482 Q235.81 638.482 233.982 642.047 Q232.176 645.588 232.176 652.718 Q232.176 659.825 233.982 663.389 Q235.81 666.931 239.422 666.931 Q243.056 666.931 244.861 663.389 Q246.69 659.825 246.69 652.718 Q246.69 645.588 244.861 642.047 Q243.056 638.482 239.422 638.482 M239.422 634.778 Q245.232 634.778 248.287 639.385 Q251.366 643.968 251.366 652.718 Q251.366 661.445 248.287 666.051 Q245.232 670.635 239.422 670.635 Q233.611 670.635 230.533 666.051 Q227.477 661.445 227.477 652.718 Q227.477 643.968 230.533 639.385 Q233.611 634.778 239.422 634.778 Z" fill="#000000" fill-rule="evenodd" fill-opacity="1" /><path clip-path="url(#clip500)" d="M 0 0 M114.445 327.789 L144.121 327.789 L144.121 331.724 L114.445 331.724 L114.445 327.789 Z" fill="#000000" fill-rule="evenodd" fill-opacity="1" /><path clip-path="url(#clip500)" d="M 0 0 M164.214 313.136 Q160.603 313.136 158.774 316.701 Q156.968 320.243 156.968 327.372 Q156.968 334.479 158.774 338.044 Q160.603 341.585 164.214 341.585 Q167.848 341.585 169.653 338.044 Q171.482 334.479 171.482 327.372 Q171.482 320.243 169.653 316.701 Q167.848 313.136 164.214 313.136 M164.214 309.433 Q170.024 309.433 173.079 314.039 Q176.158 318.622 176.158 327.372 Q176.158 336.099 173.079 340.706 Q170.024 345.289 164.214 345.289 Q158.403 345.289 155.325 340.706 Q152.269 336.099 152.269 327.372 Q152.269 318.622 155.325 314.039 Q158.403 309.433 164.214 309.433 Z" fill="#000000" fill-rule="evenodd" fill-opacity="1" /><path clip-path="url(#clip500)" d="M 0 0 M184.376 338.738 L189.26 338.738 L189.26 344.618 L184.376 344.618 L184.376 338.738 Z" fill="#000000" fill-rule="evenodd" fill-opacity="1" /><path clip-path="url(#clip500)" d="M 0 0 M213.611 325.984 Q216.968 326.701 218.843 328.97 Q220.741 331.238 220.741 334.571 Q220.741 339.687 217.223 342.488 Q213.704 345.289 207.223 345.289 Q205.047 345.289 202.732 344.849 Q200.44 344.432 197.987 343.576 L197.987 339.062 Q199.931 340.196 202.246 340.775 Q204.561 341.354 207.084 341.354 Q211.482 341.354 213.774 339.618 Q216.088 337.882 216.088 334.571 Q216.088 331.516 213.936 329.803 Q211.806 328.067 207.987 328.067 L203.959 328.067 L203.959 324.224 L208.172 324.224 Q211.621 324.224 213.449 322.859 Q215.278 321.47 215.278 318.877 Q215.278 316.215 213.38 314.803 Q211.505 313.368 207.987 313.368 Q206.065 313.368 203.866 313.785 Q201.667 314.201 199.028 315.081 L199.028 310.914 Q201.69 310.173 204.005 309.803 Q206.343 309.433 208.403 309.433 Q213.727 309.433 216.829 311.863 Q219.931 314.271 219.931 318.391 Q219.931 321.261 218.287 323.252 Q216.644 325.22 213.611 325.984 Z" fill="#000000" fill-rule="evenodd" fill-opacity="1" /><path clip-path="url(#clip500)" d="M 0 0 M229.746 343.9 L229.746 339.641 Q231.505 340.474 233.31 340.914 Q235.116 341.354 236.852 341.354 Q241.482 341.354 243.912 338.252 Q246.366 335.127 246.713 328.784 Q245.371 330.775 243.31 331.84 Q241.25 332.905 238.75 332.905 Q233.565 332.905 230.533 329.78 Q227.523 326.632 227.523 321.192 Q227.523 315.868 230.672 312.65 Q233.82 309.433 239.051 309.433 Q245.046 309.433 248.195 314.039 Q251.366 318.622 251.366 327.372 Q251.366 335.544 247.477 340.428 Q243.611 345.289 237.06 345.289 Q235.301 345.289 233.496 344.942 Q231.69 344.595 229.746 343.9 M239.051 329.247 Q242.199 329.247 244.028 327.095 Q245.88 324.942 245.88 321.192 Q245.88 317.465 244.028 315.312 Q242.199 313.136 239.051 313.136 Q235.903 313.136 234.051 315.312 Q232.222 317.465 232.222 321.192 Q232.222 324.942 234.051 327.095 Q235.903 329.247 239.051 329.247 Z" fill="#000000" fill-rule="evenodd" fill-opacity="1" /><path clip-path="url(#clip500)" d="M 0 0 M16.4842 788.636 L16.4842 758.589 L21.895 758.589 L21.895 782.206 L35.9632 782.206 L35.9632 759.576 L41.3741 759.576 L41.3741 782.206 L58.5933 782.206 L58.5933 758.016 L64.0042 758.016 L64.0042 788.636 L16.4842 788.636 Z" fill="#000000" fill-rule="evenodd" fill-opacity="1" /><path clip-path="url(#clip500)" d="M 0 0 M1180.65 48.0275 L1180.65 51.6733 L1146.38 51.6733 Q1146.86 59.3701 1151 63.421 Q1155.17 67.4314 1162.58 67.4314 Q1166.88 67.4314 1170.89 66.3781 Q1174.94 65.3249 1178.91 63.2184 L1178.91 70.267 Q1174.9 71.9684 1170.68 72.8596 Q1166.47 73.7508 1162.14 73.7508 Q1151.28 73.7508 1144.92 67.4314 Q1138.6 61.1119 1138.6 50.3365 Q1138.6 39.1965 1144.6 32.6746 Q1150.63 26.1121 1160.84 26.1121 Q1170 26.1121 1175.3 32.0264 Q1180.65 37.9003 1180.65 48.0275 M1173.2 45.84 Q1173.11 39.7232 1169.75 36.0774 Q1166.43 32.4315 1160.92 32.4315 Q1154.68 32.4315 1150.92 35.9558 Q1147.19 39.4801 1146.62 45.8805 L1173.2 45.84 Z" fill="#000000" fill-rule="evenodd" fill-opacity="1" /><path clip-path="url(#clip500)" d="M 0 0 M1230.6 45.1919 L1230.6 72.576 L1223.14 72.576 L1223.14 45.4349 Q1223.14 38.994 1220.63 35.7938 Q1218.12 32.5936 1213.1 32.5936 Q1207.06 32.5936 1203.58 36.4419 Q1200.09 40.2903 1200.09 46.9338 L1200.09 72.576 L1192.6 72.576 L1192.6 27.2059 L1200.09 27.2059 L1200.09 34.2544 Q1202.77 30.163 1206.37 28.1376 Q1210.02 26.1121 1214.76 26.1121 Q1222.58 26.1121 1226.59 30.9732 Q1230.6 35.7938 1230.6 45.1919 Z" fill="#000000" fill-rule="evenodd" fill-opacity="1" /><path clip-path="url(#clip500)" d="M 0 0 M1284.27 48.0275 L1284.27 51.6733 L1250 51.6733 Q1250.49 59.3701 1254.62 63.421 Q1258.79 67.4314 1266.2 67.4314 Q1270.5 67.4314 1274.51 66.3781 Q1278.56 65.3249 1282.53 63.2184 L1282.53 70.267 Q1278.52 71.9684 1274.31 72.8596 Q1270.09 73.7508 1265.76 73.7508 Q1254.9 73.7508 1248.54 67.4314 Q1242.22 61.1119 1242.22 50.3365 Q1242.22 39.1965 1248.22 32.6746 Q1254.25 26.1121 1264.46 26.1121 Q1273.62 26.1121 1278.92 32.0264 Q1284.27 37.9003 1284.27 48.0275 M1276.82 45.84 Q1276.74 39.7232 1273.37 36.0774 Q1270.05 32.4315 1264.54 32.4315 Q1258.3 32.4315 1254.54 35.9558 Q1250.81 39.4801 1250.24 45.8805 L1276.82 45.84 Z" fill="#000000" fill-rule="evenodd" fill-opacity="1" /><path clip-path="url(#clip500)" d="M 0 0 M1322.8 34.1734 Q1321.54 33.4443 1320.04 33.1202 Q1318.58 32.7556 1316.8 32.7556 Q1310.48 32.7556 1307.08 36.8875 Q1303.72 40.9789 1303.72 48.6757 L1303.72 72.576 L1296.22 72.576 L1296.22 27.2059 L1303.72 27.2059 L1303.72 34.2544 Q1306.07 30.1225 1309.83 28.1376 Q1313.6 26.1121 1318.99 26.1121 Q1319.76 26.1121 1320.69 26.2337 Q1321.62 26.3147 1322.75 26.5172 L1322.8 34.1734 Z" fill="#000000" fill-rule="evenodd" fill-opacity="1" /><path clip-path="url(#clip500)" d="M 0 0 M1359.01 49.3643 Q1359.01 41.2625 1355.65 36.8065 Q1352.33 32.3505 1346.29 32.3505 Q1340.3 32.3505 1336.93 36.8065 Q1333.61 41.2625 1333.61 49.3643 Q1333.61 57.4256 1336.93 61.8816 Q1340.3 66.3376 1346.29 66.3376 Q1352.33 66.3376 1355.65 61.8816 Q1359.01 57.4256 1359.01 49.3643 M1366.46 66.9452 Q1366.46 78.5308 1361.32 84.1616 Q1356.17 89.8329 1345.56 89.8329 Q1341.63 89.8329 1338.15 89.2252 Q1334.66 88.6581 1331.38 87.4428 L1331.38 80.1917 Q1334.66 81.9741 1337.86 82.8248 Q1341.06 83.6755 1344.39 83.6755 Q1351.72 83.6755 1355.36 79.8271 Q1359.01 76.0193 1359.01 68.282 L1359.01 64.5957 Q1356.7 68.6061 1353.1 70.5911 Q1349.49 72.576 1344.47 72.576 Q1336.12 72.576 1331.02 66.2161 Q1325.91 59.8562 1325.91 49.3643 Q1325.91 38.832 1331.02 32.472 Q1336.12 26.1121 1344.47 26.1121 Q1349.49 26.1121 1353.1 28.0971 Q1356.7 30.082 1359.01 34.0924 L1359.01 27.2059 L1366.46 27.2059 L1366.46 66.9452 Z" fill="#000000" fill-rule="evenodd" fill-opacity="1" /><path clip-path="url(#clip500)" d="M 0 0 M1400.69 76.7889 Q1397.53 84.8907 1394.54 87.3618 Q1391.54 89.8329 1386.52 89.8329 L1380.56 89.8329 L1380.56 83.5945 L1384.94 83.5945 Q1388.01 83.5945 1389.72 82.1361 Q1391.42 80.6778 1393.48 75.2496 L1394.82 71.8468 L1376.47 27.2059 L1384.37 27.2059 L1398.55 62.6918 L1412.73 27.2059 L1420.62 27.2059 L1400.69 76.7889 Z" fill="#000000" fill-rule="evenodd" fill-opacity="1" /><path clip-path="url(#clip500)" d="M 0 0 M1425.69 46.5287 L1447.52 46.5287 L1447.52 53.1722 L1425.69 53.1722 L1425.69 46.5287 Z" fill="#000000" fill-rule="evenodd" fill-opacity="1" /><path clip-path="url(#clip500)" d="M 0 0 M1482.52 9.54393 L1482.52 26.2742 Q1490.58 26.2742 1495.97 32.472 Q1501.52 38.7915 1501.52 49.9314 Q1501.52 61.0714 1495.97 67.3908 Q1490.58 73.5887 1482.52 73.5887 L1482.52 89.8329 L1475.11 89.8329 L1475.11 73.5887 Q1467.05 73.5887 1461.62 67.3908 Q1456.11 61.0714 1456.11 49.9314 Q1456.11 38.7915 1461.62 32.472 Q1467.05 26.2742 1475.11 26.2742 L1475.11 9.54393 L1482.52 9.54393 M1482.52 66.9452 Q1487.1 66.9452 1490.22 62.7728 Q1493.62 58.1143 1493.66 49.9314 Q1493.7 41.8296 1490.22 37.0901 Q1487.1 32.9176 1482.52 32.9176 L1482.52 66.9452 M1475.11 66.9452 L1475.11 32.9176 Q1470.53 32.9176 1467.45 37.0901 Q1463.93 41.8296 1463.97 49.9314 Q1464.01 58.1143 1467.45 62.7728 Q1470.53 66.9452 1475.11 66.9452 Z" fill="#000000" fill-rule="evenodd" fill-opacity="1" /><polyline clip-path="url(#clip502)" style="stroke:#009af9; stroke-width:8; stroke-opacity:1; fill:none" points="
  345.82,1386.4 540.668,1118.31 735.517,849.758 930.365,590.203 1125.21,536.424 1320.06,408.842 1514.91,309.072 1709.76,160.256 1904.61,202.61 2099.45,255.19 
  2294.3,310.018 
  "/>
<polyline clip-path="url(#clip502)" style="stroke:#e26f46; stroke-width:4; stroke-opacity:1; fill:none" points="
  1320.06,2722.89 1320.06,-1176.24 
  "/>
<path clip-path="url(#clip500)" d="
M1925.21 1379.86 L2283.91 1379.86 L2283.91 1198.42 L1925.21 1198.42  Z
  " fill="#ffffff" fill-rule="evenodd" fill-opacity="1"/>
<polyline clip-path="url(#clip500)" style="stroke:#000000; stroke-width:4; stroke-opacity:1; fill:none" points="
  1925.21,1379.86 2283.91,1379.86 2283.91,1198.42 1925.21,1198.42 1925.21,1379.86 
  "/>
<polyline clip-path="url(#clip500)" style="stroke:#009af9; stroke-width:4; stroke-opacity:1; fill:none" points="
  1948.16,1258.9 2085.85,1258.9 
  "/>
<path clip-path="url(#clip500)" d="M 0 0 M2113.48 1245.46 L2113.48 1272.33 L2119.12 1272.33 Q2126.28 1272.33 2129.59 1269.09 Q2132.92 1265.85 2132.92 1258.86 Q2132.92 1251.92 2129.59 1248.7 Q2126.28 1245.46 2119.12 1245.46 L2113.48 1245.46 M2108.8 1241.62 L2118.41 1241.62 Q2128.45 1241.62 2133.15 1245.81 Q2137.85 1249.97 2137.85 1258.86 Q2137.85 1267.8 2133.13 1271.99 Q2128.41 1276.18 2118.41 1276.18 L2108.8 1276.18 L2108.8 1241.62 Z" fill="#000000" fill-rule="evenodd" fill-opacity="1" /><path clip-path="url(#clip500)" d="M 0 0 M2160.74 1254.65 L2190.42 1254.65 L2190.42 1258.54 L2160.74 1258.54 L2160.74 1254.65 M2160.74 1264.09 L2190.42 1264.09 L2190.42 1268.03 L2160.74 1268.03 L2160.74 1264.09 Z" fill="#000000" fill-rule="evenodd" fill-opacity="1" /><path clip-path="url(#clip500)" d="M 0 0 M2228.43 1245.69 L2216.62 1264.14 L2228.43 1264.14 L2228.43 1245.69 M2227.2 1241.62 L2233.08 1241.62 L2233.08 1264.14 L2238.01 1264.14 L2238.01 1268.03 L2233.08 1268.03 L2233.08 1276.18 L2228.43 1276.18 L2228.43 1268.03 L2212.83 1268.03 L2212.83 1263.51 L2227.2 1241.62 Z" fill="#000000" fill-rule="evenodd" fill-opacity="1" /><polyline clip-path="url(#clip500)" style="stroke:#e26f46; stroke-width:4; stroke-opacity:1; fill:none" points="
  1948.16,1319.38 2085.85,1319.38 
  "/>
<path clip-path="url(#clip500)" d="M 0 0 M2122.64 1339.06 Q2120.84 1343.69 2119.12 1345.11 Q2117.41 1346.52 2114.54 1346.52 L2111.14 1346.52 L2111.14 1342.95 L2113.64 1342.95 Q2115.4 1342.95 2116.37 1342.12 Q2117.34 1341.29 2118.52 1338.18 L2119.29 1336.24 L2108.8 1310.73 L2113.31 1310.73 L2121.42 1331.01 L2129.52 1310.73 L2134.03 1310.73 L2122.64 1339.06 Z" fill="#000000" fill-rule="evenodd" fill-opacity="1" /><path clip-path="url(#clip500)" d="M 0 0 M2144.54 1332.72 L2160.86 1332.72 L2160.86 1336.66 L2138.92 1336.66 L2138.92 1332.72 Q2141.58 1329.97 2146.16 1325.34 Q2150.77 1320.68 2151.95 1319.34 Q2154.19 1316.82 2155.07 1315.08 Q2155.98 1313.32 2155.98 1311.63 Q2155.98 1308.88 2154.03 1307.14 Q2152.11 1305.41 2149.01 1305.41 Q2146.81 1305.41 2144.36 1306.17 Q2141.92 1306.93 2139.15 1308.49 L2139.15 1303.76 Q2141.97 1302.63 2144.42 1302.05 Q2146.88 1301.47 2148.92 1301.47 Q2154.29 1301.47 2157.48 1304.16 Q2160.67 1306.84 2160.67 1311.33 Q2160.67 1313.46 2159.86 1315.38 Q2159.08 1317.28 2156.97 1319.87 Q2156.39 1320.55 2153.29 1323.76 Q2150.19 1326.96 2144.54 1332.72 Z" fill="#000000" fill-rule="evenodd" fill-opacity="1" /></svg>
