<?xml version="1.0" encoding="utf-8"?>
<svg xmlns="http://www.w3.org/2000/svg" xmlns:xlink="http://www.w3.org/1999/xlink" width="600" height="400" viewBox="0 0 2400 1600">
<defs>
  <clipPath id="clip340">
    <rect x="0" y="0" width="2400" height="1600"/>
  </clipPath>
</defs>
<path clip-path="url(#clip340)" d="
M0 1600 L2400 1600 L2400 0 L0 0  Z
  " fill="#ffffff" fill-rule="evenodd" fill-opacity="1"/>
<defs>
  <clipPath id="clip341">
    <rect x="480" y="0" width="1681" height="1600"/>
  </clipPath>
</defs>
<path clip-path="url(#clip340)" d="
M219.866 1423.18 L2352.76 1423.18 L2352.76 123.472 L219.866 123.472  Z
  " fill="#ffffff" fill-rule="evenodd" fill-opacity="1"/>
<defs>
  <clipPath id="clip342">
    <rect x="219" y="123" width="2134" height="1301"/>
  </clipPath>
</defs>
<polyline clip-path="url(#clip342)" style="stroke:#000000; stroke-width:2; stroke-opacity:0.1; fill:none" points="
  481.447,1423.18 481.447,123.472 
  "/>
<polyline clip-path="url(#clip342)" style="stroke:#000000; stroke-width:2; stroke-opacity:0.1; fill:none" points="
  883.879,1423.18 883.879,123.472 
  "/>
<polyline clip-path="url(#clip342)" style="stroke:#000000; stroke-width:2; stroke-opacity:0.1; fill:none" points="
  1286.31,1423.18 1286.31,123.472 
  "/>
<polyline clip-path="url(#clip342)" style="stroke:#000000; stroke-width:2; stroke-opacity:0.1; fill:none" points="
  1688.74,1423.18 1688.74,123.472 
  "/>
<polyline clip-path="url(#clip342)" style="stroke:#000000; stroke-width:2; stroke-opacity:0.1; fill:none" points="
  2091.18,1423.18 2091.18,123.472 
  "/>
<polyline clip-path="url(#clip340)" style="stroke:#000000; stroke-width:4; stroke-opacity:1; fill:none" points="
  219.866,1423.18 2352.76,1423.18 
  "/>
<polyline clip-path="url(#clip340)" style="stroke:#000000; stroke-width:4; stroke-opacity:1; fill:none" points="
  481.447,1423.18 481.447,1407.58 
  "/>
<polyline clip-path="url(#clip340)" style="stroke:#000000; stroke-width:4; stroke-opacity:1; fill:none" points="
  883.879,1423.18 883.879,1407.58 
  "/>
<polyline clip-path="url(#clip340)" style="stroke:#000000; stroke-width:4; stroke-opacity:1; fill:none" points="
  1286.31,1423.18 1286.31,1407.58 
  "/>
<polyline clip-path="url(#clip340)" style="stroke:#000000; stroke-width:4; stroke-opacity:1; fill:none" points="
  1688.74,1423.18 1688.74,1407.58 
  "/>
<polyline clip-path="url(#clip340)" style="stroke:#000000; stroke-width:4; stroke-opacity:1; fill:none" points="
  2091.18,1423.18 2091.18,1407.58 
  "/>
<path clip-path="url(#clip340)" d="M 0 0 M466.239 1467.44 Q462.906 1467.44 460.984 1469.22 Q459.086 1471 459.086 1474.13 Q459.086 1477.25 460.984 1479.04 Q462.906 1480.82 466.239 1480.82 Q469.572 1480.82 471.493 1479.04 Q473.415 1477.23 473.415 1474.13 Q473.415 1471 471.493 1469.22 Q469.595 1467.44 466.239 1467.44 M461.563 1465.45 Q458.554 1464.71 456.864 1462.65 Q455.197 1460.59 455.197 1457.63 Q455.197 1453.48 458.137 1451.07 Q461.1 1448.67 466.239 1448.67 Q471.401 1448.67 474.341 1451.07 Q477.28 1453.48 477.28 1457.63 Q477.28 1460.59 475.591 1462.65 Q473.924 1464.71 470.938 1465.45 Q474.317 1466.24 476.192 1468.53 Q478.091 1470.82 478.091 1474.13 Q478.091 1479.15 475.012 1481.84 Q471.956 1484.52 466.239 1484.52 Q460.521 1484.52 457.443 1481.84 Q454.387 1479.15 454.387 1474.13 Q454.387 1470.82 456.285 1468.53 Q458.183 1466.24 461.563 1465.45 M459.85 1458.06 Q459.85 1460.75 461.517 1462.25 Q463.206 1463.76 466.239 1463.76 Q469.248 1463.76 470.938 1462.25 Q472.651 1460.75 472.651 1458.06 Q472.651 1455.38 470.938 1453.88 Q469.248 1452.37 466.239 1452.37 Q463.206 1452.37 461.517 1453.88 Q459.85 1455.38 459.85 1458.06 Z" fill="#000000" fill-rule="evenodd" fill-opacity="1" /><path clip-path="url(#clip340)" d="M 0 0 M496.979 1464.71 Q493.831 1464.71 491.979 1466.86 Q490.151 1469.01 490.151 1472.76 Q490.151 1476.49 491.979 1478.67 Q493.831 1480.82 496.979 1480.82 Q500.128 1480.82 501.956 1478.67 Q503.808 1476.49 503.808 1472.76 Q503.808 1469.01 501.956 1466.86 Q500.128 1464.71 496.979 1464.71 M506.262 1450.06 L506.262 1454.31 Q504.503 1453.48 502.697 1453.04 Q500.915 1452.6 499.155 1452.6 Q494.526 1452.6 492.072 1455.73 Q489.641 1458.85 489.294 1465.17 Q490.66 1463.16 492.72 1462.09 Q494.78 1461 497.257 1461 Q502.465 1461 505.475 1464.18 Q508.507 1467.32 508.507 1472.76 Q508.507 1478.09 505.359 1481.31 Q502.211 1484.52 496.979 1484.52 Q490.984 1484.52 487.813 1479.94 Q484.641 1475.33 484.641 1466.61 Q484.641 1458.41 488.53 1453.55 Q492.419 1448.67 498.97 1448.67 Q500.729 1448.67 502.512 1449.01 Q504.317 1449.36 506.262 1450.06 Z" fill="#000000" fill-rule="evenodd" fill-opacity="1" /><path clip-path="url(#clip340)" d="M 0 0 M868.798 1467.44 Q865.465 1467.44 863.544 1469.22 Q861.645 1471 861.645 1474.13 Q861.645 1477.25 863.544 1479.04 Q865.465 1480.82 868.798 1480.82 Q872.131 1480.82 874.053 1479.04 Q875.974 1477.23 875.974 1474.13 Q875.974 1471 874.053 1469.22 Q872.155 1467.44 868.798 1467.44 M864.122 1465.45 Q861.113 1464.71 859.423 1462.65 Q857.757 1460.59 857.757 1457.63 Q857.757 1453.48 860.696 1451.07 Q863.659 1448.67 868.798 1448.67 Q873.96 1448.67 876.9 1451.07 Q879.84 1453.48 879.84 1457.63 Q879.84 1460.59 878.15 1462.65 Q876.483 1464.71 873.497 1465.45 Q876.877 1466.24 878.752 1468.53 Q880.65 1470.82 880.65 1474.13 Q880.65 1479.15 877.571 1481.84 Q874.516 1484.52 868.798 1484.52 Q863.081 1484.52 860.002 1481.84 Q856.946 1479.15 856.946 1474.13 Q856.946 1470.82 858.844 1468.53 Q860.743 1466.24 864.122 1465.45 M862.409 1458.06 Q862.409 1460.75 864.076 1462.25 Q865.766 1463.76 868.798 1463.76 Q871.807 1463.76 873.497 1462.25 Q875.21 1460.75 875.21 1458.06 Q875.21 1455.38 873.497 1453.88 Q871.807 1452.37 868.798 1452.37 Q865.766 1452.37 864.076 1453.88 Q862.409 1455.38 862.409 1458.06 Z" fill="#000000" fill-rule="evenodd" fill-opacity="1" /><path clip-path="url(#clip340)" d="M 0 0 M898.96 1467.44 Q895.627 1467.44 893.705 1469.22 Q891.807 1471 891.807 1474.13 Q891.807 1477.25 893.705 1479.04 Q895.627 1480.82 898.96 1480.82 Q902.293 1480.82 904.215 1479.04 Q906.136 1477.23 906.136 1474.13 Q906.136 1471 904.215 1469.22 Q902.316 1467.44 898.96 1467.44 M894.284 1465.45 Q891.275 1464.71 889.585 1462.65 Q887.918 1460.59 887.918 1457.63 Q887.918 1453.48 890.858 1451.07 Q893.821 1448.67 898.96 1448.67 Q904.122 1448.67 907.062 1451.07 Q910.002 1453.48 910.002 1457.63 Q910.002 1460.59 908.312 1462.65 Q906.645 1464.71 903.659 1465.45 Q907.039 1466.24 908.914 1468.53 Q910.812 1470.82 910.812 1474.13 Q910.812 1479.15 907.733 1481.84 Q904.678 1484.52 898.96 1484.52 Q893.242 1484.52 890.164 1481.84 Q887.108 1479.15 887.108 1474.13 Q887.108 1470.82 889.006 1468.53 Q890.905 1466.24 894.284 1465.45 M892.571 1458.06 Q892.571 1460.75 894.238 1462.25 Q895.928 1463.76 898.96 1463.76 Q901.969 1463.76 903.659 1462.25 Q905.372 1460.75 905.372 1458.06 Q905.372 1455.38 903.659 1453.88 Q901.969 1452.37 898.96 1452.37 Q895.928 1452.37 894.238 1453.88 Q892.571 1455.38 892.571 1458.06 Z" fill="#000000" fill-rule="evenodd" fill-opacity="1" /><path clip-path="url(#clip340)" d="M 0 0 M1261.44 1483.13 L1261.44 1478.88 Q1263.2 1479.71 1265 1480.15 Q1266.81 1480.59 1268.54 1480.59 Q1273.17 1480.59 1275.61 1477.49 Q1278.06 1474.36 1278.41 1468.02 Q1277.06 1470.01 1275 1471.07 Q1272.94 1472.14 1270.44 1472.14 Q1265.26 1472.14 1262.23 1469.01 Q1259.22 1465.87 1259.22 1460.43 Q1259.22 1455.1 1262.36 1451.88 Q1265.51 1448.67 1270.74 1448.67 Q1276.74 1448.67 1279.89 1453.27 Q1283.06 1457.86 1283.06 1466.61 Q1283.06 1474.78 1279.17 1479.66 Q1275.3 1484.52 1268.75 1484.52 Q1266.99 1484.52 1265.19 1484.18 Q1263.38 1483.83 1261.44 1483.13 M1270.74 1468.48 Q1273.89 1468.48 1275.72 1466.33 Q1277.57 1464.18 1277.57 1460.43 Q1277.57 1456.7 1275.72 1454.55 Q1273.89 1452.37 1270.74 1452.37 Q1267.6 1452.37 1265.74 1454.55 Q1263.92 1456.7 1263.92 1460.43 Q1263.92 1464.18 1265.74 1466.33 Q1267.6 1468.48 1270.74 1468.48 Z" fill="#000000" fill-rule="evenodd" fill-opacity="1" /><path clip-path="url(#clip340)" d="M 0 0 M1301.46 1452.37 Q1297.85 1452.37 1296.02 1455.94 Q1294.22 1459.48 1294.22 1466.61 Q1294.22 1473.71 1296.02 1477.28 Q1297.85 1480.82 1301.46 1480.82 Q1305.1 1480.82 1306.9 1477.28 Q1308.73 1473.71 1308.73 1466.61 Q1308.73 1459.48 1306.9 1455.94 Q1305.1 1452.37 1301.46 1452.37 M1301.46 1448.67 Q1307.27 1448.67 1310.33 1453.27 Q1313.41 1457.86 1313.41 1466.61 Q1313.41 1475.33 1310.33 1479.94 Q1307.27 1484.52 1301.46 1484.52 Q1295.65 1484.52 1292.57 1479.94 Q1289.52 1475.33 1289.52 1466.61 Q1289.52 1457.86 1292.57 1453.27 Q1295.65 1448.67 1301.46 1448.67 Z" fill="#000000" fill-rule="evenodd" fill-opacity="1" /><path clip-path="url(#clip340)" d="M 0 0 M1664.67 1483.13 L1664.67 1478.88 Q1666.43 1479.71 1668.23 1480.15 Q1670.04 1480.59 1671.78 1480.59 Q1676.41 1480.59 1678.84 1477.49 Q1681.29 1474.36 1681.64 1468.02 Q1680.29 1470.01 1678.23 1471.07 Q1676.17 1472.14 1673.67 1472.14 Q1668.49 1472.14 1665.46 1469.01 Q1662.45 1465.87 1662.45 1460.43 Q1662.45 1455.1 1665.6 1451.88 Q1668.74 1448.67 1673.97 1448.67 Q1679.97 1448.67 1683.12 1453.27 Q1686.29 1457.86 1686.29 1466.61 Q1686.29 1474.78 1682.4 1479.66 Q1678.53 1484.52 1671.98 1484.52 Q1670.22 1484.52 1668.42 1484.18 Q1666.61 1483.83 1664.67 1483.13 M1673.97 1468.48 Q1677.12 1468.48 1678.95 1466.33 Q1680.8 1464.18 1680.8 1460.43 Q1680.8 1456.7 1678.95 1454.55 Q1677.12 1452.37 1673.97 1452.37 Q1670.83 1452.37 1668.97 1454.55 Q1667.15 1456.7 1667.15 1460.43 Q1667.15 1464.18 1668.97 1466.33 Q1670.83 1468.48 1673.97 1468.48 Z" fill="#000000" fill-rule="evenodd" fill-opacity="1" /><path clip-path="url(#clip340)" d="M 0 0 M1698.72 1479.92 L1715.04 1479.92 L1715.04 1483.85 L1693.09 1483.85 L1693.09 1479.92 Q1695.76 1477.16 1700.34 1472.53 Q1704.95 1467.88 1706.13 1466.54 Q1708.37 1464.01 1709.25 1462.28 Q1710.16 1460.52 1710.16 1458.83 Q1710.16 1456.07 1708.21 1454.34 Q1706.29 1452.6 1703.19 1452.6 Q1700.99 1452.6 1698.53 1453.37 Q1696.1 1454.13 1693.33 1455.68 L1693.33 1450.96 Q1696.15 1449.82 1698.6 1449.25 Q1701.06 1448.67 1703.09 1448.67 Q1708.47 1448.67 1711.66 1451.35 Q1714.85 1454.04 1714.85 1458.53 Q1714.85 1460.66 1714.04 1462.58 Q1713.26 1464.48 1711.15 1467.07 Q1710.57 1467.74 1707.47 1470.96 Q1704.37 1474.15 1698.72 1479.92 Z" fill="#000000" fill-rule="evenodd" fill-opacity="1" /><path clip-path="url(#clip340)" d="M 0 0 M2066.06 1483.13 L2066.06 1478.88 Q2067.82 1479.71 2069.62 1480.15 Q2071.43 1480.59 2073.17 1480.59 Q2077.8 1480.59 2080.23 1477.49 Q2082.68 1474.36 2083.03 1468.02 Q2081.68 1470.01 2079.62 1471.07 Q2077.56 1472.14 2075.06 1472.14 Q2069.88 1472.14 2066.85 1469.01 Q2063.84 1465.87 2063.84 1460.43 Q2063.84 1455.1 2066.99 1451.88 Q2070.13 1448.67 2075.37 1448.67 Q2081.36 1448.67 2084.51 1453.27 Q2087.68 1457.86 2087.68 1466.61 Q2087.68 1474.78 2083.79 1479.66 Q2079.93 1484.52 2073.37 1484.52 Q2071.62 1484.52 2069.81 1484.18 Q2068 1483.83 2066.06 1483.13 M2075.37 1468.48 Q2078.51 1468.48 2080.34 1466.33 Q2082.19 1464.18 2082.19 1460.43 Q2082.19 1456.7 2080.34 1454.55 Q2078.51 1452.37 2075.37 1452.37 Q2072.22 1452.37 2070.37 1454.55 Q2068.54 1456.7 2068.54 1460.43 Q2068.54 1464.18 2070.37 1466.33 Q2072.22 1468.48 2075.37 1468.48 Z" fill="#000000" fill-rule="evenodd" fill-opacity="1" /><path clip-path="url(#clip340)" d="M 0 0 M2108.93 1453.37 L2097.12 1471.81 L2108.93 1471.81 L2108.93 1453.37 M2107.7 1449.29 L2113.58 1449.29 L2113.58 1471.81 L2118.51 1471.81 L2118.51 1475.7 L2113.58 1475.7 L2113.58 1483.85 L2108.93 1483.85 L2108.93 1475.7 L2093.33 1475.7 L2093.33 1471.19 L2107.7 1449.29 Z" fill="#000000" fill-rule="evenodd" fill-opacity="1" /><path clip-path="url(#clip340)" d="M 0 0 M1164.5 1518.52 L1164.5 1531.66 Q1170.84 1531.66 1175.07 1536.53 Q1179.43 1541.5 1179.43 1550.25 Q1179.43 1559 1175.07 1563.97 Q1170.84 1568.84 1164.5 1568.84 L1164.5 1581.6 L1158.68 1581.6 L1158.68 1568.84 Q1152.34 1568.84 1148.08 1563.97 Q1143.75 1559 1143.75 1550.25 Q1143.75 1541.5 1148.08 1536.53 Q1152.34 1531.66 1158.68 1531.66 L1158.68 1518.52 L1164.5 1518.52 M1164.5 1563.62 Q1168.1 1563.62 1170.55 1560.34 Q1173.22 1556.68 1173.26 1550.25 Q1173.29 1543.89 1170.55 1540.16 Q1168.1 1536.88 1164.5 1536.88 L1164.5 1563.62 M1158.68 1563.62 L1158.68 1536.88 Q1155.08 1536.88 1152.66 1540.16 Q1149.89 1543.89 1149.93 1550.25 Q1149.96 1556.68 1152.66 1560.34 Q1155.08 1563.62 1158.68 1563.62 Z" fill="#000000" fill-rule="evenodd" fill-opacity="1" /><path clip-path="url(#clip340)" d="M 0 0 M1233.51 1537.81 L1233.51 1518.52 L1239.36 1518.52 L1239.36 1568.04 L1233.51 1568.04 L1233.51 1562.7 Q1231.66 1565.88 1228.83 1567.44 Q1226.03 1568.97 1222.08 1568.97 Q1215.62 1568.97 1211.55 1563.81 Q1207.5 1558.65 1207.5 1550.25 Q1207.5 1541.85 1211.55 1536.69 Q1215.62 1531.54 1222.08 1531.54 Q1226.03 1531.54 1228.83 1533.1 Q1231.66 1534.62 1233.51 1537.81 M1213.55 1550.25 Q1213.55 1556.71 1216.19 1560.4 Q1218.87 1564.07 1223.51 1564.07 Q1228.16 1564.07 1230.83 1560.4 Q1233.51 1556.71 1233.51 1550.25 Q1233.51 1543.79 1230.83 1540.13 Q1228.16 1536.44 1223.51 1536.44 Q1218.87 1536.44 1216.19 1540.13 Q1213.55 1543.79 1213.55 1550.25 Z" fill="#000000" fill-rule="evenodd" fill-opacity="1" /><path clip-path="url(#clip340)" d="M 0 0 M1281.92 1548.76 L1281.92 1551.62 L1254.99 1551.62 Q1255.37 1557.67 1258.62 1560.85 Q1261.9 1564 1267.72 1564 Q1271.1 1564 1274.25 1563.17 Q1277.43 1562.35 1280.55 1560.69 L1280.55 1566.23 Q1277.4 1567.57 1274.09 1568.27 Q1270.78 1568.97 1267.37 1568.97 Q1258.84 1568.97 1253.85 1564 Q1248.88 1559.04 1248.88 1550.57 Q1248.88 1541.82 1253.59 1536.69 Q1258.33 1531.54 1266.35 1531.54 Q1273.55 1531.54 1277.72 1536.18 Q1281.92 1540.8 1281.92 1548.76 M1276.06 1547.04 Q1276 1542.23 1273.36 1539.37 Q1270.75 1536.5 1266.42 1536.5 Q1261.52 1536.5 1258.56 1539.27 Q1255.63 1542.04 1255.18 1547.07 L1276.06 1547.04 Z" fill="#000000" fill-rule="evenodd" fill-opacity="1" /><path clip-path="url(#clip340)" d="M 0 0 M1314.99 1549.81 Q1314.99 1543.44 1312.35 1539.94 Q1309.74 1536.44 1304.99 1536.44 Q1300.28 1536.44 1297.64 1539.94 Q1295.03 1543.44 1295.03 1549.81 Q1295.03 1556.14 1297.64 1559.64 Q1300.28 1563.14 1304.99 1563.14 Q1309.74 1563.14 1312.35 1559.64 Q1314.99 1556.14 1314.99 1549.81 M1320.85 1563.62 Q1320.85 1572.72 1316.8 1577.15 Q1312.76 1581.6 1304.42 1581.6 Q1301.33 1581.6 1298.6 1581.13 Q1295.86 1580.68 1293.28 1579.72 L1293.28 1574.03 Q1295.86 1575.43 1298.37 1576.1 Q1300.89 1576.76 1303.5 1576.76 Q1309.26 1576.76 1312.12 1573.74 Q1314.99 1570.75 1314.99 1564.67 L1314.99 1561.77 Q1313.17 1564.92 1310.34 1566.48 Q1307.51 1568.04 1303.56 1568.04 Q1297.01 1568.04 1293 1563.05 Q1288.98 1558.05 1288.98 1549.81 Q1288.98 1541.53 1293 1536.53 Q1297.01 1531.54 1303.56 1531.54 Q1307.51 1531.54 1310.34 1533.1 Q1313.17 1534.66 1314.99 1537.81 L1314.99 1532.4 L1320.85 1532.4 L1320.85 1563.62 Z" fill="#000000" fill-rule="evenodd" fill-opacity="1" /><path clip-path="url(#clip340)" d="M 0 0 M1353.56 1537.87 Q1352.58 1537.3 1351.4 1537.04 Q1350.25 1536.76 1348.85 1536.76 Q1343.89 1536.76 1341.22 1540 Q1338.57 1543.22 1338.57 1549.27 L1338.57 1568.04 L1332.69 1568.04 L1332.69 1532.4 L1338.57 1532.4 L1338.57 1537.93 Q1340.42 1534.69 1343.38 1533.13 Q1346.34 1531.54 1350.57 1531.54 Q1351.18 1531.54 1351.91 1531.63 Q1352.64 1531.7 1353.53 1531.85 L1353.56 1537.87 Z" fill="#000000" fill-rule="evenodd" fill-opacity="1" /><path clip-path="url(#clip340)" d="M 0 0 M1388.77 1548.76 L1388.77 1551.62 L1361.84 1551.62 Q1362.22 1557.67 1365.47 1560.85 Q1368.75 1564 1374.57 1564 Q1377.95 1564 1381.1 1563.17 Q1384.28 1562.35 1387.4 1560.69 L1387.4 1566.23 Q1384.25 1567.57 1380.94 1568.27 Q1377.63 1568.97 1374.22 1568.97 Q1365.69 1568.97 1360.69 1564 Q1355.73 1559.04 1355.73 1550.57 Q1355.73 1541.82 1360.44 1536.69 Q1365.18 1531.54 1373.2 1531.54 Q1380.4 1531.54 1384.57 1536.18 Q1388.77 1540.8 1388.77 1548.76 M1382.91 1547.04 Q1382.85 1542.23 1380.21 1539.37 Q1377.6 1536.5 1373.27 1536.5 Q1368.37 1536.5 1365.4 1539.27 Q1362.48 1542.04 1362.03 1547.07 L1382.91 1547.04 Z" fill="#000000" fill-rule="evenodd" fill-opacity="1" /><path clip-path="url(#clip340)" d="M 0 0 M1428.87 1548.76 L1428.87 1551.62 L1401.94 1551.62 Q1402.33 1557.67 1405.57 1560.85 Q1408.85 1564 1414.68 1564 Q1418.05 1564 1421.2 1563.17 Q1424.38 1562.35 1427.5 1560.69 L1427.5 1566.23 Q1424.35 1567.57 1421.04 1568.27 Q1417.73 1568.97 1414.33 1568.97 Q1405.8 1568.97 1400.8 1564 Q1395.83 1559.04 1395.83 1550.57 Q1395.83 1541.82 1400.54 1536.69 Q1405.29 1531.54 1413.31 1531.54 Q1420.5 1531.54 1424.67 1536.18 Q1428.87 1540.8 1428.87 1548.76 M1423.01 1547.04 Q1422.95 1542.23 1420.31 1539.37 Q1417.7 1536.5 1413.37 1536.5 Q1408.47 1536.5 1405.51 1539.27 Q1402.58 1542.04 1402.14 1547.07 L1423.01 1547.04 Z" fill="#000000" fill-rule="evenodd" fill-opacity="1" /><polyline clip-path="url(#clip342)" style="stroke:#000000; stroke-width:2; stroke-opacity:0.1; fill:none" points="
  219.866,1386.4 2352.76,1386.4 
  "/>
<polyline clip-path="url(#clip342)" style="stroke:#000000; stroke-width:2; stroke-opacity:0.1; fill:none" points="
  219.866,1155.68 2352.76,1155.68 
  "/>
<polyline clip-path="url(#clip342)" style="stroke:#000000; stroke-width:2; stroke-opacity:0.1; fill:none" points="
  219.866,924.961 2352.76,924.961 
  "/>
<polyline clip-path="url(#clip342)" style="stroke:#000000; stroke-width:2; stroke-opacity:0.1; fill:none" points="
  219.866,694.243 2352.76,694.243 
  "/>
<polyline clip-path="url(#clip342)" style="stroke:#000000; stroke-width:2; stroke-opacity:0.1; fill:none" points="
  219.866,463.524 2352.76,463.524 
  "/>
<polyline clip-path="url(#clip342)" style="stroke:#000000; stroke-width:2; stroke-opacity:0.1; fill:none" points="
  219.866,232.806 2352.76,232.806 
  "/>
<polyline clip-path="url(#clip340)" style="stroke:#000000; stroke-width:4; stroke-opacity:1; fill:none" points="
  219.866,1423.18 219.866,123.472 
  "/>
<polyline clip-path="url(#clip340)" style="stroke:#000000; stroke-width:4; stroke-opacity:1; fill:none" points="
  219.866,1386.4 245.461,1386.4 
  "/>
<polyline clip-path="url(#clip340)" style="stroke:#000000; stroke-width:4; stroke-opacity:1; fill:none" points="
  219.866,1155.68 245.461,1155.68 
  "/>
<polyline clip-path="url(#clip340)" style="stroke:#000000; stroke-width:4; stroke-opacity:1; fill:none" points="
  219.866,924.961 245.461,924.961 
  "/>
<polyline clip-path="url(#clip340)" style="stroke:#000000; stroke-width:4; stroke-opacity:1; fill:none" points="
  219.866,694.243 245.461,694.243 
  "/>
<polyline clip-path="url(#clip340)" style="stroke:#000000; stroke-width:4; stroke-opacity:1; fill:none" points="
  219.866,463.524 245.461,463.524 
  "/>
<polyline clip-path="url(#clip340)" style="stroke:#000000; stroke-width:4; stroke-opacity:1; fill:none" points="
  219.866,232.806 245.461,232.806 
  "/>
<path clip-path="url(#clip340)" d="M 0 0 M126.691 1372.2 Q123.08 1372.2 121.251 1375.76 Q119.445 1379.3 119.445 1386.43 Q119.445 1393.54 121.251 1397.1 Q123.08 1400.65 126.691 1400.65 Q130.325 1400.65 132.13 1397.1 Q133.959 1393.54 133.959 1386.43 Q133.959 1379.3 132.13 1375.76 Q130.325 1372.2 126.691 1372.2 M126.691 1368.49 Q132.501 1368.49 135.556 1373.1 Q138.635 1377.68 138.635 1386.43 Q138.635 1395.16 135.556 1399.77 Q132.501 1404.35 126.691 1404.35 Q120.88 1404.35 117.802 1399.77 Q114.746 1395.16 114.746 1386.43 Q114.746 1377.68 117.802 1373.1 Q120.88 1368.49 126.691 1368.49 Z" fill="#000000" fill-rule="evenodd" fill-opacity="1" /><path clip-path="url(#clip340)" d="M 0 0 M146.853 1397.8 L151.737 1397.8 L151.737 1403.68 L146.853 1403.68 L146.853 1397.8 Z" fill="#000000" fill-rule="evenodd" fill-opacity="1" /><path clip-path="url(#clip340)" d="M 0 0 M171.922 1372.2 Q168.311 1372.2 166.482 1375.76 Q164.677 1379.3 164.677 1386.43 Q164.677 1393.54 166.482 1397.1 Q168.311 1400.65 171.922 1400.65 Q175.556 1400.65 177.362 1397.1 Q179.19 1393.54 179.19 1386.43 Q179.19 1379.3 177.362 1375.76 Q175.556 1372.2 171.922 1372.2 M171.922 1368.49 Q177.732 1368.49 180.788 1373.1 Q183.866 1377.68 183.866 1386.43 Q183.866 1395.16 180.788 1399.77 Q177.732 1404.35 171.922 1404.35 Q166.112 1404.35 163.033 1399.77 Q159.978 1395.16 159.978 1386.43 Q159.978 1377.68 163.033 1373.1 Q166.112 1368.49 171.922 1368.49 Z" fill="#000000" fill-rule="evenodd" fill-opacity="1" /><path clip-path="url(#clip340)" d="M 0 0 M127.917 1141.48 Q124.306 1141.48 122.478 1145.04 Q120.672 1148.59 120.672 1155.71 Q120.672 1162.82 122.478 1166.39 Q124.306 1169.93 127.917 1169.93 Q131.552 1169.93 133.357 1166.39 Q135.186 1162.82 135.186 1155.71 Q135.186 1148.59 133.357 1145.04 Q131.552 1141.48 127.917 1141.48 M127.917 1137.77 Q133.728 1137.77 136.783 1142.38 Q139.862 1146.96 139.862 1155.71 Q139.862 1164.44 136.783 1169.05 Q133.728 1173.63 127.917 1173.63 Q122.107 1173.63 119.029 1169.05 Q115.973 1164.44 115.973 1155.71 Q115.973 1146.96 119.029 1142.38 Q122.107 1137.77 127.917 1137.77 Z" fill="#000000" fill-rule="evenodd" fill-opacity="1" /><path clip-path="url(#clip340)" d="M 0 0 M148.079 1167.08 L152.964 1167.08 L152.964 1172.96 L148.079 1172.96 L148.079 1167.08 Z" fill="#000000" fill-rule="evenodd" fill-opacity="1" /><path clip-path="url(#clip340)" d="M 0 0 M163.959 1169.02 L171.598 1169.02 L171.598 1142.66 L163.288 1144.33 L163.288 1140.07 L171.552 1138.4 L176.227 1138.4 L176.227 1169.02 L183.866 1169.02 L183.866 1172.96 L163.959 1172.96 L163.959 1169.02 Z" fill="#000000" fill-rule="evenodd" fill-opacity="1" /><path clip-path="url(#clip340)" d="M 0 0 M128.288 910.76 Q124.677 910.76 122.848 914.325 Q121.043 917.867 121.043 924.996 Q121.043 932.103 122.848 935.667 Q124.677 939.209 128.288 939.209 Q131.922 939.209 133.728 935.667 Q135.556 932.103 135.556 924.996 Q135.556 917.867 133.728 914.325 Q131.922 910.76 128.288 910.76 M128.288 907.056 Q134.098 907.056 137.154 911.663 Q140.232 916.246 140.232 924.996 Q140.232 933.723 137.154 938.329 Q134.098 942.913 128.288 942.913 Q122.478 942.913 119.399 938.329 Q116.343 933.723 116.343 924.996 Q116.343 916.246 119.399 911.663 Q122.478 907.056 128.288 907.056 Z" fill="#000000" fill-rule="evenodd" fill-opacity="1" /><path clip-path="url(#clip340)" d="M 0 0 M148.45 936.362 L153.334 936.362 L153.334 942.241 L148.45 942.241 L148.45 936.362 Z" fill="#000000" fill-rule="evenodd" fill-opacity="1" /><path clip-path="url(#clip340)" d="M 0 0 M167.547 938.306 L183.866 938.306 L183.866 942.241 L161.922 942.241 L161.922 938.306 Q164.584 935.552 169.167 930.922 Q173.774 926.269 174.954 924.927 Q177.2 922.404 178.079 920.667 Q178.982 918.908 178.982 917.218 Q178.982 914.464 177.038 912.728 Q175.116 910.992 172.014 910.992 Q169.815 910.992 167.362 911.755 Q164.931 912.519 162.153 914.07 L162.153 909.348 Q164.977 908.214 167.431 907.635 Q169.885 907.056 171.922 907.056 Q177.292 907.056 180.487 909.742 Q183.681 912.427 183.681 916.917 Q183.681 919.047 182.871 920.968 Q182.084 922.866 179.977 925.459 Q179.399 926.13 176.297 929.348 Q173.195 932.542 167.547 938.306 Z" fill="#000000" fill-rule="evenodd" fill-opacity="1" /><path clip-path="url(#clip340)" d="M 0 0 M127.339 680.042 Q123.728 680.042 121.899 683.606 Q120.093 687.148 120.093 694.278 Q120.093 701.384 121.899 704.949 Q123.728 708.49 127.339 708.49 Q130.973 708.49 132.779 704.949 Q134.607 701.384 134.607 694.278 Q134.607 687.148 132.779 683.606 Q130.973 680.042 127.339 680.042 M127.339 676.338 Q133.149 676.338 136.204 680.944 Q139.283 685.528 139.283 694.278 Q139.283 703.004 136.204 707.611 Q133.149 712.194 127.339 712.194 Q121.529 712.194 118.45 707.611 Q115.394 703.004 115.394 694.278 Q115.394 685.528 118.45 680.944 Q121.529 676.338 127.339 676.338 Z" fill="#000000" fill-rule="evenodd" fill-opacity="1" /><path clip-path="url(#clip340)" d="M 0 0 M147.501 705.643 L152.385 705.643 L152.385 711.523 L147.501 711.523 L147.501 705.643 Z" fill="#000000" fill-rule="evenodd" fill-opacity="1" /><path clip-path="url(#clip340)" d="M 0 0 M176.737 692.889 Q180.093 693.606 181.968 695.875 Q183.866 698.143 183.866 701.477 Q183.866 706.592 180.348 709.393 Q176.829 712.194 170.348 712.194 Q168.172 712.194 165.857 711.754 Q163.565 711.338 161.112 710.481 L161.112 705.967 Q163.056 707.102 165.371 707.68 Q167.686 708.259 170.209 708.259 Q174.607 708.259 176.899 706.523 Q179.214 704.787 179.214 701.477 Q179.214 698.421 177.061 696.708 Q174.931 694.972 171.112 694.972 L167.084 694.972 L167.084 691.129 L171.297 691.129 Q174.746 691.129 176.575 689.764 Q178.403 688.375 178.403 685.782 Q178.403 683.12 176.505 681.708 Q174.63 680.273 171.112 680.273 Q169.19 680.273 166.991 680.69 Q164.792 681.106 162.153 681.986 L162.153 677.819 Q164.815 677.079 167.13 676.708 Q169.468 676.338 171.528 676.338 Q176.852 676.338 179.954 678.768 Q183.056 681.176 183.056 685.296 Q183.056 688.166 181.413 690.157 Q179.769 692.125 176.737 692.889 Z" fill="#000000" fill-rule="evenodd" fill-opacity="1" /><path clip-path="url(#clip340)" d="M 0 0 M126.205 449.323 Q122.593 449.323 120.765 452.888 Q118.959 456.429 118.959 463.559 Q118.959 470.665 120.765 474.23 Q122.593 477.772 126.205 477.772 Q129.839 477.772 131.644 474.23 Q133.473 470.665 133.473 463.559 Q133.473 456.429 131.644 452.888 Q129.839 449.323 126.205 449.323 M126.205 445.619 Q132.015 445.619 135.07 450.226 Q138.149 454.809 138.149 463.559 Q138.149 472.286 135.07 476.892 Q132.015 481.476 126.205 481.476 Q120.394 481.476 117.316 476.892 Q114.26 472.286 114.26 463.559 Q114.26 454.809 117.316 450.226 Q120.394 445.619 126.205 445.619 Z" fill="#000000" fill-rule="evenodd" fill-opacity="1" /><path clip-path="url(#clip340)" d="M 0 0 M146.366 474.925 L151.251 474.925 L151.251 480.804 L146.366 480.804 L146.366 474.925 Z" fill="#000000" fill-rule="evenodd" fill-opacity="1" /><path clip-path="url(#clip340)" d="M 0 0 M174.283 450.318 L162.477 468.767 L174.283 468.767 L174.283 450.318 M173.056 446.244 L178.936 446.244 L178.936 468.767 L183.866 468.767 L183.866 472.656 L178.936 472.656 L178.936 480.804 L174.283 480.804 L174.283 472.656 L158.681 472.656 L158.681 468.142 L173.056 446.244 Z" fill="#000000" fill-rule="evenodd" fill-opacity="1" /><path clip-path="url(#clip340)" d="M 0 0 M127.686 218.604 Q124.075 218.604 122.246 222.169 Q120.441 225.711 120.441 232.84 Q120.441 239.947 122.246 243.512 Q124.075 247.053 127.686 247.053 Q131.32 247.053 133.126 243.512 Q134.954 239.947 134.954 232.84 Q134.954 225.711 133.126 222.169 Q131.32 218.604 127.686 218.604 M127.686 214.901 Q133.496 214.901 136.552 219.507 Q139.63 224.09 139.63 232.84 Q139.63 241.567 136.552 246.174 Q133.496 250.757 127.686 250.757 Q121.876 250.757 118.797 246.174 Q115.742 241.567 115.742 232.84 Q115.742 224.09 118.797 219.507 Q121.876 214.901 127.686 214.901 Z" fill="#000000" fill-rule="evenodd" fill-opacity="1" /><path clip-path="url(#clip340)" d="M 0 0 M147.848 244.206 L152.732 244.206 L152.732 250.086 L147.848 250.086 L147.848 244.206 Z" fill="#000000" fill-rule="evenodd" fill-opacity="1" /><path clip-path="url(#clip340)" d="M 0 0 M162.964 215.526 L181.32 215.526 L181.32 219.461 L167.246 219.461 L167.246 227.933 Q168.264 227.586 169.283 227.424 Q170.302 227.239 171.32 227.239 Q177.107 227.239 180.487 230.41 Q183.866 233.581 183.866 238.998 Q183.866 244.576 180.394 247.678 Q176.922 250.757 170.602 250.757 Q168.427 250.757 166.158 250.387 Q163.913 250.016 161.505 249.276 L161.505 244.576 Q163.589 245.711 165.811 246.266 Q168.033 246.822 170.51 246.822 Q174.514 246.822 176.852 244.715 Q179.19 242.609 179.19 238.998 Q179.19 235.387 176.852 233.28 Q174.514 231.174 170.51 231.174 Q168.635 231.174 166.76 231.59 Q164.908 232.007 162.964 232.887 L162.964 215.526 Z" fill="#000000" fill-rule="evenodd" fill-opacity="1" /><path clip-path="url(#clip340)" d="M 0 0 M16.4842 840.612 L16.4842 831.954 L56.238 810.884 L16.4842 810.884 L16.4842 804.645 L64.0042 804.645 L64.0042 813.303 L24.2503 834.373 L64.0042 834.373 L64.0042 840.612 L16.4842 840.612 Z" fill="#000000" fill-rule="evenodd" fill-opacity="1" /><path clip-path="url(#clip340)" d="M 0 0 M44.7161 761.613 L47.5806 761.613 L47.5806 788.54 Q53.6281 788.158 56.8109 784.912 Q59.9619 781.633 59.9619 775.809 Q59.9619 772.435 59.1344 769.284 Q58.3069 766.101 56.6518 762.982 L62.1899 762.982 Q63.5267 766.133 64.227 769.443 Q64.9272 772.753 64.9272 776.159 Q64.9272 784.689 59.9619 789.686 Q54.9967 794.651 46.5303 794.651 Q37.7774 794.651 32.6531 789.94 Q27.4968 785.198 27.4968 777.177 Q27.4968 769.984 32.1438 765.814 Q36.7589 761.613 44.7161 761.613 M42.9973 767.47 Q38.1912 767.533 35.3266 770.175 Q32.4621 772.785 32.4621 777.114 Q32.4621 782.015 35.2312 784.975 Q38.0002 787.903 43.0292 788.349 L42.9973 767.47 Z" fill="#000000" fill-rule="evenodd" fill-opacity="1" /><path clip-path="url(#clip340)" d="M 0 0 M44.7161 721.509 L47.5806 721.509 L47.5806 748.436 Q53.6281 748.054 56.8109 744.808 Q59.9619 741.529 59.9619 735.705 Q59.9619 732.331 59.1344 729.18 Q58.3069 725.997 56.6518 722.878 L62.1899 722.878 Q63.5267 726.029 64.227 729.339 Q64.9272 732.649 64.9272 736.055 Q64.9272 744.585 59.9619 749.582 Q54.9967 754.547 46.5303 754.547 Q37.7774 754.547 32.6531 749.837 Q27.4968 745.094 27.4968 737.073 Q27.4968 729.88 32.1438 725.71 Q36.7589 721.509 44.7161 721.509 M42.9973 727.366 Q38.1912 727.429 35.3266 730.071 Q32.4621 732.681 32.4621 737.01 Q32.4621 741.911 35.2312 744.871 Q38.0002 747.8 43.0292 748.245 L42.9973 727.366 Z" fill="#000000" fill-rule="evenodd" fill-opacity="1" /><path clip-path="url(#clip340)" d="M 0 0 M14.479 711.897 L14.479 706.04 L64.0042 706.04 L64.0042 711.897 L14.479 711.897 Z" fill="#000000" fill-rule="evenodd" fill-opacity="1" /><path clip-path="url(#clip340)" d="M 0 0 M1193.59 35.9153 Q1196.38 30.8922 1200.27 28.5022 Q1204.16 26.1121 1209.42 26.1121 Q1216.51 26.1121 1220.36 31.0947 Q1224.21 36.0368 1224.21 45.1919 L1224.21 72.576 L1216.72 72.576 L1216.72 45.4349 Q1216.72 38.913 1214.41 35.7533 Q1212.1 32.5936 1207.36 32.5936 Q1201.57 32.5936 1198.2 36.4419 Q1194.84 40.2903 1194.84 46.9338 L1194.84 72.576 L1187.35 72.576 L1187.35 45.4349 Q1187.35 38.8725 1185.04 35.7533 Q1182.73 32.5936 1177.91 32.5936 Q1172.2 32.5936 1168.83 36.4824 Q1165.47 40.3308 1165.47 46.9338 L1165.47 72.576 L1157.98 72.576 L1157.98 27.2059 L1165.47 27.2059 L1165.47 34.2544 Q1168.02 30.082 1171.59 28.0971 Q1175.15 26.1121 1180.06 26.1121 Q1185 26.1121 1188.44 28.6237 Q1191.93 31.1352 1193.59 35.9153 Z" fill="#000000" fill-rule="evenodd" fill-opacity="1" /><path clip-path="url(#clip340)" d="M 0 0 M1259.7 49.7694 Q1250.66 49.7694 1247.18 51.8354 Q1243.7 53.9013 1243.7 58.8839 Q1243.7 62.8538 1246.29 65.2034 Q1248.92 67.5124 1253.42 67.5124 Q1259.62 67.5124 1263.34 63.1374 Q1267.11 58.7219 1267.11 51.4303 L1267.11 49.7694 L1259.7 49.7694 M1274.56 46.6907 L1274.56 72.576 L1267.11 72.576 L1267.11 65.6895 Q1264.56 69.8214 1260.75 71.8063 Q1256.94 73.7508 1251.43 73.7508 Q1244.47 73.7508 1240.33 69.8619 Q1236.24 65.9325 1236.24 59.3701 Q1236.24 51.7138 1241.35 47.825 Q1246.49 43.9361 1256.66 43.9361 L1267.11 43.9361 L1267.11 43.2069 Q1267.11 38.0623 1263.71 35.2672 Q1260.34 32.4315 1254.23 32.4315 Q1250.34 32.4315 1246.65 33.3632 Q1242.97 34.295 1239.56 36.1584 L1239.56 29.2718 Q1243.66 27.692 1247.5 26.9223 Q1251.35 26.1121 1255 26.1121 Q1264.84 26.1121 1269.7 31.2163 Q1274.56 36.3204 1274.56 46.6907 Z" fill="#000000" fill-rule="evenodd" fill-opacity="1" /><path clip-path="url(#clip340)" d="M 0 0 M1319.77 49.3643 Q1319.77 41.2625 1316.41 36.8065 Q1313.09 32.3505 1307.05 32.3505 Q1301.06 32.3505 1297.69 36.8065 Q1294.37 41.2625 1294.37 49.3643 Q1294.37 57.4256 1297.69 61.8816 Q1301.06 66.3376 1307.05 66.3376 Q1313.09 66.3376 1316.41 61.8816 Q1319.77 57.4256 1319.77 49.3643 M1327.23 66.9452 Q1327.23 78.5308 1322.08 84.1616 Q1316.94 89.8329 1306.32 89.8329 Q1302.39 89.8329 1298.91 89.2252 Q1295.43 88.6581 1292.14 87.4428 L1292.14 80.1917 Q1295.43 81.9741 1298.63 82.8248 Q1301.83 83.6755 1305.15 83.6755 Q1312.48 83.6755 1316.13 79.8271 Q1319.77 76.0193 1319.77 68.282 L1319.77 64.5957 Q1317.46 68.6061 1313.86 70.5911 Q1310.25 72.576 1305.23 72.576 Q1296.88 72.576 1291.78 66.2161 Q1286.68 59.8562 1286.68 49.3643 Q1286.68 38.832 1291.78 32.472 Q1296.88 26.1121 1305.23 26.1121 Q1310.25 26.1121 1313.86 28.0971 Q1317.46 30.082 1319.77 34.0924 L1319.77 27.2059 L1327.23 27.2059 L1327.23 66.9452 Z" fill="#000000" fill-rule="evenodd" fill-opacity="1" /><path clip-path="url(#clip340)" d="M 0 0 M1338.81 46.5287 L1360.65 46.5287 L1360.65 53.1722 L1338.81 53.1722 L1338.81 46.5287 Z" fill="#000000" fill-rule="evenodd" fill-opacity="1" /><path clip-path="url(#clip340)" d="M 0 0 M1395.64 9.54393 L1395.64 26.2742 Q1403.71 26.2742 1409.09 32.472 Q1414.64 38.7915 1414.64 49.9314 Q1414.64 61.0714 1409.09 67.3908 Q1403.71 73.5887 1395.64 73.5887 L1395.64 89.8329 L1388.23 89.8329 L1388.23 73.5887 Q1380.17 73.5887 1374.74 67.3908 Q1369.23 61.0714 1369.23 49.9314 Q1369.23 38.7915 1374.74 32.472 Q1380.17 26.2742 1388.23 26.2742 L1388.23 9.54393 L1395.64 9.54393 M1395.64 66.9452 Q1400.22 66.9452 1403.34 62.7728 Q1406.74 58.1143 1406.78 49.9314 Q1406.83 41.8296 1403.34 37.0901 Q1400.22 32.9176 1395.64 32.9176 L1395.64 66.9452 M1388.23 66.9452 L1388.23 32.9176 Q1383.65 32.9176 1380.58 37.0901 Q1377.05 41.8296 1377.09 49.9314 Q1377.13 58.1143 1380.58 62.7728 Q1383.65 66.9452 1388.23 66.9452 Z" fill="#000000" fill-rule="evenodd" fill-opacity="1" /><polyline clip-path="url(#clip342)" style="stroke:#009af9; stroke-width:8; stroke-opacity:1; fill:none" points="
  280.231,160.256 481.447,177.741 682.663,289.823 883.879,355.709 1085.1,449.66 1286.31,1383.58 1487.53,400.281 1688.74,353.909 1889.96,262.319 2091.18,251.098 
  2292.39,161.244 
  "/>
<polyline clip-path="url(#clip342)" style="stroke:#e26f46; stroke-width:8; stroke-opacity:1; fill:none" points="
  280.231,1382.79 481.447,1384.45 682.663,1386.06 883.879,1382.47 1085.1,1384.14 1286.31,1384.73 1487.53,893.003 1688.74,1376.58 1889.96,1385.8 2091.18,1380.2 
  2292.39,1383.32 
  "/>
<polyline clip-path="url(#clip342)" style="stroke:#3da44d; stroke-width:8; stroke-opacity:1; fill:none" points="
  280.231,1380 481.447,1386.18 682.663,1371.53 883.879,1323.53 1085.1,1373.12 1286.31,1384.59 1487.53,1261.57 1688.74,1384.25 1889.96,1353.98 2091.18,1383.55 
  2292.39,1386.4 
  "/>
<path clip-path="url(#clip340)" d="
M1747.08 1379.86 L2281.66 1379.86 L2281.66 1137.94 L1747.08 1137.94  Z
  " fill="#ffffff" fill-rule="evenodd" fill-opacity="1"/>
<polyline clip-path="url(#clip340)" style="stroke:#000000; stroke-width:4; stroke-opacity:1; fill:none" points="
  1747.08,1379.86 2281.66,1379.86 2281.66,1137.94 1747.08,1137.94 1747.08,1379.86 
  "/>
<polyline clip-path="url(#clip340)" style="stroke:#009af9; stroke-width:4; stroke-opacity:1; fill:none" points="
  1770.78,1198.42 1912.97,1198.42 
  "/>
<path clip-path="url(#clip340)" d="M 0 0 M1957.02 1194.75 Q1958.62 1191.88 1960.84 1190.51 Q1963.06 1189.15 1966.07 1189.15 Q1970.12 1189.15 1972.32 1191.99 Q1974.52 1194.82 1974.52 1200.05 L1974.52 1215.7 L1970.24 1215.7 L1970.24 1200.19 Q1970.24 1196.46 1968.92 1194.65 Q1967.6 1192.85 1964.89 1192.85 Q1961.58 1192.85 1959.66 1195.05 Q1957.74 1197.25 1957.74 1201.04 L1957.74 1215.7 L1953.45 1215.7 L1953.45 1200.19 Q1953.45 1196.44 1952.13 1194.65 Q1950.81 1192.85 1948.06 1192.85 Q1944.8 1192.85 1942.87 1195.07 Q1940.95 1197.27 1940.95 1201.04 L1940.95 1215.7 L1936.67 1215.7 L1936.67 1189.77 L1940.95 1189.77 L1940.95 1193.8 Q1942.41 1191.41 1944.45 1190.28 Q1946.49 1189.15 1949.29 1189.15 Q1952.11 1189.15 1954.08 1190.58 Q1956.07 1192.02 1957.02 1194.75 Z" fill="#000000" fill-rule="evenodd" fill-opacity="1" /><path clip-path="url(#clip340)" d="M 0 0 M1994.8 1202.66 Q1989.63 1202.66 1987.64 1203.84 Q1985.65 1205.03 1985.65 1207.87 Q1985.65 1210.14 1987.13 1211.48 Q1988.64 1212.8 1991.21 1212.8 Q1994.75 1212.8 1996.88 1210.3 Q1999.03 1207.78 1999.03 1203.61 L1999.03 1202.66 L1994.8 1202.66 M2003.29 1200.9 L2003.29 1215.7 L1999.03 1215.7 L1999.03 1211.76 Q1997.57 1214.12 1995.4 1215.26 Q1993.22 1216.37 1990.07 1216.37 Q1986.09 1216.37 1983.73 1214.15 Q1981.39 1211.9 1981.39 1208.15 Q1981.39 1203.78 1984.31 1201.55 Q1987.25 1199.33 1993.06 1199.33 L1999.03 1199.33 L1999.03 1198.91 Q1999.03 1195.97 1997.09 1194.38 Q1995.17 1192.76 1991.67 1192.76 Q1989.45 1192.76 1987.34 1193.29 Q1985.24 1193.82 1983.29 1194.89 L1983.29 1190.95 Q1985.63 1190.05 1987.83 1189.61 Q1990.03 1189.15 1992.11 1189.15 Q1997.74 1189.15 2000.51 1192.06 Q2003.29 1194.98 2003.29 1200.9 Z" fill="#000000" fill-rule="evenodd" fill-opacity="1" /><path clip-path="url(#clip340)" d="M 0 0 M2029.12 1202.43 Q2029.12 1197.8 2027.2 1195.26 Q2025.3 1192.71 2021.86 1192.71 Q2018.43 1192.71 2016.51 1195.26 Q2014.61 1197.8 2014.61 1202.43 Q2014.61 1207.04 2016.51 1209.59 Q2018.43 1212.13 2021.86 1212.13 Q2025.3 1212.13 2027.2 1209.59 Q2029.12 1207.04 2029.12 1202.43 M2033.38 1212.48 Q2033.38 1219.1 2030.44 1222.32 Q2027.5 1225.56 2021.44 1225.56 Q2019.19 1225.56 2017.2 1225.21 Q2015.21 1224.89 2013.34 1224.19 L2013.34 1220.05 Q2015.21 1221.07 2017.04 1221.55 Q2018.87 1222.04 2020.77 1222.04 Q2024.96 1222.04 2027.04 1219.84 Q2029.12 1217.66 2029.12 1213.24 L2029.12 1211.14 Q2027.8 1213.43 2025.74 1214.56 Q2023.68 1215.7 2020.81 1215.7 Q2016.05 1215.7 2013.13 1212.06 Q2010.21 1208.43 2010.21 1202.43 Q2010.21 1196.41 2013.13 1192.78 Q2016.05 1189.15 2020.81 1189.15 Q2023.68 1189.15 2025.74 1190.28 Q2027.8 1191.41 2029.12 1193.71 L2029.12 1189.77 L2033.38 1189.77 L2033.38 1212.48 Z" fill="#000000" fill-rule="evenodd" fill-opacity="1" /><path clip-path="url(#clip340)" d="M 0 0 M2062.09 1184.98 L2062.09 1211.85 L2067.74 1211.85 Q2074.89 1211.85 2078.2 1208.61 Q2081.53 1205.37 2081.53 1198.38 Q2081.53 1191.44 2078.2 1188.22 Q2074.89 1184.98 2067.74 1184.98 L2062.09 1184.98 M2057.41 1181.14 L2067.02 1181.14 Q2077.06 1181.14 2081.76 1185.33 Q2086.46 1189.49 2086.46 1198.38 Q2086.46 1207.32 2081.74 1211.51 Q2077.02 1215.7 2067.02 1215.7 L2057.41 1215.7 L2057.41 1181.14 Z" fill="#000000" fill-rule="evenodd" fill-opacity="1" /><path clip-path="url(#clip340)" d="M 0 0 M2109.36 1194.17 L2139.03 1194.17 L2139.03 1198.06 L2109.36 1198.06 L2109.36 1194.17 M2109.36 1203.61 L2139.03 1203.61 L2139.03 1207.55 L2109.36 1207.55 L2109.36 1203.61 Z" fill="#000000" fill-rule="evenodd" fill-opacity="1" /><path clip-path="url(#clip340)" d="M 0 0 M2164.24 1181.14 L2182.6 1181.14 L2182.6 1185.07 L2168.52 1185.07 L2168.52 1193.54 Q2169.54 1193.2 2170.56 1193.03 Q2171.58 1192.85 2172.6 1192.85 Q2178.38 1192.85 2181.76 1196.02 Q2185.14 1199.19 2185.14 1204.61 Q2185.14 1210.19 2181.67 1213.29 Q2178.2 1216.37 2171.88 1216.37 Q2169.7 1216.37 2167.43 1216 Q2165.19 1215.63 2162.78 1214.89 L2162.78 1210.19 Q2164.86 1211.32 2167.09 1211.88 Q2169.31 1212.43 2171.79 1212.43 Q2175.79 1212.43 2178.13 1210.33 Q2180.47 1208.22 2180.47 1204.61 Q2180.47 1201 2178.13 1198.89 Q2175.79 1196.78 2171.79 1196.78 Q2169.91 1196.78 2168.04 1197.2 Q2166.18 1197.62 2164.24 1198.5 L2164.24 1181.14 Z" fill="#000000" fill-rule="evenodd" fill-opacity="1" /><polyline clip-path="url(#clip340)" style="stroke:#e26f46; stroke-width:4; stroke-opacity:1; fill:none" points="
  1770.78,1258.9 1912.97,1258.9 
  "/>
<path clip-path="url(#clip340)" d="M 0 0 M1937.25 1250.25 L1957.48 1250.25 L1957.48 1254.14 L1941.46 1272.77 L1957.48 1272.77 L1957.48 1276.18 L1936.67 1276.18 L1936.67 1272.29 L1952.69 1253.65 L1937.25 1253.65 L1937.25 1250.25 Z" fill="#000000" fill-rule="evenodd" fill-opacity="1" /><path clip-path="url(#clip340)" d="M 0 0 M1963.99 1250.25 L1968.24 1250.25 L1968.24 1276.18 L1963.99 1276.18 L1963.99 1250.25 M1963.99 1240.16 L1968.24 1240.16 L1968.24 1245.55 L1963.99 1245.55 L1963.99 1240.16 Z" fill="#000000" fill-rule="evenodd" fill-opacity="1" /><path clip-path="url(#clip340)" d="M 0 0 M1994.22 1262.91 Q1994.22 1258.28 1992.3 1255.74 Q1990.4 1253.19 1986.95 1253.19 Q1983.52 1253.19 1981.6 1255.74 Q1979.7 1258.28 1979.7 1262.91 Q1979.7 1267.52 1981.6 1270.07 Q1983.52 1272.61 1986.95 1272.61 Q1990.4 1272.61 1992.3 1270.07 Q1994.22 1267.52 1994.22 1262.91 M1998.48 1272.96 Q1998.48 1279.58 1995.54 1282.8 Q1992.6 1286.04 1986.53 1286.04 Q1984.29 1286.04 1982.3 1285.69 Q1980.31 1285.37 1978.43 1284.67 L1978.43 1280.53 Q1980.31 1281.55 1982.13 1282.03 Q1983.96 1282.52 1985.86 1282.52 Q1990.05 1282.52 1992.13 1280.32 Q1994.22 1278.14 1994.22 1273.72 L1994.22 1271.62 Q1992.9 1273.91 1990.84 1275.04 Q1988.78 1276.18 1985.91 1276.18 Q1981.14 1276.18 1978.22 1272.54 Q1975.31 1268.91 1975.31 1262.91 Q1975.31 1256.89 1978.22 1253.26 Q1981.14 1249.63 1985.91 1249.63 Q1988.78 1249.63 1990.84 1250.76 Q1992.9 1251.89 1994.22 1254.19 L1994.22 1250.25 L1998.48 1250.25 L1998.48 1272.96 Z" fill="#000000" fill-rule="evenodd" fill-opacity="1" /><path clip-path="url(#clip340)" d="M 0 0 M2005.4 1250.25 L2025.63 1250.25 L2025.63 1254.14 L2009.61 1272.77 L2025.63 1272.77 L2025.63 1276.18 L2004.82 1276.18 L2004.82 1272.29 L2020.84 1253.65 L2005.4 1253.65 L2005.4 1250.25 Z" fill="#000000" fill-rule="evenodd" fill-opacity="1" /><path clip-path="url(#clip340)" d="M 0 0 M2043.92 1263.14 Q2038.75 1263.14 2036.76 1264.32 Q2034.77 1265.51 2034.77 1268.35 Q2034.77 1270.62 2036.25 1271.96 Q2037.76 1273.28 2040.33 1273.28 Q2043.87 1273.28 2046 1270.78 Q2048.15 1268.26 2048.15 1264.09 L2048.15 1263.14 L2043.92 1263.14 M2052.41 1261.38 L2052.41 1276.18 L2048.15 1276.18 L2048.15 1272.24 Q2046.69 1274.6 2044.52 1275.74 Q2042.34 1276.85 2039.19 1276.85 Q2035.21 1276.85 2032.85 1274.63 Q2030.51 1272.38 2030.51 1268.63 Q2030.51 1264.26 2033.43 1262.03 Q2036.37 1259.81 2042.18 1259.81 L2048.15 1259.81 L2048.15 1259.39 Q2048.15 1256.45 2046.21 1254.86 Q2044.29 1253.24 2040.79 1253.24 Q2038.57 1253.24 2036.46 1253.77 Q2034.36 1254.3 2032.41 1255.37 L2032.41 1251.43 Q2034.75 1250.53 2036.95 1250.09 Q2039.15 1249.63 2041.23 1249.63 Q2046.86 1249.63 2049.63 1252.54 Q2052.41 1255.46 2052.41 1261.38 Z" fill="#000000" fill-rule="evenodd" fill-opacity="1" /><path clip-path="url(#clip340)" d="M 0 0 M2078.24 1262.91 Q2078.24 1258.28 2076.32 1255.74 Q2074.42 1253.19 2070.98 1253.19 Q2067.55 1253.19 2065.63 1255.74 Q2063.73 1258.28 2063.73 1262.91 Q2063.73 1267.52 2065.63 1270.07 Q2067.55 1272.61 2070.98 1272.61 Q2074.42 1272.61 2076.32 1270.07 Q2078.24 1267.52 2078.24 1262.91 M2082.5 1272.96 Q2082.5 1279.58 2079.56 1282.8 Q2076.62 1286.04 2070.56 1286.04 Q2068.31 1286.04 2066.32 1285.69 Q2064.33 1285.37 2062.46 1284.67 L2062.46 1280.53 Q2064.33 1281.55 2066.16 1282.03 Q2067.99 1282.52 2069.89 1282.52 Q2074.08 1282.52 2076.16 1280.32 Q2078.24 1278.14 2078.24 1273.72 L2078.24 1271.62 Q2076.92 1273.91 2074.86 1275.04 Q2072.8 1276.18 2069.93 1276.18 Q2065.17 1276.18 2062.25 1272.54 Q2059.33 1268.91 2059.33 1262.91 Q2059.33 1256.89 2062.25 1253.26 Q2065.17 1249.63 2069.93 1249.63 Q2072.8 1249.63 2074.86 1250.76 Q2076.92 1251.89 2078.24 1254.19 L2078.24 1250.25 L2082.5 1250.25 L2082.5 1272.96 Z" fill="#000000" fill-rule="evenodd" fill-opacity="1" /><path clip-path="url(#clip340)" d="M 0 0 M2111.21 1245.46 L2111.21 1272.33 L2116.86 1272.33 Q2124.01 1272.33 2127.32 1269.09 Q2130.65 1265.85 2130.65 1258.86 Q2130.65 1251.92 2127.32 1248.7 Q2124.01 1245.46 2116.86 1245.46 L2111.21 1245.46 M2106.53 1241.62 L2116.14 1241.62 Q2126.18 1241.62 2130.88 1245.81 Q2135.58 1249.97 2135.58 1258.86 Q2135.58 1267.8 2130.86 1271.99 Q2126.14 1276.18 2116.14 1276.18 L2106.53 1276.18 L2106.53 1241.62 Z" fill="#000000" fill-rule="evenodd" fill-opacity="1" /><path clip-path="url(#clip340)" d="M 0 0 M2158.48 1254.65 L2188.15 1254.65 L2188.15 1258.54 L2158.48 1258.54 L2158.48 1254.65 M2158.48 1264.09 L2188.15 1264.09 L2188.15 1268.03 L2158.48 1268.03 L2158.48 1264.09 Z" fill="#000000" fill-rule="evenodd" fill-opacity="1" /><path clip-path="url(#clip340)" d="M 0 0 M2213.36 1241.62 L2231.72 1241.62 L2231.72 1245.55 L2217.64 1245.55 L2217.64 1254.02 Q2218.66 1253.68 2219.68 1253.51 Q2220.7 1253.33 2221.72 1253.33 Q2227.5 1253.33 2230.88 1256.5 Q2234.26 1259.67 2234.26 1265.09 Q2234.26 1270.67 2230.79 1273.77 Q2227.32 1276.85 2221 1276.85 Q2218.82 1276.85 2216.55 1276.48 Q2214.31 1276.11 2211.9 1275.37 L2211.9 1270.67 Q2213.98 1271.8 2216.21 1272.36 Q2218.43 1272.91 2220.91 1272.91 Q2224.91 1272.91 2227.25 1270.81 Q2229.59 1268.7 2229.59 1265.09 Q2229.59 1261.48 2227.25 1259.37 Q2224.91 1257.26 2220.91 1257.26 Q2219.03 1257.26 2217.16 1257.68 Q2215.3 1258.1 2213.36 1258.98 L2213.36 1241.62 Z" fill="#000000" fill-rule="evenodd" fill-opacity="1" /><polyline clip-path="url(#clip340)" style="stroke:#3da44d; stroke-width:4; stroke-opacity:1; fill:none" points="
  1770.78,1319.38 1912.97,1319.38 
  "/>
<path clip-path="url(#clip340)" d="M 0 0 M1936.67 1302.1 L1942.97 1302.1 L1958.29 1331.01 L1958.29 1302.1 L1962.83 1302.1 L1962.83 1336.66 L1956.53 1336.66 L1941.21 1307.74 L1941.21 1336.66 L1936.67 1336.66 L1936.67 1302.1 Z" fill="#000000" fill-rule="evenodd" fill-opacity="1" /><path clip-path="url(#clip340)" d="M 0 0 M1994.12 1322.63 L1994.12 1324.71 L1974.54 1324.71 Q1974.82 1329.11 1977.18 1331.42 Q1979.56 1333.72 1983.8 1333.72 Q1986.25 1333.72 1988.55 1333.11 Q1990.86 1332.51 1993.13 1331.31 L1993.13 1335.34 Q1990.84 1336.31 1988.43 1336.82 Q1986.02 1337.33 1983.55 1337.33 Q1977.34 1337.33 1973.71 1333.72 Q1970.1 1330.11 1970.1 1323.95 Q1970.1 1317.58 1973.52 1313.86 Q1976.97 1310.11 1982.81 1310.11 Q1988.04 1310.11 1991.07 1313.49 Q1994.12 1316.84 1994.12 1322.63 M1989.87 1321.38 Q1989.82 1317.88 1987.9 1315.8 Q1986 1313.72 1982.85 1313.72 Q1979.29 1313.72 1977.13 1315.73 Q1975 1317.74 1974.68 1321.4 L1989.87 1321.38 Z" fill="#000000" fill-rule="evenodd" fill-opacity="1" /><path clip-path="url(#clip340)" d="M 0 0 M2023.29 1322.63 L2023.29 1324.71 L2003.71 1324.71 Q2003.99 1329.11 2006.35 1331.42 Q2008.73 1333.72 2012.97 1333.72 Q2015.42 1333.72 2017.71 1333.11 Q2020.03 1332.51 2022.3 1331.31 L2022.3 1335.34 Q2020 1336.31 2017.6 1336.82 Q2015.19 1337.33 2012.71 1337.33 Q2006.51 1337.33 2002.87 1333.72 Q1999.26 1330.11 1999.26 1323.95 Q1999.26 1317.58 2002.69 1313.86 Q2006.14 1310.11 2011.97 1310.11 Q2017.2 1310.11 2020.24 1313.49 Q2023.29 1316.84 2023.29 1322.63 M2019.03 1321.38 Q2018.99 1317.88 2017.06 1315.8 Q2015.17 1313.72 2012.02 1313.72 Q2008.45 1313.72 2006.3 1315.73 Q2004.17 1317.74 2003.85 1321.4 L2019.03 1321.38 Z" fill="#000000" fill-rule="evenodd" fill-opacity="1" /><path clip-path="url(#clip340)" d="M 0 0 M2030.28 1300.64 L2034.54 1300.64 L2034.54 1336.66 L2030.28 1336.66 L2030.28 1300.64 Z" fill="#000000" fill-rule="evenodd" fill-opacity="1" /><path clip-path="url(#clip340)" d="M 0 0 M2063.38 1305.94 L2063.38 1332.81 L2069.03 1332.81 Q2076.18 1332.81 2079.49 1329.57 Q2082.83 1326.33 2082.83 1319.34 Q2082.83 1312.4 2079.49 1309.18 Q2076.18 1305.94 2069.03 1305.94 L2063.38 1305.94 M2058.71 1302.1 L2068.31 1302.1 Q2078.36 1302.1 2083.06 1306.29 Q2087.76 1310.45 2087.76 1319.34 Q2087.76 1328.28 2083.04 1332.47 Q2078.31 1336.66 2068.31 1336.66 L2058.71 1336.66 L2058.71 1302.1 Z" fill="#000000" fill-rule="evenodd" fill-opacity="1" /><path clip-path="url(#clip340)" d="M 0 0 M2110.65 1315.13 L2140.33 1315.13 L2140.33 1319.02 L2110.65 1319.02 L2110.65 1315.13 M2110.65 1324.57 L2140.33 1324.57 L2140.33 1328.51 L2110.65 1328.51 L2110.65 1324.57 Z" fill="#000000" fill-rule="evenodd" fill-opacity="1" /><path clip-path="url(#clip340)" d="M 0 0 M2165.54 1302.1 L2183.89 1302.1 L2183.89 1306.03 L2169.82 1306.03 L2169.82 1314.5 Q2170.84 1314.16 2171.85 1313.99 Q2172.87 1313.81 2173.89 1313.81 Q2179.68 1313.81 2183.06 1316.98 Q2186.44 1320.15 2186.44 1325.57 Q2186.44 1331.15 2182.97 1334.25 Q2179.49 1337.33 2173.17 1337.33 Q2171 1337.33 2168.73 1336.96 Q2166.48 1336.59 2164.08 1335.85 L2164.08 1331.15 Q2166.16 1332.28 2168.38 1332.84 Q2170.6 1333.39 2173.08 1333.39 Q2177.09 1333.39 2179.42 1331.29 Q2181.76 1329.18 2181.76 1325.57 Q2181.76 1321.96 2179.42 1319.85 Q2177.09 1317.74 2173.08 1317.74 Q2171.21 1317.74 2169.33 1318.16 Q2167.48 1318.58 2165.54 1319.46 L2165.54 1302.1 Z" fill="#000000" fill-rule="evenodd" fill-opacity="1" /></svg>
