<?xml version="1.0" encoding="utf-8"?>
<svg xmlns="http://www.w3.org/2000/svg" xmlns:xlink="http://www.w3.org/1999/xlink" width="600" height="400" viewBox="0 0 2400 1600">
<defs>
  <clipPath id="clip300">
    <rect x="0" y="0" width="2400" height="1600"/>
  </clipPath>
</defs>
<path clip-path="url(#clip300)" d="
M0 1600 L2400 1600 L2400 0 L0 0  Z
  " fill="#ffffff" fill-rule="evenodd" fill-opacity="1"/>
<defs>
  <clipPath id="clip301">
    <rect x="480" y="0" width="1681" height="1600"/>
  </clipPath>
</defs>
<path clip-path="url(#clip300)" d="
M219.866 1423.18 L2352.76 1423.18 L2352.76 123.472 L219.866 123.472  Z
  " fill="#ffffff" fill-rule="evenodd" fill-opacity="1"/>
<defs>
  <clipPath id="clip302">
    <rect x="219" y="123" width="2134" height="1301"/>
  </clipPath>
</defs>
<polyline clip-path="url(#clip302)" style="stroke:#000000; stroke-width:2; stroke-opacity:0.1; fill:none" points="
  481.447,1423.18 481.447,123.472 
  "/>
<polyline clip-path="url(#clip302)" style="stroke:#000000; stroke-width:2; stroke-opacity:0.1; fill:none" points="
  883.879,1423.18 883.879,123.472 
  "/>
<polyline clip-path="url(#clip302)" style="stroke:#000000; stroke-width:2; stroke-opacity:0.1; fill:none" points="
  1286.31,1423.18 1286.31,123.472 
  "/>
<polyline clip-path="url(#clip302)" style="stroke:#000000; stroke-width:2; stroke-opacity:0.1; fill:none" points="
  1688.74,1423.18 1688.74,123.472 
  "/>
<polyline clip-path="url(#clip302)" style="stroke:#000000; stroke-width:2; stroke-opacity:0.1; fill:none" points="
  2091.18,1423.18 2091.18,123.472 
  "/>
<polyline clip-path="url(#clip300)" style="stroke:#000000; stroke-width:4; stroke-opacity:1; fill:none" points="
  219.866,1423.18 2352.76,1423.18 
  "/>
<polyline clip-path="url(#clip300)" style="stroke:#000000; stroke-width:4; stroke-opacity:1; fill:none" points="
  481.447,1423.18 481.447,1407.58 
  "/>
<polyline clip-path="url(#clip300)" style="stroke:#000000; stroke-width:4; stroke-opacity:1; fill:none" points="
  883.879,1423.18 883.879,1407.58 
  "/>
<polyline clip-path="url(#clip300)" style="stroke:#000000; stroke-width:4; stroke-opacity:1; fill:none" points="
  1286.31,1423.18 1286.31,1407.58 
  "/>
<polyline clip-path="url(#clip300)" style="stroke:#000000; stroke-width:4; stroke-opacity:1; fill:none" points="
  1688.74,1423.18 1688.74,1407.58 
  "/>
<polyline clip-path="url(#clip300)" style="stroke:#000000; stroke-width:4; stroke-opacity:1; fill:none" points="
  2091.18,1423.18 2091.18,1407.58 
  "/>
<path clip-path="url(#clip300)" d="M 0 0 M466.239 1467.44 Q462.906 1467.44 460.984 1469.22 Q459.086 1471 459.086 1474.13 Q459.086 1477.25 460.984 1479.04 Q462.906 1480.82 466.239 1480.82 Q469.572 1480.82 471.493 1479.04 Q473.415 1477.23 473.415 1474.13 Q473.415 1471 471.493 1469.22 Q469.595 1467.44 466.239 1467.44 M461.563 1465.45 Q458.554 1464.71 456.864 1462.65 Q455.197 1460.59 455.197 1457.63 Q455.197 1453.48 458.137 1451.07 Q461.1 1448.67 466.239 1448.67 Q471.401 1448.67 474.341 1451.07 Q477.28 1453.48 477.28 1457.63 Q477.28 1460.59 475.591 1462.65 Q473.924 1464.71 470.938 1465.45 Q474.317 1466.24 476.192 1468.53 Q478.091 1470.82 478.091 1474.13 Q478.091 1479.15 475.012 1481.84 Q471.956 1484.52 466.239 1484.52 Q460.521 1484.52 457.443 1481.84 Q454.387 1479.15 454.387 1474.13 Q454.387 1470.82 456.285 1468.53 Q458.183 1466.24 461.563 1465.45 M459.85 1458.06 Q459.85 1460.75 461.517 1462.25 Q463.206 1463.76 466.239 1463.76 Q469.248 1463.76 470.938 1462.25 Q472.651 1460.75 472.651 1458.06 Q472.651 1455.38 470.938 1453.88 Q469.248 1452.37 466.239 1452.37 Q463.206 1452.37 461.517 1453.88 Q459.85 1455.38 459.85 1458.06 Z" fill="#000000" fill-rule="evenodd" fill-opacity="1" /><path clip-path="url(#clip300)" d="M 0 0 M496.979 1464.71 Q493.831 1464.71 491.979 1466.86 Q490.151 1469.01 490.151 1472.76 Q490.151 1476.49 491.979 1478.67 Q493.831 1480.82 496.979 1480.82 Q500.128 1480.82 501.956 1478.67 Q503.808 1476.49 503.808 1472.76 Q503.808 1469.01 501.956 1466.86 Q500.128 1464.71 496.979 1464.71 M506.262 1450.06 L506.262 1454.31 Q504.503 1453.48 502.697 1453.04 Q500.915 1452.6 499.155 1452.6 Q494.526 1452.6 492.072 1455.73 Q489.641 1458.85 489.294 1465.17 Q490.66 1463.16 492.72 1462.09 Q494.78 1461 497.257 1461 Q502.465 1461 505.475 1464.18 Q508.507 1467.32 508.507 1472.76 Q508.507 1478.09 505.359 1481.31 Q502.211 1484.52 496.979 1484.52 Q490.984 1484.52 487.813 1479.94 Q484.641 1475.33 484.641 1466.61 Q484.641 1458.41 488.53 1453.55 Q492.419 1448.67 498.97 1448.67 Q500.729 1448.67 502.512 1449.01 Q504.317 1449.36 506.262 1450.06 Z" fill="#000000" fill-rule="evenodd" fill-opacity="1" /><path clip-path="url(#clip300)" d="M 0 0 M868.798 1467.44 Q865.465 1467.44 863.544 1469.22 Q861.645 1471 861.645 1474.13 Q861.645 1477.25 863.544 1479.04 Q865.465 1480.82 868.798 1480.82 Q872.131 1480.82 874.053 1479.04 Q875.974 1477.23 875.974 1474.13 Q875.974 1471 874.053 1469.22 Q872.155 1467.44 868.798 1467.44 M864.122 1465.45 Q861.113 1464.71 859.423 1462.65 Q857.757 1460.59 857.757 1457.63 Q857.757 1453.48 860.696 1451.07 Q863.659 1448.67 868.798 1448.67 Q873.96 1448.67 876.9 1451.07 Q879.84 1453.48 879.84 1457.63 Q879.84 1460.59 878.15 1462.65 Q876.483 1464.71 873.497 1465.45 Q876.877 1466.24 878.752 1468.53 Q880.65 1470.82 880.65 1474.13 Q880.65 1479.15 877.571 1481.84 Q874.516 1484.52 868.798 1484.52 Q863.081 1484.52 860.002 1481.84 Q856.946 1479.15 856.946 1474.13 Q856.946 1470.82 858.844 1468.53 Q860.743 1466.24 864.122 1465.45 M862.409 1458.06 Q862.409 1460.75 864.076 1462.25 Q865.766 1463.76 868.798 1463.76 Q871.807 1463.76 873.497 1462.25 Q875.21 1460.75 875.21 1458.06 Q875.21 1455.38 873.497 1453.88 Q871.807 1452.37 868.798 1452.37 Q865.766 1452.37 864.076 1453.88 Q862.409 1455.38 862.409 1458.06 Z" fill="#000000" fill-rule="evenodd" fill-opacity="1" /><path clip-path="url(#clip300)" d="M 0 0 M898.96 1467.44 Q895.627 1467.44 893.705 1469.22 Q891.807 1471 891.807 1474.13 Q891.807 1477.25 893.705 1479.04 Q895.627 1480.82 898.96 1480.82 Q902.293 1480.82 904.215 1479.04 Q906.136 1477.23 906.136 1474.13 Q906.136 1471 904.215 1469.22 Q902.316 1467.44 898.96 1467.44 M894.284 1465.45 Q891.275 1464.71 889.585 1462.65 Q887.918 1460.59 887.918 1457.63 Q887.918 1453.48 890.858 1451.07 Q893.821 1448.67 898.96 1448.67 Q904.122 1448.67 907.062 1451.07 Q910.002 1453.48 910.002 1457.63 Q910.002 1460.59 908.312 1462.65 Q906.645 1464.71 903.659 1465.45 Q907.039 1466.24 908.914 1468.53 Q910.812 1470.82 910.812 1474.13 Q910.812 1479.15 907.733 1481.84 Q904.678 1484.52 898.96 1484.52 Q893.242 1484.52 890.164 1481.84 Q887.108 1479.15 887.108 1474.13 Q887.108 1470.82 889.006 1468.53 Q890.905 1466.24 894.284 1465.45 M892.571 1458.06 Q892.571 1460.75 894.238 1462.25 Q895.928 1463.76 898.96 1463.76 Q901.969 1463.76 903.659 1462.25 Q905.372 1460.75 905.372 1458.06 Q905.372 1455.38 903.659 1453.88 Q901.969 1452.37 898.96 1452.37 Q895.928 1452.37 894.238 1453.88 Q892.571 1455.38 892.571 1458.06 Z" fill="#000000" fill-rule="evenodd" fill-opacity="1" /><path clip-path="url(#clip300)" d="M 0 0 M1261.44 1483.13 L1261.44 1478.88 Q1263.2 1479.71 1265 1480.15 Q1266.81 1480.59 1268.54 1480.59 Q1273.17 1480.59 1275.61 1477.49 Q1278.06 1474.36 1278.41 1468.02 Q1277.06 1470.01 1275 1471.07 Q1272.94 1472.14 1270.44 1472.14 Q1265.26 1472.14 1262.23 1469.01 Q1259.22 1465.87 1259.22 1460.43 Q1259.22 1455.1 1262.36 1451.88 Q1265.51 1448.67 1270.74 1448.67 Q1276.74 1448.67 1279.89 1453.27 Q1283.06 1457.86 1283.06 1466.61 Q1283.06 1474.78 1279.17 1479.66 Q1275.3 1484.52 1268.75 1484.52 Q1266.99 1484.52 1265.19 1484.18 Q1263.38 1483.83 1261.44 1483.13 M1270.74 1468.48 Q1273.89 1468.48 1275.72 1466.33 Q1277.57 1464.18 1277.57 1460.43 Q1277.57 1456.7 1275.72 1454.55 Q1273.89 1452.37 1270.74 1452.37 Q1267.6 1452.37 1265.74 1454.55 Q1263.92 1456.7 1263.92 1460.43 Q1263.92 1464.18 1265.74 1466.33 Q1267.6 1468.48 1270.74 1468.48 Z" fill="#000000" fill-rule="evenodd" fill-opacity="1" /><path clip-path="url(#clip300)" d="M 0 0 M1301.46 1452.37 Q1297.85 1452.37 1296.02 1455.94 Q1294.22 1459.48 1294.22 1466.61 Q1294.22 1473.71 1296.02 1477.28 Q1297.85 1480.82 1301.46 1480.82 Q1305.1 1480.82 1306.9 1477.28 Q1308.73 1473.71 1308.73 1466.61 Q1308.73 1459.48 1306.9 1455.94 Q1305.1 1452.37 1301.46 1452.37 M1301.46 1448.67 Q1307.27 1448.67 1310.33 1453.27 Q1313.41 1457.86 1313.41 1466.61 Q1313.41 1475.33 1310.33 1479.94 Q1307.27 1484.52 1301.46 1484.52 Q1295.65 1484.52 1292.57 1479.94 Q1289.52 1475.33 1289.52 1466.61 Q1289.52 1457.86 1292.57 1453.27 Q1295.65 1448.67 1301.46 1448.67 Z" fill="#000000" fill-rule="evenodd" fill-opacity="1" /><path clip-path="url(#clip300)" d="M 0 0 M1664.67 1483.13 L1664.67 1478.88 Q1666.43 1479.71 1668.23 1480.15 Q1670.04 1480.59 1671.78 1480.59 Q1676.41 1480.59 1678.84 1477.49 Q1681.29 1474.36 1681.64 1468.02 Q1680.29 1470.01 1678.23 1471.07 Q1676.17 1472.14 1673.67 1472.14 Q1668.49 1472.14 1665.46 1469.01 Q1662.45 1465.87 1662.45 1460.43 Q1662.45 1455.1 1665.6 1451.88 Q1668.74 1448.67 1673.97 1448.67 Q1679.97 1448.67 1683.12 1453.27 Q1686.29 1457.86 1686.29 1466.61 Q1686.29 1474.78 1682.4 1479.66 Q1678.53 1484.52 1671.98 1484.52 Q1670.22 1484.52 1668.42 1484.18 Q1666.61 1483.83 1664.67 1483.13 M1673.97 1468.48 Q1677.12 1468.48 1678.95 1466.33 Q1680.8 1464.18 1680.8 1460.43 Q1680.8 1456.7 1678.95 1454.55 Q1677.12 1452.37 1673.97 1452.37 Q1670.83 1452.37 1668.97 1454.55 Q1667.15 1456.7 1667.15 1460.43 Q1667.15 1464.18 1668.97 1466.33 Q1670.83 1468.48 1673.97 1468.48 Z" fill="#000000" fill-rule="evenodd" fill-opacity="1" /><path clip-path="url(#clip300)" d="M 0 0 M1698.72 1479.92 L1715.04 1479.92 L1715.04 1483.85 L1693.09 1483.85 L1693.09 1479.92 Q1695.76 1477.16 1700.34 1472.53 Q1704.95 1467.88 1706.13 1466.54 Q1708.37 1464.01 1709.25 1462.28 Q1710.16 1460.52 1710.16 1458.83 Q1710.16 1456.07 1708.21 1454.34 Q1706.29 1452.6 1703.19 1452.6 Q1700.99 1452.6 1698.53 1453.37 Q1696.1 1454.13 1693.33 1455.68 L1693.33 1450.96 Q1696.15 1449.82 1698.6 1449.25 Q1701.06 1448.67 1703.09 1448.67 Q1708.47 1448.67 1711.66 1451.35 Q1714.85 1454.04 1714.85 1458.53 Q1714.85 1460.66 1714.04 1462.58 Q1713.26 1464.48 1711.15 1467.07 Q1710.57 1467.74 1707.47 1470.96 Q1704.37 1474.15 1698.72 1479.92 Z" fill="#000000" fill-rule="evenodd" fill-opacity="1" /><path clip-path="url(#clip300)" d="M 0 0 M2066.06 1483.13 L2066.06 1478.88 Q2067.82 1479.71 2069.62 1480.15 Q2071.43 1480.59 2073.17 1480.59 Q2077.8 1480.59 2080.23 1477.49 Q2082.68 1474.36 2083.03 1468.02 Q2081.68 1470.01 2079.62 1471.07 Q2077.56 1472.14 2075.06 1472.14 Q2069.88 1472.14 2066.85 1469.01 Q2063.84 1465.87 2063.84 1460.43 Q2063.84 1455.1 2066.99 1451.88 Q2070.13 1448.67 2075.37 1448.67 Q2081.36 1448.67 2084.51 1453.27 Q2087.68 1457.86 2087.68 1466.61 Q2087.68 1474.78 2083.79 1479.66 Q2079.93 1484.52 2073.37 1484.52 Q2071.62 1484.52 2069.81 1484.18 Q2068 1483.83 2066.06 1483.13 M2075.37 1468.48 Q2078.51 1468.48 2080.34 1466.33 Q2082.19 1464.18 2082.19 1460.43 Q2082.19 1456.7 2080.34 1454.55 Q2078.51 1452.37 2075.37 1452.37 Q2072.22 1452.37 2070.37 1454.55 Q2068.54 1456.7 2068.54 1460.43 Q2068.54 1464.18 2070.37 1466.33 Q2072.22 1468.48 2075.37 1468.48 Z" fill="#000000" fill-rule="evenodd" fill-opacity="1" /><path clip-path="url(#clip300)" d="M 0 0 M2108.93 1453.37 L2097.12 1471.81 L2108.93 1471.81 L2108.93 1453.37 M2107.7 1449.29 L2113.58 1449.29 L2113.58 1471.81 L2118.51 1471.81 L2118.51 1475.7 L2113.58 1475.7 L2113.58 1483.85 L2108.93 1483.85 L2108.93 1475.7 L2093.33 1475.7 L2093.33 1471.19 L2107.7 1449.29 Z" fill="#000000" fill-rule="evenodd" fill-opacity="1" /><path clip-path="url(#clip300)" d="M 0 0 M1164.5 1518.52 L1164.5 1531.66 Q1170.84 1531.66 1175.07 1536.53 Q1179.43 1541.5 1179.43 1550.25 Q1179.43 1559 1175.07 1563.97 Q1170.84 1568.84 1164.5 1568.84 L1164.5 1581.6 L1158.68 1581.6 L1158.68 1568.84 Q1152.34 1568.84 1148.08 1563.97 Q1143.75 1559 1143.75 1550.25 Q1143.75 1541.5 1148.08 1536.53 Q1152.34 1531.66 1158.68 1531.66 L1158.68 1518.52 L1164.5 1518.52 M1164.5 1563.62 Q1168.1 1563.62 1170.55 1560.34 Q1173.22 1556.68 1173.26 1550.25 Q1173.29 1543.89 1170.55 1540.16 Q1168.1 1536.88 1164.5 1536.88 L1164.5 1563.62 M1158.68 1563.62 L1158.68 1536.88 Q1155.08 1536.88 1152.66 1540.16 Q1149.89 1543.89 1149.93 1550.25 Q1149.96 1556.68 1152.66 1560.34 Q1155.08 1563.62 1158.68 1563.62 Z" fill="#000000" fill-rule="evenodd" fill-opacity="1" /><path clip-path="url(#clip300)" d="M 0 0 M1233.51 1537.81 L1233.51 1518.52 L1239.36 1518.52 L1239.36 1568.04 L1233.51 1568.04 L1233.51 1562.7 Q1231.66 1565.88 1228.83 1567.44 Q1226.03 1568.97 1222.08 1568.97 Q1215.62 1568.97 1211.55 1563.81 Q1207.5 1558.65 1207.5 1550.25 Q1207.5 1541.85 1211.55 1536.69 Q1215.62 1531.54 1222.08 1531.54 Q1226.03 1531.54 1228.83 1533.1 Q1231.66 1534.62 1233.51 1537.81 M1213.55 1550.25 Q1213.55 1556.71 1216.19 1560.4 Q1218.87 1564.07 1223.51 1564.07 Q1228.16 1564.07 1230.83 1560.4 Q1233.51 1556.71 1233.51 1550.25 Q1233.51 1543.79 1230.83 1540.13 Q1228.16 1536.44 1223.51 1536.44 Q1218.87 1536.44 1216.19 1540.13 Q1213.55 1543.79 1213.55 1550.25 Z" fill="#000000" fill-rule="evenodd" fill-opacity="1" /><path clip-path="url(#clip300)" d="M 0 0 M1281.92 1548.76 L1281.92 1551.62 L1254.99 1551.62 Q1255.37 1557.67 1258.62 1560.85 Q1261.9 1564 1267.72 1564 Q1271.1 1564 1274.25 1563.17 Q1277.43 1562.35 1280.55 1560.69 L1280.55 1566.23 Q1277.4 1567.57 1274.09 1568.27 Q1270.78 1568.97 1267.37 1568.97 Q1258.84 1568.97 1253.85 1564 Q1248.88 1559.04 1248.88 1550.57 Q1248.88 1541.82 1253.59 1536.69 Q1258.33 1531.54 1266.35 1531.54 Q1273.55 1531.54 1277.72 1536.18 Q1281.92 1540.8 1281.92 1548.76 M1276.06 1547.04 Q1276 1542.23 1273.36 1539.37 Q1270.75 1536.5 1266.42 1536.5 Q1261.52 1536.5 1258.56 1539.27 Q1255.63 1542.04 1255.18 1547.07 L1276.06 1547.04 Z" fill="#000000" fill-rule="evenodd" fill-opacity="1" /><path clip-path="url(#clip300)" d="M 0 0 M1314.99 1549.81 Q1314.99 1543.44 1312.35 1539.94 Q1309.74 1536.44 1304.99 1536.44 Q1300.28 1536.44 1297.64 1539.94 Q1295.03 1543.44 1295.03 1549.81 Q1295.03 1556.14 1297.64 1559.64 Q1300.28 1563.14 1304.99 1563.14 Q1309.74 1563.14 1312.35 1559.64 Q1314.99 1556.14 1314.99 1549.81 M1320.85 1563.62 Q1320.85 1572.72 1316.8 1577.15 Q1312.76 1581.6 1304.42 1581.6 Q1301.33 1581.6 1298.6 1581.13 Q1295.86 1580.68 1293.28 1579.72 L1293.28 1574.03 Q1295.86 1575.43 1298.37 1576.1 Q1300.89 1576.76 1303.5 1576.76 Q1309.26 1576.76 1312.12 1573.74 Q1314.99 1570.75 1314.99 1564.67 L1314.99 1561.77 Q1313.17 1564.92 1310.34 1566.48 Q1307.51 1568.04 1303.56 1568.04 Q1297.01 1568.04 1293 1563.05 Q1288.98 1558.05 1288.98 1549.81 Q1288.98 1541.53 1293 1536.53 Q1297.01 1531.54 1303.56 1531.54 Q1307.51 1531.54 1310.34 1533.1 Q1313.17 1534.66 1314.99 1537.81 L1314.99 1532.4 L1320.85 1532.4 L1320.85 1563.62 Z" fill="#000000" fill-rule="evenodd" fill-opacity="1" /><path clip-path="url(#clip300)" d="M 0 0 M1353.56 1537.87 Q1352.58 1537.3 1351.4 1537.04 Q1350.25 1536.76 1348.85 1536.76 Q1343.89 1536.76 1341.22 1540 Q1338.57 1543.22 1338.57 1549.27 L1338.57 1568.04 L1332.69 1568.04 L1332.69 1532.4 L1338.57 1532.4 L1338.57 1537.93 Q1340.42 1534.69 1343.38 1533.13 Q1346.34 1531.54 1350.57 1531.54 Q1351.18 1531.54 1351.91 1531.63 Q1352.64 1531.7 1353.53 1531.85 L1353.56 1537.87 Z" fill="#000000" fill-rule="evenodd" fill-opacity="1" /><path clip-path="url(#clip300)" d="M 0 0 M1388.77 1548.76 L1388.77 1551.62 L1361.84 1551.62 Q1362.22 1557.67 1365.47 1560.85 Q1368.75 1564 1374.57 1564 Q1377.95 1564 1381.1 1563.17 Q1384.28 1562.35 1387.4 1560.69 L1387.4 1566.23 Q1384.25 1567.57 1380.94 1568.27 Q1377.63 1568.97 1374.22 1568.97 Q1365.69 1568.97 1360.69 1564 Q1355.73 1559.04 1355.73 1550.57 Q1355.73 1541.82 1360.44 1536.69 Q1365.18 1531.54 1373.2 1531.54 Q1380.4 1531.54 1384.57 1536.18 Q1388.77 1540.8 1388.77 1548.76 M1382.91 1547.04 Q1382.85 1542.23 1380.21 1539.37 Q1377.6 1536.5 1373.27 1536.5 Q1368.37 1536.5 1365.4 1539.27 Q1362.48 1542.04 1362.03 1547.07 L1382.91 1547.04 Z" fill="#000000" fill-rule="evenodd" fill-opacity="1" /><path clip-path="url(#clip300)" d="M 0 0 M1428.87 1548.76 L1428.87 1551.62 L1401.94 1551.62 Q1402.33 1557.67 1405.57 1560.85 Q1408.85 1564 1414.68 1564 Q1418.05 1564 1421.2 1563.17 Q1424.38 1562.35 1427.5 1560.69 L1427.5 1566.23 Q1424.35 1567.57 1421.04 1568.27 Q1417.73 1568.97 1414.33 1568.97 Q1405.8 1568.97 1400.8 1564 Q1395.83 1559.04 1395.83 1550.57 Q1395.83 1541.82 1400.54 1536.69 Q1405.29 1531.54 1413.31 1531.54 Q1420.5 1531.54 1424.67 1536.18 Q1428.87 1540.8 1428.87 1548.76 M1423.01 1547.04 Q1422.95 1542.23 1420.31 1539.37 Q1417.7 1536.5 1413.37 1536.5 Q1408.47 1536.5 1405.51 1539.27 Q1402.58 1542.04 1402.14 1547.07 L1423.01 1547.04 Z" fill="#000000" fill-rule="evenodd" fill-opacity="1" /><polyline clip-path="url(#clip302)" style="stroke:#000000; stroke-width:2; stroke-opacity:0.1; fill:none" points="
  219.866,1386.4 2352.76,1386.4 
  "/>
<polyline clip-path="url(#clip302)" style="stroke:#000000; stroke-width:2; stroke-opacity:0.1; fill:none" points="
  219.866,1156.15 2352.76,1156.15 
  "/>
<polyline clip-path="url(#clip302)" style="stroke:#000000; stroke-width:2; stroke-opacity:0.1; fill:none" points="
  219.866,925.891 2352.76,925.891 
  "/>
<polyline clip-path="url(#clip302)" style="stroke:#000000; stroke-width:2; stroke-opacity:0.1; fill:none" points="
  219.866,695.637 2352.76,695.637 
  "/>
<polyline clip-path="url(#clip302)" style="stroke:#000000; stroke-width:2; stroke-opacity:0.1; fill:none" points="
  219.866,465.383 2352.76,465.383 
  "/>
<polyline clip-path="url(#clip302)" style="stroke:#000000; stroke-width:2; stroke-opacity:0.1; fill:none" points="
  219.866,235.129 2352.76,235.129 
  "/>
<polyline clip-path="url(#clip300)" style="stroke:#000000; stroke-width:4; stroke-opacity:1; fill:none" points="
  219.866,1423.18 219.866,123.472 
  "/>
<polyline clip-path="url(#clip300)" style="stroke:#000000; stroke-width:4; stroke-opacity:1; fill:none" points="
  219.866,1386.4 245.461,1386.4 
  "/>
<polyline clip-path="url(#clip300)" style="stroke:#000000; stroke-width:4; stroke-opacity:1; fill:none" points="
  219.866,1156.15 245.461,1156.15 
  "/>
<polyline clip-path="url(#clip300)" style="stroke:#000000; stroke-width:4; stroke-opacity:1; fill:none" points="
  219.866,925.891 245.461,925.891 
  "/>
<polyline clip-path="url(#clip300)" style="stroke:#000000; stroke-width:4; stroke-opacity:1; fill:none" points="
  219.866,695.637 245.461,695.637 
  "/>
<polyline clip-path="url(#clip300)" style="stroke:#000000; stroke-width:4; stroke-opacity:1; fill:none" points="
  219.866,465.383 245.461,465.383 
  "/>
<polyline clip-path="url(#clip300)" style="stroke:#000000; stroke-width:4; stroke-opacity:1; fill:none" points="
  219.866,235.129 245.461,235.129 
  "/>
<path clip-path="url(#clip300)" d="M 0 0 M126.691 1372.2 Q123.08 1372.2 121.251 1375.76 Q119.445 1379.31 119.445 1386.43 Q119.445 1393.54 121.251 1397.11 Q123.08 1400.65 126.691 1400.65 Q130.325 1400.65 132.13 1397.11 Q133.959 1393.54 133.959 1386.43 Q133.959 1379.31 132.13 1375.76 Q130.325 1372.2 126.691 1372.2 M126.691 1368.5 Q132.501 1368.5 135.556 1373.1 Q138.635 1377.68 138.635 1386.43 Q138.635 1395.16 135.556 1399.77 Q132.501 1404.35 126.691 1404.35 Q120.88 1404.35 117.802 1399.77 Q114.746 1395.16 114.746 1386.43 Q114.746 1377.68 117.802 1373.1 Q120.88 1368.5 126.691 1368.5 Z" fill="#000000" fill-rule="evenodd" fill-opacity="1" /><path clip-path="url(#clip300)" d="M 0 0 M146.853 1397.8 L151.737 1397.8 L151.737 1403.68 L146.853 1403.68 L146.853 1397.8 Z" fill="#000000" fill-rule="evenodd" fill-opacity="1" /><path clip-path="url(#clip300)" d="M 0 0 M171.922 1372.2 Q168.311 1372.2 166.482 1375.76 Q164.677 1379.31 164.677 1386.43 Q164.677 1393.54 166.482 1397.11 Q168.311 1400.65 171.922 1400.65 Q175.556 1400.65 177.362 1397.11 Q179.19 1393.54 179.19 1386.43 Q179.19 1379.31 177.362 1375.76 Q175.556 1372.2 171.922 1372.2 M171.922 1368.5 Q177.732 1368.5 180.788 1373.1 Q183.866 1377.68 183.866 1386.43 Q183.866 1395.16 180.788 1399.77 Q177.732 1404.35 171.922 1404.35 Q166.112 1404.35 163.033 1399.77 Q159.978 1395.16 159.978 1386.43 Q159.978 1377.68 163.033 1373.1 Q166.112 1368.5 171.922 1368.5 Z" fill="#000000" fill-rule="evenodd" fill-opacity="1" /><path clip-path="url(#clip300)" d="M 0 0 M127.917 1141.94 Q124.306 1141.94 122.478 1145.51 Q120.672 1149.05 120.672 1156.18 Q120.672 1163.29 122.478 1166.85 Q124.306 1170.39 127.917 1170.39 Q131.552 1170.39 133.357 1166.85 Q135.186 1163.29 135.186 1156.18 Q135.186 1149.05 133.357 1145.51 Q131.552 1141.94 127.917 1141.94 M127.917 1138.24 Q133.728 1138.24 136.783 1142.85 Q139.862 1147.43 139.862 1156.18 Q139.862 1164.91 136.783 1169.51 Q133.728 1174.1 127.917 1174.1 Q122.107 1174.1 119.029 1169.51 Q115.973 1164.91 115.973 1156.18 Q115.973 1147.43 119.029 1142.85 Q122.107 1138.24 127.917 1138.24 Z" fill="#000000" fill-rule="evenodd" fill-opacity="1" /><path clip-path="url(#clip300)" d="M 0 0 M148.079 1167.55 L152.964 1167.55 L152.964 1173.43 L148.079 1173.43 L148.079 1167.55 Z" fill="#000000" fill-rule="evenodd" fill-opacity="1" /><path clip-path="url(#clip300)" d="M 0 0 M163.959 1169.49 L171.598 1169.49 L171.598 1143.12 L163.288 1144.79 L163.288 1140.53 L171.552 1138.87 L176.227 1138.87 L176.227 1169.49 L183.866 1169.49 L183.866 1173.43 L163.959 1173.43 L163.959 1169.49 Z" fill="#000000" fill-rule="evenodd" fill-opacity="1" /><path clip-path="url(#clip300)" d="M 0 0 M128.288 911.69 Q124.677 911.69 122.848 915.255 Q121.043 918.797 121.043 925.926 Q121.043 933.033 122.848 936.597 Q124.677 940.139 128.288 940.139 Q131.922 940.139 133.728 936.597 Q135.556 933.033 135.556 925.926 Q135.556 918.797 133.728 915.255 Q131.922 911.69 128.288 911.69 M128.288 907.986 Q134.098 907.986 137.154 912.593 Q140.232 917.176 140.232 925.926 Q140.232 934.653 137.154 939.259 Q134.098 943.843 128.288 943.843 Q122.478 943.843 119.399 939.259 Q116.343 934.653 116.343 925.926 Q116.343 917.176 119.399 912.593 Q122.478 907.986 128.288 907.986 Z" fill="#000000" fill-rule="evenodd" fill-opacity="1" /><path clip-path="url(#clip300)" d="M 0 0 M148.45 937.292 L153.334 937.292 L153.334 943.171 L148.45 943.171 L148.45 937.292 Z" fill="#000000" fill-rule="evenodd" fill-opacity="1" /><path clip-path="url(#clip300)" d="M 0 0 M167.547 939.236 L183.866 939.236 L183.866 943.171 L161.922 943.171 L161.922 939.236 Q164.584 936.482 169.167 931.852 Q173.774 927.199 174.954 925.857 Q177.2 923.334 178.079 921.598 Q178.982 919.838 178.982 918.148 Q178.982 915.394 177.038 913.658 Q175.116 911.922 172.014 911.922 Q169.815 911.922 167.362 912.686 Q164.931 913.449 162.153 915 L162.153 910.278 Q164.977 909.144 167.431 908.565 Q169.885 907.986 171.922 907.986 Q177.292 907.986 180.487 910.672 Q183.681 913.357 183.681 917.848 Q183.681 919.977 182.871 921.898 Q182.084 923.797 179.977 926.389 Q179.399 927.06 176.297 930.278 Q173.195 933.472 167.547 939.236 Z" fill="#000000" fill-rule="evenodd" fill-opacity="1" /><path clip-path="url(#clip300)" d="M 0 0 M127.339 681.436 Q123.728 681.436 121.899 685.001 Q120.093 688.542 120.093 695.672 Q120.093 702.778 121.899 706.343 Q123.728 709.885 127.339 709.885 Q130.973 709.885 132.779 706.343 Q134.607 702.778 134.607 695.672 Q134.607 688.542 132.779 685.001 Q130.973 681.436 127.339 681.436 M127.339 677.732 Q133.149 677.732 136.204 682.339 Q139.283 686.922 139.283 695.672 Q139.283 704.399 136.204 709.005 Q133.149 713.589 127.339 713.589 Q121.529 713.589 118.45 709.005 Q115.394 704.399 115.394 695.672 Q115.394 686.922 118.45 682.339 Q121.529 677.732 127.339 677.732 Z" fill="#000000" fill-rule="evenodd" fill-opacity="1" /><path clip-path="url(#clip300)" d="M 0 0 M147.501 707.038 L152.385 707.038 L152.385 712.917 L147.501 712.917 L147.501 707.038 Z" fill="#000000" fill-rule="evenodd" fill-opacity="1" /><path clip-path="url(#clip300)" d="M 0 0 M176.737 694.283 Q180.093 695.001 181.968 697.269 Q183.866 699.538 183.866 702.871 Q183.866 707.987 180.348 710.788 Q176.829 713.589 170.348 713.589 Q168.172 713.589 165.857 713.149 Q163.565 712.732 161.112 711.876 L161.112 707.362 Q163.056 708.496 165.371 709.075 Q167.686 709.653 170.209 709.653 Q174.607 709.653 176.899 707.917 Q179.214 706.181 179.214 702.871 Q179.214 699.815 177.061 698.102 Q174.931 696.366 171.112 696.366 L167.084 696.366 L167.084 692.524 L171.297 692.524 Q174.746 692.524 176.575 691.158 Q178.403 689.769 178.403 687.177 Q178.403 684.515 176.505 683.103 Q174.63 681.667 171.112 681.667 Q169.19 681.667 166.991 682.084 Q164.792 682.501 162.153 683.38 L162.153 679.214 Q164.815 678.473 167.13 678.103 Q169.468 677.732 171.528 677.732 Q176.852 677.732 179.954 680.163 Q183.056 682.57 183.056 686.691 Q183.056 689.561 181.413 691.552 Q179.769 693.519 176.737 694.283 Z" fill="#000000" fill-rule="evenodd" fill-opacity="1" /><path clip-path="url(#clip300)" d="M 0 0 M126.205 451.182 Q122.593 451.182 120.765 454.746 Q118.959 458.288 118.959 465.418 Q118.959 472.524 120.765 476.089 Q122.593 479.631 126.205 479.631 Q129.839 479.631 131.644 476.089 Q133.473 472.524 133.473 465.418 Q133.473 458.288 131.644 454.746 Q129.839 451.182 126.205 451.182 M126.205 447.478 Q132.015 447.478 135.07 452.084 Q138.149 456.668 138.149 465.418 Q138.149 474.145 135.07 478.751 Q132.015 483.334 126.205 483.334 Q120.394 483.334 117.316 478.751 Q114.26 474.145 114.26 465.418 Q114.26 456.668 117.316 452.084 Q120.394 447.478 126.205 447.478 Z" fill="#000000" fill-rule="evenodd" fill-opacity="1" /><path clip-path="url(#clip300)" d="M 0 0 M146.366 476.783 L151.251 476.783 L151.251 482.663 L146.366 482.663 L146.366 476.783 Z" fill="#000000" fill-rule="evenodd" fill-opacity="1" /><path clip-path="url(#clip300)" d="M 0 0 M174.283 452.177 L162.477 470.626 L174.283 470.626 L174.283 452.177 M173.056 448.103 L178.936 448.103 L178.936 470.626 L183.866 470.626 L183.866 474.515 L178.936 474.515 L178.936 482.663 L174.283 482.663 L174.283 474.515 L158.681 474.515 L158.681 470.001 L173.056 448.103 Z" fill="#000000" fill-rule="evenodd" fill-opacity="1" /><path clip-path="url(#clip300)" d="M 0 0 M127.686 220.927 Q124.075 220.927 122.246 224.492 Q120.441 228.034 120.441 235.163 Q120.441 242.27 122.246 245.835 Q124.075 249.376 127.686 249.376 Q131.32 249.376 133.126 245.835 Q134.954 242.27 134.954 235.163 Q134.954 228.034 133.126 224.492 Q131.32 220.927 127.686 220.927 M127.686 217.224 Q133.496 217.224 136.552 221.83 Q139.63 226.413 139.63 235.163 Q139.63 243.89 136.552 248.497 Q133.496 253.08 127.686 253.08 Q121.876 253.08 118.797 248.497 Q115.742 243.89 115.742 235.163 Q115.742 226.413 118.797 221.83 Q121.876 217.224 127.686 217.224 Z" fill="#000000" fill-rule="evenodd" fill-opacity="1" /><path clip-path="url(#clip300)" d="M 0 0 M147.848 246.529 L152.732 246.529 L152.732 252.409 L147.848 252.409 L147.848 246.529 Z" fill="#000000" fill-rule="evenodd" fill-opacity="1" /><path clip-path="url(#clip300)" d="M 0 0 M162.964 217.849 L181.32 217.849 L181.32 221.784 L167.246 221.784 L167.246 230.256 Q168.264 229.909 169.283 229.747 Q170.302 229.562 171.32 229.562 Q177.107 229.562 180.487 232.733 Q183.866 235.904 183.866 241.321 Q183.866 246.899 180.394 250.001 Q176.922 253.08 170.602 253.08 Q168.427 253.08 166.158 252.71 Q163.913 252.339 161.505 251.599 L161.505 246.899 Q163.589 248.034 165.811 248.589 Q168.033 249.145 170.51 249.145 Q174.514 249.145 176.852 247.038 Q179.19 244.932 179.19 241.321 Q179.19 237.71 176.852 235.603 Q174.514 233.497 170.51 233.497 Q168.635 233.497 166.76 233.913 Q164.908 234.33 162.964 235.21 L162.964 217.849 Z" fill="#000000" fill-rule="evenodd" fill-opacity="1" /><path clip-path="url(#clip300)" d="M 0 0 M16.4842 840.612 L16.4842 831.954 L56.238 810.884 L16.4842 810.884 L16.4842 804.645 L64.0042 804.645 L64.0042 813.303 L24.2503 834.373 L64.0042 834.373 L64.0042 840.612 L16.4842 840.612 Z" fill="#000000" fill-rule="evenodd" fill-opacity="1" /><path clip-path="url(#clip300)" d="M 0 0 M44.7161 761.613 L47.5806 761.613 L47.5806 788.54 Q53.6281 788.158 56.8109 784.912 Q59.9619 781.633 59.9619 775.809 Q59.9619 772.435 59.1344 769.284 Q58.3069 766.101 56.6518 762.982 L62.1899 762.982 Q63.5267 766.133 64.227 769.443 Q64.9272 772.753 64.9272 776.159 Q64.9272 784.689 59.9619 789.686 Q54.9967 794.651 46.5303 794.651 Q37.7774 794.651 32.6531 789.94 Q27.4968 785.198 27.4968 777.177 Q27.4968 769.984 32.1438 765.814 Q36.7589 761.613 44.7161 761.613 M42.9973 767.47 Q38.1912 767.533 35.3266 770.175 Q32.4621 772.785 32.4621 777.114 Q32.4621 782.015 35.2312 784.975 Q38.0002 787.903 43.0292 788.349 L42.9973 767.47 Z" fill="#000000" fill-rule="evenodd" fill-opacity="1" /><path clip-path="url(#clip300)" d="M 0 0 M44.7161 721.509 L47.5806 721.509 L47.5806 748.436 Q53.6281 748.054 56.8109 744.808 Q59.9619 741.529 59.9619 735.705 Q59.9619 732.331 59.1344 729.18 Q58.3069 725.997 56.6518 722.878 L62.1899 722.878 Q63.5267 726.029 64.227 729.339 Q64.9272 732.649 64.9272 736.055 Q64.9272 744.585 59.9619 749.582 Q54.9967 754.547 46.5303 754.547 Q37.7774 754.547 32.6531 749.837 Q27.4968 745.094 27.4968 737.073 Q27.4968 729.88 32.1438 725.71 Q36.7589 721.509 44.7161 721.509 M42.9973 727.366 Q38.1912 727.429 35.3266 730.071 Q32.4621 732.681 32.4621 737.01 Q32.4621 741.911 35.2312 744.871 Q38.0002 747.8 43.0292 748.245 L42.9973 727.366 Z" fill="#000000" fill-rule="evenodd" fill-opacity="1" /><path clip-path="url(#clip300)" d="M 0 0 M14.479 711.897 L14.479 706.04 L64.0042 706.04 L64.0042 711.897 L14.479 711.897 Z" fill="#000000" fill-rule="evenodd" fill-opacity="1" /><path clip-path="url(#clip300)" d="M 0 0 M1193.59 35.9153 Q1196.38 30.8922 1200.27 28.5022 Q1204.16 26.1121 1209.42 26.1121 Q1216.51 26.1121 1220.36 31.0947 Q1224.21 36.0368 1224.21 45.1919 L1224.21 72.576 L1216.72 72.576 L1216.72 45.4349 Q1216.72 38.913 1214.41 35.7533 Q1212.1 32.5936 1207.36 32.5936 Q1201.57 32.5936 1198.2 36.4419 Q1194.84 40.2903 1194.84 46.9338 L1194.84 72.576 L1187.35 72.576 L1187.35 45.4349 Q1187.35 38.8725 1185.04 35.7533 Q1182.73 32.5936 1177.91 32.5936 Q1172.2 32.5936 1168.83 36.4824 Q1165.47 40.3308 1165.47 46.9338 L1165.47 72.576 L1157.98 72.576 L1157.98 27.2059 L1165.47 27.2059 L1165.47 34.2544 Q1168.02 30.082 1171.59 28.0971 Q1175.15 26.1121 1180.06 26.1121 Q1185 26.1121 1188.44 28.6237 Q1191.93 31.1352 1193.59 35.9153 Z" fill="#000000" fill-rule="evenodd" fill-opacity="1" /><path clip-path="url(#clip300)" d="M 0 0 M1259.7 49.7694 Q1250.66 49.7694 1247.18 51.8354 Q1243.7 53.9013 1243.7 58.8839 Q1243.7 62.8538 1246.29 65.2034 Q1248.92 67.5124 1253.42 67.5124 Q1259.62 67.5124 1263.34 63.1374 Q1267.11 58.7219 1267.11 51.4303 L1267.11 49.7694 L1259.7 49.7694 M1274.56 46.6907 L1274.56 72.576 L1267.11 72.576 L1267.11 65.6895 Q1264.56 69.8214 1260.75 71.8063 Q1256.94 73.7508 1251.43 73.7508 Q1244.47 73.7508 1240.33 69.8619 Q1236.24 65.9325 1236.24 59.3701 Q1236.24 51.7138 1241.35 47.825 Q1246.49 43.9361 1256.66 43.9361 L1267.11 43.9361 L1267.11 43.2069 Q1267.11 38.0623 1263.71 35.2672 Q1260.34 32.4315 1254.23 32.4315 Q1250.34 32.4315 1246.65 33.3632 Q1242.97 34.295 1239.56 36.1584 L1239.56 29.2718 Q1243.66 27.692 1247.5 26.9223 Q1251.35 26.1121 1255 26.1121 Q1264.84 26.1121 1269.7 31.2163 Q1274.56 36.3204 1274.56 46.6907 Z" fill="#000000" fill-rule="evenodd" fill-opacity="1" /><path clip-path="url(#clip300)" d="M 0 0 M1319.77 49.3643 Q1319.77 41.2625 1316.41 36.8065 Q1313.09 32.3505 1307.05 32.3505 Q1301.06 32.3505 1297.69 36.8065 Q1294.37 41.2625 1294.37 49.3643 Q1294.37 57.4256 1297.69 61.8816 Q1301.06 66.3376 1307.05 66.3376 Q1313.09 66.3376 1316.41 61.8816 Q1319.77 57.4256 1319.77 49.3643 M1327.23 66.9452 Q1327.23 78.5308 1322.08 84.1616 Q1316.94 89.8329 1306.32 89.8329 Q1302.39 89.8329 1298.91 89.2252 Q1295.43 88.6581 1292.14 87.4428 L1292.14 80.1917 Q1295.43 81.9741 1298.63 82.8248 Q1301.83 83.6755 1305.15 83.6755 Q1312.48 83.6755 1316.13 79.8271 Q1319.77 76.0193 1319.77 68.282 L1319.77 64.5957 Q1317.46 68.6061 1313.86 70.5911 Q1310.25 72.576 1305.23 72.576 Q1296.88 72.576 1291.78 66.2161 Q1286.68 59.8562 1286.68 49.3643 Q1286.68 38.832 1291.78 32.472 Q1296.88 26.1121 1305.23 26.1121 Q1310.25 26.1121 1313.86 28.0971 Q1317.46 30.082 1319.77 34.0924 L1319.77 27.2059 L1327.23 27.2059 L1327.23 66.9452 Z" fill="#000000" fill-rule="evenodd" fill-opacity="1" /><path clip-path="url(#clip300)" d="M 0 0 M1338.81 46.5287 L1360.65 46.5287 L1360.65 53.1722 L1338.81 53.1722 L1338.81 46.5287 Z" fill="#000000" fill-rule="evenodd" fill-opacity="1" /><path clip-path="url(#clip300)" d="M 0 0 M1395.64 9.54393 L1395.64 26.2742 Q1403.71 26.2742 1409.09 32.472 Q1414.64 38.7915 1414.64 49.9314 Q1414.64 61.0714 1409.09 67.3908 Q1403.71 73.5887 1395.64 73.5887 L1395.64 89.8329 L1388.23 89.8329 L1388.23 73.5887 Q1380.17 73.5887 1374.74 67.3908 Q1369.23 61.0714 1369.23 49.9314 Q1369.23 38.7915 1374.74 32.472 Q1380.17 26.2742 1388.23 26.2742 L1388.23 9.54393 L1395.64 9.54393 M1395.64 66.9452 Q1400.22 66.9452 1403.34 62.7728 Q1406.74 58.1143 1406.78 49.9314 Q1406.83 41.8296 1403.34 37.0901 Q1400.22 32.9176 1395.64 32.9176 L1395.64 66.9452 M1388.23 66.9452 L1388.23 32.9176 Q1383.65 32.9176 1380.58 37.0901 Q1377.05 41.8296 1377.09 49.9314 Q1377.13 58.1143 1380.58 62.7728 Q1383.65 66.9452 1388.23 66.9452 Z" fill="#000000" fill-rule="evenodd" fill-opacity="1" /><polyline clip-path="url(#clip302)" style="stroke:#009af9; stroke-width:8; stroke-opacity:1; fill:none" points="
  280.231,167.081 481.447,204.248 682.663,241.952 883.879,351.799 1085.1,1384.68 1286.31,1379.1 1487.53,1383.63 1688.74,357.643 1889.96,249.605 2091.18,187.601 
  2292.39,160.256 
  "/>
<polyline clip-path="url(#clip302)" style="stroke:#e26f46; stroke-width:8; stroke-opacity:1; fill:none" points="
  280.231,1385.37 481.447,1385.99 682.663,1381.75 883.879,1383.88 1085.1,1385.19 1286.31,1386.4 1487.53,1383.45 1688.74,1383.21 1889.96,1383.02 2091.18,1385.77 
  2292.39,1384.98 
  "/>
<polyline clip-path="url(#clip302)" style="stroke:#3da44d; stroke-width:8; stroke-opacity:1; fill:none" points="
  280.231,1374.25 481.447,1383.68 682.663,1377.4 883.879,1386.35 1085.1,1385.82 1286.31,1385.41 1487.53,1386.06 1688.74,1376.73 1889.96,1386.39 2091.18,1382.42 
  2292.39,1384.07 
  "/>
<path clip-path="url(#clip300)" d="
M1745.6 1379.86 L2281.66 1379.86 L2281.66 1137.94 L1745.6 1137.94  Z
  " fill="#ffffff" fill-rule="evenodd" fill-opacity="1"/>
<polyline clip-path="url(#clip300)" style="stroke:#000000; stroke-width:4; stroke-opacity:1; fill:none" points="
  1745.6,1379.86 2281.66,1379.86 2281.66,1137.94 1745.6,1137.94 1745.6,1379.86 
  "/>
<polyline clip-path="url(#clip300)" style="stroke:#009af9; stroke-width:4; stroke-opacity:1; fill:none" points="
  1769.3,1198.42 1911.49,1198.42 
  "/>
<path clip-path="url(#clip300)" d="M 0 0 M1955.54 1194.75 Q1957.13 1191.88 1959.36 1190.51 Q1961.58 1189.15 1964.59 1189.15 Q1968.64 1189.15 1970.84 1191.99 Q1973.04 1194.82 1973.04 1200.05 L1973.04 1215.7 L1968.75 1215.7 L1968.75 1200.19 Q1968.75 1196.46 1967.43 1194.65 Q1966.12 1192.85 1963.41 1192.85 Q1960.1 1192.85 1958.18 1195.05 Q1956.25 1197.25 1956.25 1201.04 L1956.25 1215.7 L1951.97 1215.7 L1951.97 1200.19 Q1951.97 1196.44 1950.65 1194.65 Q1949.33 1192.85 1946.58 1192.85 Q1943.31 1192.85 1941.39 1195.07 Q1939.47 1197.27 1939.47 1201.04 L1939.47 1215.7 L1935.19 1215.7 L1935.19 1189.77 L1939.47 1189.77 L1939.47 1193.8 Q1940.93 1191.41 1942.97 1190.28 Q1945 1189.15 1947.81 1189.15 Q1950.63 1189.15 1952.6 1190.58 Q1954.59 1192.02 1955.54 1194.75 Z" fill="#000000" fill-rule="evenodd" fill-opacity="1" /><path clip-path="url(#clip300)" d="M 0 0 M1993.31 1202.66 Q1988.15 1202.66 1986.16 1203.84 Q1984.17 1205.03 1984.17 1207.87 Q1984.17 1210.14 1985.65 1211.48 Q1987.16 1212.8 1989.73 1212.8 Q1993.27 1212.8 1995.4 1210.3 Q1997.55 1207.78 1997.55 1203.61 L1997.55 1202.66 L1993.31 1202.66 M2001.81 1200.9 L2001.81 1215.7 L1997.55 1215.7 L1997.55 1211.76 Q1996.09 1214.12 1993.92 1215.26 Q1991.74 1216.37 1988.59 1216.37 Q1984.61 1216.37 1982.25 1214.15 Q1979.91 1211.9 1979.91 1208.15 Q1979.91 1203.78 1982.83 1201.55 Q1985.77 1199.33 1991.58 1199.33 L1997.55 1199.33 L1997.55 1198.91 Q1997.55 1195.97 1995.61 1194.38 Q1993.68 1192.76 1990.19 1192.76 Q1987.97 1192.76 1985.86 1193.29 Q1983.75 1193.82 1981.81 1194.89 L1981.81 1190.95 Q1984.15 1190.05 1986.35 1189.61 Q1988.55 1189.15 1990.63 1189.15 Q1996.25 1189.15 1999.03 1192.06 Q2001.81 1194.98 2001.81 1200.9 Z" fill="#000000" fill-rule="evenodd" fill-opacity="1" /><path clip-path="url(#clip300)" d="M 0 0 M2027.64 1202.43 Q2027.64 1197.8 2025.72 1195.26 Q2023.82 1192.71 2020.37 1192.71 Q2016.95 1192.71 2015.03 1195.26 Q2013.13 1197.8 2013.13 1202.43 Q2013.13 1207.04 2015.03 1209.59 Q2016.95 1212.13 2020.37 1212.13 Q2023.82 1212.13 2025.72 1209.59 Q2027.64 1207.04 2027.64 1202.43 M2031.9 1212.48 Q2031.9 1219.1 2028.96 1222.32 Q2026.02 1225.56 2019.96 1225.56 Q2017.71 1225.56 2015.72 1225.21 Q2013.73 1224.89 2011.86 1224.19 L2011.86 1220.05 Q2013.73 1221.07 2015.56 1221.55 Q2017.39 1222.04 2019.29 1222.04 Q2023.48 1222.04 2025.56 1219.84 Q2027.64 1217.66 2027.64 1213.24 L2027.64 1211.14 Q2026.32 1213.43 2024.26 1214.56 Q2022.2 1215.7 2019.33 1215.7 Q2014.56 1215.7 2011.65 1212.06 Q2008.73 1208.43 2008.73 1202.43 Q2008.73 1196.41 2011.65 1192.78 Q2014.56 1189.15 2019.33 1189.15 Q2022.2 1189.15 2024.26 1190.28 Q2026.32 1191.41 2027.64 1193.71 L2027.64 1189.77 L2031.9 1189.77 L2031.9 1212.48 Z" fill="#000000" fill-rule="evenodd" fill-opacity="1" /><path clip-path="url(#clip300)" d="M 0 0 M2060.61 1184.98 L2060.61 1211.85 L2066.25 1211.85 Q2073.41 1211.85 2076.72 1208.61 Q2080.05 1205.37 2080.05 1198.38 Q2080.05 1191.44 2076.72 1188.22 Q2073.41 1184.98 2066.25 1184.98 L2060.61 1184.98 M2055.93 1181.14 L2065.54 1181.14 Q2075.58 1181.14 2080.28 1185.33 Q2084.98 1189.49 2084.98 1198.38 Q2084.98 1207.32 2080.26 1211.51 Q2075.54 1215.7 2065.54 1215.7 L2055.93 1215.7 L2055.93 1181.14 Z" fill="#000000" fill-rule="evenodd" fill-opacity="1" /><path clip-path="url(#clip300)" d="M 0 0 M2107.87 1194.17 L2137.55 1194.17 L2137.55 1198.06 L2107.87 1198.06 L2107.87 1194.17 M2107.87 1203.61 L2137.55 1203.61 L2137.55 1207.55 L2107.87 1207.55 L2107.87 1203.61 Z" fill="#000000" fill-rule="evenodd" fill-opacity="1" /><path clip-path="url(#clip300)" d="M 0 0 M2175.56 1185.21 L2163.75 1203.66 L2175.56 1203.66 L2175.56 1185.21 M2174.33 1181.14 L2180.21 1181.14 L2180.21 1203.66 L2185.14 1203.66 L2185.14 1207.55 L2180.21 1207.55 L2180.21 1215.7 L2175.56 1215.7 L2175.56 1207.55 L2159.96 1207.55 L2159.96 1203.03 L2174.33 1181.14 Z" fill="#000000" fill-rule="evenodd" fill-opacity="1" /><polyline clip-path="url(#clip300)" style="stroke:#e26f46; stroke-width:4; stroke-opacity:1; fill:none" points="
  1769.3,1258.9 1911.49,1258.9 
  "/>
<path clip-path="url(#clip300)" d="M 0 0 M1935.77 1250.25 L1956 1250.25 L1956 1254.14 L1939.98 1272.77 L1956 1272.77 L1956 1276.18 L1935.19 1276.18 L1935.19 1272.29 L1951.21 1253.65 L1935.77 1253.65 L1935.77 1250.25 Z" fill="#000000" fill-rule="evenodd" fill-opacity="1" /><path clip-path="url(#clip300)" d="M 0 0 M1962.5 1250.25 L1966.76 1250.25 L1966.76 1276.18 L1962.5 1276.18 L1962.5 1250.25 M1962.5 1240.16 L1966.76 1240.16 L1966.76 1245.55 L1962.5 1245.55 L1962.5 1240.16 Z" fill="#000000" fill-rule="evenodd" fill-opacity="1" /><path clip-path="url(#clip300)" d="M 0 0 M1992.74 1262.91 Q1992.74 1258.28 1990.81 1255.74 Q1988.92 1253.19 1985.47 1253.19 Q1982.04 1253.19 1980.12 1255.74 Q1978.22 1258.28 1978.22 1262.91 Q1978.22 1267.52 1980.12 1270.07 Q1982.04 1272.61 1985.47 1272.61 Q1988.92 1272.61 1990.81 1270.07 Q1992.74 1267.52 1992.74 1262.91 M1996.99 1272.96 Q1996.99 1279.58 1994.05 1282.8 Q1991.12 1286.04 1985.05 1286.04 Q1982.81 1286.04 1980.81 1285.69 Q1978.82 1285.37 1976.95 1284.67 L1976.95 1280.53 Q1978.82 1281.55 1980.65 1282.03 Q1982.48 1282.52 1984.38 1282.52 Q1988.57 1282.52 1990.65 1280.32 Q1992.74 1278.14 1992.74 1273.72 L1992.74 1271.62 Q1991.42 1273.91 1989.36 1275.04 Q1987.3 1276.18 1984.43 1276.18 Q1979.66 1276.18 1976.74 1272.54 Q1973.82 1268.91 1973.82 1262.91 Q1973.82 1256.89 1976.74 1253.26 Q1979.66 1249.63 1984.43 1249.63 Q1987.3 1249.63 1989.36 1250.76 Q1991.42 1251.89 1992.74 1254.19 L1992.74 1250.25 L1996.99 1250.25 L1996.99 1272.96 Z" fill="#000000" fill-rule="evenodd" fill-opacity="1" /><path clip-path="url(#clip300)" d="M 0 0 M2003.92 1250.25 L2024.15 1250.25 L2024.15 1254.14 L2008.13 1272.77 L2024.15 1272.77 L2024.15 1276.18 L2003.34 1276.18 L2003.34 1272.29 L2019.36 1253.65 L2003.92 1253.65 L2003.92 1250.25 Z" fill="#000000" fill-rule="evenodd" fill-opacity="1" /><path clip-path="url(#clip300)" d="M 0 0 M2042.43 1263.14 Q2037.27 1263.14 2035.28 1264.32 Q2033.29 1265.51 2033.29 1268.35 Q2033.29 1270.62 2034.77 1271.96 Q2036.28 1273.28 2038.85 1273.28 Q2042.39 1273.28 2044.52 1270.78 Q2046.67 1268.26 2046.67 1264.09 L2046.67 1263.14 L2042.43 1263.14 M2050.93 1261.38 L2050.93 1276.18 L2046.67 1276.18 L2046.67 1272.24 Q2045.21 1274.6 2043.04 1275.74 Q2040.86 1276.85 2037.71 1276.85 Q2033.73 1276.85 2031.37 1274.63 Q2029.03 1272.38 2029.03 1268.63 Q2029.03 1264.26 2031.95 1262.03 Q2034.89 1259.81 2040.7 1259.81 L2046.67 1259.81 L2046.67 1259.39 Q2046.67 1256.45 2044.73 1254.86 Q2042.8 1253.24 2039.31 1253.24 Q2037.09 1253.24 2034.98 1253.77 Q2032.87 1254.3 2030.93 1255.37 L2030.93 1251.43 Q2033.27 1250.53 2035.47 1250.09 Q2037.67 1249.63 2039.75 1249.63 Q2045.37 1249.63 2048.15 1252.54 Q2050.93 1255.46 2050.93 1261.38 Z" fill="#000000" fill-rule="evenodd" fill-opacity="1" /><path clip-path="url(#clip300)" d="M 0 0 M2076.76 1262.91 Q2076.76 1258.28 2074.84 1255.74 Q2072.94 1253.19 2069.49 1253.19 Q2066.07 1253.19 2064.15 1255.74 Q2062.25 1258.28 2062.25 1262.91 Q2062.25 1267.52 2064.15 1270.07 Q2066.07 1272.61 2069.49 1272.61 Q2072.94 1272.61 2074.84 1270.07 Q2076.76 1267.52 2076.76 1262.91 M2081.02 1272.96 Q2081.02 1279.58 2078.08 1282.8 Q2075.14 1286.04 2069.08 1286.04 Q2066.83 1286.04 2064.84 1285.69 Q2062.85 1285.37 2060.98 1284.67 L2060.98 1280.53 Q2062.85 1281.55 2064.68 1282.03 Q2066.51 1282.52 2068.41 1282.52 Q2072.6 1282.52 2074.68 1280.32 Q2076.76 1278.14 2076.76 1273.72 L2076.76 1271.62 Q2075.44 1273.91 2073.38 1275.04 Q2071.32 1276.18 2068.45 1276.18 Q2063.68 1276.18 2060.77 1272.54 Q2057.85 1268.91 2057.85 1262.91 Q2057.85 1256.89 2060.77 1253.26 Q2063.68 1249.63 2068.45 1249.63 Q2071.32 1249.63 2073.38 1250.76 Q2075.44 1251.89 2076.76 1254.19 L2076.76 1250.25 L2081.02 1250.25 L2081.02 1272.96 Z" fill="#000000" fill-rule="evenodd" fill-opacity="1" /><path clip-path="url(#clip300)" d="M 0 0 M2109.73 1245.46 L2109.73 1272.33 L2115.37 1272.33 Q2122.53 1272.33 2125.84 1269.09 Q2129.17 1265.85 2129.17 1258.86 Q2129.17 1251.92 2125.84 1248.7 Q2122.53 1245.46 2115.37 1245.46 L2109.73 1245.46 M2105.05 1241.62 L2114.66 1241.62 Q2124.7 1241.62 2129.4 1245.81 Q2134.1 1249.97 2134.1 1258.86 Q2134.1 1267.8 2129.38 1271.99 Q2124.66 1276.18 2114.66 1276.18 L2105.05 1276.18 L2105.05 1241.62 Z" fill="#000000" fill-rule="evenodd" fill-opacity="1" /><path clip-path="url(#clip300)" d="M 0 0 M2156.99 1254.65 L2186.67 1254.65 L2186.67 1258.54 L2156.99 1258.54 L2156.99 1254.65 M2156.99 1264.09 L2186.67 1264.09 L2186.67 1268.03 L2156.99 1268.03 L2156.99 1264.09 Z" fill="#000000" fill-rule="evenodd" fill-opacity="1" /><path clip-path="url(#clip300)" d="M 0 0 M2224.68 1245.69 L2212.87 1264.14 L2224.68 1264.14 L2224.68 1245.69 M2223.45 1241.62 L2229.33 1241.62 L2229.33 1264.14 L2234.26 1264.14 L2234.26 1268.03 L2229.33 1268.03 L2229.33 1276.18 L2224.68 1276.18 L2224.68 1268.03 L2209.08 1268.03 L2209.08 1263.51 L2223.45 1241.62 Z" fill="#000000" fill-rule="evenodd" fill-opacity="1" /><polyline clip-path="url(#clip300)" style="stroke:#3da44d; stroke-width:4; stroke-opacity:1; fill:none" points="
  1769.3,1319.38 1911.49,1319.38 
  "/>
<path clip-path="url(#clip300)" d="M 0 0 M1935.19 1302.1 L1941.49 1302.1 L1956.81 1331.01 L1956.81 1302.1 L1961.35 1302.1 L1961.35 1336.66 L1955.05 1336.66 L1939.73 1307.74 L1939.73 1336.66 L1935.19 1336.66 L1935.19 1302.1 Z" fill="#000000" fill-rule="evenodd" fill-opacity="1" /><path clip-path="url(#clip300)" d="M 0 0 M1992.64 1322.63 L1992.64 1324.71 L1973.06 1324.71 Q1973.34 1329.11 1975.7 1331.42 Q1978.08 1333.72 1982.32 1333.72 Q1984.77 1333.72 1987.06 1333.11 Q1989.38 1332.51 1991.65 1331.31 L1991.65 1335.34 Q1989.36 1336.31 1986.95 1336.82 Q1984.54 1337.33 1982.06 1337.33 Q1975.86 1337.33 1972.23 1333.72 Q1968.62 1330.11 1968.62 1323.95 Q1968.62 1317.58 1972.04 1313.86 Q1975.49 1310.11 1981.32 1310.11 Q1986.56 1310.11 1989.59 1313.49 Q1992.64 1316.84 1992.64 1322.63 M1988.38 1321.38 Q1988.34 1317.88 1986.42 1315.8 Q1984.52 1313.72 1981.37 1313.72 Q1977.81 1313.72 1975.65 1315.73 Q1973.52 1317.74 1973.2 1321.4 L1988.38 1321.38 Z" fill="#000000" fill-rule="evenodd" fill-opacity="1" /><path clip-path="url(#clip300)" d="M 0 0 M2021.81 1322.63 L2021.81 1324.71 L2002.23 1324.71 Q2002.5 1329.11 2004.87 1331.42 Q2007.25 1333.72 2011.49 1333.72 Q2013.94 1333.72 2016.23 1333.11 Q2018.55 1332.51 2020.81 1331.31 L2020.81 1335.34 Q2018.52 1336.31 2016.12 1336.82 Q2013.71 1337.33 2011.23 1337.33 Q2005.03 1337.33 2001.39 1333.72 Q1997.78 1330.11 1997.78 1323.95 Q1997.78 1317.58 2001.21 1313.86 Q2004.66 1310.11 2010.49 1310.11 Q2015.72 1310.11 2018.75 1313.49 Q2021.81 1316.84 2021.81 1322.63 M2017.55 1321.38 Q2017.5 1317.88 2015.58 1315.8 Q2013.68 1313.72 2010.54 1313.72 Q2006.97 1313.72 2004.82 1315.73 Q2002.69 1317.74 2002.37 1321.4 L2017.55 1321.38 Z" fill="#000000" fill-rule="evenodd" fill-opacity="1" /><path clip-path="url(#clip300)" d="M 0 0 M2028.8 1300.64 L2033.06 1300.64 L2033.06 1336.66 L2028.8 1336.66 L2028.8 1300.64 Z" fill="#000000" fill-rule="evenodd" fill-opacity="1" /><path clip-path="url(#clip300)" d="M 0 0 M2061.9 1305.94 L2061.9 1332.81 L2067.55 1332.81 Q2074.7 1332.81 2078.01 1329.57 Q2081.35 1326.33 2081.35 1319.34 Q2081.35 1312.4 2078.01 1309.18 Q2074.7 1305.94 2067.55 1305.94 L2061.9 1305.94 M2057.23 1302.1 L2066.83 1302.1 Q2076.88 1302.1 2081.58 1306.29 Q2086.28 1310.45 2086.28 1319.34 Q2086.28 1328.28 2081.55 1332.47 Q2076.83 1336.66 2066.83 1336.66 L2057.23 1336.66 L2057.23 1302.1 Z" fill="#000000" fill-rule="evenodd" fill-opacity="1" /><path clip-path="url(#clip300)" d="M 0 0 M2109.17 1315.13 L2138.85 1315.13 L2138.85 1319.02 L2109.17 1319.02 L2109.17 1315.13 M2109.17 1324.57 L2138.85 1324.57 L2138.85 1328.51 L2109.17 1328.51 L2109.17 1324.57 Z" fill="#000000" fill-rule="evenodd" fill-opacity="1" /><path clip-path="url(#clip300)" d="M 0 0 M2176.85 1306.17 L2165.05 1324.62 L2176.85 1324.62 L2176.85 1306.17 M2175.63 1302.1 L2181.51 1302.1 L2181.51 1324.62 L2186.44 1324.62 L2186.44 1328.51 L2181.51 1328.51 L2181.51 1336.66 L2176.85 1336.66 L2176.85 1328.51 L2161.25 1328.51 L2161.25 1323.99 L2175.63 1302.1 Z" fill="#000000" fill-rule="evenodd" fill-opacity="1" /></svg>
