<?xml version="1.0" encoding="utf-8"?>
<svg xmlns="http://www.w3.org/2000/svg" xmlns:xlink="http://www.w3.org/1999/xlink" width="600" height="400" viewBox="0 0 2400 1600">
<defs>
  <clipPath id="clip070">
    <rect x="0" y="0" width="2400" height="1600"/>
  </clipPath>
</defs>
<path clip-path="url(#clip070)" d="
M0 1600 L2400 1600 L2400 0 L0 0  Z
  " fill="#ffffff" fill-rule="evenodd" fill-opacity="1"/>
<defs>
  <clipPath id="clip071">
    <rect x="480" y="0" width="1681" height="1600"/>
  </clipPath>
</defs>
<path clip-path="url(#clip070)" d="
M219.866 1423.18 L2352.76 1423.18 L2352.76 123.472 L219.866 123.472  Z
  " fill="#ffffff" fill-rule="evenodd" fill-opacity="1"/>
<defs>
  <clipPath id="clip072">
    <rect x="219" y="123" width="2134" height="1301"/>
  </clipPath>
</defs>
<polyline clip-path="url(#clip072)" style="stroke:#000000; stroke-width:2; stroke-opacity:0.1; fill:none" points="
  280.231,1423.18 280.231,123.472 
  "/>
<polyline clip-path="url(#clip072)" style="stroke:#000000; stroke-width:2; stroke-opacity:0.1; fill:none" points="
  682.663,1423.18 682.663,123.472 
  "/>
<polyline clip-path="url(#clip072)" style="stroke:#000000; stroke-width:2; stroke-opacity:0.1; fill:none" points="
  1085.1,1423.18 1085.1,123.472 
  "/>
<polyline clip-path="url(#clip072)" style="stroke:#000000; stroke-width:2; stroke-opacity:0.1; fill:none" points="
  1487.53,1423.18 1487.53,123.472 
  "/>
<polyline clip-path="url(#clip072)" style="stroke:#000000; stroke-width:2; stroke-opacity:0.1; fill:none" points="
  1889.96,1423.18 1889.96,123.472 
  "/>
<polyline clip-path="url(#clip072)" style="stroke:#000000; stroke-width:2; stroke-opacity:0.1; fill:none" points="
  2292.39,1423.18 2292.39,123.472 
  "/>
<polyline clip-path="url(#clip070)" style="stroke:#000000; stroke-width:4; stroke-opacity:1; fill:none" points="
  219.866,1423.18 2352.76,1423.18 
  "/>
<polyline clip-path="url(#clip070)" style="stroke:#000000; stroke-width:4; stroke-opacity:1; fill:none" points="
  280.231,1423.18 280.231,1407.58 
  "/>
<polyline clip-path="url(#clip070)" style="stroke:#000000; stroke-width:4; stroke-opacity:1; fill:none" points="
  682.663,1423.18 682.663,1407.58 
  "/>
<polyline clip-path="url(#clip070)" style="stroke:#000000; stroke-width:4; stroke-opacity:1; fill:none" points="
  1085.1,1423.18 1085.1,1407.58 
  "/>
<polyline clip-path="url(#clip070)" style="stroke:#000000; stroke-width:4; stroke-opacity:1; fill:none" points="
  1487.53,1423.18 1487.53,1407.58 
  "/>
<polyline clip-path="url(#clip070)" style="stroke:#000000; stroke-width:4; stroke-opacity:1; fill:none" points="
  1889.96,1423.18 1889.96,1407.58 
  "/>
<polyline clip-path="url(#clip070)" style="stroke:#000000; stroke-width:4; stroke-opacity:1; fill:none" points="
  2292.39,1423.18 2292.39,1407.58 
  "/>
<path clip-path="url(#clip070)" d="M 0 0 M243.923 1479.92 L260.243 1479.92 L260.243 1483.85 L238.298 1483.85 L238.298 1479.92 Q240.96 1477.16 245.544 1472.53 Q250.15 1467.88 251.331 1466.54 Q253.576 1464.01 254.456 1462.28 Q255.359 1460.52 255.359 1458.83 Q255.359 1456.07 253.414 1454.34 Q251.493 1452.6 248.391 1452.6 Q246.192 1452.6 243.738 1453.37 Q241.308 1454.13 238.53 1455.68 L238.53 1450.96 Q241.354 1449.82 243.808 1449.25 Q246.261 1448.67 248.298 1448.67 Q253.669 1448.67 256.863 1451.35 Q260.058 1454.04 260.058 1458.53 Q260.058 1460.66 259.247 1462.58 Q258.46 1464.48 256.354 1467.07 Q255.775 1467.74 252.673 1470.96 Q249.572 1474.15 243.923 1479.92 Z" fill="#000000" fill-rule="evenodd" fill-opacity="1" /><path clip-path="url(#clip070)" d="M 0 0 M282.905 1453.37 L271.099 1471.81 L282.905 1471.81 L282.905 1453.37 M281.678 1449.29 L287.557 1449.29 L287.557 1471.81 L292.488 1471.81 L292.488 1475.7 L287.557 1475.7 L287.557 1483.85 L282.905 1483.85 L282.905 1475.7 L267.303 1475.7 L267.303 1471.19 L281.678 1449.29 Z" fill="#000000" fill-rule="evenodd" fill-opacity="1" /><path clip-path="url(#clip070)" d="M 0 0 M310.219 1452.37 Q306.608 1452.37 304.78 1455.94 Q302.974 1459.48 302.974 1466.61 Q302.974 1473.71 304.78 1477.28 Q306.608 1480.82 310.219 1480.82 Q313.854 1480.82 315.659 1477.28 Q317.488 1473.71 317.488 1466.61 Q317.488 1459.48 315.659 1455.94 Q313.854 1452.37 310.219 1452.37 M310.219 1448.67 Q316.029 1448.67 319.085 1453.27 Q322.164 1457.86 322.164 1466.61 Q322.164 1475.33 319.085 1479.94 Q316.029 1484.52 310.219 1484.52 Q304.409 1484.52 301.33 1479.94 Q298.275 1475.33 298.275 1466.61 Q298.275 1457.86 301.33 1453.27 Q304.409 1448.67 310.219 1448.67 Z" fill="#000000" fill-rule="evenodd" fill-opacity="1" /><path clip-path="url(#clip070)" d="M 0 0 M646.355 1479.92 L662.675 1479.92 L662.675 1483.85 L640.73 1483.85 L640.73 1479.92 Q643.392 1477.16 647.976 1472.53 Q652.582 1467.88 653.763 1466.54 Q656.008 1464.01 656.888 1462.28 Q657.791 1460.52 657.791 1458.83 Q657.791 1456.07 655.846 1454.34 Q653.925 1452.6 650.823 1452.6 Q648.624 1452.6 646.17 1453.37 Q643.74 1454.13 640.962 1455.68 L640.962 1450.96 Q643.786 1449.82 646.24 1449.25 Q648.693 1448.67 650.73 1448.67 Q656.101 1448.67 659.295 1451.35 Q662.49 1454.04 662.49 1458.53 Q662.49 1460.66 661.679 1462.58 Q660.892 1464.48 658.786 1467.07 Q658.207 1467.74 655.105 1470.96 Q652.004 1474.15 646.355 1479.92 Z" fill="#000000" fill-rule="evenodd" fill-opacity="1" /><path clip-path="url(#clip070)" d="M 0 0 M672.536 1449.29 L690.892 1449.29 L690.892 1453.23 L676.818 1453.23 L676.818 1461.7 Q677.837 1461.35 678.855 1461.19 Q679.874 1461 680.892 1461 Q686.679 1461 690.059 1464.18 Q693.438 1467.35 693.438 1472.76 Q693.438 1478.34 689.966 1481.44 Q686.494 1484.52 680.175 1484.52 Q677.999 1484.52 675.73 1484.15 Q673.485 1483.78 671.077 1483.04 L671.077 1478.34 Q673.161 1479.48 675.383 1480.03 Q677.605 1480.59 680.082 1480.59 Q684.087 1480.59 686.425 1478.48 Q688.763 1476.38 688.763 1472.76 Q688.763 1469.15 686.425 1467.05 Q684.087 1464.94 680.082 1464.94 Q678.207 1464.94 676.332 1465.36 Q674.48 1465.77 672.536 1466.65 L672.536 1449.29 Z" fill="#000000" fill-rule="evenodd" fill-opacity="1" /><path clip-path="url(#clip070)" d="M 0 0 M712.651 1452.37 Q709.04 1452.37 707.212 1455.94 Q705.406 1459.48 705.406 1466.61 Q705.406 1473.71 707.212 1477.28 Q709.04 1480.82 712.651 1480.82 Q716.286 1480.82 718.091 1477.28 Q719.92 1473.71 719.92 1466.61 Q719.92 1459.48 718.091 1455.94 Q716.286 1452.37 712.651 1452.37 M712.651 1448.67 Q718.461 1448.67 721.517 1453.27 Q724.596 1457.86 724.596 1466.61 Q724.596 1475.33 721.517 1479.94 Q718.461 1484.52 712.651 1484.52 Q706.841 1484.52 703.762 1479.94 Q700.707 1475.33 700.707 1466.61 Q700.707 1457.86 703.762 1453.27 Q706.841 1448.67 712.651 1448.67 Z" fill="#000000" fill-rule="evenodd" fill-opacity="1" /><path clip-path="url(#clip070)" d="M 0 0 M1048.79 1479.92 L1065.11 1479.92 L1065.11 1483.85 L1043.16 1483.85 L1043.16 1479.92 Q1045.82 1477.16 1050.41 1472.53 Q1055.01 1467.88 1056.19 1466.54 Q1058.44 1464.01 1059.32 1462.28 Q1060.22 1460.52 1060.22 1458.83 Q1060.22 1456.07 1058.28 1454.34 Q1056.36 1452.6 1053.25 1452.6 Q1051.06 1452.6 1048.6 1453.37 Q1046.17 1454.13 1043.39 1455.68 L1043.39 1450.96 Q1046.22 1449.82 1048.67 1449.25 Q1051.13 1448.67 1053.16 1448.67 Q1058.53 1448.67 1061.73 1451.35 Q1064.92 1454.04 1064.92 1458.53 Q1064.92 1460.66 1064.11 1462.58 Q1063.32 1464.48 1061.22 1467.07 Q1060.64 1467.74 1057.54 1470.96 Q1054.44 1474.15 1048.79 1479.92 Z" fill="#000000" fill-rule="evenodd" fill-opacity="1" /><path clip-path="url(#clip070)" d="M 0 0 M1085.5 1464.71 Q1082.35 1464.71 1080.5 1466.86 Q1078.67 1469.01 1078.67 1472.76 Q1078.67 1476.49 1080.5 1478.67 Q1082.35 1480.82 1085.5 1480.82 Q1088.65 1480.82 1090.48 1478.67 Q1092.33 1476.49 1092.33 1472.76 Q1092.33 1469.01 1090.48 1466.86 Q1088.65 1464.71 1085.5 1464.71 M1094.78 1450.06 L1094.78 1454.31 Q1093.02 1453.48 1091.22 1453.04 Q1089.44 1452.6 1087.68 1452.6 Q1083.05 1452.6 1080.59 1455.73 Q1078.16 1458.85 1077.82 1465.17 Q1079.18 1463.16 1081.24 1462.09 Q1083.3 1461 1085.78 1461 Q1090.99 1461 1094 1464.18 Q1097.03 1467.32 1097.03 1472.76 Q1097.03 1478.09 1093.88 1481.31 Q1090.73 1484.52 1085.5 1484.52 Q1079.5 1484.52 1076.33 1479.94 Q1073.16 1475.33 1073.16 1466.61 Q1073.16 1458.41 1077.05 1453.55 Q1080.94 1448.67 1087.49 1448.67 Q1089.25 1448.67 1091.03 1449.01 Q1092.84 1449.36 1094.78 1450.06 Z" fill="#000000" fill-rule="evenodd" fill-opacity="1" /><path clip-path="url(#clip070)" d="M 0 0 M1115.08 1452.37 Q1111.47 1452.37 1109.64 1455.94 Q1107.84 1459.48 1107.84 1466.61 Q1107.84 1473.71 1109.64 1477.28 Q1111.47 1480.82 1115.08 1480.82 Q1118.72 1480.82 1120.52 1477.28 Q1122.35 1473.71 1122.35 1466.61 Q1122.35 1459.48 1120.52 1455.94 Q1118.72 1452.37 1115.08 1452.37 M1115.08 1448.67 Q1120.89 1448.67 1123.95 1453.27 Q1127.03 1457.86 1127.03 1466.61 Q1127.03 1475.33 1123.95 1479.94 Q1120.89 1484.52 1115.08 1484.52 Q1109.27 1484.52 1106.19 1479.94 Q1103.14 1475.33 1103.14 1466.61 Q1103.14 1457.86 1106.19 1453.27 Q1109.27 1448.67 1115.08 1448.67 Z" fill="#000000" fill-rule="evenodd" fill-opacity="1" /><path clip-path="url(#clip070)" d="M 0 0 M1451.22 1479.92 L1467.54 1479.92 L1467.54 1483.85 L1445.59 1483.85 L1445.59 1479.92 Q1448.26 1477.16 1452.84 1472.53 Q1457.45 1467.88 1458.63 1466.54 Q1460.87 1464.01 1461.75 1462.28 Q1462.65 1460.52 1462.65 1458.83 Q1462.65 1456.07 1460.71 1454.34 Q1458.79 1452.6 1455.69 1452.6 Q1453.49 1452.6 1451.03 1453.37 Q1448.6 1454.13 1445.83 1455.68 L1445.83 1450.96 Q1448.65 1449.82 1451.1 1449.25 Q1453.56 1448.67 1455.59 1448.67 Q1460.96 1448.67 1464.16 1451.35 Q1467.35 1454.04 1467.35 1458.53 Q1467.35 1460.66 1466.54 1462.58 Q1465.76 1464.48 1463.65 1467.07 Q1463.07 1467.74 1459.97 1470.96 Q1456.87 1474.15 1451.22 1479.92 Z" fill="#000000" fill-rule="evenodd" fill-opacity="1" /><path clip-path="url(#clip070)" d="M 0 0 M1476.17 1449.29 L1498.4 1449.29 L1498.4 1451.28 L1485.85 1483.85 L1480.96 1483.85 L1492.77 1453.23 L1476.17 1453.23 L1476.17 1449.29 Z" fill="#000000" fill-rule="evenodd" fill-opacity="1" /><path clip-path="url(#clip070)" d="M 0 0 M1517.52 1452.37 Q1513.9 1452.37 1512.08 1455.94 Q1510.27 1459.48 1510.27 1466.61 Q1510.27 1473.71 1512.08 1477.28 Q1513.9 1480.82 1517.52 1480.82 Q1521.15 1480.82 1522.96 1477.28 Q1524.78 1473.71 1524.78 1466.61 Q1524.78 1459.48 1522.96 1455.94 Q1521.15 1452.37 1517.52 1452.37 M1517.52 1448.67 Q1523.33 1448.67 1526.38 1453.27 Q1529.46 1457.86 1529.46 1466.61 Q1529.46 1475.33 1526.38 1479.94 Q1523.33 1484.52 1517.52 1484.52 Q1511.71 1484.52 1508.63 1479.94 Q1505.57 1475.33 1505.57 1466.61 Q1505.57 1457.86 1508.63 1453.27 Q1511.71 1448.67 1517.52 1448.67 Z" fill="#000000" fill-rule="evenodd" fill-opacity="1" /><path clip-path="url(#clip070)" d="M 0 0 M1853.65 1479.92 L1869.97 1479.92 L1869.97 1483.85 L1848.03 1483.85 L1848.03 1479.92 Q1850.69 1477.16 1855.27 1472.53 Q1859.88 1467.88 1861.06 1466.54 Q1863.3 1464.01 1864.18 1462.28 Q1865.09 1460.52 1865.09 1458.83 Q1865.09 1456.07 1863.14 1454.34 Q1861.22 1452.6 1858.12 1452.6 Q1855.92 1452.6 1853.47 1453.37 Q1851.04 1454.13 1848.26 1455.68 L1848.26 1450.96 Q1851.08 1449.82 1853.54 1449.25 Q1855.99 1448.67 1858.03 1448.67 Q1863.4 1448.67 1866.59 1451.35 Q1869.79 1454.04 1869.79 1458.53 Q1869.79 1460.66 1868.98 1462.58 Q1868.19 1464.48 1866.08 1467.07 Q1865.5 1467.74 1862.4 1470.96 Q1859.3 1474.15 1853.65 1479.92 Z" fill="#000000" fill-rule="evenodd" fill-opacity="1" /><path clip-path="url(#clip070)" d="M 0 0 M1889.79 1467.44 Q1886.45 1467.44 1884.53 1469.22 Q1882.63 1471 1882.63 1474.13 Q1882.63 1477.25 1884.53 1479.04 Q1886.45 1480.82 1889.79 1480.82 Q1893.12 1480.82 1895.04 1479.04 Q1896.96 1477.23 1896.96 1474.13 Q1896.96 1471 1895.04 1469.22 Q1893.14 1467.44 1889.79 1467.44 M1885.11 1465.45 Q1882.1 1464.71 1880.41 1462.65 Q1878.74 1460.59 1878.74 1457.63 Q1878.74 1453.48 1881.68 1451.07 Q1884.65 1448.67 1889.79 1448.67 Q1894.95 1448.67 1897.89 1451.07 Q1900.83 1453.48 1900.83 1457.63 Q1900.83 1460.59 1899.14 1462.65 Q1897.47 1464.71 1894.48 1465.45 Q1897.86 1466.24 1899.74 1468.53 Q1901.64 1470.82 1901.64 1474.13 Q1901.64 1479.15 1898.56 1481.84 Q1895.5 1484.52 1889.79 1484.52 Q1884.07 1484.52 1880.99 1481.84 Q1877.93 1479.15 1877.93 1474.13 Q1877.93 1470.82 1879.83 1468.53 Q1881.73 1466.24 1885.11 1465.45 M1883.4 1458.06 Q1883.4 1460.75 1885.06 1462.25 Q1886.75 1463.76 1889.79 1463.76 Q1892.79 1463.76 1894.48 1462.25 Q1896.2 1460.75 1896.2 1458.06 Q1896.2 1455.38 1894.48 1453.88 Q1892.79 1452.37 1889.79 1452.37 Q1886.75 1452.37 1885.06 1453.88 Q1883.4 1455.38 1883.4 1458.06 Z" fill="#000000" fill-rule="evenodd" fill-opacity="1" /><path clip-path="url(#clip070)" d="M 0 0 M1919.95 1452.37 Q1916.34 1452.37 1914.51 1455.94 Q1912.7 1459.48 1912.7 1466.61 Q1912.7 1473.71 1914.51 1477.28 Q1916.34 1480.82 1919.95 1480.82 Q1923.58 1480.82 1925.39 1477.28 Q1927.22 1473.71 1927.22 1466.61 Q1927.22 1459.48 1925.39 1455.94 Q1923.58 1452.37 1919.95 1452.37 M1919.95 1448.67 Q1925.76 1448.67 1928.81 1453.27 Q1931.89 1457.86 1931.89 1466.61 Q1931.89 1475.33 1928.81 1479.94 Q1925.76 1484.52 1919.95 1484.52 Q1914.14 1484.52 1911.06 1479.94 Q1908 1475.33 1908 1466.61 Q1908 1457.86 1911.06 1453.27 Q1914.14 1448.67 1919.95 1448.67 Z" fill="#000000" fill-rule="evenodd" fill-opacity="1" /><path clip-path="url(#clip070)" d="M 0 0 M2256.08 1479.92 L2272.4 1479.92 L2272.4 1483.85 L2250.46 1483.85 L2250.46 1479.92 Q2253.12 1477.16 2257.7 1472.53 Q2262.31 1467.88 2263.49 1466.54 Q2265.74 1464.01 2266.62 1462.28 Q2267.52 1460.52 2267.52 1458.83 Q2267.52 1456.07 2265.57 1454.34 Q2263.65 1452.6 2260.55 1452.6 Q2258.35 1452.6 2255.9 1453.37 Q2253.47 1454.13 2250.69 1455.68 L2250.69 1450.96 Q2253.51 1449.82 2255.97 1449.25 Q2258.42 1448.67 2260.46 1448.67 Q2265.83 1448.67 2269.02 1451.35 Q2272.22 1454.04 2272.22 1458.53 Q2272.22 1460.66 2271.41 1462.58 Q2270.62 1464.48 2268.51 1467.07 Q2267.94 1467.74 2264.83 1470.96 Q2261.73 1474.15 2256.08 1479.92 Z" fill="#000000" fill-rule="evenodd" fill-opacity="1" /><path clip-path="url(#clip070)" d="M 0 0 M2282.36 1483.13 L2282.36 1478.88 Q2284.12 1479.71 2285.92 1480.15 Q2287.73 1480.59 2289.46 1480.59 Q2294.09 1480.59 2296.52 1477.49 Q2298.98 1474.36 2299.32 1468.02 Q2297.98 1470.01 2295.92 1471.07 Q2293.86 1472.14 2291.36 1472.14 Q2286.18 1472.14 2283.14 1469.01 Q2280.13 1465.87 2280.13 1460.43 Q2280.13 1455.1 2283.28 1451.88 Q2286.43 1448.67 2291.66 1448.67 Q2297.66 1448.67 2300.81 1453.27 Q2303.98 1457.86 2303.98 1466.61 Q2303.98 1474.78 2300.09 1479.66 Q2296.22 1484.52 2289.67 1484.52 Q2287.91 1484.52 2286.11 1484.18 Q2284.3 1483.83 2282.36 1483.13 M2291.66 1468.48 Q2294.81 1468.48 2296.64 1466.33 Q2298.49 1464.18 2298.49 1460.43 Q2298.49 1456.7 2296.64 1454.55 Q2294.81 1452.37 2291.66 1452.37 Q2288.51 1452.37 2286.66 1454.55 Q2284.83 1456.7 2284.83 1460.43 Q2284.83 1464.18 2286.66 1466.33 Q2288.51 1468.48 2291.66 1468.48 Z" fill="#000000" fill-rule="evenodd" fill-opacity="1" /><path clip-path="url(#clip070)" d="M 0 0 M2322.38 1452.37 Q2318.77 1452.37 2316.94 1455.94 Q2315.13 1459.48 2315.13 1466.61 Q2315.13 1473.71 2316.94 1477.28 Q2318.77 1480.82 2322.38 1480.82 Q2326.01 1480.82 2327.82 1477.28 Q2329.65 1473.71 2329.65 1466.61 Q2329.65 1459.48 2327.82 1455.94 Q2326.01 1452.37 2322.38 1452.37 M2322.38 1448.67 Q2328.19 1448.67 2331.25 1453.27 Q2334.32 1457.86 2334.32 1466.61 Q2334.32 1475.33 2331.25 1479.94 Q2328.19 1484.52 2322.38 1484.52 Q2316.57 1484.52 2313.49 1479.94 Q2310.43 1475.33 2310.43 1466.61 Q2310.43 1457.86 2313.49 1453.27 Q2316.57 1448.67 2322.38 1448.67 Z" fill="#000000" fill-rule="evenodd" fill-opacity="1" /><path clip-path="url(#clip070)" d="M 0 0 M1164.5 1518.52 L1164.5 1531.66 Q1170.84 1531.66 1175.07 1536.53 Q1179.43 1541.5 1179.43 1550.25 Q1179.43 1559 1175.07 1563.97 Q1170.84 1568.84 1164.5 1568.84 L1164.5 1581.6 L1158.68 1581.6 L1158.68 1568.84 Q1152.34 1568.84 1148.08 1563.97 Q1143.75 1559 1143.75 1550.25 Q1143.75 1541.5 1148.08 1536.53 Q1152.34 1531.66 1158.68 1531.66 L1158.68 1518.52 L1164.5 1518.52 M1164.5 1563.62 Q1168.1 1563.62 1170.55 1560.34 Q1173.22 1556.68 1173.26 1550.25 Q1173.29 1543.89 1170.55 1540.16 Q1168.1 1536.88 1164.5 1536.88 L1164.5 1563.62 M1158.68 1563.62 L1158.68 1536.88 Q1155.08 1536.88 1152.66 1540.16 Q1149.89 1543.89 1149.93 1550.25 Q1149.96 1556.68 1152.66 1560.34 Q1155.08 1563.62 1158.68 1563.62 Z" fill="#000000" fill-rule="evenodd" fill-opacity="1" /><path clip-path="url(#clip070)" d="M 0 0 M1233.51 1537.81 L1233.51 1518.52 L1239.36 1518.52 L1239.36 1568.04 L1233.51 1568.04 L1233.51 1562.7 Q1231.66 1565.88 1228.83 1567.44 Q1226.03 1568.97 1222.08 1568.97 Q1215.62 1568.97 1211.55 1563.81 Q1207.5 1558.65 1207.5 1550.25 Q1207.5 1541.85 1211.55 1536.69 Q1215.62 1531.54 1222.08 1531.54 Q1226.03 1531.54 1228.83 1533.1 Q1231.66 1534.62 1233.51 1537.81 M1213.55 1550.25 Q1213.55 1556.71 1216.19 1560.4 Q1218.87 1564.07 1223.51 1564.07 Q1228.16 1564.07 1230.83 1560.4 Q1233.51 1556.71 1233.51 1550.25 Q1233.51 1543.79 1230.83 1540.13 Q1228.16 1536.44 1223.51 1536.44 Q1218.87 1536.44 1216.19 1540.13 Q1213.55 1543.79 1213.55 1550.25 Z" fill="#000000" fill-rule="evenodd" fill-opacity="1" /><path clip-path="url(#clip070)" d="M 0 0 M1281.92 1548.76 L1281.92 1551.62 L1254.99 1551.62 Q1255.37 1557.67 1258.62 1560.85 Q1261.9 1564 1267.72 1564 Q1271.1 1564 1274.25 1563.17 Q1277.43 1562.35 1280.55 1560.69 L1280.55 1566.23 Q1277.4 1567.57 1274.09 1568.27 Q1270.78 1568.97 1267.37 1568.97 Q1258.84 1568.97 1253.85 1564 Q1248.88 1559.04 1248.88 1550.57 Q1248.88 1541.82 1253.59 1536.69 Q1258.33 1531.54 1266.35 1531.54 Q1273.55 1531.54 1277.72 1536.18 Q1281.92 1540.8 1281.92 1548.76 M1276.06 1547.04 Q1276 1542.23 1273.36 1539.37 Q1270.75 1536.5 1266.42 1536.5 Q1261.52 1536.5 1258.56 1539.27 Q1255.63 1542.04 1255.18 1547.07 L1276.06 1547.04 Z" fill="#000000" fill-rule="evenodd" fill-opacity="1" /><path clip-path="url(#clip070)" d="M 0 0 M1314.99 1549.81 Q1314.99 1543.44 1312.35 1539.94 Q1309.74 1536.44 1304.99 1536.44 Q1300.28 1536.44 1297.64 1539.94 Q1295.03 1543.44 1295.03 1549.81 Q1295.03 1556.14 1297.64 1559.64 Q1300.28 1563.14 1304.99 1563.14 Q1309.74 1563.14 1312.35 1559.64 Q1314.99 1556.14 1314.99 1549.81 M1320.85 1563.62 Q1320.85 1572.72 1316.8 1577.15 Q1312.76 1581.6 1304.42 1581.6 Q1301.33 1581.6 1298.6 1581.13 Q1295.86 1580.68 1293.28 1579.72 L1293.28 1574.03 Q1295.86 1575.43 1298.37 1576.1 Q1300.89 1576.76 1303.5 1576.76 Q1309.26 1576.76 1312.12 1573.74 Q1314.99 1570.75 1314.99 1564.67 L1314.99 1561.77 Q1313.17 1564.92 1310.34 1566.48 Q1307.51 1568.04 1303.56 1568.04 Q1297.01 1568.04 1293 1563.05 Q1288.98 1558.05 1288.98 1549.81 Q1288.98 1541.53 1293 1536.53 Q1297.01 1531.54 1303.56 1531.54 Q1307.51 1531.54 1310.34 1533.1 Q1313.17 1534.66 1314.99 1537.81 L1314.99 1532.4 L1320.85 1532.4 L1320.85 1563.62 Z" fill="#000000" fill-rule="evenodd" fill-opacity="1" /><path clip-path="url(#clip070)" d="M 0 0 M1353.56 1537.87 Q1352.58 1537.3 1351.4 1537.04 Q1350.25 1536.76 1348.85 1536.76 Q1343.89 1536.76 1341.22 1540 Q1338.57 1543.22 1338.57 1549.27 L1338.57 1568.04 L1332.69 1568.04 L1332.69 1532.4 L1338.57 1532.4 L1338.57 1537.93 Q1340.42 1534.69 1343.38 1533.13 Q1346.34 1531.54 1350.57 1531.54 Q1351.18 1531.54 1351.91 1531.63 Q1352.64 1531.7 1353.53 1531.85 L1353.56 1537.87 Z" fill="#000000" fill-rule="evenodd" fill-opacity="1" /><path clip-path="url(#clip070)" d="M 0 0 M1388.77 1548.76 L1388.77 1551.62 L1361.84 1551.62 Q1362.22 1557.67 1365.47 1560.85 Q1368.75 1564 1374.57 1564 Q1377.95 1564 1381.1 1563.17 Q1384.28 1562.35 1387.4 1560.69 L1387.4 1566.23 Q1384.25 1567.57 1380.94 1568.27 Q1377.63 1568.97 1374.22 1568.97 Q1365.69 1568.97 1360.69 1564 Q1355.73 1559.04 1355.73 1550.57 Q1355.73 1541.82 1360.44 1536.69 Q1365.18 1531.54 1373.2 1531.54 Q1380.4 1531.54 1384.57 1536.18 Q1388.77 1540.8 1388.77 1548.76 M1382.91 1547.04 Q1382.85 1542.23 1380.21 1539.37 Q1377.6 1536.5 1373.27 1536.5 Q1368.37 1536.5 1365.4 1539.27 Q1362.48 1542.04 1362.03 1547.07 L1382.91 1547.04 Z" fill="#000000" fill-rule="evenodd" fill-opacity="1" /><path clip-path="url(#clip070)" d="M 0 0 M1428.87 1548.76 L1428.87 1551.62 L1401.94 1551.62 Q1402.33 1557.67 1405.57 1560.85 Q1408.85 1564 1414.68 1564 Q1418.05 1564 1421.2 1563.17 Q1424.38 1562.35 1427.5 1560.69 L1427.5 1566.23 Q1424.35 1567.57 1421.04 1568.27 Q1417.73 1568.97 1414.33 1568.97 Q1405.8 1568.97 1400.8 1564 Q1395.83 1559.04 1395.83 1550.57 Q1395.83 1541.82 1400.54 1536.69 Q1405.29 1531.54 1413.31 1531.54 Q1420.5 1531.54 1424.67 1536.18 Q1428.87 1540.8 1428.87 1548.76 M1423.01 1547.04 Q1422.95 1542.23 1420.31 1539.37 Q1417.7 1536.5 1413.37 1536.5 Q1408.47 1536.5 1405.51 1539.27 Q1402.58 1542.04 1402.14 1547.07 L1423.01 1547.04 Z" fill="#000000" fill-rule="evenodd" fill-opacity="1" /><polyline clip-path="url(#clip072)" style="stroke:#000000; stroke-width:2; stroke-opacity:0.1; fill:none" points="
  219.866,1386.62 2352.76,1386.62 
  "/>
<polyline clip-path="url(#clip072)" style="stroke:#000000; stroke-width:2; stroke-opacity:0.1; fill:none" points="
  219.866,1107.16 2352.76,1107.16 
  "/>
<polyline clip-path="url(#clip072)" style="stroke:#000000; stroke-width:2; stroke-opacity:0.1; fill:none" points="
  219.866,827.711 2352.76,827.711 
  "/>
<polyline clip-path="url(#clip072)" style="stroke:#000000; stroke-width:2; stroke-opacity:0.1; fill:none" points="
  219.866,548.258 2352.76,548.258 
  "/>
<polyline clip-path="url(#clip072)" style="stroke:#000000; stroke-width:2; stroke-opacity:0.1; fill:none" points="
  219.866,268.805 2352.76,268.805 
  "/>
<polyline clip-path="url(#clip070)" style="stroke:#000000; stroke-width:4; stroke-opacity:1; fill:none" points="
  219.866,1423.18 219.866,123.472 
  "/>
<polyline clip-path="url(#clip070)" style="stroke:#000000; stroke-width:4; stroke-opacity:1; fill:none" points="
  219.866,1386.62 245.461,1386.62 
  "/>
<polyline clip-path="url(#clip070)" style="stroke:#000000; stroke-width:4; stroke-opacity:1; fill:none" points="
  219.866,1107.16 245.461,1107.16 
  "/>
<polyline clip-path="url(#clip070)" style="stroke:#000000; stroke-width:4; stroke-opacity:1; fill:none" points="
  219.866,827.711 245.461,827.711 
  "/>
<polyline clip-path="url(#clip070)" style="stroke:#000000; stroke-width:4; stroke-opacity:1; fill:none" points="
  219.866,548.258 245.461,548.258 
  "/>
<polyline clip-path="url(#clip070)" style="stroke:#000000; stroke-width:4; stroke-opacity:1; fill:none" points="
  219.866,268.805 245.461,268.805 
  "/>
<path clip-path="url(#clip070)" d="M 0 0 M126.691 1372.41 Q123.08 1372.41 121.251 1375.98 Q119.445 1379.52 119.445 1386.65 Q119.445 1393.76 121.251 1397.32 Q123.08 1400.86 126.691 1400.86 Q130.325 1400.86 132.13 1397.32 Q133.959 1393.76 133.959 1386.65 Q133.959 1379.52 132.13 1375.98 Q130.325 1372.41 126.691 1372.41 M126.691 1368.71 Q132.501 1368.71 135.556 1373.32 Q138.635 1377.9 138.635 1386.65 Q138.635 1395.38 135.556 1399.98 Q132.501 1404.57 126.691 1404.57 Q120.88 1404.57 117.802 1399.98 Q114.746 1395.38 114.746 1386.65 Q114.746 1377.9 117.802 1373.32 Q120.88 1368.71 126.691 1368.71 Z" fill="#000000" fill-rule="evenodd" fill-opacity="1" /><path clip-path="url(#clip070)" d="M 0 0 M146.853 1398.02 L151.737 1398.02 L151.737 1403.9 L146.853 1403.9 L146.853 1398.02 Z" fill="#000000" fill-rule="evenodd" fill-opacity="1" /><path clip-path="url(#clip070)" d="M 0 0 M171.922 1372.41 Q168.311 1372.41 166.482 1375.98 Q164.677 1379.52 164.677 1386.65 Q164.677 1393.76 166.482 1397.32 Q168.311 1400.86 171.922 1400.86 Q175.556 1400.86 177.362 1397.32 Q179.19 1393.76 179.19 1386.65 Q179.19 1379.52 177.362 1375.98 Q175.556 1372.41 171.922 1372.41 M171.922 1368.71 Q177.732 1368.71 180.788 1373.32 Q183.866 1377.9 183.866 1386.65 Q183.866 1395.38 180.788 1399.98 Q177.732 1404.57 171.922 1404.57 Q166.112 1404.57 163.033 1399.98 Q159.978 1395.38 159.978 1386.65 Q159.978 1377.9 163.033 1373.32 Q166.112 1368.71 171.922 1368.71 Z" fill="#000000" fill-rule="evenodd" fill-opacity="1" /><path clip-path="url(#clip070)" d="M 0 0 M128.288 1092.96 Q124.677 1092.96 122.848 1096.53 Q121.043 1100.07 121.043 1107.2 Q121.043 1114.3 122.848 1117.87 Q124.677 1121.41 128.288 1121.41 Q131.922 1121.41 133.728 1117.87 Q135.556 1114.3 135.556 1107.2 Q135.556 1100.07 133.728 1096.53 Q131.922 1092.96 128.288 1092.96 M128.288 1089.26 Q134.098 1089.26 137.154 1093.86 Q140.232 1098.45 140.232 1107.2 Q140.232 1115.92 137.154 1120.53 Q134.098 1125.11 128.288 1125.11 Q122.478 1125.11 119.399 1120.53 Q116.343 1115.92 116.343 1107.2 Q116.343 1098.45 119.399 1093.86 Q122.478 1089.26 128.288 1089.26 Z" fill="#000000" fill-rule="evenodd" fill-opacity="1" /><path clip-path="url(#clip070)" d="M 0 0 M148.45 1118.56 L153.334 1118.56 L153.334 1124.44 L148.45 1124.44 L148.45 1118.56 Z" fill="#000000" fill-rule="evenodd" fill-opacity="1" /><path clip-path="url(#clip070)" d="M 0 0 M167.547 1120.51 L183.866 1120.51 L183.866 1124.44 L161.922 1124.44 L161.922 1120.51 Q164.584 1117.75 169.167 1113.12 Q173.774 1108.47 174.954 1107.13 Q177.2 1104.61 178.079 1102.87 Q178.982 1101.11 178.982 1099.42 Q178.982 1096.67 177.038 1094.93 Q175.116 1093.19 172.014 1093.19 Q169.815 1093.19 167.362 1093.96 Q164.931 1094.72 162.153 1096.27 L162.153 1091.55 Q164.977 1090.42 167.431 1089.84 Q169.885 1089.26 171.922 1089.26 Q177.292 1089.26 180.487 1091.94 Q183.681 1094.63 183.681 1099.12 Q183.681 1101.25 182.871 1103.17 Q182.084 1105.07 179.977 1107.66 Q179.399 1108.33 176.297 1111.55 Q173.195 1114.74 167.547 1120.51 Z" fill="#000000" fill-rule="evenodd" fill-opacity="1" /><path clip-path="url(#clip070)" d="M 0 0 M126.205 813.509 Q122.593 813.509 120.765 817.074 Q118.959 820.616 118.959 827.745 Q118.959 834.852 120.765 838.417 Q122.593 841.958 126.205 841.958 Q129.839 841.958 131.644 838.417 Q133.473 834.852 133.473 827.745 Q133.473 820.616 131.644 817.074 Q129.839 813.509 126.205 813.509 M126.205 809.806 Q132.015 809.806 135.07 814.412 Q138.149 818.995 138.149 827.745 Q138.149 836.472 135.07 841.079 Q132.015 845.662 126.205 845.662 Q120.394 845.662 117.316 841.079 Q114.26 836.472 114.26 827.745 Q114.26 818.995 117.316 814.412 Q120.394 809.806 126.205 809.806 Z" fill="#000000" fill-rule="evenodd" fill-opacity="1" /><path clip-path="url(#clip070)" d="M 0 0 M146.366 839.111 L151.251 839.111 L151.251 844.991 L146.366 844.991 L146.366 839.111 Z" fill="#000000" fill-rule="evenodd" fill-opacity="1" /><path clip-path="url(#clip070)" d="M 0 0 M174.283 814.505 L162.477 832.954 L174.283 832.954 L174.283 814.505 M173.056 810.431 L178.936 810.431 L178.936 832.954 L183.866 832.954 L183.866 836.842 L178.936 836.842 L178.936 844.991 L174.283 844.991 L174.283 836.842 L158.681 836.842 L158.681 832.329 L173.056 810.431 Z" fill="#000000" fill-rule="evenodd" fill-opacity="1" /><path clip-path="url(#clip070)" d="M 0 0 M126.529 534.057 Q122.918 534.057 121.089 537.621 Q119.283 541.163 119.283 548.293 Q119.283 555.399 121.089 558.964 Q122.918 562.505 126.529 562.505 Q130.163 562.505 131.968 558.964 Q133.797 555.399 133.797 548.293 Q133.797 541.163 131.968 537.621 Q130.163 534.057 126.529 534.057 M126.529 530.353 Q132.339 530.353 135.394 534.959 Q138.473 539.543 138.473 548.293 Q138.473 557.019 135.394 561.626 Q132.339 566.209 126.529 566.209 Q120.718 566.209 117.64 561.626 Q114.584 557.019 114.584 548.293 Q114.584 539.543 117.64 534.959 Q120.718 530.353 126.529 530.353 Z" fill="#000000" fill-rule="evenodd" fill-opacity="1" /><path clip-path="url(#clip070)" d="M 0 0 M146.691 559.658 L151.575 559.658 L151.575 565.538 L146.691 565.538 L146.691 559.658 Z" fill="#000000" fill-rule="evenodd" fill-opacity="1" /><path clip-path="url(#clip070)" d="M 0 0 M172.339 546.394 Q169.19 546.394 167.339 548.547 Q165.51 550.7 165.51 554.45 Q165.51 558.177 167.339 560.353 Q169.19 562.505 172.339 562.505 Q175.487 562.505 177.315 560.353 Q179.167 558.177 179.167 554.45 Q179.167 550.7 177.315 548.547 Q175.487 546.394 172.339 546.394 M181.621 531.742 L181.621 536.001 Q179.862 535.168 178.056 534.728 Q176.274 534.288 174.514 534.288 Q169.885 534.288 167.431 537.413 Q165.001 540.538 164.653 546.857 Q166.019 544.843 168.079 543.779 Q170.139 542.691 172.616 542.691 Q177.825 542.691 180.834 545.862 Q183.866 549.01 183.866 554.45 Q183.866 559.774 180.718 562.992 Q177.57 566.209 172.339 566.209 Q166.343 566.209 163.172 561.626 Q160.001 557.019 160.001 548.293 Q160.001 540.098 163.89 535.237 Q167.778 530.353 174.329 530.353 Q176.089 530.353 177.871 530.7 Q179.676 531.047 181.621 531.742 Z" fill="#000000" fill-rule="evenodd" fill-opacity="1" /><path clip-path="url(#clip070)" d="M 0 0 M126.783 254.604 Q123.172 254.604 121.343 258.169 Q119.538 261.71 119.538 268.84 Q119.538 275.946 121.343 279.511 Q123.172 283.053 126.783 283.053 Q130.417 283.053 132.223 279.511 Q134.052 275.946 134.052 268.84 Q134.052 261.71 132.223 258.169 Q130.417 254.604 126.783 254.604 M126.783 250.9 Q132.593 250.9 135.649 255.507 Q138.728 260.09 138.728 268.84 Q138.728 277.567 135.649 282.173 Q132.593 286.756 126.783 286.756 Q120.973 286.756 117.894 282.173 Q114.839 277.567 114.839 268.84 Q114.839 260.09 117.894 255.507 Q120.973 250.9 126.783 250.9 Z" fill="#000000" fill-rule="evenodd" fill-opacity="1" /><path clip-path="url(#clip070)" d="M 0 0 M146.945 280.205 L151.829 280.205 L151.829 286.085 L146.945 286.085 L146.945 280.205 Z" fill="#000000" fill-rule="evenodd" fill-opacity="1" /><path clip-path="url(#clip070)" d="M 0 0 M172.014 269.673 Q168.681 269.673 166.76 271.455 Q164.862 273.238 164.862 276.363 Q164.862 279.488 166.76 281.27 Q168.681 283.053 172.014 283.053 Q175.348 283.053 177.269 281.27 Q179.19 279.465 179.19 276.363 Q179.19 273.238 177.269 271.455 Q175.371 269.673 172.014 269.673 M167.339 267.682 Q164.329 266.942 162.64 264.881 Q160.973 262.821 160.973 259.858 Q160.973 255.715 163.913 253.307 Q166.876 250.9 172.014 250.9 Q177.176 250.9 180.116 253.307 Q183.056 255.715 183.056 259.858 Q183.056 262.821 181.366 264.881 Q179.7 266.942 176.714 267.682 Q180.093 268.469 181.968 270.761 Q183.866 273.053 183.866 276.363 Q183.866 281.386 180.788 284.071 Q177.732 286.756 172.014 286.756 Q166.297 286.756 163.218 284.071 Q160.163 281.386 160.163 276.363 Q160.163 273.053 162.061 270.761 Q163.959 268.469 167.339 267.682 M165.626 260.298 Q165.626 262.983 167.292 264.488 Q168.982 265.993 172.014 265.993 Q175.024 265.993 176.714 264.488 Q178.426 262.983 178.426 260.298 Q178.426 257.613 176.714 256.108 Q175.024 254.604 172.014 254.604 Q168.982 254.604 167.292 256.108 Q165.626 257.613 165.626 260.298 Z" fill="#000000" fill-rule="evenodd" fill-opacity="1" /><path clip-path="url(#clip070)" d="M 0 0 M29.4065 837.445 L34.9447 837.445 Q33.6716 839.927 33.035 842.601 Q32.3984 845.274 32.3984 848.139 Q32.3984 852.499 33.7352 854.696 Q35.072 856.86 37.7456 856.86 Q39.7826 856.86 40.9603 855.3 Q42.1061 853.741 43.1565 849.03 L43.6021 847.025 Q44.9389 840.787 47.3897 838.177 Q49.8086 835.535 54.1691 835.535 Q59.1344 835.535 62.0308 839.482 Q64.9272 843.396 64.9272 850.271 Q64.9272 853.136 64.3543 856.255 Q63.8132 859.343 62.6992 862.78 L56.6518 862.78 Q58.3387 859.534 59.198 856.383 Q60.0256 853.232 60.0256 850.144 Q60.0256 846.006 58.6251 843.778 Q57.1929 841.55 54.6147 841.55 Q52.2276 841.55 50.9545 843.174 Q49.6813 844.765 48.5037 850.208 L48.0262 852.245 Q46.8804 857.688 44.5251 860.106 Q42.138 862.525 38.0002 862.525 Q32.9713 862.525 30.2341 858.961 Q27.4968 855.396 27.4968 848.839 Q27.4968 845.593 27.9743 842.728 Q28.4517 839.864 29.4065 837.445 Z" fill="#000000" fill-rule="evenodd" fill-opacity="1" /><path clip-path="url(#clip070)" d="M 0 0 M18.2347 820.416 L28.3562 820.416 L28.3562 808.353 L32.9077 808.353 L32.9077 820.416 L52.2594 820.416 Q56.6199 820.416 57.8613 819.239 Q59.1026 818.029 59.1026 814.369 L59.1026 808.353 L64.0042 808.353 L64.0042 814.369 Q64.0042 821.148 61.4897 823.726 Q58.9434 826.305 52.2594 826.305 L32.9077 826.305 L32.9077 830.601 L28.3562 830.601 L28.3562 826.305 L18.2347 826.305 L18.2347 820.416 Z" fill="#000000" fill-rule="evenodd" fill-opacity="1" /><path clip-path="url(#clip070)" d="M 0 0 M33.8307 779.994 Q33.2578 780.981 33.0032 782.158 Q32.7167 783.304 32.7167 784.705 Q32.7167 789.67 35.9632 792.344 Q39.1779 794.985 45.2253 794.985 L64.0042 794.985 L64.0042 800.874 L28.3562 800.874 L28.3562 794.985 L33.8944 794.985 Q30.6479 793.139 29.0883 790.179 Q27.4968 787.219 27.4968 782.986 Q27.4968 782.381 27.5923 781.649 Q27.656 780.917 27.8151 780.026 L33.8307 779.994 Z" fill="#000000" fill-rule="evenodd" fill-opacity="1" /><path clip-path="url(#clip070)" d="M 0 0 M28.3562 773.851 L28.3562 767.995 L64.0042 767.995 L64.0042 773.851 L28.3562 773.851 M14.479 773.851 L14.479 767.995 L21.895 767.995 L21.895 773.851 L14.479 773.851 Z" fill="#000000" fill-rule="evenodd" fill-opacity="1" /><path clip-path="url(#clip070)" d="M 0 0 M58.657 750.075 L77.5631 750.075 L77.5631 755.964 L28.3562 755.964 L28.3562 750.075 L33.7671 750.075 Q30.5842 748.229 29.0564 745.428 Q27.4968 742.596 27.4968 738.681 Q27.4968 732.188 32.6531 728.145 Q37.8093 724.071 46.212 724.071 Q54.6147 724.071 59.771 728.145 Q64.9272 732.188 64.9272 738.681 Q64.9272 742.596 63.3994 745.428 Q61.8398 748.229 58.657 750.075 M46.212 730.151 Q39.7508 730.151 36.0905 732.824 Q32.3984 735.466 32.3984 740.113 Q32.3984 744.76 36.0905 747.433 Q39.7508 750.075 46.212 750.075 Q52.6732 750.075 56.3653 747.433 Q60.0256 744.76 60.0256 740.113 Q60.0256 735.466 56.3653 732.824 Q52.6732 730.151 46.212 730.151 Z" fill="#000000" fill-rule="evenodd" fill-opacity="1" /><path clip-path="url(#clip070)" d="M 0 0 M67.3143 699.532 Q73.68 702.014 75.6216 704.369 Q77.5631 706.725 77.5631 710.672 L77.5631 715.35 L72.6615 715.35 L72.6615 711.913 Q72.6615 709.494 71.5157 708.157 Q70.3699 706.82 66.1048 705.197 L63.4312 704.147 L28.3562 718.565 L28.3562 712.358 L56.238 701.218 L28.3562 690.078 L28.3562 683.872 L67.3143 699.532 Z" fill="#000000" fill-rule="evenodd" fill-opacity="1" /><path clip-path="url(#clip070)" d="M 0 0 M1193.59 35.9153 Q1196.38 30.8922 1200.27 28.5022 Q1204.16 26.1121 1209.42 26.1121 Q1216.51 26.1121 1220.36 31.0947 Q1224.21 36.0368 1224.21 45.1919 L1224.21 72.576 L1216.72 72.576 L1216.72 45.4349 Q1216.72 38.913 1214.41 35.7533 Q1212.1 32.5936 1207.36 32.5936 Q1201.57 32.5936 1198.2 36.4419 Q1194.84 40.2903 1194.84 46.9338 L1194.84 72.576 L1187.35 72.576 L1187.35 45.4349 Q1187.35 38.8725 1185.04 35.7533 Q1182.73 32.5936 1177.91 32.5936 Q1172.2 32.5936 1168.83 36.4824 Q1165.47 40.3308 1165.47 46.9338 L1165.47 72.576 L1157.98 72.576 L1157.98 27.2059 L1165.47 27.2059 L1165.47 34.2544 Q1168.02 30.082 1171.59 28.0971 Q1175.15 26.1121 1180.06 26.1121 Q1185 26.1121 1188.44 28.6237 Q1191.93 31.1352 1193.59 35.9153 Z" fill="#000000" fill-rule="evenodd" fill-opacity="1" /><path clip-path="url(#clip070)" d="M 0 0 M1259.7 49.7694 Q1250.66 49.7694 1247.18 51.8354 Q1243.7 53.9013 1243.7 58.8839 Q1243.7 62.8538 1246.29 65.2034 Q1248.92 67.5124 1253.42 67.5124 Q1259.62 67.5124 1263.34 63.1374 Q1267.11 58.7219 1267.11 51.4303 L1267.11 49.7694 L1259.7 49.7694 M1274.56 46.6907 L1274.56 72.576 L1267.11 72.576 L1267.11 65.6895 Q1264.56 69.8214 1260.75 71.8063 Q1256.94 73.7508 1251.43 73.7508 Q1244.47 73.7508 1240.33 69.8619 Q1236.24 65.9325 1236.24 59.3701 Q1236.24 51.7138 1241.35 47.825 Q1246.49 43.9361 1256.66 43.9361 L1267.11 43.9361 L1267.11 43.2069 Q1267.11 38.0623 1263.71 35.2672 Q1260.34 32.4315 1254.23 32.4315 Q1250.34 32.4315 1246.65 33.3632 Q1242.97 34.295 1239.56 36.1584 L1239.56 29.2718 Q1243.66 27.692 1247.5 26.9223 Q1251.35 26.1121 1255 26.1121 Q1264.84 26.1121 1269.7 31.2163 Q1274.56 36.3204 1274.56 46.6907 Z" fill="#000000" fill-rule="evenodd" fill-opacity="1" /><path clip-path="url(#clip070)" d="M 0 0 M1319.77 49.3643 Q1319.77 41.2625 1316.41 36.8065 Q1313.09 32.3505 1307.05 32.3505 Q1301.06 32.3505 1297.69 36.8065 Q1294.37 41.2625 1294.37 49.3643 Q1294.37 57.4256 1297.69 61.8816 Q1301.06 66.3376 1307.05 66.3376 Q1313.09 66.3376 1316.41 61.8816 Q1319.77 57.4256 1319.77 49.3643 M1327.23 66.9452 Q1327.23 78.5308 1322.08 84.1616 Q1316.94 89.8329 1306.32 89.8329 Q1302.39 89.8329 1298.91 89.2252 Q1295.43 88.6581 1292.14 87.4428 L1292.14 80.1917 Q1295.43 81.9741 1298.63 82.8248 Q1301.83 83.6755 1305.15 83.6755 Q1312.48 83.6755 1316.13 79.8271 Q1319.77 76.0193 1319.77 68.282 L1319.77 64.5957 Q1317.46 68.6061 1313.86 70.5911 Q1310.25 72.576 1305.23 72.576 Q1296.88 72.576 1291.78 66.2161 Q1286.68 59.8562 1286.68 49.3643 Q1286.68 38.832 1291.78 32.472 Q1296.88 26.1121 1305.23 26.1121 Q1310.25 26.1121 1313.86 28.0971 Q1317.46 30.082 1319.77 34.0924 L1319.77 27.2059 L1327.23 27.2059 L1327.23 66.9452 Z" fill="#000000" fill-rule="evenodd" fill-opacity="1" /><path clip-path="url(#clip070)" d="M 0 0 M1338.81 46.5287 L1360.65 46.5287 L1360.65 53.1722 L1338.81 53.1722 L1338.81 46.5287 Z" fill="#000000" fill-rule="evenodd" fill-opacity="1" /><path clip-path="url(#clip070)" d="M 0 0 M1395.64 9.54393 L1395.64 26.2742 Q1403.71 26.2742 1409.09 32.472 Q1414.64 38.7915 1414.64 49.9314 Q1414.64 61.0714 1409.09 67.3908 Q1403.71 73.5887 1395.64 73.5887 L1395.64 89.8329 L1388.23 89.8329 L1388.23 73.5887 Q1380.17 73.5887 1374.74 67.3908 Q1369.23 61.0714 1369.23 49.9314 Q1369.23 38.7915 1374.74 32.472 Q1380.17 26.2742 1388.23 26.2742 L1388.23 9.54393 L1395.64 9.54393 M1395.64 66.9452 Q1400.22 66.9452 1403.34 62.7728 Q1406.74 58.1143 1406.78 49.9314 Q1406.83 41.8296 1403.34 37.0901 Q1400.22 32.9176 1395.64 32.9176 L1395.64 66.9452 M1388.23 66.9452 L1388.23 32.9176 Q1383.65 32.9176 1380.58 37.0901 Q1377.05 41.8296 1377.09 49.9314 Q1377.13 58.1143 1380.58 62.7728 Q1383.65 66.9452 1388.23 66.9452 Z" fill="#000000" fill-rule="evenodd" fill-opacity="1" /><polyline clip-path="url(#clip072)" style="stroke:#009af9; stroke-width:8; stroke-opacity:1; fill:none" points="
  280.231,160.256 380.839,175.576 481.447,192.464 582.055,211.196 682.663,234.393 783.271,1313.28 883.879,1372.17 984.487,1376.41 1085.1,1376.61 1185.7,1373.48 
  1286.31,1381.96 1326.55,1380.91 1366.8,1381.86 1407.04,1380.66 1447.28,1385.4 1487.53,1382.98 1527.77,1383.86 1568.01,1384.31 1608.26,1375.24 1648.5,1382.58 
  1688.74,1382.34 1789.35,1382.58 1889.96,1377.87 1990.57,1384.07 2091.18,1360.52 2191.78,195.528 2292.39,160.475 
  "/>
<circle clip-path="url(#clip072)" cx="280.231" cy="160.256" r="14" fill="#009af9" fill-rule="evenodd" fill-opacity="1" stroke="#000000" stroke-opacity="1" stroke-width="3.2"/>
<circle clip-path="url(#clip072)" cx="380.839" cy="175.576" r="14" fill="#009af9" fill-rule="evenodd" fill-opacity="1" stroke="#000000" stroke-opacity="1" stroke-width="3.2"/>
<circle clip-path="url(#clip072)" cx="481.447" cy="192.464" r="14" fill="#009af9" fill-rule="evenodd" fill-opacity="1" stroke="#000000" stroke-opacity="1" stroke-width="3.2"/>
<circle clip-path="url(#clip072)" cx="582.055" cy="211.196" r="14" fill="#009af9" fill-rule="evenodd" fill-opacity="1" stroke="#000000" stroke-opacity="1" stroke-width="3.2"/>
<circle clip-path="url(#clip072)" cx="682.663" cy="234.393" r="14" fill="#009af9" fill-rule="evenodd" fill-opacity="1" stroke="#000000" stroke-opacity="1" stroke-width="3.2"/>
<circle clip-path="url(#clip072)" cx="783.271" cy="1313.28" r="14" fill="#009af9" fill-rule="evenodd" fill-opacity="1" stroke="#000000" stroke-opacity="1" stroke-width="3.2"/>
<circle clip-path="url(#clip072)" cx="883.879" cy="1372.17" r="14" fill="#009af9" fill-rule="evenodd" fill-opacity="1" stroke="#000000" stroke-opacity="1" stroke-width="3.2"/>
<circle clip-path="url(#clip072)" cx="984.487" cy="1376.41" r="14" fill="#009af9" fill-rule="evenodd" fill-opacity="1" stroke="#000000" stroke-opacity="1" stroke-width="3.2"/>
<circle clip-path="url(#clip072)" cx="1085.1" cy="1376.61" r="14" fill="#009af9" fill-rule="evenodd" fill-opacity="1" stroke="#000000" stroke-opacity="1" stroke-width="3.2"/>
<circle clip-path="url(#clip072)" cx="1185.7" cy="1373.48" r="14" fill="#009af9" fill-rule="evenodd" fill-opacity="1" stroke="#000000" stroke-opacity="1" stroke-width="3.2"/>
<circle clip-path="url(#clip072)" cx="1286.31" cy="1381.96" r="14" fill="#009af9" fill-rule="evenodd" fill-opacity="1" stroke="#000000" stroke-opacity="1" stroke-width="3.2"/>
<circle clip-path="url(#clip072)" cx="1326.55" cy="1380.91" r="14" fill="#009af9" fill-rule="evenodd" fill-opacity="1" stroke="#000000" stroke-opacity="1" stroke-width="3.2"/>
<circle clip-path="url(#clip072)" cx="1366.8" cy="1381.86" r="14" fill="#009af9" fill-rule="evenodd" fill-opacity="1" stroke="#000000" stroke-opacity="1" stroke-width="3.2"/>
<circle clip-path="url(#clip072)" cx="1407.04" cy="1380.66" r="14" fill="#009af9" fill-rule="evenodd" fill-opacity="1" stroke="#000000" stroke-opacity="1" stroke-width="3.2"/>
<circle clip-path="url(#clip072)" cx="1447.28" cy="1385.4" r="14" fill="#009af9" fill-rule="evenodd" fill-opacity="1" stroke="#000000" stroke-opacity="1" stroke-width="3.2"/>
<circle clip-path="url(#clip072)" cx="1487.53" cy="1382.98" r="14" fill="#009af9" fill-rule="evenodd" fill-opacity="1" stroke="#000000" stroke-opacity="1" stroke-width="3.2"/>
<circle clip-path="url(#clip072)" cx="1527.77" cy="1383.86" r="14" fill="#009af9" fill-rule="evenodd" fill-opacity="1" stroke="#000000" stroke-opacity="1" stroke-width="3.2"/>
<circle clip-path="url(#clip072)" cx="1568.01" cy="1384.31" r="14" fill="#009af9" fill-rule="evenodd" fill-opacity="1" stroke="#000000" stroke-opacity="1" stroke-width="3.2"/>
<circle clip-path="url(#clip072)" cx="1608.26" cy="1375.24" r="14" fill="#009af9" fill-rule="evenodd" fill-opacity="1" stroke="#000000" stroke-opacity="1" stroke-width="3.2"/>
<circle clip-path="url(#clip072)" cx="1648.5" cy="1382.58" r="14" fill="#009af9" fill-rule="evenodd" fill-opacity="1" stroke="#000000" stroke-opacity="1" stroke-width="3.2"/>
<circle clip-path="url(#clip072)" cx="1688.74" cy="1382.34" r="14" fill="#009af9" fill-rule="evenodd" fill-opacity="1" stroke="#000000" stroke-opacity="1" stroke-width="3.2"/>
<circle clip-path="url(#clip072)" cx="1789.35" cy="1382.58" r="14" fill="#009af9" fill-rule="evenodd" fill-opacity="1" stroke="#000000" stroke-opacity="1" stroke-width="3.2"/>
<circle clip-path="url(#clip072)" cx="1889.96" cy="1377.87" r="14" fill="#009af9" fill-rule="evenodd" fill-opacity="1" stroke="#000000" stroke-opacity="1" stroke-width="3.2"/>
<circle clip-path="url(#clip072)" cx="1990.57" cy="1384.07" r="14" fill="#009af9" fill-rule="evenodd" fill-opacity="1" stroke="#000000" stroke-opacity="1" stroke-width="3.2"/>
<circle clip-path="url(#clip072)" cx="2091.18" cy="1360.52" r="14" fill="#009af9" fill-rule="evenodd" fill-opacity="1" stroke="#000000" stroke-opacity="1" stroke-width="3.2"/>
<circle clip-path="url(#clip072)" cx="2191.78" cy="195.528" r="14" fill="#009af9" fill-rule="evenodd" fill-opacity="1" stroke="#000000" stroke-opacity="1" stroke-width="3.2"/>
<circle clip-path="url(#clip072)" cx="2292.39" cy="160.475" r="14" fill="#009af9" fill-rule="evenodd" fill-opacity="1" stroke="#000000" stroke-opacity="1" stroke-width="3.2"/>
<polyline clip-path="url(#clip072)" style="stroke:#e26f46; stroke-width:8; stroke-opacity:1; fill:none" points="
  280.231,160.257 380.839,175.577 481.447,192.464 582.055,211.197 682.663,234.395 783.271,1313.68 883.879,1373.8 984.487,1379.1 1085.1,1377.24 1185.7,1377.61 
  1286.31,1382.2 1326.55,1383.17 1366.8,1383.6 1407.04,1382.68 1447.28,1386.38 1487.53,1384.35 1527.77,1384 1568.01,1384.63 1608.26,1378.58 1648.5,1383.25 
  1688.74,1382.98 1789.35,1383.25 1889.96,1379.78 1990.57,1385.95 2091.18,1379.16 2191.78,1386.15 2292.39,1385.66 
  "/>
<polyline clip-path="url(#clip072)" style="stroke:#3da44d; stroke-width:8; stroke-opacity:1; fill:none" points="
  280.231,1386.4 380.839,1386.16 481.447,1386.37 582.055,1386.03 682.663,1386.13 783.271,1384.57 883.879,1383.65 984.487,1385.84 1085.1,1385.25 1185.7,1385.33 
  1286.31,1385.82 1326.55,1383.48 1366.8,1385.24 1407.04,1383.01 1447.28,1385.77 1487.53,1383.84 1527.77,1386.01 1568.01,1386.05 1608.26,1381.45 1648.5,1386.37 
  1688.74,1386.3 1789.35,1386.37 1889.96,1386.38 1990.57,1384.48 2091.18,1362.1 2191.78,195.528 2292.39,160.475 
  "/>
<path clip-path="url(#clip070)" d="
M704.755 864.046 L1333.71 864.046 L1333.71 622.126 L704.755 622.126  Z
  " fill="#ffffff" fill-rule="evenodd" fill-opacity="1"/>
<polyline clip-path="url(#clip070)" style="stroke:#000000; stroke-width:4; stroke-opacity:1; fill:none" points="
  704.755,864.046 1333.71,864.046 1333.71,622.126 704.755,622.126 704.755,864.046 
  "/>
<polyline clip-path="url(#clip070)" style="stroke:#009af9; stroke-width:4; stroke-opacity:1; fill:none" points="
  728.454,682.606 870.647,682.606 
  "/>
<circle clip-path="url(#clip070)" cx="799.55" cy="682.606" r="23" fill="#009af9" fill-rule="evenodd" fill-opacity="1" stroke="#000000" stroke-opacity="1" stroke-width="5.12"/>
<path clip-path="url(#clip070)" d="M 0 0 M914.693 678.937 Q916.29 676.067 918.512 674.701 Q920.734 673.335 923.744 673.335 Q927.794 673.335 929.994 676.182 Q932.193 679.006 932.193 684.238 L932.193 699.886 L927.91 699.886 L927.91 684.377 Q927.91 680.65 926.591 678.844 Q925.271 677.039 922.563 677.039 Q919.253 677.039 917.332 679.238 Q915.41 681.437 915.41 685.233 L915.41 699.886 L911.128 699.886 L911.128 684.377 Q911.128 680.627 909.808 678.844 Q908.489 677.039 905.734 677.039 Q902.471 677.039 900.549 679.261 Q898.628 681.46 898.628 685.233 L898.628 699.886 L894.346 699.886 L894.346 673.96 L898.628 673.96 L898.628 677.988 Q900.086 675.604 902.123 674.469 Q904.16 673.335 906.961 673.335 Q909.785 673.335 911.753 674.77 Q913.744 676.206 914.693 678.937 Z" fill="#000000" fill-rule="evenodd" fill-opacity="1" /><path clip-path="url(#clip070)" d="M 0 0 M952.47 686.854 Q947.308 686.854 945.318 688.034 Q943.327 689.215 943.327 692.062 Q943.327 694.33 944.808 695.673 Q946.313 696.992 948.882 696.992 Q952.424 696.992 954.554 694.492 Q956.706 691.969 956.706 687.803 L956.706 686.854 L952.47 686.854 M960.966 685.094 L960.966 699.886 L956.706 699.886 L956.706 695.951 Q955.248 698.312 953.072 699.446 Q950.896 700.557 947.748 700.557 Q943.767 700.557 941.406 698.335 Q939.068 696.09 939.068 692.34 Q939.068 687.965 941.984 685.743 Q944.924 683.52 950.734 683.52 L956.706 683.52 L956.706 683.104 Q956.706 680.164 954.762 678.567 Q952.841 676.946 949.345 676.946 Q947.123 676.946 945.017 677.479 Q942.91 678.011 940.966 679.076 L940.966 675.141 Q943.304 674.238 945.503 673.798 Q947.702 673.335 949.785 673.335 Q955.41 673.335 958.188 676.252 Q960.966 679.169 960.966 685.094 Z" fill="#000000" fill-rule="evenodd" fill-opacity="1" /><path clip-path="url(#clip070)" d="M 0 0 M986.799 686.622 Q986.799 681.993 984.878 679.446 Q982.979 676.9 979.53 676.9 Q976.104 676.9 974.183 679.446 Q972.285 681.993 972.285 686.622 Q972.285 691.229 974.183 693.775 Q976.104 696.321 979.53 696.321 Q982.979 696.321 984.878 693.775 Q986.799 691.229 986.799 686.622 M991.058 696.668 Q991.058 703.289 988.118 706.506 Q985.178 709.747 979.114 709.747 Q976.868 709.747 974.878 709.4 Q972.887 709.076 971.012 708.381 L971.012 704.238 Q972.887 705.256 974.716 705.742 Q976.544 706.229 978.442 706.229 Q982.632 706.229 984.715 704.029 Q986.799 701.854 986.799 697.432 L986.799 695.326 Q985.479 697.617 983.419 698.752 Q981.359 699.886 978.489 699.886 Q973.72 699.886 970.804 696.252 Q967.887 692.618 967.887 686.622 Q967.887 680.604 970.804 676.969 Q973.72 673.335 978.489 673.335 Q981.359 673.335 983.419 674.469 Q985.479 675.604 986.799 677.895 L986.799 673.96 L991.058 673.96 L991.058 696.668 Z" fill="#000000" fill-rule="evenodd" fill-opacity="1" /><path clip-path="url(#clip070)" d="M 0 0 M1019.76 669.169 L1019.76 696.043 L1025.41 696.043 Q1032.56 696.043 1035.87 692.803 Q1039.21 689.562 1039.21 682.571 Q1039.21 675.627 1035.87 672.409 Q1032.56 669.169 1025.41 669.169 L1019.76 669.169 M1015.09 665.326 L1024.69 665.326 Q1034.74 665.326 1039.44 669.516 Q1044.14 673.682 1044.14 682.571 Q1044.14 691.506 1039.41 695.696 Q1034.69 699.886 1024.69 699.886 L1015.09 699.886 L1015.09 665.326 Z" fill="#000000" fill-rule="evenodd" fill-opacity="1" /><path clip-path="url(#clip070)" d="M 0 0 M1067.03 678.358 L1096.71 678.358 L1096.71 682.247 L1067.03 682.247 L1067.03 678.358 M1067.03 687.803 L1096.71 687.803 L1096.71 691.738 L1067.03 691.738 L1067.03 687.803 Z" fill="#000000" fill-rule="evenodd" fill-opacity="1" /><path clip-path="url(#clip070)" d="M 0 0 M1134.71 669.4 L1122.91 687.849 L1134.71 687.849 L1134.71 669.4 M1133.49 665.326 L1139.37 665.326 L1139.37 687.849 L1144.3 687.849 L1144.3 691.738 L1139.37 691.738 L1139.37 699.886 L1134.71 699.886 L1134.71 691.738 L1119.11 691.738 L1119.11 687.224 L1133.49 665.326 Z" fill="#000000" fill-rule="evenodd" fill-opacity="1" /><path clip-path="url(#clip070)" d="M 0 0 M1178.97 705.673 L1175.52 696.807 L1168.42 709.77 L1163.4 709.77 L1173.44 691.437 L1169.23 680.534 Q1168.09 677.618 1164.53 677.618 L1163.4 677.618 L1163.4 673.96 L1165.02 674.006 Q1170.99 674.169 1172.49 678.034 L1175.92 686.9 L1183.02 673.937 L1188.05 673.937 L1178 692.27 L1182.21 703.173 Q1183.35 706.09 1186.91 706.09 L1188.05 706.09 L1188.05 709.747 L1186.43 709.701 Q1180.46 709.539 1178.97 705.673 Z" fill="#000000" fill-rule="evenodd" fill-opacity="1" /><path clip-path="url(#clip070)" d="M 0 0 M1194.44 678.358 L1224.11 678.358 L1224.11 682.247 L1194.44 682.247 L1194.44 678.358 M1194.44 687.803 L1224.11 687.803 L1224.11 691.738 L1194.44 691.738 L1194.44 687.803 Z" fill="#000000" fill-rule="evenodd" fill-opacity="1" /><path clip-path="url(#clip070)" d="M 0 0 M1238.23 695.951 L1254.55 695.951 L1254.55 699.886 L1232.61 699.886 L1232.61 695.951 Q1235.27 693.196 1239.85 688.567 Q1244.46 683.914 1245.64 682.571 Q1247.89 680.048 1248.76 678.312 Q1249.67 676.553 1249.67 674.863 Q1249.67 672.108 1247.72 670.372 Q1245.8 668.636 1242.7 668.636 Q1240.5 668.636 1238.05 669.4 Q1235.62 670.164 1232.84 671.715 L1232.84 666.993 Q1235.66 665.858 1238.12 665.28 Q1240.57 664.701 1242.61 664.701 Q1247.98 664.701 1251.17 667.386 Q1254.37 670.071 1254.37 674.562 Q1254.37 676.692 1253.56 678.613 Q1252.77 680.511 1250.66 683.104 Q1250.08 683.775 1246.98 686.993 Q1243.88 690.187 1238.23 695.951 Z" fill="#000000" fill-rule="evenodd" fill-opacity="1" /><path clip-path="url(#clip070)" d="M 0 0 M1274.37 668.405 Q1270.76 668.405 1268.93 671.969 Q1267.12 675.511 1267.12 682.641 Q1267.12 689.747 1268.93 693.312 Q1270.76 696.854 1274.37 696.854 Q1278 696.854 1279.81 693.312 Q1281.64 689.747 1281.64 682.641 Q1281.64 675.511 1279.81 671.969 Q1278 668.405 1274.37 668.405 M1274.37 664.701 Q1280.18 664.701 1283.23 669.307 Q1286.31 673.891 1286.31 682.641 Q1286.31 691.368 1283.23 695.974 Q1280.18 700.557 1274.37 700.557 Q1268.56 700.557 1265.48 695.974 Q1262.42 691.368 1262.42 682.641 Q1262.42 673.891 1265.48 669.307 Q1268.56 664.701 1274.37 664.701 Z" fill="#000000" fill-rule="evenodd" fill-opacity="1" /><polyline clip-path="url(#clip070)" style="stroke:#e26f46; stroke-width:4; stroke-opacity:1; fill:none" points="
  728.454,743.086 870.647,743.086 
  "/>
<path clip-path="url(#clip070)" d="M 0 0 M910.85 724.348 L910.85 727.889 L906.776 727.889 Q904.484 727.889 903.582 728.815 Q902.702 729.741 902.702 732.149 L902.702 734.44 L909.716 734.44 L909.716 737.75 L902.702 737.75 L902.702 760.366 L898.42 760.366 L898.42 737.75 L894.346 737.75 L894.346 734.44 L898.42 734.44 L898.42 732.635 Q898.42 728.306 900.434 726.338 Q902.447 724.348 906.822 724.348 L910.85 724.348 Z" fill="#000000" fill-rule="evenodd" fill-opacity="1" /><path clip-path="url(#clip070)" d="M 0 0 M936.591 746.338 L936.591 748.422 L917.008 748.422 Q917.285 752.82 919.646 755.135 Q922.031 757.426 926.267 757.426 Q928.72 757.426 931.012 756.824 Q933.327 756.222 935.595 755.019 L935.595 759.047 Q933.304 760.019 930.896 760.528 Q928.489 761.037 926.012 761.037 Q919.808 761.037 916.174 757.426 Q912.563 753.815 912.563 747.658 Q912.563 741.292 915.989 737.565 Q919.438 733.815 925.271 733.815 Q930.503 733.815 933.535 737.195 Q936.591 740.551 936.591 746.338 M932.332 745.088 Q932.285 741.593 930.364 739.51 Q928.466 737.426 925.318 737.426 Q921.753 737.426 919.6 739.44 Q917.47 741.454 917.146 745.111 L932.332 745.088 Z" fill="#000000" fill-rule="evenodd" fill-opacity="1" /><path clip-path="url(#clip070)" d="M 0 0 M958.605 738.422 Q957.887 738.005 957.03 737.82 Q956.197 737.611 955.179 737.611 Q951.568 737.611 949.623 739.973 Q947.702 742.311 947.702 746.709 L947.702 760.366 L943.419 760.366 L943.419 734.44 L947.702 734.44 L947.702 738.468 Q949.044 736.107 951.197 734.973 Q953.35 733.815 956.429 733.815 Q956.868 733.815 957.401 733.885 Q957.933 733.931 958.581 734.047 L958.605 738.422 Z" fill="#000000" fill-rule="evenodd" fill-opacity="1" /><path clip-path="url(#clip070)" d="M 0 0 M977.262 738.422 Q976.544 738.005 975.688 737.82 Q974.854 737.611 973.836 737.611 Q970.225 737.611 968.28 739.973 Q966.359 742.311 966.359 746.709 L966.359 760.366 L962.077 760.366 L962.077 734.44 L966.359 734.44 L966.359 738.468 Q967.702 736.107 969.854 734.973 Q972.007 733.815 975.086 733.815 Q975.526 733.815 976.058 733.885 Q976.591 733.931 977.239 734.047 L977.262 738.422 Z" fill="#000000" fill-rule="evenodd" fill-opacity="1" /><path clip-path="url(#clip070)" d="M 0 0 M990.734 737.426 Q987.308 737.426 985.317 740.111 Q983.327 742.773 983.327 747.426 Q983.327 752.079 985.294 754.764 Q987.285 757.426 990.734 757.426 Q994.137 757.426 996.127 754.741 Q998.118 752.056 998.118 747.426 Q998.118 742.82 996.127 740.135 Q994.137 737.426 990.734 737.426 M990.734 733.815 Q996.289 733.815 999.461 737.426 Q1002.63 741.037 1002.63 747.426 Q1002.63 753.792 999.461 757.426 Q996.289 761.037 990.734 761.037 Q985.155 761.037 981.984 757.426 Q978.836 753.792 978.836 747.426 Q978.836 741.037 981.984 737.426 Q985.155 733.815 990.734 733.815 Z" fill="#000000" fill-rule="evenodd" fill-opacity="1" /><path clip-path="url(#clip070)" d="M 0 0 M1029.62 729.649 L1029.62 756.523 L1035.27 756.523 Q1042.42 756.523 1045.73 753.283 Q1049.07 750.042 1049.07 743.051 Q1049.07 736.107 1045.73 732.889 Q1042.42 729.649 1035.27 729.649 L1029.62 729.649 M1024.95 725.806 L1034.55 725.806 Q1044.6 725.806 1049.3 729.996 Q1054 734.162 1054 743.051 Q1054 751.986 1049.28 756.176 Q1044.55 760.366 1034.55 760.366 L1024.95 760.366 L1024.95 725.806 Z" fill="#000000" fill-rule="evenodd" fill-opacity="1" /><path clip-path="url(#clip070)" d="M 0 0 M1076.89 738.838 L1106.57 738.838 L1106.57 742.727 L1076.89 742.727 L1076.89 738.838 M1076.89 748.283 L1106.57 748.283 L1106.57 752.218 L1076.89 752.218 L1076.89 748.283 Z" fill="#000000" fill-rule="evenodd" fill-opacity="1" /><path clip-path="url(#clip070)" d="M 0 0 M1144.58 729.88 L1132.77 748.329 L1144.58 748.329 L1144.58 729.88 M1143.35 725.806 L1149.23 725.806 L1149.23 748.329 L1154.16 748.329 L1154.16 752.218 L1149.23 752.218 L1149.23 760.366 L1144.58 760.366 L1144.58 752.218 L1128.97 752.218 L1128.97 747.704 L1143.35 725.806 Z" fill="#000000" fill-rule="evenodd" fill-opacity="1" /><polyline clip-path="url(#clip070)" style="stroke:#3da44d; stroke-width:4; stroke-opacity:1; fill:none" points="
  728.454,803.566 870.647,803.566 
  "/>
<path clip-path="url(#clip070)" d="M 0 0 M912.771 795.684 L912.771 799.712 Q910.966 798.786 909.021 798.323 Q907.077 797.86 904.994 797.86 Q901.822 797.86 900.225 798.832 Q898.651 799.804 898.651 801.749 Q898.651 803.23 899.785 804.087 Q900.92 804.92 904.346 805.684 L905.804 806.008 Q910.341 806.98 912.239 808.763 Q914.16 810.522 914.16 813.693 Q914.16 817.304 911.29 819.411 Q908.443 821.517 903.443 821.517 Q901.359 821.517 899.091 821.101 Q896.846 820.707 894.346 819.897 L894.346 815.499 Q896.707 816.726 898.998 817.351 Q901.29 817.952 903.535 817.952 Q906.545 817.952 908.165 816.934 Q909.785 815.892 909.785 814.017 Q909.785 812.281 908.605 811.355 Q907.447 810.429 903.489 809.573 L902.008 809.226 Q898.049 808.392 896.29 806.679 Q894.531 804.943 894.531 801.934 Q894.531 798.277 897.123 796.286 Q899.716 794.295 904.484 794.295 Q906.846 794.295 908.929 794.642 Q911.012 794.99 912.771 795.684 Z" fill="#000000" fill-rule="evenodd" fill-opacity="1" /><path clip-path="url(#clip070)" d="M 0 0 M925.156 787.559 L925.156 794.92 L933.929 794.92 L933.929 798.23 L925.156 798.23 L925.156 812.304 Q925.156 815.476 926.012 816.378 Q926.892 817.281 929.554 817.281 L933.929 817.281 L933.929 820.846 L929.554 820.846 Q924.623 820.846 922.748 819.017 Q920.873 817.165 920.873 812.304 L920.873 798.23 L917.748 798.23 L917.748 794.92 L920.873 794.92 L920.873 787.559 L925.156 787.559 Z" fill="#000000" fill-rule="evenodd" fill-opacity="1" /><path clip-path="url(#clip070)" d="M 0 0 M954.554 798.902 Q953.836 798.485 952.98 798.3 Q952.146 798.091 951.128 798.091 Q947.517 798.091 945.572 800.453 Q943.651 802.791 943.651 807.189 L943.651 820.846 L939.369 820.846 L939.369 794.92 L943.651 794.92 L943.651 798.948 Q944.993 796.587 947.146 795.453 Q949.299 794.295 952.378 794.295 Q952.818 794.295 953.35 794.365 Q953.882 794.411 954.53 794.527 L954.554 798.902 Z" fill="#000000" fill-rule="evenodd" fill-opacity="1" /><path clip-path="url(#clip070)" d="M 0 0 M959.021 794.92 L963.28 794.92 L963.28 820.846 L959.021 820.846 L959.021 794.92 M959.021 784.828 L963.28 784.828 L963.28 790.221 L959.021 790.221 L959.021 784.828 Z" fill="#000000" fill-rule="evenodd" fill-opacity="1" /><path clip-path="url(#clip070)" d="M 0 0 M976.313 816.957 L976.313 830.707 L972.03 830.707 L972.03 794.92 L976.313 794.92 L976.313 798.855 Q977.655 796.541 979.692 795.429 Q981.753 794.295 984.6 794.295 Q989.322 794.295 992.262 798.045 Q995.225 801.795 995.225 807.906 Q995.225 814.017 992.262 817.767 Q989.322 821.517 984.6 821.517 Q981.753 821.517 979.692 820.406 Q977.655 819.272 976.313 816.957 M990.803 807.906 Q990.803 803.207 988.859 800.545 Q986.938 797.86 983.558 797.86 Q980.178 797.86 978.234 800.545 Q976.313 803.207 976.313 807.906 Q976.313 812.605 978.234 815.29 Q980.178 817.952 983.558 817.952 Q986.938 817.952 988.859 815.29 Q990.803 812.605 990.803 807.906 Z" fill="#000000" fill-rule="evenodd" fill-opacity="1" /><path clip-path="url(#clip070)" d="M 0 0 M1013.07 823.253 Q1011.27 827.883 1009.55 829.295 Q1007.84 830.707 1004.97 830.707 L1001.57 830.707 L1001.57 827.142 L1004.07 827.142 Q1005.83 827.142 1006.8 826.309 Q1007.77 825.476 1008.95 822.374 L1009.72 820.429 L999.229 794.92 L1003.74 794.92 L1011.84 815.198 L1019.95 794.92 L1024.46 794.92 L1013.07 823.253 Z" fill="#000000" fill-rule="evenodd" fill-opacity="1" /><path clip-path="url(#clip070)" d="M 0 0 M1050.27 790.129 L1050.27 817.003 L1055.92 817.003 Q1063.07 817.003 1066.38 813.763 Q1069.72 810.522 1069.72 803.531 Q1069.72 796.587 1066.38 793.369 Q1063.07 790.129 1055.92 790.129 L1050.27 790.129 M1045.59 786.286 L1055.2 786.286 Q1065.25 786.286 1069.95 790.476 Q1074.65 794.642 1074.65 803.531 Q1074.65 812.466 1069.92 816.656 Q1065.2 820.846 1055.2 820.846 L1045.59 820.846 L1045.59 786.286 Z" fill="#000000" fill-rule="evenodd" fill-opacity="1" /><path clip-path="url(#clip070)" d="M 0 0 M1097.54 799.318 L1127.21 799.318 L1127.21 803.207 L1097.54 803.207 L1097.54 799.318 M1097.54 808.763 L1127.21 808.763 L1127.21 812.698 L1097.54 812.698 L1097.54 808.763 Z" fill="#000000" fill-rule="evenodd" fill-opacity="1" /><path clip-path="url(#clip070)" d="M 0 0 M1165.22 790.36 L1153.42 808.809 L1165.22 808.809 L1165.22 790.36 M1164 786.286 L1169.88 786.286 L1169.88 808.809 L1174.81 808.809 L1174.81 812.698 L1169.88 812.698 L1169.88 820.846 L1165.22 820.846 L1165.22 812.698 L1149.62 812.698 L1149.62 808.184 L1164 786.286 Z" fill="#000000" fill-rule="evenodd" fill-opacity="1" /></svg>
