<?xml version="1.0" encoding="utf-8"?>
<svg xmlns="http://www.w3.org/2000/svg" xmlns:xlink="http://www.w3.org/1999/xlink" width="800" height="1000" viewBox="0 0 3200 4000">
<defs>
  <clipPath id="clip230">
    <rect x="0" y="0" width="3200" height="4000"/>
  </clipPath>
</defs>
<path clip-path="url(#clip230)" d="
M0 4000 L3200 4000 L3200 0 L0 0  Z
  " fill="#ffffff" fill-rule="evenodd" fill-opacity="1"/>
<defs>
  <clipPath id="clip231">
    <rect x="800" y="400" width="2801" height="2801"/>
  </clipPath>
</defs>
<path clip-path="url(#clip230)" d="
M381.763 1758.14 L3152.76 1758.14 L3152.76 153.712 L381.763 153.712  Z
  " fill="#ffffff" fill-rule="evenodd" fill-opacity="1"/>
<defs>
  <clipPath id="clip232">
    <rect x="381" y="153" width="2772" height="1605"/>
  </clipPath>
</defs>
<polyline clip-path="url(#clip232)" style="stroke:#000000; stroke-width:2; stroke-opacity:0.1; fill:none" points="
  833.637,1758.14 833.637,153.712 
  "/>
<polyline clip-path="url(#clip232)" style="stroke:#000000; stroke-width:2; stroke-opacity:0.1; fill:none" points="
  1580.54,1758.14 1580.54,153.712 
  "/>
<polyline clip-path="url(#clip232)" style="stroke:#000000; stroke-width:2; stroke-opacity:0.1; fill:none" points="
  2327.43,1758.14 2327.43,153.712 
  "/>
<polyline clip-path="url(#clip232)" style="stroke:#000000; stroke-width:2; stroke-opacity:0.1; fill:none" points="
  3074.33,1758.14 3074.33,153.712 
  "/>
<polyline clip-path="url(#clip230)" style="stroke:#000000; stroke-width:4; stroke-opacity:1; fill:none" points="
  381.763,1758.14 3152.76,1758.14 
  "/>
<polyline clip-path="url(#clip230)" style="stroke:#000000; stroke-width:4; stroke-opacity:1; fill:none" points="
  833.637,1758.14 833.637,1738.89 
  "/>
<polyline clip-path="url(#clip230)" style="stroke:#000000; stroke-width:4; stroke-opacity:1; fill:none" points="
  1580.54,1758.14 1580.54,1738.89 
  "/>
<polyline clip-path="url(#clip230)" style="stroke:#000000; stroke-width:4; stroke-opacity:1; fill:none" points="
  2327.43,1758.14 2327.43,1738.89 
  "/>
<polyline clip-path="url(#clip230)" style="stroke:#000000; stroke-width:4; stroke-opacity:1; fill:none" points="
  3074.33,1758.14 3074.33,1738.89 
  "/>
<path clip-path="url(#clip230)" d="M 0 0 M812.41 1827.68 L828.729 1827.68 L828.729 1831.61 L806.785 1831.61 L806.785 1827.68 Q809.447 1824.92 814.03 1820.29 Q818.637 1815.64 819.817 1814.3 Q822.063 1811.77 822.942 1810.04 Q823.845 1808.28 823.845 1806.59 Q823.845 1803.83 821.901 1802.1 Q819.979 1800.36 816.878 1800.36 Q814.679 1800.36 812.225 1801.13 Q809.794 1801.89 807.017 1803.44 L807.017 1798.72 Q809.841 1797.58 812.294 1797.01 Q814.748 1796.43 816.785 1796.43 Q822.155 1796.43 825.35 1799.11 Q828.544 1801.8 828.544 1806.29 Q828.544 1808.42 827.734 1810.34 Q826.947 1812.24 824.841 1814.83 Q824.262 1815.5 821.16 1818.72 Q818.058 1821.91 812.41 1827.68 Z" fill="#000000" fill-rule="evenodd" fill-opacity="1" /><path clip-path="url(#clip230)" d="M 0 0 M848.544 1800.13 Q844.933 1800.13 843.104 1803.7 Q841.299 1807.24 841.299 1814.37 Q841.299 1821.47 843.104 1825.04 Q844.933 1828.58 848.544 1828.58 Q852.178 1828.58 853.984 1825.04 Q855.813 1821.47 855.813 1814.37 Q855.813 1807.24 853.984 1803.7 Q852.178 1800.13 848.544 1800.13 M848.544 1796.43 Q854.354 1796.43 857.41 1801.03 Q860.488 1805.62 860.488 1814.37 Q860.488 1823.09 857.41 1827.7 Q854.354 1832.28 848.544 1832.28 Q842.734 1832.28 839.655 1827.7 Q836.6 1823.09 836.6 1814.37 Q836.6 1805.62 839.655 1801.03 Q842.734 1796.43 848.544 1796.43 Z" fill="#000000" fill-rule="evenodd" fill-opacity="1" /><path clip-path="url(#clip230)" d="M 0 0 M1568.71 1801.13 L1556.9 1819.57 L1568.71 1819.57 L1568.71 1801.13 M1567.48 1797.05 L1573.36 1797.05 L1573.36 1819.57 L1578.29 1819.57 L1578.29 1823.46 L1573.36 1823.46 L1573.36 1831.61 L1568.71 1831.61 L1568.71 1823.46 L1553.1 1823.46 L1553.1 1818.95 L1567.48 1797.05 Z" fill="#000000" fill-rule="evenodd" fill-opacity="1" /><path clip-path="url(#clip230)" d="M 0 0 M1596.02 1800.13 Q1592.41 1800.13 1590.58 1803.7 Q1588.78 1807.24 1588.78 1814.37 Q1588.78 1821.47 1590.58 1825.04 Q1592.41 1828.58 1596.02 1828.58 Q1599.66 1828.58 1601.46 1825.04 Q1603.29 1821.47 1603.29 1814.37 Q1603.29 1807.24 1601.46 1803.7 Q1599.66 1800.13 1596.02 1800.13 M1596.02 1796.43 Q1601.83 1796.43 1604.89 1801.03 Q1607.97 1805.62 1607.97 1814.37 Q1607.97 1823.09 1604.89 1827.7 Q1601.83 1832.28 1596.02 1832.28 Q1590.21 1832.28 1587.13 1827.7 Q1584.08 1823.09 1584.08 1814.37 Q1584.08 1805.62 1587.13 1801.03 Q1590.21 1796.43 1596.02 1796.43 Z" fill="#000000" fill-rule="evenodd" fill-opacity="1" /><path clip-path="url(#clip230)" d="M 0 0 M2312.84 1812.47 Q2309.69 1812.47 2307.84 1814.62 Q2306.01 1816.77 2306.01 1820.52 Q2306.01 1824.25 2307.84 1826.43 Q2309.69 1828.58 2312.84 1828.58 Q2315.99 1828.58 2317.82 1826.43 Q2319.67 1824.25 2319.67 1820.52 Q2319.67 1816.77 2317.82 1814.62 Q2315.99 1812.47 2312.84 1812.47 M2322.12 1797.82 L2322.12 1802.07 Q2320.36 1801.24 2318.56 1800.8 Q2316.77 1800.36 2315.01 1800.36 Q2310.38 1800.36 2307.93 1803.49 Q2305.5 1806.61 2305.15 1812.93 Q2306.52 1810.92 2308.58 1809.85 Q2310.64 1808.76 2313.12 1808.76 Q2318.32 1808.76 2321.33 1811.94 Q2324.37 1815.08 2324.37 1820.52 Q2324.37 1825.85 2321.22 1829.07 Q2318.07 1832.28 2312.84 1832.28 Q2306.84 1832.28 2303.67 1827.7 Q2300.5 1823.09 2300.5 1814.37 Q2300.5 1806.17 2304.39 1801.31 Q2308.28 1796.43 2314.83 1796.43 Q2316.59 1796.43 2318.37 1796.77 Q2320.18 1797.12 2322.12 1797.82 Z" fill="#000000" fill-rule="evenodd" fill-opacity="1" /><path clip-path="url(#clip230)" d="M 0 0 M2342.42 1800.13 Q2338.81 1800.13 2336.98 1803.7 Q2335.18 1807.24 2335.18 1814.37 Q2335.18 1821.47 2336.98 1825.04 Q2338.81 1828.58 2342.42 1828.58 Q2346.06 1828.58 2347.86 1825.04 Q2349.69 1821.47 2349.69 1814.37 Q2349.69 1807.24 2347.86 1803.7 Q2346.06 1800.13 2342.42 1800.13 M2342.42 1796.43 Q2348.23 1796.43 2351.29 1801.03 Q2354.37 1805.62 2354.37 1814.37 Q2354.37 1823.09 2351.29 1827.7 Q2348.23 1832.28 2342.42 1832.28 Q2336.61 1832.28 2333.53 1827.7 Q2330.48 1823.09 2330.48 1814.37 Q2330.48 1805.62 2333.53 1801.03 Q2336.61 1796.43 2342.42 1796.43 Z" fill="#000000" fill-rule="evenodd" fill-opacity="1" /><path clip-path="url(#clip230)" d="M 0 0 M3059.2 1815.2 Q3055.87 1815.2 3053.95 1816.98 Q3052.05 1818.76 3052.05 1821.89 Q3052.05 1825.01 3053.95 1826.8 Q3055.87 1828.58 3059.2 1828.58 Q3062.54 1828.58 3064.46 1826.8 Q3066.38 1824.99 3066.38 1821.89 Q3066.38 1818.76 3064.46 1816.98 Q3062.56 1815.2 3059.2 1815.2 M3054.53 1813.21 Q3051.52 1812.47 3049.83 1810.41 Q3048.16 1808.35 3048.16 1805.39 Q3048.16 1801.24 3051.1 1798.83 Q3054.07 1796.43 3059.2 1796.43 Q3064.37 1796.43 3067.31 1798.83 Q3070.25 1801.24 3070.25 1805.39 Q3070.25 1808.35 3068.56 1810.41 Q3066.89 1812.47 3063.9 1813.21 Q3067.28 1814 3069.16 1816.29 Q3071.06 1818.58 3071.06 1821.89 Q3071.06 1826.91 3067.98 1829.6 Q3064.92 1832.28 3059.2 1832.28 Q3053.49 1832.28 3050.41 1829.6 Q3047.35 1826.91 3047.35 1821.89 Q3047.35 1818.58 3049.25 1816.29 Q3051.15 1814 3054.53 1813.21 M3052.82 1805.82 Q3052.82 1808.51 3054.48 1810.01 Q3056.17 1811.52 3059.2 1811.52 Q3062.21 1811.52 3063.9 1810.01 Q3065.62 1808.51 3065.62 1805.82 Q3065.62 1803.14 3063.9 1801.64 Q3062.21 1800.13 3059.2 1800.13 Q3056.17 1800.13 3054.48 1801.64 Q3052.82 1803.14 3052.82 1805.82 Z" fill="#000000" fill-rule="evenodd" fill-opacity="1" /><path clip-path="url(#clip230)" d="M 0 0 M3089.37 1800.13 Q3085.76 1800.13 3083.93 1803.7 Q3082.12 1807.24 3082.12 1814.37 Q3082.12 1821.47 3083.93 1825.04 Q3085.76 1828.58 3089.37 1828.58 Q3093 1828.58 3094.81 1825.04 Q3096.63 1821.47 3096.63 1814.37 Q3096.63 1807.24 3094.81 1803.7 Q3093 1800.13 3089.37 1800.13 M3089.37 1796.43 Q3095.18 1796.43 3098.23 1801.03 Q3101.31 1805.62 3101.31 1814.37 Q3101.31 1823.09 3098.23 1827.7 Q3095.18 1832.28 3089.37 1832.28 Q3083.56 1832.28 3080.48 1827.7 Q3077.42 1823.09 3077.42 1814.37 Q3077.42 1805.62 3080.48 1801.03 Q3083.56 1796.43 3089.37 1796.43 Z" fill="#000000" fill-rule="evenodd" fill-opacity="1" /><path clip-path="url(#clip230)" d="M 0 0 M1771.73 1934.96 L1766.99 1922.77 L1757.22 1940.59 L1750.31 1940.59 L1764.12 1915.39 L1758.33 1900.4 Q1756.77 1896.38 1751.87 1896.38 L1750.31 1896.38 L1750.31 1891.36 L1752.54 1891.42 Q1760.75 1891.64 1762.82 1896.96 L1767.53 1909.15 L1777.3 1891.32 L1784.21 1891.32 L1770.39 1916.53 L1776.19 1931.52 Q1777.75 1935.53 1782.65 1935.53 L1784.21 1935.53 L1784.21 1940.56 L1781.98 1940.5 Q1773.77 1940.28 1771.73 1934.96 Z" fill="#000000" fill-rule="evenodd" fill-opacity="1" /><polyline clip-path="url(#clip232)" style="stroke:#000000; stroke-width:2; stroke-opacity:0.1; fill:none" points="
  381.763,1510.4 3152.76,1510.4 
  "/>
<polyline clip-path="url(#clip232)" style="stroke:#000000; stroke-width:2; stroke-opacity:0.1; fill:none" points="
  381.763,1128.99 3152.76,1128.99 
  "/>
<polyline clip-path="url(#clip232)" style="stroke:#000000; stroke-width:2; stroke-opacity:0.1; fill:none" points="
  381.763,747.579 3152.76,747.579 
  "/>
<polyline clip-path="url(#clip232)" style="stroke:#000000; stroke-width:2; stroke-opacity:0.1; fill:none" points="
  381.763,366.168 3152.76,366.168 
  "/>
<polyline clip-path="url(#clip230)" style="stroke:#000000; stroke-width:4; stroke-opacity:1; fill:none" points="
  381.763,1758.14 381.763,153.712 
  "/>
<polyline clip-path="url(#clip230)" style="stroke:#000000; stroke-width:4; stroke-opacity:1; fill:none" points="
  381.763,1510.4 415.015,1510.4 
  "/>
<polyline clip-path="url(#clip230)" style="stroke:#000000; stroke-width:4; stroke-opacity:1; fill:none" points="
  381.763,1128.99 415.015,1128.99 
  "/>
<polyline clip-path="url(#clip230)" style="stroke:#000000; stroke-width:4; stroke-opacity:1; fill:none" points="
  381.763,747.579 415.015,747.579 
  "/>
<polyline clip-path="url(#clip230)" style="stroke:#000000; stroke-width:4; stroke-opacity:1; fill:none" points="
  381.763,366.168 415.015,366.168 
  "/>
<path clip-path="url(#clip230)" d="M 0 0 M95.1673 1510.85 L124.843 1510.85 L124.843 1514.79 L95.1673 1514.79 L95.1673 1510.85 Z" fill="#000000" fill-rule="evenodd" fill-opacity="1" /><path clip-path="url(#clip230)" d="M 0 0 M144.936 1496.2 Q141.324 1496.2 139.496 1499.77 Q137.69 1503.31 137.69 1510.44 Q137.69 1517.54 139.496 1521.11 Q141.324 1524.65 144.936 1524.65 Q148.57 1524.65 150.375 1521.11 Q152.204 1517.54 152.204 1510.44 Q152.204 1503.31 150.375 1499.77 Q148.57 1496.2 144.936 1496.2 M144.936 1492.5 Q150.746 1492.5 153.801 1497.1 Q156.88 1501.69 156.88 1510.44 Q156.88 1519.16 153.801 1523.77 Q150.746 1528.35 144.936 1528.35 Q139.125 1528.35 136.047 1523.77 Q132.991 1519.16 132.991 1510.44 Q132.991 1501.69 136.047 1497.1 Q139.125 1492.5 144.936 1492.5 Z" fill="#000000" fill-rule="evenodd" fill-opacity="1" /><path clip-path="url(#clip230)" d="M 0 0 M165.097 1521.8 L169.982 1521.8 L169.982 1527.68 L165.097 1527.68 L165.097 1521.8 Z" fill="#000000" fill-rule="evenodd" fill-opacity="1" /><path clip-path="url(#clip230)" d="M 0 0 M194.333 1509.05 Q197.69 1509.77 199.565 1512.03 Q201.463 1514.3 201.463 1517.64 Q201.463 1522.75 197.945 1525.55 Q194.426 1528.35 187.945 1528.35 Q185.769 1528.35 183.454 1527.91 Q181.162 1527.5 178.709 1526.64 L178.709 1522.13 Q180.653 1523.26 182.968 1523.84 Q185.283 1524.42 187.806 1524.42 Q192.204 1524.42 194.495 1522.68 Q196.81 1520.95 196.81 1517.64 Q196.81 1514.58 194.657 1512.87 Q192.528 1511.13 188.708 1511.13 L184.681 1511.13 L184.681 1507.29 L188.894 1507.29 Q192.343 1507.29 194.171 1505.92 Q196 1504.53 196 1501.94 Q196 1499.28 194.102 1497.87 Q192.227 1496.43 188.708 1496.43 Q186.787 1496.43 184.588 1496.85 Q182.389 1497.27 179.75 1498.15 L179.75 1493.98 Q182.412 1493.24 184.727 1492.87 Q187.065 1492.5 189.125 1492.5 Q194.449 1492.5 197.551 1494.93 Q200.653 1497.34 200.653 1501.46 Q200.653 1504.33 199.009 1506.32 Q197.366 1508.28 194.333 1509.05 Z" fill="#000000" fill-rule="evenodd" fill-opacity="1" /><path clip-path="url(#clip230)" d="M 0 0 M210.468 1526.96 L210.468 1522.71 Q212.227 1523.54 214.032 1523.98 Q215.838 1524.42 217.574 1524.42 Q222.204 1524.42 224.634 1521.32 Q227.088 1518.19 227.435 1511.85 Q226.093 1513.84 224.032 1514.9 Q221.972 1515.97 219.472 1515.97 Q214.287 1515.97 211.255 1512.84 Q208.245 1509.7 208.245 1504.26 Q208.245 1498.93 211.394 1495.72 Q214.542 1492.5 219.773 1492.5 Q225.768 1492.5 228.917 1497.1 Q232.088 1501.69 232.088 1510.44 Q232.088 1518.61 228.199 1523.49 Q224.333 1528.35 217.782 1528.35 Q216.023 1528.35 214.218 1528.01 Q212.412 1527.66 210.468 1526.96 M219.773 1512.31 Q222.921 1512.31 224.75 1510.16 Q226.602 1508.01 226.602 1504.26 Q226.602 1500.53 224.75 1498.38 Q222.921 1496.2 219.773 1496.2 Q216.625 1496.2 214.773 1498.38 Q212.944 1500.53 212.944 1504.26 Q212.944 1508.01 214.773 1510.16 Q216.625 1512.31 219.773 1512.31 Z" fill="#000000" fill-rule="evenodd" fill-opacity="1" /><path clip-path="url(#clip230)" d="M 0 0 M254.657 1509.05 Q258.014 1509.77 259.889 1512.03 Q261.787 1514.3 261.787 1517.64 Q261.787 1522.75 258.268 1525.55 Q254.75 1528.35 248.268 1528.35 Q246.092 1528.35 243.778 1527.91 Q241.486 1527.5 239.032 1526.64 L239.032 1522.13 Q240.977 1523.26 243.291 1523.84 Q245.606 1524.42 248.129 1524.42 Q252.528 1524.42 254.819 1522.68 Q257.134 1520.95 257.134 1517.64 Q257.134 1514.58 254.981 1512.87 Q252.852 1511.13 249.032 1511.13 L245.004 1511.13 L245.004 1507.29 L249.217 1507.29 Q252.666 1507.29 254.495 1505.92 Q256.324 1504.53 256.324 1501.94 Q256.324 1499.28 254.426 1497.87 Q252.551 1496.43 249.032 1496.43 Q247.111 1496.43 244.912 1496.85 Q242.713 1497.27 240.074 1498.15 L240.074 1493.98 Q242.736 1493.24 245.051 1492.87 Q247.389 1492.5 249.449 1492.5 Q254.773 1492.5 257.875 1494.93 Q260.977 1497.34 260.977 1501.46 Q260.977 1504.33 259.333 1506.32 Q257.69 1508.28 254.657 1509.05 Z" fill="#000000" fill-rule="evenodd" fill-opacity="1" /><path clip-path="url(#clip230)" d="M 0 0 M274.68 1523.75 L291 1523.75 L291 1527.68 L269.055 1527.68 L269.055 1523.75 Q271.717 1520.99 276.301 1516.36 Q280.907 1511.71 282.088 1510.37 Q284.333 1507.84 285.213 1506.11 Q286.115 1504.35 286.115 1502.66 Q286.115 1499.9 284.171 1498.17 Q282.25 1496.43 279.148 1496.43 Q276.949 1496.43 274.495 1497.2 Q272.064 1497.96 269.287 1499.51 L269.287 1494.79 Q272.111 1493.65 274.564 1493.08 Q277.018 1492.5 279.055 1492.5 Q284.426 1492.5 287.62 1495.18 Q290.814 1497.87 290.814 1502.36 Q290.814 1504.49 290.004 1506.41 Q289.217 1508.31 287.111 1510.9 Q286.532 1511.57 283.43 1514.79 Q280.328 1517.98 274.68 1523.75 Z" fill="#000000" fill-rule="evenodd" fill-opacity="1" /><path clip-path="url(#clip230)" d="M 0 0 M300.861 1493.12 L319.217 1493.12 L319.217 1497.06 L305.143 1497.06 L305.143 1505.53 Q306.162 1505.18 307.18 1505.02 Q308.199 1504.84 309.217 1504.84 Q315.004 1504.84 318.384 1508.01 Q321.763 1511.18 321.763 1516.59 Q321.763 1522.17 318.291 1525.28 Q314.819 1528.35 308.499 1528.35 Q306.324 1528.35 304.055 1527.98 Q301.81 1527.61 299.402 1526.87 L299.402 1522.17 Q301.486 1523.31 303.708 1523.86 Q305.93 1524.42 308.407 1524.42 Q312.411 1524.42 314.749 1522.31 Q317.087 1520.21 317.087 1516.59 Q317.087 1512.98 314.749 1510.88 Q312.411 1508.77 308.407 1508.77 Q306.532 1508.77 304.657 1509.19 Q302.805 1509.6 300.861 1510.48 L300.861 1493.12 Z" fill="#000000" fill-rule="evenodd" fill-opacity="1" /><path clip-path="url(#clip230)" d="M 0 0 M94.1719 1129.44 L123.848 1129.44 L123.848 1133.38 L94.1719 1133.38 L94.1719 1129.44 Z" fill="#000000" fill-rule="evenodd" fill-opacity="1" /><path clip-path="url(#clip230)" d="M 0 0 M143.94 1114.79 Q140.329 1114.79 138.5 1118.35 Q136.695 1121.9 136.695 1129.03 Q136.695 1136.13 138.5 1139.7 Q140.329 1143.24 143.94 1143.24 Q147.574 1143.24 149.38 1139.7 Q151.209 1136.13 151.209 1129.03 Q151.209 1121.9 149.38 1118.35 Q147.574 1114.79 143.94 1114.79 M143.94 1111.09 Q149.75 1111.09 152.806 1115.69 Q155.885 1120.28 155.885 1129.03 Q155.885 1137.75 152.806 1142.36 Q149.75 1146.94 143.94 1146.94 Q138.13 1146.94 135.051 1142.36 Q131.996 1137.75 131.996 1129.03 Q131.996 1120.28 135.051 1115.69 Q138.13 1111.09 143.94 1111.09 Z" fill="#000000" fill-rule="evenodd" fill-opacity="1" /><path clip-path="url(#clip230)" d="M 0 0 M164.102 1140.39 L168.986 1140.39 L168.986 1146.27 L164.102 1146.27 L164.102 1140.39 Z" fill="#000000" fill-rule="evenodd" fill-opacity="1" /><path clip-path="url(#clip230)" d="M 0 0 M193.338 1127.64 Q196.695 1128.35 198.57 1130.62 Q200.468 1132.89 200.468 1136.22 Q200.468 1141.34 196.949 1144.14 Q193.431 1146.94 186.949 1146.94 Q184.773 1146.94 182.458 1146.5 Q180.167 1146.09 177.713 1145.23 L177.713 1140.72 Q179.658 1141.85 181.972 1142.43 Q184.287 1143.01 186.81 1143.01 Q191.208 1143.01 193.5 1141.27 Q195.815 1139.53 195.815 1136.22 Q195.815 1133.17 193.662 1131.46 Q191.533 1129.72 187.713 1129.72 L183.685 1129.72 L183.685 1125.88 L187.898 1125.88 Q191.347 1125.88 193.176 1124.51 Q195.005 1123.12 195.005 1120.53 Q195.005 1117.87 193.107 1116.46 Q191.232 1115.02 187.713 1115.02 Q185.792 1115.02 183.593 1115.44 Q181.394 1115.85 178.755 1116.73 L178.755 1112.57 Q181.417 1111.83 183.732 1111.46 Q186.07 1111.09 188.13 1111.09 Q193.454 1111.09 196.556 1113.52 Q199.657 1115.92 199.657 1120.04 Q199.657 1122.91 198.014 1124.91 Q196.37 1126.87 193.338 1127.64 Z" fill="#000000" fill-rule="evenodd" fill-opacity="1" /><path clip-path="url(#clip230)" d="M 0 0 M209.472 1145.55 L209.472 1141.29 Q211.231 1142.13 213.037 1142.57 Q214.843 1143.01 216.579 1143.01 Q221.208 1143.01 223.639 1139.91 Q226.093 1136.78 226.44 1130.44 Q225.097 1132.43 223.037 1133.49 Q220.977 1134.56 218.477 1134.56 Q213.292 1134.56 210.259 1131.43 Q207.25 1128.28 207.25 1122.85 Q207.25 1117.52 210.398 1114.3 Q213.546 1111.09 218.778 1111.09 Q224.773 1111.09 227.921 1115.69 Q231.092 1120.28 231.092 1129.03 Q231.092 1137.2 227.204 1142.08 Q223.338 1146.94 216.787 1146.94 Q215.028 1146.94 213.222 1146.59 Q211.417 1146.25 209.472 1145.55 M218.778 1130.9 Q221.926 1130.9 223.755 1128.75 Q225.606 1126.6 225.606 1122.85 Q225.606 1119.12 223.755 1116.97 Q221.926 1114.79 218.778 1114.79 Q215.63 1114.79 213.778 1116.97 Q211.949 1119.12 211.949 1122.85 Q211.949 1126.6 213.778 1128.75 Q215.63 1130.9 218.778 1130.9 Z" fill="#000000" fill-rule="evenodd" fill-opacity="1" /><path clip-path="url(#clip230)" d="M 0 0 M253.662 1127.64 Q257.018 1128.35 258.893 1130.62 Q260.791 1132.89 260.791 1136.22 Q260.791 1141.34 257.273 1144.14 Q253.754 1146.94 247.273 1146.94 Q245.097 1146.94 242.782 1146.5 Q240.491 1146.09 238.037 1145.23 L238.037 1140.72 Q239.981 1141.85 242.296 1142.43 Q244.611 1143.01 247.134 1143.01 Q251.532 1143.01 253.824 1141.27 Q256.139 1139.53 256.139 1136.22 Q256.139 1133.17 253.986 1131.46 Q251.856 1129.72 248.037 1129.72 L244.009 1129.72 L244.009 1125.88 L248.222 1125.88 Q251.671 1125.88 253.5 1124.51 Q255.328 1123.12 255.328 1120.53 Q255.328 1117.87 253.43 1116.46 Q251.555 1115.02 248.037 1115.02 Q246.116 1115.02 243.916 1115.44 Q241.717 1115.85 239.079 1116.73 L239.079 1112.57 Q241.741 1111.83 244.055 1111.46 Q246.393 1111.09 248.454 1111.09 Q253.778 1111.09 256.879 1113.52 Q259.981 1115.92 259.981 1120.04 Q259.981 1122.91 258.338 1124.91 Q256.694 1126.87 253.662 1127.64 Z" fill="#000000" fill-rule="evenodd" fill-opacity="1" /><path clip-path="url(#clip230)" d="M 0 0 M279.657 1114.79 Q276.046 1114.79 274.217 1118.35 Q272.412 1121.9 272.412 1129.03 Q272.412 1136.13 274.217 1139.7 Q276.046 1143.24 279.657 1143.24 Q283.291 1143.24 285.097 1139.7 Q286.926 1136.13 286.926 1129.03 Q286.926 1121.9 285.097 1118.35 Q283.291 1114.79 279.657 1114.79 M279.657 1111.09 Q285.467 1111.09 288.523 1115.69 Q291.601 1120.28 291.601 1129.03 Q291.601 1137.75 288.523 1142.36 Q285.467 1146.94 279.657 1146.94 Q273.847 1146.94 270.768 1142.36 Q267.713 1137.75 267.713 1129.03 Q267.713 1120.28 270.768 1115.69 Q273.847 1111.09 279.657 1111.09 Z" fill="#000000" fill-rule="evenodd" fill-opacity="1" /><path clip-path="url(#clip230)" d="M 0 0 M309.819 1114.79 Q306.208 1114.79 304.379 1118.35 Q302.574 1121.9 302.574 1129.03 Q302.574 1136.13 304.379 1139.7 Q306.208 1143.24 309.819 1143.24 Q313.453 1143.24 315.259 1139.7 Q317.087 1136.13 317.087 1129.03 Q317.087 1121.9 315.259 1118.35 Q313.453 1114.79 309.819 1114.79 M309.819 1111.09 Q315.629 1111.09 318.685 1115.69 Q321.763 1120.28 321.763 1129.03 Q321.763 1137.75 318.685 1142.36 Q315.629 1146.94 309.819 1146.94 Q304.009 1146.94 300.93 1142.36 Q297.875 1137.75 297.875 1129.03 Q297.875 1120.28 300.93 1115.69 Q304.009 1111.09 309.819 1111.09 Z" fill="#000000" fill-rule="evenodd" fill-opacity="1" /><path clip-path="url(#clip230)" d="M 0 0 M95.1673 748.031 L124.843 748.031 L124.843 751.966 L95.1673 751.966 L95.1673 748.031 Z" fill="#000000" fill-rule="evenodd" fill-opacity="1" /><path clip-path="url(#clip230)" d="M 0 0 M144.936 733.378 Q141.324 733.378 139.496 736.943 Q137.69 740.485 137.69 747.614 Q137.69 754.721 139.496 758.285 Q141.324 761.827 144.936 761.827 Q148.57 761.827 150.375 758.285 Q152.204 754.721 152.204 747.614 Q152.204 740.485 150.375 736.943 Q148.57 733.378 144.936 733.378 M144.936 729.674 Q150.746 729.674 153.801 734.281 Q156.88 738.864 156.88 747.614 Q156.88 756.341 153.801 760.947 Q150.746 765.531 144.936 765.531 Q139.125 765.531 136.047 760.947 Q132.991 756.341 132.991 747.614 Q132.991 738.864 136.047 734.281 Q139.125 729.674 144.936 729.674 Z" fill="#000000" fill-rule="evenodd" fill-opacity="1" /><path clip-path="url(#clip230)" d="M 0 0 M165.097 758.98 L169.982 758.98 L169.982 764.859 L165.097 764.859 L165.097 758.98 Z" fill="#000000" fill-rule="evenodd" fill-opacity="1" /><path clip-path="url(#clip230)" d="M 0 0 M194.333 746.225 Q197.69 746.943 199.565 749.211 Q201.463 751.48 201.463 754.813 Q201.463 759.929 197.945 762.73 Q194.426 765.531 187.945 765.531 Q185.769 765.531 183.454 765.091 Q181.162 764.674 178.709 763.818 L178.709 759.304 Q180.653 760.438 182.968 761.017 Q185.283 761.596 187.806 761.596 Q192.204 761.596 194.495 759.859 Q196.81 758.123 196.81 754.813 Q196.81 751.758 194.657 750.045 Q192.528 748.309 188.708 748.309 L184.681 748.309 L184.681 744.466 L188.894 744.466 Q192.343 744.466 194.171 743.1 Q196 741.711 196 739.119 Q196 736.457 194.102 735.045 Q192.227 733.61 188.708 733.61 Q186.787 733.61 184.588 734.026 Q182.389 734.443 179.75 735.322 L179.75 731.156 Q182.412 730.415 184.727 730.045 Q187.065 729.674 189.125 729.674 Q194.449 729.674 197.551 732.105 Q200.653 734.512 200.653 738.633 Q200.653 741.503 199.009 743.494 Q197.366 745.461 194.333 746.225 Z" fill="#000000" fill-rule="evenodd" fill-opacity="1" /><path clip-path="url(#clip230)" d="M 0 0 M210.468 764.142 L210.468 759.883 Q212.227 760.716 214.032 761.156 Q215.838 761.596 217.574 761.596 Q222.204 761.596 224.634 758.494 Q227.088 755.369 227.435 749.026 Q226.093 751.017 224.032 752.082 Q221.972 753.146 219.472 753.146 Q214.287 753.146 211.255 750.021 Q208.245 746.873 208.245 741.434 Q208.245 736.11 211.394 732.892 Q214.542 729.674 219.773 729.674 Q225.768 729.674 228.917 734.281 Q232.088 738.864 232.088 747.614 Q232.088 755.785 228.199 760.67 Q224.333 765.531 217.782 765.531 Q216.023 765.531 214.218 765.183 Q212.412 764.836 210.468 764.142 M219.773 749.489 Q222.921 749.489 224.75 747.336 Q226.602 745.184 226.602 741.434 Q226.602 737.707 224.75 735.554 Q222.921 733.378 219.773 733.378 Q216.625 733.378 214.773 735.554 Q212.944 737.707 212.944 741.434 Q212.944 745.184 214.773 747.336 Q216.625 749.489 219.773 749.489 Z" fill="#000000" fill-rule="evenodd" fill-opacity="1" /><path clip-path="url(#clip230)" d="M 0 0 M244.518 760.924 L260.838 760.924 L260.838 764.859 L238.893 764.859 L238.893 760.924 Q241.555 758.17 246.139 753.54 Q250.745 748.887 251.926 747.545 Q254.171 745.022 255.051 743.285 Q255.953 741.526 255.953 739.836 Q255.953 737.082 254.009 735.346 Q252.088 733.61 248.986 733.61 Q246.787 733.61 244.333 734.373 Q241.903 735.137 239.125 736.688 L239.125 731.966 Q241.949 730.832 244.403 730.253 Q246.856 729.674 248.893 729.674 Q254.264 729.674 257.458 732.36 Q260.653 735.045 260.653 739.535 Q260.653 741.665 259.842 743.586 Q259.055 745.484 256.949 748.077 Q256.37 748.748 253.268 751.966 Q250.166 755.16 244.518 760.924 Z" fill="#000000" fill-rule="evenodd" fill-opacity="1" /><path clip-path="url(#clip230)" d="M 0 0 M269.472 730.299 L291.694 730.299 L291.694 732.29 L279.148 764.859 L274.264 764.859 L286.069 734.235 L269.472 734.235 L269.472 730.299 Z" fill="#000000" fill-rule="evenodd" fill-opacity="1" /><path clip-path="url(#clip230)" d="M 0 0 M300.861 730.299 L319.217 730.299 L319.217 734.235 L305.143 734.235 L305.143 742.707 Q306.162 742.359 307.18 742.197 Q308.199 742.012 309.217 742.012 Q315.004 742.012 318.384 745.184 Q321.763 748.355 321.763 753.771 Q321.763 759.35 318.291 762.452 Q314.819 765.531 308.499 765.531 Q306.324 765.531 304.055 765.16 Q301.81 764.79 299.402 764.049 L299.402 759.35 Q301.486 760.484 303.708 761.04 Q305.93 761.596 308.407 761.596 Q312.411 761.596 314.749 759.489 Q317.087 757.383 317.087 753.771 Q317.087 750.16 314.749 748.054 Q312.411 745.947 308.407 745.947 Q306.532 745.947 304.657 746.364 Q302.805 746.781 300.861 747.66 L300.861 730.299 Z" fill="#000000" fill-rule="evenodd" fill-opacity="1" /><path clip-path="url(#clip230)" d="M 0 0 M94.1719 366.619 L123.848 366.619 L123.848 370.554 L94.1719 370.554 L94.1719 366.619 Z" fill="#000000" fill-rule="evenodd" fill-opacity="1" /><path clip-path="url(#clip230)" d="M 0 0 M143.94 351.967 Q140.329 351.967 138.5 355.531 Q136.695 359.073 136.695 366.203 Q136.695 373.309 138.5 376.874 Q140.329 380.415 143.94 380.415 Q147.574 380.415 149.38 376.874 Q151.209 373.309 151.209 366.203 Q151.209 359.073 149.38 355.531 Q147.574 351.967 143.94 351.967 M143.94 348.263 Q149.75 348.263 152.806 352.869 Q155.885 357.453 155.885 366.203 Q155.885 374.929 152.806 379.536 Q149.75 384.119 143.94 384.119 Q138.13 384.119 135.051 379.536 Q131.996 374.929 131.996 366.203 Q131.996 357.453 135.051 352.869 Q138.13 348.263 143.94 348.263 Z" fill="#000000" fill-rule="evenodd" fill-opacity="1" /><path clip-path="url(#clip230)" d="M 0 0 M164.102 377.568 L168.986 377.568 L168.986 383.448 L164.102 383.448 L164.102 377.568 Z" fill="#000000" fill-rule="evenodd" fill-opacity="1" /><path clip-path="url(#clip230)" d="M 0 0 M193.338 364.814 Q196.695 365.531 198.57 367.8 Q200.468 370.068 200.468 373.402 Q200.468 378.517 196.949 381.318 Q193.431 384.119 186.949 384.119 Q184.773 384.119 182.458 383.679 Q180.167 383.263 177.713 382.406 L177.713 377.892 Q179.658 379.027 181.972 379.605 Q184.287 380.184 186.81 380.184 Q191.208 380.184 193.5 378.448 Q195.815 376.712 195.815 373.402 Q195.815 370.346 193.662 368.633 Q191.533 366.897 187.713 366.897 L183.685 366.897 L183.685 363.054 L187.898 363.054 Q191.347 363.054 193.176 361.689 Q195.005 360.3 195.005 357.707 Q195.005 355.045 193.107 353.633 Q191.232 352.198 187.713 352.198 Q185.792 352.198 183.593 352.615 Q181.394 353.031 178.755 353.911 L178.755 349.744 Q181.417 349.004 183.732 348.633 Q186.07 348.263 188.13 348.263 Q193.454 348.263 196.556 350.693 Q199.657 353.101 199.657 357.221 Q199.657 360.091 198.014 362.082 Q196.37 364.05 193.338 364.814 Z" fill="#000000" fill-rule="evenodd" fill-opacity="1" /><path clip-path="url(#clip230)" d="M 0 0 M209.472 382.73 L209.472 378.471 Q211.231 379.304 213.037 379.744 Q214.843 380.184 216.579 380.184 Q221.208 380.184 223.639 377.082 Q226.093 373.957 226.44 367.615 Q225.097 369.605 223.037 370.67 Q220.977 371.735 218.477 371.735 Q213.292 371.735 210.259 368.61 Q207.25 365.462 207.25 360.022 Q207.25 354.698 210.398 351.48 Q213.546 348.263 218.778 348.263 Q224.773 348.263 227.921 352.869 Q231.092 357.453 231.092 366.203 Q231.092 374.374 227.204 379.258 Q223.338 384.119 216.787 384.119 Q215.028 384.119 213.222 383.772 Q211.417 383.425 209.472 382.73 M218.778 368.078 Q221.926 368.078 223.755 365.925 Q225.606 363.772 225.606 360.022 Q225.606 356.295 223.755 354.142 Q221.926 351.967 218.778 351.967 Q215.63 351.967 213.778 354.142 Q211.949 356.295 211.949 360.022 Q211.949 363.772 213.778 365.925 Q215.63 368.078 218.778 368.078 Z" fill="#000000" fill-rule="evenodd" fill-opacity="1" /><path clip-path="url(#clip230)" d="M 0 0 M243.523 379.513 L259.842 379.513 L259.842 383.448 L237.898 383.448 L237.898 379.513 Q240.56 376.758 245.143 372.128 Q249.75 367.476 250.93 366.133 Q253.176 363.61 254.055 361.874 Q254.958 360.115 254.958 358.425 Q254.958 355.67 253.014 353.934 Q251.092 352.198 247.991 352.198 Q245.791 352.198 243.338 352.962 Q240.907 353.726 238.129 355.277 L238.129 350.554 Q240.954 349.42 243.407 348.842 Q245.861 348.263 247.898 348.263 Q253.268 348.263 256.463 350.948 Q259.657 353.633 259.657 358.124 Q259.657 360.254 258.847 362.175 Q258.06 364.073 255.953 366.666 Q255.375 367.337 252.273 370.554 Q249.171 373.749 243.523 379.513 Z" fill="#000000" fill-rule="evenodd" fill-opacity="1" /><path clip-path="url(#clip230)" d="M 0 0 M269.703 348.888 L288.06 348.888 L288.06 352.823 L273.986 352.823 L273.986 361.295 Q275.004 360.948 276.023 360.786 Q277.041 360.601 278.06 360.601 Q283.847 360.601 287.226 363.772 Q290.606 366.943 290.606 372.36 Q290.606 377.939 287.134 381.04 Q283.662 384.119 277.342 384.119 Q275.166 384.119 272.898 383.749 Q270.652 383.378 268.245 382.638 L268.245 377.939 Q270.328 379.073 272.551 379.628 Q274.773 380.184 277.25 380.184 Q281.254 380.184 283.592 378.077 Q285.93 375.971 285.93 372.36 Q285.93 368.749 283.592 366.642 Q281.254 364.536 277.25 364.536 Q275.375 364.536 273.5 364.953 Q271.648 365.369 269.703 366.249 L269.703 348.888 Z" fill="#000000" fill-rule="evenodd" fill-opacity="1" /><path clip-path="url(#clip230)" d="M 0 0 M309.819 351.967 Q306.208 351.967 304.379 355.531 Q302.574 359.073 302.574 366.203 Q302.574 373.309 304.379 376.874 Q306.208 380.415 309.819 380.415 Q313.453 380.415 315.259 376.874 Q317.087 373.309 317.087 366.203 Q317.087 359.073 315.259 355.531 Q313.453 351.967 309.819 351.967 M309.819 348.263 Q315.629 348.263 318.685 352.869 Q321.763 357.453 321.763 366.203 Q321.763 374.929 318.685 379.536 Q315.629 384.119 309.819 384.119 Q304.009 384.119 300.93 379.536 Q297.875 374.929 297.875 366.203 Q297.875 357.453 300.93 352.869 Q304.009 348.263 309.819 348.263 Z" fill="#000000" fill-rule="evenodd" fill-opacity="1" /><path clip-path="url(#clip230)" d="M 0 0 M-27.6041 971.236 L-27.6041 941.189 L-22.1932 941.189 L-22.1932 964.806 L-8.12501 964.806 L-8.12501 942.176 L-2.71416 942.176 L-2.71416 964.806 L14.5051 964.806 L14.5051 940.616 L19.9159 940.616 L19.9159 971.236 L-27.6041 971.236 Z" fill="#000000" fill-rule="evenodd" fill-opacity="1" /><path clip-path="url(#clip230)" d="M 0 0 M1668.3 48.0275 L1668.3 51.6733 L1634.03 51.6733 Q1634.51 59.3701 1638.64 63.421 Q1642.82 67.4314 1650.23 67.4314 Q1654.52 67.4314 1658.53 66.3781 Q1662.58 65.3249 1666.55 63.2184 L1666.55 70.267 Q1662.54 71.9684 1658.33 72.8596 Q1654.12 73.7508 1649.78 73.7508 Q1638.93 73.7508 1632.57 67.4314 Q1626.25 61.1119 1626.25 50.3365 Q1626.25 39.1965 1632.24 32.6746 Q1638.28 26.1121 1648.49 26.1121 Q1657.64 26.1121 1662.95 32.0264 Q1668.3 37.9003 1668.3 48.0275 M1660.84 45.84 Q1660.76 39.7232 1657.4 36.0774 Q1654.08 32.4315 1648.57 32.4315 Q1642.33 32.4315 1638.56 35.9558 Q1634.84 39.4801 1634.27 45.8805 L1660.84 45.84 Z" fill="#000000" fill-rule="evenodd" fill-opacity="1" /><path clip-path="url(#clip230)" d="M 0 0 M1718.24 45.1919 L1718.24 72.576 L1710.79 72.576 L1710.79 45.4349 Q1710.79 38.994 1708.28 35.7938 Q1705.77 32.5936 1700.74 32.5936 Q1694.71 32.5936 1691.22 36.4419 Q1687.74 40.2903 1687.74 46.9338 L1687.74 72.576 L1680.25 72.576 L1680.25 27.2059 L1687.74 27.2059 L1687.74 34.2544 Q1690.41 30.163 1694.02 28.1376 Q1697.67 26.1121 1702.4 26.1121 Q1710.22 26.1121 1714.23 30.9732 Q1718.24 35.7938 1718.24 45.1919 Z" fill="#000000" fill-rule="evenodd" fill-opacity="1" /><path clip-path="url(#clip230)" d="M 0 0 M1771.92 48.0275 L1771.92 51.6733 L1737.65 51.6733 Q1738.13 59.3701 1742.27 63.421 Q1746.44 67.4314 1753.85 67.4314 Q1758.15 67.4314 1762.16 66.3781 Q1766.21 65.3249 1770.18 63.2184 L1770.18 70.267 Q1766.17 71.9684 1761.95 72.8596 Q1757.74 73.7508 1753.41 73.7508 Q1742.55 73.7508 1736.19 67.4314 Q1729.87 61.1119 1729.87 50.3365 Q1729.87 39.1965 1735.87 32.6746 Q1741.9 26.1121 1752.11 26.1121 Q1761.26 26.1121 1766.57 32.0264 Q1771.92 37.9003 1771.92 48.0275 M1764.46 45.84 Q1764.38 39.7232 1761.02 36.0774 Q1757.7 32.4315 1752.19 32.4315 Q1745.95 32.4315 1742.18 35.9558 Q1738.46 39.4801 1737.89 45.8805 L1764.46 45.84 Z" fill="#000000" fill-rule="evenodd" fill-opacity="1" /><path clip-path="url(#clip230)" d="M 0 0 M1810.44 34.1734 Q1809.19 33.4443 1807.69 33.1202 Q1806.23 32.7556 1804.45 32.7556 Q1798.13 32.7556 1794.72 36.8875 Q1791.36 40.9789 1791.36 48.6757 L1791.36 72.576 L1783.87 72.576 L1783.87 27.2059 L1791.36 27.2059 L1791.36 34.2544 Q1793.71 30.1225 1797.48 28.1376 Q1801.25 26.1121 1806.63 26.1121 Q1807.4 26.1121 1808.34 26.2337 Q1809.27 26.3147 1810.4 26.5172 L1810.44 34.1734 Z" fill="#000000" fill-rule="evenodd" fill-opacity="1" /><path clip-path="url(#clip230)" d="M 0 0 M1846.66 49.3643 Q1846.66 41.2625 1843.3 36.8065 Q1839.97 32.3505 1833.94 32.3505 Q1827.94 32.3505 1824.58 36.8065 Q1821.26 41.2625 1821.26 49.3643 Q1821.26 57.4256 1824.58 61.8816 Q1827.94 66.3376 1833.94 66.3376 Q1839.97 66.3376 1843.3 61.8816 Q1846.66 57.4256 1846.66 49.3643 M1854.11 66.9452 Q1854.11 78.5308 1848.97 84.1616 Q1843.82 89.8329 1833.21 89.8329 Q1829.28 89.8329 1825.8 89.2252 Q1822.31 88.6581 1819.03 87.4428 L1819.03 80.1917 Q1822.31 81.9741 1825.51 82.8248 Q1828.71 83.6755 1832.03 83.6755 Q1839.37 83.6755 1843.01 79.8271 Q1846.66 76.0193 1846.66 68.282 L1846.66 64.5957 Q1844.35 68.6061 1840.74 70.5911 Q1837.14 72.576 1832.11 72.576 Q1823.77 72.576 1818.67 66.2161 Q1813.56 59.8562 1813.56 49.3643 Q1813.56 38.832 1818.67 32.472 Q1823.77 26.1121 1832.11 26.1121 Q1837.14 26.1121 1840.74 28.0971 Q1844.35 30.082 1846.66 34.0924 L1846.66 27.2059 L1854.11 27.2059 L1854.11 66.9452 Z" fill="#000000" fill-rule="evenodd" fill-opacity="1" /><path clip-path="url(#clip230)" d="M 0 0 M1888.34 76.7889 Q1885.18 84.8907 1882.18 87.3618 Q1879.19 89.8329 1874.16 89.8329 L1868.21 89.8329 L1868.21 83.5945 L1872.58 83.5945 Q1875.66 83.5945 1877.36 82.1361 Q1879.06 80.6778 1881.13 75.2496 L1882.47 71.8468 L1864.12 27.2059 L1872.02 27.2059 L1886.19 62.6918 L1900.37 27.2059 L1908.27 27.2059 L1888.34 76.7889 Z" fill="#000000" fill-rule="evenodd" fill-opacity="1" /><polyline clip-path="url(#clip232)" style="stroke:#009af9; stroke-width:12; stroke-opacity:1; fill:none" points="
  460.188,1712.73 646.912,1266.01 833.637,579.587 1020.36,469.036 1207.09,374.795 1393.81,294.34 1580.54,246.859 1767.26,256.206 1953.98,230.726 2140.71,210.275 
  2327.43,229.101 2514.16,216.603 2700.88,200.618 2887.61,202.817 3074.33,199.12 
  "/>
<path clip-path="url(#clip230)" d="
M2591.34 1704.66 L3060.39 1704.66 L3060.39 1583.7 L2591.34 1583.7  Z
  " fill="#ffffff" fill-rule="evenodd" fill-opacity="1"/>
<polyline clip-path="url(#clip230)" style="stroke:#000000; stroke-width:4; stroke-opacity:1; fill:none" points="
  2591.34,1704.66 3060.39,1704.66 3060.39,1583.7 2591.34,1583.7 2591.34,1704.66 
  "/>
<polyline clip-path="url(#clip230)" style="stroke:#009af9; stroke-width:4; stroke-opacity:1; fill:none" points="
  2622.13,1644.18 2806.87,1644.18 
  "/>
<path clip-path="url(#clip230)" d="M 0 0 M2861.68 1647.43 L2861.68 1649.51 L2842.1 1649.51 Q2842.38 1653.91 2844.74 1656.23 Q2847.12 1658.52 2851.36 1658.52 Q2853.81 1658.52 2856.1 1657.92 Q2858.42 1657.32 2860.69 1656.11 L2860.69 1660.14 Q2858.4 1661.11 2855.99 1661.62 Q2853.58 1662.13 2851.1 1662.13 Q2844.9 1662.13 2841.27 1658.52 Q2837.66 1654.91 2837.66 1648.75 Q2837.66 1642.38 2841.08 1638.66 Q2844.53 1634.91 2850.36 1634.91 Q2855.6 1634.91 2858.63 1638.29 Q2861.68 1641.64 2861.68 1647.43 M2857.42 1646.18 Q2857.38 1642.69 2855.46 1640.6 Q2853.56 1638.52 2850.41 1638.52 Q2846.85 1638.52 2844.69 1640.53 Q2842.56 1642.55 2842.24 1646.2 L2857.42 1646.18 Z" fill="#000000" fill-rule="evenodd" fill-opacity="1" /><path clip-path="url(#clip230)" d="M 0 0 M2890.22 1645.81 L2890.22 1661.46 L2885.97 1661.46 L2885.97 1645.95 Q2885.97 1642.27 2884.53 1640.44 Q2883.09 1638.61 2880.22 1638.61 Q2876.78 1638.61 2874.78 1640.81 Q2872.79 1643.01 2872.79 1646.81 L2872.79 1661.46 L2868.51 1661.46 L2868.51 1635.53 L2872.79 1635.53 L2872.79 1639.56 Q2874.32 1637.22 2876.38 1636.07 Q2878.47 1634.91 2881.17 1634.91 Q2885.64 1634.91 2887.93 1637.69 Q2890.22 1640.44 2890.22 1645.81 Z" fill="#000000" fill-rule="evenodd" fill-opacity="1" /><path clip-path="url(#clip230)" d="M 0 0 M2920.9 1647.43 L2920.9 1649.51 L2901.31 1649.51 Q2901.59 1653.91 2903.95 1656.23 Q2906.34 1658.52 2910.57 1658.52 Q2913.03 1658.52 2915.32 1657.92 Q2917.63 1657.32 2919.9 1656.11 L2919.9 1660.14 Q2917.61 1661.11 2915.2 1661.62 Q2912.79 1662.13 2910.32 1662.13 Q2904.11 1662.13 2900.48 1658.52 Q2896.87 1654.91 2896.87 1648.75 Q2896.87 1642.38 2900.29 1638.66 Q2903.74 1634.91 2909.58 1634.91 Q2914.81 1634.91 2917.84 1638.29 Q2920.9 1641.64 2920.9 1647.43 M2916.64 1646.18 Q2916.59 1642.69 2914.67 1640.6 Q2912.77 1638.52 2909.62 1638.52 Q2906.06 1638.52 2903.9 1640.53 Q2901.78 1642.55 2901.45 1646.2 L2916.64 1646.18 Z" fill="#000000" fill-rule="evenodd" fill-opacity="1" /><path clip-path="url(#clip230)" d="M 0 0 M2942.91 1639.51 Q2942.19 1639.1 2941.34 1638.91 Q2940.5 1638.7 2939.48 1638.7 Q2935.87 1638.7 2933.93 1641.07 Q2932.01 1643.4 2932.01 1647.8 L2932.01 1661.46 L2927.72 1661.46 L2927.72 1635.53 L2932.01 1635.53 L2932.01 1639.56 Q2933.35 1637.2 2935.5 1636.07 Q2937.65 1634.91 2940.73 1634.91 Q2941.17 1634.91 2941.71 1634.98 Q2942.24 1635.02 2942.89 1635.14 L2942.91 1639.51 Z" fill="#000000" fill-rule="evenodd" fill-opacity="1" /><path clip-path="url(#clip230)" d="M 0 0 M2963.6 1648.2 Q2963.6 1643.57 2961.68 1641.02 Q2959.78 1638.47 2956.34 1638.47 Q2952.91 1638.47 2950.99 1641.02 Q2949.09 1643.57 2949.09 1648.2 Q2949.09 1652.8 2950.99 1655.35 Q2952.91 1657.89 2956.34 1657.89 Q2959.78 1657.89 2961.68 1655.35 Q2963.6 1652.8 2963.6 1648.2 M2967.86 1658.24 Q2967.86 1664.86 2964.92 1668.08 Q2961.98 1671.32 2955.92 1671.32 Q2953.67 1671.32 2951.68 1670.97 Q2949.69 1670.65 2947.82 1669.95 L2947.82 1665.81 Q2949.69 1666.83 2951.52 1667.32 Q2953.35 1667.8 2955.25 1667.8 Q2959.44 1667.8 2961.52 1665.6 Q2963.6 1663.43 2963.6 1659.01 L2963.6 1656.9 Q2962.28 1659.19 2960.22 1660.32 Q2958.16 1661.46 2955.29 1661.46 Q2950.53 1661.46 2947.61 1657.82 Q2944.69 1654.19 2944.69 1648.2 Q2944.69 1642.18 2947.61 1638.54 Q2950.53 1634.91 2955.29 1634.91 Q2958.16 1634.91 2960.22 1636.04 Q2962.28 1637.18 2963.6 1639.47 L2963.6 1635.53 L2967.86 1635.53 L2967.86 1658.24 Z" fill="#000000" fill-rule="evenodd" fill-opacity="1" /><path clip-path="url(#clip230)" d="M 0 0 M2987.42 1663.87 Q2985.62 1668.5 2983.9 1669.91 Q2982.19 1671.32 2979.32 1671.32 L2975.92 1671.32 L2975.92 1667.76 L2978.42 1667.76 Q2980.18 1667.76 2981.15 1666.92 Q2982.12 1666.09 2983.3 1662.99 L2984.07 1661.04 L2973.58 1635.53 L2978.09 1635.53 L2986.2 1655.81 L2994.3 1635.53 L2998.81 1635.53 L2987.42 1663.87 Z" fill="#000000" fill-rule="evenodd" fill-opacity="1" /><path clip-path="url(#clip230)" d="
M381.763 3758.14 L3152.76 3758.14 L3152.76 2153.71 L381.763 2153.71  Z
  " fill="#ffffff" fill-rule="evenodd" fill-opacity="1"/>
<defs>
  <clipPath id="clip233">
    <rect x="381" y="2153" width="2772" height="1605"/>
  </clipPath>
</defs>
<polyline clip-path="url(#clip233)" style="stroke:#000000; stroke-width:2; stroke-opacity:0.1; fill:none" points="
  833.637,3758.14 833.637,2153.71 
  "/>
<polyline clip-path="url(#clip233)" style="stroke:#000000; stroke-width:2; stroke-opacity:0.1; fill:none" points="
  1580.54,3758.14 1580.54,2153.71 
  "/>
<polyline clip-path="url(#clip233)" style="stroke:#000000; stroke-width:2; stroke-opacity:0.1; fill:none" points="
  2327.43,3758.14 2327.43,2153.71 
  "/>
<polyline clip-path="url(#clip233)" style="stroke:#000000; stroke-width:2; stroke-opacity:0.1; fill:none" points="
  3074.33,3758.14 3074.33,2153.71 
  "/>
<polyline clip-path="url(#clip230)" style="stroke:#000000; stroke-width:4; stroke-opacity:1; fill:none" points="
  381.763,3758.14 3152.76,3758.14 
  "/>
<polyline clip-path="url(#clip230)" style="stroke:#000000; stroke-width:4; stroke-opacity:1; fill:none" points="
  833.637,3758.14 833.637,3738.89 
  "/>
<polyline clip-path="url(#clip230)" style="stroke:#000000; stroke-width:4; stroke-opacity:1; fill:none" points="
  1580.54,3758.14 1580.54,3738.89 
  "/>
<polyline clip-path="url(#clip230)" style="stroke:#000000; stroke-width:4; stroke-opacity:1; fill:none" points="
  2327.43,3758.14 2327.43,3738.89 
  "/>
<polyline clip-path="url(#clip230)" style="stroke:#000000; stroke-width:4; stroke-opacity:1; fill:none" points="
  3074.33,3758.14 3074.33,3738.89 
  "/>
<path clip-path="url(#clip230)" d="M 0 0 M812.41 3827.68 L828.729 3827.68 L828.729 3831.61 L806.785 3831.61 L806.785 3827.68 Q809.447 3824.92 814.03 3820.29 Q818.637 3815.64 819.817 3814.3 Q822.063 3811.77 822.942 3810.04 Q823.845 3808.28 823.845 3806.59 Q823.845 3803.83 821.901 3802.1 Q819.979 3800.36 816.878 3800.36 Q814.679 3800.36 812.225 3801.13 Q809.794 3801.89 807.017 3803.44 L807.017 3798.72 Q809.841 3797.58 812.294 3797.01 Q814.748 3796.43 816.785 3796.43 Q822.155 3796.43 825.35 3799.11 Q828.544 3801.8 828.544 3806.29 Q828.544 3808.42 827.734 3810.34 Q826.947 3812.24 824.841 3814.83 Q824.262 3815.5 821.16 3818.72 Q818.058 3821.91 812.41 3827.68 Z" fill="#000000" fill-rule="evenodd" fill-opacity="1" /><path clip-path="url(#clip230)" d="M 0 0 M848.544 3800.13 Q844.933 3800.13 843.104 3803.7 Q841.299 3807.24 841.299 3814.37 Q841.299 3821.47 843.104 3825.04 Q844.933 3828.58 848.544 3828.58 Q852.178 3828.58 853.984 3825.04 Q855.813 3821.47 855.813 3814.37 Q855.813 3807.24 853.984 3803.7 Q852.178 3800.13 848.544 3800.13 M848.544 3796.43 Q854.354 3796.43 857.41 3801.03 Q860.488 3805.62 860.488 3814.37 Q860.488 3823.09 857.41 3827.7 Q854.354 3832.28 848.544 3832.28 Q842.734 3832.28 839.655 3827.7 Q836.6 3823.09 836.6 3814.37 Q836.6 3805.62 839.655 3801.03 Q842.734 3796.43 848.544 3796.43 Z" fill="#000000" fill-rule="evenodd" fill-opacity="1" /><path clip-path="url(#clip230)" d="M 0 0 M1568.71 3801.13 L1556.9 3819.57 L1568.71 3819.57 L1568.71 3801.13 M1567.48 3797.05 L1573.36 3797.05 L1573.36 3819.57 L1578.29 3819.57 L1578.29 3823.46 L1573.36 3823.46 L1573.36 3831.61 L1568.71 3831.61 L1568.71 3823.46 L1553.1 3823.46 L1553.1 3818.95 L1567.48 3797.05 Z" fill="#000000" fill-rule="evenodd" fill-opacity="1" /><path clip-path="url(#clip230)" d="M 0 0 M1596.02 3800.13 Q1592.41 3800.13 1590.58 3803.7 Q1588.78 3807.24 1588.78 3814.37 Q1588.78 3821.47 1590.58 3825.04 Q1592.41 3828.58 1596.02 3828.58 Q1599.66 3828.58 1601.46 3825.04 Q1603.29 3821.47 1603.29 3814.37 Q1603.29 3807.24 1601.46 3803.7 Q1599.66 3800.13 1596.02 3800.13 M1596.02 3796.43 Q1601.83 3796.43 1604.89 3801.03 Q1607.97 3805.62 1607.97 3814.37 Q1607.97 3823.09 1604.89 3827.7 Q1601.83 3832.28 1596.02 3832.28 Q1590.21 3832.28 1587.13 3827.7 Q1584.08 3823.09 1584.08 3814.37 Q1584.08 3805.62 1587.13 3801.03 Q1590.21 3796.43 1596.02 3796.43 Z" fill="#000000" fill-rule="evenodd" fill-opacity="1" /><path clip-path="url(#clip230)" d="M 0 0 M2312.84 3812.47 Q2309.69 3812.47 2307.84 3814.62 Q2306.01 3816.77 2306.01 3820.52 Q2306.01 3824.25 2307.84 3826.43 Q2309.69 3828.58 2312.84 3828.58 Q2315.99 3828.58 2317.82 3826.43 Q2319.67 3824.25 2319.67 3820.52 Q2319.67 3816.77 2317.82 3814.62 Q2315.99 3812.47 2312.84 3812.47 M2322.12 3797.82 L2322.12 3802.07 Q2320.36 3801.24 2318.56 3800.8 Q2316.77 3800.36 2315.01 3800.36 Q2310.38 3800.36 2307.93 3803.49 Q2305.5 3806.61 2305.15 3812.93 Q2306.52 3810.92 2308.58 3809.85 Q2310.64 3808.76 2313.12 3808.76 Q2318.32 3808.76 2321.33 3811.94 Q2324.37 3815.08 2324.37 3820.52 Q2324.37 3825.85 2321.22 3829.07 Q2318.07 3832.28 2312.84 3832.28 Q2306.84 3832.28 2303.67 3827.7 Q2300.5 3823.09 2300.5 3814.37 Q2300.5 3806.17 2304.39 3801.31 Q2308.28 3796.43 2314.83 3796.43 Q2316.59 3796.43 2318.37 3796.77 Q2320.18 3797.12 2322.12 3797.82 Z" fill="#000000" fill-rule="evenodd" fill-opacity="1" /><path clip-path="url(#clip230)" d="M 0 0 M2342.42 3800.13 Q2338.81 3800.13 2336.98 3803.7 Q2335.18 3807.24 2335.18 3814.37 Q2335.18 3821.47 2336.98 3825.04 Q2338.81 3828.58 2342.42 3828.58 Q2346.06 3828.58 2347.86 3825.04 Q2349.69 3821.47 2349.69 3814.37 Q2349.69 3807.24 2347.86 3803.7 Q2346.06 3800.13 2342.42 3800.13 M2342.42 3796.43 Q2348.23 3796.43 2351.29 3801.03 Q2354.37 3805.62 2354.37 3814.37 Q2354.37 3823.09 2351.29 3827.7 Q2348.23 3832.28 2342.42 3832.28 Q2336.61 3832.28 2333.53 3827.7 Q2330.48 3823.09 2330.48 3814.37 Q2330.48 3805.62 2333.53 3801.03 Q2336.61 3796.43 2342.42 3796.43 Z" fill="#000000" fill-rule="evenodd" fill-opacity="1" /><path clip-path="url(#clip230)" d="M 0 0 M3059.2 3815.2 Q3055.87 3815.2 3053.95 3816.98 Q3052.05 3818.76 3052.05 3821.89 Q3052.05 3825.01 3053.95 3826.8 Q3055.87 3828.58 3059.2 3828.58 Q3062.54 3828.58 3064.46 3826.8 Q3066.38 3824.99 3066.38 3821.89 Q3066.38 3818.76 3064.46 3816.98 Q3062.56 3815.2 3059.2 3815.2 M3054.53 3813.21 Q3051.52 3812.47 3049.83 3810.41 Q3048.16 3808.35 3048.16 3805.39 Q3048.16 3801.24 3051.1 3798.83 Q3054.07 3796.43 3059.2 3796.43 Q3064.37 3796.43 3067.31 3798.83 Q3070.25 3801.24 3070.25 3805.39 Q3070.25 3808.35 3068.56 3810.41 Q3066.89 3812.47 3063.9 3813.21 Q3067.28 3814 3069.16 3816.29 Q3071.06 3818.58 3071.06 3821.89 Q3071.06 3826.91 3067.98 3829.6 Q3064.92 3832.28 3059.2 3832.28 Q3053.49 3832.28 3050.41 3829.6 Q3047.35 3826.91 3047.35 3821.89 Q3047.35 3818.58 3049.25 3816.29 Q3051.15 3814 3054.53 3813.21 M3052.82 3805.82 Q3052.82 3808.51 3054.48 3810.01 Q3056.17 3811.52 3059.2 3811.52 Q3062.21 3811.52 3063.9 3810.01 Q3065.62 3808.51 3065.62 3805.82 Q3065.62 3803.14 3063.9 3801.64 Q3062.21 3800.13 3059.2 3800.13 Q3056.17 3800.13 3054.48 3801.64 Q3052.82 3803.14 3052.82 3805.82 Z" fill="#000000" fill-rule="evenodd" fill-opacity="1" /><path clip-path="url(#clip230)" d="M 0 0 M3089.37 3800.13 Q3085.76 3800.13 3083.93 3803.7 Q3082.12 3807.24 3082.12 3814.37 Q3082.12 3821.47 3083.93 3825.04 Q3085.76 3828.58 3089.37 3828.58 Q3093 3828.58 3094.81 3825.04 Q3096.63 3821.47 3096.63 3814.37 Q3096.63 3807.24 3094.81 3803.7 Q3093 3800.13 3089.37 3800.13 M3089.37 3796.43 Q3095.18 3796.43 3098.23 3801.03 Q3101.31 3805.62 3101.31 3814.37 Q3101.31 3823.09 3098.23 3827.7 Q3095.18 3832.28 3089.37 3832.28 Q3083.56 3832.28 3080.48 3827.7 Q3077.42 3823.09 3077.42 3814.37 Q3077.42 3805.62 3080.48 3801.03 Q3083.56 3796.43 3089.37 3796.43 Z" fill="#000000" fill-rule="evenodd" fill-opacity="1" /><path clip-path="url(#clip230)" d="M 0 0 M1771.73 3934.96 L1766.99 3922.77 L1757.22 3940.59 L1750.31 3940.59 L1764.12 3915.39 L1758.33 3900.4 Q1756.77 3896.38 1751.87 3896.38 L1750.31 3896.38 L1750.31 3891.36 L1752.54 3891.42 Q1760.75 3891.64 1762.82 3896.96 L1767.53 3909.15 L1777.3 3891.32 L1784.21 3891.32 L1770.39 3916.53 L1776.19 3931.52 Q1777.75 3935.53 1782.65 3935.53 L1784.21 3935.53 L1784.21 3940.56 L1781.98 3940.5 Q1773.77 3940.28 1771.73 3934.96 Z" fill="#000000" fill-rule="evenodd" fill-opacity="1" /><polyline clip-path="url(#clip233)" style="stroke:#000000; stroke-width:2; stroke-opacity:0.1; fill:none" points="
  381.763,3477.21 3152.76,3477.21 
  "/>
<polyline clip-path="url(#clip233)" style="stroke:#000000; stroke-width:2; stroke-opacity:0.1; fill:none" points="
  381.763,3109.12 3152.76,3109.12 
  "/>
<polyline clip-path="url(#clip233)" style="stroke:#000000; stroke-width:2; stroke-opacity:0.1; fill:none" points="
  381.763,2741.03 3152.76,2741.03 
  "/>
<polyline clip-path="url(#clip233)" style="stroke:#000000; stroke-width:2; stroke-opacity:0.1; fill:none" points="
  381.763,2372.94 3152.76,2372.94 
  "/>
<polyline clip-path="url(#clip230)" style="stroke:#000000; stroke-width:4; stroke-opacity:1; fill:none" points="
  381.763,3758.14 381.763,2153.71 
  "/>
<polyline clip-path="url(#clip230)" style="stroke:#000000; stroke-width:4; stroke-opacity:1; fill:none" points="
  381.763,3477.21 415.015,3477.21 
  "/>
<polyline clip-path="url(#clip230)" style="stroke:#000000; stroke-width:4; stroke-opacity:1; fill:none" points="
  381.763,3109.12 415.015,3109.12 
  "/>
<polyline clip-path="url(#clip230)" style="stroke:#000000; stroke-width:4; stroke-opacity:1; fill:none" points="
  381.763,2741.03 415.015,2741.03 
  "/>
<polyline clip-path="url(#clip230)" style="stroke:#000000; stroke-width:4; stroke-opacity:1; fill:none" points="
  381.763,2372.94 415.015,2372.94 
  "/>
<path clip-path="url(#clip230)" d="M 0 0 M84.4223 3481.79 Q81.2741 3481.79 79.4223 3483.94 Q77.5936 3486.1 77.5936 3489.85 Q77.5936 3493.57 79.4223 3495.75 Q81.2741 3497.9 84.4223 3497.9 Q87.5704 3497.9 89.3991 3495.75 Q91.2509 3493.57 91.2509 3489.85 Q91.2509 3486.1 89.3991 3483.94 Q87.5704 3481.79 84.4223 3481.79 M93.7046 3467.14 L93.7046 3471.4 Q91.9454 3470.56 90.1398 3470.12 Q88.3574 3469.68 86.5982 3469.68 Q81.9686 3469.68 79.5149 3472.81 Q77.0843 3475.93 76.7371 3482.25 Q78.1029 3480.24 80.163 3479.17 Q82.2232 3478.09 84.7 3478.09 Q89.9084 3478.09 92.9176 3481.26 Q95.95 3484.41 95.95 3489.85 Q95.95 3495.17 92.8019 3498.39 Q89.6537 3501.6 84.4223 3501.6 Q78.4269 3501.6 75.2557 3497.02 Q72.0844 3492.41 72.0844 3483.69 Q72.0844 3475.49 75.9732 3470.63 Q79.8621 3465.75 86.413 3465.75 Q88.1722 3465.75 89.9546 3466.1 Q91.7602 3466.44 93.7046 3467.14 Z" fill="#000000" fill-rule="evenodd" fill-opacity="1" /><path clip-path="url(#clip230)" d="M 0 0 M104.005 3495.05 L108.89 3495.05 L108.89 3500.93 L104.005 3500.93 L104.005 3495.05 Z" fill="#000000" fill-rule="evenodd" fill-opacity="1" /><path clip-path="url(#clip230)" d="M 0 0 M123.103 3497 L139.422 3497 L139.422 3500.93 L117.478 3500.93 L117.478 3497 Q120.14 3494.24 124.723 3489.61 Q129.329 3484.96 130.51 3483.62 Q132.755 3481.1 133.635 3479.36 Q134.538 3477.6 134.538 3475.91 Q134.538 3473.16 132.593 3471.42 Q130.672 3469.68 127.57 3469.68 Q125.371 3469.68 122.917 3470.45 Q120.487 3471.21 117.709 3472.76 L117.709 3468.04 Q120.533 3466.91 122.987 3466.33 Q125.441 3465.75 127.478 3465.75 Q132.848 3465.75 136.042 3468.43 Q139.237 3471.12 139.237 3475.61 Q139.237 3477.74 138.427 3479.66 Q137.64 3481.56 135.533 3484.15 Q134.954 3484.82 131.853 3488.04 Q128.751 3491.23 123.103 3497 Z" fill="#000000" fill-rule="evenodd" fill-opacity="1" /><path clip-path="url(#clip230)" d="M 0 0 M159.237 3469.45 Q155.626 3469.45 153.797 3473.02 Q151.991 3476.56 151.991 3483.69 Q151.991 3490.79 153.797 3494.36 Q155.626 3497.9 159.237 3497.9 Q162.871 3497.9 164.676 3494.36 Q166.505 3490.79 166.505 3483.69 Q166.505 3476.56 164.676 3473.02 Q162.871 3469.45 159.237 3469.45 M159.237 3465.75 Q165.047 3465.75 168.102 3470.35 Q171.181 3474.94 171.181 3483.69 Q171.181 3492.41 168.102 3497.02 Q165.047 3501.6 159.237 3501.6 Q153.427 3501.6 150.348 3497.02 Q147.292 3492.41 147.292 3483.69 Q147.292 3474.94 150.348 3470.35 Q153.427 3465.75 159.237 3465.75 Z" fill="#000000" fill-rule="evenodd" fill-opacity="1" /><path clip-path="url(#clip230)" d="M 0 0 M207.57 3475.47 L196.991 3486.1 L207.57 3496.67 L204.815 3499.48 L194.19 3488.85 L183.565 3499.48 L180.834 3496.67 L191.389 3486.1 L180.834 3475.47 L183.565 3472.67 L194.19 3483.29 L204.815 3472.67 L207.57 3475.47 Z" fill="#000000" fill-rule="evenodd" fill-opacity="1" /><path clip-path="url(#clip230)" d="M 0 0 M219.931 3497 L227.57 3497 L227.57 3470.63 L219.26 3472.3 L219.26 3468.04 L227.523 3466.37 L232.199 3466.37 L232.199 3497 L239.838 3497 L239.838 3500.93 L219.931 3500.93 L219.931 3497 Z" fill="#000000" fill-rule="evenodd" fill-opacity="1" /><path clip-path="url(#clip230)" d="M 0 0 M259.282 3469.45 Q255.671 3469.45 253.843 3473.02 Q252.037 3476.56 252.037 3483.69 Q252.037 3490.79 253.843 3494.36 Q255.671 3497.9 259.282 3497.9 Q262.917 3497.9 264.722 3494.36 Q266.551 3490.79 266.551 3483.69 Q266.551 3476.56 264.722 3473.02 Q262.917 3469.45 259.282 3469.45 M259.282 3465.75 Q265.093 3465.75 268.148 3470.35 Q271.227 3474.94 271.227 3483.69 Q271.227 3492.41 268.148 3497.02 Q265.093 3501.6 259.282 3501.6 Q253.472 3501.6 250.394 3497.02 Q247.338 3492.41 247.338 3483.69 Q247.338 3474.94 250.394 3470.35 Q253.472 3465.75 259.282 3465.75 Z" fill="#000000" fill-rule="evenodd" fill-opacity="1" /><path clip-path="url(#clip230)" d="M 0 0 M271.227 3459.85 L295.338 3459.85 L295.338 3463.05 L271.227 3463.05 L271.227 3459.85 Z" fill="#000000" fill-rule="evenodd" fill-opacity="1" /><path clip-path="url(#clip230)" d="M 0 0 M313.977 3448.75 L304.385 3463.74 L313.977 3463.74 L313.977 3448.75 M312.98 3445.44 L317.757 3445.44 L317.757 3463.74 L321.763 3463.74 L321.763 3466.9 L317.757 3466.9 L317.757 3473.52 L313.977 3473.52 L313.977 3466.9 L301.3 3466.9 L301.3 3463.24 L312.98 3445.44 Z" fill="#000000" fill-rule="evenodd" fill-opacity="1" /><path clip-path="url(#clip230)" d="M 0 0 M84.4223 3113.7 Q81.2741 3113.7 79.4223 3115.85 Q77.5936 3118.01 77.5936 3121.76 Q77.5936 3125.48 79.4223 3127.66 Q81.2741 3129.81 84.4223 3129.81 Q87.5704 3129.81 89.3991 3127.66 Q91.2509 3125.48 91.2509 3121.76 Q91.2509 3118.01 89.3991 3115.85 Q87.5704 3113.7 84.4223 3113.7 M93.7046 3099.05 L93.7046 3103.31 Q91.9454 3102.47 90.1398 3102.03 Q88.3574 3101.59 86.5982 3101.59 Q81.9686 3101.59 79.5149 3104.72 Q77.0843 3107.84 76.7371 3114.16 Q78.1029 3112.15 80.163 3111.08 Q82.2232 3110 84.7 3110 Q89.9084 3110 92.9176 3113.17 Q95.95 3116.32 95.95 3121.76 Q95.95 3127.08 92.8019 3130.3 Q89.6537 3133.51 84.4223 3133.51 Q78.4269 3133.51 75.2557 3128.93 Q72.0844 3124.32 72.0844 3115.6 Q72.0844 3107.4 75.9732 3102.54 Q79.8621 3097.66 86.413 3097.66 Q88.1722 3097.66 89.9546 3098.01 Q91.7602 3098.35 93.7046 3099.05 Z" fill="#000000" fill-rule="evenodd" fill-opacity="1" /><path clip-path="url(#clip230)" d="M 0 0 M104.005 3126.96 L108.89 3126.96 L108.89 3132.84 L104.005 3132.84 L104.005 3126.96 Z" fill="#000000" fill-rule="evenodd" fill-opacity="1" /><path clip-path="url(#clip230)" d="M 0 0 M131.922 3102.36 L120.117 3120.81 L131.922 3120.81 L131.922 3102.36 M130.695 3098.28 L136.575 3098.28 L136.575 3120.81 L141.505 3120.81 L141.505 3124.7 L136.575 3124.7 L136.575 3132.84 L131.922 3132.84 L131.922 3124.7 L116.32 3124.7 L116.32 3120.18 L130.695 3098.28 Z" fill="#000000" fill-rule="evenodd" fill-opacity="1" /><path clip-path="url(#clip230)" d="M 0 0 M159.237 3101.36 Q155.626 3101.36 153.797 3104.93 Q151.991 3108.47 151.991 3115.6 Q151.991 3122.7 153.797 3126.27 Q155.626 3129.81 159.237 3129.81 Q162.871 3129.81 164.676 3126.27 Q166.505 3122.7 166.505 3115.6 Q166.505 3108.47 164.676 3104.93 Q162.871 3101.36 159.237 3101.36 M159.237 3097.66 Q165.047 3097.66 168.102 3102.26 Q171.181 3106.85 171.181 3115.6 Q171.181 3124.32 168.102 3128.93 Q165.047 3133.51 159.237 3133.51 Q153.427 3133.51 150.348 3128.93 Q147.292 3124.32 147.292 3115.6 Q147.292 3106.85 150.348 3102.26 Q153.427 3097.66 159.237 3097.66 Z" fill="#000000" fill-rule="evenodd" fill-opacity="1" /><path clip-path="url(#clip230)" d="M 0 0 M207.57 3107.38 L196.991 3118.01 L207.57 3128.58 L204.815 3131.38 L194.19 3120.76 L183.565 3131.38 L180.834 3128.58 L191.389 3118.01 L180.834 3107.38 L183.565 3104.58 L194.19 3115.2 L204.815 3104.58 L207.57 3107.38 Z" fill="#000000" fill-rule="evenodd" fill-opacity="1" /><path clip-path="url(#clip230)" d="M 0 0 M219.931 3128.91 L227.57 3128.91 L227.57 3102.54 L219.26 3104.21 L219.26 3099.95 L227.523 3098.28 L232.199 3098.28 L232.199 3128.91 L239.838 3128.91 L239.838 3132.84 L219.931 3132.84 L219.931 3128.91 Z" fill="#000000" fill-rule="evenodd" fill-opacity="1" /><path clip-path="url(#clip230)" d="M 0 0 M259.282 3101.36 Q255.671 3101.36 253.843 3104.93 Q252.037 3108.47 252.037 3115.6 Q252.037 3122.7 253.843 3126.27 Q255.671 3129.81 259.282 3129.81 Q262.917 3129.81 264.722 3126.27 Q266.551 3122.7 266.551 3115.6 Q266.551 3108.47 264.722 3104.93 Q262.917 3101.36 259.282 3101.36 M259.282 3097.66 Q265.093 3097.66 268.148 3102.26 Q271.227 3106.85 271.227 3115.6 Q271.227 3124.32 268.148 3128.93 Q265.093 3133.51 259.282 3133.51 Q253.472 3133.51 250.394 3128.93 Q247.338 3124.32 247.338 3115.6 Q247.338 3106.85 250.394 3102.26 Q253.472 3097.66 259.282 3097.66 Z" fill="#000000" fill-rule="evenodd" fill-opacity="1" /><path clip-path="url(#clip230)" d="M 0 0 M271.227 3091.76 L295.338 3091.76 L295.338 3094.96 L271.227 3094.96 L271.227 3091.76 Z" fill="#000000" fill-rule="evenodd" fill-opacity="1" /><path clip-path="url(#clip230)" d="M 0 0 M313.977 3080.66 L304.385 3095.65 L313.977 3095.65 L313.977 3080.66 M312.98 3077.35 L317.757 3077.35 L317.757 3095.65 L321.763 3095.65 L321.763 3098.81 L317.757 3098.81 L317.757 3105.43 L313.977 3105.43 L313.977 3098.81 L301.3 3098.81 L301.3 3095.14 L312.98 3077.35 Z" fill="#000000" fill-rule="evenodd" fill-opacity="1" /><path clip-path="url(#clip230)" d="M 0 0 M84.4223 2745.61 Q81.2741 2745.61 79.4223 2747.76 Q77.5936 2749.92 77.5936 2753.67 Q77.5936 2757.39 79.4223 2759.57 Q81.2741 2761.72 84.4223 2761.72 Q87.5704 2761.72 89.3991 2759.57 Q91.2509 2757.39 91.2509 2753.67 Q91.2509 2749.92 89.3991 2747.76 Q87.5704 2745.61 84.4223 2745.61 M93.7046 2730.96 L93.7046 2735.22 Q91.9454 2734.38 90.1398 2733.94 Q88.3574 2733.5 86.5982 2733.5 Q81.9686 2733.5 79.5149 2736.63 Q77.0843 2739.75 76.7371 2746.07 Q78.1029 2744.06 80.163 2742.99 Q82.2232 2741.91 84.7 2741.91 Q89.9084 2741.91 92.9176 2745.08 Q95.95 2748.23 95.95 2753.67 Q95.95 2758.99 92.8019 2762.21 Q89.6537 2765.42 84.4223 2765.42 Q78.4269 2765.42 75.2557 2760.84 Q72.0844 2756.23 72.0844 2747.51 Q72.0844 2739.31 75.9732 2734.45 Q79.8621 2729.57 86.413 2729.57 Q88.1722 2729.57 89.9546 2729.92 Q91.7602 2730.26 93.7046 2730.96 Z" fill="#000000" fill-rule="evenodd" fill-opacity="1" /><path clip-path="url(#clip230)" d="M 0 0 M104.005 2758.87 L108.89 2758.87 L108.89 2764.75 L104.005 2764.75 L104.005 2758.87 Z" fill="#000000" fill-rule="evenodd" fill-opacity="1" /><path clip-path="url(#clip230)" d="M 0 0 M129.654 2745.61 Q126.505 2745.61 124.654 2747.76 Q122.825 2749.92 122.825 2753.67 Q122.825 2757.39 124.654 2759.57 Q126.505 2761.72 129.654 2761.72 Q132.802 2761.72 134.63 2759.57 Q136.482 2757.39 136.482 2753.67 Q136.482 2749.92 134.63 2747.76 Q132.802 2745.61 129.654 2745.61 M138.936 2730.96 L138.936 2735.22 Q137.177 2734.38 135.371 2733.94 Q133.589 2733.5 131.829 2733.5 Q127.2 2733.5 124.746 2736.63 Q122.316 2739.75 121.968 2746.07 Q123.334 2744.06 125.394 2742.99 Q127.454 2741.91 129.931 2741.91 Q135.14 2741.91 138.149 2745.08 Q141.181 2748.23 141.181 2753.67 Q141.181 2758.99 138.033 2762.21 Q134.885 2765.42 129.654 2765.42 Q123.658 2765.42 120.487 2760.84 Q117.316 2756.23 117.316 2747.51 Q117.316 2739.31 121.204 2734.45 Q125.093 2729.57 131.644 2729.57 Q133.403 2729.57 135.186 2729.92 Q136.991 2730.26 138.936 2730.96 Z" fill="#000000" fill-rule="evenodd" fill-opacity="1" /><path clip-path="url(#clip230)" d="M 0 0 M159.237 2733.27 Q155.626 2733.27 153.797 2736.84 Q151.991 2740.38 151.991 2747.51 Q151.991 2754.61 153.797 2758.18 Q155.626 2761.72 159.237 2761.72 Q162.871 2761.72 164.676 2758.18 Q166.505 2754.61 166.505 2747.51 Q166.505 2740.38 164.676 2736.84 Q162.871 2733.27 159.237 2733.27 M159.237 2729.57 Q165.047 2729.57 168.102 2734.17 Q171.181 2738.76 171.181 2747.51 Q171.181 2756.23 168.102 2760.84 Q165.047 2765.42 159.237 2765.42 Q153.427 2765.42 150.348 2760.84 Q147.292 2756.23 147.292 2747.51 Q147.292 2738.76 150.348 2734.17 Q153.427 2729.57 159.237 2729.57 Z" fill="#000000" fill-rule="evenodd" fill-opacity="1" /><path clip-path="url(#clip230)" d="M 0 0 M207.57 2739.29 L196.991 2749.92 L207.57 2760.49 L204.815 2763.29 L194.19 2752.67 L183.565 2763.29 L180.834 2760.49 L191.389 2749.92 L180.834 2739.29 L183.565 2736.49 L194.19 2747.11 L204.815 2736.49 L207.57 2739.29 Z" fill="#000000" fill-rule="evenodd" fill-opacity="1" /><path clip-path="url(#clip230)" d="M 0 0 M219.931 2760.82 L227.57 2760.82 L227.57 2734.45 L219.26 2736.12 L219.26 2731.86 L227.523 2730.19 L232.199 2730.19 L232.199 2760.82 L239.838 2760.82 L239.838 2764.75 L219.931 2764.75 L219.931 2760.82 Z" fill="#000000" fill-rule="evenodd" fill-opacity="1" /><path clip-path="url(#clip230)" d="M 0 0 M259.282 2733.27 Q255.671 2733.27 253.843 2736.84 Q252.037 2740.38 252.037 2747.51 Q252.037 2754.61 253.843 2758.18 Q255.671 2761.72 259.282 2761.72 Q262.917 2761.72 264.722 2758.18 Q266.551 2754.61 266.551 2747.51 Q266.551 2740.38 264.722 2736.84 Q262.917 2733.27 259.282 2733.27 M259.282 2729.57 Q265.093 2729.57 268.148 2734.17 Q271.227 2738.76 271.227 2747.51 Q271.227 2756.23 268.148 2760.84 Q265.093 2765.42 259.282 2765.42 Q253.472 2765.42 250.394 2760.84 Q247.338 2756.23 247.338 2747.51 Q247.338 2738.76 250.394 2734.17 Q253.472 2729.57 259.282 2729.57 Z" fill="#000000" fill-rule="evenodd" fill-opacity="1" /><path clip-path="url(#clip230)" d="M 0 0 M271.227 2723.67 L295.338 2723.67 L295.338 2726.87 L271.227 2726.87 L271.227 2723.67 Z" fill="#000000" fill-rule="evenodd" fill-opacity="1" /><path clip-path="url(#clip230)" d="M 0 0 M313.977 2712.57 L304.385 2727.56 L313.977 2727.56 L313.977 2712.57 M312.98 2709.26 L317.757 2709.26 L317.757 2727.56 L321.763 2727.56 L321.763 2730.72 L317.757 2730.72 L317.757 2737.34 L313.977 2737.34 L313.977 2730.72 L301.3 2730.72 L301.3 2727.05 L312.98 2709.26 Z" fill="#000000" fill-rule="evenodd" fill-opacity="1" /><path clip-path="url(#clip230)" d="M 0 0 M84.4223 2377.52 Q81.2741 2377.52 79.4223 2379.67 Q77.5936 2381.82 77.5936 2385.57 Q77.5936 2389.3 79.4223 2391.48 Q81.2741 2393.63 84.4223 2393.63 Q87.5704 2393.63 89.3991 2391.48 Q91.2509 2389.3 91.2509 2385.57 Q91.2509 2381.82 89.3991 2379.67 Q87.5704 2377.52 84.4223 2377.52 M93.7046 2362.87 L93.7046 2367.13 Q91.9454 2366.29 90.1398 2365.85 Q88.3574 2365.41 86.5982 2365.41 Q81.9686 2365.41 79.5149 2368.54 Q77.0843 2371.66 76.7371 2377.98 Q78.1029 2375.97 80.163 2374.9 Q82.2232 2373.82 84.7 2373.82 Q89.9084 2373.82 92.9176 2376.99 Q95.95 2380.14 95.95 2385.57 Q95.95 2390.9 92.8019 2394.12 Q89.6537 2397.33 84.4223 2397.33 Q78.4269 2397.33 75.2557 2392.75 Q72.0844 2388.14 72.0844 2379.42 Q72.0844 2371.22 75.9732 2366.36 Q79.8621 2361.48 86.413 2361.48 Q88.1722 2361.48 89.9546 2361.83 Q91.7602 2362.17 93.7046 2362.87 Z" fill="#000000" fill-rule="evenodd" fill-opacity="1" /><path clip-path="url(#clip230)" d="M 0 0 M104.005 2390.78 L108.89 2390.78 L108.89 2396.66 L104.005 2396.66 L104.005 2390.78 Z" fill="#000000" fill-rule="evenodd" fill-opacity="1" /><path clip-path="url(#clip230)" d="M 0 0 M129.075 2380.25 Q125.741 2380.25 123.82 2382.03 Q121.922 2383.82 121.922 2386.94 Q121.922 2390.07 123.82 2391.85 Q125.741 2393.63 129.075 2393.63 Q132.408 2393.63 134.329 2391.85 Q136.251 2390.04 136.251 2386.94 Q136.251 2383.82 134.329 2382.03 Q132.431 2380.25 129.075 2380.25 M124.399 2378.26 Q121.39 2377.52 119.7 2375.46 Q118.033 2373.4 118.033 2370.44 Q118.033 2366.29 120.973 2363.89 Q123.936 2361.48 129.075 2361.48 Q134.237 2361.48 137.177 2363.89 Q140.116 2366.29 140.116 2370.44 Q140.116 2373.4 138.427 2375.46 Q136.76 2377.52 133.774 2378.26 Q137.153 2379.05 139.028 2381.34 Q140.927 2383.63 140.927 2386.94 Q140.927 2391.96 137.848 2394.65 Q134.792 2397.33 129.075 2397.33 Q123.357 2397.33 120.279 2394.65 Q117.223 2391.96 117.223 2386.94 Q117.223 2383.63 119.121 2381.34 Q121.019 2379.05 124.399 2378.26 M122.686 2370.88 Q122.686 2373.56 124.353 2375.07 Q126.042 2376.57 129.075 2376.57 Q132.084 2376.57 133.774 2375.07 Q135.487 2373.56 135.487 2370.88 Q135.487 2368.19 133.774 2366.69 Q132.084 2365.18 129.075 2365.18 Q126.042 2365.18 124.353 2366.69 Q122.686 2368.19 122.686 2370.88 Z" fill="#000000" fill-rule="evenodd" fill-opacity="1" /><path clip-path="url(#clip230)" d="M 0 0 M159.237 2365.18 Q155.626 2365.18 153.797 2368.75 Q151.991 2372.29 151.991 2379.42 Q151.991 2386.52 153.797 2390.09 Q155.626 2393.63 159.237 2393.63 Q162.871 2393.63 164.676 2390.09 Q166.505 2386.52 166.505 2379.42 Q166.505 2372.29 164.676 2368.75 Q162.871 2365.18 159.237 2365.18 M159.237 2361.48 Q165.047 2361.48 168.102 2366.08 Q171.181 2370.67 171.181 2379.42 Q171.181 2388.14 168.102 2392.75 Q165.047 2397.33 159.237 2397.33 Q153.427 2397.33 150.348 2392.75 Q147.292 2388.14 147.292 2379.42 Q147.292 2370.67 150.348 2366.08 Q153.427 2361.48 159.237 2361.48 Z" fill="#000000" fill-rule="evenodd" fill-opacity="1" /><path clip-path="url(#clip230)" d="M 0 0 M207.57 2371.2 L196.991 2381.82 L207.57 2392.4 L204.815 2395.2 L194.19 2384.58 L183.565 2395.2 L180.834 2392.4 L191.389 2381.82 L180.834 2371.2 L183.565 2368.4 L194.19 2379.02 L204.815 2368.4 L207.57 2371.2 Z" fill="#000000" fill-rule="evenodd" fill-opacity="1" /><path clip-path="url(#clip230)" d="M 0 0 M219.931 2392.73 L227.57 2392.73 L227.57 2366.36 L219.26 2368.03 L219.26 2363.77 L227.523 2362.1 L232.199 2362.1 L232.199 2392.73 L239.838 2392.73 L239.838 2396.66 L219.931 2396.66 L219.931 2392.73 Z" fill="#000000" fill-rule="evenodd" fill-opacity="1" /><path clip-path="url(#clip230)" d="M 0 0 M259.282 2365.18 Q255.671 2365.18 253.843 2368.75 Q252.037 2372.29 252.037 2379.42 Q252.037 2386.52 253.843 2390.09 Q255.671 2393.63 259.282 2393.63 Q262.917 2393.63 264.722 2390.09 Q266.551 2386.52 266.551 2379.42 Q266.551 2372.29 264.722 2368.75 Q262.917 2365.18 259.282 2365.18 M259.282 2361.48 Q265.093 2361.48 268.148 2366.08 Q271.227 2370.67 271.227 2379.42 Q271.227 2388.14 268.148 2392.75 Q265.093 2397.33 259.282 2397.33 Q253.472 2397.33 250.394 2392.75 Q247.338 2388.14 247.338 2379.42 Q247.338 2370.67 250.394 2366.08 Q253.472 2361.48 259.282 2361.48 Z" fill="#000000" fill-rule="evenodd" fill-opacity="1" /><path clip-path="url(#clip230)" d="M 0 0 M271.227 2355.58 L295.338 2355.58 L295.338 2358.78 L271.227 2358.78 L271.227 2355.58 Z" fill="#000000" fill-rule="evenodd" fill-opacity="1" /><path clip-path="url(#clip230)" d="M 0 0 M313.977 2344.48 L304.385 2359.47 L313.977 2359.47 L313.977 2344.48 M312.98 2341.17 L317.757 2341.17 L317.757 2359.47 L321.763 2359.47 L321.763 2362.63 L317.757 2362.63 L317.757 2369.25 L313.977 2369.25 L313.977 2362.63 L301.3 2362.63 L301.3 2358.96 L312.98 2341.17 Z" fill="#000000" fill-rule="evenodd" fill-opacity="1" /><path clip-path="url(#clip230)" d="M 0 0 M-49.6916 2977.66 L-49.6916 2968.08 L-17.3538 2955.96 L-49.6916 2943.77 L-49.6916 2934.19 L-2.17163 2934.19 L-2.17163 2940.46 L-43.8988 2940.46 L-11.3064 2952.71 L-11.3064 2959.17 L-43.8988 2971.43 L-2.17163 2971.43 L-2.17163 2977.66 L-49.6916 2977.66 Z" fill="#000000" fill-rule="evenodd" fill-opacity="1" /><path clip-path="url(#clip230)" d="M 0 0 M1511.75 2035.92 Q1514.54 2030.89 1518.43 2028.5 Q1522.32 2026.11 1527.59 2026.11 Q1534.68 2026.11 1538.53 2031.09 Q1542.37 2036.04 1542.37 2045.19 L1542.37 2072.58 L1534.88 2072.58 L1534.88 2045.43 Q1534.88 2038.91 1532.57 2035.75 Q1530.26 2032.59 1525.52 2032.59 Q1519.73 2032.59 1516.37 2036.44 Q1513 2040.29 1513 2046.93 L1513 2072.58 L1505.51 2072.58 L1505.51 2045.43 Q1505.51 2038.87 1503.2 2035.75 Q1500.89 2032.59 1496.07 2032.59 Q1490.36 2032.59 1487 2036.48 Q1483.64 2040.33 1483.64 2046.93 L1483.64 2072.58 L1476.14 2072.58 L1476.14 2027.21 L1483.64 2027.21 L1483.64 2034.25 Q1486.19 2030.08 1489.75 2028.1 Q1493.32 2026.11 1498.22 2026.11 Q1503.16 2026.11 1506.6 2028.62 Q1510.09 2031.14 1511.75 2035.92 Z" fill="#000000" fill-rule="evenodd" fill-opacity="1" /><path clip-path="url(#clip230)" d="M 0 0 M1577.86 2049.77 Q1568.83 2049.77 1565.34 2051.84 Q1561.86 2053.9 1561.86 2058.88 Q1561.86 2062.85 1564.45 2065.2 Q1567.08 2067.51 1571.58 2067.51 Q1577.78 2067.51 1581.51 2063.14 Q1585.27 2058.72 1585.27 2051.43 L1585.27 2049.77 L1577.86 2049.77 M1592.73 2046.69 L1592.73 2072.58 L1585.27 2072.58 L1585.27 2065.69 Q1582.72 2069.82 1578.91 2071.81 Q1575.1 2073.75 1569.6 2073.75 Q1562.63 2073.75 1558.5 2069.86 Q1554.4 2065.93 1554.4 2059.37 Q1554.4 2051.71 1559.51 2047.82 Q1564.65 2043.94 1574.82 2043.94 L1585.27 2043.94 L1585.27 2043.21 Q1585.27 2038.06 1581.87 2035.27 Q1578.51 2032.43 1572.39 2032.43 Q1568.5 2032.43 1564.82 2033.36 Q1561.13 2034.29 1557.73 2036.16 L1557.73 2029.27 Q1561.82 2027.69 1565.67 2026.92 Q1569.51 2026.11 1573.16 2026.11 Q1583 2026.11 1587.87 2031.22 Q1592.73 2036.32 1592.73 2046.69 Z" fill="#000000" fill-rule="evenodd" fill-opacity="1" /><path clip-path="url(#clip230)" d="M 0 0 M1637.93 2049.36 Q1637.93 2041.26 1634.57 2036.81 Q1631.25 2032.35 1625.21 2032.35 Q1619.22 2032.35 1615.86 2036.81 Q1612.54 2041.26 1612.54 2049.36 Q1612.54 2057.43 1615.86 2061.88 Q1619.22 2066.34 1625.21 2066.34 Q1631.25 2066.34 1634.57 2061.88 Q1637.93 2057.43 1637.93 2049.36 M1645.39 2066.95 Q1645.39 2078.53 1640.24 2084.16 Q1635.1 2089.83 1624.49 2089.83 Q1620.56 2089.83 1617.07 2089.23 Q1613.59 2088.66 1610.31 2087.44 L1610.31 2080.19 Q1613.59 2081.97 1616.79 2082.82 Q1619.99 2083.68 1623.31 2083.68 Q1630.64 2083.68 1634.29 2079.83 Q1637.93 2076.02 1637.93 2068.28 L1637.93 2064.6 Q1635.63 2068.61 1632.02 2070.59 Q1628.41 2072.58 1623.39 2072.58 Q1615.05 2072.58 1609.94 2066.22 Q1604.84 2059.86 1604.84 2049.36 Q1604.84 2038.83 1609.94 2032.47 Q1615.05 2026.11 1623.39 2026.11 Q1628.41 2026.11 1632.02 2028.1 Q1635.63 2030.08 1637.93 2034.09 L1637.93 2027.21 L1645.39 2027.21 L1645.39 2066.95 Z" fill="#000000" fill-rule="evenodd" fill-opacity="1" /><path clip-path="url(#clip230)" d="M 0 0 M1698.45 2045.19 L1698.45 2072.58 L1691 2072.58 L1691 2045.43 Q1691 2038.99 1688.49 2035.79 Q1685.98 2032.59 1680.96 2032.59 Q1674.92 2032.59 1671.44 2036.44 Q1667.95 2040.29 1667.95 2046.93 L1667.95 2072.58 L1660.46 2072.58 L1660.46 2027.21 L1667.95 2027.21 L1667.95 2034.25 Q1670.63 2030.16 1674.23 2028.14 Q1677.88 2026.11 1682.62 2026.11 Q1690.43 2026.11 1694.44 2030.97 Q1698.45 2035.79 1698.45 2045.19 Z" fill="#000000" fill-rule="evenodd" fill-opacity="1" /><path clip-path="url(#clip230)" d="M 0 0 M1752.13 2048.03 L1752.13 2051.67 L1717.86 2051.67 Q1718.34 2059.37 1722.48 2063.42 Q1726.65 2067.43 1734.06 2067.43 Q1738.36 2067.43 1742.37 2066.38 Q1746.42 2065.32 1750.39 2063.22 L1750.39 2070.27 Q1746.38 2071.97 1742.16 2072.86 Q1737.95 2073.75 1733.62 2073.75 Q1722.76 2073.75 1716.4 2067.43 Q1710.08 2061.11 1710.08 2050.34 Q1710.08 2039.2 1716.08 2032.67 Q1722.11 2026.11 1732.32 2026.11 Q1741.48 2026.11 1746.78 2032.03 Q1752.13 2037.9 1752.13 2048.03 M1744.68 2045.84 Q1744.59 2039.72 1741.23 2036.08 Q1737.91 2032.43 1732.4 2032.43 Q1726.16 2032.43 1722.4 2035.96 Q1718.67 2039.48 1718.1 2045.88 L1744.68 2045.84 Z" fill="#000000" fill-rule="evenodd" fill-opacity="1" /><path clip-path="url(#clip230)" d="M 0 0 M1771.74 2014.32 L1771.74 2027.21 L1787.09 2027.21 L1787.09 2033 L1771.74 2033 L1771.74 2057.63 Q1771.74 2063.18 1773.23 2064.76 Q1774.77 2066.34 1779.43 2066.34 L1787.09 2066.34 L1787.09 2072.58 L1779.43 2072.58 Q1770.8 2072.58 1767.52 2069.38 Q1764.24 2066.14 1764.24 2057.63 L1764.24 2033 L1758.77 2033 L1758.77 2027.21 L1764.24 2027.21 L1764.24 2014.32 L1771.74 2014.32 Z" fill="#000000" fill-rule="evenodd" fill-opacity="1" /><path clip-path="url(#clip230)" d="M 0 0 M1796.89 2027.21 L1804.35 2027.21 L1804.35 2072.58 L1796.89 2072.58 L1796.89 2027.21 M1796.89 2009.54 L1804.35 2009.54 L1804.35 2018.98 L1796.89 2018.98 L1796.89 2009.54 Z" fill="#000000" fill-rule="evenodd" fill-opacity="1" /><path clip-path="url(#clip230)" d="M 0 0 M1816.7 2027.21 L1852.11 2027.21 L1852.11 2034.01 L1824.07 2066.62 L1852.11 2066.62 L1852.11 2072.58 L1815.69 2072.58 L1815.69 2065.77 L1843.72 2033.16 L1816.7 2033.16 L1816.7 2027.21 Z" fill="#000000" fill-rule="evenodd" fill-opacity="1" /><path clip-path="url(#clip230)" d="M 0 0 M1884.11 2049.77 Q1875.07 2049.77 1871.59 2051.84 Q1868.11 2053.9 1868.11 2058.88 Q1868.11 2062.85 1870.7 2065.2 Q1873.33 2067.51 1877.83 2067.51 Q1884.03 2067.51 1887.75 2063.14 Q1891.52 2058.72 1891.52 2051.43 L1891.52 2049.77 L1884.11 2049.77 M1898.97 2046.69 L1898.97 2072.58 L1891.52 2072.58 L1891.52 2065.69 Q1888.97 2069.82 1885.16 2071.81 Q1881.35 2073.75 1875.84 2073.75 Q1868.88 2073.75 1864.74 2069.86 Q1860.65 2065.93 1860.65 2059.37 Q1860.65 2051.71 1865.76 2047.82 Q1870.9 2043.94 1881.07 2043.94 L1891.52 2043.94 L1891.52 2043.21 Q1891.52 2038.06 1888.12 2035.27 Q1884.76 2032.43 1878.64 2032.43 Q1874.75 2032.43 1871.06 2033.36 Q1867.38 2034.29 1863.97 2036.16 L1863.97 2029.27 Q1868.07 2027.69 1871.91 2026.92 Q1875.76 2026.11 1879.41 2026.11 Q1889.25 2026.11 1894.11 2031.22 Q1898.97 2036.32 1898.97 2046.69 Z" fill="#000000" fill-rule="evenodd" fill-opacity="1" /><path clip-path="url(#clip230)" d="M 0 0 M1921.7 2014.32 L1921.7 2027.21 L1937.05 2027.21 L1937.05 2033 L1921.7 2033 L1921.7 2057.63 Q1921.7 2063.18 1923.2 2064.76 Q1924.74 2066.34 1929.4 2066.34 L1937.05 2066.34 L1937.05 2072.58 L1929.4 2072.58 Q1920.77 2072.58 1917.49 2069.38 Q1914.21 2066.14 1914.21 2057.63 L1914.21 2033 L1908.74 2033 L1908.74 2027.21 L1914.21 2027.21 L1914.21 2014.32 L1921.7 2014.32 Z" fill="#000000" fill-rule="evenodd" fill-opacity="1" /><path clip-path="url(#clip230)" d="M 0 0 M1946.86 2027.21 L1954.31 2027.21 L1954.31 2072.58 L1946.86 2072.58 L1946.86 2027.21 M1946.86 2009.54 L1954.31 2009.54 L1954.31 2018.98 L1946.86 2018.98 L1946.86 2009.54 Z" fill="#000000" fill-rule="evenodd" fill-opacity="1" /><path clip-path="url(#clip230)" d="M 0 0 M1987.49 2032.43 Q1981.49 2032.43 1978.01 2037.13 Q1974.52 2041.79 1974.52 2049.93 Q1974.52 2058.07 1977.97 2062.77 Q1981.45 2067.43 1987.49 2067.43 Q1993.44 2067.43 1996.93 2062.73 Q2000.41 2058.03 2000.41 2049.93 Q2000.41 2041.87 1996.93 2037.17 Q1993.44 2032.43 1987.49 2032.43 M1987.49 2026.11 Q1997.21 2026.11 2002.76 2032.43 Q2008.31 2038.75 2008.31 2049.93 Q2008.31 2061.07 2002.76 2067.43 Q1997.21 2073.75 1987.49 2073.75 Q1977.72 2073.75 1972.17 2067.43 Q1966.67 2061.07 1966.67 2049.93 Q1966.67 2038.75 1972.17 2032.43 Q1977.72 2026.11 1987.49 2026.11 Z" fill="#000000" fill-rule="evenodd" fill-opacity="1" /><path clip-path="url(#clip230)" d="M 0 0 M2058.38 2045.19 L2058.38 2072.58 L2050.92 2072.58 L2050.92 2045.43 Q2050.92 2038.99 2048.41 2035.79 Q2045.9 2032.59 2040.88 2032.59 Q2034.84 2032.59 2031.36 2036.44 Q2027.87 2040.29 2027.87 2046.93 L2027.87 2072.58 L2020.38 2072.58 L2020.38 2027.21 L2027.87 2027.21 L2027.87 2034.25 Q2030.55 2030.16 2034.15 2028.14 Q2037.8 2026.11 2042.54 2026.11 Q2050.36 2026.11 2054.37 2030.97 Q2058.38 2035.79 2058.38 2045.19 Z" fill="#000000" fill-rule="evenodd" fill-opacity="1" /><polyline clip-path="url(#clip233)" style="stroke:#009af9; stroke-width:12; stroke-opacity:1; fill:none" points="
  460.188,2199.12 646.912,2544.08 833.637,3326.8 1020.36,3331.51 1207.09,3156.6 1393.81,3226.32 1580.54,3367.66 1767.26,3403.57 1953.98,3491.06 2140.71,3553.33 
  2327.43,3712.73 2514.16,3634.48 2700.88,3576.06 2887.61,3600.42 3074.33,3606.22 
  "/>
<path clip-path="url(#clip230)" d="
M2419.79 3704.66 L3060.39 3704.66 L3060.39 3583.7 L2419.79 3583.7  Z
  " fill="#ffffff" fill-rule="evenodd" fill-opacity="1"/>
<polyline clip-path="url(#clip230)" style="stroke:#000000; stroke-width:4; stroke-opacity:1; fill:none" points="
  2419.79,3704.66 3060.39,3704.66 3060.39,3583.7 2419.79,3583.7 2419.79,3704.66 
  "/>
<polyline clip-path="url(#clip230)" style="stroke:#009af9; stroke-width:4; stroke-opacity:1; fill:none" points="
  2450.58,3644.18 2635.32,3644.18 
  "/>
<path clip-path="url(#clip230)" d="M 0 0 M2686.45 3640.51 Q2688.05 3637.64 2690.27 3636.27 Q2692.49 3634.91 2695.5 3634.91 Q2699.55 3634.91 2701.75 3637.76 Q2703.95 3640.58 2703.95 3645.81 L2703.95 3661.46 L2699.67 3661.46 L2699.67 3645.95 Q2699.67 3642.22 2698.35 3640.42 Q2697.03 3638.61 2694.32 3638.61 Q2691.01 3638.61 2689.09 3640.81 Q2687.17 3643.01 2687.17 3646.81 L2687.17 3661.46 L2682.89 3661.46 L2682.89 3645.95 Q2682.89 3642.2 2681.57 3640.42 Q2680.25 3638.61 2677.49 3638.61 Q2674.23 3638.61 2672.31 3640.83 Q2670.39 3643.03 2670.39 3646.81 L2670.39 3661.46 L2666.11 3661.46 L2666.11 3635.53 L2670.39 3635.53 L2670.39 3639.56 Q2671.85 3637.18 2673.88 3636.04 Q2675.92 3634.91 2678.72 3634.91 Q2681.55 3634.91 2683.51 3636.34 Q2685.5 3637.78 2686.45 3640.51 Z" fill="#000000" fill-rule="evenodd" fill-opacity="1" /><path clip-path="url(#clip230)" d="M 0 0 M2724.23 3648.43 Q2719.07 3648.43 2717.08 3649.61 Q2715.09 3650.79 2715.09 3653.63 Q2715.09 3655.9 2716.57 3657.25 Q2718.07 3658.57 2720.64 3658.57 Q2724.18 3658.57 2726.31 3656.07 Q2728.47 3653.54 2728.47 3649.38 L2728.47 3648.43 L2724.23 3648.43 M2732.73 3646.67 L2732.73 3661.46 L2728.47 3661.46 L2728.47 3657.52 Q2727.01 3659.88 2724.83 3661.02 Q2722.66 3662.13 2719.51 3662.13 Q2715.53 3662.13 2713.17 3659.91 Q2710.83 3657.66 2710.83 3653.91 Q2710.83 3649.54 2713.74 3647.32 Q2716.68 3645.09 2722.49 3645.09 L2728.47 3645.09 L2728.47 3644.68 Q2728.47 3641.74 2726.52 3640.14 Q2724.6 3638.52 2721.11 3638.52 Q2718.88 3638.52 2716.78 3639.05 Q2714.67 3639.58 2712.73 3640.65 L2712.73 3636.71 Q2715.06 3635.81 2717.26 3635.37 Q2719.46 3634.91 2721.54 3634.91 Q2727.17 3634.91 2729.95 3637.82 Q2732.73 3640.74 2732.73 3646.67 Z" fill="#000000" fill-rule="evenodd" fill-opacity="1" /><path clip-path="url(#clip230)" d="M 0 0 M2758.56 3648.2 Q2758.56 3643.57 2756.64 3641.02 Q2754.74 3638.47 2751.29 3638.47 Q2747.86 3638.47 2745.94 3641.02 Q2744.04 3643.57 2744.04 3648.2 Q2744.04 3652.8 2745.94 3655.35 Q2747.86 3657.89 2751.29 3657.89 Q2754.74 3657.89 2756.64 3655.35 Q2758.56 3652.8 2758.56 3648.2 M2762.82 3658.24 Q2762.82 3664.86 2759.88 3668.08 Q2756.94 3671.32 2750.87 3671.32 Q2748.63 3671.32 2746.64 3670.97 Q2744.65 3670.65 2742.77 3669.95 L2742.77 3665.81 Q2744.65 3666.83 2746.48 3667.32 Q2748.3 3667.8 2750.2 3667.8 Q2754.39 3667.8 2756.48 3665.6 Q2758.56 3663.43 2758.56 3659.01 L2758.56 3656.9 Q2757.24 3659.19 2755.18 3660.32 Q2753.12 3661.46 2750.25 3661.46 Q2745.48 3661.46 2742.56 3657.82 Q2739.65 3654.19 2739.65 3648.2 Q2739.65 3642.18 2742.56 3638.54 Q2745.48 3634.91 2750.25 3634.91 Q2753.12 3634.91 2755.18 3636.04 Q2757.24 3637.18 2758.56 3639.47 L2758.56 3635.53 L2762.82 3635.53 L2762.82 3658.24 Z" fill="#000000" fill-rule="evenodd" fill-opacity="1" /><path clip-path="url(#clip230)" d="M 0 0 M2793.14 3645.81 L2793.14 3661.46 L2788.88 3661.46 L2788.88 3645.95 Q2788.88 3642.27 2787.45 3640.44 Q2786.01 3638.61 2783.14 3638.61 Q2779.69 3638.61 2777.7 3640.81 Q2775.71 3643.01 2775.71 3646.81 L2775.71 3661.46 L2771.43 3661.46 L2771.43 3635.53 L2775.71 3635.53 L2775.71 3639.56 Q2777.24 3637.22 2779.3 3636.07 Q2781.38 3634.91 2784.09 3634.91 Q2788.56 3634.91 2790.85 3637.69 Q2793.14 3640.44 2793.14 3645.81 Z" fill="#000000" fill-rule="evenodd" fill-opacity="1" /><path clip-path="url(#clip230)" d="M 0 0 M2823.81 3647.43 L2823.81 3649.51 L2804.23 3649.51 Q2804.51 3653.91 2806.87 3656.23 Q2809.25 3658.52 2813.49 3658.52 Q2815.94 3658.52 2818.23 3657.92 Q2820.55 3657.32 2822.82 3656.11 L2822.82 3660.14 Q2820.53 3661.11 2818.12 3661.62 Q2815.71 3662.13 2813.23 3662.13 Q2807.03 3662.13 2803.4 3658.52 Q2799.79 3654.91 2799.79 3648.75 Q2799.79 3642.38 2803.21 3638.66 Q2806.66 3634.91 2812.49 3634.91 Q2817.72 3634.91 2820.76 3638.29 Q2823.81 3641.64 2823.81 3647.43 M2819.55 3646.18 Q2819.51 3642.69 2817.59 3640.6 Q2815.69 3638.52 2812.54 3638.52 Q2808.97 3638.52 2806.82 3640.53 Q2804.69 3642.55 2804.37 3646.2 L2819.55 3646.18 Z" fill="#000000" fill-rule="evenodd" fill-opacity="1" /><path clip-path="url(#clip230)" d="M 0 0 M2835.02 3628.17 L2835.02 3635.53 L2843.79 3635.53 L2843.79 3638.84 L2835.02 3638.84 L2835.02 3652.92 Q2835.02 3656.09 2835.87 3656.99 Q2836.75 3657.89 2839.41 3657.89 L2843.79 3657.89 L2843.79 3661.46 L2839.41 3661.46 Q2834.48 3661.46 2832.61 3659.63 Q2830.73 3657.78 2830.73 3652.92 L2830.73 3638.84 L2827.61 3638.84 L2827.61 3635.53 L2830.73 3635.53 L2830.73 3628.17 L2835.02 3628.17 Z" fill="#000000" fill-rule="evenodd" fill-opacity="1" /><path clip-path="url(#clip230)" d="M 0 0 M2849.39 3635.53 L2853.65 3635.53 L2853.65 3661.46 L2849.39 3661.46 L2849.39 3635.53 M2849.39 3625.44 L2853.65 3625.44 L2853.65 3630.83 L2849.39 3630.83 L2849.39 3625.44 Z" fill="#000000" fill-rule="evenodd" fill-opacity="1" /><path clip-path="url(#clip230)" d="M 0 0 M2860.71 3635.53 L2880.94 3635.53 L2880.94 3639.42 L2864.92 3658.06 L2880.94 3658.06 L2880.94 3661.46 L2860.13 3661.46 L2860.13 3657.57 L2876.15 3638.94 L2860.71 3638.94 L2860.71 3635.53 Z" fill="#000000" fill-rule="evenodd" fill-opacity="1" /><path clip-path="url(#clip230)" d="M 0 0 M2899.23 3648.43 Q2894.07 3648.43 2892.08 3649.61 Q2890.09 3650.79 2890.09 3653.63 Q2890.09 3655.9 2891.57 3657.25 Q2893.07 3658.57 2895.64 3658.57 Q2899.18 3658.57 2901.31 3656.07 Q2903.47 3653.54 2903.47 3649.38 L2903.47 3648.43 L2899.23 3648.43 M2907.72 3646.67 L2907.72 3661.46 L2903.47 3661.46 L2903.47 3657.52 Q2902.01 3659.88 2899.83 3661.02 Q2897.66 3662.13 2894.51 3662.13 Q2890.53 3662.13 2888.16 3659.91 Q2885.83 3657.66 2885.83 3653.91 Q2885.83 3649.54 2888.74 3647.32 Q2891.68 3645.09 2897.49 3645.09 L2903.47 3645.09 L2903.47 3644.68 Q2903.47 3641.74 2901.52 3640.14 Q2899.6 3638.52 2896.1 3638.52 Q2893.88 3638.52 2891.78 3639.05 Q2889.67 3639.58 2887.72 3640.65 L2887.72 3636.71 Q2890.06 3635.81 2892.26 3635.37 Q2894.46 3634.91 2896.54 3634.91 Q2902.17 3634.91 2904.95 3637.82 Q2907.72 3640.74 2907.72 3646.67 Z" fill="#000000" fill-rule="evenodd" fill-opacity="1" /><path clip-path="url(#clip230)" d="M 0 0 M2920.71 3628.17 L2920.71 3635.53 L2929.48 3635.53 L2929.48 3638.84 L2920.71 3638.84 L2920.71 3652.92 Q2920.71 3656.09 2921.57 3656.99 Q2922.45 3657.89 2925.11 3657.89 L2929.48 3657.89 L2929.48 3661.46 L2925.11 3661.46 Q2920.18 3661.46 2918.3 3659.63 Q2916.43 3657.78 2916.43 3652.92 L2916.43 3638.84 L2913.3 3638.84 L2913.3 3635.53 L2916.43 3635.53 L2916.43 3628.17 L2920.71 3628.17 Z" fill="#000000" fill-rule="evenodd" fill-opacity="1" /><path clip-path="url(#clip230)" d="M 0 0 M2935.09 3635.53 L2939.34 3635.53 L2939.34 3661.46 L2935.09 3661.46 L2935.09 3635.53 M2935.09 3625.44 L2939.34 3625.44 L2939.34 3630.83 L2935.09 3630.83 L2935.09 3625.44 Z" fill="#000000" fill-rule="evenodd" fill-opacity="1" /><path clip-path="url(#clip230)" d="M 0 0 M2958.3 3638.52 Q2954.88 3638.52 2952.89 3641.2 Q2950.9 3643.87 2950.9 3648.52 Q2950.9 3653.17 2952.86 3655.86 Q2954.85 3658.52 2958.3 3658.52 Q2961.71 3658.52 2963.7 3655.83 Q2965.69 3653.15 2965.69 3648.52 Q2965.69 3643.91 2963.7 3641.23 Q2961.71 3638.52 2958.3 3638.52 M2958.3 3634.91 Q2963.86 3634.91 2967.03 3638.52 Q2970.2 3642.13 2970.2 3648.52 Q2970.2 3654.88 2967.03 3658.52 Q2963.86 3662.13 2958.3 3662.13 Q2952.72 3662.13 2949.55 3658.52 Q2946.4 3654.88 2946.4 3648.52 Q2946.4 3642.13 2949.55 3638.52 Q2952.72 3634.91 2958.3 3634.91 Z" fill="#000000" fill-rule="evenodd" fill-opacity="1" /><path clip-path="url(#clip230)" d="M 0 0 M2998.81 3645.81 L2998.81 3661.46 L2994.55 3661.46 L2994.55 3645.95 Q2994.55 3642.27 2993.12 3640.44 Q2991.68 3638.61 2988.81 3638.61 Q2985.36 3638.61 2983.37 3640.81 Q2981.38 3643.01 2981.38 3646.81 L2981.38 3661.46 L2977.1 3661.46 L2977.1 3635.53 L2981.38 3635.53 L2981.38 3639.56 Q2982.91 3637.22 2984.97 3636.07 Q2987.05 3634.91 2989.76 3634.91 Q2994.23 3634.91 2996.52 3637.69 Q2998.81 3640.44 2998.81 3645.81 Z" fill="#000000" fill-rule="evenodd" fill-opacity="1" /></svg>
