<?xml version="1.0" encoding="utf-8"?>
<svg xmlns="http://www.w3.org/2000/svg" xmlns:xlink="http://www.w3.org/1999/xlink" width="600" height="400" viewBox="0 0 2400 1600">
<defs>
  <clipPath id="clip910">
    <rect x="0" y="0" width="2400" height="1600"/>
  </clipPath>
</defs>
<path clip-path="url(#clip910)" d="
M0 1600 L2400 1600 L2400 0 L0 0  Z
  " fill="#ffffff" fill-rule="evenodd" fill-opacity="1"/>
<defs>
  <clipPath id="clip911">
    <rect x="480" y="0" width="1681" height="1600"/>
  </clipPath>
</defs>
<path clip-path="url(#clip910)" d="
M587.366 1423.18 L2352.76 1423.18 L2352.76 123.472 L587.366 123.472  Z
  " fill="#ffffff" fill-rule="evenodd" fill-opacity="1"/>
<defs>
  <clipPath id="clip912">
    <rect x="587" y="123" width="1766" height="1301"/>
  </clipPath>
</defs>
<polyline clip-path="url(#clip912)" style="stroke:#000000; stroke-width:2; stroke-opacity:0.1; fill:none" points="
  637.33,1423.18 637.33,123.472 
  "/>
<polyline clip-path="url(#clip912)" style="stroke:#000000; stroke-width:2; stroke-opacity:0.1; fill:none" points="
  1192.48,1423.18 1192.48,123.472 
  "/>
<polyline clip-path="url(#clip912)" style="stroke:#000000; stroke-width:2; stroke-opacity:0.1; fill:none" points="
  1747.64,1423.18 1747.64,123.472 
  "/>
<polyline clip-path="url(#clip912)" style="stroke:#000000; stroke-width:2; stroke-opacity:0.1; fill:none" points="
  2302.79,1423.18 2302.79,123.472 
  "/>
<polyline clip-path="url(#clip910)" style="stroke:#000000; stroke-width:4; stroke-opacity:1; fill:none" points="
  587.366,1423.18 2352.76,1423.18 
  "/>
<polyline clip-path="url(#clip910)" style="stroke:#000000; stroke-width:4; stroke-opacity:1; fill:none" points="
  637.33,1423.18 637.33,1407.58 
  "/>
<polyline clip-path="url(#clip910)" style="stroke:#000000; stroke-width:4; stroke-opacity:1; fill:none" points="
  1192.48,1423.18 1192.48,1407.58 
  "/>
<polyline clip-path="url(#clip910)" style="stroke:#000000; stroke-width:4; stroke-opacity:1; fill:none" points="
  1747.64,1423.18 1747.64,1407.58 
  "/>
<polyline clip-path="url(#clip910)" style="stroke:#000000; stroke-width:4; stroke-opacity:1; fill:none" points="
  2302.79,1423.18 2302.79,1407.58 
  "/>
<path clip-path="url(#clip910)" d="M 0 0 M612.029 1449.29 L630.385 1449.29 L630.385 1453.23 L616.311 1453.23 L616.311 1461.7 Q617.33 1461.35 618.348 1461.19 Q619.367 1461 620.385 1461 Q626.172 1461 629.552 1464.18 Q632.931 1467.35 632.931 1472.76 Q632.931 1478.34 629.459 1481.44 Q625.987 1484.52 619.668 1484.52 Q617.492 1484.52 615.223 1484.15 Q612.978 1483.78 610.571 1483.04 L610.571 1478.34 Q612.654 1479.48 614.876 1480.03 Q617.098 1480.59 619.575 1480.59 Q623.58 1480.59 625.918 1478.48 Q628.256 1476.38 628.256 1472.76 Q628.256 1469.15 625.918 1467.05 Q623.58 1464.94 619.575 1464.94 Q617.7 1464.94 615.825 1465.36 Q613.973 1465.77 612.029 1466.65 L612.029 1449.29 Z" fill="#000000" fill-rule="evenodd" fill-opacity="1" /><path clip-path="url(#clip910)" d="M 0 0 M652.144 1452.37 Q648.533 1452.37 646.705 1455.94 Q644.899 1459.48 644.899 1466.61 Q644.899 1473.71 646.705 1477.28 Q648.533 1480.82 652.144 1480.82 Q655.779 1480.82 657.584 1477.28 Q659.413 1473.71 659.413 1466.61 Q659.413 1459.48 657.584 1455.94 Q655.779 1452.37 652.144 1452.37 M652.144 1448.67 Q657.955 1448.67 661.01 1453.27 Q664.089 1457.86 664.089 1466.61 Q664.089 1475.33 661.01 1479.94 Q657.955 1484.52 652.144 1484.52 Q646.334 1484.52 643.256 1479.94 Q640.2 1475.33 640.2 1466.61 Q640.2 1457.86 643.256 1453.27 Q646.334 1448.67 652.144 1448.67 Z" fill="#000000" fill-rule="evenodd" fill-opacity="1" /><path clip-path="url(#clip910)" d="M 0 0 M1177.89 1464.71 Q1174.74 1464.71 1172.89 1466.86 Q1171.06 1469.01 1171.06 1472.76 Q1171.06 1476.49 1172.89 1478.67 Q1174.74 1480.82 1177.89 1480.82 Q1181.04 1480.82 1182.87 1478.67 Q1184.72 1476.49 1184.72 1472.76 Q1184.72 1469.01 1182.87 1466.86 Q1181.04 1464.71 1177.89 1464.71 M1187.17 1450.06 L1187.17 1454.31 Q1185.41 1453.48 1183.61 1453.04 Q1181.82 1452.6 1180.06 1452.6 Q1175.44 1452.6 1172.98 1455.73 Q1170.55 1458.85 1170.2 1465.17 Q1171.57 1463.16 1173.63 1462.09 Q1175.69 1461 1178.17 1461 Q1183.38 1461 1186.38 1464.18 Q1189.42 1467.32 1189.42 1472.76 Q1189.42 1478.09 1186.27 1481.31 Q1183.12 1484.52 1177.89 1484.52 Q1171.89 1484.52 1168.72 1479.94 Q1165.55 1475.33 1165.55 1466.61 Q1165.55 1458.41 1169.44 1453.55 Q1173.33 1448.67 1179.88 1448.67 Q1181.64 1448.67 1183.42 1449.01 Q1185.23 1449.36 1187.17 1450.06 Z" fill="#000000" fill-rule="evenodd" fill-opacity="1" /><path clip-path="url(#clip910)" d="M 0 0 M1207.47 1452.37 Q1203.86 1452.37 1202.03 1455.94 Q1200.23 1459.48 1200.23 1466.61 Q1200.23 1473.71 1202.03 1477.28 Q1203.86 1480.82 1207.47 1480.82 Q1211.11 1480.82 1212.91 1477.28 Q1214.74 1473.71 1214.74 1466.61 Q1214.74 1459.48 1212.91 1455.94 Q1211.11 1452.37 1207.47 1452.37 M1207.47 1448.67 Q1213.28 1448.67 1216.34 1453.27 Q1219.42 1457.86 1219.42 1466.61 Q1219.42 1475.33 1216.34 1479.94 Q1213.28 1484.52 1207.47 1484.52 Q1201.66 1484.52 1198.58 1479.94 Q1195.53 1475.33 1195.53 1466.61 Q1195.53 1457.86 1198.58 1453.27 Q1201.66 1448.67 1207.47 1448.67 Z" fill="#000000" fill-rule="evenodd" fill-opacity="1" /><path clip-path="url(#clip910)" d="M 0 0 M1720.99 1449.29 L1743.22 1449.29 L1743.22 1451.28 L1730.67 1483.85 L1725.79 1483.85 L1737.59 1453.23 L1720.99 1453.23 L1720.99 1449.29 Z" fill="#000000" fill-rule="evenodd" fill-opacity="1" /><path clip-path="url(#clip910)" d="M 0 0 M1762.34 1452.37 Q1758.73 1452.37 1756.9 1455.94 Q1755.09 1459.48 1755.09 1466.61 Q1755.09 1473.71 1756.9 1477.28 Q1758.73 1480.82 1762.34 1480.82 Q1765.97 1480.82 1767.78 1477.28 Q1769.61 1473.71 1769.61 1466.61 Q1769.61 1459.48 1767.78 1455.94 Q1765.97 1452.37 1762.34 1452.37 M1762.34 1448.67 Q1768.15 1448.67 1771.2 1453.27 Q1774.28 1457.86 1774.28 1466.61 Q1774.28 1475.33 1771.2 1479.94 Q1768.15 1484.52 1762.34 1484.52 Q1756.53 1484.52 1753.45 1479.94 Q1750.39 1475.33 1750.39 1466.61 Q1750.39 1457.86 1753.45 1453.27 Q1756.53 1448.67 1762.34 1448.67 Z" fill="#000000" fill-rule="evenodd" fill-opacity="1" /><path clip-path="url(#clip910)" d="M 0 0 M2287.66 1467.44 Q2284.33 1467.44 2282.41 1469.22 Q2280.51 1471 2280.51 1474.13 Q2280.51 1477.25 2282.41 1479.04 Q2284.33 1480.82 2287.66 1480.82 Q2291 1480.82 2292.92 1479.04 Q2294.84 1477.23 2294.84 1474.13 Q2294.84 1471 2292.92 1469.22 Q2291.02 1467.44 2287.66 1467.44 M2282.99 1465.45 Q2279.98 1464.71 2278.29 1462.65 Q2276.62 1460.59 2276.62 1457.63 Q2276.62 1453.48 2279.56 1451.07 Q2282.53 1448.67 2287.66 1448.67 Q2292.83 1448.67 2295.77 1451.07 Q2298.71 1453.48 2298.71 1457.63 Q2298.71 1460.59 2297.02 1462.65 Q2295.35 1464.71 2292.36 1465.45 Q2295.74 1466.24 2297.62 1468.53 Q2299.52 1470.82 2299.52 1474.13 Q2299.52 1479.15 2296.44 1481.84 Q2293.38 1484.52 2287.66 1484.52 Q2281.95 1484.52 2278.87 1481.84 Q2275.81 1479.15 2275.81 1474.13 Q2275.81 1470.82 2277.71 1468.53 Q2279.61 1466.24 2282.99 1465.45 M2281.28 1458.06 Q2281.28 1460.75 2282.94 1462.25 Q2284.63 1463.76 2287.66 1463.76 Q2290.67 1463.76 2292.36 1462.25 Q2294.08 1460.75 2294.08 1458.06 Q2294.08 1455.38 2292.36 1453.88 Q2290.67 1452.37 2287.66 1452.37 Q2284.63 1452.37 2282.94 1453.88 Q2281.28 1455.38 2281.28 1458.06 Z" fill="#000000" fill-rule="evenodd" fill-opacity="1" /><path clip-path="url(#clip910)" d="M 0 0 M2317.83 1452.37 Q2314.22 1452.37 2312.39 1455.94 Q2310.58 1459.48 2310.58 1466.61 Q2310.58 1473.71 2312.39 1477.28 Q2314.22 1480.82 2317.83 1480.82 Q2321.46 1480.82 2323.27 1477.28 Q2325.1 1473.71 2325.1 1466.61 Q2325.1 1459.48 2323.27 1455.94 Q2321.46 1452.37 2317.83 1452.37 M2317.83 1448.67 Q2323.64 1448.67 2326.69 1453.27 Q2329.77 1457.86 2329.77 1466.61 Q2329.77 1475.33 2326.69 1479.94 Q2323.64 1484.52 2317.83 1484.52 Q2312.02 1484.52 2308.94 1479.94 Q2305.88 1475.33 2305.88 1466.61 Q2305.88 1457.86 2308.94 1453.27 Q2312.02 1448.67 2317.83 1448.67 Z" fill="#000000" fill-rule="evenodd" fill-opacity="1" /><path clip-path="url(#clip910)" d="M 0 0 M1474.53 1576 L1469.79 1563.81 L1460.02 1581.63 L1453.11 1581.63 L1466.93 1556.43 L1461.13 1541.44 Q1459.57 1537.42 1454.67 1537.42 L1453.11 1537.42 L1453.11 1532.4 L1455.34 1532.46 Q1463.55 1532.68 1465.62 1538 L1470.33 1550.19 L1480.1 1532.36 L1487.01 1532.36 L1473.2 1557.57 L1478.99 1572.56 Q1480.55 1576.57 1485.45 1576.57 L1487.01 1576.57 L1487.01 1581.6 L1484.78 1581.54 Q1476.57 1581.32 1474.53 1576 Z" fill="#000000" fill-rule="evenodd" fill-opacity="1" /><polyline clip-path="url(#clip912)" style="stroke:#000000; stroke-width:2; stroke-opacity:0.1; fill:none" points="
  587.366,1293.16 2352.76,1293.16 
  "/>
<polyline clip-path="url(#clip912)" style="stroke:#000000; stroke-width:2; stroke-opacity:0.1; fill:none" points="
  587.366,1040.55 2352.76,1040.55 
  "/>
<polyline clip-path="url(#clip912)" style="stroke:#000000; stroke-width:2; stroke-opacity:0.1; fill:none" points="
  587.366,787.936 2352.76,787.936 
  "/>
<polyline clip-path="url(#clip912)" style="stroke:#000000; stroke-width:2; stroke-opacity:0.1; fill:none" points="
  587.366,535.321 2352.76,535.321 
  "/>
<polyline clip-path="url(#clip912)" style="stroke:#000000; stroke-width:2; stroke-opacity:0.1; fill:none" points="
  587.366,282.707 2352.76,282.707 
  "/>
<polyline clip-path="url(#clip910)" style="stroke:#000000; stroke-width:4; stroke-opacity:1; fill:none" points="
  587.366,1423.18 587.366,123.472 
  "/>
<polyline clip-path="url(#clip910)" style="stroke:#000000; stroke-width:4; stroke-opacity:1; fill:none" points="
  587.366,1293.16 608.55,1293.16 
  "/>
<polyline clip-path="url(#clip910)" style="stroke:#000000; stroke-width:4; stroke-opacity:1; fill:none" points="
  587.366,1040.55 608.55,1040.55 
  "/>
<polyline clip-path="url(#clip910)" style="stroke:#000000; stroke-width:4; stroke-opacity:1; fill:none" points="
  587.366,787.936 608.55,787.936 
  "/>
<polyline clip-path="url(#clip910)" style="stroke:#000000; stroke-width:4; stroke-opacity:1; fill:none" points="
  587.366,535.321 608.55,535.321 
  "/>
<polyline clip-path="url(#clip910)" style="stroke:#000000; stroke-width:4; stroke-opacity:1; fill:none" points="
  587.366,282.707 608.55,282.707 
  "/>
<path clip-path="url(#clip910)" d="M 0 0 M114.26 1300.06 L143.936 1300.06 L143.936 1304 L114.26 1304 L114.26 1300.06 Z" fill="#000000" fill-rule="evenodd" fill-opacity="1" /><path clip-path="url(#clip910)" d="M 0 0 M154.075 1282.33 L172.431 1282.33 L172.431 1286.27 L158.357 1286.27 L158.357 1294.74 Q159.376 1294.39 160.394 1294.23 Q161.413 1294.04 162.431 1294.04 Q168.218 1294.04 171.598 1297.22 Q174.977 1300.39 174.977 1305.8 Q174.977 1311.38 171.505 1314.48 Q168.033 1317.56 161.714 1317.56 Q159.538 1317.56 157.269 1317.19 Q155.024 1316.82 152.616 1316.08 L152.616 1311.38 Q154.7 1312.52 156.922 1313.07 Q159.144 1313.63 161.621 1313.63 Q165.626 1313.63 167.964 1311.52 Q170.302 1309.42 170.302 1305.8 Q170.302 1302.19 167.964 1300.09 Q165.626 1297.98 161.621 1297.98 Q159.746 1297.98 157.871 1298.4 Q156.019 1298.81 154.075 1299.69 L154.075 1282.33 Z" fill="#000000" fill-rule="evenodd" fill-opacity="1" /><path clip-path="url(#clip910)" d="M 0 0 M184.19 1311.01 L189.075 1311.01 L189.075 1316.89 L184.19 1316.89 L184.19 1311.01 Z" fill="#000000" fill-rule="evenodd" fill-opacity="1" /><path clip-path="url(#clip910)" d="M 0 0 M198.079 1282.33 L220.301 1282.33 L220.301 1284.32 L207.755 1316.89 L202.871 1316.89 L214.676 1286.27 L198.079 1286.27 L198.079 1282.33 Z" fill="#000000" fill-rule="evenodd" fill-opacity="1" /><path clip-path="url(#clip910)" d="M 0 0 M240 1297.75 Q236.852 1297.75 235 1299.9 Q233.172 1302.05 233.172 1305.8 Q233.172 1309.53 235 1311.71 Q236.852 1313.86 240 1313.86 Q243.148 1313.86 244.977 1311.71 Q246.829 1309.53 246.829 1305.8 Q246.829 1302.05 244.977 1299.9 Q243.148 1297.75 240 1297.75 M249.283 1283.1 L249.283 1287.35 Q247.523 1286.52 245.718 1286.08 Q243.935 1285.64 242.176 1285.64 Q237.547 1285.64 235.093 1288.77 Q232.662 1291.89 232.315 1298.21 Q233.681 1296.2 235.741 1295.13 Q237.801 1294.04 240.278 1294.04 Q245.486 1294.04 248.496 1297.22 Q251.528 1300.36 251.528 1305.8 Q251.528 1311.13 248.38 1314.35 Q245.232 1317.56 240 1317.56 Q234.005 1317.56 230.834 1312.98 Q227.662 1308.37 227.662 1299.65 Q227.662 1291.45 231.551 1286.59 Q235.44 1281.71 241.991 1281.71 Q243.75 1281.71 245.533 1282.05 Q247.338 1282.4 249.283 1283.1 Z" fill="#000000" fill-rule="evenodd" fill-opacity="1" /><path clip-path="url(#clip910)" d="M 0 0 M260.394 1312.96 L268.032 1312.96 L268.032 1286.59 L259.722 1288.26 L259.722 1284 L267.986 1282.33 L272.662 1282.33 L272.662 1312.96 L280.301 1312.96 L280.301 1316.89 L260.394 1316.89 L260.394 1312.96 Z" fill="#000000" fill-rule="evenodd" fill-opacity="1" /><path clip-path="url(#clip910)" d="M 0 0 M300.324 1297.75 Q297.176 1297.75 295.324 1299.9 Q293.495 1302.05 293.495 1305.8 Q293.495 1309.53 295.324 1311.71 Q297.176 1313.86 300.324 1313.86 Q303.472 1313.86 305.301 1311.71 Q307.153 1309.53 307.153 1305.8 Q307.153 1302.05 305.301 1299.9 Q303.472 1297.75 300.324 1297.75 M309.606 1283.1 L309.606 1287.35 Q307.847 1286.52 306.042 1286.08 Q304.259 1285.64 302.5 1285.64 Q297.87 1285.64 295.417 1288.77 Q292.986 1291.89 292.639 1298.21 Q294.005 1296.2 296.065 1295.13 Q298.125 1294.04 300.602 1294.04 Q305.81 1294.04 308.819 1297.22 Q311.852 1300.36 311.852 1305.8 Q311.852 1311.13 308.704 1314.35 Q305.555 1317.56 300.324 1317.56 Q294.329 1317.56 291.157 1312.98 Q287.986 1308.37 287.986 1299.65 Q287.986 1291.45 291.875 1286.59 Q295.764 1281.71 302.315 1281.71 Q304.074 1281.71 305.856 1282.05 Q307.662 1282.4 309.606 1283.1 Z" fill="#000000" fill-rule="evenodd" fill-opacity="1" /><path clip-path="url(#clip910)" d="M 0 0 M329.907 1285.41 Q326.296 1285.41 324.467 1288.98 Q322.662 1292.52 322.662 1299.65 Q322.662 1306.75 324.467 1310.32 Q326.296 1313.86 329.907 1313.86 Q333.541 1313.86 335.347 1310.32 Q337.176 1306.75 337.176 1299.65 Q337.176 1292.52 335.347 1288.98 Q333.541 1285.41 329.907 1285.41 M329.907 1281.71 Q335.717 1281.71 338.773 1286.31 Q341.852 1290.9 341.852 1299.65 Q341.852 1308.37 338.773 1312.98 Q335.717 1317.56 329.907 1317.56 Q324.097 1317.56 321.018 1312.98 Q317.963 1308.37 317.963 1299.65 Q317.963 1290.9 321.018 1286.31 Q324.097 1281.71 329.907 1281.71 Z" fill="#000000" fill-rule="evenodd" fill-opacity="1" /><path clip-path="url(#clip910)" d="M 0 0 M354.097 1312.96 L370.416 1312.96 L370.416 1316.89 L348.472 1316.89 L348.472 1312.96 Q351.134 1310.2 355.717 1305.57 Q360.324 1300.92 361.504 1299.58 Q363.75 1297.05 364.629 1295.32 Q365.532 1293.56 365.532 1291.87 Q365.532 1289.11 363.588 1287.38 Q361.666 1285.64 358.564 1285.64 Q356.365 1285.64 353.912 1286.41 Q351.481 1287.17 348.703 1288.72 L348.703 1284 Q351.527 1282.86 353.981 1282.29 Q356.435 1281.71 358.472 1281.71 Q363.842 1281.71 367.037 1284.39 Q370.231 1287.08 370.231 1291.57 Q370.231 1293.7 369.421 1295.62 Q368.634 1297.52 366.527 1300.11 Q365.949 1300.78 362.847 1304 Q359.745 1307.19 354.097 1312.96 Z" fill="#000000" fill-rule="evenodd" fill-opacity="1" /><path clip-path="url(#clip910)" d="M 0 0 M390.231 1285.41 Q386.62 1285.41 384.791 1288.98 Q382.986 1292.52 382.986 1299.65 Q382.986 1306.75 384.791 1310.32 Q386.62 1313.86 390.231 1313.86 Q393.865 1313.86 395.671 1310.32 Q397.499 1306.75 397.499 1299.65 Q397.499 1292.52 395.671 1288.98 Q393.865 1285.41 390.231 1285.41 M390.231 1281.71 Q396.041 1281.71 399.097 1286.31 Q402.175 1290.9 402.175 1299.65 Q402.175 1308.37 399.097 1312.98 Q396.041 1317.56 390.231 1317.56 Q384.421 1317.56 381.342 1312.98 Q378.287 1308.37 378.287 1299.65 Q378.287 1290.9 381.342 1286.31 Q384.421 1281.71 390.231 1281.71 Z" fill="#000000" fill-rule="evenodd" fill-opacity="1" /><path clip-path="url(#clip910)" d="M 0 0 M438.564 1291.43 L427.985 1302.05 L438.564 1312.63 L435.809 1315.43 L425.184 1304.81 L414.559 1315.43 L411.828 1312.63 L422.384 1302.05 L411.828 1291.43 L414.559 1288.63 L425.184 1299.25 L435.809 1288.63 L438.564 1291.43 Z" fill="#000000" fill-rule="evenodd" fill-opacity="1" /><path clip-path="url(#clip910)" d="M 0 0 M450.925 1312.96 L458.564 1312.96 L458.564 1286.59 L450.254 1288.26 L450.254 1284 L458.518 1282.33 L463.193 1282.33 L463.193 1312.96 L470.832 1312.96 L470.832 1316.89 L450.925 1316.89 L450.925 1312.96 Z" fill="#000000" fill-rule="evenodd" fill-opacity="1" /><path clip-path="url(#clip910)" d="M 0 0 M490.277 1285.41 Q486.666 1285.41 484.837 1288.98 Q483.031 1292.52 483.031 1299.65 Q483.031 1306.75 484.837 1310.32 Q486.666 1313.86 490.277 1313.86 Q493.911 1313.86 495.716 1310.32 Q497.545 1306.75 497.545 1299.65 Q497.545 1292.52 495.716 1288.98 Q493.911 1285.41 490.277 1285.41 M490.277 1281.71 Q496.087 1281.71 499.142 1286.31 Q502.221 1290.9 502.221 1299.65 Q502.221 1308.37 499.142 1312.98 Q496.087 1317.56 490.277 1317.56 Q484.467 1317.56 481.388 1312.98 Q478.332 1308.37 478.332 1299.65 Q478.332 1290.9 481.388 1286.31 Q484.467 1281.71 490.277 1281.71 Z" fill="#000000" fill-rule="evenodd" fill-opacity="1" /><path clip-path="url(#clip910)" d="M 0 0 M502.221 1275.81 L526.333 1275.81 L526.333 1279.01 L502.221 1279.01 L502.221 1275.81 Z" fill="#000000" fill-rule="evenodd" fill-opacity="1" /><path clip-path="url(#clip910)" d="M 0 0 M535.191 1286.28 L541.398 1286.28 L541.398 1264.86 L534.646 1266.22 L534.646 1262.76 L541.36 1261.4 L545.159 1261.4 L545.159 1286.28 L551.366 1286.28 L551.366 1289.48 L535.191 1289.48 L535.191 1286.28 Z" fill="#000000" fill-rule="evenodd" fill-opacity="1" /><path clip-path="url(#clip910)" d="M 0 0 M114.26 1047.45 L143.936 1047.45 L143.936 1051.38 L114.26 1051.38 L114.26 1047.45 Z" fill="#000000" fill-rule="evenodd" fill-opacity="1" /><path clip-path="url(#clip910)" d="M 0 0 M154.075 1029.72 L172.431 1029.72 L172.431 1033.65 L158.357 1033.65 L158.357 1042.12 Q159.376 1041.78 160.394 1041.62 Q161.413 1041.43 162.431 1041.43 Q168.218 1041.43 171.598 1044.6 Q174.977 1047.77 174.977 1053.19 Q174.977 1058.77 171.505 1061.87 Q168.033 1064.95 161.714 1064.95 Q159.538 1064.95 157.269 1064.58 Q155.024 1064.21 152.616 1063.47 L152.616 1058.77 Q154.7 1059.9 156.922 1060.46 Q159.144 1061.01 161.621 1061.01 Q165.626 1061.01 167.964 1058.91 Q170.302 1056.8 170.302 1053.19 Q170.302 1049.58 167.964 1047.47 Q165.626 1045.37 161.621 1045.37 Q159.746 1045.37 157.871 1045.78 Q156.019 1046.2 154.075 1047.08 L154.075 1029.72 Z" fill="#000000" fill-rule="evenodd" fill-opacity="1" /><path clip-path="url(#clip910)" d="M 0 0 M184.19 1058.4 L189.075 1058.4 L189.075 1064.28 L184.19 1064.28 L184.19 1058.4 Z" fill="#000000" fill-rule="evenodd" fill-opacity="1" /><path clip-path="url(#clip910)" d="M 0 0 M198.079 1029.72 L220.301 1029.72 L220.301 1031.71 L207.755 1064.28 L202.871 1064.28 L214.676 1033.65 L198.079 1033.65 L198.079 1029.72 Z" fill="#000000" fill-rule="evenodd" fill-opacity="1" /><path clip-path="url(#clip910)" d="M 0 0 M240 1045.13 Q236.852 1045.13 235 1047.29 Q233.172 1049.44 233.172 1053.19 Q233.172 1056.92 235 1059.09 Q236.852 1061.25 240 1061.25 Q243.148 1061.25 244.977 1059.09 Q246.829 1056.92 246.829 1053.19 Q246.829 1049.44 244.977 1047.29 Q243.148 1045.13 240 1045.13 M249.283 1030.48 L249.283 1034.74 Q247.523 1033.91 245.718 1033.47 Q243.935 1033.03 242.176 1033.03 Q237.547 1033.03 235.093 1036.15 Q232.662 1039.28 232.315 1045.6 Q233.681 1043.58 235.741 1042.52 Q237.801 1041.43 240.278 1041.43 Q245.486 1041.43 248.496 1044.6 Q251.528 1047.75 251.528 1053.19 Q251.528 1058.51 248.38 1061.73 Q245.232 1064.95 240 1064.95 Q234.005 1064.95 230.834 1060.37 Q227.662 1055.76 227.662 1047.03 Q227.662 1038.84 231.551 1033.98 Q235.44 1029.09 241.991 1029.09 Q243.75 1029.09 245.533 1029.44 Q247.338 1029.79 249.283 1030.48 Z" fill="#000000" fill-rule="evenodd" fill-opacity="1" /><path clip-path="url(#clip910)" d="M 0 0 M260.394 1060.34 L268.032 1060.34 L268.032 1033.98 L259.722 1035.64 L259.722 1031.38 L267.986 1029.72 L272.662 1029.72 L272.662 1060.34 L280.301 1060.34 L280.301 1064.28 L260.394 1064.28 L260.394 1060.34 Z" fill="#000000" fill-rule="evenodd" fill-opacity="1" /><path clip-path="url(#clip910)" d="M 0 0 M300.324 1045.13 Q297.176 1045.13 295.324 1047.29 Q293.495 1049.44 293.495 1053.19 Q293.495 1056.92 295.324 1059.09 Q297.176 1061.25 300.324 1061.25 Q303.472 1061.25 305.301 1059.09 Q307.153 1056.92 307.153 1053.19 Q307.153 1049.44 305.301 1047.29 Q303.472 1045.13 300.324 1045.13 M309.606 1030.48 L309.606 1034.74 Q307.847 1033.91 306.042 1033.47 Q304.259 1033.03 302.5 1033.03 Q297.87 1033.03 295.417 1036.15 Q292.986 1039.28 292.639 1045.6 Q294.005 1043.58 296.065 1042.52 Q298.125 1041.43 300.602 1041.43 Q305.81 1041.43 308.819 1044.6 Q311.852 1047.75 311.852 1053.19 Q311.852 1058.51 308.704 1061.73 Q305.555 1064.95 300.324 1064.95 Q294.329 1064.95 291.157 1060.37 Q287.986 1055.76 287.986 1047.03 Q287.986 1038.84 291.875 1033.98 Q295.764 1029.09 302.315 1029.09 Q304.074 1029.09 305.856 1029.44 Q307.662 1029.79 309.606 1030.48 Z" fill="#000000" fill-rule="evenodd" fill-opacity="1" /><path clip-path="url(#clip910)" d="M 0 0 M329.907 1032.8 Q326.296 1032.8 324.467 1036.36 Q322.662 1039.9 322.662 1047.03 Q322.662 1054.14 324.467 1057.7 Q326.296 1061.25 329.907 1061.25 Q333.541 1061.25 335.347 1057.7 Q337.176 1054.14 337.176 1047.03 Q337.176 1039.9 335.347 1036.36 Q333.541 1032.8 329.907 1032.8 M329.907 1029.09 Q335.717 1029.09 338.773 1033.7 Q341.852 1038.28 341.852 1047.03 Q341.852 1055.76 338.773 1060.37 Q335.717 1064.95 329.907 1064.95 Q324.097 1064.95 321.018 1060.37 Q317.963 1055.76 317.963 1047.03 Q317.963 1038.28 321.018 1033.7 Q324.097 1029.09 329.907 1029.09 Z" fill="#000000" fill-rule="evenodd" fill-opacity="1" /><path clip-path="url(#clip910)" d="M 0 0 M360.069 1032.8 Q356.458 1032.8 354.629 1036.36 Q352.824 1039.9 352.824 1047.03 Q352.824 1054.14 354.629 1057.7 Q356.458 1061.25 360.069 1061.25 Q363.703 1061.25 365.509 1057.7 Q367.338 1054.14 367.338 1047.03 Q367.338 1039.9 365.509 1036.36 Q363.703 1032.8 360.069 1032.8 M360.069 1029.09 Q365.879 1029.09 368.935 1033.7 Q372.013 1038.28 372.013 1047.03 Q372.013 1055.76 368.935 1060.37 Q365.879 1064.95 360.069 1064.95 Q354.259 1064.95 351.18 1060.37 Q348.125 1055.76 348.125 1047.03 Q348.125 1038.28 351.18 1033.7 Q354.259 1029.09 360.069 1029.09 Z" fill="#000000" fill-rule="evenodd" fill-opacity="1" /><path clip-path="url(#clip910)" d="M 0 0 M390.231 1032.8 Q386.62 1032.8 384.791 1036.36 Q382.986 1039.9 382.986 1047.03 Q382.986 1054.14 384.791 1057.7 Q386.62 1061.25 390.231 1061.25 Q393.865 1061.25 395.671 1057.7 Q397.499 1054.14 397.499 1047.03 Q397.499 1039.9 395.671 1036.36 Q393.865 1032.8 390.231 1032.8 M390.231 1029.09 Q396.041 1029.09 399.097 1033.7 Q402.175 1038.28 402.175 1047.03 Q402.175 1055.76 399.097 1060.37 Q396.041 1064.95 390.231 1064.95 Q384.421 1064.95 381.342 1060.37 Q378.287 1055.76 378.287 1047.03 Q378.287 1038.28 381.342 1033.7 Q384.421 1029.09 390.231 1029.09 Z" fill="#000000" fill-rule="evenodd" fill-opacity="1" /><path clip-path="url(#clip910)" d="M 0 0 M438.564 1038.81 L427.985 1049.44 L438.564 1060.02 L435.809 1062.82 L425.184 1052.19 L414.559 1062.82 L411.828 1060.02 L422.384 1049.44 L411.828 1038.81 L414.559 1036.01 L425.184 1046.64 L435.809 1036.01 L438.564 1038.81 Z" fill="#000000" fill-rule="evenodd" fill-opacity="1" /><path clip-path="url(#clip910)" d="M 0 0 M450.925 1060.34 L458.564 1060.34 L458.564 1033.98 L450.254 1035.64 L450.254 1031.38 L458.518 1029.72 L463.193 1029.72 L463.193 1060.34 L470.832 1060.34 L470.832 1064.28 L450.925 1064.28 L450.925 1060.34 Z" fill="#000000" fill-rule="evenodd" fill-opacity="1" /><path clip-path="url(#clip910)" d="M 0 0 M490.277 1032.8 Q486.666 1032.8 484.837 1036.36 Q483.031 1039.9 483.031 1047.03 Q483.031 1054.14 484.837 1057.7 Q486.666 1061.25 490.277 1061.25 Q493.911 1061.25 495.716 1057.7 Q497.545 1054.14 497.545 1047.03 Q497.545 1039.9 495.716 1036.36 Q493.911 1032.8 490.277 1032.8 M490.277 1029.09 Q496.087 1029.09 499.142 1033.7 Q502.221 1038.28 502.221 1047.03 Q502.221 1055.76 499.142 1060.37 Q496.087 1064.95 490.277 1064.95 Q484.467 1064.95 481.388 1060.37 Q478.332 1055.76 478.332 1047.03 Q478.332 1038.28 481.388 1033.7 Q484.467 1029.09 490.277 1029.09 Z" fill="#000000" fill-rule="evenodd" fill-opacity="1" /><path clip-path="url(#clip910)" d="M 0 0 M502.221 1023.19 L526.333 1023.19 L526.333 1026.39 L502.221 1026.39 L502.221 1023.19 Z" fill="#000000" fill-rule="evenodd" fill-opacity="1" /><path clip-path="url(#clip910)" d="M 0 0 M535.191 1033.67 L541.398 1033.67 L541.398 1012.25 L534.646 1013.6 L534.646 1010.14 L541.36 1008.79 L545.159 1008.79 L545.159 1033.67 L551.366 1033.67 L551.366 1036.87 L535.191 1036.87 L535.191 1033.67 Z" fill="#000000" fill-rule="evenodd" fill-opacity="1" /><path clip-path="url(#clip910)" d="M 0 0 M114.26 794.835 L143.936 794.835 L143.936 798.77 L114.26 798.77 L114.26 794.835 Z" fill="#000000" fill-rule="evenodd" fill-opacity="1" /><path clip-path="url(#clip910)" d="M 0 0 M154.075 777.103 L172.431 777.103 L172.431 781.038 L158.357 781.038 L158.357 789.51 Q159.376 789.163 160.394 789.001 Q161.413 788.816 162.431 788.816 Q168.218 788.816 171.598 791.987 Q174.977 795.159 174.977 800.575 Q174.977 806.154 171.505 809.256 Q168.033 812.334 161.714 812.334 Q159.538 812.334 157.269 811.964 Q155.024 811.594 152.616 810.853 L152.616 806.154 Q154.7 807.288 156.922 807.844 Q159.144 808.399 161.621 808.399 Q165.626 808.399 167.964 806.293 Q170.302 804.186 170.302 800.575 Q170.302 796.964 167.964 794.858 Q165.626 792.751 161.621 792.751 Q159.746 792.751 157.871 793.168 Q156.019 793.585 154.075 794.464 L154.075 777.103 Z" fill="#000000" fill-rule="evenodd" fill-opacity="1" /><path clip-path="url(#clip910)" d="M 0 0 M184.19 805.784 L189.075 805.784 L189.075 811.663 L184.19 811.663 L184.19 805.784 Z" fill="#000000" fill-rule="evenodd" fill-opacity="1" /><path clip-path="url(#clip910)" d="M 0 0 M198.079 777.103 L220.301 777.103 L220.301 779.094 L207.755 811.663 L202.871 811.663 L214.676 781.038 L198.079 781.038 L198.079 777.103 Z" fill="#000000" fill-rule="evenodd" fill-opacity="1" /><path clip-path="url(#clip910)" d="M 0 0 M240 792.52 Q236.852 792.52 235 794.672 Q233.172 796.825 233.172 800.575 Q233.172 804.302 235 806.478 Q236.852 808.631 240 808.631 Q243.148 808.631 244.977 806.478 Q246.829 804.302 246.829 800.575 Q246.829 796.825 244.977 794.672 Q243.148 792.52 240 792.52 M249.283 777.867 L249.283 782.126 Q247.523 781.293 245.718 780.853 Q243.935 780.413 242.176 780.413 Q237.547 780.413 235.093 783.538 Q232.662 786.663 232.315 792.983 Q233.681 790.969 235.741 789.904 Q237.801 788.816 240.278 788.816 Q245.486 788.816 248.496 791.987 Q251.528 795.135 251.528 800.575 Q251.528 805.899 248.38 809.117 Q245.232 812.334 240 812.334 Q234.005 812.334 230.834 807.751 Q227.662 803.145 227.662 794.418 Q227.662 786.223 231.551 781.362 Q235.44 776.478 241.991 776.478 Q243.75 776.478 245.533 776.825 Q247.338 777.173 249.283 777.867 Z" fill="#000000" fill-rule="evenodd" fill-opacity="1" /><path clip-path="url(#clip910)" d="M 0 0 M260.394 807.728 L268.032 807.728 L268.032 781.362 L259.722 783.029 L259.722 778.77 L267.986 777.103 L272.662 777.103 L272.662 807.728 L280.301 807.728 L280.301 811.663 L260.394 811.663 L260.394 807.728 Z" fill="#000000" fill-rule="evenodd" fill-opacity="1" /><path clip-path="url(#clip910)" d="M 0 0 M289.792 777.103 L308.148 777.103 L308.148 781.038 L294.074 781.038 L294.074 789.51 Q295.093 789.163 296.111 789.001 Q297.13 788.816 298.148 788.816 Q303.935 788.816 307.315 791.987 Q310.694 795.159 310.694 800.575 Q310.694 806.154 307.222 809.256 Q303.75 812.334 297.43 812.334 Q295.255 812.334 292.986 811.964 Q290.741 811.594 288.333 810.853 L288.333 806.154 Q290.417 807.288 292.639 807.844 Q294.861 808.399 297.338 808.399 Q301.342 808.399 303.68 806.293 Q306.018 804.186 306.018 800.575 Q306.018 796.964 303.68 794.858 Q301.342 792.751 297.338 792.751 Q295.463 792.751 293.588 793.168 Q291.736 793.585 289.792 794.464 L289.792 777.103 Z" fill="#000000" fill-rule="evenodd" fill-opacity="1" /><path clip-path="url(#clip910)" d="M 0 0 M320.046 810.946 L320.046 806.686 Q321.805 807.52 323.611 807.959 Q325.416 808.399 327.153 808.399 Q331.782 808.399 334.213 805.297 Q336.666 802.172 337.014 795.83 Q335.671 797.821 333.611 798.885 Q331.551 799.95 329.051 799.95 Q323.866 799.95 320.833 796.825 Q317.824 793.677 317.824 788.237 Q317.824 782.913 320.972 779.696 Q324.12 776.478 329.352 776.478 Q335.347 776.478 338.495 781.085 Q341.666 785.668 341.666 794.418 Q341.666 802.589 337.777 807.473 Q333.912 812.334 327.361 812.334 Q325.602 812.334 323.796 811.987 Q321.991 811.64 320.046 810.946 M329.352 796.293 Q332.5 796.293 334.328 794.14 Q336.18 791.987 336.18 788.237 Q336.18 784.511 334.328 782.358 Q332.5 780.182 329.352 780.182 Q326.203 780.182 324.352 782.358 Q322.523 784.511 322.523 788.237 Q322.523 791.987 324.352 794.14 Q326.203 796.293 329.352 796.293 Z" fill="#000000" fill-rule="evenodd" fill-opacity="1" /><path clip-path="url(#clip910)" d="M 0 0 M360.069 795.251 Q356.736 795.251 354.814 797.034 Q352.916 798.816 352.916 801.941 Q352.916 805.066 354.814 806.848 Q356.736 808.631 360.069 808.631 Q363.402 808.631 365.324 806.848 Q367.245 805.043 367.245 801.941 Q367.245 798.816 365.324 797.034 Q363.425 795.251 360.069 795.251 M355.393 793.26 Q352.384 792.52 350.694 790.46 Q349.027 788.399 349.027 785.436 Q349.027 781.293 351.967 778.886 Q354.93 776.478 360.069 776.478 Q365.231 776.478 368.171 778.886 Q371.111 781.293 371.111 785.436 Q371.111 788.399 369.421 790.46 Q367.754 792.52 364.768 793.26 Q368.148 794.047 370.023 796.339 Q371.921 798.631 371.921 801.941 Q371.921 806.964 368.842 809.649 Q365.787 812.334 360.069 812.334 Q354.351 812.334 351.273 809.649 Q348.217 806.964 348.217 801.941 Q348.217 798.631 350.115 796.339 Q352.014 794.047 355.393 793.26 M353.68 785.876 Q353.68 788.561 355.347 790.066 Q357.037 791.571 360.069 791.571 Q363.078 791.571 364.768 790.066 Q366.481 788.561 366.481 785.876 Q366.481 783.191 364.768 781.686 Q363.078 780.182 360.069 780.182 Q357.037 780.182 355.347 781.686 Q353.68 783.191 353.68 785.876 Z" fill="#000000" fill-rule="evenodd" fill-opacity="1" /><path clip-path="url(#clip910)" d="M 0 0 M390.231 780.182 Q386.62 780.182 384.791 783.747 Q382.986 787.288 382.986 794.418 Q382.986 801.524 384.791 805.089 Q386.62 808.631 390.231 808.631 Q393.865 808.631 395.671 805.089 Q397.499 801.524 397.499 794.418 Q397.499 787.288 395.671 783.747 Q393.865 780.182 390.231 780.182 M390.231 776.478 Q396.041 776.478 399.097 781.085 Q402.175 785.668 402.175 794.418 Q402.175 803.145 399.097 807.751 Q396.041 812.334 390.231 812.334 Q384.421 812.334 381.342 807.751 Q378.287 803.145 378.287 794.418 Q378.287 785.668 381.342 781.085 Q384.421 776.478 390.231 776.478 Z" fill="#000000" fill-rule="evenodd" fill-opacity="1" /><path clip-path="url(#clip910)" d="M 0 0 M438.564 786.2 L427.985 796.825 L438.564 807.404 L435.809 810.205 L425.184 799.58 L414.559 810.205 L411.828 807.404 L422.384 796.825 L411.828 786.2 L414.559 783.399 L425.184 794.024 L435.809 783.399 L438.564 786.2 Z" fill="#000000" fill-rule="evenodd" fill-opacity="1" /><path clip-path="url(#clip910)" d="M 0 0 M450.925 807.728 L458.564 807.728 L458.564 781.362 L450.254 783.029 L450.254 778.77 L458.518 777.103 L463.193 777.103 L463.193 807.728 L470.832 807.728 L470.832 811.663 L450.925 811.663 L450.925 807.728 Z" fill="#000000" fill-rule="evenodd" fill-opacity="1" /><path clip-path="url(#clip910)" d="M 0 0 M490.277 780.182 Q486.666 780.182 484.837 783.747 Q483.031 787.288 483.031 794.418 Q483.031 801.524 484.837 805.089 Q486.666 808.631 490.277 808.631 Q493.911 808.631 495.716 805.089 Q497.545 801.524 497.545 794.418 Q497.545 787.288 495.716 783.747 Q493.911 780.182 490.277 780.182 M490.277 776.478 Q496.087 776.478 499.142 781.085 Q502.221 785.668 502.221 794.418 Q502.221 803.145 499.142 807.751 Q496.087 812.334 490.277 812.334 Q484.467 812.334 481.388 807.751 Q478.332 803.145 478.332 794.418 Q478.332 785.668 481.388 781.085 Q484.467 776.478 490.277 776.478 Z" fill="#000000" fill-rule="evenodd" fill-opacity="1" /><path clip-path="url(#clip910)" d="M 0 0 M502.221 770.579 L526.333 770.579 L526.333 773.777 L502.221 773.777 L502.221 770.579 Z" fill="#000000" fill-rule="evenodd" fill-opacity="1" /><path clip-path="url(#clip910)" d="M 0 0 M535.191 781.055 L541.398 781.055 L541.398 759.633 L534.646 760.988 L534.646 757.527 L541.36 756.173 L545.159 756.173 L545.159 781.055 L551.366 781.055 L551.366 784.253 L535.191 784.253 L535.191 781.055 Z" fill="#000000" fill-rule="evenodd" fill-opacity="1" /><path clip-path="url(#clip910)" d="M 0 0 M114.26 542.22 L143.936 542.22 L143.936 546.155 L114.26 546.155 L114.26 542.22 Z" fill="#000000" fill-rule="evenodd" fill-opacity="1" /><path clip-path="url(#clip910)" d="M 0 0 M154.075 524.489 L172.431 524.489 L172.431 528.424 L158.357 528.424 L158.357 536.896 Q159.376 536.549 160.394 536.387 Q161.413 536.202 162.431 536.202 Q168.218 536.202 171.598 539.373 Q174.977 542.544 174.977 547.961 Q174.977 553.54 171.505 556.641 Q168.033 559.72 161.714 559.72 Q159.538 559.72 157.269 559.35 Q155.024 558.979 152.616 558.239 L152.616 553.54 Q154.7 554.674 156.922 555.229 Q159.144 555.785 161.621 555.785 Q165.626 555.785 167.964 553.678 Q170.302 551.572 170.302 547.961 Q170.302 544.35 167.964 542.243 Q165.626 540.137 161.621 540.137 Q159.746 540.137 157.871 540.554 Q156.019 540.97 154.075 541.85 L154.075 524.489 Z" fill="#000000" fill-rule="evenodd" fill-opacity="1" /><path clip-path="url(#clip910)" d="M 0 0 M184.19 553.169 L189.075 553.169 L189.075 559.049 L184.19 559.049 L184.19 553.169 Z" fill="#000000" fill-rule="evenodd" fill-opacity="1" /><path clip-path="url(#clip910)" d="M 0 0 M198.079 524.489 L220.301 524.489 L220.301 526.48 L207.755 559.049 L202.871 559.049 L214.676 528.424 L198.079 528.424 L198.079 524.489 Z" fill="#000000" fill-rule="evenodd" fill-opacity="1" /><path clip-path="url(#clip910)" d="M 0 0 M240 539.905 Q236.852 539.905 235 542.058 Q233.172 544.211 233.172 547.961 Q233.172 551.688 235 553.864 Q236.852 556.016 240 556.016 Q243.148 556.016 244.977 553.864 Q246.829 551.688 246.829 547.961 Q246.829 544.211 244.977 542.058 Q243.148 539.905 240 539.905 M249.283 525.253 L249.283 529.512 Q247.523 528.679 245.718 528.239 Q243.935 527.799 242.176 527.799 Q237.547 527.799 235.093 530.924 Q232.662 534.049 232.315 540.368 Q233.681 538.354 235.741 537.29 Q237.801 536.202 240.278 536.202 Q245.486 536.202 248.496 539.373 Q251.528 542.521 251.528 547.961 Q251.528 553.285 248.38 556.502 Q245.232 559.72 240 559.72 Q234.005 559.72 230.834 555.137 Q227.662 550.53 227.662 541.803 Q227.662 533.609 231.551 528.748 Q235.44 523.864 241.991 523.864 Q243.75 523.864 245.533 524.211 Q247.338 524.558 249.283 525.253 Z" fill="#000000" fill-rule="evenodd" fill-opacity="1" /><path clip-path="url(#clip910)" d="M 0 0 M260.394 555.114 L268.032 555.114 L268.032 528.748 L259.722 530.415 L259.722 526.155 L267.986 524.489 L272.662 524.489 L272.662 555.114 L280.301 555.114 L280.301 559.049 L260.394 559.049 L260.394 555.114 Z" fill="#000000" fill-rule="evenodd" fill-opacity="1" /><path clip-path="url(#clip910)" d="M 0 0 M289.792 524.489 L308.148 524.489 L308.148 528.424 L294.074 528.424 L294.074 536.896 Q295.093 536.549 296.111 536.387 Q297.13 536.202 298.148 536.202 Q303.935 536.202 307.315 539.373 Q310.694 542.544 310.694 547.961 Q310.694 553.54 307.222 556.641 Q303.75 559.72 297.43 559.72 Q295.255 559.72 292.986 559.35 Q290.741 558.979 288.333 558.239 L288.333 553.54 Q290.417 554.674 292.639 555.229 Q294.861 555.785 297.338 555.785 Q301.342 555.785 303.68 553.678 Q306.018 551.572 306.018 547.961 Q306.018 544.35 303.68 542.243 Q301.342 540.137 297.338 540.137 Q295.463 540.137 293.588 540.554 Q291.736 540.97 289.792 541.85 L289.792 524.489 Z" fill="#000000" fill-rule="evenodd" fill-opacity="1" /><path clip-path="url(#clip910)" d="M 0 0 M320.046 558.331 L320.046 554.072 Q321.805 554.905 323.611 555.345 Q325.416 555.785 327.153 555.785 Q331.782 555.785 334.213 552.683 Q336.666 549.558 337.014 543.216 Q335.671 545.206 333.611 546.271 Q331.551 547.336 329.051 547.336 Q323.866 547.336 320.833 544.211 Q317.824 541.063 317.824 535.623 Q317.824 530.299 320.972 527.081 Q324.12 523.864 329.352 523.864 Q335.347 523.864 338.495 528.47 Q341.666 533.054 341.666 541.803 Q341.666 549.975 337.777 554.859 Q333.912 559.72 327.361 559.72 Q325.602 559.72 323.796 559.373 Q321.991 559.026 320.046 558.331 M329.352 543.678 Q332.5 543.678 334.328 541.526 Q336.18 539.373 336.18 535.623 Q336.18 531.896 334.328 529.743 Q332.5 527.567 329.352 527.567 Q326.203 527.567 324.352 529.743 Q322.523 531.896 322.523 535.623 Q322.523 539.373 324.352 541.526 Q326.203 543.678 329.352 543.678 Z" fill="#000000" fill-rule="evenodd" fill-opacity="1" /><path clip-path="url(#clip910)" d="M 0 0 M360.648 539.905 Q357.5 539.905 355.648 542.058 Q353.819 544.211 353.819 547.961 Q353.819 551.688 355.648 553.864 Q357.5 556.016 360.648 556.016 Q363.796 556.016 365.625 553.864 Q367.476 551.688 367.476 547.961 Q367.476 544.211 365.625 542.058 Q363.796 539.905 360.648 539.905 M369.93 525.253 L369.93 529.512 Q368.171 528.679 366.365 528.239 Q364.583 527.799 362.824 527.799 Q358.194 527.799 355.74 530.924 Q353.31 534.049 352.963 540.368 Q354.328 538.354 356.388 537.29 Q358.449 536.202 360.926 536.202 Q366.134 536.202 369.143 539.373 Q372.175 542.521 372.175 547.961 Q372.175 553.285 369.027 556.502 Q365.879 559.72 360.648 559.72 Q354.652 559.72 351.481 555.137 Q348.31 550.53 348.31 541.803 Q348.31 533.609 352.199 528.748 Q356.088 523.864 362.638 523.864 Q364.398 523.864 366.18 524.211 Q367.986 524.558 369.93 525.253 Z" fill="#000000" fill-rule="evenodd" fill-opacity="1" /><path clip-path="url(#clip910)" d="M 0 0 M390.231 527.567 Q386.62 527.567 384.791 531.132 Q382.986 534.674 382.986 541.803 Q382.986 548.91 384.791 552.475 Q386.62 556.016 390.231 556.016 Q393.865 556.016 395.671 552.475 Q397.499 548.91 397.499 541.803 Q397.499 534.674 395.671 531.132 Q393.865 527.567 390.231 527.567 M390.231 523.864 Q396.041 523.864 399.097 528.47 Q402.175 533.054 402.175 541.803 Q402.175 550.53 399.097 555.137 Q396.041 559.72 390.231 559.72 Q384.421 559.72 381.342 555.137 Q378.287 550.53 378.287 541.803 Q378.287 533.054 381.342 528.47 Q384.421 523.864 390.231 523.864 Z" fill="#000000" fill-rule="evenodd" fill-opacity="1" /><path clip-path="url(#clip910)" d="M 0 0 M438.564 533.586 L427.985 544.211 L438.564 554.79 L435.809 557.59 L425.184 546.966 L414.559 557.59 L411.828 554.79 L422.384 544.211 L411.828 533.586 L414.559 530.785 L425.184 541.41 L435.809 530.785 L438.564 533.586 Z" fill="#000000" fill-rule="evenodd" fill-opacity="1" /><path clip-path="url(#clip910)" d="M 0 0 M450.925 555.114 L458.564 555.114 L458.564 528.748 L450.254 530.415 L450.254 526.155 L458.518 524.489 L463.193 524.489 L463.193 555.114 L470.832 555.114 L470.832 559.049 L450.925 559.049 L450.925 555.114 Z" fill="#000000" fill-rule="evenodd" fill-opacity="1" /><path clip-path="url(#clip910)" d="M 0 0 M490.277 527.567 Q486.666 527.567 484.837 531.132 Q483.031 534.674 483.031 541.803 Q483.031 548.91 484.837 552.475 Q486.666 556.016 490.277 556.016 Q493.911 556.016 495.716 552.475 Q497.545 548.91 497.545 541.803 Q497.545 534.674 495.716 531.132 Q493.911 527.567 490.277 527.567 M490.277 523.864 Q496.087 523.864 499.142 528.47 Q502.221 533.054 502.221 541.803 Q502.221 550.53 499.142 555.137 Q496.087 559.72 490.277 559.72 Q484.467 559.72 481.388 555.137 Q478.332 550.53 478.332 541.803 Q478.332 533.054 481.388 528.47 Q484.467 523.864 490.277 523.864 Z" fill="#000000" fill-rule="evenodd" fill-opacity="1" /><path clip-path="url(#clip910)" d="M 0 0 M502.221 517.965 L526.333 517.965 L526.333 521.162 L502.221 521.162 L502.221 517.965 Z" fill="#000000" fill-rule="evenodd" fill-opacity="1" /><path clip-path="url(#clip910)" d="M 0 0 M535.191 528.441 L541.398 528.441 L541.398 507.019 L534.646 508.373 L534.646 504.913 L541.36 503.558 L545.159 503.558 L545.159 528.441 L551.366 528.441 L551.366 531.638 L535.191 531.638 L535.191 528.441 Z" fill="#000000" fill-rule="evenodd" fill-opacity="1" /><path clip-path="url(#clip910)" d="M 0 0 M114.26 289.606 L143.936 289.606 L143.936 293.541 L114.26 293.541 L114.26 289.606 Z" fill="#000000" fill-rule="evenodd" fill-opacity="1" /><path clip-path="url(#clip910)" d="M 0 0 M154.075 271.874 L172.431 271.874 L172.431 275.81 L158.357 275.81 L158.357 284.282 Q159.376 283.935 160.394 283.772 Q161.413 283.587 162.431 283.587 Q168.218 283.587 171.598 286.759 Q174.977 289.93 174.977 295.347 Q174.977 300.925 171.505 304.027 Q168.033 307.106 161.714 307.106 Q159.538 307.106 157.269 306.735 Q155.024 306.365 152.616 305.624 L152.616 300.925 Q154.7 302.059 156.922 302.615 Q159.144 303.171 161.621 303.171 Q165.626 303.171 167.964 301.064 Q170.302 298.958 170.302 295.347 Q170.302 291.735 167.964 289.629 Q165.626 287.522 161.621 287.522 Q159.746 287.522 157.871 287.939 Q156.019 288.356 154.075 289.235 L154.075 271.874 Z" fill="#000000" fill-rule="evenodd" fill-opacity="1" /><path clip-path="url(#clip910)" d="M 0 0 M184.19 300.555 L189.075 300.555 L189.075 306.434 L184.19 306.434 L184.19 300.555 Z" fill="#000000" fill-rule="evenodd" fill-opacity="1" /><path clip-path="url(#clip910)" d="M 0 0 M198.079 271.874 L220.301 271.874 L220.301 273.865 L207.755 306.434 L202.871 306.434 L214.676 275.81 L198.079 275.81 L198.079 271.874 Z" fill="#000000" fill-rule="evenodd" fill-opacity="1" /><path clip-path="url(#clip910)" d="M 0 0 M240 287.291 Q236.852 287.291 235 289.444 Q233.172 291.597 233.172 295.347 Q233.172 299.073 235 301.249 Q236.852 303.402 240 303.402 Q243.148 303.402 244.977 301.249 Q246.829 299.073 246.829 295.347 Q246.829 291.597 244.977 289.444 Q243.148 287.291 240 287.291 M249.283 272.638 L249.283 276.898 Q247.523 276.064 245.718 275.624 Q243.935 275.185 242.176 275.185 Q237.547 275.185 235.093 278.31 Q232.662 281.435 232.315 287.754 Q233.681 285.74 235.741 284.675 Q237.801 283.587 240.278 283.587 Q245.486 283.587 248.496 286.759 Q251.528 289.907 251.528 295.347 Q251.528 300.671 248.38 303.888 Q245.232 307.106 240 307.106 Q234.005 307.106 230.834 302.522 Q227.662 297.916 227.662 289.189 Q227.662 280.995 231.551 276.134 Q235.44 271.249 241.991 271.249 Q243.75 271.249 245.533 271.597 Q247.338 271.944 249.283 272.638 Z" fill="#000000" fill-rule="evenodd" fill-opacity="1" /><path clip-path="url(#clip910)" d="M 0 0 M260.394 302.499 L268.032 302.499 L268.032 276.134 L259.722 277.8 L259.722 273.541 L267.986 271.874 L272.662 271.874 L272.662 302.499 L280.301 302.499 L280.301 306.434 L260.394 306.434 L260.394 302.499 Z" fill="#000000" fill-rule="evenodd" fill-opacity="1" /><path clip-path="url(#clip910)" d="M 0 0 M289.792 271.874 L308.148 271.874 L308.148 275.81 L294.074 275.81 L294.074 284.282 Q295.093 283.935 296.111 283.772 Q297.13 283.587 298.148 283.587 Q303.935 283.587 307.315 286.759 Q310.694 289.93 310.694 295.347 Q310.694 300.925 307.222 304.027 Q303.75 307.106 297.43 307.106 Q295.255 307.106 292.986 306.735 Q290.741 306.365 288.333 305.624 L288.333 300.925 Q290.417 302.059 292.639 302.615 Q294.861 303.171 297.338 303.171 Q301.342 303.171 303.68 301.064 Q306.018 298.958 306.018 295.347 Q306.018 291.735 303.68 289.629 Q301.342 287.522 297.338 287.522 Q295.463 287.522 293.588 287.939 Q291.736 288.356 289.792 289.235 L289.792 271.874 Z" fill="#000000" fill-rule="evenodd" fill-opacity="1" /><path clip-path="url(#clip910)" d="M 0 0 M320.046 305.717 L320.046 301.458 Q321.805 302.291 323.611 302.731 Q325.416 303.171 327.153 303.171 Q331.782 303.171 334.213 300.069 Q336.666 296.944 337.014 290.601 Q335.671 292.592 333.611 293.657 Q331.551 294.722 329.051 294.722 Q323.866 294.722 320.833 291.597 Q317.824 288.448 317.824 283.009 Q317.824 277.685 320.972 274.467 Q324.12 271.249 329.352 271.249 Q335.347 271.249 338.495 275.856 Q341.666 280.439 341.666 289.189 Q341.666 297.36 337.777 302.245 Q333.912 307.106 327.361 307.106 Q325.602 307.106 323.796 306.758 Q321.991 306.411 320.046 305.717 M329.352 291.064 Q332.5 291.064 334.328 288.911 Q336.18 286.759 336.18 283.009 Q336.18 279.282 334.328 277.129 Q332.5 274.953 329.352 274.953 Q326.203 274.953 324.352 277.129 Q322.523 279.282 322.523 283.009 Q322.523 286.759 324.352 288.911 Q326.203 291.064 329.352 291.064 Z" fill="#000000" fill-rule="evenodd" fill-opacity="1" /><path clip-path="url(#clip910)" d="M 0 0 M362.916 275.948 L351.111 294.397 L362.916 294.397 L362.916 275.948 M361.689 271.874 L367.569 271.874 L367.569 294.397 L372.5 294.397 L372.5 298.286 L367.569 298.286 L367.569 306.434 L362.916 306.434 L362.916 298.286 L347.314 298.286 L347.314 293.772 L361.689 271.874 Z" fill="#000000" fill-rule="evenodd" fill-opacity="1" /><path clip-path="url(#clip910)" d="M 0 0 M390.231 274.953 Q386.62 274.953 384.791 278.518 Q382.986 282.06 382.986 289.189 Q382.986 296.296 384.791 299.86 Q386.62 303.402 390.231 303.402 Q393.865 303.402 395.671 299.86 Q397.499 296.296 397.499 289.189 Q397.499 282.06 395.671 278.518 Q393.865 274.953 390.231 274.953 M390.231 271.249 Q396.041 271.249 399.097 275.856 Q402.175 280.439 402.175 289.189 Q402.175 297.916 399.097 302.522 Q396.041 307.106 390.231 307.106 Q384.421 307.106 381.342 302.522 Q378.287 297.916 378.287 289.189 Q378.287 280.439 381.342 275.856 Q384.421 271.249 390.231 271.249 Z" fill="#000000" fill-rule="evenodd" fill-opacity="1" /><path clip-path="url(#clip910)" d="M 0 0 M438.564 280.972 L427.985 291.597 L438.564 302.175 L435.809 304.976 L425.184 294.351 L414.559 304.976 L411.828 302.175 L422.384 291.597 L411.828 280.972 L414.559 278.171 L425.184 288.796 L435.809 278.171 L438.564 280.972 Z" fill="#000000" fill-rule="evenodd" fill-opacity="1" /><path clip-path="url(#clip910)" d="M 0 0 M450.925 302.499 L458.564 302.499 L458.564 276.134 L450.254 277.8 L450.254 273.541 L458.518 271.874 L463.193 271.874 L463.193 302.499 L470.832 302.499 L470.832 306.434 L450.925 306.434 L450.925 302.499 Z" fill="#000000" fill-rule="evenodd" fill-opacity="1" /><path clip-path="url(#clip910)" d="M 0 0 M490.277 274.953 Q486.666 274.953 484.837 278.518 Q483.031 282.06 483.031 289.189 Q483.031 296.296 484.837 299.86 Q486.666 303.402 490.277 303.402 Q493.911 303.402 495.716 299.86 Q497.545 296.296 497.545 289.189 Q497.545 282.06 495.716 278.518 Q493.911 274.953 490.277 274.953 M490.277 271.249 Q496.087 271.249 499.142 275.856 Q502.221 280.439 502.221 289.189 Q502.221 297.916 499.142 302.522 Q496.087 307.106 490.277 307.106 Q484.467 307.106 481.388 302.522 Q478.332 297.916 478.332 289.189 Q478.332 280.439 481.388 275.856 Q484.467 271.249 490.277 271.249 Z" fill="#000000" fill-rule="evenodd" fill-opacity="1" /><path clip-path="url(#clip910)" d="M 0 0 M502.221 265.351 L526.333 265.351 L526.333 268.548 L502.221 268.548 L502.221 265.351 Z" fill="#000000" fill-rule="evenodd" fill-opacity="1" /><path clip-path="url(#clip910)" d="M 0 0 M535.191 275.827 L541.398 275.827 L541.398 254.405 L534.646 255.759 L534.646 252.298 L541.36 250.944 L545.159 250.944 L545.159 275.827 L551.366 275.827 L551.366 279.024 L535.191 279.024 L535.191 275.827 Z" fill="#000000" fill-rule="evenodd" fill-opacity="1" /><path clip-path="url(#clip910)" d="M 0 0 M16.4842 788.636 L16.4842 758.589 L21.895 758.589 L21.895 782.206 L35.9632 782.206 L35.9632 759.576 L41.3741 759.576 L41.3741 782.206 L58.5933 782.206 L58.5933 758.016 L64.0042 758.016 L64.0042 788.636 L16.4842 788.636 Z" fill="#000000" fill-rule="evenodd" fill-opacity="1" /><path clip-path="url(#clip910)" d="M 0 0 M1371.1 48.0275 L1371.1 51.6733 L1336.83 51.6733 Q1337.31 59.3701 1341.44 63.421 Q1345.62 67.4314 1353.03 67.4314 Q1357.32 67.4314 1361.33 66.3781 Q1365.39 65.3249 1369.36 63.2184 L1369.36 70.267 Q1365.34 71.9684 1361.13 72.8596 Q1356.92 73.7508 1352.58 73.7508 Q1341.73 73.7508 1335.37 67.4314 Q1329.05 61.1119 1329.05 50.3365 Q1329.05 39.1965 1335.04 32.6746 Q1341.08 26.1121 1351.29 26.1121 Q1360.44 26.1121 1365.75 32.0264 Q1371.1 37.9003 1371.1 48.0275 M1363.64 45.84 Q1363.56 39.7232 1360.2 36.0774 Q1356.88 32.4315 1351.37 32.4315 Q1345.13 32.4315 1341.36 35.9558 Q1337.64 39.4801 1337.07 45.8805 L1363.64 45.84 Z" fill="#000000" fill-rule="evenodd" fill-opacity="1" /><path clip-path="url(#clip910)" d="M 0 0 M1421.04 45.1919 L1421.04 72.576 L1413.59 72.576 L1413.59 45.4349 Q1413.59 38.994 1411.08 35.7938 Q1408.57 32.5936 1403.54 32.5936 Q1397.51 32.5936 1394.03 36.4419 Q1390.54 40.2903 1390.54 46.9338 L1390.54 72.576 L1383.05 72.576 L1383.05 27.2059 L1390.54 27.2059 L1390.54 34.2544 Q1393.22 30.163 1396.82 28.1376 Q1400.47 26.1121 1405.21 26.1121 Q1413.02 26.1121 1417.03 30.9732 Q1421.04 35.7938 1421.04 45.1919 Z" fill="#000000" fill-rule="evenodd" fill-opacity="1" /><path clip-path="url(#clip910)" d="M 0 0 M1474.72 48.0275 L1474.72 51.6733 L1440.45 51.6733 Q1440.93 59.3701 1445.07 63.421 Q1449.24 67.4314 1456.65 67.4314 Q1460.95 67.4314 1464.96 66.3781 Q1469.01 65.3249 1472.98 63.2184 L1472.98 70.267 Q1468.97 71.9684 1464.75 72.8596 Q1460.54 73.7508 1456.21 73.7508 Q1445.35 73.7508 1438.99 67.4314 Q1432.67 61.1119 1432.67 50.3365 Q1432.67 39.1965 1438.67 32.6746 Q1444.7 26.1121 1454.91 26.1121 Q1464.07 26.1121 1469.37 32.0264 Q1474.72 37.9003 1474.72 48.0275 M1467.27 45.84 Q1467.18 39.7232 1463.82 36.0774 Q1460.5 32.4315 1454.99 32.4315 Q1448.75 32.4315 1444.99 35.9558 Q1441.26 39.4801 1440.69 45.8805 L1467.27 45.84 Z" fill="#000000" fill-rule="evenodd" fill-opacity="1" /><path clip-path="url(#clip910)" d="M 0 0 M1513.24 34.1734 Q1511.99 33.4443 1510.49 33.1202 Q1509.03 32.7556 1507.25 32.7556 Q1500.93 32.7556 1497.53 36.8875 Q1494.16 40.9789 1494.16 48.6757 L1494.16 72.576 L1486.67 72.576 L1486.67 27.2059 L1494.16 27.2059 L1494.16 34.2544 Q1496.51 30.1225 1500.28 28.1376 Q1504.05 26.1121 1509.44 26.1121 Q1510.21 26.1121 1511.14 26.2337 Q1512.07 26.3147 1513.2 26.5172 L1513.24 34.1734 Z" fill="#000000" fill-rule="evenodd" fill-opacity="1" /><path clip-path="url(#clip910)" d="M 0 0 M1549.46 49.3643 Q1549.46 41.2625 1546.1 36.8065 Q1542.77 32.3505 1536.74 32.3505 Q1530.74 32.3505 1527.38 36.8065 Q1524.06 41.2625 1524.06 49.3643 Q1524.06 57.4256 1527.38 61.8816 Q1530.74 66.3376 1536.74 66.3376 Q1542.77 66.3376 1546.1 61.8816 Q1549.46 57.4256 1549.46 49.3643 M1556.91 66.9452 Q1556.91 78.5308 1551.77 84.1616 Q1546.62 89.8329 1536.01 89.8329 Q1532.08 89.8329 1528.6 89.2252 Q1525.11 88.6581 1521.83 87.4428 L1521.83 80.1917 Q1525.11 81.9741 1528.31 82.8248 Q1531.51 83.6755 1534.83 83.6755 Q1542.17 83.6755 1545.81 79.8271 Q1549.46 76.0193 1549.46 68.282 L1549.46 64.5957 Q1547.15 68.6061 1543.54 70.5911 Q1539.94 72.576 1534.92 72.576 Q1526.57 72.576 1521.47 66.2161 Q1516.36 59.8562 1516.36 49.3643 Q1516.36 38.832 1521.47 32.472 Q1526.57 26.1121 1534.92 26.1121 Q1539.94 26.1121 1543.54 28.0971 Q1547.15 30.082 1549.46 34.0924 L1549.46 27.2059 L1556.91 27.2059 L1556.91 66.9452 Z" fill="#000000" fill-rule="evenodd" fill-opacity="1" /><path clip-path="url(#clip910)" d="M 0 0 M1591.14 76.7889 Q1587.98 84.8907 1584.98 87.3618 Q1581.99 89.8329 1576.96 89.8329 L1571.01 89.8329 L1571.01 83.5945 L1575.38 83.5945 Q1578.46 83.5945 1580.16 82.1361 Q1581.87 80.6778 1583.93 75.2496 L1585.27 71.8468 L1566.92 27.2059 L1574.82 27.2059 L1589 62.6918 L1603.17 27.2059 L1611.07 27.2059 L1591.14 76.7889 Z" fill="#000000" fill-rule="evenodd" fill-opacity="1" /><polyline clip-path="url(#clip912)" style="stroke:#009af9; stroke-width:12; stroke-opacity:1; fill:none" points="
  637.33,1246.14 1192.48,1386.4 1747.64,287.515 2302.79,160.256 
  "/>
<path clip-path="url(#clip910)" d="
M1936.6 1379.86 L2293.91 1379.86 L2293.91 1258.9 L1936.6 1258.9  Z
  " fill="#ffffff" fill-rule="evenodd" fill-opacity="1"/>
<polyline clip-path="url(#clip910)" style="stroke:#000000; stroke-width:4; stroke-opacity:1; fill:none" points="
  1936.6,1379.86 2293.91,1379.86 2293.91,1258.9 1936.6,1258.9 1936.6,1379.86 
  "/>
<polyline clip-path="url(#clip910)" style="stroke:#009af9; stroke-width:4; stroke-opacity:1; fill:none" points="
  1956.21,1319.38 2073.91,1319.38 
  "/>
<path clip-path="url(#clip910)" d="M 0 0 M2117.55 1322.63 L2117.55 1324.71 L2097.97 1324.71 Q2098.24 1329.11 2100.61 1331.42 Q2102.99 1333.72 2107.23 1333.72 Q2109.68 1333.72 2111.97 1333.11 Q2114.29 1332.51 2116.55 1331.31 L2116.55 1335.34 Q2114.26 1336.31 2111.86 1336.82 Q2109.45 1337.33 2106.97 1337.33 Q2100.77 1337.33 2097.13 1333.72 Q2093.52 1330.11 2093.52 1323.95 Q2093.52 1317.58 2096.95 1313.86 Q2100.4 1310.11 2106.23 1310.11 Q2111.46 1310.11 2114.49 1313.49 Q2117.55 1316.84 2117.55 1322.63 M2113.29 1321.38 Q2113.24 1317.88 2111.32 1315.8 Q2109.42 1313.72 2106.28 1313.72 Q2102.71 1313.72 2100.56 1315.73 Q2098.43 1317.74 2098.11 1321.4 L2113.29 1321.38 Z" fill="#000000" fill-rule="evenodd" fill-opacity="1" /><path clip-path="url(#clip910)" d="M 0 0 M2146.09 1321.01 L2146.09 1336.66 L2141.83 1336.66 L2141.83 1321.15 Q2141.83 1317.47 2140.4 1315.64 Q2138.96 1313.81 2136.09 1313.81 Q2132.64 1313.81 2130.65 1316.01 Q2128.66 1318.21 2128.66 1322 L2128.66 1336.66 L2124.38 1336.66 L2124.38 1310.73 L2128.66 1310.73 L2128.66 1314.76 Q2130.19 1312.42 2132.25 1311.26 Q2134.33 1310.11 2137.04 1310.11 Q2141.51 1310.11 2143.8 1312.88 Q2146.09 1315.64 2146.09 1321.01 Z" fill="#000000" fill-rule="evenodd" fill-opacity="1" /><path clip-path="url(#clip910)" d="M 0 0 M2176.76 1322.63 L2176.76 1324.71 L2157.18 1324.71 Q2157.46 1329.11 2159.82 1331.42 Q2162.2 1333.72 2166.44 1333.72 Q2168.89 1333.72 2171.18 1333.11 Q2173.5 1332.51 2175.77 1331.31 L2175.77 1335.34 Q2173.48 1336.31 2171.07 1336.82 Q2168.66 1337.33 2166.18 1337.33 Q2159.98 1337.33 2156.35 1333.72 Q2152.73 1330.11 2152.73 1323.95 Q2152.73 1317.58 2156.16 1313.86 Q2159.61 1310.11 2165.44 1310.11 Q2170.67 1310.11 2173.71 1313.49 Q2176.76 1316.84 2176.76 1322.63 M2172.5 1321.38 Q2172.46 1317.88 2170.54 1315.8 Q2168.64 1313.72 2165.49 1313.72 Q2161.92 1313.72 2159.77 1315.73 Q2157.64 1317.74 2157.32 1321.4 L2172.5 1321.38 Z" fill="#000000" fill-rule="evenodd" fill-opacity="1" /><path clip-path="url(#clip910)" d="M 0 0 M2198.78 1314.71 Q2198.06 1314.3 2197.2 1314.11 Q2196.37 1313.9 2195.35 1313.9 Q2191.74 1313.9 2189.79 1316.26 Q2187.87 1318.6 2187.87 1323 L2187.87 1336.66 L2183.59 1336.66 L2183.59 1310.73 L2187.87 1310.73 L2187.87 1314.76 Q2189.22 1312.4 2191.37 1311.26 Q2193.52 1310.11 2196.6 1310.11 Q2197.04 1310.11 2197.57 1310.17 Q2198.1 1310.22 2198.75 1310.34 L2198.78 1314.71 Z" fill="#000000" fill-rule="evenodd" fill-opacity="1" /><path clip-path="url(#clip910)" d="M 0 0 M2219.47 1323.39 Q2219.47 1318.76 2217.55 1316.22 Q2215.65 1313.67 2212.2 1313.67 Q2208.78 1313.67 2206.85 1316.22 Q2204.96 1318.76 2204.96 1323.39 Q2204.96 1328 2206.85 1330.55 Q2208.78 1333.09 2212.2 1333.09 Q2215.65 1333.09 2217.55 1330.55 Q2219.47 1328 2219.47 1323.39 M2223.73 1333.44 Q2223.73 1340.06 2220.79 1343.28 Q2217.85 1346.52 2211.79 1346.52 Q2209.54 1346.52 2207.55 1346.17 Q2205.56 1345.85 2203.68 1345.15 L2203.68 1341.01 Q2205.56 1342.03 2207.39 1342.51 Q2209.22 1343 2211.11 1343 Q2215.3 1343 2217.39 1340.8 Q2219.47 1338.62 2219.47 1334.2 L2219.47 1332.1 Q2218.15 1334.39 2216.09 1335.52 Q2214.03 1336.66 2211.16 1336.66 Q2206.39 1336.66 2203.48 1333.02 Q2200.56 1329.39 2200.56 1323.39 Q2200.56 1317.37 2203.48 1313.74 Q2206.39 1310.11 2211.16 1310.11 Q2214.03 1310.11 2216.09 1311.24 Q2218.15 1312.37 2219.47 1314.67 L2219.47 1310.73 L2223.73 1310.73 L2223.73 1333.44 Z" fill="#000000" fill-rule="evenodd" fill-opacity="1" /><path clip-path="url(#clip910)" d="M 0 0 M2243.29 1339.06 Q2241.48 1343.69 2239.77 1345.11 Q2238.06 1346.52 2235.19 1346.52 L2231.79 1346.52 L2231.79 1342.95 L2234.29 1342.95 Q2236.04 1342.95 2237.02 1342.12 Q2237.99 1341.29 2239.17 1338.18 L2239.93 1336.24 L2229.45 1310.73 L2233.96 1310.73 L2242.06 1331.01 L2250.16 1310.73 L2254.68 1310.73 L2243.29 1339.06 Z" fill="#000000" fill-rule="evenodd" fill-opacity="1" /></svg>
