<?xml version="1.0" encoding="utf-8"?>
<svg xmlns="http://www.w3.org/2000/svg" xmlns:xlink="http://www.w3.org/1999/xlink" width="600" height="400" viewBox="0 0 2400 1600">
<defs>
  <clipPath id="clip750">
    <rect x="0" y="0" width="2400" height="1600"/>
  </clipPath>
</defs>
<path clip-path="url(#clip750)" d="
M0 1600 L2400 1600 L2400 0 L0 0  Z
  " fill="#ffffff" fill-rule="evenodd" fill-opacity="1"/>
<defs>
  <clipPath id="clip751">
    <rect x="480" y="0" width="1681" height="1600"/>
  </clipPath>
</defs>
<path clip-path="url(#clip750)" d="
M557.204 1423.18 L2352.76 1423.18 L2352.76 123.472 L557.204 123.472  Z
  " fill="#ffffff" fill-rule="evenodd" fill-opacity="1"/>
<defs>
  <clipPath id="clip752">
    <rect x="557" y="123" width="1797" height="1301"/>
  </clipPath>
</defs>
<polyline clip-path="url(#clip752)" style="stroke:#000000; stroke-width:2; stroke-opacity:0.1; fill:none" points="
  608.021,1423.18 608.021,123.472 
  "/>
<polyline clip-path="url(#clip752)" style="stroke:#000000; stroke-width:2; stroke-opacity:0.1; fill:none" points="
  890.341,1423.18 890.341,123.472 
  "/>
<polyline clip-path="url(#clip752)" style="stroke:#000000; stroke-width:2; stroke-opacity:0.1; fill:none" points="
  1172.66,1423.18 1172.66,123.472 
  "/>
<polyline clip-path="url(#clip752)" style="stroke:#000000; stroke-width:2; stroke-opacity:0.1; fill:none" points="
  1454.98,1423.18 1454.98,123.472 
  "/>
<polyline clip-path="url(#clip752)" style="stroke:#000000; stroke-width:2; stroke-opacity:0.1; fill:none" points="
  1737.3,1423.18 1737.3,123.472 
  "/>
<polyline clip-path="url(#clip752)" style="stroke:#000000; stroke-width:2; stroke-opacity:0.1; fill:none" points="
  2019.62,1423.18 2019.62,123.472 
  "/>
<polyline clip-path="url(#clip752)" style="stroke:#000000; stroke-width:2; stroke-opacity:0.1; fill:none" points="
  2301.94,1423.18 2301.94,123.472 
  "/>
<polyline clip-path="url(#clip750)" style="stroke:#000000; stroke-width:4; stroke-opacity:1; fill:none" points="
  557.204,1423.18 2352.76,1423.18 
  "/>
<polyline clip-path="url(#clip750)" style="stroke:#000000; stroke-width:4; stroke-opacity:1; fill:none" points="
  608.021,1423.18 608.021,1407.58 
  "/>
<polyline clip-path="url(#clip750)" style="stroke:#000000; stroke-width:4; stroke-opacity:1; fill:none" points="
  890.341,1423.18 890.341,1407.58 
  "/>
<polyline clip-path="url(#clip750)" style="stroke:#000000; stroke-width:4; stroke-opacity:1; fill:none" points="
  1172.66,1423.18 1172.66,1407.58 
  "/>
<polyline clip-path="url(#clip750)" style="stroke:#000000; stroke-width:4; stroke-opacity:1; fill:none" points="
  1454.98,1423.18 1454.98,1407.58 
  "/>
<polyline clip-path="url(#clip750)" style="stroke:#000000; stroke-width:4; stroke-opacity:1; fill:none" points="
  1737.3,1423.18 1737.3,1407.58 
  "/>
<polyline clip-path="url(#clip750)" style="stroke:#000000; stroke-width:4; stroke-opacity:1; fill:none" points="
  2019.62,1423.18 2019.62,1407.58 
  "/>
<polyline clip-path="url(#clip750)" style="stroke:#000000; stroke-width:4; stroke-opacity:1; fill:none" points="
  2301.94,1423.18 2301.94,1407.58 
  "/>
<path clip-path="url(#clip750)" d="M 0 0 M586.795 1479.92 L603.114 1479.92 L603.114 1483.85 L581.17 1483.85 L581.17 1479.92 Q583.832 1477.16 588.415 1472.53 Q593.021 1467.88 594.202 1466.54 Q596.447 1464.01 597.327 1462.28 Q598.23 1460.52 598.23 1458.83 Q598.23 1456.07 596.285 1454.34 Q594.364 1452.6 591.262 1452.6 Q589.063 1452.6 586.609 1453.37 Q584.179 1454.13 581.401 1455.68 L581.401 1450.96 Q584.225 1449.82 586.679 1449.25 Q589.133 1448.67 591.17 1448.67 Q596.54 1448.67 599.734 1451.35 Q602.929 1454.04 602.929 1458.53 Q602.929 1460.66 602.119 1462.58 Q601.332 1464.48 599.225 1467.07 Q598.646 1467.74 595.545 1470.96 Q592.443 1474.15 586.795 1479.92 Z" fill="#000000" fill-rule="evenodd" fill-opacity="1" /><path clip-path="url(#clip750)" d="M 0 0 M622.929 1452.37 Q619.318 1452.37 617.489 1455.94 Q615.683 1459.48 615.683 1466.61 Q615.683 1473.71 617.489 1477.28 Q619.318 1480.82 622.929 1480.82 Q626.563 1480.82 628.368 1477.28 Q630.197 1473.71 630.197 1466.61 Q630.197 1459.48 628.368 1455.94 Q626.563 1452.37 622.929 1452.37 M622.929 1448.67 Q628.739 1448.67 631.794 1453.27 Q634.873 1457.86 634.873 1466.61 Q634.873 1475.33 631.794 1479.94 Q628.739 1484.52 622.929 1484.52 Q617.119 1484.52 614.04 1479.94 Q610.984 1475.33 610.984 1466.61 Q610.984 1457.86 614.04 1453.27 Q617.119 1448.67 622.929 1448.67 Z" fill="#000000" fill-rule="evenodd" fill-opacity="1" /><path clip-path="url(#clip750)" d="M 0 0 M879.184 1465.22 Q882.54 1465.94 884.415 1468.2 Q886.313 1470.47 886.313 1473.81 Q886.313 1478.92 882.795 1481.72 Q879.276 1484.52 872.795 1484.52 Q870.619 1484.52 868.304 1484.08 Q866.012 1483.67 863.559 1482.81 L863.559 1478.3 Q865.503 1479.43 867.818 1480.01 Q870.133 1480.59 872.656 1480.59 Q877.054 1480.59 879.346 1478.85 Q881.66 1477.12 881.66 1473.81 Q881.66 1470.75 879.508 1469.04 Q877.378 1467.3 873.559 1467.3 L869.531 1467.3 L869.531 1463.46 L873.744 1463.46 Q877.193 1463.46 879.021 1462.09 Q880.85 1460.7 880.85 1458.11 Q880.85 1455.45 878.952 1454.04 Q877.077 1452.6 873.559 1452.6 Q871.637 1452.6 869.438 1453.02 Q867.239 1453.44 864.6 1454.31 L864.6 1450.15 Q867.262 1449.41 869.577 1449.04 Q871.915 1448.67 873.975 1448.67 Q879.299 1448.67 882.401 1451.1 Q885.503 1453.5 885.503 1457.63 Q885.503 1460.5 883.859 1462.49 Q882.216 1464.45 879.184 1465.22 Z" fill="#000000" fill-rule="evenodd" fill-opacity="1" /><path clip-path="url(#clip750)" d="M 0 0 M905.179 1452.37 Q901.568 1452.37 899.739 1455.94 Q897.933 1459.48 897.933 1466.61 Q897.933 1473.71 899.739 1477.28 Q901.568 1480.82 905.179 1480.82 Q908.813 1480.82 910.619 1477.28 Q912.447 1473.71 912.447 1466.61 Q912.447 1459.48 910.619 1455.94 Q908.813 1452.37 905.179 1452.37 M905.179 1448.67 Q910.989 1448.67 914.044 1453.27 Q917.123 1457.86 917.123 1466.61 Q917.123 1475.33 914.044 1479.94 Q910.989 1484.52 905.179 1484.52 Q899.369 1484.52 896.29 1479.94 Q893.234 1475.33 893.234 1466.61 Q893.234 1457.86 896.29 1453.27 Q899.369 1448.67 905.179 1448.67 Z" fill="#000000" fill-rule="evenodd" fill-opacity="1" /><path clip-path="url(#clip750)" d="M 0 0 M1160.83 1453.37 L1149.03 1471.81 L1160.83 1471.81 L1160.83 1453.37 M1159.6 1449.29 L1165.48 1449.29 L1165.48 1471.81 L1170.42 1471.81 L1170.42 1475.7 L1165.48 1475.7 L1165.48 1483.85 L1160.83 1483.85 L1160.83 1475.7 L1145.23 1475.7 L1145.23 1471.19 L1159.6 1449.29 Z" fill="#000000" fill-rule="evenodd" fill-opacity="1" /><path clip-path="url(#clip750)" d="M 0 0 M1188.15 1452.37 Q1184.54 1452.37 1182.71 1455.94 Q1180.9 1459.48 1180.9 1466.61 Q1180.9 1473.71 1182.71 1477.28 Q1184.54 1480.82 1188.15 1480.82 Q1191.78 1480.82 1193.59 1477.28 Q1195.41 1473.71 1195.41 1466.61 Q1195.41 1459.48 1193.59 1455.94 Q1191.78 1452.37 1188.15 1452.37 M1188.15 1448.67 Q1193.96 1448.67 1197.01 1453.27 Q1200.09 1457.86 1200.09 1466.61 Q1200.09 1475.33 1197.01 1479.94 Q1193.96 1484.52 1188.15 1484.52 Q1182.34 1484.52 1179.26 1479.94 Q1176.2 1475.33 1176.2 1466.61 Q1176.2 1457.86 1179.26 1453.27 Q1182.34 1448.67 1188.15 1448.67 Z" fill="#000000" fill-rule="evenodd" fill-opacity="1" /><path clip-path="url(#clip750)" d="M 0 0 M1429.68 1449.29 L1448.04 1449.29 L1448.04 1453.23 L1433.96 1453.23 L1433.96 1461.7 Q1434.98 1461.35 1436 1461.19 Q1437.02 1461 1438.04 1461 Q1443.82 1461 1447.2 1464.18 Q1450.58 1467.35 1450.58 1472.76 Q1450.58 1478.34 1447.11 1481.44 Q1443.64 1484.52 1437.32 1484.52 Q1435.14 1484.52 1432.87 1484.15 Q1430.63 1483.78 1428.22 1483.04 L1428.22 1478.34 Q1430.3 1479.48 1432.53 1480.03 Q1434.75 1480.59 1437.23 1480.59 Q1441.23 1480.59 1443.57 1478.48 Q1445.91 1476.38 1445.91 1472.76 Q1445.91 1469.15 1443.57 1467.05 Q1441.23 1464.94 1437.23 1464.94 Q1435.35 1464.94 1433.48 1465.36 Q1431.62 1465.77 1429.68 1466.65 L1429.68 1449.29 Z" fill="#000000" fill-rule="evenodd" fill-opacity="1" /><path clip-path="url(#clip750)" d="M 0 0 M1469.79 1452.37 Q1466.18 1452.37 1464.35 1455.94 Q1462.55 1459.48 1462.55 1466.61 Q1462.55 1473.71 1464.35 1477.28 Q1466.18 1480.82 1469.79 1480.82 Q1473.43 1480.82 1475.23 1477.28 Q1477.06 1473.71 1477.06 1466.61 Q1477.06 1459.48 1475.23 1455.94 Q1473.43 1452.37 1469.79 1452.37 M1469.79 1448.67 Q1475.6 1448.67 1478.66 1453.27 Q1481.74 1457.86 1481.74 1466.61 Q1481.74 1475.33 1478.66 1479.94 Q1475.6 1484.52 1469.79 1484.52 Q1463.98 1484.52 1460.91 1479.94 Q1457.85 1475.33 1457.85 1466.61 Q1457.85 1457.86 1460.91 1453.27 Q1463.98 1448.67 1469.79 1448.67 Z" fill="#000000" fill-rule="evenodd" fill-opacity="1" /><path clip-path="url(#clip750)" d="M 0 0 M1722.7 1464.71 Q1719.56 1464.71 1717.7 1466.86 Q1715.88 1469.01 1715.88 1472.76 Q1715.88 1476.49 1717.7 1478.67 Q1719.56 1480.82 1722.7 1480.82 Q1725.85 1480.82 1727.68 1478.67 Q1729.53 1476.49 1729.53 1472.76 Q1729.53 1469.01 1727.68 1466.86 Q1725.85 1464.71 1722.7 1464.71 M1731.99 1450.06 L1731.99 1454.31 Q1730.23 1453.48 1728.42 1453.04 Q1726.64 1452.6 1724.88 1452.6 Q1720.25 1452.6 1717.8 1455.73 Q1715.37 1458.85 1715.02 1465.17 Q1716.39 1463.16 1718.45 1462.09 Q1720.51 1461 1722.98 1461 Q1728.19 1461 1731.2 1464.18 Q1734.23 1467.32 1734.23 1472.76 Q1734.23 1478.09 1731.08 1481.31 Q1727.94 1484.52 1722.7 1484.52 Q1716.71 1484.52 1713.54 1479.94 Q1710.37 1475.33 1710.37 1466.61 Q1710.37 1458.41 1714.26 1453.55 Q1718.14 1448.67 1724.7 1448.67 Q1726.45 1448.67 1728.24 1449.01 Q1730.04 1449.36 1731.99 1450.06 Z" fill="#000000" fill-rule="evenodd" fill-opacity="1" /><path clip-path="url(#clip750)" d="M 0 0 M1752.29 1452.37 Q1748.68 1452.37 1746.85 1455.94 Q1745.04 1459.48 1745.04 1466.61 Q1745.04 1473.71 1746.85 1477.28 Q1748.68 1480.82 1752.29 1480.82 Q1755.92 1480.82 1757.73 1477.28 Q1759.56 1473.71 1759.56 1466.61 Q1759.56 1459.48 1757.73 1455.94 Q1755.92 1452.37 1752.29 1452.37 M1752.29 1448.67 Q1758.1 1448.67 1761.15 1453.27 Q1764.23 1457.86 1764.23 1466.61 Q1764.23 1475.33 1761.15 1479.94 Q1758.1 1484.52 1752.29 1484.52 Q1746.48 1484.52 1743.4 1479.94 Q1740.34 1475.33 1740.34 1466.61 Q1740.34 1457.86 1743.4 1453.27 Q1746.48 1448.67 1752.29 1448.67 Z" fill="#000000" fill-rule="evenodd" fill-opacity="1" /><path clip-path="url(#clip750)" d="M 0 0 M1992.98 1449.29 L2015.2 1449.29 L2015.2 1451.28 L2002.65 1483.85 L1997.77 1483.85 L2009.57 1453.23 L1992.98 1453.23 L1992.98 1449.29 Z" fill="#000000" fill-rule="evenodd" fill-opacity="1" /><path clip-path="url(#clip750)" d="M 0 0 M2034.32 1452.37 Q2030.71 1452.37 2028.88 1455.94 Q2027.07 1459.48 2027.07 1466.61 Q2027.07 1473.71 2028.88 1477.28 Q2030.71 1480.82 2034.32 1480.82 Q2037.95 1480.82 2039.76 1477.28 Q2041.59 1473.71 2041.59 1466.61 Q2041.59 1459.48 2039.76 1455.94 Q2037.95 1452.37 2034.32 1452.37 M2034.32 1448.67 Q2040.13 1448.67 2043.18 1453.27 Q2046.26 1457.86 2046.26 1466.61 Q2046.26 1475.33 2043.18 1479.94 Q2040.13 1484.52 2034.32 1484.52 Q2028.51 1484.52 2025.43 1479.94 Q2022.37 1475.33 2022.37 1466.61 Q2022.37 1457.86 2025.43 1453.27 Q2028.51 1448.67 2034.32 1448.67 Z" fill="#000000" fill-rule="evenodd" fill-opacity="1" /><path clip-path="url(#clip750)" d="M 0 0 M2286.81 1467.44 Q2283.48 1467.44 2281.56 1469.22 Q2279.66 1471 2279.66 1474.13 Q2279.66 1477.25 2281.56 1479.04 Q2283.48 1480.82 2286.81 1480.82 Q2290.14 1480.82 2292.07 1479.04 Q2293.99 1477.23 2293.99 1474.13 Q2293.99 1471 2292.07 1469.22 Q2290.17 1467.44 2286.81 1467.44 M2282.14 1465.45 Q2279.13 1464.71 2277.44 1462.65 Q2275.77 1460.59 2275.77 1457.63 Q2275.77 1453.48 2278.71 1451.07 Q2281.67 1448.67 2286.81 1448.67 Q2291.97 1448.67 2294.91 1451.07 Q2297.85 1453.48 2297.85 1457.63 Q2297.85 1460.59 2296.16 1462.65 Q2294.5 1464.71 2291.51 1465.45 Q2294.89 1466.24 2296.76 1468.53 Q2298.66 1470.82 2298.66 1474.13 Q2298.66 1479.15 2295.58 1481.84 Q2292.53 1484.52 2286.81 1484.52 Q2281.09 1484.52 2278.01 1481.84 Q2274.96 1479.15 2274.96 1474.13 Q2274.96 1470.82 2276.86 1468.53 Q2278.76 1466.24 2282.14 1465.45 M2280.42 1458.06 Q2280.42 1460.75 2282.09 1462.25 Q2283.78 1463.76 2286.81 1463.76 Q2289.82 1463.76 2291.51 1462.25 Q2293.22 1460.75 2293.22 1458.06 Q2293.22 1455.38 2291.51 1453.88 Q2289.82 1452.37 2286.81 1452.37 Q2283.78 1452.37 2282.09 1453.88 Q2280.42 1455.38 2280.42 1458.06 Z" fill="#000000" fill-rule="evenodd" fill-opacity="1" /><path clip-path="url(#clip750)" d="M 0 0 M2316.97 1452.37 Q2313.36 1452.37 2311.53 1455.94 Q2309.73 1459.48 2309.73 1466.61 Q2309.73 1473.71 2311.53 1477.28 Q2313.36 1480.82 2316.97 1480.82 Q2320.61 1480.82 2322.41 1477.28 Q2324.24 1473.71 2324.24 1466.61 Q2324.24 1459.48 2322.41 1455.94 Q2320.61 1452.37 2316.97 1452.37 M2316.97 1448.67 Q2322.78 1448.67 2325.84 1453.27 Q2328.92 1457.86 2328.92 1466.61 Q2328.92 1475.33 2325.84 1479.94 Q2322.78 1484.52 2316.97 1484.52 Q2311.16 1484.52 2308.08 1479.94 Q2305.03 1475.33 2305.03 1466.61 Q2305.03 1457.86 2308.08 1453.27 Q2311.16 1448.67 2316.97 1448.67 Z" fill="#000000" fill-rule="evenodd" fill-opacity="1" /><path clip-path="url(#clip750)" d="M 0 0 M1459.45 1576 L1454.71 1563.81 L1444.94 1581.63 L1438.03 1581.63 L1451.84 1556.43 L1446.05 1541.44 Q1444.49 1537.42 1439.59 1537.42 L1438.03 1537.42 L1438.03 1532.4 L1440.26 1532.46 Q1448.47 1532.68 1450.54 1538 L1455.25 1550.19 L1465.02 1532.36 L1471.93 1532.36 L1458.11 1557.57 L1463.91 1572.56 Q1465.47 1576.57 1470.37 1576.57 L1471.93 1576.57 L1471.93 1581.6 L1469.7 1581.54 Q1461.49 1581.32 1459.45 1576 Z" fill="#000000" fill-rule="evenodd" fill-opacity="1" /><polyline clip-path="url(#clip752)" style="stroke:#000000; stroke-width:2; stroke-opacity:0.1; fill:none" points="
  557.204,1272.92 2352.76,1272.92 
  "/>
<polyline clip-path="url(#clip752)" style="stroke:#000000; stroke-width:2; stroke-opacity:0.1; fill:none" points="
  557.204,1072.57 2352.76,1072.57 
  "/>
<polyline clip-path="url(#clip752)" style="stroke:#000000; stroke-width:2; stroke-opacity:0.1; fill:none" points="
  557.204,872.227 2352.76,872.227 
  "/>
<polyline clip-path="url(#clip752)" style="stroke:#000000; stroke-width:2; stroke-opacity:0.1; fill:none" points="
  557.204,671.88 2352.76,671.88 
  "/>
<polyline clip-path="url(#clip752)" style="stroke:#000000; stroke-width:2; stroke-opacity:0.1; fill:none" points="
  557.204,471.533 2352.76,471.533 
  "/>
<polyline clip-path="url(#clip752)" style="stroke:#000000; stroke-width:2; stroke-opacity:0.1; fill:none" points="
  557.204,271.185 2352.76,271.185 
  "/>
<polyline clip-path="url(#clip750)" style="stroke:#000000; stroke-width:4; stroke-opacity:1; fill:none" points="
  557.204,1423.18 557.204,123.472 
  "/>
<polyline clip-path="url(#clip750)" style="stroke:#000000; stroke-width:4; stroke-opacity:1; fill:none" points="
  557.204,1272.92 578.75,1272.92 
  "/>
<polyline clip-path="url(#clip750)" style="stroke:#000000; stroke-width:4; stroke-opacity:1; fill:none" points="
  557.204,1072.57 578.75,1072.57 
  "/>
<polyline clip-path="url(#clip750)" style="stroke:#000000; stroke-width:4; stroke-opacity:1; fill:none" points="
  557.204,872.227 578.75,872.227 
  "/>
<polyline clip-path="url(#clip750)" style="stroke:#000000; stroke-width:4; stroke-opacity:1; fill:none" points="
  557.204,671.88 578.75,671.88 
  "/>
<polyline clip-path="url(#clip750)" style="stroke:#000000; stroke-width:4; stroke-opacity:1; fill:none" points="
  557.204,471.533 578.75,471.533 
  "/>
<polyline clip-path="url(#clip750)" style="stroke:#000000; stroke-width:4; stroke-opacity:1; fill:none" points="
  557.204,271.185 578.75,271.185 
  "/>
<path clip-path="url(#clip750)" d="M 0 0 M114.26 1279.82 L143.936 1279.82 L143.936 1283.76 L114.26 1283.76 L114.26 1279.82 Z" fill="#000000" fill-rule="evenodd" fill-opacity="1" /><path clip-path="url(#clip750)" d="M 0 0 M168.195 1278.01 Q171.552 1278.73 173.427 1281 Q175.325 1283.27 175.325 1286.6 Q175.325 1291.72 171.806 1294.52 Q168.288 1297.32 161.806 1297.32 Q159.63 1297.32 157.315 1296.88 Q155.024 1296.46 152.57 1295.61 L152.57 1291.09 Q154.515 1292.23 156.829 1292.81 Q159.144 1293.39 161.667 1293.39 Q166.065 1293.39 168.357 1291.65 Q170.672 1289.91 170.672 1286.6 Q170.672 1283.55 168.519 1281.83 Q166.39 1280.1 162.57 1280.1 L158.542 1280.1 L158.542 1276.26 L162.755 1276.26 Q166.204 1276.26 168.033 1274.89 Q169.862 1273.5 169.862 1270.91 Q169.862 1268.25 167.964 1266.83 Q166.089 1265.4 162.57 1265.4 Q160.649 1265.4 158.45 1265.82 Q156.251 1266.23 153.612 1267.11 L153.612 1262.95 Q156.274 1262.2 158.589 1261.83 Q160.927 1261.46 162.987 1261.46 Q168.311 1261.46 171.413 1263.89 Q174.514 1266.3 174.514 1270.42 Q174.514 1273.29 172.871 1275.28 Q171.227 1277.25 168.195 1278.01 Z" fill="#000000" fill-rule="evenodd" fill-opacity="1" /><path clip-path="url(#clip750)" d="M 0 0 M184.19 1290.77 L189.075 1290.77 L189.075 1296.65 L184.19 1296.65 L184.19 1290.77 Z" fill="#000000" fill-rule="evenodd" fill-opacity="1" /><path clip-path="url(#clip750)" d="M 0 0 M199.399 1295.93 L199.399 1291.67 Q201.158 1292.51 202.963 1292.95 Q204.769 1293.39 206.505 1293.39 Q211.135 1293.39 213.565 1290.28 Q216.019 1287.16 216.366 1280.82 Q215.024 1282.81 212.963 1283.87 Q210.903 1284.94 208.403 1284.94 Q203.218 1284.94 200.186 1281.81 Q197.176 1278.66 197.176 1273.22 Q197.176 1267.9 200.325 1264.68 Q203.473 1261.46 208.704 1261.46 Q214.699 1261.46 217.848 1266.07 Q221.019 1270.65 221.019 1279.4 Q221.019 1287.58 217.13 1292.46 Q213.264 1297.32 206.713 1297.32 Q204.954 1297.32 203.149 1296.97 Q201.343 1296.63 199.399 1295.93 M208.704 1281.28 Q211.852 1281.28 213.681 1279.13 Q215.533 1276.97 215.533 1273.22 Q215.533 1269.5 213.681 1267.34 Q211.852 1265.17 208.704 1265.17 Q205.556 1265.17 203.704 1267.34 Q201.875 1269.5 201.875 1273.22 Q201.875 1276.97 203.704 1279.13 Q205.556 1281.28 208.704 1281.28 Z" fill="#000000" fill-rule="evenodd" fill-opacity="1" /><path clip-path="url(#clip750)" d="M 0 0 M233.449 1292.71 L249.769 1292.71 L249.769 1296.65 L227.824 1296.65 L227.824 1292.71 Q230.486 1289.96 235.07 1285.33 Q239.676 1280.68 240.857 1279.33 Q243.102 1276.81 243.982 1275.08 Q244.884 1273.32 244.884 1271.63 Q244.884 1268.87 242.94 1267.14 Q241.019 1265.4 237.917 1265.4 Q235.718 1265.4 233.264 1266.16 Q230.834 1266.93 228.056 1268.48 L228.056 1263.76 Q230.88 1262.62 233.334 1262.04 Q235.787 1261.46 237.824 1261.46 Q243.195 1261.46 246.389 1264.15 Q249.584 1266.83 249.584 1271.33 Q249.584 1273.45 248.773 1275.38 Q247.986 1277.27 245.88 1279.87 Q245.301 1280.54 242.199 1283.76 Q239.097 1286.95 233.449 1292.71 Z" fill="#000000" fill-rule="evenodd" fill-opacity="1" /><path clip-path="url(#clip750)" d="M 0 0 M259.63 1262.09 L277.986 1262.09 L277.986 1266.02 L263.912 1266.02 L263.912 1274.5 Q264.931 1274.15 265.949 1273.99 Q266.968 1273.8 267.986 1273.8 Q273.773 1273.8 277.153 1276.97 Q280.532 1280.14 280.532 1285.56 Q280.532 1291.14 277.06 1294.24 Q273.588 1297.32 267.269 1297.32 Q265.093 1297.32 262.824 1296.95 Q260.579 1296.58 258.171 1295.84 L258.171 1291.14 Q260.255 1292.27 262.477 1292.83 Q264.699 1293.39 267.176 1293.39 Q271.181 1293.39 273.519 1291.28 Q275.857 1289.17 275.857 1285.56 Q275.857 1281.95 273.519 1279.84 Q271.181 1277.74 267.176 1277.74 Q265.301 1277.74 263.426 1278.15 Q261.574 1278.57 259.63 1279.45 L259.63 1262.09 Z" fill="#000000" fill-rule="evenodd" fill-opacity="1" /><path clip-path="url(#clip750)" d="M 0 0 M299.745 1265.17 Q296.134 1265.17 294.305 1268.73 Q292.5 1272.27 292.5 1279.4 Q292.5 1286.51 294.305 1290.08 Q296.134 1293.62 299.745 1293.62 Q303.38 1293.62 305.185 1290.08 Q307.014 1286.51 307.014 1279.4 Q307.014 1272.27 305.185 1268.73 Q303.38 1265.17 299.745 1265.17 M299.745 1261.46 Q305.555 1261.46 308.611 1266.07 Q311.69 1270.65 311.69 1279.4 Q311.69 1288.13 308.611 1292.74 Q305.555 1297.32 299.745 1297.32 Q293.935 1297.32 290.856 1292.74 Q287.801 1288.13 287.801 1279.4 Q287.801 1270.65 290.856 1266.07 Q293.935 1261.46 299.745 1261.46 Z" fill="#000000" fill-rule="evenodd" fill-opacity="1" /><path clip-path="url(#clip750)" d="M 0 0 M329.907 1280.24 Q326.574 1280.24 324.653 1282.02 Q322.754 1283.8 322.754 1286.93 Q322.754 1290.05 324.653 1291.83 Q326.574 1293.62 329.907 1293.62 Q333.24 1293.62 335.162 1291.83 Q337.083 1290.03 337.083 1286.93 Q337.083 1283.8 335.162 1282.02 Q333.264 1280.24 329.907 1280.24 M325.231 1278.25 Q322.222 1277.51 320.532 1275.45 Q318.866 1273.39 318.866 1270.42 Q318.866 1266.28 321.805 1263.87 Q324.768 1261.46 329.907 1261.46 Q335.069 1261.46 338.009 1263.87 Q340.949 1266.28 340.949 1270.42 Q340.949 1273.39 339.259 1275.45 Q337.592 1277.51 334.606 1278.25 Q337.986 1279.03 339.861 1281.33 Q341.759 1283.62 341.759 1286.93 Q341.759 1291.95 338.68 1294.64 Q335.625 1297.32 329.907 1297.32 Q324.19 1297.32 321.111 1294.64 Q318.055 1291.95 318.055 1286.93 Q318.055 1283.62 319.953 1281.33 Q321.852 1279.03 325.231 1278.25 M323.518 1270.86 Q323.518 1273.55 325.185 1275.05 Q326.875 1276.56 329.907 1276.56 Q332.916 1276.56 334.606 1275.05 Q336.319 1273.55 336.319 1270.86 Q336.319 1268.18 334.606 1266.67 Q332.916 1265.17 329.907 1265.17 Q326.875 1265.17 325.185 1266.67 Q323.518 1268.18 323.518 1270.86 Z" fill="#000000" fill-rule="evenodd" fill-opacity="1" /><path clip-path="url(#clip750)" d="M 0 0 M360.069 1265.17 Q356.458 1265.17 354.629 1268.73 Q352.824 1272.27 352.824 1279.4 Q352.824 1286.51 354.629 1290.08 Q356.458 1293.62 360.069 1293.62 Q363.703 1293.62 365.509 1290.08 Q367.338 1286.51 367.338 1279.4 Q367.338 1272.27 365.509 1268.73 Q363.703 1265.17 360.069 1265.17 M360.069 1261.46 Q365.879 1261.46 368.935 1266.07 Q372.013 1270.65 372.013 1279.4 Q372.013 1288.13 368.935 1292.74 Q365.879 1297.32 360.069 1297.32 Q354.259 1297.32 351.18 1292.74 Q348.125 1288.13 348.125 1279.4 Q348.125 1270.65 351.18 1266.07 Q354.259 1261.46 360.069 1261.46 Z" fill="#000000" fill-rule="evenodd" fill-opacity="1" /><path clip-path="url(#clip750)" d="M 0 0 M408.402 1271.19 L397.823 1281.81 L408.402 1292.39 L405.647 1295.19 L395.023 1284.57 L384.398 1295.19 L381.666 1292.39 L392.222 1281.81 L381.666 1271.19 L384.398 1268.39 L395.023 1279.01 L405.647 1268.39 L408.402 1271.19 Z" fill="#000000" fill-rule="evenodd" fill-opacity="1" /><path clip-path="url(#clip750)" d="M 0 0 M420.763 1292.71 L428.402 1292.71 L428.402 1266.35 L420.092 1268.02 L420.092 1263.76 L428.356 1262.09 L433.032 1262.09 L433.032 1292.71 L440.67 1292.71 L440.67 1296.65 L420.763 1296.65 L420.763 1292.71 Z" fill="#000000" fill-rule="evenodd" fill-opacity="1" /><path clip-path="url(#clip750)" d="M 0 0 M460.115 1265.17 Q456.504 1265.17 454.675 1268.73 Q452.869 1272.27 452.869 1279.4 Q452.869 1286.51 454.675 1290.08 Q456.504 1293.62 460.115 1293.62 Q463.749 1293.62 465.555 1290.08 Q467.383 1286.51 467.383 1279.4 Q467.383 1272.27 465.555 1268.73 Q463.749 1265.17 460.115 1265.17 M460.115 1261.46 Q465.925 1261.46 468.98 1266.07 Q472.059 1270.65 472.059 1279.4 Q472.059 1288.13 468.98 1292.74 Q465.925 1297.32 460.115 1297.32 Q454.305 1297.32 451.226 1292.74 Q448.17 1288.13 448.17 1279.4 Q448.17 1270.65 451.226 1266.07 Q454.305 1261.46 460.115 1261.46 Z" fill="#000000" fill-rule="evenodd" fill-opacity="1" /><path clip-path="url(#clip750)" d="M 0 0 M472.059 1255.57 L496.171 1255.57 L496.171 1258.76 L472.059 1258.76 L472.059 1255.57 Z" fill="#000000" fill-rule="evenodd" fill-opacity="1" /><path clip-path="url(#clip750)" d="M 0 0 M505.029 1266.04 L511.236 1266.04 L511.236 1244.62 L504.484 1245.97 L504.484 1242.51 L511.198 1241.16 L514.997 1241.16 L514.997 1266.04 L521.204 1266.04 L521.204 1269.24 L505.029 1269.24 L505.029 1266.04 Z" fill="#000000" fill-rule="evenodd" fill-opacity="1" /><path clip-path="url(#clip750)" d="M 0 0 M114.26 1079.47 L143.936 1079.47 L143.936 1083.41 L114.26 1083.41 L114.26 1079.47 Z" fill="#000000" fill-rule="evenodd" fill-opacity="1" /><path clip-path="url(#clip750)" d="M 0 0 M168.195 1077.67 Q171.552 1078.39 173.427 1080.65 Q175.325 1082.92 175.325 1086.26 Q175.325 1091.37 171.806 1094.17 Q168.288 1096.97 161.806 1096.97 Q159.63 1096.97 157.315 1096.53 Q155.024 1096.12 152.57 1095.26 L152.57 1090.75 Q154.515 1091.88 156.829 1092.46 Q159.144 1093.04 161.667 1093.04 Q166.065 1093.04 168.357 1091.3 Q170.672 1089.57 170.672 1086.26 Q170.672 1083.2 168.519 1081.49 Q166.39 1079.75 162.57 1079.75 L158.542 1079.75 L158.542 1075.91 L162.755 1075.91 Q166.204 1075.91 168.033 1074.54 Q169.862 1073.15 169.862 1070.56 Q169.862 1067.9 167.964 1066.49 Q166.089 1065.05 162.57 1065.05 Q160.649 1065.05 158.45 1065.47 Q156.251 1065.89 153.612 1066.77 L153.612 1062.6 Q156.274 1061.86 158.589 1061.49 Q160.927 1061.12 162.987 1061.12 Q168.311 1061.12 171.413 1063.55 Q174.514 1065.95 174.514 1070.08 Q174.514 1072.95 172.871 1074.94 Q171.227 1076.9 168.195 1077.67 Z" fill="#000000" fill-rule="evenodd" fill-opacity="1" /><path clip-path="url(#clip750)" d="M 0 0 M184.19 1090.42 L189.075 1090.42 L189.075 1096.3 L184.19 1096.3 L184.19 1090.42 Z" fill="#000000" fill-rule="evenodd" fill-opacity="1" /><path clip-path="url(#clip750)" d="M 0 0 M199.399 1095.58 L199.399 1091.33 Q201.158 1092.16 202.963 1092.6 Q204.769 1093.04 206.505 1093.04 Q211.135 1093.04 213.565 1089.94 Q216.019 1086.81 216.366 1080.47 Q215.024 1082.46 212.963 1083.52 Q210.903 1084.59 208.403 1084.59 Q203.218 1084.59 200.186 1081.46 Q197.176 1078.32 197.176 1072.88 Q197.176 1067.55 200.325 1064.33 Q203.473 1061.12 208.704 1061.12 Q214.699 1061.12 217.848 1065.72 Q221.019 1070.31 221.019 1079.06 Q221.019 1087.23 217.13 1092.11 Q213.264 1096.97 206.713 1096.97 Q204.954 1096.97 203.149 1096.63 Q201.343 1096.28 199.399 1095.58 M208.704 1080.93 Q211.852 1080.93 213.681 1078.78 Q215.533 1076.63 215.533 1072.88 Q215.533 1069.15 213.681 1067 Q211.852 1064.82 208.704 1064.82 Q205.556 1064.82 203.704 1067 Q201.875 1069.15 201.875 1072.88 Q201.875 1076.63 203.704 1078.78 Q205.556 1080.93 208.704 1080.93 Z" fill="#000000" fill-rule="evenodd" fill-opacity="1" /><path clip-path="url(#clip750)" d="M 0 0 M233.449 1092.37 L249.769 1092.37 L249.769 1096.3 L227.824 1096.3 L227.824 1092.37 Q230.486 1089.61 235.07 1084.98 Q239.676 1080.33 240.857 1078.99 Q243.102 1076.46 243.982 1074.73 Q244.884 1072.97 244.884 1071.28 Q244.884 1068.52 242.94 1066.79 Q241.019 1065.05 237.917 1065.05 Q235.718 1065.05 233.264 1065.82 Q230.834 1066.58 228.056 1068.13 L228.056 1063.41 Q230.88 1062.27 233.334 1061.7 Q235.787 1061.12 237.824 1061.12 Q243.195 1061.12 246.389 1063.8 Q249.584 1066.49 249.584 1070.98 Q249.584 1073.11 248.773 1075.03 Q247.986 1076.93 245.88 1079.52 Q245.301 1080.19 242.199 1083.41 Q239.097 1086.6 233.449 1092.37 Z" fill="#000000" fill-rule="evenodd" fill-opacity="1" /><path clip-path="url(#clip750)" d="M 0 0 M259.63 1061.74 L277.986 1061.74 L277.986 1065.68 L263.912 1065.68 L263.912 1074.15 Q264.931 1073.8 265.949 1073.64 Q266.968 1073.45 267.986 1073.45 Q273.773 1073.45 277.153 1076.63 Q280.532 1079.8 280.532 1085.21 Q280.532 1090.79 277.06 1093.89 Q273.588 1096.97 267.269 1096.97 Q265.093 1096.97 262.824 1096.6 Q260.579 1096.23 258.171 1095.49 L258.171 1090.79 Q260.255 1091.93 262.477 1092.48 Q264.699 1093.04 267.176 1093.04 Q271.181 1093.04 273.519 1090.93 Q275.857 1088.83 275.857 1085.21 Q275.857 1081.6 273.519 1079.5 Q271.181 1077.39 267.176 1077.39 Q265.301 1077.39 263.426 1077.81 Q261.574 1078.22 259.63 1079.1 L259.63 1061.74 Z" fill="#000000" fill-rule="evenodd" fill-opacity="1" /><path clip-path="url(#clip750)" d="M 0 0 M299.745 1064.82 Q296.134 1064.82 294.305 1068.39 Q292.5 1071.93 292.5 1079.06 Q292.5 1086.16 294.305 1089.73 Q296.134 1093.27 299.745 1093.27 Q303.38 1093.27 305.185 1089.73 Q307.014 1086.16 307.014 1079.06 Q307.014 1071.93 305.185 1068.39 Q303.38 1064.82 299.745 1064.82 M299.745 1061.12 Q305.555 1061.12 308.611 1065.72 Q311.69 1070.31 311.69 1079.06 Q311.69 1087.78 308.611 1092.39 Q305.555 1096.97 299.745 1096.97 Q293.935 1096.97 290.856 1092.39 Q287.801 1087.78 287.801 1079.06 Q287.801 1070.31 290.856 1065.72 Q293.935 1061.12 299.745 1061.12 Z" fill="#000000" fill-rule="evenodd" fill-opacity="1" /><path clip-path="url(#clip750)" d="M 0 0 M318.727 1061.74 L340.949 1061.74 L340.949 1063.73 L328.403 1096.3 L323.518 1096.3 L335.324 1065.68 L318.727 1065.68 L318.727 1061.74 Z" fill="#000000" fill-rule="evenodd" fill-opacity="1" /><path clip-path="url(#clip750)" d="M 0 0 M360.069 1064.82 Q356.458 1064.82 354.629 1068.39 Q352.824 1071.93 352.824 1079.06 Q352.824 1086.16 354.629 1089.73 Q356.458 1093.27 360.069 1093.27 Q363.703 1093.27 365.509 1089.73 Q367.338 1086.16 367.338 1079.06 Q367.338 1071.93 365.509 1068.39 Q363.703 1064.82 360.069 1064.82 M360.069 1061.12 Q365.879 1061.12 368.935 1065.72 Q372.013 1070.31 372.013 1079.06 Q372.013 1087.78 368.935 1092.39 Q365.879 1096.97 360.069 1096.97 Q354.259 1096.97 351.18 1092.39 Q348.125 1087.78 348.125 1079.06 Q348.125 1070.31 351.18 1065.72 Q354.259 1061.12 360.069 1061.12 Z" fill="#000000" fill-rule="evenodd" fill-opacity="1" /><path clip-path="url(#clip750)" d="M 0 0 M408.402 1070.84 L397.823 1081.46 L408.402 1092.04 L405.647 1094.84 L395.023 1084.22 L384.398 1094.84 L381.666 1092.04 L392.222 1081.46 L381.666 1070.84 L384.398 1068.04 L395.023 1078.66 L405.647 1068.04 L408.402 1070.84 Z" fill="#000000" fill-rule="evenodd" fill-opacity="1" /><path clip-path="url(#clip750)" d="M 0 0 M420.763 1092.37 L428.402 1092.37 L428.402 1066 L420.092 1067.67 L420.092 1063.41 L428.356 1061.74 L433.032 1061.74 L433.032 1092.37 L440.67 1092.37 L440.67 1096.3 L420.763 1096.3 L420.763 1092.37 Z" fill="#000000" fill-rule="evenodd" fill-opacity="1" /><path clip-path="url(#clip750)" d="M 0 0 M460.115 1064.82 Q456.504 1064.82 454.675 1068.39 Q452.869 1071.93 452.869 1079.06 Q452.869 1086.16 454.675 1089.73 Q456.504 1093.27 460.115 1093.27 Q463.749 1093.27 465.555 1089.73 Q467.383 1086.16 467.383 1079.06 Q467.383 1071.93 465.555 1068.39 Q463.749 1064.82 460.115 1064.82 M460.115 1061.12 Q465.925 1061.12 468.98 1065.72 Q472.059 1070.31 472.059 1079.06 Q472.059 1087.78 468.98 1092.39 Q465.925 1096.97 460.115 1096.97 Q454.305 1096.97 451.226 1092.39 Q448.17 1087.78 448.17 1079.06 Q448.17 1070.31 451.226 1065.72 Q454.305 1061.12 460.115 1061.12 Z" fill="#000000" fill-rule="evenodd" fill-opacity="1" /><path clip-path="url(#clip750)" d="M 0 0 M472.059 1055.22 L496.171 1055.22 L496.171 1058.42 L472.059 1058.42 L472.059 1055.22 Z" fill="#000000" fill-rule="evenodd" fill-opacity="1" /><path clip-path="url(#clip750)" d="M 0 0 M505.029 1065.69 L511.236 1065.69 L511.236 1044.27 L504.484 1045.63 L504.484 1042.17 L511.198 1040.81 L514.997 1040.81 L514.997 1065.69 L521.204 1065.69 L521.204 1068.89 L505.029 1068.89 L505.029 1065.69 Z" fill="#000000" fill-rule="evenodd" fill-opacity="1" /><path clip-path="url(#clip750)" d="M 0 0 M114.26 879.126 L143.936 879.126 L143.936 883.061 L114.26 883.061 L114.26 879.126 Z" fill="#000000" fill-rule="evenodd" fill-opacity="1" /><path clip-path="url(#clip750)" d="M 0 0 M168.195 877.321 Q171.552 878.038 173.427 880.307 Q175.325 882.575 175.325 885.908 Q175.325 891.024 171.806 893.825 Q168.288 896.626 161.806 896.626 Q159.63 896.626 157.315 896.186 Q155.024 895.769 152.57 894.913 L152.57 890.399 Q154.515 891.533 156.829 892.112 Q159.144 892.691 161.667 892.691 Q166.065 892.691 168.357 890.955 Q170.672 889.219 170.672 885.908 Q170.672 882.853 168.519 881.14 Q166.39 879.404 162.57 879.404 L158.542 879.404 L158.542 875.561 L162.755 875.561 Q166.204 875.561 168.033 874.196 Q169.862 872.807 169.862 870.214 Q169.862 867.552 167.964 866.14 Q166.089 864.705 162.57 864.705 Q160.649 864.705 158.45 865.121 Q156.251 865.538 153.612 866.418 L153.612 862.251 Q156.274 861.51 158.589 861.14 Q160.927 860.77 162.987 860.77 Q168.311 860.77 171.413 863.2 Q174.514 865.608 174.514 869.728 Q174.514 872.598 172.871 874.589 Q171.227 876.557 168.195 877.321 Z" fill="#000000" fill-rule="evenodd" fill-opacity="1" /><path clip-path="url(#clip750)" d="M 0 0 M184.19 890.075 L189.075 890.075 L189.075 895.955 L184.19 895.955 L184.19 890.075 Z" fill="#000000" fill-rule="evenodd" fill-opacity="1" /><path clip-path="url(#clip750)" d="M 0 0 M199.399 895.237 L199.399 890.978 Q201.158 891.811 202.963 892.251 Q204.769 892.691 206.505 892.691 Q211.135 892.691 213.565 889.589 Q216.019 886.464 216.366 880.121 Q215.024 882.112 212.963 883.177 Q210.903 884.242 208.403 884.242 Q203.218 884.242 200.186 881.117 Q197.176 877.969 197.176 872.529 Q197.176 867.205 200.325 863.987 Q203.473 860.77 208.704 860.77 Q214.699 860.77 217.848 865.376 Q221.019 869.959 221.019 878.709 Q221.019 886.881 217.13 891.765 Q213.264 896.626 206.713 896.626 Q204.954 896.626 203.149 896.279 Q201.343 895.932 199.399 895.237 M208.704 880.584 Q211.852 880.584 213.681 878.432 Q215.533 876.279 215.533 872.529 Q215.533 868.802 213.681 866.649 Q211.852 864.473 208.704 864.473 Q205.556 864.473 203.704 866.649 Q201.875 868.802 201.875 872.529 Q201.875 876.279 203.704 878.432 Q205.556 880.584 208.704 880.584 Z" fill="#000000" fill-rule="evenodd" fill-opacity="1" /><path clip-path="url(#clip750)" d="M 0 0 M233.449 892.02 L249.769 892.02 L249.769 895.955 L227.824 895.955 L227.824 892.02 Q230.486 889.265 235.07 884.635 Q239.676 879.983 240.857 878.64 Q243.102 876.117 243.982 874.381 Q244.884 872.621 244.884 870.932 Q244.884 868.177 242.94 866.441 Q241.019 864.705 237.917 864.705 Q235.718 864.705 233.264 865.469 Q230.834 866.233 228.056 867.784 L228.056 863.061 Q230.88 861.927 233.334 861.348 Q235.787 860.77 237.824 860.77 Q243.195 860.77 246.389 863.455 Q249.584 866.14 249.584 870.631 Q249.584 872.76 248.773 874.682 Q247.986 876.58 245.88 879.172 Q245.301 879.844 242.199 883.061 Q239.097 886.256 233.449 892.02 Z" fill="#000000" fill-rule="evenodd" fill-opacity="1" /><path clip-path="url(#clip750)" d="M 0 0 M259.63 861.395 L277.986 861.395 L277.986 865.33 L263.912 865.33 L263.912 873.802 Q264.931 873.455 265.949 873.293 Q266.968 873.108 267.986 873.108 Q273.773 873.108 277.153 876.279 Q280.532 879.45 280.532 884.867 Q280.532 890.445 277.06 893.547 Q273.588 896.626 267.269 896.626 Q265.093 896.626 262.824 896.256 Q260.579 895.885 258.171 895.144 L258.171 890.445 Q260.255 891.58 262.477 892.135 Q264.699 892.691 267.176 892.691 Q271.181 892.691 273.519 890.584 Q275.857 888.478 275.857 884.867 Q275.857 881.256 273.519 879.149 Q271.181 877.043 267.176 877.043 Q265.301 877.043 263.426 877.459 Q261.574 877.876 259.63 878.756 L259.63 861.395 Z" fill="#000000" fill-rule="evenodd" fill-opacity="1" /><path clip-path="url(#clip750)" d="M 0 0 M299.745 864.473 Q296.134 864.473 294.305 868.038 Q292.5 871.58 292.5 878.709 Q292.5 885.816 294.305 889.381 Q296.134 892.922 299.745 892.922 Q303.38 892.922 305.185 889.381 Q307.014 885.816 307.014 878.709 Q307.014 871.58 305.185 868.038 Q303.38 864.473 299.745 864.473 M299.745 860.77 Q305.555 860.77 308.611 865.376 Q311.69 869.959 311.69 878.709 Q311.69 887.436 308.611 892.043 Q305.555 896.626 299.745 896.626 Q293.935 896.626 290.856 892.043 Q287.801 887.436 287.801 878.709 Q287.801 869.959 290.856 865.376 Q293.935 860.77 299.745 860.77 Z" fill="#000000" fill-rule="evenodd" fill-opacity="1" /><path clip-path="url(#clip750)" d="M 0 0 M330.486 876.811 Q327.338 876.811 325.486 878.964 Q323.657 881.117 323.657 884.867 Q323.657 888.594 325.486 890.77 Q327.338 892.922 330.486 892.922 Q333.634 892.922 335.463 890.77 Q337.315 888.594 337.315 884.867 Q337.315 881.117 335.463 878.964 Q333.634 876.811 330.486 876.811 M339.768 862.159 L339.768 866.418 Q338.009 865.584 336.203 865.145 Q334.421 864.705 332.662 864.705 Q328.032 864.705 325.578 867.83 Q323.148 870.955 322.801 877.274 Q324.166 875.26 326.227 874.196 Q328.287 873.108 330.764 873.108 Q335.972 873.108 338.981 876.279 Q342.014 879.427 342.014 884.867 Q342.014 890.191 338.865 893.408 Q335.717 896.626 330.486 896.626 Q324.491 896.626 321.319 892.043 Q318.148 887.436 318.148 878.709 Q318.148 870.515 322.037 865.654 Q325.926 860.77 332.477 860.77 Q334.236 860.77 336.018 861.117 Q337.824 861.464 339.768 862.159 Z" fill="#000000" fill-rule="evenodd" fill-opacity="1" /><path clip-path="url(#clip750)" d="M 0 0 M360.069 864.473 Q356.458 864.473 354.629 868.038 Q352.824 871.58 352.824 878.709 Q352.824 885.816 354.629 889.381 Q356.458 892.922 360.069 892.922 Q363.703 892.922 365.509 889.381 Q367.338 885.816 367.338 878.709 Q367.338 871.58 365.509 868.038 Q363.703 864.473 360.069 864.473 M360.069 860.77 Q365.879 860.77 368.935 865.376 Q372.013 869.959 372.013 878.709 Q372.013 887.436 368.935 892.043 Q365.879 896.626 360.069 896.626 Q354.259 896.626 351.18 892.043 Q348.125 887.436 348.125 878.709 Q348.125 869.959 351.18 865.376 Q354.259 860.77 360.069 860.77 Z" fill="#000000" fill-rule="evenodd" fill-opacity="1" /><path clip-path="url(#clip750)" d="M 0 0 M408.402 870.492 L397.823 881.117 L408.402 891.695 L405.647 894.496 L395.023 883.871 L384.398 894.496 L381.666 891.695 L392.222 881.117 L381.666 870.492 L384.398 867.691 L395.023 878.316 L405.647 867.691 L408.402 870.492 Z" fill="#000000" fill-rule="evenodd" fill-opacity="1" /><path clip-path="url(#clip750)" d="M 0 0 M420.763 892.02 L428.402 892.02 L428.402 865.654 L420.092 867.321 L420.092 863.061 L428.356 861.395 L433.032 861.395 L433.032 892.02 L440.67 892.02 L440.67 895.955 L420.763 895.955 L420.763 892.02 Z" fill="#000000" fill-rule="evenodd" fill-opacity="1" /><path clip-path="url(#clip750)" d="M 0 0 M460.115 864.473 Q456.504 864.473 454.675 868.038 Q452.869 871.58 452.869 878.709 Q452.869 885.816 454.675 889.381 Q456.504 892.922 460.115 892.922 Q463.749 892.922 465.555 889.381 Q467.383 885.816 467.383 878.709 Q467.383 871.58 465.555 868.038 Q463.749 864.473 460.115 864.473 M460.115 860.77 Q465.925 860.77 468.98 865.376 Q472.059 869.959 472.059 878.709 Q472.059 887.436 468.98 892.043 Q465.925 896.626 460.115 896.626 Q454.305 896.626 451.226 892.043 Q448.17 887.436 448.17 878.709 Q448.17 869.959 451.226 865.376 Q454.305 860.77 460.115 860.77 Z" fill="#000000" fill-rule="evenodd" fill-opacity="1" /><path clip-path="url(#clip750)" d="M 0 0 M472.059 854.871 L496.171 854.871 L496.171 858.068 L472.059 858.068 L472.059 854.871 Z" fill="#000000" fill-rule="evenodd" fill-opacity="1" /><path clip-path="url(#clip750)" d="M 0 0 M505.029 865.347 L511.236 865.347 L511.236 843.925 L504.484 845.279 L504.484 841.818 L511.198 840.464 L514.997 840.464 L514.997 865.347 L521.204 865.347 L521.204 868.544 L505.029 868.544 L505.029 865.347 Z" fill="#000000" fill-rule="evenodd" fill-opacity="1" /><path clip-path="url(#clip750)" d="M 0 0 M114.26 678.779 L143.936 678.779 L143.936 682.714 L114.26 682.714 L114.26 678.779 Z" fill="#000000" fill-rule="evenodd" fill-opacity="1" /><path clip-path="url(#clip750)" d="M 0 0 M168.195 676.973 Q171.552 677.691 173.427 679.959 Q175.325 682.228 175.325 685.561 Q175.325 690.677 171.806 693.478 Q168.288 696.279 161.806 696.279 Q159.63 696.279 157.315 695.839 Q155.024 695.422 152.57 694.566 L152.57 690.052 Q154.515 691.186 156.829 691.765 Q159.144 692.344 161.667 692.344 Q166.065 692.344 168.357 690.607 Q170.672 688.871 170.672 685.561 Q170.672 682.506 168.519 680.793 Q166.39 679.057 162.57 679.057 L158.542 679.057 L158.542 675.214 L162.755 675.214 Q166.204 675.214 168.033 673.848 Q169.862 672.459 169.862 669.867 Q169.862 667.205 167.964 665.793 Q166.089 664.358 162.57 664.358 Q160.649 664.358 158.45 664.774 Q156.251 665.191 153.612 666.071 L153.612 661.904 Q156.274 661.163 158.589 660.793 Q160.927 660.422 162.987 660.422 Q168.311 660.422 171.413 662.853 Q174.514 665.26 174.514 669.381 Q174.514 672.251 172.871 674.242 Q171.227 676.209 168.195 676.973 Z" fill="#000000" fill-rule="evenodd" fill-opacity="1" /><path clip-path="url(#clip750)" d="M 0 0 M184.19 689.728 L189.075 689.728 L189.075 695.607 L184.19 695.607 L184.19 689.728 Z" fill="#000000" fill-rule="evenodd" fill-opacity="1" /><path clip-path="url(#clip750)" d="M 0 0 M199.399 694.89 L199.399 690.631 Q201.158 691.464 202.963 691.904 Q204.769 692.344 206.505 692.344 Q211.135 692.344 213.565 689.242 Q216.019 686.117 216.366 679.774 Q215.024 681.765 212.963 682.83 Q210.903 683.895 208.403 683.895 Q203.218 683.895 200.186 680.77 Q197.176 677.621 197.176 672.182 Q197.176 666.858 200.325 663.64 Q203.473 660.422 208.704 660.422 Q214.699 660.422 217.848 665.029 Q221.019 669.612 221.019 678.362 Q221.019 686.533 217.13 691.418 Q213.264 696.279 206.713 696.279 Q204.954 696.279 203.149 695.932 Q201.343 695.584 199.399 694.89 M208.704 680.237 Q211.852 680.237 213.681 678.084 Q215.533 675.932 215.533 672.182 Q215.533 668.455 213.681 666.302 Q211.852 664.126 208.704 664.126 Q205.556 664.126 203.704 666.302 Q201.875 668.455 201.875 672.182 Q201.875 675.932 203.704 678.084 Q205.556 680.237 208.704 680.237 Z" fill="#000000" fill-rule="evenodd" fill-opacity="1" /><path clip-path="url(#clip750)" d="M 0 0 M233.449 691.672 L249.769 691.672 L249.769 695.607 L227.824 695.607 L227.824 691.672 Q230.486 688.918 235.07 684.288 Q239.676 679.635 240.857 678.293 Q243.102 675.77 243.982 674.033 Q244.884 672.274 244.884 670.584 Q244.884 667.83 242.94 666.094 Q241.019 664.358 237.917 664.358 Q235.718 664.358 233.264 665.121 Q230.834 665.885 228.056 667.436 L228.056 662.714 Q230.88 661.58 233.334 661.001 Q235.787 660.422 237.824 660.422 Q243.195 660.422 246.389 663.108 Q249.584 665.793 249.584 670.284 Q249.584 672.413 248.773 674.334 Q247.986 676.233 245.88 678.825 Q245.301 679.496 242.199 682.714 Q239.097 685.908 233.449 691.672 Z" fill="#000000" fill-rule="evenodd" fill-opacity="1" /><path clip-path="url(#clip750)" d="M 0 0 M259.63 661.047 L277.986 661.047 L277.986 664.983 L263.912 664.983 L263.912 673.455 Q264.931 673.108 265.949 672.946 Q266.968 672.76 267.986 672.76 Q273.773 672.76 277.153 675.932 Q280.532 679.103 280.532 684.52 Q280.532 690.098 277.06 693.2 Q273.588 696.279 267.269 696.279 Q265.093 696.279 262.824 695.908 Q260.579 695.538 258.171 694.797 L258.171 690.098 Q260.255 691.232 262.477 691.788 Q264.699 692.344 267.176 692.344 Q271.181 692.344 273.519 690.237 Q275.857 688.131 275.857 684.52 Q275.857 680.908 273.519 678.802 Q271.181 676.696 267.176 676.696 Q265.301 676.696 263.426 677.112 Q261.574 677.529 259.63 678.408 L259.63 661.047 Z" fill="#000000" fill-rule="evenodd" fill-opacity="1" /><path clip-path="url(#clip750)" d="M 0 0 M299.745 664.126 Q296.134 664.126 294.305 667.691 Q292.5 671.233 292.5 678.362 Q292.5 685.469 294.305 689.033 Q296.134 692.575 299.745 692.575 Q303.38 692.575 305.185 689.033 Q307.014 685.469 307.014 678.362 Q307.014 671.233 305.185 667.691 Q303.38 664.126 299.745 664.126 M299.745 660.422 Q305.555 660.422 308.611 665.029 Q311.69 669.612 311.69 678.362 Q311.69 687.089 308.611 691.695 Q305.555 696.279 299.745 696.279 Q293.935 696.279 290.856 691.695 Q287.801 687.089 287.801 678.362 Q287.801 669.612 290.856 665.029 Q293.935 660.422 299.745 660.422 Z" fill="#000000" fill-rule="evenodd" fill-opacity="1" /><path clip-path="url(#clip750)" d="M 0 0 M319.953 661.047 L338.31 661.047 L338.31 664.983 L324.236 664.983 L324.236 673.455 Q325.254 673.108 326.273 672.946 Q327.291 672.76 328.31 672.76 Q334.097 672.76 337.477 675.932 Q340.856 679.103 340.856 684.52 Q340.856 690.098 337.384 693.2 Q333.912 696.279 327.592 696.279 Q325.416 696.279 323.148 695.908 Q320.903 695.538 318.495 694.797 L318.495 690.098 Q320.578 691.232 322.801 691.788 Q325.023 692.344 327.5 692.344 Q331.504 692.344 333.842 690.237 Q336.18 688.131 336.18 684.52 Q336.18 680.908 333.842 678.802 Q331.504 676.696 327.5 676.696 Q325.625 676.696 323.75 677.112 Q321.898 677.529 319.953 678.408 L319.953 661.047 Z" fill="#000000" fill-rule="evenodd" fill-opacity="1" /><path clip-path="url(#clip750)" d="M 0 0 M360.069 664.126 Q356.458 664.126 354.629 667.691 Q352.824 671.233 352.824 678.362 Q352.824 685.469 354.629 689.033 Q356.458 692.575 360.069 692.575 Q363.703 692.575 365.509 689.033 Q367.338 685.469 367.338 678.362 Q367.338 671.233 365.509 667.691 Q363.703 664.126 360.069 664.126 M360.069 660.422 Q365.879 660.422 368.935 665.029 Q372.013 669.612 372.013 678.362 Q372.013 687.089 368.935 691.695 Q365.879 696.279 360.069 696.279 Q354.259 696.279 351.18 691.695 Q348.125 687.089 348.125 678.362 Q348.125 669.612 351.18 665.029 Q354.259 660.422 360.069 660.422 Z" fill="#000000" fill-rule="evenodd" fill-opacity="1" /><path clip-path="url(#clip750)" d="M 0 0 M408.402 670.145 L397.823 680.77 L408.402 691.348 L405.647 694.149 L395.023 683.524 L384.398 694.149 L381.666 691.348 L392.222 680.77 L381.666 670.145 L384.398 667.344 L395.023 677.969 L405.647 667.344 L408.402 670.145 Z" fill="#000000" fill-rule="evenodd" fill-opacity="1" /><path clip-path="url(#clip750)" d="M 0 0 M420.763 691.672 L428.402 691.672 L428.402 665.307 L420.092 666.973 L420.092 662.714 L428.356 661.047 L433.032 661.047 L433.032 691.672 L440.67 691.672 L440.67 695.607 L420.763 695.607 L420.763 691.672 Z" fill="#000000" fill-rule="evenodd" fill-opacity="1" /><path clip-path="url(#clip750)" d="M 0 0 M460.115 664.126 Q456.504 664.126 454.675 667.691 Q452.869 671.233 452.869 678.362 Q452.869 685.469 454.675 689.033 Q456.504 692.575 460.115 692.575 Q463.749 692.575 465.555 689.033 Q467.383 685.469 467.383 678.362 Q467.383 671.233 465.555 667.691 Q463.749 664.126 460.115 664.126 M460.115 660.422 Q465.925 660.422 468.98 665.029 Q472.059 669.612 472.059 678.362 Q472.059 687.089 468.98 691.695 Q465.925 696.279 460.115 696.279 Q454.305 696.279 451.226 691.695 Q448.17 687.089 448.17 678.362 Q448.17 669.612 451.226 665.029 Q454.305 660.422 460.115 660.422 Z" fill="#000000" fill-rule="evenodd" fill-opacity="1" /><path clip-path="url(#clip750)" d="M 0 0 M472.059 654.524 L496.171 654.524 L496.171 657.721 L472.059 657.721 L472.059 654.524 Z" fill="#000000" fill-rule="evenodd" fill-opacity="1" /><path clip-path="url(#clip750)" d="M 0 0 M505.029 665 L511.236 665 L511.236 643.578 L504.484 644.932 L504.484 641.471 L511.198 640.117 L514.997 640.117 L514.997 665 L521.204 665 L521.204 668.197 L505.029 668.197 L505.029 665 Z" fill="#000000" fill-rule="evenodd" fill-opacity="1" /><path clip-path="url(#clip750)" d="M 0 0 M114.26 478.432 L143.936 478.432 L143.936 482.367 L114.26 482.367 L114.26 478.432 Z" fill="#000000" fill-rule="evenodd" fill-opacity="1" /><path clip-path="url(#clip750)" d="M 0 0 M168.195 476.626 Q171.552 477.344 173.427 479.612 Q175.325 481.881 175.325 485.214 Q175.325 490.33 171.806 493.131 Q168.288 495.932 161.806 495.932 Q159.63 495.932 157.315 495.492 Q155.024 495.075 152.57 494.219 L152.57 489.705 Q154.515 490.839 156.829 491.418 Q159.144 491.996 161.667 491.996 Q166.065 491.996 168.357 490.26 Q170.672 488.524 170.672 485.214 Q170.672 482.158 168.519 480.445 Q166.39 478.709 162.57 478.709 L158.542 478.709 L158.542 474.867 L162.755 474.867 Q166.204 474.867 168.033 473.501 Q169.862 472.112 169.862 469.52 Q169.862 466.858 167.964 465.446 Q166.089 464.01 162.57 464.01 Q160.649 464.01 158.45 464.427 Q156.251 464.844 153.612 465.723 L153.612 461.557 Q156.274 460.816 158.589 460.446 Q160.927 460.075 162.987 460.075 Q168.311 460.075 171.413 462.506 Q174.514 464.913 174.514 469.034 Q174.514 471.904 172.871 473.895 Q171.227 475.862 168.195 476.626 Z" fill="#000000" fill-rule="evenodd" fill-opacity="1" /><path clip-path="url(#clip750)" d="M 0 0 M184.19 489.381 L189.075 489.381 L189.075 495.26 L184.19 495.26 L184.19 489.381 Z" fill="#000000" fill-rule="evenodd" fill-opacity="1" /><path clip-path="url(#clip750)" d="M 0 0 M199.399 494.543 L199.399 490.283 Q201.158 491.117 202.963 491.557 Q204.769 491.996 206.505 491.996 Q211.135 491.996 213.565 488.895 Q216.019 485.77 216.366 479.427 Q215.024 481.418 212.963 482.483 Q210.903 483.547 208.403 483.547 Q203.218 483.547 200.186 480.422 Q197.176 477.274 197.176 471.834 Q197.176 466.51 200.325 463.293 Q203.473 460.075 208.704 460.075 Q214.699 460.075 217.848 464.682 Q221.019 469.265 221.019 478.015 Q221.019 486.186 217.13 491.07 Q213.264 495.932 206.713 495.932 Q204.954 495.932 203.149 495.584 Q201.343 495.237 199.399 494.543 M208.704 479.89 Q211.852 479.89 213.681 477.737 Q215.533 475.584 215.533 471.834 Q215.533 468.108 213.681 465.955 Q211.852 463.779 208.704 463.779 Q205.556 463.779 203.704 465.955 Q201.875 468.108 201.875 471.834 Q201.875 475.584 203.704 477.737 Q205.556 479.89 208.704 479.89 Z" fill="#000000" fill-rule="evenodd" fill-opacity="1" /><path clip-path="url(#clip750)" d="M 0 0 M233.449 491.325 L249.769 491.325 L249.769 495.26 L227.824 495.26 L227.824 491.325 Q230.486 488.57 235.07 483.941 Q239.676 479.288 240.857 477.945 Q243.102 475.422 243.982 473.686 Q244.884 471.927 244.884 470.237 Q244.884 467.483 242.94 465.746 Q241.019 464.01 237.917 464.01 Q235.718 464.01 233.264 464.774 Q230.834 465.538 228.056 467.089 L228.056 462.367 Q230.88 461.233 233.334 460.654 Q235.787 460.075 237.824 460.075 Q243.195 460.075 246.389 462.76 Q249.584 465.446 249.584 469.936 Q249.584 472.066 248.773 473.987 Q247.986 475.885 245.88 478.478 Q245.301 479.149 242.199 482.367 Q239.097 485.561 233.449 491.325 Z" fill="#000000" fill-rule="evenodd" fill-opacity="1" /><path clip-path="url(#clip750)" d="M 0 0 M259.63 460.7 L277.986 460.7 L277.986 464.635 L263.912 464.635 L263.912 473.108 Q264.931 472.76 265.949 472.598 Q266.968 472.413 267.986 472.413 Q273.773 472.413 277.153 475.584 Q280.532 478.756 280.532 484.172 Q280.532 489.751 277.06 492.853 Q273.588 495.932 267.269 495.932 Q265.093 495.932 262.824 495.561 Q260.579 495.191 258.171 494.45 L258.171 489.751 Q260.255 490.885 262.477 491.441 Q264.699 491.996 267.176 491.996 Q271.181 491.996 273.519 489.89 Q275.857 487.783 275.857 484.172 Q275.857 480.561 273.519 478.455 Q271.181 476.348 267.176 476.348 Q265.301 476.348 263.426 476.765 Q261.574 477.182 259.63 478.061 L259.63 460.7 Z" fill="#000000" fill-rule="evenodd" fill-opacity="1" /><path clip-path="url(#clip750)" d="M 0 0 M299.745 463.779 Q296.134 463.779 294.305 467.344 Q292.5 470.885 292.5 478.015 Q292.5 485.121 294.305 488.686 Q296.134 492.228 299.745 492.228 Q303.38 492.228 305.185 488.686 Q307.014 485.121 307.014 478.015 Q307.014 470.885 305.185 467.344 Q303.38 463.779 299.745 463.779 M299.745 460.075 Q305.555 460.075 308.611 464.682 Q311.69 469.265 311.69 478.015 Q311.69 486.742 308.611 491.348 Q305.555 495.932 299.745 495.932 Q293.935 495.932 290.856 491.348 Q287.801 486.742 287.801 478.015 Q287.801 469.265 290.856 464.682 Q293.935 460.075 299.745 460.075 Z" fill="#000000" fill-rule="evenodd" fill-opacity="1" /><path clip-path="url(#clip750)" d="M 0 0 M332.754 464.774 L320.949 483.223 L332.754 483.223 L332.754 464.774 M331.528 460.7 L337.407 460.7 L337.407 483.223 L342.338 483.223 L342.338 487.112 L337.407 487.112 L337.407 495.26 L332.754 495.26 L332.754 487.112 L317.153 487.112 L317.153 482.598 L331.528 460.7 Z" fill="#000000" fill-rule="evenodd" fill-opacity="1" /><path clip-path="url(#clip750)" d="M 0 0 M360.069 463.779 Q356.458 463.779 354.629 467.344 Q352.824 470.885 352.824 478.015 Q352.824 485.121 354.629 488.686 Q356.458 492.228 360.069 492.228 Q363.703 492.228 365.509 488.686 Q367.338 485.121 367.338 478.015 Q367.338 470.885 365.509 467.344 Q363.703 463.779 360.069 463.779 M360.069 460.075 Q365.879 460.075 368.935 464.682 Q372.013 469.265 372.013 478.015 Q372.013 486.742 368.935 491.348 Q365.879 495.932 360.069 495.932 Q354.259 495.932 351.18 491.348 Q348.125 486.742 348.125 478.015 Q348.125 469.265 351.18 464.682 Q354.259 460.075 360.069 460.075 Z" fill="#000000" fill-rule="evenodd" fill-opacity="1" /><path clip-path="url(#clip750)" d="M 0 0 M408.402 469.797 L397.823 480.422 L408.402 491.001 L405.647 493.802 L395.023 483.177 L384.398 493.802 L381.666 491.001 L392.222 480.422 L381.666 469.797 L384.398 466.996 L395.023 477.621 L405.647 466.996 L408.402 469.797 Z" fill="#000000" fill-rule="evenodd" fill-opacity="1" /><path clip-path="url(#clip750)" d="M 0 0 M420.763 491.325 L428.402 491.325 L428.402 464.959 L420.092 466.626 L420.092 462.367 L428.356 460.7 L433.032 460.7 L433.032 491.325 L440.67 491.325 L440.67 495.26 L420.763 495.26 L420.763 491.325 Z" fill="#000000" fill-rule="evenodd" fill-opacity="1" /><path clip-path="url(#clip750)" d="M 0 0 M460.115 463.779 Q456.504 463.779 454.675 467.344 Q452.869 470.885 452.869 478.015 Q452.869 485.121 454.675 488.686 Q456.504 492.228 460.115 492.228 Q463.749 492.228 465.555 488.686 Q467.383 485.121 467.383 478.015 Q467.383 470.885 465.555 467.344 Q463.749 463.779 460.115 463.779 M460.115 460.075 Q465.925 460.075 468.98 464.682 Q472.059 469.265 472.059 478.015 Q472.059 486.742 468.98 491.348 Q465.925 495.932 460.115 495.932 Q454.305 495.932 451.226 491.348 Q448.17 486.742 448.17 478.015 Q448.17 469.265 451.226 464.682 Q454.305 460.075 460.115 460.075 Z" fill="#000000" fill-rule="evenodd" fill-opacity="1" /><path clip-path="url(#clip750)" d="M 0 0 M472.059 454.177 L496.171 454.177 L496.171 457.374 L472.059 457.374 L472.059 454.177 Z" fill="#000000" fill-rule="evenodd" fill-opacity="1" /><path clip-path="url(#clip750)" d="M 0 0 M505.029 464.652 L511.236 464.652 L511.236 443.23 L504.484 444.585 L504.484 441.124 L511.198 439.77 L514.997 439.77 L514.997 464.652 L521.204 464.652 L521.204 467.85 L505.029 467.85 L505.029 464.652 Z" fill="#000000" fill-rule="evenodd" fill-opacity="1" /><path clip-path="url(#clip750)" d="M 0 0 M114.26 278.084 L143.936 278.084 L143.936 282.02 L114.26 282.02 L114.26 278.084 Z" fill="#000000" fill-rule="evenodd" fill-opacity="1" /><path clip-path="url(#clip750)" d="M 0 0 M168.195 276.279 Q171.552 276.996 173.427 279.265 Q175.325 281.533 175.325 284.867 Q175.325 289.982 171.806 292.783 Q168.288 295.584 161.806 295.584 Q159.63 295.584 157.315 295.144 Q155.024 294.728 152.57 293.871 L152.57 289.357 Q154.515 290.492 156.829 291.07 Q159.144 291.649 161.667 291.649 Q166.065 291.649 168.357 289.913 Q170.672 288.177 170.672 284.867 Q170.672 281.811 168.519 280.098 Q166.39 278.362 162.57 278.362 L158.542 278.362 L158.542 274.52 L162.755 274.52 Q166.204 274.52 168.033 273.154 Q169.862 271.765 169.862 269.172 Q169.862 266.51 167.964 265.098 Q166.089 263.663 162.57 263.663 Q160.649 263.663 158.45 264.08 Q156.251 264.496 153.612 265.376 L153.612 261.209 Q156.274 260.469 158.589 260.098 Q160.927 259.728 162.987 259.728 Q168.311 259.728 171.413 262.159 Q174.514 264.566 174.514 268.686 Q174.514 271.557 172.871 273.547 Q171.227 275.515 168.195 276.279 Z" fill="#000000" fill-rule="evenodd" fill-opacity="1" /><path clip-path="url(#clip750)" d="M 0 0 M184.19 289.033 L189.075 289.033 L189.075 294.913 L184.19 294.913 L184.19 289.033 Z" fill="#000000" fill-rule="evenodd" fill-opacity="1" /><path clip-path="url(#clip750)" d="M 0 0 M199.399 294.195 L199.399 289.936 Q201.158 290.769 202.963 291.209 Q204.769 291.649 206.505 291.649 Q211.135 291.649 213.565 288.547 Q216.019 285.422 216.366 279.08 Q215.024 281.07 212.963 282.135 Q210.903 283.2 208.403 283.2 Q203.218 283.2 200.186 280.075 Q197.176 276.927 197.176 271.487 Q197.176 266.163 200.325 262.946 Q203.473 259.728 208.704 259.728 Q214.699 259.728 217.848 264.334 Q221.019 268.918 221.019 277.668 Q221.019 285.839 217.13 290.723 Q213.264 295.584 206.713 295.584 Q204.954 295.584 203.149 295.237 Q201.343 294.89 199.399 294.195 M208.704 279.543 Q211.852 279.543 213.681 277.39 Q215.533 275.237 215.533 271.487 Q215.533 267.76 213.681 265.608 Q211.852 263.432 208.704 263.432 Q205.556 263.432 203.704 265.608 Q201.875 267.76 201.875 271.487 Q201.875 275.237 203.704 277.39 Q205.556 279.543 208.704 279.543 Z" fill="#000000" fill-rule="evenodd" fill-opacity="1" /><path clip-path="url(#clip750)" d="M 0 0 M233.449 290.978 L249.769 290.978 L249.769 294.913 L227.824 294.913 L227.824 290.978 Q230.486 288.223 235.07 283.594 Q239.676 278.941 240.857 277.598 Q243.102 275.075 243.982 273.339 Q244.884 271.58 244.884 269.89 Q244.884 267.135 242.94 265.399 Q241.019 263.663 237.917 263.663 Q235.718 263.663 233.264 264.427 Q230.834 265.191 228.056 266.742 L228.056 262.02 Q230.88 260.885 233.334 260.307 Q235.787 259.728 237.824 259.728 Q243.195 259.728 246.389 262.413 Q249.584 265.098 249.584 269.589 Q249.584 271.719 248.773 273.64 Q247.986 275.538 245.88 278.131 Q245.301 278.802 242.199 282.02 Q239.097 285.214 233.449 290.978 Z" fill="#000000" fill-rule="evenodd" fill-opacity="1" /><path clip-path="url(#clip750)" d="M 0 0 M259.63 260.353 L277.986 260.353 L277.986 264.288 L263.912 264.288 L263.912 272.76 Q264.931 272.413 265.949 272.251 Q266.968 272.066 267.986 272.066 Q273.773 272.066 277.153 275.237 Q280.532 278.408 280.532 283.825 Q280.532 289.404 277.06 292.506 Q273.588 295.584 267.269 295.584 Q265.093 295.584 262.824 295.214 Q260.579 294.844 258.171 294.103 L258.171 289.404 Q260.255 290.538 262.477 291.094 Q264.699 291.649 267.176 291.649 Q271.181 291.649 273.519 289.543 Q275.857 287.436 275.857 283.825 Q275.857 280.214 273.519 278.108 Q271.181 276.001 267.176 276.001 Q265.301 276.001 263.426 276.418 Q261.574 276.834 259.63 277.714 L259.63 260.353 Z" fill="#000000" fill-rule="evenodd" fill-opacity="1" /><path clip-path="url(#clip750)" d="M 0 0 M299.745 263.432 Q296.134 263.432 294.305 266.996 Q292.5 270.538 292.5 277.668 Q292.5 284.774 294.305 288.339 Q296.134 291.881 299.745 291.881 Q303.38 291.881 305.185 288.339 Q307.014 284.774 307.014 277.668 Q307.014 270.538 305.185 266.996 Q303.38 263.432 299.745 263.432 M299.745 259.728 Q305.555 259.728 308.611 264.334 Q311.69 268.918 311.69 277.668 Q311.69 286.395 308.611 291.001 Q305.555 295.584 299.745 295.584 Q293.935 295.584 290.856 291.001 Q287.801 286.395 287.801 277.668 Q287.801 268.918 290.856 264.334 Q293.935 259.728 299.745 259.728 Z" fill="#000000" fill-rule="evenodd" fill-opacity="1" /><path clip-path="url(#clip750)" d="M 0 0 M334.074 276.279 Q337.43 276.996 339.305 279.265 Q341.203 281.533 341.203 284.867 Q341.203 289.982 337.685 292.783 Q334.166 295.584 327.685 295.584 Q325.509 295.584 323.194 295.144 Q320.903 294.728 318.449 293.871 L318.449 289.357 Q320.393 290.492 322.708 291.07 Q325.023 291.649 327.546 291.649 Q331.944 291.649 334.236 289.913 Q336.551 288.177 336.551 284.867 Q336.551 281.811 334.398 280.098 Q332.268 278.362 328.449 278.362 L324.421 278.362 L324.421 274.52 L328.634 274.52 Q332.083 274.52 333.912 273.154 Q335.74 271.765 335.74 269.172 Q335.74 266.51 333.842 265.098 Q331.967 263.663 328.449 263.663 Q326.528 263.663 324.328 264.08 Q322.129 264.496 319.491 265.376 L319.491 261.209 Q322.153 260.469 324.467 260.098 Q326.805 259.728 328.865 259.728 Q334.19 259.728 337.291 262.159 Q340.393 264.566 340.393 268.686 Q340.393 271.557 338.75 273.547 Q337.106 275.515 334.074 276.279 Z" fill="#000000" fill-rule="evenodd" fill-opacity="1" /><path clip-path="url(#clip750)" d="M 0 0 M360.069 263.432 Q356.458 263.432 354.629 266.996 Q352.824 270.538 352.824 277.668 Q352.824 284.774 354.629 288.339 Q356.458 291.881 360.069 291.881 Q363.703 291.881 365.509 288.339 Q367.338 284.774 367.338 277.668 Q367.338 270.538 365.509 266.996 Q363.703 263.432 360.069 263.432 M360.069 259.728 Q365.879 259.728 368.935 264.334 Q372.013 268.918 372.013 277.668 Q372.013 286.395 368.935 291.001 Q365.879 295.584 360.069 295.584 Q354.259 295.584 351.18 291.001 Q348.125 286.395 348.125 277.668 Q348.125 268.918 351.18 264.334 Q354.259 259.728 360.069 259.728 Z" fill="#000000" fill-rule="evenodd" fill-opacity="1" /><path clip-path="url(#clip750)" d="M 0 0 M408.402 269.45 L397.823 280.075 L408.402 290.654 L405.647 293.455 L395.023 282.83 L384.398 293.455 L381.666 290.654 L392.222 280.075 L381.666 269.45 L384.398 266.649 L395.023 277.274 L405.647 266.649 L408.402 269.45 Z" fill="#000000" fill-rule="evenodd" fill-opacity="1" /><path clip-path="url(#clip750)" d="M 0 0 M420.763 290.978 L428.402 290.978 L428.402 264.612 L420.092 266.279 L420.092 262.02 L428.356 260.353 L433.032 260.353 L433.032 290.978 L440.67 290.978 L440.67 294.913 L420.763 294.913 L420.763 290.978 Z" fill="#000000" fill-rule="evenodd" fill-opacity="1" /><path clip-path="url(#clip750)" d="M 0 0 M460.115 263.432 Q456.504 263.432 454.675 266.996 Q452.869 270.538 452.869 277.668 Q452.869 284.774 454.675 288.339 Q456.504 291.881 460.115 291.881 Q463.749 291.881 465.555 288.339 Q467.383 284.774 467.383 277.668 Q467.383 270.538 465.555 266.996 Q463.749 263.432 460.115 263.432 M460.115 259.728 Q465.925 259.728 468.98 264.334 Q472.059 268.918 472.059 277.668 Q472.059 286.395 468.98 291.001 Q465.925 295.584 460.115 295.584 Q454.305 295.584 451.226 291.001 Q448.17 286.395 448.17 277.668 Q448.17 268.918 451.226 264.334 Q454.305 259.728 460.115 259.728 Z" fill="#000000" fill-rule="evenodd" fill-opacity="1" /><path clip-path="url(#clip750)" d="M 0 0 M472.059 253.829 L496.171 253.829 L496.171 257.027 L472.059 257.027 L472.059 253.829 Z" fill="#000000" fill-rule="evenodd" fill-opacity="1" /><path clip-path="url(#clip750)" d="M 0 0 M505.029 264.305 L511.236 264.305 L511.236 242.883 L504.484 244.237 L504.484 240.777 L511.198 239.423 L514.997 239.423 L514.997 264.305 L521.204 264.305 L521.204 267.503 L505.029 267.503 L505.029 264.305 Z" fill="#000000" fill-rule="evenodd" fill-opacity="1" /><path clip-path="url(#clip750)" d="M 0 0 M16.4842 788.636 L16.4842 758.589 L21.895 758.589 L21.895 782.206 L35.9632 782.206 L35.9632 759.576 L41.3741 759.576 L41.3741 782.206 L58.5933 782.206 L58.5933 758.016 L64.0042 758.016 L64.0042 788.636 L16.4842 788.636 Z" fill="#000000" fill-rule="evenodd" fill-opacity="1" /><path clip-path="url(#clip750)" d="M 0 0 M1356.02 48.0275 L1356.02 51.6733 L1321.75 51.6733 Q1322.23 59.3701 1326.36 63.421 Q1330.54 67.4314 1337.95 67.4314 Q1342.24 67.4314 1346.25 66.3781 Q1350.3 65.3249 1354.27 63.2184 L1354.27 70.267 Q1350.26 71.9684 1346.05 72.8596 Q1341.84 73.7508 1337.5 73.7508 Q1326.65 73.7508 1320.29 67.4314 Q1313.97 61.1119 1313.97 50.3365 Q1313.97 39.1965 1319.96 32.6746 Q1326 26.1121 1336.21 26.1121 Q1345.36 26.1121 1350.67 32.0264 Q1356.02 37.9003 1356.02 48.0275 M1348.56 45.84 Q1348.48 39.7232 1345.12 36.0774 Q1341.8 32.4315 1336.29 32.4315 Q1330.05 32.4315 1326.28 35.9558 Q1322.56 39.4801 1321.99 45.8805 L1348.56 45.84 Z" fill="#000000" fill-rule="evenodd" fill-opacity="1" /><path clip-path="url(#clip750)" d="M 0 0 M1405.96 45.1919 L1405.96 72.576 L1398.51 72.576 L1398.51 45.4349 Q1398.51 38.994 1396 35.7938 Q1393.49 32.5936 1388.46 32.5936 Q1382.43 32.5936 1378.94 36.4419 Q1375.46 40.2903 1375.46 46.9338 L1375.46 72.576 L1367.97 72.576 L1367.97 27.2059 L1375.46 27.2059 L1375.46 34.2544 Q1378.13 30.163 1381.74 28.1376 Q1385.39 26.1121 1390.12 26.1121 Q1397.94 26.1121 1401.95 30.9732 Q1405.96 35.7938 1405.96 45.1919 Z" fill="#000000" fill-rule="evenodd" fill-opacity="1" /><path clip-path="url(#clip750)" d="M 0 0 M1459.64 48.0275 L1459.64 51.6733 L1425.37 51.6733 Q1425.85 59.3701 1429.99 63.421 Q1434.16 67.4314 1441.57 67.4314 Q1445.87 67.4314 1449.88 66.3781 Q1453.93 65.3249 1457.9 63.2184 L1457.9 70.267 Q1453.89 71.9684 1449.67 72.8596 Q1445.46 73.7508 1441.13 73.7508 Q1430.27 73.7508 1423.91 67.4314 Q1417.59 61.1119 1417.59 50.3365 Q1417.59 39.1965 1423.59 32.6746 Q1429.62 26.1121 1439.83 26.1121 Q1448.98 26.1121 1454.29 32.0264 Q1459.64 37.9003 1459.64 48.0275 M1452.18 45.84 Q1452.1 39.7232 1448.74 36.0774 Q1445.42 32.4315 1439.91 32.4315 Q1433.67 32.4315 1429.9 35.9558 Q1426.18 39.4801 1425.61 45.8805 L1452.18 45.84 Z" fill="#000000" fill-rule="evenodd" fill-opacity="1" /><path clip-path="url(#clip750)" d="M 0 0 M1498.16 34.1734 Q1496.91 33.4443 1495.41 33.1202 Q1493.95 32.7556 1492.17 32.7556 Q1485.85 32.7556 1482.45 36.8875 Q1479.08 40.9789 1479.08 48.6757 L1479.08 72.576 L1471.59 72.576 L1471.59 27.2059 L1479.08 27.2059 L1479.08 34.2544 Q1481.43 30.1225 1485.2 28.1376 Q1488.97 26.1121 1494.35 26.1121 Q1495.12 26.1121 1496.06 26.2337 Q1496.99 26.3147 1498.12 26.5172 L1498.16 34.1734 Z" fill="#000000" fill-rule="evenodd" fill-opacity="1" /><path clip-path="url(#clip750)" d="M 0 0 M1534.38 49.3643 Q1534.38 41.2625 1531.02 36.8065 Q1527.69 32.3505 1521.66 32.3505 Q1515.66 32.3505 1512.3 36.8065 Q1508.98 41.2625 1508.98 49.3643 Q1508.98 57.4256 1512.3 61.8816 Q1515.66 66.3376 1521.66 66.3376 Q1527.69 66.3376 1531.02 61.8816 Q1534.38 57.4256 1534.38 49.3643 M1541.83 66.9452 Q1541.83 78.5308 1536.69 84.1616 Q1531.54 89.8329 1520.93 89.8329 Q1517 89.8329 1513.52 89.2252 Q1510.03 88.6581 1506.75 87.4428 L1506.75 80.1917 Q1510.03 81.9741 1513.23 82.8248 Q1516.43 83.6755 1519.75 83.6755 Q1527.09 83.6755 1530.73 79.8271 Q1534.38 76.0193 1534.38 68.282 L1534.38 64.5957 Q1532.07 68.6061 1528.46 70.5911 Q1524.86 72.576 1519.83 72.576 Q1511.49 72.576 1506.39 66.2161 Q1501.28 59.8562 1501.28 49.3643 Q1501.28 38.832 1506.39 32.472 Q1511.49 26.1121 1519.83 26.1121 Q1524.86 26.1121 1528.46 28.0971 Q1532.07 30.082 1534.38 34.0924 L1534.38 27.2059 L1541.83 27.2059 L1541.83 66.9452 Z" fill="#000000" fill-rule="evenodd" fill-opacity="1" /><path clip-path="url(#clip750)" d="M 0 0 M1576.06 76.7889 Q1572.9 84.8907 1569.9 87.3618 Q1566.91 89.8329 1561.88 89.8329 L1555.93 89.8329 L1555.93 83.5945 L1560.3 83.5945 Q1563.38 83.5945 1565.08 82.1361 Q1566.78 80.6778 1568.85 75.2496 L1570.19 71.8468 L1551.84 27.2059 L1559.74 27.2059 L1573.91 62.6918 L1588.09 27.2059 L1595.99 27.2059 L1576.06 76.7889 Z" fill="#000000" fill-rule="evenodd" fill-opacity="1" /><polyline clip-path="url(#clip752)" style="stroke:#009af9; stroke-width:12; stroke-opacity:1; fill:none" points="
  608.021,1386.4 890.341,297.497 1172.66,160.256 1454.98,238.614 1737.3,605.66 2019.62,652.69 2301.94,712.208 
  "/>
<path clip-path="url(#clip750)" d="
M1932.24 1379.86 L2292.9 1379.86 L2292.9 1258.9 L1932.24 1258.9  Z
  " fill="#ffffff" fill-rule="evenodd" fill-opacity="1"/>
<polyline clip-path="url(#clip750)" style="stroke:#000000; stroke-width:4; stroke-opacity:1; fill:none" points="
  1932.24,1379.86 2292.9,1379.86 2292.9,1258.9 1932.24,1258.9 1932.24,1379.86 
  "/>
<polyline clip-path="url(#clip750)" style="stroke:#009af9; stroke-width:4; stroke-opacity:1; fill:none" points="
  1952.19,1319.38 2071.9,1319.38 
  "/>
<path clip-path="url(#clip750)" d="M 0 0 M2115.87 1322.63 L2115.87 1324.71 L2096.29 1324.71 Q2096.57 1329.11 2098.93 1331.42 Q2101.31 1333.72 2105.55 1333.72 Q2108 1333.72 2110.3 1333.11 Q2112.61 1332.51 2114.88 1331.31 L2114.88 1335.34 Q2112.59 1336.31 2110.18 1336.82 Q2107.77 1337.33 2105.3 1337.33 Q2099.09 1337.33 2095.46 1333.72 Q2091.85 1330.11 2091.85 1323.95 Q2091.85 1317.58 2095.27 1313.86 Q2098.72 1310.11 2104.55 1310.11 Q2109.79 1310.11 2112.82 1313.49 Q2115.87 1316.84 2115.87 1322.63 M2111.61 1321.38 Q2111.57 1317.88 2109.65 1315.8 Q2107.75 1313.72 2104.6 1313.72 Q2101.04 1313.72 2098.88 1315.73 Q2096.75 1317.74 2096.43 1321.4 L2111.61 1321.38 Z" fill="#000000" fill-rule="evenodd" fill-opacity="1" /><path clip-path="url(#clip750)" d="M 0 0 M2144.42 1321.01 L2144.42 1336.66 L2140.16 1336.66 L2140.16 1321.15 Q2140.16 1317.47 2138.72 1315.64 Q2137.29 1313.81 2134.42 1313.81 Q2130.97 1313.81 2128.98 1316.01 Q2126.99 1318.21 2126.99 1322 L2126.99 1336.66 L2122.7 1336.66 L2122.7 1310.73 L2126.99 1310.73 L2126.99 1314.76 Q2128.51 1312.42 2130.57 1311.26 Q2132.66 1310.11 2135.36 1310.11 Q2139.83 1310.11 2142.12 1312.88 Q2144.42 1315.64 2144.42 1321.01 Z" fill="#000000" fill-rule="evenodd" fill-opacity="1" /><path clip-path="url(#clip750)" d="M 0 0 M2175.09 1322.63 L2175.09 1324.71 L2155.5 1324.71 Q2155.78 1329.11 2158.14 1331.42 Q2160.53 1333.72 2164.76 1333.72 Q2167.22 1333.72 2169.51 1333.11 Q2171.82 1332.51 2174.09 1331.31 L2174.09 1335.34 Q2171.8 1336.31 2169.39 1336.82 Q2166.98 1337.33 2164.51 1337.33 Q2158.3 1337.33 2154.67 1333.72 Q2151.06 1330.11 2151.06 1323.95 Q2151.06 1317.58 2154.49 1313.86 Q2157.93 1310.11 2163.77 1310.11 Q2169 1310.11 2172.03 1313.49 Q2175.09 1316.84 2175.09 1322.63 M2170.83 1321.38 Q2170.78 1317.88 2168.86 1315.8 Q2166.96 1313.72 2163.81 1313.72 Q2160.25 1313.72 2158.1 1315.73 Q2155.97 1317.74 2155.64 1321.4 L2170.83 1321.38 Z" fill="#000000" fill-rule="evenodd" fill-opacity="1" /><path clip-path="url(#clip750)" d="M 0 0 M2197.1 1314.71 Q2196.38 1314.3 2195.53 1314.11 Q2194.69 1313.9 2193.67 1313.9 Q2190.06 1313.9 2188.12 1316.26 Q2186.2 1318.6 2186.2 1323 L2186.2 1336.66 L2181.92 1336.66 L2181.92 1310.73 L2186.2 1310.73 L2186.2 1314.76 Q2187.54 1312.4 2189.69 1311.26 Q2191.85 1310.11 2194.92 1310.11 Q2195.36 1310.11 2195.9 1310.17 Q2196.43 1310.22 2197.08 1310.34 L2197.1 1314.71 Z" fill="#000000" fill-rule="evenodd" fill-opacity="1" /><path clip-path="url(#clip750)" d="M 0 0 M2217.79 1323.39 Q2217.79 1318.76 2215.87 1316.22 Q2213.98 1313.67 2210.53 1313.67 Q2207.1 1313.67 2205.18 1316.22 Q2203.28 1318.76 2203.28 1323.39 Q2203.28 1328 2205.18 1330.55 Q2207.1 1333.09 2210.53 1333.09 Q2213.98 1333.09 2215.87 1330.55 Q2217.79 1328 2217.79 1323.39 M2222.05 1333.44 Q2222.05 1340.06 2219.11 1343.28 Q2216.17 1346.52 2210.11 1346.52 Q2207.86 1346.52 2205.87 1346.17 Q2203.88 1345.85 2202.01 1345.15 L2202.01 1341.01 Q2203.88 1342.03 2205.71 1342.51 Q2207.54 1343 2209.44 1343 Q2213.63 1343 2215.71 1340.8 Q2217.79 1338.62 2217.79 1334.2 L2217.79 1332.1 Q2216.48 1334.39 2214.42 1335.52 Q2212.36 1336.66 2209.48 1336.66 Q2204.72 1336.66 2201.8 1333.02 Q2198.88 1329.39 2198.88 1323.39 Q2198.88 1317.37 2201.8 1313.74 Q2204.72 1310.11 2209.48 1310.11 Q2212.36 1310.11 2214.42 1311.24 Q2216.48 1312.37 2217.79 1314.67 L2217.79 1310.73 L2222.05 1310.73 L2222.05 1333.44 Z" fill="#000000" fill-rule="evenodd" fill-opacity="1" /><path clip-path="url(#clip750)" d="M 0 0 M2241.61 1339.06 Q2239.81 1343.69 2238.1 1345.11 Q2236.38 1346.52 2233.51 1346.52 L2230.11 1346.52 L2230.11 1342.95 L2232.61 1342.95 Q2234.37 1342.95 2235.34 1342.12 Q2236.31 1341.29 2237.49 1338.18 L2238.26 1336.24 L2227.77 1310.73 L2232.29 1310.73 L2240.39 1331.01 L2248.49 1310.73 L2253 1310.73 L2241.61 1339.06 Z" fill="#000000" fill-rule="evenodd" fill-opacity="1" /></svg>
